<?xml version="1.0" encoding="utf-8"?>
<!-- Generator: Adobe Illustrator 19.2.1, SVG Export Plug-In . SVG Version: 6.00 Build 0)  -->
<svg version="1.1" id="Background" xmlns="http://www.w3.org/2000/svg" xmlns:xlink="http://www.w3.org/1999/xlink" x="0px" y="0px"
	 viewBox="0 0 3600 2782.08" enable-background="new 0 0 3600 2782.08" xml:space="preserve">
<rect x="3544.53" y="1038.97" fill="#C9D1D7" width="6.31" height="135.98"/>
<rect x="3544.53" y="1164.17" opacity="0.5" fill="#C9D1D7" width="6.31" height="2.33"/>
<rect x="3544.53" y="1060.74" opacity="0.5" fill="#C9D1D7" width="6.31" height="1.79"/>
<rect x="3557.6" y="1038.97" fill="#C9D1D7" width="6.31" height="135.98"/>
<rect x="3557.6" y="1164.17" opacity="0.5" fill="#C9D1D7" width="6.31" height="2.33"/>
<rect x="3557.6" y="1060.74" opacity="0.5" fill="#C9D1D7" width="6.31" height="1.79"/>
<g>
	<rect x="3165.67" y="1038.82" fill="#C9D1D7" width="6.3" height="135.98"/>
	<rect x="3165.67" y="1059.34" opacity="0.5" fill="#C9D1D7" width="6.31" height="3.03"/>
	<rect x="3165.67" y="1164.76" opacity="0.5" fill="#C9D1D7" width="6.31" height="1.48"/>
</g>
<g>
	<rect x="3152.6" y="1038.82" fill="#C9D1D7" width="6.3" height="135.98"/>
	<rect x="3152.6" y="1059.34" opacity="0.5" fill="#C9D1D7" width="6.31" height="3.03"/>
	<rect x="3152.6" y="1164.76" opacity="0.5" fill="#C9D1D7" width="6.31" height="1.48"/>
</g>
<rect x="3543.54" y="1052.39" fill="#C9D1D7" width="56.46" height="8.19"/>
<rect x="3543.5" y="1156.73" fill="#C9D1D7" width="56.5" height="8.19"/>
<rect x="3543.5" y="1156.73" opacity="0.5" fill="#C9D1D7" width="56.5" height="1.14"/>
<rect x="3543.5" y="1052.48" opacity="0.5" fill="#C9D1D7" width="56.5" height="1.13"/>
<g>
	<g>
		<g>
			<rect x="2876.12" y="1038.82" fill="#C9D1D7" width="6.3" height="135.98"/>
			<rect x="2889.19" y="1038.82" fill="#C9D1D7" width="6.3" height="135.98"/>
			<rect x="2902.25" y="1038.82" fill="#C9D1D7" width="6.31" height="135.98"/>
			<rect x="2915.33" y="1038.82" fill="#C9D1D7" width="6.31" height="135.98"/>
			<rect x="2928.4" y="1038.82" fill="#C9D1D7" width="6.31" height="135.98"/>
			<rect x="2941.47" y="1038.82" fill="#C9D1D7" width="6.31" height="135.98"/>
			<rect x="2954.54" y="1038.82" fill="#C9D1D7" width="6.31" height="135.98"/>
			<rect x="2967.61" y="1038.82" fill="#C9D1D7" width="6.31" height="135.98"/>
			<rect x="2980.69" y="1038.82" fill="#C9D1D7" width="6.31" height="135.98"/>
			<rect x="2993.76" y="1038.82" fill="#C9D1D7" width="6.31" height="135.98"/>
			<rect x="3006.83" y="1038.82" fill="#C9D1D7" width="6.31" height="135.98"/>
			<rect x="3019.9" y="1038.82" fill="#C9D1D7" width="6.3" height="135.98"/>
			<rect x="3032.97" y="1038.82" fill="#C9D1D7" width="6.3" height="135.98"/>
			<rect x="3046.04" y="1038.82" fill="#C9D1D7" width="6.31" height="135.98"/>
			<rect x="3059.12" y="1038.82" fill="#C9D1D7" width="6.31" height="135.98"/>
			<rect x="3072.18" y="1038.82" fill="#C9D1D7" width="6.31" height="135.98"/>
			<rect x="3085.25" y="1038.82" fill="#C9D1D7" width="6.31" height="135.98"/>
			<rect x="3098.33" y="1038.82" fill="#C9D1D7" width="6.31" height="135.98"/>
			<rect x="3111.4" y="1038.82" fill="#C9D1D7" width="6.3" height="135.98"/>
			<rect x="3134.66" y="1038.82" fill="#C9D1D7" width="6.31" height="135.98"/>
			<rect x="3178.75" y="1038.82" fill="#C9D1D7" width="6.3" height="135.98"/>
			<rect x="3191.81" y="1038.82" fill="#C9D1D7" width="6.31" height="135.98"/>
			<rect x="3204.89" y="1038.82" fill="#C9D1D7" width="6.3" height="135.98"/>
			<rect x="3217.96" y="1038.82" fill="#C9D1D7" width="6.3" height="135.98"/>
		</g>
		<g opacity="0.41">
			<rect x="2876.12" y="1164.02" fill="#C9D1D7" width="6.3" height="2.33"/>
			<rect x="2889.19" y="1164.02" fill="#C9D1D7" width="6.3" height="2.33"/>
			<rect x="2902.25" y="1164.02" fill="#C9D1D7" width="6.31" height="2.33"/>
			<rect x="2915.33" y="1164.02" fill="#C9D1D7" width="6.31" height="2.33"/>
			<rect x="2928.4" y="1164.02" fill="#C9D1D7" width="6.31" height="2.33"/>
			<rect x="2941.47" y="1164.02" fill="#C9D1D7" width="6.31" height="2.33"/>
			<rect x="2954.54" y="1164.02" fill="#C9D1D7" width="6.31" height="2.33"/>
			<rect x="2967.61" y="1164.02" fill="#C9D1D7" width="6.31" height="2.33"/>
			<rect x="2980.69" y="1164.02" fill="#C9D1D7" width="6.31" height="2.33"/>
			<rect x="2993.76" y="1164.02" fill="#C9D1D7" width="6.31" height="2.33"/>
			<rect x="3006.83" y="1164.02" fill="#C9D1D7" width="6.31" height="2.33"/>
			<rect x="3019.9" y="1164.02" fill="#C9D1D7" width="6.3" height="2.33"/>
			<rect x="3032.97" y="1164.02" fill="#C9D1D7" width="6.3" height="2.33"/>
			<rect x="3046.04" y="1164.02" fill="#C9D1D7" width="6.31" height="2.33"/>
			<rect x="3059.12" y="1164.02" fill="#C9D1D7" width="6.31" height="2.33"/>
			<rect x="3072.18" y="1164.02" fill="#C9D1D7" width="6.31" height="2.33"/>
			<rect x="3085.25" y="1164.02" fill="#C9D1D7" width="6.31" height="2.33"/>
			<rect x="3098.33" y="1164.02" fill="#C9D1D7" width="6.31" height="2.33"/>
			<rect x="3111.4" y="1164.02" fill="#C9D1D7" width="6.3" height="2.33"/>
		</g>
		<g opacity="0.41">
			<rect x="2876.12" y="1059.34" fill="#C9D1D7" width="6.3" height="3.03"/>
			<rect x="2889.19" y="1059.34" fill="#C9D1D7" width="6.3" height="3.03"/>
			<rect x="2902.25" y="1059.34" fill="#C9D1D7" width="6.31" height="3.03"/>
			<rect x="2915.33" y="1059.34" fill="#C9D1D7" width="6.31" height="3.03"/>
			<rect x="2928.4" y="1059.34" fill="#C9D1D7" width="6.31" height="3.03"/>
			<rect x="2941.47" y="1059.34" fill="#C9D1D7" width="6.31" height="3.03"/>
			<rect x="2954.54" y="1059.34" fill="#C9D1D7" width="6.31" height="3.03"/>
			<rect x="2967.61" y="1059.34" fill="#C9D1D7" width="6.31" height="3.03"/>
			<rect x="2980.69" y="1059.34" fill="#C9D1D7" width="6.31" height="3.03"/>
			<rect x="2993.76" y="1059.34" fill="#C9D1D7" width="6.31" height="3.03"/>
			<rect x="3006.83" y="1059.34" fill="#C9D1D7" width="6.31" height="3.03"/>
			<rect x="3019.9" y="1059.34" fill="#C9D1D7" width="6.3" height="3.03"/>
			<rect x="3032.97" y="1059.34" fill="#C9D1D7" width="6.3" height="3.03"/>
			<rect x="3046.04" y="1059.34" fill="#C9D1D7" width="6.31" height="3.03"/>
			<rect x="3059.12" y="1059.34" fill="#C9D1D7" width="6.31" height="3.03"/>
			<rect x="3072.18" y="1059.34" fill="#C9D1D7" width="6.31" height="3.03"/>
			<rect x="3085.25" y="1059.34" fill="#C9D1D7" width="6.31" height="3.03"/>
			<rect x="3098.33" y="1059.34" fill="#C9D1D7" width="6.31" height="3.03"/>
			<rect x="3111.4" y="1059.34" fill="#C9D1D7" width="6.3" height="3.03"/>
		</g>
		<rect x="2831.27" y="1011.65" fill="#E6E3D4" width="35.17" height="164.44"/>
		<rect x="2825.94" y="1010.12" fill="#D9D9D9" width="44.57" height="34"/>
		<polygon fill="#8C8C8C" points="2831.77,1044.57 2865.94,1044.57 2865.43,1048.75 		"/>
		<rect x="2863.56" y="1052.39" fill="#C9D1D7" width="311.43" height="8.19"/>
		<rect x="2863.42" y="1156.58" fill="#C9D1D7" width="311.95" height="8.19"/>
		<rect x="2863.42" y="1156.58" opacity="0.5" fill="#C9D1D7" width="311.95" height="1.14"/>
		<rect x="2863.42" y="1052.33" opacity="0.5" fill="#C9D1D7" width="311.95" height="1.13"/>
		<polygon opacity="0.15" fill="#8C8C8C" points="2870.13,1053.36 2867.25,1060.46 2866.3,1060.46 2866.3,1052.33 2871.54,1052.33 
					"/>
		<polygon opacity="0.15" fill="#8C8C8C" points="2870.13,1157.55 2867.25,1164.65 2866.3,1164.65 2866.3,1156.52 2871.54,1156.52 
					"/>
	</g>
	<g>
		<g>
			<rect x="3217.75" y="1038.82" fill="#C9D1D7" width="6.3" height="135.98"/>
			<rect x="3230.82" y="1038.82" fill="#C9D1D7" width="6.3" height="135.98"/>
			<rect x="3243.89" y="1038.82" fill="#C9D1D7" width="6.31" height="135.98"/>
			<rect x="3256.96" y="1038.82" fill="#C9D1D7" width="6.31" height="135.98"/>
			<rect x="3270.03" y="1038.82" fill="#C9D1D7" width="6.31" height="135.98"/>
			<rect x="3283.1" y="1038.82" fill="#C9D1D7" width="6.31" height="135.98"/>
			<rect x="3296.18" y="1038.82" fill="#C9D1D7" width="6.31" height="135.98"/>
			<rect x="3309.25" y="1038.82" fill="#C9D1D7" width="6.31" height="135.98"/>
			<rect x="3322.32" y="1038.82" fill="#C9D1D7" width="6.31" height="135.98"/>
			<rect x="3335.39" y="1038.82" fill="#C9D1D7" width="6.31" height="135.98"/>
			<rect x="3348.46" y="1038.82" fill="#C9D1D7" width="6.31" height="135.98"/>
			<rect x="3361.54" y="1038.82" fill="#C9D1D7" width="6.3" height="135.98"/>
			<rect x="3374.6" y="1038.82" fill="#C9D1D7" width="6.3" height="135.98"/>
			<rect x="3387.67" y="1038.82" fill="#C9D1D7" width="6.31" height="135.98"/>
			<rect x="3400.75" y="1038.82" fill="#C9D1D7" width="6.31" height="135.98"/>
			<rect x="3413.82" y="1038.82" fill="#C9D1D7" width="6.31" height="135.98"/>
			<rect x="3426.89" y="1038.82" fill="#C9D1D7" width="6.31" height="135.98"/>
			<rect x="3439.96" y="1038.82" fill="#C9D1D7" width="6.31" height="135.98"/>
			<rect x="3453.04" y="1038.82" fill="#C9D1D7" width="6.3" height="135.98"/>
			<rect x="3466.11" y="1038.82" fill="#C9D1D7" width="6.3" height="135.98"/>
			<rect x="3479.17" y="1038.82" fill="#C9D1D7" width="6.31" height="135.98"/>
			<rect x="3492.25" y="1038.82" fill="#C9D1D7" width="6.3" height="135.98"/>
			<rect x="3505.32" y="1038.82" fill="#C9D1D7" width="6.3" height="135.98"/>
		</g>
		<g opacity="0.41">
			<rect x="3217.75" y="1164.02" fill="#C9D1D7" width="6.3" height="2.33"/>
			<rect x="3230.82" y="1164.02" fill="#C9D1D7" width="6.3" height="2.33"/>
			<rect x="3243.89" y="1164.02" fill="#C9D1D7" width="6.31" height="2.33"/>
			<rect x="3256.96" y="1164.02" fill="#C9D1D7" width="6.31" height="2.33"/>
			<rect x="3270.03" y="1164.02" fill="#C9D1D7" width="6.31" height="2.33"/>
			<rect x="3283.1" y="1164.02" fill="#C9D1D7" width="6.31" height="2.33"/>
			<rect x="3296.18" y="1164.02" fill="#C9D1D7" width="6.31" height="2.33"/>
			<rect x="3309.25" y="1164.02" fill="#C9D1D7" width="6.31" height="2.33"/>
			<rect x="3322.32" y="1164.02" fill="#C9D1D7" width="6.31" height="2.33"/>
			<rect x="3335.39" y="1164.02" fill="#C9D1D7" width="6.31" height="2.33"/>
			<rect x="3348.46" y="1164.02" fill="#C9D1D7" width="6.31" height="2.33"/>
			<rect x="3361.54" y="1164.02" fill="#C9D1D7" width="6.3" height="2.33"/>
			<rect x="3374.6" y="1164.02" fill="#C9D1D7" width="6.3" height="2.33"/>
			<rect x="3387.67" y="1164.02" fill="#C9D1D7" width="6.31" height="2.33"/>
			<rect x="3400.75" y="1164.02" fill="#C9D1D7" width="6.31" height="2.33"/>
			<rect x="3413.82" y="1164.02" fill="#C9D1D7" width="6.31" height="2.33"/>
			<rect x="3426.89" y="1164.02" fill="#C9D1D7" width="6.31" height="2.33"/>
			<rect x="3439.96" y="1164.02" fill="#C9D1D7" width="6.31" height="2.33"/>
			<rect x="3453.04" y="1164.02" fill="#C9D1D7" width="6.3" height="2.33"/>
			<rect x="3466.11" y="1164.02" fill="#C9D1D7" width="6.3" height="2.33"/>
			<rect x="3479.17" y="1164.02" fill="#C9D1D7" width="6.31" height="2.33"/>
			<rect x="3492.25" y="1164.02" fill="#C9D1D7" width="6.3" height="2.33"/>
			<rect x="3505.32" y="1164.02" fill="#C9D1D7" width="6.3" height="2.33"/>
		</g>
		<g opacity="0.41">
			<rect x="3217.75" y="1059.34" fill="#C9D1D7" width="6.3" height="3.03"/>
			<rect x="3204.89" y="1059.34" fill="#C9D1D7" width="6.3" height="3.03"/>
			<rect x="3230.82" y="1059.34" fill="#C9D1D7" width="6.3" height="3.03"/>
			<rect x="3243.89" y="1059.34" fill="#C9D1D7" width="6.31" height="3.03"/>
			<rect x="3256.96" y="1059.34" fill="#C9D1D7" width="6.31" height="3.03"/>
			<rect x="3270.03" y="1059.34" fill="#C9D1D7" width="6.31" height="3.03"/>
			<rect x="3283.1" y="1059.34" fill="#C9D1D7" width="6.31" height="3.03"/>
			<rect x="3296.18" y="1059.34" fill="#C9D1D7" width="6.31" height="3.03"/>
			<rect x="3309.25" y="1059.34" fill="#C9D1D7" width="6.31" height="3.03"/>
			<rect x="3322.32" y="1059.34" fill="#C9D1D7" width="6.31" height="3.03"/>
			<rect x="3335.39" y="1059.34" fill="#C9D1D7" width="6.31" height="3.03"/>
			<rect x="3348.46" y="1059.34" fill="#C9D1D7" width="6.31" height="3.03"/>
			<rect x="3361.54" y="1059.34" fill="#C9D1D7" width="6.3" height="3.03"/>
			<rect x="3374.6" y="1059.34" fill="#C9D1D7" width="6.3" height="3.03"/>
			<rect x="3387.67" y="1059.34" fill="#C9D1D7" width="6.31" height="3.03"/>
			<rect x="3400.75" y="1059.34" fill="#C9D1D7" width="6.31" height="3.03"/>
			<rect x="3413.82" y="1059.34" fill="#C9D1D7" width="6.31" height="3.03"/>
			<rect x="3426.89" y="1059.34" fill="#C9D1D7" width="6.31" height="3.03"/>
			<rect x="3439.96" y="1059.34" fill="#C9D1D7" width="6.31" height="3.03"/>
			<rect x="3453.04" y="1059.34" fill="#C9D1D7" width="6.3" height="3.03"/>
			<rect x="3466.11" y="1059.34" fill="#C9D1D7" width="6.3" height="3.03"/>
			<rect x="3479.17" y="1059.34" fill="#C9D1D7" width="6.31" height="3.03"/>
			<rect x="3492.25" y="1059.34" fill="#C9D1D7" width="6.3" height="3.03"/>
			<rect x="3505.32" y="1059.34" fill="#C9D1D7" width="6.3" height="3.03"/>
		</g>
		<polygon fill="#C9D1D7" points="3545.84,1060.58 3170.64,1060.58 3170.59,1052.39 3545.78,1052.39 		"/>
		<rect x="3170.45" y="1156.58" fill="#C9D1D7" width="375.71" height="8.19"/>
		<rect x="3170.45" y="1156.58" opacity="0.5" fill="#C9D1D7" width="375.71" height="1.14"/>
		<rect x="3170.45" y="1052.33" opacity="0.5" fill="#C9D1D7" width="375.71" height="1.13"/>
	</g>
	<g>
		<g>
			<rect x="3518.4" y="1038.97" fill="#C9D1D7" width="6.3" height="135.98"/>
			<rect x="3531.46" y="1038.97" fill="#C9D1D7" width="6.3" height="135.98"/>
		</g>
		<g opacity="0.41">
			<rect x="3518.4" y="1164.17" fill="#C9D1D7" width="6.3" height="2.33"/>
			<rect x="3531.46" y="1164.17" fill="#C9D1D7" width="6.3" height="2.33"/>
		</g>
		<g opacity="0.41">
			<rect x="3518.4" y="1059.49" fill="#C9D1D7" width="6.3" height="3.03"/>
			<rect x="3531.46" y="1059.49" fill="#C9D1D7" width="6.3" height="3.03"/>
		</g>
	</g>
	<rect x="3188.87" y="1009.94" fill="#FFFFFF" stroke="#808080" width="336.55" height="128.83"/>
</g>
<path fill="#83BC6C" d="M2891.15,1279.92c0,0,116.56,34.54,155.16,0s-91.13-54.57-91.13-54.57l-73.75-32.85L2891.15,1279.92z"/>
<g>
	<g>
		<polygon points="3020.13,1225.37 2992.91,1225.37 2992.91,1177.49 2988.13,1177.49 2988.13,1225.37 2957.74,1225.37 
			2952.96,1225.37 2952.96,1230.15 2952.96,1264.45 2955.27,1266.65 2957.74,1264.45 2957.74,1230.15 2988.13,1230.15 
			2988.13,1261.7 2990.52,1265.39 2992.91,1261.7 2992.91,1230.15 3020.13,1230.15 3020.13,1264.45 3022.52,1266.65 
			3024.91,1264.45 3024.91,1230.15 3024.91,1225.37 		"/>
		<g>
			<linearGradient id="SVGID_1_" gradientUnits="userSpaceOnUse" x1="2990.4304" y1="1166.6614" x2="2990.4304" y2="986.633">
				<stop  offset="0.0337" style="stop-color:#525252"/>
				<stop  offset="1" style="stop-color:#ABABAB"/>
			</linearGradient>
			<path fill="url(#SVGID_1_)" d="M3058.1,1177.33c0,0.56-0.46,1.02-1.02,1.02h-133.31c-0.56,0-1.02-0.46-1.02-1.02V940.67
				c0-0.56,0.46-1.02,1.02-1.02h133.31c0.56,0,1.02,0.46,1.02,1.02V1177.33z"/>
			<path fill="none" d="M3058.1,1177.33c0,0.56-0.46,1.02-1.02,1.02h-133.31c-0.56,0-1.02-0.46-1.02-1.02V940.67
				c0-0.56,0.46-1.02,1.02-1.02h133.31c0.56,0,1.02,0.46,1.02,1.02V1177.33z"/>
		</g>
		<g>
			<linearGradient id="SVGID_2_" gradientUnits="userSpaceOnUse" x1="2990.4307" y1="1176.8689" x2="2990.4307" y2="883.03">
				<stop  offset="0.0337" style="stop-color:#525252"/>
				<stop  offset="1" style="stop-color:#FFFFFF"/>
			</linearGradient>
			<path fill="url(#SVGID_2_)" d="M3053.42,1172.61c0,0.55-0.45,1.01-1.01,1.01h-123.97c-0.55,0-1.01-0.45-1.01-1.01V946.45
				c0-0.55,0.45-1.01,1.01-1.01h123.97c0.55,0,1.01,0.45,1.01,1.01V1172.61z"/>
			<path fill="none" stroke="#FFFFFF" d="M3053.42,1172.61c0,0.55-0.45,1.01-1.01,1.01h-123.97c-0.55,0-1.01-0.45-1.01-1.01V946.45
				c0-0.55,0.45-1.01,1.01-1.01h123.97c0.55,0,1.01,0.45,1.01,1.01V1172.61z"/>
		</g>
		<polygon fill="#FFFFFF" points="3048.75,1168.89 2932.12,1168.89 2932.12,950.46 3048.75,950.46 3048.75,1168.89 		"/>
	</g>
</g>
<path fill="#83BC6C" d="M779.04,1145.83c0,0-136.9,27.79-310.3,80.37c-157.39,47.73-351.68,55.8-328.02,231.62
	s267.74,209.08,336.9,224.12c261.95,56.97,302.96-100.33,510.75-42.17c207.79,58.15,315.55,104.06,468.62,27.55
	c153.07-76.52,166.25-277.45,166.25-277.45L779.04,1145.83z"/>
<path fill="#659051" d="M1520.48,1384.61c-12-0.55-23.44-0.5-33.69,0.06c-9.49-1.38-20.51-2.43-32.32-2.98
	c-36.79-1.67-67.28,2.17-68.12,8.6c-0.82,6.3,27.03,12.71,62.67,14.58c12.07,5.77,37.46,10.5,67.27,11.87
	c42.45,1.95,77.79-3.67,78.95-12.54C1596.39,1395.31,1562.92,1386.55,1520.48,1384.61z"/>
<polygon fill="#F2F1EA" stroke="#989898" points="1619.14,1359.51 1619.14,562.72 2892.16,718.73 2892.16,1246.42 "/>
<polygon fill="#E2DBCC" points="2490.29,1292.24 2490.29,672.25 2819.52,712.6 2819.52,1261.84 "/>
<polygon fill="#F2F1EA" stroke="#989898" points="2892.16,711.78 1617.67,552.04 1617.67,566.28 2892.16,721.21 "/>
<polygon fill="none" stroke="#989898" points="2892.16,789.83 1617.67,669.94 1617.67,684.18 2892.16,799.26 "/>
<linearGradient id="SVGID_3_" gradientUnits="userSpaceOnUse" x1="2039.54" y1="1233.6742" x2="2039.54" y2="582.1705">
	<stop  offset="0" style="stop-color:#D4DDDF"/>
	<stop  offset="1" style="stop-color:#AFD3D7"/>
</linearGradient>
<polygon fill="url(#SVGID_3_)" stroke="#000000" points="1930.71,908.34 1930.71,1220.94 2148.37,1208.37 2148.37,915.68 "/>
<linearGradient id="SVGID_4_" gradientUnits="userSpaceOnUse" x1="2274.3108" y1="1219.1813" x2="2274.3108" y2="612.6165">
	<stop  offset="0" style="stop-color:#D4DDDF"/>
	<stop  offset="1" style="stop-color:#AFD3D7"/>
</linearGradient>
<polygon fill="url(#SVGID_4_)" stroke="#000000" points="2173.99,916.29 2173.99,1207.32 2374.63,1194.76 2374.63,923.62 "/>
<linearGradient id="SVGID_5_" gradientUnits="userSpaceOnUse" x1="1788.7169" y1="1248.2174" x2="1788.7169" y2="551.6186">
	<stop  offset="0" style="stop-color:#D4DDDF"/>
	<stop  offset="1" style="stop-color:#AFD3D7"/>
</linearGradient>
<polygon fill="url(#SVGID_5_)" stroke="#000000" points="1673.18,900.36 1673.18,1234.6 1904.26,1222.03 1904.26,907.7 "/>
<polygon fill="#DAD5BF" stroke="#989898" points="2892.16,1255.19 2892.16,1283.02 1617.91,1414.48 1617.91,1371.54 "/>
<linearGradient id="SVGID_6_" gradientUnits="userSpaceOnUse" x1="1783.3176" y1="901.215" x2="1783.3176" y2="832.5631">
	<stop  offset="0" style="stop-color:#FDB714"/>
	<stop  offset="1" style="stop-color:#FED208"/>
</linearGradient>
<polygon fill="url(#SVGID_6_)" points="1653.16,734.12 1913.48,754.36 1913.48,909.05 1653.16,900.39 "/>
<line fill="none" stroke="#F5831F" x1="1690.4" y1="901.63" x2="1690.4" y2="737.01"/>
<line fill="none" stroke="#F5831F" x1="1727.66" y1="902.87" x2="1727.66" y2="739.91"/>
<line fill="none" stroke="#F5831F" x1="1764.92" y1="904.11" x2="1764.92" y2="742.81"/>
<line fill="none" stroke="#F5831F" x1="1802.19" y1="905.35" x2="1802.19" y2="745.71"/>
<line fill="none" stroke="#F5831F" x1="1839.45" y1="906.59" x2="1839.45" y2="748.61"/>
<line fill="none" stroke="#F5831F" x1="1876.71" y1="907.83" x2="1876.71" y2="751.5"/>
<linearGradient id="SVGID_7_" gradientUnits="userSpaceOnUse" x1="2043.8535" y1="910.4021" x2="2043.8535" y2="846.3015">
	<stop  offset="0" style="stop-color:#FDB714"/>
	<stop  offset="1" style="stop-color:#FED208"/>
</linearGradient>
<polygon fill="url(#SVGID_7_)" points="1913.69,754.38 2174.02,774.63 2174.02,917.72 1913.69,909.06 "/>
<line fill="none" stroke="#F5831F" x1="1950.94" y1="910.3" x2="1950.94" y2="757.28"/>
<line fill="none" stroke="#F5831F" x1="1988.2" y1="911.54" x2="1988.2" y2="760.18"/>
<line fill="none" stroke="#F5831F" x1="2025.46" y1="912.78" x2="2025.46" y2="763.07"/>
<line fill="none" stroke="#F5831F" x1="2062.72" y1="914.01" x2="2062.72" y2="765.97"/>
<line fill="none" stroke="#F5831F" x1="2099.98" y1="915.25" x2="2099.98" y2="768.87"/>
<line fill="none" stroke="#F5831F" x1="2137.24" y1="916.49" x2="2137.24" y2="771.77"/>
<linearGradient id="SVGID_8_" gradientUnits="userSpaceOnUse" x1="2297.4368" y1="923.5002" x2="2297.4368" y2="864.4158" gradientTransform="matrix(1 3.662882e-03 -3.662882e-03 1 -10.6524 -13.5679)">
	<stop  offset="0" style="stop-color:#FDB714"/>
	<stop  offset="1" style="stop-color:#FED208"/>
</linearGradient>
<polygon fill="url(#SVGID_8_)" points="2174.22,774.13 2393.46,792.18 2393.06,925.49 2173.81,917.74 "/>
<line fill="none" stroke="#F5831F" x1="2211.26" y1="918.96" x2="2211.26" y2="777.53"/>
<line fill="none" stroke="#F5831F" x1="2248.52" y1="920.2" x2="2248.52" y2="780.43"/>
<line fill="none" stroke="#F5831F" x1="2285.78" y1="921.44" x2="2285.78" y2="783.32"/>
<line fill="none" stroke="#F5831F" x1="2323.05" y1="922.68" x2="2323.05" y2="786.22"/>
<line fill="none" stroke="#F5831F" x1="2360.31" y1="923.92" x2="2360.31" y2="789.12"/>
<radialGradient id="SVGID_9_" cx="2784.6523" cy="719.7156" r="279.9594" gradientUnits="userSpaceOnUse">
	<stop  offset="0.2198" style="stop-color:#FED208"/>
	<stop  offset="1" style="stop-color:#FDB714"/>
</radialGradient>
<path fill="url(#SVGID_9_)" d="M2778.48,830.86c7.2,0.53,13.03,32.52,13.03,71.43l10.42,0.49c0-41.74-10.49-76.37-23.45-77.36
	c-7.36-0.56-13.94,9.25-18.23,25.09c-4.3-16.46-10.87-27.32-18.23-27.88c-12.94-0.99-23.45,33.13-23.45,76.22l10.42,0.49
	c0-39.85,5.83-71.73,13.03-71.19c7.19,0.53,13.02,30.5,13.02,66.92l10.42,0.51C2765.45,859.31,2771.28,830.33,2778.48,830.86"/>
<g>
	<polygon fill="#E3E2DC" stroke="#989898" points="492.51,1184.82 492.51,616.86 1619.51,566.32 1619.51,1363.43 	"/>
	<linearGradient id="SVGID_10_" gradientUnits="userSpaceOnUse" x1="1000.6015" y1="1299.9088" x2="1000.6015" y2="442.8739">
		<stop  offset="0" style="stop-color:#D4DDDF"/>
		<stop  offset="1" style="stop-color:#AFD3D7"/>
	</linearGradient>
	<polygon fill="url(#SVGID_10_)" points="881.3,871.94 881.3,1245.34 1119.9,1283.15 1119.9,881.75 	"/>
	<linearGradient id="SVGID_11_" gradientUnits="userSpaceOnUse" x1="1314.1309" y1="1351.0972" x2="1314.1309" y2="417.3844">
		<stop  offset="0" style="stop-color:#D4DDDF"/>
		<stop  offset="1" style="stop-color:#AFD3D7"/>
	</linearGradient>
	<polygon fill="url(#SVGID_11_)" points="1194.83,884.84 1194.83,1295.03 1433.43,1332.84 1433.43,894.65 	"/>
	<linearGradient id="SVGID_12_" gradientUnits="userSpaceOnUse" x1="690.1611" y1="1248.6956" x2="690.1611" y2="468.3759">
		<stop  offset="0" style="stop-color:#D4DDDF"/>
		<stop  offset="1" style="stop-color:#AFD3D7"/>
	</linearGradient>
	<polygon fill="url(#SVGID_12_)" points="574.1,859.03 574.1,1195.62 806.22,1233.44 806.22,868.85 	"/>
	<polygon fill="#E6E3D4" points="881.3,1212.03 881.3,1246.43 1119.9,1284.25 1119.9,1247.26 	"/>
	<polygon fill="#E6E3D4" points="1194.83,1257.78 1194.83,1295.58 1433.43,1333.39 1433.43,1293.01 	"/>
	<polygon fill="#E6E3D4" points="574.1,1165.7 574.1,1196.72 806.22,1234.54 806.22,1200.94 	"/>
	<polygon fill="#DAD5BF" stroke="#989898" points="1617.91,1371.54 1617.91,1414.48 493.88,1221.28 493.88,1190.01 	"/>
	<polygon fill="#F2F1EA" stroke="#989898" points="1618.15,552.15 493.88,606.65 493.88,616.8 1618.15,566.39 	"/>
	<polygon fill="#F2F1EA" stroke="#989898" points="1619.68,669.97 481.24,691.07 481.24,701.17 1619.68,684.25 	"/>
	<line fill="none" stroke="#FFFFFF" x1="881.07" y1="1210.86" x2="1119.68" y2="1246.01"/>
	<line fill="none" stroke="#FFFFFF" x1="1194.53" y1="1257.04" x2="1433.13" y2="1292.19"/>
	<line fill="none" stroke="#FFFFFF" x1="574.1" y1="1164.68" x2="806.22" y2="1199.83"/>
	<line fill="none" stroke="#FFFFFF" x1="1119.68" y1="1233.89" x2="881.07" y2="1199.58"/>
	<line fill="none" stroke="#FFFFFF" x1="1433.13" y1="1278.96" x2="1194.53" y2="1244.65"/>
	<line fill="none" stroke="#FFFFFF" x1="806.22" y1="1188.82" x2="574.1" y2="1154.52"/>
	<polygon fill="none" stroke="#000000" points="881.3,871.94 881.3,1245.34 1119.9,1283.15 1119.9,881.75 	"/>
	<polygon fill="none" stroke="#000000" points="1194.83,884.84 1194.83,1295.03 1433.43,1332.84 1433.43,894.65 	"/>
	<polygon fill="none" stroke="#000000" points="574.1,859.03 574.1,1195.62 806.22,1233.44 806.22,868.85 	"/>
	<linearGradient id="SVGID_13_" gradientUnits="userSpaceOnUse" x1="1312.8333" y1="888.9709" x2="1312.8333" y2="825.8926">
		<stop  offset="0" style="stop-color:#FDB714"/>
		<stop  offset="1" style="stop-color:#FED208"/>
	</linearGradient>
	<polygon fill="url(#SVGID_13_)" points="1172.47,735.94 1453.2,735.44 1453.2,896.17 1172.47,884.65 	"/>
	<linearGradient id="SVGID_14_" gradientUnits="userSpaceOnUse" x1="686.3927" y1="864.4664" x2="686.3927" y2="811.9143">
		<stop  offset="0" style="stop-color:#FDB714"/>
		<stop  offset="1" style="stop-color:#FED208"/>
	</linearGradient>
	<polygon fill="url(#SVGID_14_)" points="546.03,737.05 826.76,736.55 826.76,870.46 546.03,858.94 	"/>
	<linearGradient id="SVGID_15_" gradientUnits="userSpaceOnUse" x1="1000.0725" y1="876.7366" x2="1000.0725" y2="818.9137">
		<stop  offset="0" style="stop-color:#FDB714"/>
		<stop  offset="1" style="stop-color:#FED208"/>
	</linearGradient>
	<polygon fill="url(#SVGID_15_)" points="859.71,736.5 1140.44,736 1140.44,883.34 859.71,871.82 	"/>
	<g>
		<g>
			<line fill="none" stroke="#F5831F" x1="586.19" y1="860.59" x2="586.19" y2="736.98"/>
		</g>
		<g>
			<line fill="none" stroke="#F5831F" x1="626.38" y1="862.24" x2="626.38" y2="736.91"/>
		</g>
		<g>
			<line fill="none" stroke="#F5831F" x1="666.56" y1="863.89" x2="666.56" y2="736.84"/>
		</g>
		<g>
			<line fill="none" stroke="#F5831F" x1="706.74" y1="865.54" x2="706.74" y2="736.77"/>
		</g>
		<g>
			<line fill="none" stroke="#F5831F" x1="746.92" y1="867.19" x2="746.92" y2="736.7"/>
		</g>
		<g>
			<line fill="none" stroke="#F5831F" x1="787.1" y1="868.84" x2="787.1" y2="736.63"/>
		</g>
	</g>
	<g>
		<g>
			<line fill="none" stroke="#F5831F" x1="898.76" y1="873.42" x2="898.76" y2="736.43"/>
		</g>
		<g>
			<line fill="none" stroke="#F5831F" x1="938.94" y1="875.07" x2="938.94" y2="736.35"/>
		</g>
		<g>
			<line fill="none" stroke="#F5831F" x1="979.12" y1="876.72" x2="979.12" y2="736.28"/>
		</g>
		<g>
			<line fill="none" stroke="#F5831F" x1="1019.31" y1="878.36" x2="1019.31" y2="736.21"/>
		</g>
		<g>
			<line fill="none" stroke="#F5831F" x1="1059.49" y1="880.01" x2="1059.49" y2="736.14"/>
		</g>
		<g>
			<line fill="none" stroke="#F5831F" x1="1099.67" y1="881.66" x2="1099.67" y2="736.07"/>
		</g>
	</g>
	<g>
		<g>
			<line fill="none" stroke="#F5831F" x1="1213.68" y1="886.34" x2="1213.68" y2="735.87"/>
		</g>
		<g>
			<line fill="none" stroke="#F5831F" x1="1253.87" y1="887.99" x2="1253.87" y2="735.79"/>
		</g>
		<g>
			<line fill="none" stroke="#F5831F" x1="1294.05" y1="889.64" x2="1294.05" y2="735.72"/>
		</g>
		<g>
			<line fill="none" stroke="#F5831F" x1="1334.23" y1="891.29" x2="1334.23" y2="735.65"/>
		</g>
		<g>
			<line fill="none" stroke="#F5831F" x1="1374.42" y1="892.94" x2="1374.42" y2="735.58"/>
		</g>
		<g>
			<line fill="none" stroke="#F5831F" x1="1414.59" y1="894.59" x2="1414.59" y2="735.51"/>
		</g>
	</g>
	<polygon fill="#FFFFFF" stroke="#989898" points="1163.33,822.16 1462.34,829.06 1462.34,838.68 1163.33,831 	"/>
	<polygon fill="#FFFFFF" stroke="#989898" points="850.56,814.93 1149.58,821.84 1149.58,830.65 850.56,822.98 	"/>
	<polygon fill="#FFFFFF" stroke="#989898" points="536.89,807.68 835.9,814.59 835.9,822.6 536.89,814.93 	"/>
	<radialGradient id="SVGID_16_" cx="1333.3964" cy="482.8246" r="1006.84" gradientUnits="userSpaceOnUse">
		<stop  offset="0.2198" style="stop-color:#FED208"/>
		<stop  offset="1" style="stop-color:#FDB714"/>
	</radialGradient>
	<path fill="url(#SVGID_16_)" d="M1694.78,519.62c-414.71-129-843.67-87.15-1262.27,69.35c0.33,25.63,0.33,44.57,0.33,71.07
		c405.05-161.02,843.74-218.29,1260.17-101.71C1694.03,543.82,1694.52,533.08,1694.78,519.62z"/>
	<radialGradient id="SVGID_17_" cx="1568.3575" cy="622.7358" r="382.1724" gradientUnits="userSpaceOnUse">
		<stop  offset="0.2198" style="stop-color:#FED208"/>
		<stop  offset="1" style="stop-color:#FDB714"/>
	</radialGradient>
	<path fill="url(#SVGID_17_)" d="M1561.7,771.4c7.76,0.06,14.05,45.41,14.05,101.27l11.24,0.38c0-60.34-11.32-109.32-25.29-109.4
		c-7.94-0.04-15.03,14.47-19.66,37.14c-4.63-22.76-11.72-37.31-19.66-37.36c-13.96-0.08-25.29,47.64-25.29,106.59l11.23,0.38
		c0-54.9,6.29-99.36,14.05-99.3c7.75,0.06,14.04,41.5,14.04,92.55l11.24,0.36C1547.65,812.81,1553.94,771.35,1561.7,771.4"/>
	<polygon fill="#F2F1EA" stroke="#989898" points="1618.14,1359.66 493.88,1182.5 493.88,1191.88 1618.14,1372.82 	"/>
	<polygon fill="#F2F1EA" stroke="#989898" points="2892.16,1246.42 1617.67,1359.65 1617.67,1372.81 2892.16,1255.14 	"/>
</g>
<path fill="#A2A192" d="M1589.62,1409.62c0,0,11.07-9.98,0-30.52c-25.14,10.05-37.42,24.09-37.42,24.09L1589.62,1409.62z"/>
<g>
	<g>
		<path fill="#487155" d="M1407.69,1338.77c8.43,25.89,31.11,45.32,58.78,49.03c-6.21,1.51-12.98,2.35-20.07,2.35
			c-30.11,0-54.51-15-54.51-33.51C1391.89,1350.09,1398.79,1343.95,1407.69,1338.77z"/>
		<path fill="#487155" d="M1407.69,1338.77c1.04-0.61,2.11-1.2,3.2-1.78c8.69,27.66,34.45,47.74,64.93,47.86
			c-2.93,1.16-6.06,2.15-9.34,2.95C1438.8,1384.09,1416.12,1364.66,1407.69,1338.77z"/>
		<path fill="#507856" d="M1410.88,1336.99c1.07-0.57,2.16-1.13,3.25-1.67c8.07,26.59,32.75,45.94,61.96,45.94
			c2.78,0,5.51-0.2,8.2-0.54c-2.59,1.54-5.43,2.92-8.48,4.13C1445.34,1384.72,1419.57,1364.65,1410.88,1336.99z"/>
		<path fill="#598159" d="M1414.14,1335.32c1.09-0.54,2.19-1.06,3.29-1.57c7.46,25.38,30.89,43.91,58.66,43.91
			c5.19,0,10.23-0.65,15.04-1.87c-2.02,1.78-4.31,3.43-6.84,4.94c-2.69,0.34-5.42,0.54-8.2,0.54
			C1446.89,1381.26,1422.21,1361.9,1414.14,1335.32z"/>
		<path fill="#62895A" d="M1417.43,1333.75c1.11-0.51,2.21-1,3.32-1.48c6.87,24.12,29.04,41.79,55.34,41.79
			c7.01,0,13.72-1.26,19.94-3.55c-1.38,1.86-3.02,3.63-4.9,5.28c-4.81,1.22-9.85,1.87-15.04,1.87
			C1448.32,1377.66,1424.89,1359.12,1417.43,1333.75z"/>
		<path fill="#69915C" d="M1420.75,1332.27c1.12-0.48,2.24-0.95,3.34-1.41c6.3,22.83,27.19,39.59,52,39.59
			c7.45,0,14.55-1.51,21-4.24c0.66-0.28,1.31-0.58,1.96-0.89c-0.78,1.79-1.8,3.52-3.03,5.18c-6.21,2.3-12.93,3.55-19.94,3.55
			C1449.79,1374.06,1427.62,1356.39,1420.75,1332.27z"/>
		<path fill="#71985D" d="M1476.09,1370.45c-24.81,0-45.7-16.77-52-39.59c1.14-0.46,2.26-0.91,3.36-1.34
			c5.76,21.5,25.35,37.33,48.64,37.33c6.95,0,13.58-1.41,19.6-3.96c1.66-0.7,3.28-1.5,4.84-2.38c-0.31,1.64-0.8,3.25-1.48,4.81
			c-0.65,0.31-1.3,0.61-1.96,0.89C1490.64,1368.94,1483.54,1370.45,1476.09,1370.45z"/>
		<path fill="#7AA15E" d="M1476.09,1366.85c-23.29,0-42.89-15.83-48.64-37.33c1.15-0.45,2.28-0.87,3.38-1.28
			c5.23,20.14,23.51,35.01,45.26,35.01c9.11,0,17.61-2.62,24.8-7.13c0.01,0.17,0.02,0.35,0.02,0.52c0,1.31-0.14,2.6-0.37,3.87
			c-1.57,0.87-3.18,1.67-4.84,2.38C1489.67,1365.44,1483.05,1366.85,1476.09,1366.85z"/>
		<path fill="#81A961" d="M1430.83,1328.25c1.17-0.43,2.31-0.84,3.4-1.22c4.71,18.75,21.67,32.63,41.86,32.63
			c8.84,0,17.05-2.66,23.89-7.22c0.53,1.21,0.84,2.44,0.91,3.69c-7.19,4.51-15.69,7.13-24.8,7.13
			C1454.34,1363.25,1436.05,1348.38,1430.83,1328.25z"/>
		<path fill="#89B162" d="M1434.23,1327.02c1.2-0.42,2.35-0.81,3.42-1.17c4.22,17.33,19.82,30.2,38.44,30.2
			c8.16,0,15.75-2.48,22.05-6.72c0.76,1.02,1.38,2.05,1.84,3.1c-6.84,4.56-15.05,7.22-23.89,7.22
			C1455.9,1359.65,1438.95,1345.77,1434.23,1327.02z"/>
		<path fill="#92BA63" d="M1437.65,1325.85c1.25-0.42,2.4-0.79,3.43-1.12c3.74,15.89,17.99,27.72,35,27.72
			c7.25,0,14-2.16,19.65-5.85c0.9,0.9,1.71,1.81,2.4,2.74c-6.3,4.24-13.89,6.72-22.05,6.72
			C1457.48,1356.05,1441.87,1343.18,1437.65,1325.85z"/>
		<path fill="#99C066" d="M1441.09,1324.73c1.4-0.44,2.57-0.8,3.45-1.06c3.28,14.41,16.16,25.17,31.56,25.17
			c6.18,0,11.95-1.73,16.86-4.74c1.01,0.81,1.95,1.64,2.8,2.48c-5.65,3.7-12.4,5.85-19.65,5.85
			C1459.08,1352.45,1444.83,1340.62,1441.09,1324.73z"/>
		<path fill="#A0C867" d="M1444.54,1323.68c1.23-0.36,1.91-0.55,1.86-0.53c-0.05,0.02,0.63,0.23,1.85,0.61
			c3.23,12.37,14.47,21.49,27.84,21.49c4.96,0,9.63-1.26,13.7-3.47c1.11,0.76,2.17,1.54,3.15,2.33c-4.91,3-10.68,4.74-16.86,4.74
			C1460.7,1348.85,1447.82,1338.09,1444.54,1323.68z"/>
		<path fill="#A8CF69" d="M1448.25,1323.76c1.03,0.32,2.46,0.77,4.18,1.33c3.52,9.67,12.79,16.57,23.66,16.57
			c3.61,0,7.05-0.77,10.16-2.14c1.23,0.74,2.42,1.5,3.55,2.27c-4.07,2.21-8.74,3.47-13.7,3.47
			C1462.72,1345.25,1451.49,1336.12,1448.25,1323.76z"/>
		<path fill="#AFD469" d="M1452.43,1325.08c1.37,0.45,2.93,0.96,4.63,1.55c3.64,6.79,10.79,11.42,19.03,11.42
			c2.09,0,4.11-0.31,6.03-0.87c1.42,0.75,2.8,1.53,4.13,2.33c-3.11,1.37-6.54,2.14-10.16,2.14
			C1465.22,1341.65,1455.95,1334.75,1452.43,1325.08z"/>
		<path fill="#B7D76E" d="M1457.06,1326.63c1.84,0.63,3.84,1.34,5.94,2.13c3.28,3.49,7.93,5.69,13.1,5.69c0.17,0,0.33-0.02,0.5-0.03
			c1.87,0.88,3.73,1.8,5.53,2.76c-1.91,0.56-3.93,0.87-6.03,0.87C1467.85,1338.05,1460.7,1333.43,1457.06,1326.63z"/>
		<path fill="#BED970" d="M1463,1328.76c4.29,1.6,9,3.51,13.6,5.66c-0.17,0-0.33,0.03-0.5,0.03
			C1470.92,1334.45,1466.28,1332.25,1463,1328.76z"/>
	</g>
	<g>
		<path fill="#487155" d="M1461.2,1289.78c6.4,34.4,31.9,61.3,64.02,67.29c-6.92,1.49-14.37,2.31-22.14,2.31
			c-36.18,0-65.51-17.63-65.51-39.36C1437.56,1307.87,1446.76,1297,1461.2,1289.78z"/>
		<path fill="#487155" d="M1461.2,1289.78c1.21-0.6,2.46-1.17,3.73-1.72c6.44,36.69,35.69,64.63,71.21,65.94
			c-3.45,1.22-7.1,2.25-10.92,3.08C1493.09,1351.08,1467.6,1324.18,1461.2,1289.78z"/>
		<path fill="#507856" d="M1464.93,1288.06c1.23-0.53,2.48-1.04,3.77-1.51c5.99,35.96,35.06,63.25,70.05,63.25
			c2.76,0,5.47-0.19,8.15-0.52c-3.3,1.78-6.9,3.36-10.75,4.72C1500.62,1352.68,1471.37,1324.75,1464.93,1288.06z"/>
		<path fill="#598159" d="M1468.7,1286.54c1.24-0.46,2.51-0.89,3.8-1.3c5.45,34.23,33.03,60.28,66.25,60.28
			c6.04,0,11.9-0.88,17.47-2.49c-2.73,2.28-5.86,4.38-9.32,6.25c-2.67,0.33-5.39,0.52-8.15,0.52
			C1503.76,1349.79,1474.69,1322.5,1468.7,1286.54z"/>
		<path fill="#62895A" d="M1472.5,1285.24c1.25-0.4,2.53-0.77,3.83-1.12c4.98,32.41,31.02,57.12,62.41,57.12
			c8.55,0,16.69-1.84,24.13-5.16c-1.83,2.46-4.07,4.78-6.66,6.95c-5.57,1.62-11.42,2.49-17.47,2.49
			C1505.53,1345.51,1477.95,1319.47,1472.5,1285.24z"/>
		<path fill="#69915C" d="M1476.33,1284.12c1.27-0.34,2.55-0.66,3.86-0.96c4.58,30.51,29.04,53.8,58.56,53.8
			c8.19,0,16-1.79,23.1-5.04c1.66-0.76,3.27-1.6,4.84-2.51c-0.94,2.31-2.22,4.54-3.81,6.67c-7.44,3.32-15.58,5.16-24.13,5.16
			C1507.35,1341.24,1481.32,1316.53,1476.33,1284.12z"/>
		<path fill="#71985D" d="M1538.75,1336.96c-29.51,0-53.98-23.29-58.56-53.8c1.28-0.29,2.57-0.55,3.89-0.79
			c4.23,28.52,27.09,50.31,54.67,50.31c7.65,0,14.93-1.68,21.56-4.7c2.8-1.28,5.47-2.81,8.01-4.55c-0.29,2.04-0.84,4.04-1.63,5.98
			c-1.58,0.91-3.19,1.75-4.84,2.51C1554.74,1335.17,1546.94,1336.96,1538.75,1336.96z"/>
		<path fill="#7AA15E" d="M1538.75,1332.69c-27.57,0-50.43-21.79-54.67-50.31c1.29-0.23,2.59-0.44,3.91-0.63
			c3.95,26.45,25.17,46.66,50.75,46.66c11.09,0,21.35-3.81,29.75-10.26c0.05,0.62,0.08,1.25,0.08,1.88c0,1.15-0.1,2.28-0.26,3.4
			c-2.54,1.74-5.21,3.27-8.01,4.55C1553.68,1331.01,1546.39,1332.69,1538.75,1332.69z"/>
		<path fill="#81A961" d="M1487.99,1281.75c1.3-0.18,2.61-0.34,3.94-0.48c3.73,24.32,23.26,42.86,46.82,42.86
			c10.88,0,20.91-3.97,28.91-10.63c0.42,1.52,0.71,3.07,0.83,4.65c-8.4,6.45-18.66,10.26-29.75,10.26
			C1513.16,1328.41,1491.95,1308.2,1487.99,1281.75z"/>
		<path fill="#89B162" d="M1491.93,1281.27c1.31-0.13,2.63-0.25,3.96-0.34c3.56,22.11,21.38,38.93,42.85,38.93
			c10.38,0,19.9-3.93,27.38-10.49c0.63,1.35,1.15,2.73,1.54,4.13c-8.01,6.66-18.03,10.63-28.91,10.63
			C1515.19,1324.13,1495.66,1305.59,1491.93,1281.27z"/>
		<path fill="#92BA63" d="M1495.89,1280.93c1.32-0.09,2.65-0.15,3.99-0.19c3.44,19.83,19.53,34.84,38.87,34.84
			c9.63,0,18.45-3.72,25.31-9.9c0.79,1.2,1.48,2.44,2.07,3.7c-7.48,6.55-17,10.49-27.38,10.49
			C1517.28,1319.86,1499.45,1303.04,1495.89,1280.93z"/>
		<path fill="#99C066" d="M1538.75,1315.58c-19.34,0-35.43-15.01-38.87-34.84c1.06-0.03,2.12-0.05,3.19-0.05
			c0.28,0,0.55,0.01,0.82,0.01c3.37,17.47,17.69,30.6,34.85,30.6c8.69,0,16.65-3.37,22.83-8.96c0.91,1.08,1.74,2.2,2.48,3.33
			C1557.2,1311.86,1548.37,1315.58,1538.75,1315.58z"/>
		<path fill="#A0C867" d="M1538.75,1311.3c-17.16,0-31.48-13.13-34.85-30.6c1.37,0.01,2.73,0.05,4.08,0.11
			c3.33,15.04,15.84,26.22,30.77,26.22c7.59,0,14.56-2.89,20.01-7.71c1.01,0.98,1.95,1.99,2.82,3.03
			C1555.4,1307.93,1547.44,1311.3,1538.75,1311.3z"/>
		<path fill="#A8CF69" d="M1507.98,1280.81c1.4,0.06,2.78,0.15,4.15,0.26c3.32,12.51,13.97,21.68,26.61,21.68
			c6.35,0,12.2-2.32,16.88-6.21c1.11,0.9,2.15,1.82,3.14,2.77c-5.45,4.82-12.42,7.71-20.01,7.71
			C1523.82,1307.03,1511.31,1295.85,1507.98,1280.81z"/>
		<path fill="#AFD469" d="M1512.13,1281.07c1.44,0.12,2.87,0.26,4.28,0.43c3.29,9.89,12.05,16.97,22.33,16.97
			c4.97,0,9.59-1.66,13.4-4.49c1.21,0.82,2.38,1.67,3.47,2.55c-4.67,3.89-10.52,6.21-16.88,6.21
			C1526.1,1302.75,1515.45,1293.59,1512.13,1281.07z"/>
		<path fill="#B7D76E" d="M1516.41,1281.51c1.55,0.19,3.07,0.43,4.58,0.68c3.22,7.1,9.95,12.01,17.75,12.01
			c3.45,0,6.69-0.96,9.51-2.64c1.35,0.78,2.65,1.58,3.89,2.43c-3.81,2.83-8.43,4.49-13.4,4.49
			C1528.46,1298.48,1519.71,1291.4,1516.41,1281.51z"/>
		<path fill="#BED970" d="M1520.99,1282.19c1.77,0.3,3.51,0.64,5.22,1.03c2.89,4.07,7.43,6.7,12.54,6.7c1.68,0,3.29-0.29,4.81-0.81
			c1.63,0.77,3.2,1.59,4.7,2.45c-2.82,1.68-6.06,2.64-9.51,2.64C1530.94,1294.2,1524.21,1289.3,1520.99,1282.19z"/>
		<path fill="#C4DC72" d="M1526.21,1283.22c6.3,1.43,12.14,3.43,17.34,5.89c-1.52,0.52-3.13,0.81-4.81,0.81
			C1533.63,1289.92,1529.1,1287.29,1526.21,1283.22z"/>
	</g>
	<g>
		<path fill="#487155" d="M1466.09,1343.15c0.86,2.65,1.81,5.27,2.89,7.81c4.99,11.8,12.2,22.43,21.12,31.35
			c14.89,14.9,34.53,25.05,56.44,28c-8.49,2.06-17.74,3.21-27.43,3.21c-41.23,0-74.66-20.54-74.66-45.89
			C1444.46,1358.65,1453.91,1350.25,1466.09,1343.15z"/>
		<path fill="#487155" d="M1490.1,1382.31c-8.92-8.92-16.13-19.55-21.12-31.35c-1.08-2.55-2.03-5.16-2.89-7.81
			c1.43-0.83,2.89-1.64,4.38-2.44c0.89,2.84,1.91,5.62,3.05,8.33c4.74,11.21,11.59,21.3,20.06,29.78
			c16.86,16.87,40.11,27.33,65.81,27.44c-4.03,1.59-8.33,2.95-12.85,4.05C1524.63,1407.37,1504.99,1397.22,1490.1,1382.31z"/>
		<path fill="#507856" d="M1493.58,1378.83c-8.47-8.48-15.33-18.57-20.06-29.78c-1.15-2.71-2.16-5.5-3.05-8.33
			c1.46-0.78,2.95-1.54,4.46-2.29c0.9,2.97,1.94,5.87,3.14,8.7c4.49,10.62,10.98,20.18,19.01,28.22c16.05,16.06,38.22,26,62.71,26
			c3.79,0,7.52-0.24,11.18-0.7c-3.54,2.1-7.41,3.99-11.57,5.63C1533.69,1406.16,1510.44,1395.7,1493.58,1378.83z"/>
		<path fill="#598159" d="M1497.07,1375.34c-8.02-8.03-14.52-17.6-19.01-28.22c-1.19-2.83-2.24-5.73-3.14-8.7
			c1.49-0.74,3-1.45,4.51-2.15c0.9,3.05,1.94,6.03,3.16,8.93c4.24,10.03,10.37,19.06,17.95,26.65
			c15.16,15.17,36.1,24.55,59.23,24.55c7.11,0,14.02-0.89,20.61-2.56c-2.78,2.45-5.94,4.73-9.43,6.8c-3.66,0.46-7.4,0.7-11.18,0.7
			C1535.29,1401.34,1513.12,1391.4,1497.07,1375.34z"/>
		<path fill="#62895A" d="M1500.55,1371.85c-7.58-7.59-13.71-16.62-17.95-26.65c-1.22-2.89-2.27-5.88-3.16-8.93
			c1.51-0.7,3.03-1.38,4.55-2.03c0.88,3.09,1.92,6.12,3.16,9.04c3.99,9.44,9.76,17.94,16.89,25.08
			c14.27,14.28,33.97,23.11,55.74,23.11c9.6,0,18.8-1.72,27.31-4.87c-1.88,2.55-4.13,4.97-6.7,7.24c-6.59,1.67-13.5,2.56-20.61,2.56
			C1536.65,1396.41,1515.71,1387.02,1500.55,1371.85z"/>
		<path fill="#69915C" d="M1504.03,1368.36c-7.13-7.14-12.91-15.64-16.89-25.08c-1.24-2.92-2.28-5.95-3.16-9.04
			c1.53-0.66,3.06-1.31,4.58-1.92c0.86,3.1,1.89,6.12,3.12,9.05c3.74,8.85,9.15,16.82,15.84,23.51
			c13.37,13.39,31.85,21.67,52.26,21.67c10.2,0,19.93-2.07,28.77-5.81c0.91-0.38,1.8-0.8,2.69-1.22c-1.07,2.45-2.46,4.82-4.14,7.09
			c-8.51,3.15-17.71,4.87-27.31,4.87C1538.01,1391.47,1518.3,1382.64,1504.03,1368.36z"/>
		<path fill="#71985D" d="M1559.78,1386.54c-20.41,0-38.89-8.28-52.26-21.67c-6.69-6.69-12.1-14.66-15.84-23.51
			c-1.23-2.92-2.27-5.95-3.12-9.05c1.55-0.64,3.09-1.25,4.6-1.83c0.82,3.07,1.84,6.07,3.06,8.96c3.49,8.26,8.54,15.7,14.78,21.95
			c12.48,12.49,29.73,20.22,48.78,20.22c9.52,0,18.6-1.93,26.85-5.43c2.28-0.96,4.49-2.06,6.63-3.26c-0.42,2.25-1.1,4.45-2.03,6.58
			c-0.89,0.42-1.78,0.83-2.69,1.22C1579.7,1384.47,1569.98,1386.54,1559.78,1386.54z"/>
		<path fill="#7AA15E" d="M1559.78,1381.61c-19.05,0-36.29-7.73-48.78-20.22c-6.24-6.25-11.29-13.69-14.78-21.95
			c-1.22-2.89-2.24-5.88-3.06-8.96c1.58-0.61,3.12-1.2,4.63-1.75c0.78,3.02,1.78,5.96,2.98,8.79c3.24,7.67,7.93,14.58,13.73,20.38
			c11.59,11.6,27.6,18.78,45.29,18.78c8.84,0,17.27-1.79,24.93-5.04c3.15-1.33,6.16-2.92,9.03-4.72c0.01,0.24,0.03,0.48,0.03,0.72
			c0,1.79-0.18,3.56-0.51,5.29c-2.15,1.2-4.36,2.29-6.63,3.26C1578.37,1379.68,1569.3,1381.61,1559.78,1381.61z"/>
		<path fill="#81A961" d="M1559.78,1376.68c-17.69,0-33.7-7.18-45.29-18.78c-5.8-5.8-10.49-12.71-13.73-20.38
			c-1.2-2.83-2.19-5.77-2.98-8.79c1.61-0.59,3.17-1.15,4.66-1.68c0.74,2.94,1.69,5.8,2.85,8.55c2.99,7.08,7.32,13.46,12.67,18.81
			c10.7,10.71,25.48,17.33,41.81,17.33c12.1,0,23.35-3.64,32.72-9.89c0.73,1.66,1.15,3.35,1.25,5.06c-2.87,1.8-5.88,3.39-9.03,4.72
			C1577.05,1374.89,1568.62,1376.68,1559.78,1376.68z"/>
		<path fill="#89B162" d="M1517.97,1354.42c-5.35-5.35-9.68-11.73-12.67-18.81c-1.16-2.75-2.11-5.6-2.85-8.55
			c1.65-0.58,3.22-1.11,4.69-1.6c0.69,2.84,1.59,5.59,2.71,8.23c2.74,6.49,6.71,12.33,11.61,17.24
			c9.81,9.82,23.36,15.89,38.32,15.89c11.18,0,21.57-3.39,30.2-9.2c1.04,1.39,1.89,2.8,2.52,4.24c-9.37,6.24-20.62,9.89-32.72,9.89
			C1543.45,1371.75,1528.67,1365.12,1517.97,1354.42z"/>
		<path fill="#92BA63" d="M1521.45,1350.93c-4.9-4.91-8.87-10.75-11.61-17.24c-1.12-2.64-2.02-5.39-2.71-8.23
			c1.71-0.57,3.29-1.08,4.7-1.53c0.64,2.7,1.48,5.33,2.54,7.84c2.49,5.9,6.1,11.21,10.56,15.68c8.92,8.92,21.23,14.44,34.84,14.44
			c9.93,0,19.17-2.95,26.91-8.01c1.24,1.23,2.34,2.48,3.28,3.75c-8.63,5.81-19.02,9.2-30.2,9.2
			C1544.81,1366.82,1531.26,1360.75,1521.45,1350.93z"/>
		<path fill="#99C066" d="M1524.94,1347.44c-4.46-4.46-8.07-9.78-10.56-15.68c-1.06-2.51-1.91-5.14-2.54-7.84
			c1.91-0.6,3.51-1.09,4.72-1.45c0.58,2.54,1.37,5.01,2.36,7.37c2.24,5.31,5.49,10.09,9.5,14.11c8.02,8.03,19.11,13,31.36,13
			c8.46,0,16.36-2.37,23.08-6.48c1.38,1.11,2.67,2.25,3.83,3.4c-7.74,5.06-16.98,8.01-26.91,8.01
			C1546.17,1361.89,1533.85,1356.37,1524.94,1347.44z"/>
		<path fill="#A0C867" d="M1528.42,1343.95c-4.01-4.02-7.26-8.8-9.5-14.11c-1-2.36-1.78-4.82-2.36-7.37
			c1.69-0.5,2.62-0.75,2.56-0.73c-0.06,0.02,0.86,0.31,2.53,0.83c0.48,1.84,1.09,3.62,1.81,5.34c1.99,4.72,4.88,8.97,8.45,12.54
			c7.13,7.14,16.99,11.56,27.87,11.56c6.79,0,13.19-1.72,18.77-4.75c1.52,1.04,2.97,2.11,4.32,3.2c-6.72,4.11-14.63,6.48-23.08,6.48
			C1547.53,1356.95,1536.45,1351.99,1528.42,1343.95z"/>
		<path fill="#A8CF69" d="M1531.91,1340.47c-3.57-3.57-6.45-7.82-8.45-12.54c-0.73-1.72-1.33-3.51-1.81-5.34
			c1.41,0.44,3.36,1.05,5.72,1.82c0.2,0.54,0.41,1.08,0.63,1.61c1.75,4.13,4.27,7.85,7.39,10.97c6.24,6.25,14.86,10.11,24.39,10.11
			c4.95,0,9.65-1.05,13.91-2.93c1.69,1.01,3.31,2.05,4.86,3.11c-5.58,3.03-11.97,4.75-18.77,4.75
			C1548.89,1352.02,1539.04,1347.61,1531.91,1340.47z"/>
		<path fill="#AFD469" d="M1535.39,1336.98c-3.12-3.12-5.65-6.84-7.39-10.97c-0.22-0.53-0.43-1.06-0.63-1.61
			c1.88,0.61,4.01,1.32,6.34,2.12c1.38,2.57,3.12,4.92,5.16,6.97c5.35,5.35,12.74,8.67,20.9,8.67c2.87,0,5.64-0.42,8.27-1.18
			c1.93,1.03,3.82,2.09,5.64,3.18c-4.25,1.88-8.96,2.93-13.91,2.93C1550.25,1347.09,1541.63,1343.23,1535.39,1336.98z"/>
		<path fill="#B7D76E" d="M1538.87,1333.49c-2.05-2.05-3.79-4.4-5.16-6.97c2.52,0.87,5.26,1.84,8.13,2.92
			c0.17,0.19,0.33,0.38,0.51,0.56c4.46,4.46,10.62,7.22,17.42,7.22c0.24,0,0.47-0.01,0.71-0.02c2.56,1.2,5.1,2.46,7.56,3.77
			c-2.62,0.76-5.4,1.18-8.27,1.18C1551.61,1342.16,1544.22,1338.85,1538.87,1333.49z"/>
		<path fill="#BED970" d="M1542.36,1330.01c-0.18-0.18-0.34-0.38-0.51-0.56c5.88,2.2,12.34,4.81,18.64,7.77
			c-0.24,0.01-0.47,0.02-0.71,0.02C1552.97,1337.23,1546.82,1334.47,1542.36,1330.01z"/>
	</g>
</g>
<g>
	
		<rect x="319.31" y="1438.03" fill="#141414" stroke="#231F20" stroke-width="0.5" stroke-miterlimit="10" width="5.55" height="157.84"/>
</g>
<path fill="#FFFFFF" stroke="#231F20" stroke-miterlimit="10" d="M450.21,819.1c-17.54,1.2-36.21,2.79-54.77,7.73
	c-22.87,6.08-39.81,15.77-51.81,29.63c-25.06,28.97-25.49,61.41-25.49,62.79v561.98l8.65-9.48c17.32-18.97,39.53-32.64,66.02-40.64
	c21.82-6.59,41.06-7.57,50.58-7.57c4.25,0,6.71,0.2,6.73,0.2l5.31,0.44V818.74L450.21,819.1z"/>
<polygon fill="#E6E7E8" points="241.31,1238.95 0,1133.58 0,1117.56 239.2,1222.78 "/>
<polygon fill="#B4B4B4" points="115.97,271.09 124.19,268.79 357.65,268.79 363.37,271.11 "/>
<path fill="#3E3E3E" d="M231.53,359.28l16.72,3.3v873.92c0,0-1.89,3.01-8.11,3.01c-6.23,0-8.6-6.31-8.6-6.31V359.28z"/>
<polygon fill="#3E3E3E" points="311.2,368.51 168.52,368.51 164.52,359.08 315.2,359.08 "/>
<polygon fill="#3E3E3E" points="311.2,368.51 168.52,368.51 164.52,359.08 315.2,359.08 "/>
<polygon fill="#3E3E3E" points="311.85,362.13 167.87,362.13 163.87,358.55 315.86,358.55 "/>
<polygon fill="#3E3E3E" points="248.17,371.67 231.62,371.67 231.16,368.09 248.63,368.09 "/>
<polygon fill="#8C8C8C" points="350.14,358.48 130.91,358.48 116.35,271.35 363.37,271.35 "/>
<path fill="#5D5555" d="M287.7,134c17.04,0,30.86,71.86,30.86,160.5h24.7c0-95.46-24.88-172.85-55.56-172.85
	c-17.46,0-33.03,23.26-43.22,59.63c-10.18-36.37-25.76-59.63-43.22-59.63c-30.68,0-55.56,77.39-55.56,172.85h24.7
	c0-88.64,13.82-160.5,30.86-160.5c17.05,0,30.87,66.33,30.87,148.16h24.69C256.83,200.34,270.66,134,287.7,134z"/>
<radialGradient id="SVGID_18_" cx="178.3235" cy="115.4638" r="214.578" gradientUnits="userSpaceOnUse">
	<stop  offset="0.2198" style="stop-color:#FED208"/>
	<stop  offset="1" style="stop-color:#FDB714"/>
</radialGradient>
<path fill="url(#SVGID_18_)" d="M284.9,134c17.04,0,30.86,71.86,30.86,160.5h24.7c0-95.46-24.88-172.85-55.56-172.85
	c-17.46,0-33.03,23.26-43.21,59.63c-10.19-36.37-25.76-59.63-43.22-59.63c-30.68,0-55.56,77.39-55.56,172.85h24.7
	c0-88.64,13.82-160.5,30.86-160.5c17.05,0,30.87,66.33,30.87,148.16h24.69C254.03,200.34,267.86,134,284.9,134z"/>
<polygon fill="#3E3E3E" points="173.87,334.56 168.03,334.56 168.03,315.72 162.93,334.56 157.5,334.56 152.44,315.72 
	152.44,334.56 146.6,334.56 146.6,309.61 155.67,309.61 160.2,326.62 164.92,309.61 173.87,309.61 "/>
<path fill="#3E3E3E" d="M190.69,322.46c-1.01-1.95-2.06-2.74-3.71-2.74c-2.51,0-4.12,2.21-4.12,5.69c0,3.33,1.61,5.43,4.23,5.43
	c1.68,0,2.81-0.86,3.71-2.77l4.16,2.29c-2.21,3.45-4.61,4.8-8.2,4.8c-5.88,0-9.66-3.75-9.66-9.63c0-6.07,3.78-10.08,9.55-10.08
	c3.63,0,6.37,1.57,8.24,4.72L190.69,322.46z"/>
<g>
	<path fill="#3E3E3E" d="M232.76,331.08c2.78,0,4.42-2.1,4.42-5.73c0-3.64-1.61-5.77-4.42-5.77c-2.77,0.04-4.42,2.13-4.38,5.77
		C228.37,328.98,229.99,331.08,232.76,331.08v4.08c-6.1,0-10.04-3.79-10.04-9.82c0-6.03,3.9-9.89,10.04-9.89
		c6.14,0.04,10.04,3.86,10.04,9.89c-0.04,6.03-3.94,9.82-10.04,9.82V331.08z"/>
</g>
<g>
	<path fill="#FFFFFF" d="M232.01,330.34c2.78,0,4.42-2.1,4.42-5.73c0-3.64-1.61-5.77-4.42-5.77c-2.77,0.04-4.42,2.13-4.38,5.77
		C227.63,328.24,229.24,330.34,232.01,330.34v4.08c-6.1,0-10.04-3.79-10.04-9.82c0-6.03,3.9-9.89,10.04-9.89
		c6.14,0.04,10.04,3.86,10.04,9.89c-0.04,6.03-3.94,9.82-10.04,9.82V330.34z"/>
</g>
<path fill="#3E3E3E" d="M251.26,316.09v1.53c1.61-1.46,3-2.02,5.2-2.02c2.14,0,4.01,0.78,4.91,2.09c0.67,0.9,0.9,2.02,0.9,4.01
	v12.85h-5.54v-10.83c0-2.73-0.67-3.63-2.69-3.63c-2.1,0-2.85,1.05-2.85,4.01v10.45h-5.55v-18.47H251.26z"/>
<path fill="#3E3E3E" d="M271.6,335.05c-3.78,0-6.44-2.28-6.44-5.62c0-3.37,2.36-5.32,7.57-6.26l4.12-0.74v-1.05
	c0-1.46-0.78-2.18-2.4-2.18c-1.54,0-2.47,0.72-2.77,2.18h-5.66c0.26-4.01,2.81-5.77,8.24-5.77c5.36,0,8.06,1.79,8.06,5.43v11.38
	c0,1.01,0.04,1.24,0.49,2.13h-5.43v-1.65C275.2,334.52,273.74,335.05,271.6,335.05l1.42-4.08c2.32,0,3.82-1.76,3.82-4.5
	c0-0.14,0-0.37,0-0.67l-2.81,0.74c-2.25,0.64-3.26,1.43-3.26,2.58c0,1.09,0.94,1.84,2.25,1.84L271.6,335.05z"/>
<path fill="#FFFFFF" d="M270.86,334.3c-3.78,0-6.44-2.28-6.44-5.62c0-3.37,2.36-5.32,7.57-6.26l4.12-0.74v-1.05
	c0-1.46-0.78-2.18-2.4-2.18c-1.54,0-2.47,0.72-2.77,2.18h-5.66c0.26-4.01,2.81-5.77,8.24-5.77c5.36,0,8.06,1.79,8.06,5.43v11.38
	c0,1.01,0.04,1.24,0.49,2.13h-5.43v-1.65C274.45,333.78,272.99,334.3,270.86,334.3l1.42-4.08c2.32,0,3.82-1.76,3.82-4.5
	c0-0.14,0-0.37,0-0.67l-2.81,0.74c-2.25,0.64-3.26,1.43-3.26,2.58c0,1.09,0.94,1.84,2.25,1.84L270.86,334.3z"/>
<rect x="285.73" y="309.61" fill="#3E3E3E" width="5.54" height="24.95"/>
<path fill="#3E3E3E" d="M299.47,325.35c0,3.63,1.31,5.62,3.67,5.62c2.44,0,3.86-2.05,3.86-5.54c0-3.71-1.31-5.69-3.82-5.69
	C300.74,319.73,299.47,321.67,299.47,325.35l-5.39-0.18c0-5.96,3-9.55,7.9-9.55c2.06,0,3.45,0.6,4.83,2.13v-8.13h5.58v24.95h-5.24
	v-1.68c-1.61,1.53-3.18,2.17-5.13,2.17c-4.83,0-7.94-3.82-7.94-9.89L299.47,325.35z"/>
<path fill="#FFFFFF" d="M298.73,324.6c0,3.63,1.31,5.62,3.67,5.62c2.44,0,3.86-2.06,3.86-5.54c0-3.71-1.31-5.69-3.82-5.69
	C300,318.98,298.73,320.93,298.73,324.6l-5.39-0.18c0-5.96,3-9.55,7.9-9.55c2.06,0,3.45,0.6,4.83,2.13v-8.13h5.58v24.95h-5.24v-1.68
	c-1.61,1.53-3.18,2.17-5.13,2.17c-4.83,0-7.94-3.82-7.94-9.89L298.73,324.6z"/>
<path fill="#3E3E3E" d="M322.88,314.78c0,3.86-1.95,6.18-5.88,7.12v-2.58c1.57-0.64,2.13-1.54,2.17-3.6H317v-6.1h5.88V314.78z"/>
<path fill="#3E3E3E" d="M339.66,321.53c-1.84-1.39-3.22-1.95-4.8-1.95c-1.5,0-2.51,0.56-2.51,1.35c0,0.67,0.52,1.01,2.06,1.38
	l2.51,0.64c2.55,0.67,3.86,1.2,4.87,2.1c0.97,0.82,1.5,2.1,1.5,3.56c0,3.86-3.6,6.56-8.65,6.56c-3.45,0-6.55-1.28-9.25-3.86
	l3.56-3.07c1.84,1.95,3.6,2.85,5.58,2.85c1.8,0,3.03-0.71,3.03-1.8c0-0.85-0.57-1.27-2.25-1.57l-1.61-0.33
	c-5.02-0.98-6.97-2.55-6.97-5.58c0-3.67,3.3-6.33,7.86-6.33c2.92,0,5.84,1.01,8.54,2.92L339.66,321.53z"/>
<polygon fill="#FFFFFF" points="173,333.82 167.15,333.82 167.15,314.97 162.06,333.82 156.63,333.82 151.57,314.97 151.57,333.82 
	145.73,333.82 145.73,308.87 154.79,308.87 159.32,325.87 164.04,308.87 173,308.87 "/>
<path fill="#FFFFFF" d="M189.81,321.72c-1.01-1.95-2.06-2.73-3.71-2.73c-2.51,0-4.12,2.21-4.12,5.69c0,3.34,1.61,5.43,4.23,5.43
	c1.69,0,2.81-0.87,3.71-2.77l4.16,2.29c-2.21,3.45-4.61,4.8-8.2,4.8c-5.88,0-9.66-3.75-9.66-9.63c0-6.07,3.78-10.07,9.55-10.07
	c3.63,0,6.37,1.57,8.24,4.72L189.81,321.72z"/>
<path fill="#3E3E3E" d="M198.11,334.56v-24.95h9.1c8.92,0,13.26,4.08,13.26,12.47c0,8.39-4.34,12.48-13.26,12.48H198.11l6.37-5.25
	h2.96c4.53,0,6.67-2.28,6.67-7.23c0-4.94-2.14-7.23-6.67-7.23h-2.96v14.46L198.11,334.56z"/>
<path fill="#FFFFFF" d="M250.39,315.35v1.54c1.61-1.46,3-2.02,5.2-2.02c2.14,0,4.01,0.79,4.91,2.1c0.67,0.9,0.9,2.02,0.9,4.01v12.85
	h-5.55v-10.83c0-2.74-0.67-3.63-2.69-3.63c-2.1,0-2.85,1.05-2.85,4.01v10.46h-5.54v-18.47H250.39z"/>
<rect x="284.85" y="308.87" fill="#FFFFFF" width="5.54" height="24.95"/>
<path fill="#FFFFFF" d="M322.01,314.04c0,3.86-1.95,6.18-5.88,7.12v-2.59c1.57-0.64,2.14-1.54,2.17-3.6h-2.17v-6.1h5.88V314.04z"/>
<path fill="#FFFFFF" d="M338.79,320.78c-1.84-1.38-3.22-1.95-4.8-1.95c-1.5,0-2.51,0.57-2.51,1.35c0,0.67,0.52,1.01,2.06,1.39
	l2.51,0.63c2.55,0.68,3.86,1.2,4.87,2.1c0.97,0.83,1.5,2.1,1.5,3.56c0,3.86-3.6,6.56-8.65,6.56c-3.45,0-6.56-1.27-9.25-3.86
	l3.56-3.07c1.84,1.95,3.6,2.84,5.58,2.84c1.8,0,3.03-0.71,3.03-1.79c0-0.87-0.56-1.27-2.25-1.58l-1.61-0.33
	c-5.02-0.97-6.97-2.55-6.97-5.58c0-3.67,3.3-6.33,7.87-6.33c2.92,0,5.84,1.01,8.54,2.92L338.79,320.78z"/>
<rect x="231.53" y="560.88" opacity="0.5" fill="#3E3E3E" width="16.6" height="3.35"/>
<polygon opacity="0.5" fill="#3E3E3E" points="231.53,692.89 248.14,692.89 248.14,699.22 231.53,696.24 "/>
<polygon opacity="0.31" fill="#3E3E3E" points="170.47,295.68 167.48,296.6 166.61,296.54 142.91,294.82 142.91,294.06 
	170.47,294.06 "/>
<polygon opacity="0.31" fill="#3E3E3E" points="343.07,295.63 340.08,296.55 339.21,296.49 315.51,294.77 315.51,294.01 
	343.07,294.01 "/>
<polygon opacity="0.31" fill="#3E3E3E" points="256.54,283.48 253.55,284.41 252.68,284.34 228.98,282.62 228.98,281.86 
	256.54,281.86 "/>
<g>
	<path fill="#4C4E50" d="M73.04,694.58c-0.59,0-1.07-0.48-1.07-1.07V565.18c0-0.59,0.48-1.07,1.07-1.07h331.46
		c0.59,0,1.07,0.48,1.07,1.07v128.33c0,0.59-0.48,1.07-1.07,1.07H73.04z"/>
	<path fill="none" stroke="#939598" stroke-width="0.1461" d="M73.04,694.58c-0.59,0-1.07-0.48-1.07-1.07V565.18
		c0-0.59,0.48-1.07,1.07-1.07h331.46c0.59,0,1.07,0.48,1.07,1.07v128.33c0,0.59-0.48,1.07-1.07,1.07H73.04z"/>
</g>
<g>
	
		<linearGradient id="SVGID_19_" gradientUnits="userSpaceOnUse" x1="3392.4038" y1="756.0856" x2="3392.4038" y2="474.6694" gradientTransform="matrix(0 1 -1 0 806.9469 -2763.0615)">
		<stop  offset="0" style="stop-color:#636363"/>
		<stop  offset="1" style="stop-color:#000000"/>
	</linearGradient>
	<path fill="url(#SVGID_19_)" d="M73.64,694.1c-0.58,0-1.06-0.48-1.06-1.06v-127.4c0-0.58,0.48-1.06,1.06-1.06H404.1
		c0.58,0,1.06,0.48,1.06,1.06v127.4c0,0.58-0.48,1.06-1.06,1.06H73.64z"/>
	<path fill="none" stroke="#939598" stroke-width="0.1478" d="M73.64,694.1c-0.58,0-1.06-0.48-1.06-1.06v-127.4
		c0-0.58,0.48-1.06,1.06-1.06H404.1c0.58,0,1.06,0.48,1.06,1.06v127.4c0,0.58-0.48,1.06-1.06,1.06H73.64z"/>
</g>
<linearGradient id="SVGID_20_" gradientUnits="userSpaceOnUse" x1="3707.1846" y1="-2363.698" x2="3707.1846" y2="-2461.5349" gradientTransform="matrix(-1 0 0 -1 3946.0715 -1808.5859)">
	<stop  offset="0" style="stop-color:#525252"/>
	<stop  offset="1" style="stop-color:#000000"/>
</linearGradient>
<path fill="url(#SVGID_20_)" d="M74.35,567.04c0-0.55,0.45-1,1-1h327.09c0.55,0,1,0.45,1,1l-0.08,123.97c0,0.55-0.45,1-1,1
	l-327.01,0.77c-0.55,0-1-0.45-1-0.99V567.04z"/>
<rect x="80.57" y="572.3" fill="#FFFFFF" stroke="#231F20" stroke-miterlimit="10" width="316.41" height="113.06"/>
<line fill="none" stroke="#F5831F" x1="1913.97" y1="910.85" x2="1913.97" y2="754.53"/>
<line fill="none" stroke="#F5831F" x1="2174.5" y1="917.87" x2="2174.5" y2="774.79"/>
<polygon fill="#FFFFFF" stroke="#989898" points="1644.68,830.31 2399.81,868.96 2399.81,878.17 1644.68,840.25 "/>
<g>
	<g>
		<g>
			<linearGradient id="SVGID_21_" gradientUnits="userSpaceOnUse" x1="2664.5383" y1="1257.3536" x2="2664.5383" y2="993.4362">
				<stop  offset="0.0337" style="stop-color:#525252"/>
				<stop  offset="1" style="stop-color:#ABABAB"/>
			</linearGradient>
			<path fill="url(#SVGID_21_)" d="M2737.85,1260.82c0,0.52-0.46,0.98-1.02,1.03l-144.58,12.64c-0.56,0.04-1.02-0.38-1.02-0.94
				V925.51c0-0.56,0.46-0.98,1.02-0.94l144.58,12.62c0.56,0.06,1.02,0.52,1.02,1.04V1260.82z"/>
			<path fill="none" stroke="#FFFFFF" stroke-width="0.1404" d="M2737.85,1260.82c0,0.52-0.46,0.98-1.02,1.03l-144.58,12.64
				c-0.56,0.04-1.02-0.38-1.02-0.94V925.51c0-0.56,0.46-0.98,1.02-0.94l144.58,12.62c0.56,0.06,1.02,0.52,1.02,1.04V1260.82z"/>
		</g>
		<g>
			<linearGradient id="SVGID_22_" gradientUnits="userSpaceOnUse" x1="2664.5386" y1="1266.3208" x2="2664.5386" y2="843.4635">
				<stop  offset="0.0337" style="stop-color:#525252"/>
				<stop  offset="1" style="stop-color:#FFFFFF"/>
			</linearGradient>
			<path fill="url(#SVGID_22_)" d="M2732.78,1248.68c0,0.51-0.45,0.98-1.01,1.03l-134.46,11.92c-0.55,0.05-1.01-0.36-1.01-0.91
				V934.21c0-0.55,0.45-0.97,1.01-0.93l134.46,11.13c0.55,0.05,1.01,0.51,1.01,1.02V1248.68z"/>
			<path fill="none" stroke="#FFFFFF" d="M2732.78,1248.68c0,0.51-0.45,0.98-1.01,1.03l-134.46,11.92
				c-0.55,0.05-1.01-0.36-1.01-0.91V934.21c0-0.55,0.45-0.97,1.01-0.93l134.46,11.13c0.55,0.05,1.01,0.51,1.01,1.02V1248.68z"/>
		</g>
		<g>
			<linearGradient id="SVGID_23_" gradientUnits="userSpaceOnUse" x1="2601.3691" y1="1098.1075" x2="2727.7119" y2="1098.1075">
				<stop  offset="0" style="stop-color:#D4DDDF"/>
				<stop  offset="1" style="stop-color:#AFD3D7"/>
			</linearGradient>
			<path fill="url(#SVGID_23_)" d="M2727.71,1244.74c0,0.51-0.45,0.97-1,1.03l-124.34,11.24c-0.55,0.05-1-0.35-1-0.9V940.13
				c0-0.55,0.45-0.96,1-0.93l124.34,9.8c0.55,0.05,1,0.5,1,1.01v291.22c0,0.51,0,1.34,0,1.85V1244.74z"/>
		</g>
	</g>
	<polygon fill="#808285" points="2618.32,1115.29 2597.4,1115.69 2597.4,1065.49 2618.32,1065.63 	"/>
</g>
<polygon fill="#939598" points="656.17,627.31 656.17,728.25 1378.25,728.25 1378.25,599.03 "/>
<polygon fill="#D1D3D4" stroke="#FFFFFF" stroke-width="4" stroke-miterlimit="10" points="652.43,624.02 652.43,724.96 
	1374.51,724.96 1374.51,595.75 "/>
<polygon fill="#D1D3D4" stroke="#FFFFFF" stroke-width="4" stroke-miterlimit="10" points="1691.71,944.24 1691.71,1200.41 
	1883.18,1191.34 1883.81,949.55 "/>
<polygon fill="#D1D3D4" stroke="#FFFFFF" stroke-width="4" stroke-miterlimit="10" points="1215.75,925.81 1215.75,1198.97 
	1414.14,1225.57 1414.14,935.94 "/>
<polygon fill="#D1D3D4" stroke="#FFFFFF" stroke-width="4" stroke-miterlimit="10" points="902.2,910.33 902.2,1156.59 
	1098.05,1181.39 1098.05,920.74 "/>
<polygon fill="#D1D3D4" stroke="#FFFFFF" stroke-width="4" stroke-miterlimit="10" points="599.32,893.69 599.81,1112.44 
	777.72,1137.43 777.72,903.6 "/>
<polygon fill="#D1D3D4" stroke="#FFFFFF" stroke-width="4" stroke-miterlimit="10" points="1954.02,953.02 1954.02,1184.62 
	2126.34,1176.33 2126.34,957.29 "/>
<polygon fill="#D1D3D4" stroke="#FFFFFF" stroke-width="4" stroke-miterlimit="10" points="2193.34,960.9 2193.34,1170.82 
	2349.06,1163.78 2349.06,965.89 "/>
<path fill="#FFFFFF" d="M197.23,333.82v-24.95h9.1c8.92,0,13.26,4.08,13.26,12.47c0,8.39-4.34,12.48-13.26,12.48H197.23l6.37-5.25
	h2.96c4.53,0,6.67-2.28,6.67-7.23c0-4.94-2.14-7.23-6.67-7.23h-2.96v14.46L197.23,333.82z"/>
<g>
	<path fill="#58595B" d="M129.13,725.63h8v9.75h-1.6l-0.58-2.36c-1.24,1.73-3.53,2.84-6.02,2.84c-3.12,0-4.65-1.14-5.59-2.06
		c-2.79-2.64-2.87-5.76-2.87-7.69c0-4.44,2.69-9.45,8.63-9.45c3.4,0,7.19,1.93,7.72,6.02h-2.39c-0.79-3.17-3.45-3.83-5.46-3.83
		c-3.28,0-5.97,2.62-5.97,7.39c0,3.71,1.22,7.52,6.07,7.52c0.91,0,2.39-0.1,3.73-1.17c1.6-1.27,2.01-2.89,2.01-4.85h-5.69V725.63z"
		/>
	<path fill="#58595B" d="M143.2,735.38h-2.23V722.1h2.11v2.21h0.05c0.89-1.55,2.06-2.59,3.73-2.59c0.28,0,0.41,0.03,0.58,0.08v2.31
		h-0.84c-2.08,0-3.4,1.62-3.4,3.55V735.38z"/>
	<path fill="#58595B" d="M148.79,726.13c0.1-3.17,2.21-4.42,5.48-4.42c1.07,0,4.93,0.3,4.93,3.71v7.64c0,0.56,0.28,0.79,0.74,0.79
		c0.2,0,0.48-0.05,0.74-0.1v1.62c-0.38,0.1-0.71,0.25-1.22,0.25c-1.98,0-2.29-1.02-2.36-2.03c-0.86,0.94-2.21,2.16-4.8,2.16
		c-2.44,0-4.16-1.55-4.16-3.83c0-1.12,0.33-3.71,4.04-4.16l3.68-0.46c0.53-0.05,1.17-0.25,1.17-1.57c0-1.4-1.02-2.16-3.12-2.16
		c-2.54,0-2.89,1.55-3.05,2.56H148.79z M156.97,728.6c-0.36,0.28-0.91,0.48-3.68,0.84c-1.09,0.15-2.84,0.48-2.84,2.16
		c0,1.45,0.74,2.31,2.41,2.31c2.08,0,4.11-1.35,4.11-3.12V728.6z"/>
	<path fill="#58595B" d="M162.81,722.1h2.11v1.88h0.05c0.53-0.76,1.55-2.26,3.96-2.26c3.53,0,5.54,2.89,5.54,6.63
		c0,3.17-1.32,7.41-5.84,7.41c-1.78,0-2.95-0.84-3.53-1.78h-0.05v6.65h-2.23V722.1z M168.57,733.83c2.44,0,3.58-2.21,3.58-5.13
		c0-1.7-0.18-4.98-3.63-4.98c-3.22,0-3.58,3.48-3.58,5.64C164.94,732.89,167.15,733.83,168.57,733.83z"/>
	<path fill="#58595B" d="M187.92,735.38h-2.23v-8.68c0-1.8-0.51-2.97-2.64-2.97c-1.83,0-3.71,1.07-3.71,4.42v7.24h-2.23v-18.23h2.23
		v6.73h0.05c0.63-0.84,1.75-2.16,3.88-2.16c2.06,0,4.65,0.84,4.65,4.62V735.38z"/>
	<path fill="#58595B" d="M191.27,719.68v-2.54h2.23v2.54H191.27z M193.5,735.38h-2.23V722.1h2.23V735.38z"/>
	<path fill="#58595B" d="M205.16,726.56c-0.28-1.78-1.27-2.84-3.15-2.84c-2.77,0-3.66,2.64-3.66,5c0,2.29,0.56,5.1,3.63,5.1
		c1.5,0,2.79-1.12,3.17-3.15h2.16c-0.23,2.11-1.52,5.08-5.41,5.08c-3.73,0-5.94-2.82-5.94-6.65c0-4.11,1.98-7.39,6.37-7.39
		c3.48,0,4.8,2.54,4.98,4.85H205.16z"/>
	<path fill="#58595B" d="M64.42,765.84h-2.46v-18.23h8.43c3,0,5.99,1.04,5.99,4.9c0,2.69-1.37,3.68-2.54,4.37
		c1.04,0.43,2.08,0.89,2.18,3.43l0.15,3.3c0.03,1.02,0.15,1.4,0.91,1.83v0.41h-3.02c-0.36-1.12-0.43-3.88-0.43-4.57
		c0-1.5-0.3-3.25-3.25-3.25h-5.97V765.84z M64.42,755.92h5.71c1.8,0,3.71-0.46,3.71-3.15c0-2.82-2.06-3.05-3.28-3.05h-6.14V755.92z"
		/>
	<path fill="#58595B" d="M90.98,761.68c-0.08,0.63-0.69,2.51-2.36,3.63c-0.61,0.41-1.47,0.91-3.61,0.91c-3.73,0-5.94-2.82-5.94-6.65
		c0-4.11,1.98-7.39,6.37-7.39c3.83,0,5.71,3.05,5.71,7.74h-9.7c0,2.77,1.29,4.37,3.86,4.37c2.11,0,3.35-1.62,3.43-2.62H90.98z
		 M88.84,758.15c-0.13-2.06-0.99-3.96-3.71-3.96c-2.06,0-3.68,1.9-3.68,3.96H88.84z"/>
	<path fill="#58595B" d="M93.74,756.6c0.1-3.17,2.21-4.42,5.48-4.42c1.07,0,4.93,0.3,4.93,3.71v7.64c0,0.56,0.28,0.79,0.74,0.79
		c0.2,0,0.48-0.05,0.74-0.1v1.62c-0.38,0.1-0.71,0.25-1.22,0.25c-1.98,0-2.29-1.02-2.36-2.03c-0.86,0.94-2.21,2.16-4.8,2.16
		c-2.44,0-4.16-1.55-4.16-3.83c0-1.12,0.33-3.71,4.04-4.16l3.68-0.46c0.53-0.05,1.17-0.25,1.17-1.57c0-1.4-1.02-2.16-3.12-2.16
		c-2.54,0-2.89,1.55-3.05,2.56H93.74z M101.92,759.06c-0.36,0.28-0.91,0.48-3.68,0.84c-1.09,0.15-2.84,0.48-2.84,2.16
		c0,1.45,0.74,2.31,2.41,2.31c2.08,0,4.11-1.35,4.11-3.12V759.06z"/>
	<path fill="#58595B" d="M118.96,765.84h-2.11v-1.83h-0.05c-0.96,1.8-2.49,2.21-3.78,2.21c-4.52,0-5.84-4.24-5.84-7.41
		c0-3.73,2.01-6.63,5.54-6.63c2.41,0,3.43,1.5,3.96,2.26l0.05-0.18v-6.65h2.23V765.84z M113.07,764.3c1.42,0,3.63-0.94,3.63-4.47
		c0-2.16-0.36-5.64-3.58-5.64c-3.45,0-3.63,3.28-3.63,4.98C109.49,762.09,110.63,764.3,113.07,764.3z"/>
	<path fill="#58595B" d="M133.33,761.68c-0.08,0.63-0.69,2.51-2.36,3.63c-0.61,0.41-1.47,0.91-3.61,0.91
		c-3.73,0-5.94-2.82-5.94-6.65c0-4.11,1.98-7.39,6.37-7.39c3.83,0,5.71,3.05,5.71,7.74h-9.7c0,2.77,1.29,4.37,3.86,4.37
		c2.11,0,3.35-1.62,3.43-2.62H133.33z M131.19,758.15c-0.13-2.06-0.99-3.96-3.71-3.96c-2.06,0-3.68,1.9-3.68,3.96H131.19z"/>
	<path fill="#58595B" d="M138.71,765.84h-2.23v-13.28h2.11v2.21h0.05c0.89-1.55,2.06-2.59,3.73-2.59c0.28,0,0.41,0.03,0.58,0.08
		v2.31h-0.84c-2.08,0-3.4,1.62-3.4,3.55V765.84z"/>
	<path fill="#58595B" d="M144.45,765.84v-18.23h2.23v6.63h0.05c0.96-1.4,2.29-2.03,3.83-2.06c3.53,0,5.54,2.89,5.54,6.63
		c0,3.17-1.32,7.41-5.84,7.41c-2.26,0-3.2-1.29-3.66-2.03h-0.05v1.65H144.45z M150.16,754.19c-3.22,0-3.58,3.48-3.58,5.64
		c0,3.53,2.21,4.47,3.63,4.47c2.44,0,3.58-2.21,3.58-5.13C153.79,757.47,153.61,754.19,150.16,754.19z"/>
	<path fill="#58595B" d="M164.15,752.18c4.24,0,6.17,3.58,6.17,7.01s-1.93,7.01-6.17,7.01s-6.17-3.58-6.17-7.01
		S159.91,752.18,164.15,752.18z M164.15,764.27c3.2,0,3.86-3.3,3.86-5.08s-0.66-5.08-3.86-5.08s-3.86,3.3-3.86,5.08
		S160.95,764.27,164.15,764.27z"/>
	<path fill="#58595B" d="M172.78,756.6c0.1-3.17,2.21-4.42,5.48-4.42c1.07,0,4.93,0.3,4.93,3.71v7.64c0,0.56,0.28,0.79,0.74,0.79
		c0.2,0,0.48-0.05,0.74-0.1v1.62c-0.38,0.1-0.71,0.25-1.22,0.25c-1.98,0-2.29-1.02-2.36-2.03c-0.86,0.94-2.21,2.16-4.8,2.16
		c-2.44,0-4.16-1.55-4.16-3.83c0-1.12,0.33-3.71,4.04-4.16l3.68-0.46c0.53-0.05,1.17-0.25,1.17-1.57c0-1.4-1.02-2.16-3.12-2.16
		c-2.54,0-2.89,1.55-3.05,2.56H172.78z M180.96,759.06c-0.36,0.28-0.91,0.48-3.68,0.84c-1.09,0.15-2.84,0.48-2.84,2.16
		c0,1.45,0.74,2.31,2.41,2.31c2.08,0,4.11-1.35,4.11-3.12V759.06z"/>
	<path fill="#58595B" d="M189.52,765.84h-2.23v-13.28h2.11v2.21h0.05c0.89-1.55,2.06-2.59,3.73-2.59c0.28,0,0.41,0.03,0.58,0.08
		v2.31h-0.84c-2.08,0-3.4,1.62-3.4,3.55V765.84z"/>
	<path fill="#58595B" d="M206.45,765.84h-2.11v-1.83h-0.05c-0.96,1.8-2.49,2.21-3.78,2.21c-4.52,0-5.84-4.24-5.84-7.41
		c0-3.73,2.01-6.63,5.54-6.63c2.41,0,3.43,1.5,3.96,2.26l0.05-0.18v-6.65h2.23V765.84z M200.56,764.3c1.42,0,3.63-0.94,3.63-4.47
		c0-2.16-0.36-5.64-3.58-5.64c-3.45,0-3.63,3.28-3.63,4.98C196.98,762.09,198.12,764.3,200.56,764.3z"/>
</g>
<g>
	<path fill="#58595B" d="M929.02,1189.32l-2.16-0.27l-3.78-15.5l2.23,0.28l2.69,12.56l0.04,0.01l3.56-11.77l2.25,0.28l3.26,12.63
		l0.04,0.01l2.99-11.85l2.27,0.28l-4.19,14.5l-2.16-0.27l-3.32-12.87l-0.04-0.01L929.02,1189.32z"/>
	<path fill="#58595B" d="M945.84,1191.42l-1.86-0.23l0.13-10.93l1.86,0.23L945.84,1191.42z M944.13,1178.28l0.03-2.09l1.86,0.23
		l-0.03,2.09L944.13,1178.28z"/>
	<path fill="#58595B" d="M957.66,1192.9l-1.86-0.23l0.08-6.73c0.02-1.9-0.52-2.93-2.34-3.16c-1.06-0.13-2.93,0.3-2.97,3.27
		l-0.07,5.95l-1.86-0.23l0.13-10.93l1.76,0.22l-0.02,1.55l0.04,0c0.41-0.54,1.46-1.68,3.37-1.44c1.72,0.22,3.87,1.18,3.83,4.29
		L957.66,1192.9z"/>
	<path fill="#58595B" d="M969.61,1194.4l-1.76-0.22l0.02-1.5l-0.04,0c-0.82,1.38-2.1,1.56-3.18,1.42c-3.77-0.47-4.83-4.1-4.8-6.71
		c0.04-3.07,1.74-5.24,4.69-4.88c2.01,0.25,2.85,1.59,3.28,2.27l0.04-0.14l0.07-5.47l1.86,0.23L969.61,1194.4z M964.71,1192.51
		c1.19,0.15,3.04-0.39,3.08-3.3c0.02-1.77-0.24-4.67-2.93-5.01c-2.88-0.36-3.06,2.32-3.08,3.71
		C961.74,1190.32,962.67,1192.26,964.71,1192.51z"/>
	<path fill="#58595B" d="M976.84,1184.05c3.54,0.44,5.11,3.59,5.08,6.41c-0.03,2.82-1.68,5.56-5.22,5.12
		c-3.54-0.44-5.11-3.59-5.08-6.41C971.65,1186.35,973.3,1183.61,976.84,1184.05z M976.72,1193.99c2.67,0.33,3.25-2.31,3.27-3.78
		c0.02-1.46-0.5-4.25-3.17-4.58c-2.67-0.33-3.25,2.31-3.27,3.77C973.53,1190.87,974.05,1193.66,976.72,1193.99z"/>
	<path fill="#58595B" d="M987.7,1196.67l-1.93-0.24l-3.07-11.33l2.03,0.25l2.01,8.85l0.04,0l2.24-8.32l2.08,0.26l2.06,8.86l0.04,0
		l2.35-8.3l1.86,0.23l-3.35,10.52l-1.93-0.24l-2.14-8.74l-0.04,0L987.7,1196.67z"/>
	<path fill="#58595B" d="M1016.51,1200.28l-11.23-1.41l0.18-15l11.08,1.39l-0.02,1.8l-9.03-1.13l-0.06,4.6l8.33,1.04l-0.02,1.8
		l-8.33-1.04l-0.06,5.01l9.18,1.15L1016.51,1200.28z"/>
	<path fill="#58595B" d="M1020.87,1200.82l-1.86-0.23l0.18-15l1.86,0.23L1020.87,1200.82z"/>
	<path fill="#58595B" d="M1033.11,1198.92c-0.07,0.52-0.6,2-2.01,2.74c-0.51,0.27-1.24,0.6-3.02,0.38c-3.12-0.39-4.93-2.94-4.89-6.1
		c0.04-3.38,1.73-5.87,5.39-5.41c3.2,0.4,4.74,3.1,4.69,6.97l-8.09-1.01c-0.03,2.28,1.04,3.73,3.18,4c1.76,0.22,2.81-0.99,2.89-1.79
		L1033.11,1198.92z M1031.37,1195.8c-0.09-1.71-0.79-3.36-3.05-3.65c-1.72-0.21-3.09,1.18-3.11,2.87L1031.37,1195.8z"/>
	<path fill="#58595B" d="M1035.57,1191.72l1.76,0.22l-0.02,1.55l0.04,0c0.41-0.54,1.38-1.69,3.37-1.44
		c1.99,0.25,2.61,1.52,2.92,2.15c0.95-0.91,1.7-1.57,3.41-1.35c1.19,0.15,3.43,1.04,3.39,4.11l-0.09,7.56l-1.86-0.23l0.09-7.06
		c0.02-1.5-0.44-2.59-2.02-2.79c-1.57-0.2-2.62,1.14-2.64,2.6l-0.08,6.67l-1.86-0.23l0.09-7.56c0.01-0.92-0.33-2.07-1.71-2.24
		c-1.06-0.13-2.93,0.3-2.97,3.27l-0.07,5.95l-1.86-0.23L1035.57,1191.72z"/>
	<path fill="#58595B" d="M1062.53,1202.61c-0.07,0.51-0.6,2-2.01,2.74c-0.51,0.27-1.24,0.6-3.02,0.38c-3.12-0.39-4.93-2.94-4.89-6.1
		c0.04-3.38,1.73-5.87,5.39-5.41c3.2,0.4,4.74,3.1,4.69,6.97l-8.09-1.01c-0.03,2.28,1.04,3.73,3.18,4c1.76,0.22,2.81-0.99,2.89-1.79
		L1062.53,1202.61z M1060.79,1199.48c-0.08-1.71-0.79-3.36-3.05-3.65c-1.72-0.22-3.09,1.18-3.11,2.87L1060.79,1199.48z"/>
	<path fill="#58595B" d="M1073.89,1207.47l-1.86-0.23l0.08-6.73c0.02-1.9-0.52-2.93-2.34-3.16c-1.06-0.13-2.93,0.3-2.97,3.27
		l-0.07,5.95l-1.86-0.23l0.13-10.93l1.76,0.22l-0.02,1.55l0.04,0.01c0.41-0.54,1.46-1.68,3.37-1.44c1.72,0.21,3.87,1.18,3.83,4.29
		L1073.89,1207.47z"/>
	<path fill="#58595B" d="M1079.04,1198.69l-0.09,7.1c-0.01,0.86,0.73,0.95,1.11,1l0.66,0.08l-0.02,1.44c-0.68-0.02-1.21,0-1.4-0.03
		c-1.84-0.23-2.23-1.31-2.22-2.62l0.09-7.21l-1.5-0.19l0.02-1.53l1.5,0.19l0.04-3.05l1.86,0.23l-0.04,3.05l1.78,0.22l-0.02,1.53
		L1079.04,1198.69z"/>
</g>
<g>
	<path fill="#58595B" d="M1966.71,1209.46l-2.15,0.11l-3.66-14.89l2.22-0.12l2.59,12.13l0.04,0l3.63-12.46l2.24-0.12l3.16,12.1
		l0.04,0l3.06-12.42l2.26-0.12l-4.28,15.3l-2.15,0.11l-3.22-12.33l-0.04,0L1966.71,1209.46z"/>
	<path fill="#58595B" d="M1983.47,1208.59l-1.86,0.1l0.21-11l1.86-0.1L1983.47,1208.59z M1981.86,1195.69l0.04-2.1l1.86-0.1
		l-0.04,2.1L1981.86,1195.69z"/>
	<path fill="#58595B" d="M1995.24,1207.97l-1.86,0.1l0.13-6.77c0.04-1.91-0.49-2.85-2.31-2.76c-1.06,0.06-2.93,0.83-2.98,3.81
		l-0.12,5.99l-1.86,0.1l0.21-11l1.75-0.09l-0.03,1.56l0.04,0c0.41-0.61,1.47-1.95,3.37-2.04c1.71-0.09,3.85,0.49,3.79,3.62
		L1995.24,1207.97z"/>
	<path fill="#58595B" d="M2007.15,1207.35l-1.75,0.09l0.03-1.51l-0.04,0c-0.83,1.53-2.1,1.94-3.18,1.99
		c-3.76,0.2-4.79-3.26-4.74-5.88c0.06-3.09,1.77-5.58,4.71-5.73c2-0.11,2.83,1.09,3.26,1.7l0.04-0.15l0.11-5.51l1.86-0.1
		L2007.15,1207.35z M2002.28,1206.32c1.18-0.06,3.03-0.94,3.09-3.86c0.04-1.79-0.21-4.65-2.89-4.51c-2.87,0.15-3.07,2.87-3.1,4.28
		C1999.34,1204.65,2000.25,1206.43,2002.28,1206.32z"/>
	<path fill="#58595B" d="M2014.44,1195.67c3.52-0.18,5.07,2.7,5.02,5.54c-0.05,2.84-1.72,5.89-5.24,6.07s-5.07-2.7-5.02-5.53
		C2009.25,1198.9,2010.91,1195.85,2014.44,1195.67z M2014.24,1205.68c2.66-0.14,3.26-2.9,3.29-4.37s-0.47-4.18-3.13-4.04
		s-3.26,2.9-3.29,4.37S2011.58,1205.82,2014.24,1205.68z"/>
	<path fill="#58595B" d="M2025.18,1206.41l-1.92,0.1l-2.98-10.83l2.03-0.11l1.95,8.53l0.04,0l2.3-8.75l2.07-0.11l1.99,8.53l0.04,0
		l2.4-8.76l1.86-0.1l-3.42,11.16l-1.92,0.1l-2.07-8.4l-0.04,0L2025.18,1206.41z"/>
	<path fill="#58595B" d="M2053.88,1204.91l-11.19,0.58l0.29-15.09l11.04-0.58l-0.04,1.81l-8.99,0.47l-0.09,4.62l8.29-0.43
		l-0.04,1.81l-8.29,0.43l-0.1,5.04l9.14-0.48L2053.88,1204.91z"/>
	<path fill="#58595B" d="M2058.23,1204.68l-1.86,0.1l0.29-15.09l1.86-0.1L2058.23,1204.68z"/>
	<path fill="#58595B" d="M2070.45,1200.6c-0.07,0.53-0.61,2.11-2.02,3.11c-0.51,0.36-1.24,0.82-3.01,0.91
		c-3.1,0.16-4.89-2.08-4.83-5.25c0.07-3.41,1.76-6.2,5.41-6.39c3.19-0.17,4.7,2.28,4.63,6.16l-8.06,0.42
		c-0.04,2.29,1.01,3.56,3.14,3.45c1.75-0.09,2.81-1.49,2.89-2.31L2070.45,1200.6z M2068.73,1197.77c-0.07-1.7-0.76-3.24-3.02-3.12
		c-1.71,0.09-3.09,1.74-3.12,3.44L2068.73,1197.77z"/>
	<path fill="#58595B" d="M2072.96,1192.93l1.75-0.09l-0.03,1.56l0.04,0c0.41-0.61,1.39-1.94,3.37-2.04c1.99-0.1,2.6,1.06,2.9,1.63
		c0.95-1.08,1.7-1.87,3.41-1.96c1.18-0.06,3.41,0.43,3.35,3.52l-0.15,7.61l-1.86,0.1l0.14-7.11c0.03-1.51-0.41-2.52-2-2.44
		c-1.56,0.08-2.62,1.61-2.65,3.08l-0.13,6.71l-1.86,0.1l0.15-7.61c0.02-0.92-0.32-2.02-1.69-1.95c-1.06,0.05-2.93,0.83-2.98,3.81
		l-0.12,5.99l-1.86,0.1L2072.96,1192.93z"/>
	<path fill="#58595B" d="M2099.76,1199.07c-0.07,0.53-0.61,2.11-2.02,3.11c-0.51,0.36-1.24,0.82-3.01,0.91
		c-3.1,0.16-4.89-2.08-4.83-5.25c0.07-3.41,1.76-6.2,5.41-6.39c3.19-0.17,4.7,2.28,4.63,6.16l-8.06,0.42
		c-0.04,2.29,1.01,3.56,3.14,3.45c1.75-0.09,2.81-1.49,2.89-2.31L2099.76,1199.07z M2098.05,1196.24c-0.07-1.7-0.76-3.24-3.02-3.12
		c-1.71,0.09-3.09,1.74-3.12,3.44L2098.05,1196.24z"/>
	<path fill="#58595B" d="M2111.05,1201.93l-1.86,0.1l0.13-6.77c0.04-1.91-0.49-2.85-2.31-2.76c-1.06,0.05-2.93,0.82-2.98,3.81
		l-0.12,5.99l-1.86,0.1l0.21-11l1.75-0.09l-0.03,1.56l0.04,0c0.41-0.61,1.47-1.95,3.37-2.05c1.71-0.09,3.85,0.49,3.79,3.62
		L2111.05,1201.93z"/>
	<path fill="#58595B" d="M2116.26,1192.2l-0.14,7.15c-0.02,0.86,0.72,0.82,1.1,0.8l0.65-0.03l-0.03,1.45
		c-0.68,0.1-1.21,0.21-1.4,0.22c-1.84,0.1-2.22-0.91-2.19-2.24l0.14-7.25l-1.5,0.08l0.03-1.54l1.5-0.08l0.06-3.07l1.86-0.1
		l-0.06,3.07l1.77-0.09l-0.03,1.54L2116.26,1192.2z"/>
</g>
<g>
	<path fill="#58595B" d="M919.18,577.75l-2.46,0.13v-18.23l8.43-0.45c3-0.16,5.99,0.72,5.99,4.58c0,2.69-1.37,3.75-2.54,4.5
		c1.04,0.38,2.08,0.78,2.18,3.31l0.15,3.29c0.03,1.01,0.15,1.39,0.91,1.78v0.41l-3.02,0.16c-0.36-1.1-0.43-3.86-0.43-4.55
		c0-1.5-0.3-3.23-3.25-3.08l-5.96,0.32V577.75z M919.18,567.82l5.71-0.31c1.8-0.1,3.71-0.66,3.71-3.35c0-2.82-2.06-2.94-3.27-2.87
		l-6.14,0.33V567.82z"/>
	<path fill="#58595B" d="M939.87,562.98c4.24-0.23,6.17,3.25,6.17,6.68s-1.93,7.11-6.17,7.34s-6.17-3.25-6.17-6.68
		S935.63,563.21,939.87,562.98z M939.87,575.07c3.2-0.17,3.86-3.51,3.86-5.29s-0.66-5.04-3.86-4.87c-3.2,0.17-3.86,3.51-3.86,5.29
		S936.67,575.24,939.87,575.07z"/>
	<path fill="#58595B" d="M953.99,562.22c4.24-0.23,6.17,3.25,6.17,6.68s-1.93,7.11-6.17,7.34c-4.24,0.23-6.17-3.25-6.17-6.68
		S949.75,562.45,953.99,562.22z M953.99,574.31c3.2-0.17,3.86-3.51,3.86-5.29s-0.66-5.04-3.86-4.87c-3.2,0.17-3.86,3.51-3.86,5.29
		S950.79,574.48,953.99,574.31z"/>
	<path fill="#58595B" d="M965.46,563.84v11.43l-2.23,0.12v-11.43l-1.83,0.1v-1.85l1.83-0.1v-2.29c0-2.01,1.27-2.99,3.45-3.1
		c0.33-0.02,0.66-0.01,1.02,0v2.01c-0.28-0.01-0.63-0.02-0.91,0c-0.96,0.05-1.32,0.55-1.32,1.62v1.65l2.23-0.12v1.85L965.46,563.84z
		"/>
	<path fill="#58595B" d="M972.5,563.46v8.63c0,1.04,0.89,0.99,1.35,0.97l0.79-0.04v1.75c-0.81,0.12-1.45,0.26-1.68,0.27
		c-2.21,0.12-2.69-1.1-2.69-2.7v-8.76l-1.8,0.1v-1.85l1.8-0.1v-3.71l2.23-0.12v3.71l2.13-0.11v1.85L972.5,563.46z"/>
	<path fill="#58595B" d="M982.22,560.71c4.24-0.23,6.17,3.25,6.17,6.68s-1.93,7.11-6.17,7.34s-6.17-3.25-6.17-6.68
		S977.98,560.94,982.22,560.71z M982.22,572.79c3.2-0.17,3.86-3.51,3.86-5.29s-0.66-5.04-3.86-4.87s-3.86,3.51-3.86,5.29
		S979.02,572.97,982.22,572.79z"/>
	<path fill="#58595B" d="M990.75,560.63l2.11-0.11v1.88l0.05,0c0.53-0.79,1.55-2.34,3.96-2.47c3.53-0.19,5.53,2.6,5.53,6.33
		c0,3.17-1.32,7.48-5.84,7.73c-1.78,0.09-2.94-0.68-3.53-1.59l-0.05,0v6.65l-2.23,0.12V560.63z M996.52,572.05
		c2.44-0.13,3.58-2.4,3.58-5.32c0-1.7-0.18-4.97-3.63-4.78c-3.22,0.17-3.58,3.67-3.58,5.83
		C992.89,571.31,995.09,572.13,996.52,572.05z"/>
	<path fill="#58595B" d="M1012.34,554.52l8.02-0.43c3.4-0.18,5.15,1.83,5.15,4.32c0,1.19-0.43,2.89-2.44,3.94
		c1.19,0.42,3.3,1.14,3.3,4.27c0,2.92-2.16,5.5-6.19,5.71l-7.84,0.42V554.52z M1014.8,562.11l4.44-0.24
		c2.36-0.13,3.81-0.92,3.81-3.15c0-1.7-1.04-2.61-3.78-2.46l-4.47,0.24V562.11z M1014.8,570.51l5.25-0.28
		c2.56-0.14,3.86-1.5,3.86-3.53c0-2.56-2.26-2.95-4.26-2.84l-4.85,0.26V570.51z"/>
	<path fill="#58595B" d="M1028.97,562.62c0.1-3.18,2.21-4.54,5.48-4.71c1.07-0.06,4.92,0.04,4.92,3.44v7.64
		c0,0.56,0.28,0.77,0.74,0.75c0.2-0.01,0.48-0.08,0.74-0.14v1.62c-0.38,0.12-0.71,0.29-1.22,0.32c-1.98,0.11-2.28-0.89-2.36-1.9
		c-0.86,0.99-2.21,2.28-4.8,2.42c-2.44,0.13-4.16-1.33-4.16-3.61c0-1.12,0.33-3.72,4.04-4.38l3.68-0.65
		c0.53-0.08,1.17-0.32,1.17-1.64c0-1.4-1.02-2.1-3.12-1.99c-2.54,0.14-2.89,1.7-3.05,2.73L1028.97,562.62z M1037.14,564.64
		c-0.36,0.3-0.91,0.53-3.68,1.04c-1.09,0.21-2.84,0.63-2.84,2.31c0,1.45,0.74,2.27,2.41,2.18c2.08-0.11,4.11-1.57,4.11-3.34V564.64z
		"/>
	<path fill="#58595B" d="M1053.97,570.52l-2.23,0.12v-8.18c0-2.31-0.66-3.44-2.84-3.33c-1.27,0.07-3.5,1-3.5,4.61v7.24l-2.23,0.12
		v-13.28l2.11-0.11v1.88l0.05,0c0.48-0.74,1.73-2.35,4.01-2.47c2.06-0.11,4.65,0.59,4.65,4.37V570.52z"/>
	<path fill="#58595B" d="M1068.09,569.76l-2.23,0.12v-8.18c0-2.31-0.66-3.44-2.84-3.33c-1.27,0.07-3.5,1-3.5,4.61v7.24l-2.23,0.12
		v-13.28l2.11-0.11v1.88l0.05,0c0.48-0.74,1.73-2.35,4.01-2.48c2.06-0.11,4.65,0.59,4.65,4.37V569.76z"/>
	<path fill="#58595B" d="M1082.66,564.81c-0.08,0.64-0.69,2.55-2.36,3.76c-0.61,0.44-1.47,0.99-3.6,1.11
		c-3.73,0.2-5.94-2.5-5.94-6.33c0-4.11,1.98-7.49,6.37-7.73c3.83-0.21,5.71,2.74,5.71,7.44l-9.7,0.52c0,2.77,1.3,4.3,3.86,4.16
		c2.11-0.11,3.35-1.8,3.43-2.8L1082.66,564.81z M1080.53,561.4c-0.13-2.05-0.99-3.91-3.71-3.76c-2.06,0.11-3.68,2.1-3.68,4.16
		L1080.53,561.4z"/>
	<path fill="#58595B" d="M1088.05,568.69l-2.23,0.12v-13.28l2.11-0.11v2.21l0.05,0c0.89-1.6,2.06-2.7,3.73-2.79
		c0.28-0.01,0.41,0,0.58,0.04v2.31l-0.84,0.04c-2.08,0.11-3.4,1.81-3.4,3.74V568.69z"/>
</g>
<g>
	<path fill="#58595B" d="M2913.24,1336.8h-2.46v-18.23h12.62v2.18h-10.16v5.59h8.94v2.18h-8.94V1336.8z"/>
	<path fill="#58595B" d="M2927.15,1336.8h-2.23v-13.28h2.11v2.21h0.05c0.89-1.55,2.06-2.59,3.73-2.59c0.28,0,0.41,0.03,0.58,0.08
		v2.31h-0.84c-2.08,0-3.4,1.62-3.4,3.55V1336.8z"/>
	<path fill="#58595B" d="M2944.34,1332.64c-0.08,0.63-0.69,2.51-2.36,3.63c-0.61,0.41-1.47,0.91-3.61,0.91
		c-3.73,0-5.94-2.82-5.94-6.65c0-4.11,1.98-7.39,6.37-7.39c3.83,0,5.71,3.05,5.71,7.74h-9.7c0,2.77,1.29,4.37,3.86,4.37
		c2.11,0,3.35-1.62,3.43-2.62H2944.34z M2942.21,1329.11c-0.13-2.06-0.99-3.96-3.71-3.96c-2.06,0-3.68,1.9-3.68,3.96H2942.21z"/>
	<path fill="#58595B" d="M2958.46,1332.64c-0.08,0.63-0.69,2.51-2.36,3.63c-0.61,0.41-1.47,0.91-3.61,0.91
		c-3.73,0-5.94-2.82-5.94-6.65c0-4.11,1.98-7.39,6.37-7.39c3.83,0,5.71,3.05,5.71,7.74h-9.7c0,2.77,1.29,4.37,3.86,4.37
		c2.11,0,3.35-1.62,3.43-2.62H2958.46z M2956.32,1329.11c-0.13-2.06-0.99-3.96-3.71-3.96c-2.06,0-3.68,1.9-3.68,3.96H2956.32z"/>
	<path fill="#58595B" d="M2966.99,1330.91h-6.22v-2.29h6.22V1330.91z"/>
	<path fill="#58595B" d="M2981.03,1323.9c-0.13-2.82-2.46-3.71-4.52-3.71c-1.55,0-4.16,0.43-4.16,3.2c0,1.55,1.09,2.06,2.16,2.31
		l5.21,1.19c2.36,0.56,4.14,1.98,4.14,4.88c0,4.32-4.01,5.51-7.13,5.51c-3.38,0-4.7-1.02-5.51-1.75c-1.55-1.4-1.85-2.92-1.85-4.62
		h2.31c0,3.3,2.69,4.27,5.03,4.27c1.78,0,4.77-0.46,4.77-3.07c0-1.9-0.89-2.51-3.88-3.22l-3.73-0.86c-1.19-0.28-3.88-1.12-3.88-4.29
		c0-2.84,1.85-5.64,6.27-5.64c6.37,0,7.01,3.81,7.11,5.81H2981.03z"/>
	<path fill="#58595B" d="M2989.43,1325.38v8.63c0,1.04,0.89,1.04,1.35,1.04h0.79v1.75c-0.81,0.08-1.45,0.18-1.68,0.18
		c-2.21,0-2.69-1.24-2.69-2.84v-8.76h-1.8v-1.85h1.8v-3.71h2.23v3.71h2.13v1.85H2989.43z"/>
	<path fill="#58595B" d="M2993.67,1327.56c0.1-3.17,2.21-4.42,5.48-4.42c1.07,0,4.93,0.3,4.93,3.71v7.64c0,0.56,0.28,0.79,0.74,0.79
		c0.2,0,0.48-0.05,0.74-0.1v1.62c-0.38,0.1-0.71,0.25-1.22,0.25c-1.98,0-2.29-1.02-2.36-2.03c-0.86,0.94-2.21,2.16-4.8,2.16
		c-2.44,0-4.16-1.55-4.16-3.83c0-1.12,0.33-3.71,4.04-4.16l3.68-0.46c0.53-0.05,1.17-0.25,1.17-1.57c0-1.4-1.02-2.16-3.12-2.16
		c-2.54,0-2.89,1.55-3.05,2.56H2993.67z M3001.85,1330.02c-0.36,0.28-0.91,0.48-3.68,0.84c-1.09,0.15-2.84,0.48-2.84,2.16
		c0,1.45,0.74,2.31,2.41,2.31c2.08,0,4.11-1.35,4.11-3.12V1330.02z"/>
	<path fill="#58595B" d="M3018.68,1336.8h-2.23v-8.18c0-2.31-0.66-3.48-2.84-3.48c-1.27,0-3.5,0.81-3.5,4.42v7.24h-2.23v-13.28h2.11
		v1.88h0.05c0.48-0.71,1.73-2.26,4.01-2.26c2.06,0,4.65,0.84,4.65,4.62V1336.8z"/>
	<path fill="#58595B" d="M3033,1336.8h-2.11v-1.83h-0.05c-0.96,1.8-2.49,2.21-3.78,2.21c-4.52,0-5.84-4.24-5.84-7.41
		c0-3.73,2.01-6.63,5.54-6.63c2.41,0,3.43,1.5,3.96,2.26l0.05-0.18v-6.65h2.23V1336.8z M3027.11,1335.25c1.42,0,3.63-0.94,3.63-4.47
		c0-2.16-0.36-5.64-3.58-5.64c-3.45,0-3.63,3.28-3.63,4.98C3023.53,1333.04,3024.68,1335.25,3027.11,1335.25z"/>
	<path fill="#58595B" d="M3036.15,1321.11v-2.54h2.23v2.54H3036.15z M3038.39,1336.8h-2.23v-13.28h2.23V1336.8z"/>
	<path fill="#58595B" d="M3052.55,1336.8h-2.23v-8.18c0-2.31-0.66-3.48-2.84-3.48c-1.27,0-3.5,0.81-3.5,4.42v7.24h-2.23v-13.28h2.11
		v1.88h0.05c0.48-0.71,1.73-2.26,4.01-2.26c2.06,0,4.65,0.84,4.65,4.62V1336.8z"/>
	<path fill="#58595B" d="M3066.87,1335.71c0,1.9-0.03,6.68-6.17,6.68c-1.57,0-4.65-0.43-5.08-3.96h2.23c0.41,2.11,2.46,2.11,3,2.11
		c3.86,0,3.78-3.1,3.78-4.67v-0.56h-0.05v0.1c-0.58,0.94-1.75,1.78-3.53,1.78c-4.52,0-5.84-4.24-5.84-7.41
		c0-3.73,2.01-6.63,5.54-6.63c2.41,0,3.43,1.5,3.96,2.26h0.05v-1.88h2.11V1335.71z M3061.11,1335.25c1.42,0,3.63-0.94,3.63-4.47
		c0-2.16-0.36-5.64-3.58-5.64c-3.45,0-3.63,3.28-3.63,4.98C3057.53,1333.04,3058.67,1335.25,3061.11,1335.25z"/>
	<path fill="#58595B" d="M2939.4,1367.27h-2.46v-18.23h8.2c3.38,0,5.41,2.18,5.41,5.13c0,2.54-1.45,5.41-5.41,5.41h-5.74V1367.27z
		 M2939.4,1357.47h4.9c2.21,0,3.71-0.81,3.71-3.28c0-2.31-1.57-3.05-3.61-3.05h-5V1357.47z"/>
	<path fill="#58595B" d="M2957.48,1353.61c4.24,0,6.17,3.58,6.17,7.01s-1.93,7.01-6.17,7.01s-6.17-3.58-6.17-7.01
		S2953.24,1353.61,2957.48,1353.61z M2957.48,1365.7c3.2,0,3.86-3.3,3.86-5.08s-0.66-5.08-3.86-5.08s-3.86,3.3-3.86,5.08
		S2954.28,1365.7,2957.48,1365.7z"/>
	<path fill="#58595B" d="M2968.48,1367.27h-2.23v-18.23h2.23V1367.27z"/>
	<path fill="#58595B" d="M2983.1,1363.11c-0.08,0.63-0.69,2.51-2.36,3.63c-0.61,0.41-1.47,0.91-3.61,0.91
		c-3.73,0-5.94-2.82-5.94-6.65c0-4.11,1.98-7.39,6.37-7.39c3.83,0,5.71,3.05,5.71,7.74h-9.7c0,2.77,1.29,4.37,3.86,4.37
		c2.11,0,3.35-1.62,3.43-2.62H2983.1z M2980.97,1359.58c-0.13-2.06-0.99-3.96-3.71-3.96c-2.06,0-3.68,1.9-3.68,3.96H2980.97z"/>
	<path fill="#58595B" d="M3004.28,1354.37c-0.13-2.82-2.46-3.71-4.52-3.71c-1.55,0-4.16,0.43-4.16,3.2c0,1.55,1.09,2.06,2.16,2.31
		l5.21,1.19c2.36,0.56,4.14,1.98,4.14,4.88c0,4.32-4.01,5.51-7.13,5.51c-3.38,0-4.7-1.02-5.51-1.75c-1.55-1.4-1.85-2.92-1.85-4.62
		h2.31c0,3.3,2.69,4.27,5.03,4.27c1.78,0,4.77-0.46,4.77-3.07c0-1.9-0.89-2.51-3.88-3.22l-3.73-0.86c-1.19-0.28-3.88-1.12-3.88-4.29
		c0-2.84,1.85-5.64,6.27-5.64c6.37,0,7.01,3.81,7.11,5.81H3004.28z"/>
	<path fill="#58595B" d="M3009.99,1351.58v-2.54h2.23v2.54H3009.99z M3012.22,1367.27h-2.23v-13.28h2.23V1367.27z"/>
	<path fill="#58595B" d="M3026.59,1366.18c0,1.9-0.03,6.68-6.17,6.68c-1.57,0-4.65-0.43-5.08-3.96h2.23c0.41,2.11,2.46,2.11,3,2.11
		c3.86,0,3.78-3.1,3.78-4.67v-0.56h-0.05v0.1c-0.58,0.94-1.75,1.78-3.53,1.78c-4.52,0-5.84-4.24-5.84-7.41
		c0-3.73,2.01-6.63,5.54-6.63c2.41,0,3.43,1.5,3.96,2.26h0.05v-1.88h2.11V1366.18z M3020.83,1365.72c1.42,0,3.63-0.94,3.63-4.47
		c0-2.16-0.36-5.64-3.58-5.64c-3.45,0-3.63,3.28-3.63,4.98C3017.25,1363.51,3018.39,1365.72,3020.83,1365.72z"/>
	<path fill="#58595B" d="M3040.51,1367.27h-2.23v-8.18c0-2.31-0.66-3.48-2.84-3.48c-1.27,0-3.5,0.81-3.5,4.42v7.24h-2.23v-13.28
		h2.11v1.88h0.05c0.48-0.71,1.73-2.26,4.01-2.26c2.06,0,4.65,0.84,4.65,4.62V1367.27z"/>
</g>
<g>
	<path fill="#58595B" d="M3268.92,991.36h-2.46v-18.23h8.2c3.38,0,5.41,2.18,5.41,5.13c0,2.54-1.45,5.41-5.41,5.41h-5.74V991.36z
		 M3268.92,981.56h4.9c2.21,0,3.71-0.81,3.71-3.28c0-2.31-1.57-3.05-3.61-3.05h-5V981.56z"/>
	<path fill="#58595B" d="M3285.14,991.36h-2.23v-18.23h2.23V991.36z"/>
	<path fill="#58595B" d="M3288.42,982.12c0.1-3.17,2.21-4.42,5.48-4.42c1.07,0,4.93,0.3,4.93,3.71v7.64c0,0.56,0.28,0.79,0.74,0.79
		c0.2,0,0.48-0.05,0.74-0.1v1.62c-0.38,0.1-0.71,0.25-1.22,0.25c-1.98,0-2.29-1.02-2.36-2.03c-0.86,0.94-2.21,2.16-4.8,2.16
		c-2.44,0-4.16-1.55-4.16-3.83c0-1.12,0.33-3.71,4.04-4.16l3.68-0.46c0.53-0.05,1.17-0.25,1.17-1.57c0-1.4-1.02-2.16-3.12-2.16
		c-2.54,0-2.89,1.55-3.05,2.56H3288.42z M3296.59,984.58c-0.36,0.28-0.91,0.48-3.68,0.84c-1.09,0.15-2.84,0.48-2.84,2.16
		c0,1.45,0.74,2.31,2.41,2.31c2.08,0,4.11-1.35,4.11-3.12V984.58z"/>
	<path fill="#58595B" d="M3310.16,978.08h2.46c-1.55,4.34-3.07,8.68-4.77,13.03c-2.11,5.38-2.34,5.69-5.21,5.69
		c-0.33,0-0.58-0.1-0.94-0.2v-2.03c0.28,0.1,0.74,0.23,1.35,0.23c1.17,0,1.29-0.33,2.36-3.07l-4.93-13.63h2.54l3.53,10.82h0.05
		L3310.16,978.08z"/>
	<path fill="#58595B" d="M3316.84,991.36h-2.23v-18.23h2.23V991.36z"/>
	<path fill="#58595B" d="M3320.11,982.12c0.1-3.17,2.21-4.42,5.48-4.42c1.07,0,4.93,0.3,4.93,3.71v7.64c0,0.56,0.28,0.79,0.74,0.79
		c0.2,0,0.48-0.05,0.74-0.1v1.62c-0.38,0.1-0.71,0.25-1.22,0.25c-1.98,0-2.29-1.02-2.36-2.03c-0.86,0.94-2.21,2.16-4.8,2.16
		c-2.44,0-4.16-1.55-4.16-3.83c0-1.12,0.33-3.71,4.04-4.16l3.68-0.46c0.53-0.05,1.17-0.25,1.17-1.57c0-1.4-1.02-2.16-3.12-2.16
		c-2.54,0-2.89,1.55-3.05,2.56H3320.11z M3328.29,984.58c-0.36,0.28-0.91,0.48-3.68,0.84c-1.09,0.15-2.84,0.48-2.84,2.16
		c0,1.45,0.74,2.31,2.41,2.31c2.08,0,4.11-1.35,4.11-3.12V984.58z"/>
	<path fill="#58595B" d="M3345.12,991.36h-2.23v-8.18c0-2.31-0.66-3.48-2.84-3.48c-1.27,0-3.5,0.81-3.5,4.42v7.24h-2.23v-13.28h2.11
		v1.88h0.05c0.48-0.71,1.73-2.26,4.01-2.26c2.06,0,4.65,0.84,4.65,4.62V991.36z"/>
	<path fill="#58595B" d="M3359.44,991.36h-2.11v-1.83h-0.05c-0.96,1.8-2.49,2.21-3.78,2.21c-4.52,0-5.84-4.24-5.84-7.41
		c0-3.73,2.01-6.63,5.54-6.63c2.41,0,3.43,1.5,3.96,2.26l0.05-0.18v-6.65h2.23V991.36z M3353.55,989.81c1.42,0,3.63-0.94,3.63-4.47
		c0-2.16-0.36-5.64-3.58-5.64c-3.45,0-3.63,3.28-3.63,4.98C3349.97,987.61,3351.11,989.81,3353.55,989.81z"/>
	<path fill="#58595B" d="M3369.83,973.13h8.02c3.4,0,5.15,2.11,5.15,4.6c0,1.19-0.43,2.87-2.44,3.81c1.19,0.48,3.3,1.32,3.3,4.44
		c0,2.92-2.16,5.38-6.2,5.38h-7.85V973.13z M3372.29,980.85h4.44c2.36,0,3.81-0.71,3.81-2.95c0-1.7-1.04-2.67-3.78-2.67h-4.47
		V980.85z M3372.29,989.26h5.26c2.56,0,3.86-1.29,3.86-3.33c0-2.56-2.26-3.07-4.27-3.07h-4.85V989.26z"/>
	<path fill="#58595B" d="M3386.46,982.12c0.1-3.17,2.21-4.42,5.48-4.42c1.07,0,4.93,0.3,4.93,3.71v7.64c0,0.56,0.28,0.79,0.74,0.79
		c0.2,0,0.48-0.05,0.74-0.1v1.62c-0.38,0.1-0.71,0.25-1.22,0.25c-1.98,0-2.29-1.02-2.36-2.03c-0.86,0.94-2.21,2.16-4.8,2.16
		c-2.44,0-4.16-1.55-4.16-3.83c0-1.12,0.33-3.71,4.04-4.16l3.68-0.46c0.53-0.05,1.17-0.25,1.17-1.57c0-1.4-1.02-2.16-3.12-2.16
		c-2.54,0-2.89,1.55-3.05,2.56H3386.46z M3394.63,984.58c-0.36,0.28-0.91,0.48-3.68,0.84c-1.09,0.15-2.84,0.48-2.84,2.16
		c0,1.45,0.74,2.31,2.41,2.31c2.08,0,4.11-1.35,4.11-3.12V984.58z"/>
	<path fill="#58595B" d="M3411.47,991.36h-2.23v-8.18c0-2.31-0.66-3.48-2.84-3.48c-1.27,0-3.5,0.81-3.5,4.42v7.24h-2.23v-13.28h2.11
		v1.88h0.05c0.48-0.71,1.73-2.26,4.01-2.26c2.06,0,4.65,0.84,4.65,4.62V991.36z"/>
	<path fill="#58595B" d="M3425.58,991.36h-2.23v-8.18c0-2.31-0.66-3.48-2.84-3.48c-1.27,0-3.5,0.81-3.5,4.42v7.24h-2.23v-13.28h2.11
		v1.88h0.05c0.48-0.71,1.73-2.26,4.01-2.26c2.06,0,4.65,0.84,4.65,4.62V991.36z"/>
	<path fill="#58595B" d="M3440.16,987.2c-0.08,0.63-0.69,2.51-2.36,3.63c-0.61,0.41-1.47,0.91-3.61,0.91
		c-3.73,0-5.94-2.82-5.94-6.65c0-4.11,1.98-7.39,6.37-7.39c3.83,0,5.71,3.05,5.71,7.74h-9.7c0,2.77,1.29,4.37,3.86,4.37
		c2.11,0,3.35-1.62,3.43-2.62H3440.16z M3438.02,983.67c-0.13-2.06-0.99-3.96-3.71-3.96c-2.06,0-3.68,1.9-3.68,3.96H3438.02z"/>
	<path fill="#58595B" d="M3445.54,991.36h-2.23v-13.28h2.11v2.21h0.05c0.89-1.55,2.06-2.59,3.73-2.59c0.28,0,0.41,0.03,0.58,0.08
		v2.31h-0.84c-2.08,0-3.4,1.62-3.4,3.55V991.36z"/>
</g>
<g>
	<path fill="#58595B" d="M346.82,1521.68h-2.46v-18.23h8.43c3,0,5.99,1.04,5.99,4.9c0,2.69-1.37,3.68-2.54,4.37
		c1.04,0.43,2.08,0.89,2.18,3.43l0.15,3.3c0.03,1.02,0.15,1.4,0.91,1.83v0.41h-3.02c-0.36-1.12-0.43-3.88-0.43-4.57
		c0-1.5-0.3-3.25-3.25-3.25h-5.97V1521.68z M346.82,1511.75h5.71c1.8,0,3.71-0.46,3.71-3.15c0-2.82-2.06-3.05-3.28-3.05h-6.14
		V1511.75z"/>
	<path fill="#58595B" d="M367.51,1508.02c4.24,0,6.17,3.58,6.17,7.01s-1.93,7.01-6.17,7.01s-6.17-3.58-6.17-7.01
		S363.27,1508.02,367.51,1508.02z M367.51,1520.1c3.2,0,3.86-3.3,3.86-5.08s-0.66-5.08-3.86-5.08s-3.86,3.3-3.86,5.08
		S364.31,1520.1,367.51,1520.1z"/>
	<path fill="#58595B" d="M376.15,1512.44c0.1-3.17,2.21-4.42,5.48-4.42c1.07,0,4.93,0.3,4.93,3.71v7.64c0,0.56,0.28,0.79,0.74,0.79
		c0.2,0,0.48-0.05,0.74-0.1v1.62c-0.38,0.1-0.71,0.25-1.22,0.25c-1.98,0-2.29-1.02-2.36-2.03c-0.86,0.94-2.21,2.16-4.8,2.16
		c-2.44,0-4.16-1.55-4.16-3.83c0-1.12,0.33-3.71,4.04-4.16l3.68-0.46c0.53-0.05,1.17-0.25,1.17-1.57c0-1.4-1.02-2.16-3.12-2.16
		c-2.54,0-2.89,1.55-3.05,2.56H376.15z M384.32,1514.9c-0.36,0.28-0.91,0.48-3.68,0.84c-1.09,0.15-2.84,0.48-2.84,2.16
		c0,1.45,0.74,2.31,2.41,2.31c2.08,0,4.11-1.35,4.11-3.12V1514.9z"/>
	<path fill="#58595B" d="M401.36,1521.68h-2.11v-1.83h-0.05c-0.96,1.8-2.49,2.21-3.78,2.21c-4.52,0-5.84-4.24-5.84-7.41
		c0-3.73,2.01-6.63,5.54-6.63c2.41,0,3.43,1.5,3.96,2.26l0.05-0.18v-6.65h2.23V1521.68z M395.47,1520.13c1.42,0,3.63-0.94,3.63-4.47
		c0-2.16-0.36-5.64-3.58-5.64c-3.45,0-3.63,3.28-3.63,4.98C391.89,1517.92,393.03,1520.13,395.47,1520.13z"/>
	<path fill="#58595B" d="M412,1512.18c-0.03-0.84-0.33-2.23-3.15-2.23c-0.69,0-2.64,0.23-2.64,1.88c0,1.09,0.69,1.35,2.41,1.78
		l2.23,0.56c2.77,0.69,3.73,1.7,3.73,3.5c0,2.74-2.26,4.39-5.26,4.39c-5.26,0-5.64-3.05-5.71-4.65h2.16
		c0.08,1.04,0.38,2.72,3.53,2.72c1.6,0,3.05-0.63,3.05-2.11c0-1.07-0.74-1.42-2.64-1.9l-2.59-0.63c-1.85-0.46-3.07-1.4-3.07-3.22
		c0-2.92,2.41-4.24,5.03-4.24c4.75,0,5.08,3.5,5.08,4.16H412z"/>
	<path fill="#58595B" d="M417.2,1505.99v-2.54h2.23v2.54H417.2z M419.44,1521.68h-2.23v-13.28h2.23V1521.68z"/>
	<path fill="#58595B" d="M433.81,1521.68h-2.11v-1.83h-0.05c-0.96,1.8-2.49,2.21-3.78,2.21c-4.52,0-5.84-4.24-5.84-7.41
		c0-3.73,2.01-6.63,5.54-6.63c2.41,0,3.43,1.5,3.96,2.26l0.05-0.18v-6.65h2.23V1521.68z M427.92,1520.13c1.42,0,3.63-0.94,3.63-4.47
		c0-2.16-0.36-5.64-3.58-5.64c-3.45,0-3.63,3.28-3.63,4.98C424.34,1517.92,425.48,1520.13,427.92,1520.13z"/>
	<path fill="#58595B" d="M448.18,1517.51c-0.08,0.63-0.69,2.51-2.36,3.63c-0.61,0.41-1.47,0.91-3.61,0.91
		c-3.73,0-5.94-2.82-5.94-6.65c0-4.11,1.98-7.39,6.37-7.39c3.83,0,5.71,3.05,5.71,7.74h-9.7c0,2.77,1.29,4.37,3.86,4.37
		c2.11,0,3.35-1.62,3.43-2.62H448.18z M446.05,1513.98c-0.13-2.06-0.99-3.96-3.71-3.96c-2.06,0-3.68,1.9-3.68,3.96H446.05z"/>
	<path fill="#58595B" d="M344,1533.92h8.02c3.4,0,5.15,2.11,5.15,4.6c0,1.19-0.43,2.87-2.44,3.81c1.19,0.48,3.3,1.32,3.3,4.44
		c0,2.92-2.16,5.38-6.2,5.38H344V1533.92z M346.47,1541.64h4.44c2.36,0,3.81-0.71,3.81-2.95c0-1.7-1.04-2.67-3.78-2.67h-4.47
		V1541.64z M346.47,1550.04h5.26c2.56,0,3.86-1.29,3.86-3.33c0-2.56-2.26-3.07-4.27-3.07h-4.85V1550.04z"/>
	<path fill="#58595B" d="M360.63,1542.9c0.1-3.17,2.21-4.42,5.48-4.42c1.07,0,4.93,0.3,4.93,3.71v7.64c0,0.56,0.28,0.79,0.74,0.79
		c0.2,0,0.48-0.05,0.74-0.1v1.62c-0.38,0.1-0.71,0.25-1.22,0.25c-1.98,0-2.29-1.02-2.36-2.03c-0.86,0.94-2.21,2.16-4.8,2.16
		c-2.44,0-4.16-1.55-4.16-3.83c0-1.12,0.33-3.71,4.04-4.16l3.68-0.46c0.53-0.05,1.17-0.25,1.17-1.57c0-1.4-1.02-2.16-3.12-2.16
		c-2.54,0-2.89,1.55-3.05,2.56H360.63z M368.81,1545.37c-0.36,0.28-0.91,0.48-3.68,0.84c-1.09,0.15-2.84,0.48-2.84,2.16
		c0,1.45,0.74,2.31,2.41,2.31c2.08,0,4.11-1.35,4.11-3.12V1545.37z"/>
	<path fill="#58595B" d="M385.64,1552.15h-2.23v-8.18c0-2.31-0.66-3.48-2.84-3.48c-1.27,0-3.5,0.81-3.5,4.42v7.24h-2.23v-13.28h2.11
		v1.88h0.05c0.48-0.71,1.73-2.26,4.01-2.26c2.06,0,4.65,0.84,4.65,4.62V1552.15z"/>
	<path fill="#58595B" d="M399.76,1552.15h-2.23v-8.18c0-2.31-0.66-3.48-2.84-3.48c-1.27,0-3.5,0.81-3.5,4.42v7.24h-2.23v-13.28h2.11
		v1.88h0.05c0.48-0.71,1.73-2.26,4.01-2.26c2.06,0,4.65,0.84,4.65,4.62V1552.15z"/>
	<path fill="#58595B" d="M414.33,1547.98c-0.08,0.63-0.69,2.51-2.36,3.63c-0.61,0.41-1.47,0.91-3.61,0.91
		c-3.73,0-5.94-2.82-5.94-6.65c0-4.11,1.98-7.39,6.37-7.39c3.83,0,5.71,3.05,5.71,7.74h-9.7c0,2.77,1.29,4.37,3.86,4.37
		c2.11,0,3.35-1.62,3.43-2.62H414.33z M412.2,1544.45c-0.13-2.06-0.99-3.96-3.71-3.96c-2.06,0-3.68,1.9-3.68,3.96H412.2z"/>
	<path fill="#58595B" d="M419.72,1552.15h-2.23v-13.28h2.11v2.21h0.05c0.89-1.55,2.06-2.59,3.73-2.59c0.28,0,0.41,0.03,0.58,0.08
		v2.31h-0.84c-2.08,0-3.4,1.62-3.4,3.55V1552.15z"/>
</g>
<rect x="3178.74" y="1164.76" opacity="0.5" fill="#C9D1D7" width="6.31" height="1.48"/>
<rect x="3191.81" y="1164.76" opacity="0.5" fill="#C9D1D7" width="6.31" height="1.48"/>
<rect x="3204.88" y="1164.76" opacity="0.5" fill="#C9D1D7" width="6.31" height="1.48"/>
<g>
	<polygon opacity="0.15" fill="#8C8C8C" points="3149.29,1157.55 3146.42,1164.65 3145.47,1164.65 3145.47,1156.52 3150.71,1156.52 
			"/>
	<polygon opacity="0.15" fill="#8C8C8C" points="3149.29,1053.45 3146.42,1060.55 3145.47,1060.55 3145.47,1052.42 3150.71,1052.42 
			"/>
	<g>
		<rect x="3110.34" y="1011.65" fill="#E6E3D4" width="35.17" height="164.44"/>
		<rect x="3105.02" y="1010.12" fill="#D9D9D9" width="44.56" height="34"/>
		<polygon fill="#8C8C8C" points="3112.03,1044.57 3145.22,1044.57 3145.2,1049.12 		"/>
		<rect x="3110.34" y="1011.65" fill="#E6E3D4" width="35.17" height="164.44"/>
		<rect x="3105.02" y="1010.12" fill="#D9D9D9" width="44.57" height="34"/>
		<polygon fill="#8C8C8C" points="3110.84,1044.57 3145.01,1044.57 3144.51,1048.75 		"/>
	</g>
</g>
<rect x="3571.68" y="1011.65" fill="#E6E3D4" width="28.32" height="164.44"/>
<rect x="3566.36" y="1010.12" fill="#D9D9D9" width="33.64" height="34"/>
<polygon fill="#8C8C8C" points="3573.37,1044.57 3600,1044.57 3600,1049.12 "/>
<g>
	<path fill="#231F20" d="M39.54,95.82V38.08h31.03v11.55H53.09v10.62h16.94V71.8H53.09v12.47h18.4v11.55H39.54z"/>
	<path fill="#231F20" d="M107.69,52.7l-9.62,21.56l9.93,21.56H95.75l-3.93-12.4h-0.15l-3.93,12.4H75.19l10.09-21.56L75.66,52.7
		h12.17l3.62,12.09h0.15l3.85-12.09H107.69z"/>
	<path fill="#231F20" d="M109.61,61.56V52.7h4.85V40.39h12.24V52.7h5.85v8.86h-5.85v22.71c0,2.46,1.08,3,2.69,3
		c1.39-0.23,1.85-0.15,3.16-0.15v8.62c-2.62,0.38-5.16,0.69-7.85,0.69c-6.62,0-10.24-3.39-10.24-9.93V61.56H109.61z"/>
	<path fill="#231F20" d="M149.5,76.27v7.54c0,2.39,1.08,4.39,3.77,4.54c4.54,0.23,4.08-3.85,4.31-7.47h12.17
		c0.62,11.09-5.39,16.17-16.02,16.32c-8.78,0.08-16.48-3.54-16.48-13.4V66.26c0-11.09,7.01-14.71,16.48-14.78
		c8.55-0.08,16.48,3.16,16.48,12.47v12.32H149.5z M157.97,68.18v-4.23c0-1.54-1-4.39-4.16-4.39c-3.46,0-4.31,2.77-4.31,5.77v2.85
		H157.97z"/>
	<path fill="#231F20" d="M187.46,52.7v6.54h0.15c1.39-4.62,4.39-7.78,9.47-7.78v13.86c-1.23-0.23-2.46-0.31-3.7-0.31
		c-3.46,0-4.85,0.69-5.08,4.23v26.56h-12.24V52.7H187.46z"/>
	<path fill="#231F20" d="M203.09,48.47V38.08h12.24v10.39H203.09z M203.09,95.82V52.7h12.24v43.12H203.09z"/>
	<path fill="#231F20" d="M223.11,66.26c0-11.09,6.54-14.78,16.02-14.78c10.78,0,16.02,5.08,16.02,14.78v17.55
		c-0.62,9.78-6.7,13.4-16.02,13.4c-8.78,0-16.02-3.54-16.02-13.4V66.26z M235.35,84.58c0.23,2.46,1.23,3.77,3.77,3.77
		s3.54-1.31,3.77-3.77V65.33c0-2.77-0.92-5-3.77-5c-2.85,0-3.77,2.23-3.77,5V84.58z"/>
	<path fill="#231F20" d="M273,52.7v6.54h0.15c1.39-4.62,4.39-7.78,9.47-7.78v13.86c-1.23-0.23-2.46-0.31-3.7-0.31
		c-3.46,0-4.85,0.69-5.08,4.23v26.56h-12.24V52.7H273z"/>
	<path fill="#231F20" d="M305.27,38.08h30.64v10.78l-16.78,35.42h17.55v11.55h-32.65V85.5l17.09-35.88h-15.86V38.08z"/>
	<path fill="#231F20" d="M340.69,66.26c0-11.09,6.54-14.78,16.02-14.78c10.78,0,16.02,5.08,16.02,14.78v17.55
		c-0.62,9.78-6.7,13.4-16.02,13.4c-8.78,0-16.02-3.54-16.02-13.4V66.26z M352.93,84.58c0.23,2.46,1.23,3.77,3.77,3.77
		s3.54-1.31,3.77-3.77V65.33c0-2.77-0.92-5-3.77-5c-2.85,0-3.77,2.23-3.77,5V84.58z"/>
	<path fill="#231F20" d="M391.12,52.7v5.39h0.15c1.15-3.31,4.7-6.62,8.55-6.62c5.77,0,10.93,3.16,10.93,9.01v35.34h-12.24v-30.8
		c-0.15-2-0.92-3.7-3.23-3.54c-2.16,0.08-3.31,1.31-3.31,3.54v30.8h-12.24V52.7H391.12z"/>
	<path fill="#231F20" d="M429.62,76.27v7.54c0,2.39,1.08,4.39,3.77,4.54c4.54,0.23,4.08-3.85,4.31-7.47h12.17
		c0.62,11.09-5.39,16.17-16.02,16.32c-8.78,0.08-16.48-3.54-16.48-13.4V66.26c0-11.09,7.01-14.71,16.48-14.78
		c8.55-0.08,16.48,3.16,16.48,12.47v12.32H429.62z M438.09,68.18v-4.23c0-1.54-1-4.39-4.16-4.39c-3.46,0-4.31,2.77-4.31,5.77v2.85
		H438.09z"/>
</g>
</svg>
