<?xml version="1.0" encoding="utf-8"?>
<!-- Generator: Adobe Illustrator 19.2.1, SVG Export Plug-In . SVG Version: 6.00 Build 0)  -->
<svg version="1.1" id="Interactive" xmlns="http://www.w3.org/2000/svg" xmlns:xlink="http://www.w3.org/1999/xlink" x="0px"
	 y="0px" viewBox="0 0 3600 2782.08" enable-background="new 0 0 3600 2782.08" xml:space="preserve">
<rect id="_x31_.20" x="2932.1" y="1396.84" fill="none" width="116.63" height="218.43"/>
<path id="_x31_.2_4_" fill="none" d="M450.19,819.08c-17.54,1.2-36.21,2.79-54.77,7.73c-22.87,6.08-39.81,15.77-51.81,29.63
	c-25.06,28.97-25.49,61.41-25.49,62.79v561.98l8.65-9.48c17.32-18.97,39.53-32.64,66.02-40.64c21.82-6.59,41.06-7.57,50.58-7.57
	c4.25,0,6.71,0.2,6.73,0.2l5.31,0.44V818.72L450.19,819.08z"/>
<path id="_x31_.13_3_" fill="none" d="M190.86,801.79c-17.54,1.2-36.21,2.79-54.77,7.72c-22.87,6.08-39.81,15.77-51.81,29.63
	c-25.06,28.97-25.49,61.41-25.49,62.79v561.98l8.65-9.48c17.32-18.97,39.53-32.64,66.02-40.64c21.82-6.59,41.06-7.57,50.58-7.57
	c4.25,0,6.71,0.2,6.73,0.2l5.31,0.44V801.43L190.86,801.79z"/>
<polygon id="_x31_.3_4_" fill="none" points="652.41,624 652.41,724.94 1374.49,724.94 1374.49,595.72 "/>
<polygon id="_x31_.9_4_" fill="none" points="1691.69,944.21 1691.69,1200.38 1883.16,1191.32 1883.79,949.53 "/>
<polygon id="_x31_.8_4_" fill="none" points="1215.73,925.79 1215.73,1198.94 1414.12,1225.55 1414.12,935.92 "/>
<polygon id="_x31_.7_4_" fill="none" points="902.18,910.3 902.18,1156.57 1098.03,1181.37 1098.03,920.71 "/>
<polygon id="_x31_.6_4_" fill="none" points="599.3,893.67 599.79,1112.42 777.7,1137.4 777.7,903.58 "/>
<polygon id="_x31_.10_4_" fill="none" points="1954,953 1954,1184.59 2126.32,1176.31 2126.32,957.27 "/>
<polygon id="_x31_.11_4_" fill="none" points="2193.32,960.88 2193.32,1170.79 2349.04,1163.76 2349.04,965.87 "/>
<rect id="_x31_.1_3_" x="80.55" y="572.28" fill="none" width="316.41" height="113.06"/>
<rect id="_x31_.12_3_" x="80.55" y="419.62" fill="none" width="316.41" height="113.06"/>
<rect id="_x31_.14_3_" x="588.5" y="1156.31" fill="none" width="196.73" height="278.13"/>
<rect id="_x31_.15_3_" x="904.14" y="1212.34" fill="none" width="196.73" height="278.13"/>
<rect id="_x31_.16_3_" x="1213.67" y="1257.72" fill="none" width="196.73" height="278.13"/>
<rect id="_x31_.17_3_" x="1687.83" y="1264.59" fill="none" width="196.73" height="278.13"/>
<rect id="_x31_.18_3_" x="1942.56" y="1248.18" fill="none" width="196.73" height="278.13"/>
<rect id="_x31_.19_3_" x="2178.99" y="1232.5" fill="none" width="196.73" height="278.13"/>
<polygon id="_x31_.23_3_" fill="none" points="2601.35,939.28 2727.69,949.03 2727.69,1245.8 2601.35,1257.08 "/>
<rect id="_x31_.22_3_" x="648.02" y="420.92" fill="none" width="732.36" height="104.62"/>
<rect id="_x31_.4" x="2932.1" y="950.44" fill="none" width="116.63" height="218.43"/>
<rect id="_x31_.21" x="3188.85" y="1205.6" fill="none" width="336.55" height="128.83"/>
<rect id="_x31_.5" x="3188.85" y="1009.92" fill="none" width="336.55" height="128.83"/>
</svg>
