<?xml version="1.0" encoding="utf-8"?>
<!-- Generator: Adobe Illustrator 19.2.1, SVG Export Plug-In . SVG Version: 6.00 Build 0)  -->
<svg version="1.1" id="Background" xmlns="http://www.w3.org/2000/svg" xmlns:xlink="http://www.w3.org/1999/xlink" x="0px" y="0px"
	 viewBox="0 0 3600 2782.08" enable-background="new 0 0 3600 2782.08" xml:space="preserve">
<g>
	<g>
		<linearGradient id="SVGID_1_" gradientUnits="userSpaceOnUse" x1="372.4841" y1="672.6037" x2="372.4841" y2="1432.9049">
			<stop  offset="0.1648" style="stop-color:#949494"/>
			<stop  offset="0.5769" style="stop-color:#000000"/>
		</linearGradient>
		<polygon fill="url(#SVGID_1_)" stroke="#010101" stroke-width="0.0968" stroke-linecap="round" stroke-linejoin="round" points="
			131.103,717.606 131.103,985.977 131.103,1028.624 613.865,1028.624 613.865,717.606 		"/>
	</g>
</g>
<rect x="142.985" y="729.117" fill="#FFFFFF" stroke="#010101" stroke-width="2" stroke-linecap="round" stroke-linejoin="round" width="459" height="288"/>
<rect x="693.921" y="345.49" fill="#D1D3D4" stroke="#000000" stroke-width="2" stroke-miterlimit="10" width="2774.805" height="344.524"/>
<rect x="1184.537" y="384.575" width="268.007" height="268.006"/>
<rect x="2868.629" y="384.574" width="268.007" height="268.006"/>
<rect x="3179.743" y="384.574" width="268.007" height="268.006"/>
<line fill="none" stroke="#000000" stroke-width="3" stroke-miterlimit="10" x1="1165.209" y1="652.523" x2="1783.686" y2="652.523"/>
<line fill="none" stroke="#000000" stroke-width="3" stroke-miterlimit="10" x1="2849.522" y1="384.602" x2="3467.52" y2="384.602"/>
<line fill="none" stroke="#000000" stroke-width="3" stroke-miterlimit="10" x1="1165.209" y1="345.49" x2="1165.209" y2="690.014"/>
<line fill="none" stroke="#000000" stroke-width="3" stroke-miterlimit="10" x1="1475.075" y1="345.49" x2="1475.075" y2="690.014"/>
<line fill="none" stroke="#000000" stroke-width="3" stroke-miterlimit="10" x1="3158.241" y1="345.523" x2="3158.241" y2="690.014"/>
<line fill="none" stroke="#000000" stroke-width="3" stroke-miterlimit="10" x1="1165.209" y1="384.602" x2="1783.686" y2="384.602"/>
<line fill="none" stroke="#000000" stroke-width="3" stroke-miterlimit="10" x1="2849.522" y1="652.523" x2="3467.52" y2="652.523"/>
<rect x="717.658" y="384.575" width="406.545" height="267.948"/>
<line fill="none" stroke="#000000" stroke-width="3" stroke-miterlimit="10" x1="694.345" y1="384.602" x2="1146.702" y2="384.602"/>
<line fill="none" stroke="#000000" stroke-width="3" stroke-miterlimit="10" x1="1146.702" y1="345.523" x2="1146.702" y2="690.014"/>
<line fill="none" stroke="#000000" stroke-width="3" stroke-miterlimit="10" x1="694.345" y1="652.523" x2="1146.702" y2="652.523"/>
<rect x="697.337" y="818.176" fill="#D1D3D4" stroke="#000000" stroke-width="2" stroke-miterlimit="10" width="2757.103" height="344.524"/>
<rect x="1483.249" y="857.26" width="268.007" height="268.006"/>
<rect x="1495.651" y="567.641" width="268.007" height="84.939"/>
<rect x="1495.651" y="384.575" width="268.007" height="176.003"/>
<rect x="2854.343" y="856.763" width="268.007" height="84.358"/>
<rect x="2854.343" y="948.296" width="268.007" height="84.358"/>
<rect x="2854.343" y="1039.829" width="268.007" height="84.358"/>
<rect x="3165.457" y="857.261" width="268.007" height="268.006"/>
<rect x="1172.135" y="856.763" width="268.007" height="267.922"/>
<line fill="none" stroke="#000000" stroke-width="3" stroke-miterlimit="10" x1="1150.924" y1="1125.209" x2="1769.401" y2="1125.209"/>
<line fill="none" stroke="#000000" stroke-width="3" stroke-miterlimit="10" x1="2835.237" y1="857.287" x2="3453.977" y2="857.287"/>
<line fill="none" stroke="#000000" stroke-width="3" stroke-miterlimit="10" x1="1150.924" y1="818.176" x2="1150.924" y2="1162.7"/>
<line fill="none" stroke="#000000" stroke-width="3" stroke-miterlimit="10" x1="1460.79" y1="818.176" x2="1460.79" y2="1162.7"/>
<line fill="none" stroke="#000000" stroke-width="3" stroke-miterlimit="10" x1="3143.956" y1="818.209" x2="3143.956" y2="1162.7"/>
<line fill="none" stroke="#000000" stroke-width="3" stroke-miterlimit="10" x1="1150.924" y1="857.287" x2="1769.401" y2="857.287"/>
<line fill="none" stroke="#000000" stroke-width="3" stroke-miterlimit="10" x1="2835.237" y1="1125.209" x2="3453.977" y2="1125.209"/>
<rect x="722.23" y="857.261" width="406.545" height="267.948"/>
<line fill="none" stroke="#000000" stroke-width="3" stroke-miterlimit="10" x1="697.813" y1="857.287" x2="1151.273" y2="857.287"/>
<line fill="none" stroke="#000000" stroke-width="3" stroke-miterlimit="10" x1="697.813" y1="1125.209" x2="1151.273" y2="1125.209"/>
<rect x="1783.686" y="336.523" fill="#D1D3D4" stroke="#000000" stroke-width="2" stroke-miterlimit="10" width="1065.836" height="365.633"/>
<rect x="1805.286" y="358.122" width="501.365" height="322.434"/>
<rect x="2326.558" y="358.122" width="501.365" height="322.434"/>
<rect x="1769.401" y="809.209" fill="#D1D3D4" stroke="#000000" stroke-width="2" stroke-miterlimit="10" width="1065.836" height="365.633"/>
<rect x="1791.001" y="830.808" width="501.365" height="322.434"/>
<rect x="2312.272" y="830.808" width="501.365" height="322.434"/>
<g>
	<path fill="#58595B" d="M733.333,790.31h10.559v2.494H730.52v-20.827h2.813V790.31z"/>
	<path fill="#58595B" d="M756.216,792.804V790.6l-0.058-0.059c-1.073,1.77-2.378,2.698-4.815,2.698
		c-2.234,0-4.931-1.073-4.931-4.699v-10.907h2.552v10.065c0,2.495,1.276,3.336,2.93,3.336c3.22,0,4.177-2.843,4.177-5.047v-8.354
		h2.553v15.171H756.216z"/>
	<path fill="#58595B" d="M774.805,792.804h-2.552v-9.34c0-2.64-0.754-3.975-3.249-3.975c-1.45,0-4.003,0.929-4.003,5.048v8.267
		h-2.553v-15.171h2.408v2.146h0.058c0.551-0.812,1.973-2.581,4.583-2.581c2.35,0,5.308,0.957,5.308,5.279V792.804z"/>
	<path fill="#58595B" d="M788.058,782.738c-0.319-2.03-1.45-3.249-3.597-3.249c-3.162,0-4.177,3.017-4.177,5.715
		c0,2.61,0.638,5.83,4.148,5.83c1.711,0,3.191-1.276,3.626-3.597h2.466c-0.261,2.407-1.741,5.802-6.179,5.802
		c-4.264,0-6.788-3.221-6.788-7.601c0-4.699,2.263-8.44,7.281-8.44c3.974,0,5.482,2.9,5.686,5.54H788.058z"/>
	<path fill="#58595B" d="M805.429,792.804h-2.552v-9.92c0-2.06-0.58-3.395-3.017-3.395c-2.088,0-4.235,1.219-4.235,5.048v8.267
		h-2.553v-20.827h2.553v7.687h0.058c0.725-0.957,2.001-2.465,4.438-2.465c2.35,0,5.308,0.957,5.308,5.279V792.804z"/>
	<path fill="#58595B" d="M808.761,793.354h-1.943l7.136-21.929h1.915L808.761,793.354z"/>
	<path fill="#58595B" d="M817.723,771.977h8.441c5.424,0,8.76,4.119,8.76,10.124c0,4.67-2.031,10.703-8.876,10.703h-8.325V771.977z
		 M820.536,790.396h5.454c3.655,0,6.033-2.872,6.033-8.122s-2.408-7.89-6.236-7.89h-5.25V790.396z"/>
	<path fill="#58595B" d="M838.254,774.877v-2.9h2.553v2.9H838.254z M840.807,792.804h-2.553v-15.171h2.553V792.804z"/>
	<path fill="#58595B" d="M856.99,792.804h-2.552v-9.34c0-2.64-0.754-3.975-3.249-3.975c-1.45,0-4.003,0.929-4.003,5.048v8.267
		h-2.553v-15.171h2.408v2.146h0.058c0.551-0.812,1.973-2.581,4.583-2.581c2.35,0,5.308,0.957,5.308,5.279V792.804z"/>
	<path fill="#58595B" d="M873.115,792.804h-2.552v-9.34c0-2.64-0.754-3.975-3.249-3.975c-1.45,0-4.003,0.929-4.003,5.048v8.267
		h-2.553v-15.171h2.408v2.146h0.058c0.551-0.812,1.973-2.581,4.583-2.581c2.35,0,5.308,0.957,5.308,5.279V792.804z"/>
	<path fill="#58595B" d="M889.761,788.047c-0.087,0.725-0.783,2.871-2.698,4.147c-0.696,0.464-1.683,1.045-4.119,1.045
		c-4.264,0-6.788-3.221-6.788-7.601c0-4.699,2.263-8.44,7.281-8.44c4.38,0,6.527,3.48,6.527,8.847h-11.081
		c0,3.162,1.479,4.989,4.409,4.989c2.408,0,3.829-1.856,3.916-2.987H889.761z M887.324,784.015c-0.145-2.35-1.131-4.525-4.235-4.525
		c-2.35,0-4.206,2.176-4.206,4.525H887.324z"/>
	<path fill="#58595B" d="M895.906,792.804h-2.553v-15.171h2.408v2.523h0.058c1.015-1.769,2.35-2.958,4.264-2.958
		c0.319,0,0.464,0.028,0.667,0.087v2.64h-0.958c-2.378,0-3.887,1.856-3.887,4.061V792.804z"/>
</g>
<g>
	<path fill="#58595B" d="M730.462,300.526h9.166c3.887,0,5.889,2.408,5.889,5.25c0,1.363-0.493,3.279-2.785,4.352
		c1.363,0.551,3.771,1.508,3.771,5.076c0,3.336-2.466,6.15-7.078,6.15h-8.963V300.526z M733.275,309.344h5.077
		c2.697,0,4.351-0.812,4.351-3.365c0-1.943-1.189-3.045-4.322-3.045h-5.105V309.344z M733.275,318.946h6.005
		c2.93,0,4.409-1.479,4.409-3.799c0-2.93-2.582-3.512-4.873-3.512h-5.541V318.946z"/>
	<path fill="#58595B" d="M752.444,321.354h-2.553v-15.172h2.408v2.523h0.058c1.015-1.768,2.35-2.957,4.264-2.957
		c0.319,0,0.464,0.027,0.667,0.086v2.641h-0.958c-2.378,0-3.887,1.855-3.887,4.061V321.354z"/>
	<path fill="#58595B" d="M772.079,316.596c-0.087,0.725-0.783,2.871-2.698,4.148c-0.696,0.463-1.683,1.045-4.119,1.045
		c-4.264,0-6.788-3.221-6.788-7.602c0-4.699,2.263-8.439,7.281-8.439c4.38,0,6.527,3.48,6.527,8.846h-11.081
		c0,3.162,1.479,4.99,4.409,4.99c2.408,0,3.829-1.857,3.916-2.988H772.079z M769.643,312.565c-0.145-2.35-1.131-4.525-4.235-4.525
		c-2.35,0-4.206,2.176-4.206,4.525H769.643z"/>
	<path fill="#58595B" d="M775.237,310.795c0.116-3.627,2.524-5.047,6.266-5.047c1.218,0,5.627,0.348,5.627,4.234v8.73
		c0,0.639,0.319,0.9,0.841,0.9c0.232,0,0.551-0.059,0.841-0.117v1.857c-0.435,0.115-0.812,0.289-1.392,0.289
		c-2.263,0-2.611-1.16-2.698-2.32c-0.986,1.074-2.523,2.467-5.482,2.467c-2.785,0-4.757-1.77-4.757-4.381
		c0-1.277,0.377-4.234,4.612-4.758l4.206-0.521c0.609-0.059,1.334-0.291,1.334-1.799c0-1.596-1.16-2.465-3.568-2.465
		c-2.901,0-3.307,1.77-3.481,2.93H775.237z M784.577,313.608c-0.406,0.32-1.044,0.553-4.206,0.957
		c-1.247,0.176-3.249,0.553-3.249,2.467c0,1.652,0.841,2.639,2.755,2.639c2.379,0,4.699-1.537,4.699-3.566V313.608z"/>
	<path fill="#58595B" d="M804.095,321.354h-3.278l-4.729-7.658l-2.117,1.914v5.744h-2.466v-20.828h2.466v12.068l6.526-6.412h3.249
		l-5.802,5.656L804.095,321.354z"/>
	<path fill="#58595B" d="M809.11,308.301v13.053h-2.553v-13.053h-2.088v-2.119h2.088v-2.609c0-2.293,1.45-3.336,3.945-3.336
		c0.377,0,0.754,0.029,1.16,0.059v2.291c-0.319-0.029-0.725-0.059-1.044-0.059c-1.103,0-1.508,0.551-1.508,1.77v1.885h2.552v2.119
		H809.11z"/>
	<path fill="#58595B" d="M813.059,310.795c0.116-3.627,2.524-5.047,6.266-5.047c1.218,0,5.627,0.348,5.627,4.234v8.73
		c0,0.639,0.319,0.9,0.841,0.9c0.232,0,0.551-0.059,0.841-0.117v1.857c-0.435,0.115-0.812,0.289-1.392,0.289
		c-2.263,0-2.611-1.16-2.698-2.32c-0.986,1.074-2.523,2.467-5.482,2.467c-2.785,0-4.757-1.77-4.757-4.381
		c0-1.277,0.377-4.234,4.612-4.758l4.206-0.521c0.609-0.059,1.334-0.291,1.334-1.799c0-1.596-1.16-2.465-3.568-2.465
		c-2.901,0-3.307,1.77-3.481,2.93H813.059z M822.4,313.608c-0.406,0.32-1.044,0.553-4.206,0.957
		c-1.247,0.176-3.249,0.553-3.249,2.467c0,1.652,0.841,2.639,2.755,2.639c2.379,0,4.699-1.537,4.699-3.566V313.608z"/>
	<path fill="#58595B" d="M837.885,310.504c-0.029-0.957-0.377-2.553-3.597-2.553c-0.783,0-3.017,0.262-3.017,2.146
		c0,1.248,0.783,1.537,2.756,2.031l2.553,0.639c3.162,0.783,4.264,1.943,4.264,4.002c0,3.133-2.582,5.02-6.004,5.02
		c-6.004,0-6.439-3.482-6.526-5.309h2.466c0.087,1.189,0.435,3.104,4.032,3.104c1.828,0,3.481-0.725,3.481-2.408
		c0-1.219-0.841-1.625-3.017-2.176l-2.958-0.725c-2.118-0.521-3.51-1.596-3.51-3.684c0-3.336,2.755-4.844,5.743-4.844
		c5.424,0,5.802,4.002,5.802,4.756H837.885z"/>
	<path fill="#58595B" d="M846.903,308.301v9.861c0,1.189,1.015,1.189,1.538,1.189h0.899v2.002c-0.928,0.086-1.653,0.203-1.914,0.203
		c-2.524,0-3.075-1.422-3.075-3.25v-10.006h-2.06v-2.119h2.06v-4.234h2.552v4.234h2.437v2.119H846.903z"/>
</g>
<g>
	<path fill="#58595B" d="M269.783,1074.272v-12.299c0-0.609,0.058-3.249,0.058-5.192h-0.058l-5.859,17.491h-2.785l-5.859-17.462
		h-0.058c0,1.914,0.058,4.554,0.058,5.163v12.299h-2.727v-20.827h4.032l5.946,17.607h0.058l5.917-17.607h4.003v20.827H269.783z"/>
	<path fill="#58595B" d="M285.963,1064.207c-0.319-2.03-1.45-3.249-3.597-3.249c-3.162,0-4.177,3.017-4.177,5.715
		c0,2.61,0.638,5.83,4.148,5.83c1.711,0,3.191-1.276,3.626-3.597h2.466c-0.261,2.407-1.741,5.802-6.179,5.802
		c-4.264,0-6.788-3.221-6.788-7.601c0-4.699,2.263-8.44,7.281-8.44c3.974,0,5.482,2.9,5.686,5.54H285.963z"/>
	<path fill="#58595B" d="M305.916,1059.711c-0.783-3.655-3.829-4.322-5.831-4.322c-3.771,0-6.817,2.785-6.817,8.268
		c0,4.901,1.741,8.673,6.904,8.673c1.828,0,4.989-0.87,5.946-5.715h2.727c-1.161,7.861-7.542,8.209-9.108,8.209
		c-4.728,0-9.369-3.074-9.369-11.08c0-6.411,3.655-10.849,9.717-10.849c5.366,0,8.151,3.336,8.557,6.816H305.916z"/>
	<path fill="#58595B" d="M311.828,1063.714c0.116-3.626,2.524-5.047,6.266-5.047c1.218,0,5.627,0.348,5.627,4.234v8.731
		c0,0.638,0.319,0.899,0.841,0.899c0.232,0,0.551-0.059,0.841-0.116v1.856c-0.435,0.116-0.812,0.29-1.392,0.29
		c-2.263,0-2.611-1.16-2.698-2.32c-0.986,1.073-2.523,2.466-5.482,2.466c-2.785,0-4.757-1.77-4.757-4.381
		c0-1.276,0.377-4.234,4.612-4.757l4.206-0.522c0.609-0.058,1.334-0.29,1.334-1.798c0-1.596-1.16-2.466-3.568-2.466
		c-2.901,0-3.307,1.77-3.481,2.93H311.828z M321.168,1066.527c-0.406,0.319-1.044,0.552-4.206,0.957
		c-1.247,0.175-3.249,0.552-3.249,2.466c0,1.653,0.841,2.64,2.755,2.64c2.379,0,4.699-1.537,4.699-3.567V1066.527z"/>
	<path fill="#58595B" d="M331.201,1061.22v13.053h-2.553v-13.053h-2.088v-2.118h2.088v-2.61c0-2.292,1.45-3.336,3.945-3.336
		c0.377,0,0.754,0.029,1.16,0.059v2.291c-0.319-0.029-0.725-0.058-1.044-0.058c-1.103,0-1.508,0.551-1.508,1.77v1.885h2.552v2.118
		H331.201z"/>
	<path fill="#58595B" d="M348.117,1069.516c-0.087,0.725-0.783,2.871-2.698,4.147c-0.696,0.464-1.683,1.045-4.119,1.045
		c-4.264,0-6.788-3.221-6.788-7.601c0-4.699,2.263-8.44,7.281-8.44c4.38,0,6.527,3.48,6.527,8.847h-11.081
		c0,3.162,1.479,4.989,4.409,4.989c2.408,0,3.829-1.856,3.916-2.987H348.117z M345.68,1065.483c-0.145-2.35-1.131-4.525-4.235-4.525
		c-2.35,0-4.206,2.176-4.206,4.525H345.68z"/>
	<path fill="#58595B" d="M359.888,1053.445h8.441c5.424,0,8.76,4.119,8.76,10.124c0,4.67-2.031,10.703-8.876,10.703h-8.325V1053.445
		z M362.701,1071.865h5.454c3.655,0,6.033-2.872,6.033-8.122s-2.408-7.89-6.236-7.89h-5.25V1071.865z"/>
	<path fill="#58595B" d="M397.823,1074.272v-12.299c0-0.609,0.058-3.249,0.058-5.192h-0.058l-5.859,17.491h-2.785l-5.859-17.462
		h-0.058c0,1.914,0.058,4.554,0.058,5.163v12.299h-2.727v-20.827h4.032l5.946,17.607h0.058l5.917-17.607h4.003v20.827H397.823z"/>
	<path fill="#58595B" d="M404.779,1053.445h9.166c3.887,0,5.889,2.408,5.889,5.25c0,1.363-0.493,3.278-2.785,4.352
		c1.363,0.551,3.771,1.508,3.771,5.076c0,3.336-2.466,6.149-7.078,6.149h-8.963V1053.445z M407.592,1062.264h5.077
		c2.697,0,4.351-0.812,4.351-3.365c0-1.943-1.189-3.045-4.322-3.045h-5.105V1062.264z M407.592,1071.865h6.005
		c2.93,0,4.409-1.479,4.409-3.8c0-2.93-2.582-3.511-4.873-3.511h-5.541V1071.865z"/>
	<path fill="#58595B" d="M435.055,1071.778h10.559v2.494h-13.372v-20.827h2.813V1071.778z"/>
	<path fill="#58595B" d="M454.225,1058.667c4.844,0,7.049,4.09,7.049,8.006s-2.205,8.006-7.049,8.006s-7.049-4.09-7.049-8.006
		S449.381,1058.667,454.225,1058.667z M454.225,1072.474c3.655,0,4.409-3.771,4.409-5.801s-0.754-5.802-4.409-5.802
		s-4.409,3.771-4.409,5.802S450.57,1072.474,454.225,1072.474z"/>
	<path fill="#58595B" d="M470.349,1058.667c4.844,0,7.049,4.09,7.049,8.006s-2.205,8.006-7.049,8.006s-7.049-4.09-7.049-8.006
		S465.505,1058.667,470.349,1058.667z M470.349,1072.474c3.655,0,4.409-3.771,4.409-5.801s-0.754-5.802-4.409-5.802
		s-4.409,3.771-4.409,5.802S466.694,1072.474,470.349,1072.474z"/>
	<path fill="#58595B" d="M480.092,1059.102h2.407v2.146h0.058c0.609-0.87,1.77-2.581,4.525-2.581c4.032,0,6.324,3.307,6.324,7.57
		c0,3.626-1.508,8.471-6.671,8.471c-2.031,0-3.365-0.958-4.032-2.031h-0.058v7.601h-2.552V1059.102z M486.676,1072.503
		c2.785,0,4.09-2.523,4.09-5.859c0-1.943-0.203-5.686-4.148-5.686c-3.684,0-4.09,3.975-4.09,6.439
		C482.528,1071.43,485.052,1072.503,486.676,1072.503z"/>
</g>
<rect x="1049.979" y="2306.216" fill="#F2F1EA" stroke="#999999" stroke-linecap="round" stroke-linejoin="round" width="1831.205" height="27.843"/>
<rect x="525.606" y="2336.129" fill="#F2F1EA" stroke="#999999" stroke-linecap="round" stroke-linejoin="round" width="528.743" height="64.049"/>
<polygon fill="#F2F1EA" stroke="#999999" stroke-linecap="round" stroke-linejoin="round" points="1053.988,2335.935 
	1139.259,2272.661 1138.908,2334.609 1054.513,2400.502 "/>
<rect x="1049.979" y="2274.085" fill="#C4C4C0" stroke="#999999" stroke-linecap="round" stroke-linejoin="round" width="1831.205" height="33.975"/>
<rect x="525.606" y="2310.129" fill="#C4C4C0" stroke="#999999" stroke-linecap="round" stroke-linejoin="round" width="528.743" height="64.049"/>
<polygon fill="#C4C4C0" stroke="#999999" stroke-linecap="round" stroke-linejoin="round" points="1053.988,2309.935 
	1139.259,2246.661 1138.908,2308.609 1054.513,2374.502 "/>
<rect x="1134.312" y="2051.938" fill="#D6C3AA" width="1760.314" height="224.21"/>
<polygon fill="#AEA08C" points="2894.625,2051.938 962.214,2051.938 962.214,2073.594 2894.625,2073.342 "/>
<polygon fill="#EFEFF0" points="1094.346,1941.686 1097.507,1978.481 2852.281,1978.481 2849.12,1941.686 "/>
<path fill="#EFEFF0" d="M1125.666,1926.054c0,6.163-4.997,11.157-11.167,11.157l0,0c-6.17,0-11.165-4.993-11.165-11.157v-32.572
	c0-6.161,4.995-11.164,11.165-11.164l0,0c6.17,0,11.167,5.004,11.167,11.164V1926.054z"/>
<polygon fill="#D6C3AA" points="2913.632,1985.651 943.201,1987.841 1015.753,1970.301 2858.652,1970.301 "/>
<polygon fill="#F2F1EA" stroke="#989898" stroke-width="0.4584" points="2913.632,1985.651 942.968,1985.876 942.968,2051.938 
	2913.632,2051.938 "/>
<polygon fill="#BCAC97" points="1139.481,2275.522 1062.184,2336.701 1061.888,2036.845 1139.167,2008.904 "/>
<polygon fill="#9A8E7D" points="1139.481,2073.566 1062.362,2098.297 1062.362,2073.566 1139.167,2053.525 "/>
<rect x="512.227" y="2073.895" fill="#D6C3AA" width="550.135" height="263.376"/>
<polygon fill="#D6C3AA" points="1209.266,1972.081 630.078,1973.923 503.246,1999.101 1082.212,1999.341 "/>
<g>
	<polygon fill="#B3B3B3" points="958.782,1741.309 942.082,1738.517 942.082,1824.053 959.143,1824.053 	"/>
	<rect x="642.087" y="1738.517" fill="#C2C2C2" width="299.996" height="72.895"/>
</g>
<g>
	<polygon fill="#502B1B" points="710.879,1658.017 732.672,1736.968 769.637,1736.968 791.117,1657.641 	"/>
	<rect x="710.282" y="1648.981" fill="#999999" width="82.921" height="6.265"/>
	
		<linearGradient id="SVGID_2_" gradientUnits="userSpaceOnUse" x1="759.4862" y1="1841.7856" x2="789.1136" y2="1841.7856" gradientTransform="matrix(1 0.002 -0.0019 0.941 -1.1583 -37.2092)">
		<stop  offset="0" style="stop-color:#FFFFFF"/>
		<stop  offset="0.122" style="stop-color:#EFECEA"/>
		<stop  offset="0.3736" style="stop-color:#C6BAB5"/>
		<stop  offset="0.7293" style="stop-color:#856B60"/>
		<stop  offset="1" style="stop-color:#502B1B"/>
	</linearGradient>
	<polygon opacity="0.54" fill="url(#SVGID_2_)" points="754.753,1734.761 766.686,1734.782 784.531,1660.159 772.596,1660.136 	"/>
	
		<linearGradient id="SVGID_3_" gradientUnits="userSpaceOnUse" x1="755.8454" y1="1841.804" x2="775.0537" y2="1841.804" gradientTransform="matrix(1 0.002 -0.0019 0.941 -1.1583 -37.2092)">
		<stop  offset="0" style="stop-color:#FFFFFF"/>
		<stop  offset="0.122" style="stop-color:#EFECEA"/>
		<stop  offset="0.3736" style="stop-color:#C6BAB5"/>
		<stop  offset="0.7293" style="stop-color:#856B60"/>
		<stop  offset="1" style="stop-color:#502B1B"/>
	</linearGradient>
	<polygon opacity="0.54" fill="url(#SVGID_3_)" points="751.112,1734.761 752.628,1734.782 770.471,1660.159 768.954,1660.136 	"/>
	<rect x="772.389" y="1648.981" opacity="0.6" fill="#FFFFFF" width="12.785" height="6.387"/>
	<rect x="769.787" y="1648.981" opacity="0.6" fill="#FFFFFF" width="1.326" height="6.387"/>
</g>
<g>
	<polygon fill="#502B1B" points="832.705,1658.017 854.5,1736.968 891.461,1736.968 912.946,1657.641 	"/>
	<rect x="832.105" y="1648.981" fill="#999999" width="82.93" height="6.265"/>
	
		<linearGradient id="SVGID_4_" gradientUnits="userSpaceOnUse" x1="881.3121" y1="1841.5267" x2="910.9353" y2="1841.5267" gradientTransform="matrix(1 0.002 -0.0019 0.941 -1.1583 -37.2092)">
		<stop  offset="0" style="stop-color:#FFFFFF"/>
		<stop  offset="0.122" style="stop-color:#EFECEA"/>
		<stop  offset="0.3736" style="stop-color:#C6BAB5"/>
		<stop  offset="0.7293" style="stop-color:#856B60"/>
		<stop  offset="1" style="stop-color:#502B1B"/>
	</linearGradient>
	<polygon opacity="0.54" fill="url(#SVGID_4_)" points="876.58,1734.761 888.51,1734.782 906.354,1660.159 894.422,1660.136 	"/>
	
		<linearGradient id="SVGID_5_" gradientUnits="userSpaceOnUse" x1="877.6714" y1="1841.545" x2="896.8792" y2="1841.545" gradientTransform="matrix(1 0.002 -0.0019 0.941 -1.1583 -37.2092)">
		<stop  offset="0" style="stop-color:#FFFFFF"/>
		<stop  offset="0.122" style="stop-color:#EFECEA"/>
		<stop  offset="0.3736" style="stop-color:#C6BAB5"/>
		<stop  offset="0.7293" style="stop-color:#856B60"/>
		<stop  offset="1" style="stop-color:#502B1B"/>
	</linearGradient>
	<polygon opacity="0.54" fill="url(#SVGID_5_)" points="872.939,1734.761 874.455,1734.782 892.297,1660.159 890.777,1660.136 	"/>
	<rect x="894.216" y="1648.981" opacity="0.6" fill="#FFFFFF" width="12.78" height="6.387"/>
	<rect x="891.615" y="1648.981" opacity="0.6" fill="#FFFFFF" width="1.327" height="6.387"/>
</g>
<polygon fill="#F2F1EA" stroke="#989898" stroke-width="0.387" stroke-linecap="round" stroke-linejoin="round" points="
	1134.312,1794.497 1073.199,1757.992 1073.199,1989.361 1134.312,1978.363 "/>
<rect x="590.041" y="1757.992" fill="#F2F1EA" stroke="#989898" stroke-width="0.4346" stroke-linecap="round" stroke-linejoin="round" width="483.158" height="231.37"/>
<polygon fill="#F2F1EA" stroke="#989898" stroke-width="0.4366" points="503.246,1999.101 1081.779,1999.341 1081.779,2073.895 
	503.484,2073.895 "/>
<polygon fill="#F2F1EA" stroke="#989898" stroke-width="0.356" points="1081.779,1999.394 1145.181,1986.137 1145.181,2051.938 
	1081.779,2074.043 "/>
<rect x="512.27" y="2073.895" fill="#AEA08C" width="550.092" height="24.402"/>
<polygon fill="#97999C" points="1986.335,1829.828 1819.048,1829.828 1825.534,1958.471 1979.86,1958.471 "/>
<polygon fill="#B3B3B3" points="1986.335,1829.867 1819.048,1829.867 1825.534,1824.491 1979.86,1824.491 "/>
<polygon fill="#B3B3B3" points="1971.493,1974.708 1963.955,1981.531 1840.472,1981.531 1833.899,1974.708 1838.841,1853.529 
	1966.246,1853.529 "/>
<polygon fill="#97999C" points="1964.842,1981.026 1840.545,1981.026 1840.467,1853.529 1964.916,1853.529 "/>
<polygon fill="#B3B3B3" points="1964.768,1856.095 1840.545,1856.095 1838.804,1853.543 1966.217,1853.543 "/>
<g>
	<g>
		<polygon fill="#97999C" points="2067.438,1973.958 1995.341,1973.958 1998.963,1833.451 2063.815,1833.451 		"/>
	</g>
	<rect x="1999.657" y="1790.682" fill="#B3B3B3" width="64.102" height="42.887"/>
</g>
<polygon fill="#97999C" points="2328.789,1829.828 2161.501,1829.828 2167.988,1958.471 2322.314,1958.471 "/>
<polygon fill="#B3B3B3" points="2328.789,1829.867 2161.501,1829.867 2167.988,1824.491 2322.314,1824.491 "/>
<polygon fill="#B3B3B3" points="2313.947,1974.708 2306.409,1981.531 2182.925,1981.531 2176.352,1974.708 2181.295,1853.529 
	2308.699,1853.529 "/>
<polygon fill="#97999C" points="2307.296,1981.026 2182.999,1981.026 2182.921,1853.529 2307.37,1853.529 "/>
<polygon fill="#B3B3B3" points="2307.221,1856.095 2182.999,1856.095 2181.257,1853.543 2308.671,1853.543 "/>
<g>
	<g>
		<polygon fill="#97999C" points="2409.892,1973.958 2337.794,1973.958 2341.417,1833.451 2406.269,1833.451 		"/>
	</g>
	<rect x="2342.111" y="1790.682" fill="#B3B3B3" width="64.102" height="42.887"/>
</g>
<polygon fill="#97999C" points="2671.242,1829.828 2503.955,1829.828 2510.441,1958.471 2664.767,1958.471 "/>
<polygon fill="#B3B3B3" points="2671.242,1829.867 2503.955,1829.867 2510.441,1824.491 2664.767,1824.491 "/>
<polygon fill="#B3B3B3" points="2656.4,1974.708 2648.863,1981.531 2525.379,1981.531 2518.806,1974.708 2523.748,1853.529 
	2651.153,1853.529 "/>
<polygon fill="#97999C" points="2649.75,1981.026 2525.452,1981.026 2525.374,1853.529 2649.823,1853.529 "/>
<polygon fill="#B3B3B3" points="2649.675,1856.095 2525.452,1856.095 2523.711,1853.543 2651.125,1853.543 "/>
<g>
	<g>
		<polygon fill="#97999C" points="2752.345,1973.958 2680.248,1973.958 2683.87,1833.451 2748.722,1833.451 		"/>
	</g>
	<rect x="2684.564" y="1790.682" fill="#B3B3B3" width="64.102" height="42.887"/>
</g>
<rect x="1426.049" y="2083.318" fill="#FFFFFF" stroke="#060303" stroke-miterlimit="10" width="174.009" height="212.251"/>
<g>
	<linearGradient id="SVGID_6_" gradientUnits="userSpaceOnUse" x1="2031.3898" y1="1868.7063" x2="2031.3898" y2="1994.6334">
		<stop  offset="0" style="stop-color:#D9D9D9"/>
		<stop  offset="1" style="stop-color:#C4C4C4"/>
	</linearGradient>
	<path fill="url(#SVGID_6_)" d="M2055.502,1965.578c0,0.387-0.316,0.703-0.703,0.703h-46.819c-0.387,0-0.703-0.317-0.703-0.703
		v-26.057c0-0.387,0.317-0.703,0.703-0.703h46.819c0.387,0,0.703,0.317,0.703,0.703V1965.578z"/>
	<path fill="none" stroke="#989898" stroke-width="0.3794" stroke-linecap="round" stroke-linejoin="round" d="M2055.502,1965.578
		c0,0.387-0.316,0.703-0.703,0.703h-46.819c-0.387,0-0.703-0.317-0.703-0.703v-26.057c0-0.387,0.317-0.703,0.703-0.703h46.819
		c0.387,0,0.703,0.317,0.703,0.703V1965.578z"/>
</g>
<g>
	<linearGradient id="SVGID_7_" gradientUnits="userSpaceOnUse" x1="2031.3898" y1="1868.7111" x2="2031.3898" y2="1994.6343">
		<stop  offset="0" style="stop-color:#D9D9D9"/>
		<stop  offset="1" style="stop-color:#C4C4C4"/>
	</linearGradient>
	<path fill="url(#SVGID_7_)" d="M2055.502,1932.618c0,0.387-0.316,0.703-0.703,0.703h-46.819c-0.387,0-0.703-0.317-0.703-0.703
		v-26.056c0-0.387,0.317-0.703,0.703-0.703h46.819c0.387,0,0.703,0.317,0.703,0.703V1932.618z"/>
	<path fill="none" stroke="#989898" stroke-width="0.3794" stroke-linecap="round" stroke-linejoin="round" d="M2055.502,1932.618
		c0,0.387-0.316,0.703-0.703,0.703h-46.819c-0.387,0-0.703-0.317-0.703-0.703v-26.056c0-0.387,0.317-0.703,0.703-0.703h46.819
		c0.387,0,0.703,0.317,0.703,0.703V1932.618z"/>
</g>
<g>
	<linearGradient id="SVGID_8_" gradientUnits="userSpaceOnUse" x1="2031.3898" y1="1868.7101" x2="2031.3898" y2="1994.6245">
		<stop  offset="0" style="stop-color:#D9D9D9"/>
		<stop  offset="1" style="stop-color:#C4C4C4"/>
	</linearGradient>
	<path fill="url(#SVGID_8_)" d="M2055.502,1900.089c0,0.387-0.316,0.703-0.703,0.703h-46.819c-0.387,0-0.703-0.317-0.703-0.703
		v-26.055c0-0.387,0.317-0.703,0.703-0.703h46.819c0.387,0,0.703,0.317,0.703,0.703V1900.089z"/>
	<path fill="none" stroke="#989898" stroke-width="0.3794" stroke-linecap="round" stroke-linejoin="round" d="M2055.502,1900.089
		c0,0.387-0.316,0.703-0.703,0.703h-46.819c-0.387,0-0.703-0.317-0.703-0.703v-26.055c0-0.387,0.317-0.703,0.703-0.703h46.819
		c0.387,0,0.703,0.317,0.703,0.703V1900.089z"/>
</g>
<g>
	<linearGradient id="SVGID_9_" gradientUnits="userSpaceOnUse" x1="2031.3898" y1="1868.7089" x2="2031.3898" y2="1994.6316">
		<stop  offset="0" style="stop-color:#D9D9D9"/>
		<stop  offset="1" style="stop-color:#C4C4C4"/>
	</linearGradient>
	<path fill="url(#SVGID_9_)" d="M2055.502,1867.496c0,0.387-0.316,0.703-0.703,0.703h-46.819c-0.387,0-0.703-0.317-0.703-0.703
		v-26.056c0-0.387,0.317-0.703,0.703-0.703h46.819c0.387,0,0.703,0.317,0.703,0.703V1867.496z"/>
	<path fill="none" stroke="#989898" stroke-width="0.3794" stroke-linecap="round" stroke-linejoin="round" d="M2055.502,1867.496
		c0,0.387-0.316,0.703-0.703,0.703h-46.819c-0.387,0-0.703-0.317-0.703-0.703v-26.056c0-0.387,0.317-0.703,0.703-0.703h46.819
		c0.387,0,0.703,0.317,0.703,0.703V1867.496z"/>
</g>
<g>
	<linearGradient id="SVGID_10_" gradientUnits="userSpaceOnUse" x1="2373.8433" y1="1868.7063" x2="2373.8433" y2="1994.6334">
		<stop  offset="0" style="stop-color:#D9D9D9"/>
		<stop  offset="1" style="stop-color:#C4C4C4"/>
	</linearGradient>
	<path fill="url(#SVGID_10_)" d="M2397.956,1965.578c0,0.387-0.316,0.703-0.703,0.703h-46.819c-0.387,0-0.703-0.317-0.703-0.703
		v-26.057c0-0.387,0.317-0.703,0.703-0.703h46.819c0.387,0,0.703,0.317,0.703,0.703V1965.578z"/>
	<path fill="none" stroke="#989898" stroke-width="0.3794" stroke-linecap="round" stroke-linejoin="round" d="M2397.956,1965.578
		c0,0.387-0.316,0.703-0.703,0.703h-46.819c-0.387,0-0.703-0.317-0.703-0.703v-26.057c0-0.387,0.317-0.703,0.703-0.703h46.819
		c0.387,0,0.703,0.317,0.703,0.703V1965.578z"/>
</g>
<g>
	<linearGradient id="SVGID_11_" gradientUnits="userSpaceOnUse" x1="2373.8433" y1="1868.7111" x2="2373.8433" y2="1994.6343">
		<stop  offset="0" style="stop-color:#D9D9D9"/>
		<stop  offset="1" style="stop-color:#C4C4C4"/>
	</linearGradient>
	<path fill="url(#SVGID_11_)" d="M2397.956,1932.618c0,0.387-0.316,0.703-0.703,0.703h-46.819c-0.387,0-0.703-0.317-0.703-0.703
		v-26.056c0-0.387,0.317-0.703,0.703-0.703h46.819c0.387,0,0.703,0.317,0.703,0.703V1932.618z"/>
	<path fill="none" stroke="#989898" stroke-width="0.3794" stroke-linecap="round" stroke-linejoin="round" d="M2397.956,1932.618
		c0,0.387-0.316,0.703-0.703,0.703h-46.819c-0.387,0-0.703-0.317-0.703-0.703v-26.056c0-0.387,0.317-0.703,0.703-0.703h46.819
		c0.387,0,0.703,0.317,0.703,0.703V1932.618z"/>
</g>
<g>
	<linearGradient id="SVGID_12_" gradientUnits="userSpaceOnUse" x1="2373.8433" y1="1868.7101" x2="2373.8433" y2="1994.6245">
		<stop  offset="0" style="stop-color:#D9D9D9"/>
		<stop  offset="1" style="stop-color:#C4C4C4"/>
	</linearGradient>
	<path fill="url(#SVGID_12_)" d="M2397.956,1900.089c0,0.387-0.316,0.703-0.703,0.703h-46.819c-0.387,0-0.703-0.317-0.703-0.703
		v-26.055c0-0.387,0.317-0.703,0.703-0.703h46.819c0.387,0,0.703,0.317,0.703,0.703V1900.089z"/>
	<path fill="none" stroke="#989898" stroke-width="0.3794" stroke-linecap="round" stroke-linejoin="round" d="M2397.956,1900.089
		c0,0.387-0.316,0.703-0.703,0.703h-46.819c-0.387,0-0.703-0.317-0.703-0.703v-26.055c0-0.387,0.317-0.703,0.703-0.703h46.819
		c0.387,0,0.703,0.317,0.703,0.703V1900.089z"/>
</g>
<g>
	<linearGradient id="SVGID_13_" gradientUnits="userSpaceOnUse" x1="2373.8433" y1="1868.7089" x2="2373.8433" y2="1994.6316">
		<stop  offset="0" style="stop-color:#D9D9D9"/>
		<stop  offset="1" style="stop-color:#C4C4C4"/>
	</linearGradient>
	<path fill="url(#SVGID_13_)" d="M2397.956,1867.496c0,0.387-0.316,0.703-0.703,0.703h-46.819c-0.387,0-0.703-0.317-0.703-0.703
		v-26.056c0-0.387,0.317-0.703,0.703-0.703h46.819c0.387,0,0.703,0.317,0.703,0.703V1867.496z"/>
	<path fill="none" stroke="#989898" stroke-width="0.3794" stroke-linecap="round" stroke-linejoin="round" d="M2397.956,1867.496
		c0,0.387-0.316,0.703-0.703,0.703h-46.819c-0.387,0-0.703-0.317-0.703-0.703v-26.056c0-0.387,0.317-0.703,0.703-0.703h46.819
		c0.387,0,0.703,0.317,0.703,0.703V1867.496z"/>
</g>
<g>
	<linearGradient id="SVGID_14_" gradientUnits="userSpaceOnUse" x1="2716.2969" y1="1868.7063" x2="2716.2969" y2="1994.6334">
		<stop  offset="0" style="stop-color:#D9D9D9"/>
		<stop  offset="1" style="stop-color:#C4C4C4"/>
	</linearGradient>
	<path fill="url(#SVGID_14_)" d="M2740.41,1965.578c0,0.387-0.316,0.703-0.703,0.703h-46.819c-0.387,0-0.703-0.317-0.703-0.703
		v-26.057c0-0.387,0.317-0.703,0.703-0.703h46.819c0.387,0,0.703,0.317,0.703,0.703V1965.578z"/>
	<path fill="none" stroke="#989898" stroke-width="0.3794" stroke-linecap="round" stroke-linejoin="round" d="M2740.41,1965.578
		c0,0.387-0.316,0.703-0.703,0.703h-46.819c-0.387,0-0.703-0.317-0.703-0.703v-26.057c0-0.387,0.317-0.703,0.703-0.703h46.819
		c0.387,0,0.703,0.317,0.703,0.703V1965.578z"/>
</g>
<g>
	<linearGradient id="SVGID_15_" gradientUnits="userSpaceOnUse" x1="2716.2969" y1="1868.7111" x2="2716.2969" y2="1994.6343">
		<stop  offset="0" style="stop-color:#D9D9D9"/>
		<stop  offset="1" style="stop-color:#C4C4C4"/>
	</linearGradient>
	<path fill="url(#SVGID_15_)" d="M2740.41,1932.618c0,0.387-0.316,0.703-0.703,0.703h-46.819c-0.387,0-0.703-0.317-0.703-0.703
		v-26.056c0-0.387,0.317-0.703,0.703-0.703h46.819c0.387,0,0.703,0.317,0.703,0.703V1932.618z"/>
	<path fill="none" stroke="#989898" stroke-width="0.3794" stroke-linecap="round" stroke-linejoin="round" d="M2740.41,1932.618
		c0,0.387-0.316,0.703-0.703,0.703h-46.819c-0.387,0-0.703-0.317-0.703-0.703v-26.056c0-0.387,0.317-0.703,0.703-0.703h46.819
		c0.387,0,0.703,0.317,0.703,0.703V1932.618z"/>
</g>
<g>
	<linearGradient id="SVGID_16_" gradientUnits="userSpaceOnUse" x1="2716.2969" y1="1868.7101" x2="2716.2969" y2="1994.6245">
		<stop  offset="0" style="stop-color:#D9D9D9"/>
		<stop  offset="1" style="stop-color:#C4C4C4"/>
	</linearGradient>
	<path fill="url(#SVGID_16_)" d="M2740.41,1900.089c0,0.387-0.316,0.703-0.703,0.703h-46.819c-0.387,0-0.703-0.317-0.703-0.703
		v-26.055c0-0.387,0.317-0.703,0.703-0.703h46.819c0.387,0,0.703,0.317,0.703,0.703V1900.089z"/>
	<path fill="none" stroke="#989898" stroke-width="0.3794" stroke-linecap="round" stroke-linejoin="round" d="M2740.41,1900.089
		c0,0.387-0.316,0.703-0.703,0.703h-46.819c-0.387,0-0.703-0.317-0.703-0.703v-26.055c0-0.387,0.317-0.703,0.703-0.703h46.819
		c0.387,0,0.703,0.317,0.703,0.703V1900.089z"/>
</g>
<g>
	<linearGradient id="SVGID_17_" gradientUnits="userSpaceOnUse" x1="2716.2969" y1="1868.7089" x2="2716.2969" y2="1994.6316">
		<stop  offset="0" style="stop-color:#D9D9D9"/>
		<stop  offset="1" style="stop-color:#C4C4C4"/>
	</linearGradient>
	<path fill="url(#SVGID_17_)" d="M2740.41,1867.496c0,0.387-0.316,0.703-0.703,0.703h-46.819c-0.387,0-0.703-0.317-0.703-0.703
		v-26.056c0-0.387,0.317-0.703,0.703-0.703h46.819c0.387,0,0.703,0.317,0.703,0.703V1867.496z"/>
	<path fill="none" stroke="#989898" stroke-width="0.3794" stroke-linecap="round" stroke-linejoin="round" d="M2740.41,1867.496
		c0,0.387-0.316,0.703-0.703,0.703h-46.819c-0.387,0-0.703-0.317-0.703-0.703v-26.056c0-0.387,0.317-0.703,0.703-0.703h46.819
		c0.387,0,0.703,0.317,0.703,0.703V1867.496z"/>
</g>
<g>
	<path fill="#58595B" d="M436.588,1506.563c-0.783-3.655-3.829-4.322-5.831-4.322c-3.771,0-6.817,2.785-6.817,8.268
		c0,4.901,1.741,8.673,6.904,8.673c1.828,0,4.989-0.87,5.946-5.715h2.727c-1.161,7.861-7.542,8.209-9.108,8.209
		c-4.728,0-9.369-3.074-9.369-11.08c0-6.411,3.655-10.849,9.717-10.849c5.366,0,8.151,3.336,8.557,6.816H436.588z"/>
	<path fill="#58595B" d="M445.487,1521.124h-2.553v-15.171h2.408v2.523h0.058c1.015-1.769,2.35-2.958,4.264-2.958
		c0.319,0,0.464,0.028,0.667,0.087v2.64h-0.958c-2.378,0-3.887,1.856-3.887,4.061V1521.124z"/>
	<path fill="#58595B" d="M465.123,1516.367c-0.087,0.725-0.783,2.871-2.698,4.147c-0.696,0.464-1.683,1.045-4.119,1.045
		c-4.264,0-6.788-3.221-6.788-7.601c0-4.699,2.263-8.44,7.281-8.44c4.38,0,6.527,3.48,6.527,8.847h-11.081
		c0,3.162,1.479,4.989,4.409,4.989c2.408,0,3.829-1.856,3.916-2.987H465.123z M462.686,1512.335
		c-0.145-2.35-1.131-4.525-4.235-4.525c-2.35,0-4.206,2.176-4.206,4.525H462.686z"/>
	<path fill="#58595B" d="M473.334,1521.124h-2.64l-4.38-15.171h2.785l2.9,11.922h0.058l2.93-11.922h2.843l2.958,11.922h0.058
		l3.075-11.922h2.553l-4.409,15.171h-2.64l-3.075-11.748h-0.058L473.334,1521.124z"/>
	<path fill="#58595B" d="M500.216,1521.124h-2.813v-20.827h9.369c3.858,0,6.179,2.495,6.179,5.859c0,2.901-1.653,6.179-6.179,6.179
		h-6.556V1521.124z M500.216,1509.928h5.599c2.523,0,4.235-0.929,4.235-3.742c0-2.64-1.798-3.48-4.119-3.48h-5.714V1509.928z"/>
	<path fill="#58595B" d="M520.871,1505.519c4.844,0,7.049,4.09,7.049,8.006s-2.205,8.006-7.049,8.006s-7.049-4.09-7.049-8.006
		S516.026,1505.519,520.871,1505.519z M520.871,1519.325c3.655,0,4.409-3.771,4.409-5.801s-0.754-5.802-4.409-5.802
		s-4.409,3.771-4.409,5.802S517.216,1519.325,520.871,1519.325z"/>
	<path fill="#58595B" d="M539.431,1510.276c-0.029-0.957-0.377-2.553-3.597-2.553c-0.783,0-3.017,0.261-3.017,2.146
		c0,1.247,0.783,1.537,2.756,2.03l2.553,0.639c3.162,0.783,4.264,1.943,4.264,4.003c0,3.133-2.582,5.019-6.004,5.019
		c-6.004,0-6.439-3.481-6.526-5.309h2.466c0.087,1.189,0.435,3.104,4.032,3.104c1.828,0,3.481-0.725,3.481-2.407
		c0-1.219-0.841-1.625-3.017-2.176l-2.958-0.726c-2.118-0.521-3.51-1.595-3.51-3.684c0-3.336,2.755-4.844,5.743-4.844
		c5.424,0,5.802,4.003,5.802,4.757H539.431z"/>
	<path fill="#58595B" d="M548.449,1508.071v9.862c0,1.188,1.015,1.188,1.538,1.188h0.899v2.002
		c-0.928,0.087-1.653,0.203-1.914,0.203c-2.524,0-3.075-1.422-3.075-3.249v-10.007h-2.06v-2.118h2.06v-4.234h2.552v4.234h2.437
		v2.118H548.449z"/>
	<path fill="#58595B" d="M566.257,1516.367c-0.087,0.725-0.783,2.871-2.698,4.147c-0.696,0.464-1.683,1.045-4.119,1.045
		c-4.264,0-6.788-3.221-6.788-7.601c0-4.699,2.263-8.44,7.281-8.44c4.38,0,6.527,3.48,6.527,8.847h-11.081
		c0,3.162,1.479,4.989,4.409,4.989c2.408,0,3.829-1.856,3.916-2.987H566.257z M563.821,1512.335
		c-0.145-2.35-1.131-4.525-4.235-4.525c-2.35,0-4.206,2.176-4.206,4.525H563.821z"/>
	<path fill="#58595B" d="M572.403,1521.124h-2.553v-15.171h2.408v2.523h0.058c1.015-1.769,2.35-2.958,4.264-2.958
		c0.319,0,0.464,0.028,0.667,0.087v2.64h-0.958c-2.378,0-3.887,1.856-3.887,4.061V1521.124z"/>
</g>
<g>
	<path fill="#58595B" d="M2372.6,2024.027l-2.176,6.062h-2.9l7.832-20.827h3.19l7.542,20.827h-3.075l-2.06-6.062H2372.6z
		 M2379.939,2021.532l-3.075-9.167h-0.058l-3.336,9.167H2379.939z"/>
	<path fill="#58595B" d="M2391.247,2030.089h-2.553v-15.171h2.407v2.523h0.059c1.016-1.769,2.35-2.958,4.264-2.958
		c0.319,0,0.465,0.028,0.667,0.087v2.64h-0.957c-2.378,0-3.887,1.856-3.887,4.061V2030.089z"/>
	<path fill="#58595B" d="M2407.489,2020.024c-0.319-2.03-1.451-3.249-3.598-3.249c-3.161,0-4.177,3.017-4.177,5.715
		c0,2.61,0.639,5.83,4.148,5.83c1.711,0,3.19-1.276,3.626-3.597h2.465c-0.261,2.407-1.74,5.802-6.178,5.802
		c-4.265,0-6.788-3.221-6.788-7.601c0-4.699,2.263-8.44,7.281-8.44c3.974,0,5.481,2.9,5.685,5.54H2407.489z"/>
	<path fill="#58595B" d="M2424.86,2030.089h-2.553v-9.92c0-2.06-0.58-3.395-3.017-3.395c-2.088,0-4.234,1.219-4.234,5.048v8.267
		h-2.553v-20.827h2.553v7.687h0.058c0.726-0.957,2.001-2.465,4.438-2.465c2.35,0,5.308,0.957,5.308,5.279V2030.089z"/>
	<path fill="#58595B" d="M2451.628,2015.528c-0.783-3.655-3.829-4.322-5.831-4.322c-3.771,0-6.816,2.785-6.816,8.268
		c0,4.901,1.74,8.673,6.904,8.673c1.827,0,4.989-0.87,5.946-5.715h2.727c-1.16,7.861-7.542,8.209-9.108,8.209
		c-4.729,0-9.369-3.074-9.369-11.08c0-6.411,3.655-10.849,9.717-10.849c5.367,0,8.151,3.336,8.558,6.816H2451.628z"/>
	<path fill="#58595B" d="M2457.54,2019.531c0.115-3.626,2.523-5.047,6.265-5.047c1.219,0,5.628,0.348,5.628,4.234v8.731
		c0,0.638,0.319,0.899,0.841,0.899c0.232,0,0.552-0.059,0.842-0.116v1.856c-0.436,0.116-0.812,0.29-1.393,0.29
		c-2.263,0-2.61-1.16-2.697-2.32c-0.986,1.073-2.524,2.466-5.482,2.466c-2.785,0-4.758-1.77-4.758-4.381
		c0-1.276,0.377-4.234,4.612-4.757l4.206-0.522c0.609-0.058,1.334-0.29,1.334-1.798c0-1.596-1.16-2.466-3.567-2.466
		c-2.9,0-3.307,1.77-3.48,2.93H2457.54z M2466.88,2022.344c-0.406,0.319-1.044,0.552-4.206,0.957
		c-1.247,0.175-3.249,0.552-3.249,2.466c0,1.653,0.842,2.64,2.756,2.64c2.379,0,4.699-1.537,4.699-3.567V2022.344z"/>
	<path fill="#58595B" d="M2476.651,2030.089h-2.553v-15.171h2.407v2.523h0.059c1.016-1.769,2.35-2.958,4.264-2.958
		c0.319,0,0.465,0.028,0.667,0.087v2.64h-0.957c-2.378,0-3.887,1.856-3.887,4.061V2030.089z"/>
	<path fill="#58595B" d="M2495.997,2030.089h-2.407V2028h-0.059c-1.103,2.06-2.843,2.524-4.322,2.524
		c-5.163,0-6.671-4.845-6.671-8.471c0-4.264,2.291-7.57,6.323-7.57c2.756,0,3.916,1.711,4.525,2.581l0.058-0.203v-7.6h2.553
		V2030.089z M2489.267,2028.32c1.624,0,4.147-1.073,4.147-5.105c0-2.465-0.406-6.439-4.09-6.439c-3.944,0-4.147,3.742-4.147,5.686
		C2485.177,2025.796,2486.482,2028.32,2489.267,2028.32z"/>
	<path fill="#58595B" d="M2508.057,2009.262h8.441c5.424,0,8.76,4.119,8.76,10.124c0,4.67-2.03,10.703-8.876,10.703h-8.325V2009.262
		z M2510.871,2027.682h5.453c3.655,0,6.034-2.872,6.034-8.122s-2.408-7.89-6.237-7.89h-5.25V2027.682z"/>
	<path fill="#58595B" d="M2528.589,2012.162v-2.9h2.553v2.9H2528.589z M2531.141,2030.089h-2.553v-15.171h2.553V2030.089z"/>
	<path fill="#58595B" d="M2543.584,2019.24c-0.029-0.957-0.378-2.553-3.598-2.553c-0.783,0-3.017,0.261-3.017,2.146
		c0,1.247,0.783,1.537,2.756,2.03l2.553,0.639c3.162,0.783,4.264,1.943,4.264,4.003c0,3.133-2.581,5.019-6.004,5.019
		c-6.005,0-6.439-3.481-6.526-5.309h2.465c0.087,1.189,0.436,3.104,4.032,3.104c1.827,0,3.48-0.725,3.48-2.407
		c0-1.219-0.841-1.625-3.017-2.176l-2.958-0.726c-2.118-0.521-3.511-1.595-3.511-3.684c0-3.336,2.756-4.844,5.744-4.844
		c5.424,0,5.801,4.003,5.801,4.757H2543.584z"/>
	<path fill="#58595B" d="M2549.265,2014.918h2.407v2.146h0.059c0.608-0.87,1.769-2.581,4.524-2.581c4.032,0,6.324,3.307,6.324,7.57
		c0,3.626-1.509,8.471-6.672,8.471c-2.03,0-3.365-0.958-4.032-2.031h-0.058v7.601h-2.553V2014.918z M2555.849,2028.32
		c2.785,0,4.091-2.523,4.091-5.859c0-1.943-0.203-5.686-4.148-5.686c-3.684,0-4.09,3.975-4.09,6.439
		C2551.702,2027.246,2554.225,2028.32,2555.849,2028.32z"/>
	<path fill="#58595B" d="M2568.203,2030.089h-2.553v-20.827h2.553V2030.089z"/>
	<path fill="#58595B" d="M2571.943,2019.531c0.115-3.626,2.523-5.047,6.265-5.047c1.219,0,5.628,0.348,5.628,4.234v8.731
		c0,0.638,0.319,0.899,0.841,0.899c0.232,0,0.552-0.059,0.842-0.116v1.856c-0.436,0.116-0.812,0.29-1.393,0.29
		c-2.263,0-2.61-1.16-2.697-2.32c-0.986,1.073-2.524,2.466-5.482,2.466c-2.785,0-4.758-1.77-4.758-4.381
		c0-1.276,0.377-4.234,4.612-4.757l4.206-0.522c0.609-0.058,1.334-0.29,1.334-1.798c0-1.596-1.16-2.466-3.567-2.466
		c-2.9,0-3.307,1.77-3.48,2.93H2571.943z M2581.283,2022.344c-0.406,0.319-1.044,0.552-4.206,0.957
		c-1.247,0.175-3.249,0.552-3.249,2.466c0,1.653,0.842,2.64,2.756,2.64c2.379,0,4.699-1.537,4.699-3.567V2022.344z"/>
	<path fill="#58595B" d="M2596.776,2014.918h2.813c-1.77,4.96-3.51,9.921-5.453,14.881c-2.408,6.149-2.669,6.497-5.947,6.497
		c-0.377,0-0.667-0.115-1.073-0.231v-2.32c0.319,0.115,0.842,0.261,1.538,0.261c1.334,0,1.479-0.377,2.697-3.51l-5.627-15.577h2.9
		l4.032,12.357h0.058L2596.776,2014.918z"/>
	<path fill="#58595B" d="M2613.42,2030.089h-2.813v-20.827h2.813V2030.089z"/>
	<path fill="#58595B" d="M2630.271,2030.089h-2.553v-9.34c0-2.64-0.754-3.975-3.248-3.975c-1.451,0-4.003,0.929-4.003,5.048v8.267
		h-2.553v-15.171h2.407v2.146h0.058c0.552-0.812,1.973-2.581,4.584-2.581c2.35,0,5.308,0.957,5.308,5.279V2030.089z"/>
	<path fill="#58595B" d="M2642.654,2019.24c-0.029-0.957-0.378-2.553-3.598-2.553c-0.783,0-3.017,0.261-3.017,2.146
		c0,1.247,0.783,1.537,2.756,2.03l2.553,0.639c3.162,0.783,4.264,1.943,4.264,4.003c0,3.133-2.581,5.019-6.004,5.019
		c-6.005,0-6.439-3.481-6.526-5.309h2.465c0.087,1.189,0.436,3.104,4.032,3.104c1.827,0,3.48-0.725,3.48-2.407
		c0-1.219-0.841-1.625-3.017-2.176l-2.958-0.726c-2.118-0.521-3.511-1.595-3.511-3.684c0-3.336,2.756-4.844,5.744-4.844
		c5.424,0,5.801,4.003,5.801,4.757H2642.654z"/>
	<path fill="#58595B" d="M2661.418,2025.332c-0.087,0.725-0.783,2.871-2.697,4.147c-0.696,0.464-1.683,1.045-4.119,1.045
		c-4.265,0-6.788-3.221-6.788-7.601c0-4.699,2.263-8.44,7.281-8.44c4.38,0,6.526,3.48,6.526,8.847h-11.081
		c0,3.162,1.479,4.989,4.409,4.989c2.407,0,3.829-1.856,3.916-2.987H2661.418z M2658.981,2021.3
		c-0.146-2.35-1.132-4.525-4.235-4.525c-2.35,0-4.206,2.176-4.206,4.525H2658.981z"/>
	<path fill="#58595B" d="M2667.563,2030.089h-2.553v-15.171h2.407v2.523h0.059c1.016-1.769,2.35-2.958,4.264-2.958
		c0.319,0,0.465,0.028,0.667,0.087v2.64h-0.957c-2.378,0-3.887,1.856-3.887,4.061V2030.089z"/>
	<path fill="#58595B" d="M2678.606,2017.036v9.862c0,1.188,1.015,1.188,1.537,1.188h0.899v2.002
		c-0.929,0.087-1.653,0.203-1.915,0.203c-2.523,0-3.074-1.422-3.074-3.249v-10.007h-2.06v-2.118h2.06v-4.234h2.553v4.234h2.437
		v2.118H2678.606z"/>
	<path fill="#58595B" d="M2698.356,2008.827c-2.466,4.641-3.945,7.426-3.945,14.387c0,4.786,1.653,8.325,3.974,12.88h-1.711
		c-3.017-4.525-4.989-8.151-4.989-13.576c0-5.104,1.77-9.224,4.902-13.69H2698.356z"/>
	<path fill="#58595B" d="M2705.865,2018.487c0.436,0.028,0.899,0.058,1.335,0.058c1.973,0,3.887-0.783,3.887-3.336
		c0-1.218-0.726-3.22-3.771-3.22c-3.626,0-3.858,2.959-3.975,4.38h-2.494c0-2.987,1.218-6.671,6.584-6.671
		c3.945,0,6.295,2.263,6.295,5.366c0,2.61-1.509,3.857-2.61,4.206v0.058c1.973,0.639,3.394,2.03,3.394,4.757
		c0,3.336-2.146,6.556-7.339,6.556c-1.508,0-2.784-0.377-3.771-0.898c-2.263-1.189-2.872-3.539-3.046-5.889h2.64
		c0.087,1.914,0.551,4.496,4.351,4.496c2.611,0,4.438-1.596,4.438-3.945c0-3.423-3.017-3.742-4.757-3.742
		c-0.378,0-0.783,0.029-1.161,0.029V2018.487z"/>
	<path fill="#58595B" d="M2716.508,2036.094c2.465-4.642,3.944-7.426,3.944-14.388c0-4.786-1.653-8.325-3.974-12.879h1.711
		c3.018,4.524,4.989,8.15,4.989,13.575c0,5.104-1.77,9.224-4.901,13.691H2716.508z"/>
</g>
<g>
	<path fill="#58595B" d="M1807.817,2030.089h-2.813v-20.827h9.63c3.423,0,6.846,1.189,6.846,5.599c0,3.074-1.566,4.206-2.9,4.989
		c1.189,0.493,2.379,1.015,2.494,3.916l0.175,3.771c0.028,1.16,0.174,1.596,1.044,2.089v0.464h-3.452
		c-0.406-1.276-0.493-4.438-0.493-5.222c0-1.711-0.348-3.713-3.713-3.713h-6.816V2030.089z M1807.817,2018.747h6.526
		c2.06,0,4.235-0.522,4.235-3.597c0-3.22-2.35-3.48-3.742-3.48h-7.02V2018.747z"/>
	<path fill="#58595B" d="M1838.153,2025.332c-0.087,0.725-0.783,2.871-2.697,4.147c-0.696,0.464-1.683,1.045-4.119,1.045
		c-4.265,0-6.788-3.221-6.788-7.601c0-4.699,2.263-8.44,7.281-8.44c4.38,0,6.526,3.48,6.526,8.847h-11.081
		c0,3.162,1.479,4.989,4.409,4.989c2.407,0,3.829-1.856,3.916-2.987H1838.153z M1835.716,2021.3
		c-0.146-2.35-1.132-4.525-4.235-4.525c-2.35,0-4.206,2.176-4.206,4.525H1835.716z"/>
	<path fill="#58595B" d="M1853.987,2028.842c0,2.175-0.029,7.629-7.049,7.629c-1.799,0-5.309-0.493-5.802-4.525h2.553
		c0.464,2.407,2.813,2.407,3.423,2.407c4.409,0,4.322-3.538,4.322-5.337v-0.638h-0.058v0.115c-0.668,1.073-2.002,2.031-4.032,2.031
		c-5.163,0-6.672-4.845-6.672-8.471c0-4.264,2.292-7.57,6.323-7.57c2.756,0,3.916,1.711,4.525,2.581h0.058v-2.146h2.408V2028.842z
		 M1847.402,2028.32c1.625,0,4.148-1.073,4.148-5.105c0-2.465-0.406-6.439-4.09-6.439c-3.945,0-4.148,3.742-4.148,5.686
		C1843.312,2025.796,1844.618,2028.32,1847.402,2028.32z"/>
	<path fill="#58595B" d="M1857.58,2012.162v-2.9h2.553v2.9H1857.58z M1860.132,2030.089h-2.553v-15.171h2.553V2030.089z"/>
	<path fill="#58595B" d="M1872.575,2019.24c-0.029-0.957-0.378-2.553-3.598-2.553c-0.783,0-3.017,0.261-3.017,2.146
		c0,1.247,0.783,1.537,2.756,2.03l2.553,0.639c3.162,0.783,4.264,1.943,4.264,4.003c0,3.133-2.581,5.019-6.004,5.019
		c-6.005,0-6.439-3.481-6.526-5.309h2.465c0.087,1.189,0.436,3.104,4.032,3.104c1.827,0,3.48-0.725,3.48-2.407
		c0-1.219-0.841-1.625-3.017-2.176l-2.958-0.726c-2.118-0.521-3.511-1.595-3.511-3.684c0-3.336,2.756-4.844,5.744-4.844
		c5.424,0,5.801,4.003,5.801,4.757H1872.575z"/>
	<path fill="#58595B" d="M1881.592,2017.036v9.862c0,1.188,1.015,1.188,1.537,1.188h0.899v2.002
		c-0.929,0.087-1.653,0.203-1.915,0.203c-2.523,0-3.074-1.422-3.074-3.249v-10.007h-2.06v-2.118h2.06v-4.234h2.553v4.234h2.437
		v2.118H1881.592z"/>
	<path fill="#58595B" d="M1899.401,2025.332c-0.087,0.725-0.783,2.871-2.697,4.147c-0.696,0.464-1.683,1.045-4.119,1.045
		c-4.265,0-6.788-3.221-6.788-7.601c0-4.699,2.263-8.44,7.281-8.44c4.38,0,6.526,3.48,6.526,8.847h-11.081
		c0,3.162,1.479,4.989,4.409,4.989c2.407,0,3.829-1.856,3.916-2.987H1899.401z M1896.964,2021.3
		c-0.146-2.35-1.132-4.525-4.235-4.525c-2.35,0-4.206,2.176-4.206,4.525H1896.964z"/>
	<path fill="#58595B" d="M1905.546,2030.089h-2.553v-15.171h2.407v2.523h0.059c1.016-1.769,2.35-2.958,4.264-2.958
		c0.319,0,0.465,0.028,0.667,0.087v2.64h-0.957c-2.378,0-3.887,1.856-3.887,4.061V2030.089z"/>
	<path fill="#58595B" d="M1917.441,2009.262h16.911v2.495h-7.049v18.332h-2.813v-18.332h-7.049V2009.262z"/>
	<path fill="#58595B" d="M1939.34,2014.484c4.845,0,7.049,4.09,7.049,8.006s-2.204,8.006-7.049,8.006
		c-4.844,0-7.048-4.09-7.048-8.006S1934.497,2014.484,1939.34,2014.484z M1939.34,2028.29c3.655,0,4.409-3.771,4.409-5.801
		s-0.754-5.802-4.409-5.802c-3.654,0-4.408,3.771-4.408,5.802S1935.686,2028.29,1939.34,2028.29z"/>
	<path fill="#58595B" d="M1949.083,2014.918h2.407v2.146h0.059c0.608-0.87,1.769-2.581,4.524-2.581c4.032,0,6.324,3.307,6.324,7.57
		c0,3.626-1.509,8.471-6.672,8.471c-2.03,0-3.365-0.958-4.032-2.031h-0.058v7.601h-2.553V2014.918z M1955.667,2028.32
		c2.785,0,4.091-2.523,4.091-5.859c0-1.943-0.203-5.686-4.148-5.686c-3.684,0-4.09,3.975-4.09,6.439
		C1951.52,2027.246,1954.043,2028.32,1955.667,2028.32z"/>
	<path fill="#58595B" d="M1965.208,2014.918h2.407v2.146h0.059c0.608-0.87,1.769-2.581,4.524-2.581c4.032,0,6.324,3.307,6.324,7.57
		c0,3.626-1.509,8.471-6.672,8.471c-2.03,0-3.365-0.958-4.032-2.031h-0.058v7.601h-2.553V2014.918z M1971.792,2028.32
		c2.785,0,4.091-2.523,4.091-5.859c0-1.943-0.203-5.686-4.148-5.686c-3.684,0-4.09,3.975-4.09,6.439
		C1967.644,2027.246,1970.167,2028.32,1971.792,2028.32z"/>
	<path fill="#58595B" d="M1994.414,2025.332c-0.087,0.725-0.783,2.871-2.698,4.147c-0.695,0.464-1.682,1.045-4.118,1.045
		c-4.265,0-6.788-3.221-6.788-7.601c0-4.699,2.263-8.44,7.281-8.44c4.38,0,6.526,3.48,6.526,8.847h-11.081
		c0,3.162,1.479,4.989,4.409,4.989c2.407,0,3.829-1.856,3.916-2.987H1994.414z M1991.977,2021.3
		c-0.146-2.35-1.132-4.525-4.235-4.525c-2.35,0-4.206,2.176-4.206,4.525H1991.977z"/>
	<path fill="#58595B" d="M2000.559,2030.089h-2.553v-15.171h2.408v2.523h0.058c1.016-1.769,2.35-2.958,4.264-2.958
		c0.319,0,0.465,0.028,0.667,0.087v2.64h-0.957c-2.378,0-3.887,1.856-3.887,4.061V2030.089z"/>
	<path fill="#58595B" d="M2015.93,2019.24c-0.029-0.957-0.378-2.553-3.598-2.553c-0.783,0-3.017,0.261-3.017,2.146
		c0,1.247,0.783,1.537,2.756,2.03l2.553,0.639c3.162,0.783,4.264,1.943,4.264,4.003c0,3.133-2.581,5.019-6.004,5.019
		c-6.005,0-6.439-3.481-6.526-5.309h2.465c0.087,1.189,0.436,3.104,4.032,3.104c1.827,0,3.48-0.725,3.48-2.407
		c0-1.219-0.841-1.625-3.017-2.176l-2.958-0.726c-2.118-0.521-3.511-1.595-3.511-3.684c0-3.336,2.756-4.844,5.744-4.844
		c5.424,0,5.801,4.003,5.801,4.757H2015.93z"/>
	<path fill="#58595B" d="M2036.636,2008.827c-2.466,4.641-3.945,7.426-3.945,14.387c0,4.786,1.653,8.325,3.974,12.88h-1.711
		c-3.017-4.525-4.989-8.151-4.989-13.576c0-5.104,1.77-9.224,4.902-13.69H2036.636z"/>
	<path fill="#58595B" d="M2044.145,2018.487c0.436,0.028,0.899,0.058,1.335,0.058c1.973,0,3.887-0.783,3.887-3.336
		c0-1.218-0.726-3.22-3.771-3.22c-3.626,0-3.858,2.959-3.975,4.38h-2.494c0-2.987,1.218-6.671,6.584-6.671
		c3.945,0,6.295,2.263,6.295,5.366c0,2.61-1.509,3.857-2.61,4.206v0.058c1.973,0.639,3.394,2.03,3.394,4.757
		c0,3.336-2.146,6.556-7.339,6.556c-1.508,0-2.784-0.377-3.771-0.898c-2.263-1.189-2.872-3.539-3.046-5.889h2.64
		c0.087,1.914,0.551,4.496,4.351,4.496c2.611,0,4.438-1.596,4.438-3.945c0-3.423-3.017-3.742-4.757-3.742
		c-0.378,0-0.783,0.029-1.161,0.029V2018.487z"/>
	<path fill="#58595B" d="M2054.788,2036.094c2.465-4.642,3.944-7.426,3.944-14.388c0-4.786-1.653-8.325-3.974-12.879h1.711
		c3.018,4.524,4.989,8.15,4.989,13.575c0,5.104-1.77,9.224-4.901,13.691H2054.788z"/>
</g>
<g>
	<path fill="#58595B" d="M1445.913,2353.077c-0.783-3.655-3.829-4.322-5.831-4.322c-3.771,0-6.816,2.785-6.816,8.268
		c0,4.901,1.74,8.673,6.904,8.673c1.827,0,4.989-0.87,5.946-5.715h2.727c-1.16,7.861-7.542,8.209-9.108,8.209
		c-4.729,0-9.369-3.074-9.369-11.08c0-6.411,3.655-10.849,9.717-10.849c5.367,0,8.151,3.336,8.558,6.816H1445.913z"/>
	<path fill="#58595B" d="M1458.09,2352.033c4.845,0,7.049,4.09,7.049,8.006s-2.204,8.006-7.049,8.006
		c-4.844,0-7.048-4.09-7.048-8.006S1453.246,2352.033,1458.09,2352.033z M1458.09,2365.84c3.655,0,4.409-3.771,4.409-5.801
		s-0.754-5.802-4.409-5.802c-3.654,0-4.408,3.771-4.408,5.802S1454.435,2365.84,1458.09,2365.84z"/>
	<path fill="#58595B" d="M1477.927,2367.639v-2.204l-0.058-0.059c-1.073,1.77-2.379,2.698-4.815,2.698
		c-2.233,0-4.931-1.073-4.931-4.699v-10.907h2.553v10.065c0,2.495,1.276,3.336,2.93,3.336c3.22,0,4.177-2.843,4.177-5.047v-8.354
		h2.553v15.171H1477.927z"/>
	<path fill="#58595B" d="M1496.516,2367.639h-2.553v-9.34c0-2.64-0.754-3.975-3.248-3.975c-1.451,0-4.003,0.929-4.003,5.048v8.267
		h-2.553v-15.171h2.407v2.146h0.058c0.552-0.812,1.973-2.581,4.584-2.581c2.35,0,5.308,0.957,5.308,5.279V2367.639z"/>
	<path fill="#58595B" d="M1503.417,2354.586v9.862c0,1.188,1.015,1.188,1.537,1.188h0.899v2.002
		c-0.929,0.087-1.653,0.203-1.915,0.203c-2.523,0-3.074-1.422-3.074-3.249v-10.007h-2.06v-2.118h2.06v-4.234h2.553v4.234h2.437
		v2.118H1503.417z"/>
	<path fill="#58595B" d="M1521.224,2362.882c-0.087,0.725-0.783,2.871-2.698,4.147c-0.695,0.464-1.682,1.045-4.118,1.045
		c-4.265,0-6.788-3.22-6.788-7.601c0-4.699,2.263-8.44,7.281-8.44c4.38,0,6.526,3.48,6.526,8.847h-11.081
		c0,3.162,1.479,4.989,4.409,4.989c2.407,0,3.829-1.856,3.916-2.987H1521.224z M1518.788,2358.85
		c-0.146-2.35-1.132-4.525-4.235-4.525c-2.35,0-4.206,2.176-4.206,4.525H1518.788z"/>
	<path fill="#58595B" d="M1527.37,2367.639h-2.553v-15.171h2.408v2.523h0.058c1.016-1.769,2.35-2.958,4.264-2.958
		c0.319,0,0.465,0.028,0.667,0.087v2.64h-0.957c-2.378,0-3.887,1.856-3.887,4.061V2367.639z"/>
	<path fill="#58595B" d="M1559.65,2367.639v-12.299c0-0.609,0.058-3.249,0.058-5.192h-0.058l-5.859,17.491h-2.785l-5.859-17.462
		h-0.058c0,1.914,0.058,4.554,0.058,5.163v12.299h-2.727v-20.827h4.032l5.946,17.607h0.059l5.917-17.607h4.003v20.827H1559.65z"/>
	<path fill="#58595B" d="M1566.259,2357.08c0.115-3.626,2.523-5.047,6.265-5.047c1.219,0,5.628,0.348,5.628,4.234v8.731
		c0,0.638,0.319,0.899,0.841,0.899c0.232,0,0.552-0.059,0.842-0.116v1.856c-0.436,0.116-0.812,0.29-1.393,0.29
		c-2.263,0-2.61-1.16-2.697-2.32c-0.986,1.073-2.524,2.466-5.482,2.466c-2.785,0-4.758-1.77-4.758-4.381
		c0-1.276,0.377-4.234,4.612-4.757l4.206-0.522c0.609-0.058,1.334-0.29,1.334-1.798c0-1.596-1.16-2.466-3.567-2.466
		c-2.9,0-3.307,1.77-3.48,2.93H1566.259z M1575.599,2359.894c-0.406,0.319-1.044,0.552-4.206,0.957
		c-1.247,0.175-3.249,0.552-3.249,2.466c0,1.653,0.842,2.64,2.756,2.64c2.379,0,4.699-1.537,4.699-3.567V2359.894z"/>
	<path fill="#58595B" d="M1585.602,2354.586v9.862c0,1.188,1.015,1.188,1.537,1.188h0.899v2.002
		c-0.929,0.087-1.653,0.203-1.915,0.203c-2.523,0-3.074-1.422-3.074-3.249v-10.007h-2.06v-2.118h2.06v-4.234h2.553v4.234h2.437
		v2.118H1585.602z"/>
</g>
<rect id="_x36_.18_5_" x="378.382" y="1140.473" fill="none" stroke="#060303" stroke-width="2" stroke-miterlimit="10" width="224.831" height="346.314"/>
<rect x="3093.342" y="1610.723" width="289.087" height="734.943"/>
<rect x="2884.815" y="1848.051" transform="matrix(-1.836970e-16 1 -1 -1.836970e-16 5216.0801 -1259.6913)" fill="#FFFFFF" width="706.142" height="260.286"/>
<g>
	<path fill="#58595B" d="M3191.561,2379.209h-2.813v-20.827h2.813V2379.209z"/>
	<path fill="#58595B" d="M3207.802,2379.209h-2.553v-9.34c0-2.64-0.754-3.975-3.248-3.975c-1.451,0-4.003,0.929-4.003,5.048v8.267
		h-2.553v-15.171h2.407v2.146h0.058c0.552-0.812,1.973-2.581,4.584-2.581c2.35,0,5.308,0.957,5.308,5.279V2379.209z"/>
	<path fill="#58595B" d="M3214.094,2366.157v9.862c0,1.188,1.015,1.188,1.537,1.188h0.899v2.002
		c-0.929,0.087-1.653,0.203-1.915,0.203c-2.523,0-3.074-1.422-3.074-3.249v-10.007h-2.06v-2.118h2.06v-4.234h2.553v4.234h2.437
		v2.118H3214.094z"/>
	<path fill="#58595B" d="M3231.292,2374.453c-0.087,0.725-0.783,2.871-2.698,4.147c-0.695,0.464-1.682,1.045-4.118,1.045
		c-4.265,0-6.788-3.221-6.788-7.601c0-4.699,2.263-8.44,7.281-8.44c4.38,0,6.526,3.48,6.526,8.847h-11.081
		c0,3.162,1.479,4.989,4.409,4.989c2.407,0,3.829-1.856,3.916-2.987H3231.292z M3228.856,2370.42
		c-0.146-2.35-1.132-4.525-4.235-4.525c-2.35,0-4.206,2.176-4.206,4.525H3228.856z"/>
	<path fill="#58595B" d="M3236.829,2379.209h-2.553v-15.171h2.407v2.523h0.059c1.016-1.769,2.35-2.958,4.264-2.958
		c0.319,0,0.465,0.028,0.667,0.087v2.64h-0.957c-2.378,0-3.887,1.856-3.887,4.061V2379.209z"/>
	<path fill="#58595B" d="M3245.877,2379.209h-2.553v-15.171h2.408v2.523h0.058c1.016-1.769,2.35-2.958,4.264-2.958
		c0.319,0,0.465,0.028,0.667,0.087v2.64h-0.957c-2.378,0-3.887,1.856-3.887,4.061V2379.209z"/>
	<path fill="#58595B" d="M3262.347,2379.209v-2.204l-0.058-0.059c-1.073,1.77-2.379,2.698-4.815,2.698
		c-2.233,0-4.931-1.073-4.931-4.699v-10.907h2.553v10.065c0,2.495,1.276,3.336,2.93,3.336c3.22,0,4.177-2.843,4.177-5.047v-8.354
		h2.553v15.171H3262.347z"/>
	<path fill="#58595B" d="M3267.769,2364.039h2.407v2.146h0.059c0.608-0.87,1.769-2.581,4.524-2.581c4.032,0,6.324,3.307,6.324,7.57
		c0,3.626-1.509,8.471-6.672,8.471c-2.03,0-3.365-0.958-4.032-2.031h-0.058v7.601h-2.553V2364.039z M3274.353,2377.44
		c2.785,0,4.091-2.523,4.091-5.859c0-1.943-0.203-5.686-4.148-5.686c-3.684,0-4.09,3.975-4.09,6.439
		C3270.205,2376.367,3272.729,2377.44,3274.353,2377.44z"/>
	<path fill="#58595B" d="M3286.619,2366.157v9.862c0,1.188,1.015,1.188,1.537,1.188h0.899v2.002
		c-0.929,0.087-1.653,0.203-1.915,0.203c-2.523,0-3.074-1.422-3.074-3.249v-10.007h-2.06v-2.118h2.06v-4.234h2.553v4.234h2.437
		v2.118H3286.619z"/>
	<path fill="#58595B" d="M3207.912,2410.209h-2.814v-20.827h9.37c3.857,0,6.178,2.495,6.178,5.859c0,2.901-1.653,6.179-6.178,6.179
		h-6.556V2410.209z M3207.912,2399.013h5.598c2.524,0,4.235-0.929,4.235-3.742c0-2.64-1.799-3.48-4.119-3.48h-5.714V2399.013z"/>
	<path fill="#58595B" d="M3221.982,2399.651c0.115-3.626,2.523-5.047,6.265-5.047c1.219,0,5.628,0.348,5.628,4.234v8.731
		c0,0.638,0.319,0.899,0.841,0.899c0.232,0,0.552-0.059,0.842-0.116v1.856c-0.436,0.116-0.812,0.29-1.393,0.29
		c-2.263,0-2.61-1.16-2.697-2.32c-0.986,1.073-2.524,2.466-5.482,2.466c-2.785,0-4.758-1.77-4.758-4.381
		c0-1.276,0.377-4.234,4.612-4.757l4.206-0.522c0.609-0.058,1.334-0.29,1.334-1.798c0-1.596-1.16-2.466-3.567-2.466
		c-2.9,0-3.307,1.77-3.48,2.93H3221.982z M3231.322,2402.464c-0.406,0.319-1.044,0.552-4.206,0.957
		c-1.247,0.175-3.249,0.552-3.249,2.466c0,1.653,0.842,2.64,2.756,2.64c2.379,0,4.699-1.537,4.699-3.567V2402.464z"/>
	<path fill="#58595B" d="M3249.941,2410.209h-2.553v-9.34c0-2.64-0.754-3.975-3.248-3.975c-1.451,0-4.003,0.929-4.003,5.048v8.267
		h-2.553v-15.171h2.407v2.146h0.058c0.552-0.812,1.973-2.581,4.584-2.581c2.35,0,5.308,0.957,5.308,5.279V2410.209z"/>
	<path fill="#58595B" d="M3265.978,2405.453c-0.087,0.725-0.783,2.871-2.698,4.147c-0.695,0.464-1.682,1.045-4.118,1.045
		c-4.265,0-6.788-3.221-6.788-7.601c0-4.699,2.263-8.44,7.281-8.44c4.38,0,6.526,3.48,6.526,8.847H3255.1
		c0,3.162,1.479,4.989,4.409,4.989c2.407,0,3.829-1.856,3.916-2.987H3265.978z M3263.541,2401.42
		c-0.146-2.35-1.132-4.525-4.235-4.525c-2.35,0-4.206,2.176-4.206,4.525H3263.541z"/>
	<path fill="#58595B" d="M3271.225,2410.209h-2.553v-20.827h2.553V2410.209z"/>
</g>
<g>
	<path fill="#231F20" d="M49.782,76.496v4.081c0,3.311,1.078,6.236,5.39,6.236c3.157,0,4.543-2.849,4.543-5.774
		c0-4.851-4.004-6.698-7.546-8.854c-4.158-2.387-7.699-4.62-10.24-7.546c-2.464-2.926-3.927-6.468-3.927-11.549
		c0-10.856,6.544-16.4,17.016-16.4c11.78,0,17.786,7.854,17.17,18.71H59.715c-0.154-3.388,0-8.008-4.466-8.315
		c-2.772-0.231-4.389,1.309-4.697,3.85c-0.385,3.465,1.386,5.235,4.081,7.084c5.082,3.233,9.471,5.235,12.627,8.161
		s5.005,6.775,5.005,13.782c0,11.088-6.16,17.247-17.401,17.247c-12.396,0-17.632-6.93-17.632-14.552v-6.16H49.782z"/>
	<path fill="#231F20" d="M78.042,95.822V38.075h31.029v11.55H91.594V60.25h16.939V71.8H91.594v12.473h18.402v11.55H78.042z"/>
	<path fill="#231F20" d="M116.542,95.822V38.075h31.029v11.55h-17.478V60.25h16.939V71.8h-16.939v12.473h18.402v11.55H116.542z"/>
	<path fill="#231F20" d="M191.307,77.42c0,6.16-1,10.934-3.772,14.321l6.313,6.776l-7.931,6.775l-7.623-8.547
		c-0.77,0.154-1.617,0.231-2.464,0.308c-0.847,0.077-1.771,0.154-2.771,0.154c-13.706,0-18.479-6.775-18.479-19.788V53.937
		c0-11.088,6.622-17.247,18.479-17.247c11.857,0,18.248,6.159,18.248,17.247V77.42z M168.132,78.575
		c0,3.311,0.539,8.238,4.928,8.238c4.389,0,4.696-4.928,4.696-8.238V54.86c0-3.542-0.308-7.776-4.773-7.776
		c-4.312,0-4.851,4.234-4.851,7.776V78.575z"/>
	<path fill="#231F20" d="M217.104,95.822V38.075h14.706c4.928,0,10.856,0.154,15.245,2.695c5.236,3.079,6.083,8.7,6.083,14.244
		v25.64c-0.077,5.774-1.848,10.009-5.774,12.473c-3.542,2.311-7.854,2.695-12.011,2.695H217.104z M230.656,85.428
		c9.085,0.616,9.162-3.08,8.931-10.779V55.784c-0.077-6.775-2.31-7.16-8.931-7.314V85.428z"/>
	<path fill="#231F20" d="M279.55,95.822V90.51h-0.154c-1.155,3.311-4.697,6.698-8.547,6.698c-7.083,0-10.933-3.233-10.933-9.085
		V52.704h12.242V83.58c0.154,2.002,0.693,3.772,3.003,3.618c2.156-0.076,3.542-1.386,3.542-3.618V52.704h12.243v43.118H279.55z"/>
	<path fill="#231F20" d="M318.512,91.973c-3.08,3.388-5.698,5.235-10.548,5.235c-6.93,0-11.241-4.696-11.241-11.549
		c0-9.779,5.312-12.858,10.702-14.63c5.312-1.771,10.625-2.31,10.625-6.93c0-2.387-1.386-4.466-3.85-4.466
		c-4.466,0-4.466,3.08-4.697,6.699h-12.243c-0.231-5.39,1.386-9.086,4.389-11.473c3.002-2.387,7.237-3.388,12.165-3.388
		c12.088,0,16.477,3.696,16.477,13.166v26.41c0,1.616,0.462,3.233,1.001,4.773h-11.934L318.512,91.973z M318.05,74.88
		c-2.464,1.309-4.62,2.001-6.16,3.156c-1.54,1.078-2.849,2.618-2.849,5.544c0,2.694,1.617,4.619,4.542,4.619
		c3.619,0,4.389-3.772,4.466-6.544V74.88z"/>
	<path fill="#231F20" d="M337.994,95.822V38.075h12.243v57.747H337.994z"/>
	<path fill="#231F20" d="M378.111,95.822V38.075h16.092c5.236,0,12.781,0.462,16.554,4.773c3.157,3.542,3.773,7.854,3.773,12.551
		c0,6.236-1.463,13.243-7.623,16.092c-4.697,2.311-10.164,1.617-15.246,1.849v22.482H378.111z M391.662,62.945
		c2.541-0.077,5.467,0.23,7.623-1.463c1.386-1.54,1.694-3.851,1.694-5.852c0-2.233-0.231-5.621-2.541-6.699
		c-1.309-0.462-3.157-0.462-5.313-0.462h-1.463V62.945z"/>
	<path fill="#231F20" d="M420.076,66.256c0-11.087,6.544-14.783,16.015-14.783c10.779,0,16.015,5.082,16.015,14.783v17.555
		c-0.616,9.779-6.699,13.397-16.015,13.397c-8.778,0-16.015-3.542-16.015-13.397V66.256z M432.318,84.581
		c0.231,2.464,1.232,3.772,3.773,3.772s3.542-1.309,3.773-3.772V65.332c0-2.772-0.924-5.005-3.773-5.005
		c-2.849,0-3.773,2.232-3.773,5.005V84.581z"/>
	<path fill="#231F20" d="M459.962,48.47V38.075h12.243V48.47H459.962z M459.962,95.822V52.704h12.243v43.118H459.962z"/>
	<path fill="#231F20" d="M491.916,52.704v5.391h0.154c1.155-3.312,4.697-6.622,8.546-6.622c5.775,0,10.934,3.157,10.934,9.009
		v35.341h-12.243V65.024c-0.154-2.002-0.924-3.696-3.233-3.542c-2.156,0.077-3.311,1.309-3.311,3.542v30.798h-12.242V52.704H491.916
		z"/>
	<path fill="#231F20" d="M516.172,61.56v-8.855h4.851V40.386h12.242v12.318h5.852v8.855h-5.852v22.713
		c0,2.464,1.078,3.003,2.695,3.003c1.386-0.23,1.848-0.153,3.157-0.153v8.623c-2.618,0.385-5.159,0.693-7.854,0.693
		c-6.622,0-10.24-3.388-10.24-9.933V61.56H516.172z"/>
	<path fill="#231F20" d="M57.359,140.676v-3.023c0-4.032-1.449-6.111-3.528-6.111c-3.465-0.063-4.284,1.827-4.284,4.914
		l-0.063,23.374c0,2.646,1.071,4.222,3.969,4.222c3.78,0,4.095-3.906,4.095-6.805v-4.284h11.088v5.796
		c0,8.128-4.662,13.798-16.003,13.798c-10.207,0-14.176-5.418-14.176-15.058v-19.405c0-10.27,4.726-15.058,14.869-15.058
		c9.45,0,15.121,4.032,15.121,13.672v3.969H57.359z"/>
	<path fill="#231F20" d="M73.674,147.229c0-9.072,5.355-12.097,13.105-12.097c8.82,0,13.104,4.158,13.104,12.097v14.365
		c-0.504,8.001-5.481,10.962-13.104,10.962c-7.183,0-13.105-2.897-13.105-10.962V147.229z M83.692,162.224
		c0.189,2.016,1.008,3.087,3.087,3.087s2.898-1.071,3.087-3.087v-15.751c0-2.269-0.756-4.096-3.087-4.096s-3.087,1.827-3.087,4.096
		V162.224z"/>
	<path fill="#231F20" d="M121.492,171.422v-4.348h-0.126c-0.945,2.71-3.843,5.481-6.993,5.481c-5.796,0-8.947-2.646-8.947-7.435
		V136.14h10.018v25.265c0.126,1.638,0.567,3.087,2.458,2.961c1.764-0.062,2.898-1.134,2.898-2.961V136.14h10.018v35.282H121.492z"/>
	<path fill="#231F20" d="M146.44,136.14v4.41h0.126c0.945-2.709,3.843-5.418,6.994-5.418c4.725,0,8.946,2.583,8.946,7.371v28.919
		h-10.018v-25.201c-0.126-1.639-0.756-3.024-2.646-2.898c-1.764,0.063-2.709,1.071-2.709,2.898v25.201h-10.017V136.14H146.44z"/>
	<path fill="#231F20" d="M166.284,143.386v-7.246h3.969v-10.08h10.018v10.08h4.789v7.246h-4.789v18.586
		c0,2.016,0.882,2.457,2.205,2.457c1.134-0.189,1.512-0.126,2.583-0.126v7.056c-2.142,0.315-4.221,0.567-6.427,0.567
		c-5.418,0-8.379-2.772-8.379-8.127v-20.413H166.284z"/>
	<path fill="#231F20" d="M198.918,155.419v6.175c0,1.953,0.882,3.591,3.087,3.717c3.717,0.189,3.339-3.15,3.528-6.111h9.955
		c0.504,9.072-4.41,13.23-13.104,13.356c-7.183,0.063-13.483-2.897-13.483-10.962v-14.365c0-9.072,5.733-12.033,13.483-12.097
		c6.993-0.063,13.483,2.583,13.483,10.207v10.08H198.918z M205.849,148.804v-3.465c0-1.261-0.819-3.592-3.402-3.592
		c-2.835,0-3.528,2.269-3.528,4.726v2.331H205.849z"/>
	<path fill="#231F20" d="M229.977,136.14v5.355h0.126c1.134-3.78,3.591-6.363,7.75-6.363v11.341
		c-1.008-0.189-2.016-0.252-3.024-0.252c-2.835,0-3.969,0.566-4.158,3.465v21.736h-10.018V136.14H229.977z"/>
	<path fill="#231F20" d="M256.373,124.169h25.075v8.82l-13.735,28.982h14.365v9.45h-26.714v-8.442l13.987-29.359h-12.979V124.169z"
		/>
	<path fill="#231F20" d="M285.352,147.229c0-9.072,5.355-12.097,13.105-12.097c8.82,0,13.104,4.158,13.104,12.097v14.365
		c-0.504,8.001-5.481,10.962-13.104,10.962c-7.183,0-13.105-2.897-13.105-10.962V147.229z M295.37,162.224
		c0.189,2.016,1.008,3.087,3.087,3.087s2.898-1.071,3.087-3.087v-15.751c0-2.269-0.756-4.096-3.087-4.096s-3.087,1.827-3.087,4.096
		V162.224z"/>
	<path fill="#231F20" d="M326.618,136.14v4.41h0.126c0.945-2.709,3.843-5.418,6.994-5.418c4.725,0,8.946,2.583,8.946,7.371v28.919
		h-10.018v-25.201c-0.126-1.639-0.756-3.024-2.646-2.898c-1.764,0.063-2.709,1.071-2.709,2.898v25.201h-10.018V136.14H326.618z"/>
	<path fill="#231F20" d="M358.118,155.419v6.175c0,1.953,0.882,3.591,3.087,3.717c3.717,0.189,3.339-3.15,3.528-6.111h9.955
		c0.504,9.072-4.41,13.23-13.104,13.356c-7.183,0.063-13.483-2.897-13.483-10.962v-14.365c0-9.072,5.733-12.033,13.483-12.097
		c6.993-0.063,13.483,2.583,13.483,10.207v10.08H358.118z M365.049,148.804v-3.465c0-1.261-0.819-3.592-3.402-3.592
		c-2.835,0-3.528,2.269-3.528,4.726v2.331H365.049z"/>
</g>
</svg>
