<?xml version="1.0" encoding="utf-8"?>
<!-- Generator: Adobe Illustrator 19.2.1, SVG Export Plug-In . SVG Version: 6.00 Build 0)  -->
<svg version="1.1" id="Interactive" xmlns="http://www.w3.org/2000/svg" xmlns:xlink="http://www.w3.org/1999/xlink" x="0px"
	 y="0px" viewBox="0 0 3600 2782.08" enable-background="new 0 0 3600 2782.08" xml:space="preserve">
<rect id="_x31_0.19" x="1184.537" y="384.575" fill="none" width="268.007" height="268.006"/>
<rect id="_x31_0.22" x="2868.629" y="384.574" fill="none" width="268.007" height="268.006"/>
<rect id="_x31_0.21" x="3179.743" y="384.574" fill="none" width="268.007" height="268.006"/>
<rect id="_x31_0.23" x="717.658" y="384.575" fill="none" width="406.545" height="267.948"/>
<rect id="_x31_0.36" x="1495.651" y="567.641" fill="none" width="268.007" height="84.939"/>
<rect id="_x31_0.20" x="1495.651" y="384.575" fill="none" width="268.007" height="176.003"/>
<rect id="_x31_0.33" x="2854.343" y="1039.829" fill="none" width="268.007" height="84.358"/>
<rect id="_x31_0.32" x="2854.343" y="948.296" fill="none" width="268.007" height="84.358"/>
<rect id="_x31_0.31" x="2854.343" y="856.763" fill="none" width="268.007" height="84.358"/>
<rect id="_x31_0.27" x="3165.457" y="857.261" fill="none" width="268.007" height="268.006"/>
<rect id="_x31_0.26" x="1172.135" y="856.763" fill="none" width="268.007" height="267.922"/>
<rect id="_x31_0.28" x="722.23" y="857.261" fill="none" width="406.545" height="267.948"/>
<rect id="_x31_0.24" x="1805.286" y="358.122" fill="none" width="501.365" height="322.434"/>
<rect id="_x31_0.25" x="2326.558" y="358.122" fill="none" width="501.365" height="322.434"/>
<rect id="_x31_0.29" x="1791.001" y="830.808" fill="none" width="501.365" height="322.434"/>
<rect id="_x31_0.30" x="2312.272" y="830.808" fill="none" width="501.365" height="322.434"/>
<rect id="_x31_0.1" x="142.985" y="729.117" fill="none" width="459" height="288"/>
<rect id="_x31_0.34" x="1483.409" y="857.681" fill="none" width="267.847" height="267.004"/>
<rect id="_x31_0.16" x="1426.049" y="2083.318" fill="none" width="174.009" height="212.251"/>
<rect id="_x31_0.15" x="1187.108" y="1739.946" fill="none" width="174.009" height="214.737"/>
<rect id="_x31_0.14" x="123.545" y="1535.045" fill="none" width="190.289" height="242.271"/>
<rect id="_x31_0.18" x="378.382" y="1140.473" fill="none" width="224.831" height="346.314"/>
<rect id="_x31_0.38" x="106.274" y="1140.473" fill="none" width="224.831" height="346.314"/>
<rect id="_x31_0.37" x="1216.844" y="1843.497" fill="none" width="114.538" height="93.713"/>
<rect id="_x31_0.10" x="2684.564" y="1790.682" fill="none" width="64.102" height="42.887"/>
<rect id="_x31_0.9" x="2342.111" y="1790.682" fill="none" width="64.102" height="42.887"/>
<rect id="_x31_0.8" x="1999.657" y="1790.682" fill="none" width="64.102" height="42.887"/>
<rect id="_x31_0.5" x="1842.609" y="1857.547" fill="none" width="119.341" height="95.499"/>
<rect id="_x31_0.6" x="2185.062" y="1857.547" fill="none" width="119.341" height="95.499"/>
<rect id="_x31_0.7" x="2527.516" y="1857.547" fill="none" width="119.341" height="95.499"/>
<rect id="_x31_0.2" x="1842.609" y="1667.042" fill="none" width="119.341" height="95.499"/>
<rect id="_x31_0.3" x="2185.062" y="1667.042" fill="none" width="119.341" height="95.499"/>
<rect id="_x31_0.4" x="2527.516" y="1667.042" fill="none" width="119.341" height="95.499"/>
<rect id="_x31_0.74" x="1842.609" y="1779.521" fill="none" width="119.341" height="39.657"/>
<rect id="_x31_0.75" x="2185.062" y="1779.521" fill="none" width="119.341" height="39.657"/>
<rect id="_x31_0.76" x="2527.516" y="1779.521" fill="none" width="119.341" height="39.657"/>
<rect id="_x31_0.39" x="359.739" y="1538.899" fill="none" width="258.604" height="80.813"/>
<rect id="_x31_0.77" x="2074.244" y="1884.603" fill="none" width="78.823" height="52.737"/>
<rect id="_x31_0.78" x="2417.373" y="1884.603" fill="none" width="78.823" height="52.737"/>
<rect id="_x31_0.79" x="2760.993" y="1884.603" fill="none" width="78.823" height="52.737"/>
<rect id="_x31_0.13" x="1804.418" y="2083.318" fill="none" width="1007.561" height="212.251"/>
<rect id="_x31_0.12" x="1185.019" y="2083.318" fill="none" width="212.229" height="212.251"/>
<rect id="_x31_0.17" x="1773.532" y="1183.06" fill="none" width="146.132" height="65.011"/>
<rect id="_x31_0.41" x="2686.036" y="1183.06" fill="none" width="146.132" height="65.011"/>
<rect id="_x31_0.86" x="2849.473" y="719.496" fill="none" width="268.007" height="85.275"/>
<rect id="_x31_0.40" x="141.229" y="358.621" fill="none" width="459" height="288"/>
<rect id="_x31_0.71" x="717.658" y="17.375" fill="none" width="406.545" height="267.948"/>
<rect id="_x31_0.73" x="722.23" y="1183.557" fill="none" width="406.545" height="267.948"/>
<rect id="_x31_0.80" x="1184.537" y="17.375" fill="none" width="268.007" height="268.006"/>
<rect id="_x31_0.83" x="2868.629" y="17.374" fill="none" width="268.007" height="268.006"/>
<rect id="_x31_0.84" x="3179.743" y="17.374" fill="none" width="268.007" height="268.006"/>
<rect id="_x31_0.82" x="1495.651" y="200.441" fill="none" width="268.007" height="84.939"/>
<rect id="_x31_0.81" x="1495.651" y="17.375" fill="none" width="268.007" height="176.003"/>
<rect id="_x31_0.87" x="3165.457" y="1183.557" fill="none" width="268.007" height="268.006"/>
<rect id="_x31_0.85" x="1172.135" y="1183.06" fill="none" width="268.007" height="267.922"/>
<rect id="_x31_0.72" x="1483.409" y="1183.977" fill="none" width="267.847" height="267.004"/>
<rect id="_x31_0.11" x="3107.742" y="1625.123" fill="none" width="260.286" height="706.142"/>
</svg>
