<?xml version="1.0" encoding="utf-8"?>
<!-- Generator: Adobe Illustrator 19.2.1, SVG Export Plug-In . SVG Version: 6.00 Build 0)  -->
<svg version="1.1" id="Interactive" xmlns="http://www.w3.org/2000/svg" xmlns:xlink="http://www.w3.org/1999/xlink" x="0px"
	 y="0px" viewBox="0 0 3600 2782.08" enable-background="new 0 0 3600 2782.08" xml:space="preserve">
<rect id="_x31_8.30" x="67.62" y="710.51" fill="none" width="211.82" height="481.1"/>
<rect id="_x31_8.23" x="1041.29" y="1268.65" fill="none" width="262.1" height="194.38"/>
<rect id="_x31_8.26" x="1380.69" y="1417.36" fill="none" width="174.18" height="134.71"/>
<rect id="_x31_8.19" x="585.42" y="560.59" fill="none" width="301.85" height="445.68"/>
<rect id="_x31_8.21" x="585.42" y="1074.93" fill="none" width="301.85" height="445.68"/>
<rect id="_x31_8.18" x="660.89" y="560.59" fill="none" width="150.93" height="445.68"/>
<rect id="_x31_8.22" x="400.92" y="1074.93" fill="none" width="150.93" height="445.68"/>
<rect id="_x31_8.27" x="1384.66" y="1667.46" fill="none" width="165.57" height="115.6"/>
<rect id="_x31_8.25" x="1043.66" y="1606.4" fill="none" width="262.1" height="262.1"/>
<rect id="_x31_8.24" x="707.61" y="1606.4" fill="none" width="262.1" height="262.1"/>
<rect id="_x31_8.28" x="1591.59" y="1417.36" fill="none" width="174.18" height="134.71"/>
<rect id="_x31_8.29" x="1595.57" y="1667.46" fill="none" width="165.57" height="115.6"/>
<rect id="_x31_8.1" x="1584.8" y="528.23" fill="none" width="320.33" height="831.15"/>
<rect id="_x31_8.8" x="2725.85" y="529.42" fill="none" width="320.33" height="831.15"/>
<rect id="_x31_8.11" x="3088.05" y="529.42" fill="none" width="320.33" height="831.15"/>
<rect id="_x31_8.5" x="2363.84" y="529.42" fill="none" width="320.33" height="831.15"/>
<rect id="_x31_8.2" x="2001.84" y="529.42" fill="none" width="320.33" height="831.15"/>
<rect id="_x31_8.14" x="2001.84" y="1405.83" fill="none" width="320.33" height="266.62"/>
<rect id="_x31_8.15" x="2363.84" y="1405.83" fill="none" width="320.33" height="266.62"/>
<rect id="_x31_8.16" x="2725.85" y="1405.83" fill="none" width="320.33" height="266.62"/>
<rect id="_x31_8.17" x="3087.86" y="1405.83" fill="none" width="320.33" height="266.62"/>
<rect id="_x31_8.74" x="3087.86" y="1685.04" fill="none" width="320.33" height="266.62"/>
<rect id="_x31_8.31" x="1816.45" y="30.87" fill="none" width="1769.15" height="471.61"/>
<rect id="_x31_8.20" x="660.89" y="1076.89" fill="none" width="150.93" height="445.68"/>
</svg>
