<?xml version="1.0" encoding="utf-8"?>
<!-- Generator: Adobe Illustrator 19.2.1, SVG Export Plug-In . SVG Version: 6.00 Build 0)  -->
<svg version="1.1" id="Interactive" xmlns="http://www.w3.org/2000/svg" xmlns:xlink="http://www.w3.org/1999/xlink" x="0px"
	 y="0px" viewBox="0 0 3600 2782.08" enable-background="new 0 0 3600 2782.08" xml:space="preserve">
<rect id="_x37_.20" x="1714.423" y="566.893" fill="none" width="603.449" height="334.738"/>
<rect id="_x37_.21" x="2333.981" y="566.893" fill="none" width="603.449" height="334.738"/>
<rect id="_x37_.22" x="2953.538" y="566.893" fill="none" width="603.449" height="334.738"/>
<rect id="_x37_.16" x="1095.006" y="71.883" fill="none" width="603.449" height="334.738"/>
<rect id="_x37_.17" x="1713.811" y="71.883" fill="none" width="603.449" height="334.738"/>
<rect id="_x37_.18" x="2332.615" y="71.883" fill="none" width="603.449" height="334.738"/>
<rect id="_x37_.19" x="2951.42" y="71.883" fill="none" width="603.449" height="334.738"/>
<rect id="_x37_.15" x="476.202" y="71.883" fill="none" width="603.449" height="334.738"/>
<rect id="_x37_.23" x="478.218" y="910.689" fill="none" width="396.726" height="334.738"/>
<rect id="_x37_.30" x="1111.422" y="515.054" fill="none" width="396.727" height="334.738"/>
<rect id="_x37_.26" x="476.202" y="514.477" fill="none" width="603.449" height="334.738"/>
<rect id="_x37_.24" x="478.218" y="1267.222" fill="none" width="397.161" height="334.738"/>
<rect id="_x37_.31" x="1111.422" y="859.781" fill="none" width="396.727" height="334.738"/>
<rect id="_x37_.28" x="113.412" y="1859.841" fill="none" width="190.289" height="242.271"/>
<rect id="_x37_.29" x="97.046" y="1441.528" fill="none" width="224.831" height="346.314"/>
<rect id="_x37_.32" x="97.046" y="1064.827" fill="none" width="224.831" height="346.314"/>
<rect id="_x37_.27" x="85.607" y="2128.58" fill="none" width="258.604" height="80.813"/>
<rect id="_x37_.41" x="2645.71" y="1480.38" fill="none" width="187.87" height="730.213"/>
<rect id="_x37_.12" x="2824.088" y="1309.572" fill="none" width="309.735" height="165.96"/>
<rect id="_x37_.42" x="3113.408" y="1480.38" fill="none" width="187.87" height="730.213"/>
<rect id="_x37_.10" x="2844.288" y="1485.832" fill="none" width="258.412" height="712.7"/>
<rect id="_x37_.11" x="3319.111" y="1485.832" fill="none" width="258.412" height="712.7"/>
<rect id="_x37_.36" x="1735.722" y="1807.104" fill="none" width="78.823" height="52.737"/>
<rect id="_x37_.37" x="2078.851" y="1807.104" fill="none" width="78.823" height="52.737"/>
<rect id="_x37_.38" x="2422.471" y="1807.104" fill="none" width="78.823" height="52.737"/>
<rect id="_x37_.14" x="1342.744" y="1997.201" fill="none" width="174.009" height="212.251"/>
<rect id="_x37_.13" x="799.019" y="1653.828" fill="none" width="174.009" height="214.737"/>
<rect id="_x37_.25" x="828.755" y="1757.38" fill="none" width="114.538" height="93.713"/>
<rect id="_x37_.9" x="2346.876" y="1704.565" fill="none" width="64.102" height="42.887"/>
<rect id="_x37_.8" x="2004.422" y="1704.565" fill="none" width="64.102" height="42.887"/>
<rect id="_x37_.7" x="1661.969" y="1704.565" fill="none" width="64.102" height="42.887"/>
<rect id="_x37_.1" x="1504.92" y="1771.43" fill="none" width="119.341" height="95.499"/>
<rect id="_x37_.5" x="1847.374" y="1580.925" fill="none" width="119.341" height="95.499"/>
<rect id="_x37_.2" x="1847.374" y="1771.43" fill="none" width="119.341" height="95.499"/>
<rect id="_x37_.3" x="2189.827" y="1771.43" fill="none" width="119.341" height="95.499"/>
<rect id="_x37_.4" x="1504.92" y="1580.925" fill="none" width="119.341" height="95.499"/>
<rect id="_x37_.6" x="2189.827" y="1580.925" fill="none" width="119.341" height="95.499"/>
<rect id="_x37_.39" x="1544.62" y="1997.201" fill="none" width="1007.561" height="212.251"/>
<rect id="_x37_.40" x="852.515" y="1997.201" fill="none" width="212.229" height="212.251"/>
<rect id="_x37_.33" x="1504.92" y="1693.403" fill="none" width="119.341" height="39.657"/>
<rect id="_x37_.34" x="1847.374" y="1693.403" fill="none" width="119.341" height="39.657"/>
<rect id="_x37_.35" x="2189.827" y="1693.403" fill="none" width="119.341" height="39.657"/>
</svg>
