<?xml version="1.0" encoding="utf-8"?>
<!-- Generator: Adobe Illustrator 19.2.1, SVG Export Plug-In . SVG Version: 6.00 Build 0)  -->
<svg version="1.1" id="Background_1_" xmlns="http://www.w3.org/2000/svg" xmlns:xlink="http://www.w3.org/1999/xlink" x="0px"
	 y="0px" viewBox="0 0 3600 2782.08" enable-background="new 0 0 3600 2782.08" xml:space="preserve">
<g>
	<g>
		<linearGradient id="SVGID_1_" gradientUnits="userSpaceOnUse" x1="293.2841" y1="686.3582" x2="293.2841" y2="1446.6594">
			<stop  offset="0.1648" style="stop-color:#949494"/>
			<stop  offset="0.5769" style="stop-color:#000000"/>
		</linearGradient>
		<polygon fill="url(#SVGID_1_)" stroke="#010101" stroke-width="0.0968" stroke-linecap="round" stroke-linejoin="round" points="
			51.903,731.361 51.903,999.732 51.903,1042.379 534.665,1042.379 534.665,731.361 		"/>
	</g>
</g>
<rect x="63.785" y="742.872" fill="#FFFFFF" stroke="#010101" stroke-width="2" stroke-linecap="round" stroke-linejoin="round" width="459" height="288"/>
<rect x="569.021" y="889.761" fill="#828487" width="2801.061" height="344.524"/>
<rect x="1205.743" y="880.794" fill="#828487" stroke="#000000" stroke-width="2" stroke-miterlimit="10" width="1065.836" height="365.633"/>
<rect x="606.594" y="928.846" width="268.007" height="268.006"/>
<rect x="2290.683" y="928.93" width="268.007" height="268.006"/>
<rect x="2601.8" y="928.846" width="268.007" height="268.006"/>
<rect x="1257.523" y="893.794" width="116.579" height="262"/>
<rect x="1379.142" y="893.794" width="116.579" height="262"/>
<rect x="1500.761" y="893.794" width="116.579" height="262"/>
<rect x="1622.38" y="893.794" width="116.579" height="262"/>
<rect x="1744" y="893.794" width="116.579" height="262"/>
<rect x="1865.619" y="893.794" width="116.579" height="262"/>
<rect x="1987.238" y="893.794" width="116.579" height="262"/>
<rect x="2108.857" y="893.794" width="116.579" height="262"/>
<rect x="569.021" y="330.675" fill="#828487" width="2801.061" height="344.524"/>
<rect x="1205.743" y="321.708" fill="#828487" stroke="#000000" stroke-width="2" stroke-miterlimit="10" width="1065.836" height="365.633"/>
<rect x="606.594" y="369.76" width="268.007" height="268.006"/>
<rect x="917.708" y="369.76" width="268.007" height="268.006"/>
<rect x="2290.686" y="369.759" width="268.007" height="268.006"/>
<polyline points="2225.46,468.456 2225.46,596.71 2108.881,596.71 "/>
<rect x="1257.523" y="334.708" width="116.579" height="129.083"/>
<rect x="1379.145" y="334.708" width="116.579" height="129.083"/>
<rect x="1500.768" y="334.708" width="116.579" height="129.083"/>
<rect x="1622.39" y="334.708" width="116.579" height="129.083"/>
<rect x="1744.013" y="334.708" width="116.579" height="129.083"/>
<rect x="1865.636" y="334.708" width="116.579" height="129.083"/>
<rect x="1987.258" y="334.708" width="116.579" height="129.083"/>
<rect x="2108.881" y="334.708" width="116.579" height="129.083"/>
<rect x="1257.523" y="467.627" width="116.579" height="129.083"/>
<rect x="1379.145" y="467.627" width="116.579" height="129.083"/>
<rect x="1500.768" y="467.627" width="116.579" height="129.083"/>
<rect x="1622.39" y="467.627" width="116.579" height="129.083"/>
<rect x="1744.013" y="467.627" width="116.579" height="129.083"/>
<rect x="1865.636" y="467.627" width="116.579" height="129.083"/>
<rect x="1987.258" y="467.627" width="116.579" height="129.083"/>
<rect x="2108.881" y="467.627" width="116.579" height="129.083"/>
<rect x="2601.8" y="369.759" width="268.007" height="268.006"/>
<line fill="none" stroke="#000000" stroke-width="3" stroke-miterlimit="10" x1="587.266" y1="1196.794" x2="1205.743" y2="1196.794"/>
<line fill="none" stroke="#000000" stroke-width="3" stroke-miterlimit="10" x1="2271.579" y1="928.872" x2="3349.639" y2="928.872"/>
<line fill="none" stroke="#000000" stroke-width="3" stroke-miterlimit="10" x1="587.266" y1="889.761" x2="587.266" y2="1234.285"/>
<line fill="none" stroke="#000000" stroke-width="3" stroke-miterlimit="10" x1="897.132" y1="889.761" x2="897.132" y2="1234.285"/>
<line fill="none" stroke="#000000" stroke-width="3" stroke-miterlimit="10" x1="1205.743" y1="928.872" x2="1205.743" y2="1196.767"/>
<line fill="none" stroke="#000000" stroke-width="3" stroke-miterlimit="10" x1="2271.579" y1="928.872" x2="2271.579" y2="1196.767"/>
<line fill="none" stroke="#000000" stroke-width="3" stroke-miterlimit="10" x1="2580.298" y1="889.794" x2="2580.298" y2="1234.285"/>
<line fill="none" stroke="#000000" stroke-width="3" stroke-miterlimit="10" x1="2890.783" y1="889.794" x2="2890.783" y2="1234.285"/>
<line fill="none" stroke="#000000" stroke-width="3" stroke-miterlimit="10" x1="3349.639" y1="889.794" x2="3349.639" y2="1234.285"/>
<line fill="none" stroke="#000000" stroke-width="3" stroke-miterlimit="10" x1="587.266" y1="928.872" x2="1205.743" y2="928.872"/>
<line fill="none" stroke="#000000" stroke-width="3" stroke-miterlimit="10" x1="2271.58" y1="1196.794" x2="3349.639" y2="1196.794"/>
<line fill="none" stroke="#000000" stroke-width="2" stroke-miterlimit="10" x1="2107.851" y1="1169.794" x2="2271.58" y2="1169.794"/>
<line fill="none" stroke="#000000" stroke-width="2" stroke-miterlimit="10" x1="2107.851" y1="1224.168" x2="2271.58" y2="1224.168"/>
<line fill="none" stroke="#000000" stroke-width="2" stroke-miterlimit="10" x1="2107.851" y1="1196.767" x2="2271.58" y2="1196.767"/>
<line fill="none" stroke="#000000" stroke-width="2" stroke-miterlimit="10" x1="2107.851" y1="1211.157" x2="2271.58" y2="1211.157"/>
<line fill="none" stroke="#000000" stroke-width="2" stroke-miterlimit="10" x1="2107.851" y1="1182.267" x2="2271.58" y2="1182.267"/>
<line fill="none" stroke="#000000" stroke-width="2" stroke-miterlimit="10" x1="1205.743" y1="1169.794" x2="1373.065" y2="1169.794"/>
<line fill="none" stroke="#000000" stroke-width="2" stroke-miterlimit="10" x1="1205.743" y1="1224.168" x2="1373.065" y2="1224.168"/>
<line fill="none" stroke="#000000" stroke-width="2" stroke-miterlimit="10" x1="1205.743" y1="1196.767" x2="1373.065" y2="1196.767"/>
<line fill="none" stroke="#000000" stroke-width="2" stroke-miterlimit="10" x1="1205.743" y1="1211.157" x2="1373.065" y2="1211.157"/>
<line fill="none" stroke="#000000" stroke-width="2" stroke-miterlimit="10" x1="1205.743" y1="1182.267" x2="1373.065" y2="1182.267"/>
<line fill="none" stroke="#000000" stroke-width="3" stroke-miterlimit="10" x1="587.266" y1="637.708" x2="1205.743" y2="637.708"/>
<line fill="none" stroke="#000000" stroke-width="3" stroke-miterlimit="10" x1="2271.579" y1="369.787" x2="3349.639" y2="369.787"/>
<line fill="none" stroke="#000000" stroke-width="3" stroke-miterlimit="10" x1="587.266" y1="330.675" x2="587.266" y2="675.199"/>
<line fill="none" stroke="#000000" stroke-width="3" stroke-miterlimit="10" x1="897.132" y1="330.675" x2="897.132" y2="675.199"/>
<line fill="none" stroke="#000000" stroke-width="3" stroke-miterlimit="10" x1="1205.743" y1="369.787" x2="1205.743" y2="637.682"/>
<line fill="none" stroke="#000000" stroke-width="3" stroke-miterlimit="10" x1="2271.579" y1="369.787" x2="2271.579" y2="637.682"/>
<line fill="none" stroke="#000000" stroke-width="3" stroke-miterlimit="10" x1="2580.298" y1="330.709" x2="2580.298" y2="675.199"/>
<line fill="none" stroke="#000000" stroke-width="3" stroke-miterlimit="10" x1="2890.783" y1="330.709" x2="2890.783" y2="675.199"/>
<line fill="none" stroke="#000000" stroke-width="3" stroke-miterlimit="10" x1="3349.639" y1="330.709" x2="3349.639" y2="675.199"/>
<line fill="none" stroke="#000000" stroke-width="3" stroke-miterlimit="10" x1="587.266" y1="369.787" x2="1205.743" y2="369.787"/>
<line fill="none" stroke="#000000" stroke-width="3" stroke-miterlimit="10" x1="2271.58" y1="637.708" x2="3349.639" y2="637.708"/>
<line fill="none" stroke="#000000" stroke-width="2" stroke-miterlimit="10" x1="2107.851" y1="610.708" x2="2271.58" y2="610.708"/>
<line fill="none" stroke="#000000" stroke-width="2" stroke-miterlimit="10" x1="2107.851" y1="665.082" x2="2271.58" y2="665.082"/>
<line fill="none" stroke="#000000" stroke-width="2" stroke-miterlimit="10" x1="2107.851" y1="637.682" x2="2271.58" y2="637.682"/>
<line fill="none" stroke="#000000" stroke-width="2" stroke-miterlimit="10" x1="2107.851" y1="652.071" x2="2271.58" y2="652.071"/>
<line fill="none" stroke="#000000" stroke-width="2" stroke-miterlimit="10" x1="2107.851" y1="623.181" x2="2271.58" y2="623.181"/>
<rect x="1373.065" y="609.708" width="180.439" height="56.374"/>
<rect x="1558.504" y="609.708" width="180.439" height="56.374"/>
<rect x="1743.943" y="609.708" width="180.439" height="56.374"/>
<rect x="1929.382" y="609.708" width="180.439" height="56.374"/>
<line fill="none" stroke="#000000" stroke-width="2" stroke-miterlimit="10" x1="1205.743" y1="610.708" x2="1373.065" y2="610.708"/>
<line fill="none" stroke="#000000" stroke-width="2" stroke-miterlimit="10" x1="1205.743" y1="665.082" x2="1373.065" y2="665.082"/>
<line fill="none" stroke="#000000" stroke-width="2" stroke-miterlimit="10" x1="1205.743" y1="637.682" x2="1373.065" y2="637.682"/>
<line fill="none" stroke="#000000" stroke-width="2" stroke-miterlimit="10" x1="1205.743" y1="652.071" x2="1373.065" y2="652.071"/>
<line fill="none" stroke="#000000" stroke-width="2" stroke-miterlimit="10" x1="1205.743" y1="623.181" x2="1373.065" y2="623.181"/>
<rect x="1373.065" y="1168.794" width="180.439" height="56.374"/>
<rect x="1558.504" y="1168.794" width="180.439" height="56.374"/>
<rect x="1743.943" y="1168.794" width="180.439" height="56.374"/>
<rect x="1929.382" y="1168.794" width="180.439" height="56.374"/>
<rect x="917.708" y="928.93" width="268.007" height="85.275"/>
<rect x="917.708" y="1022.269" width="268.007" height="81.243"/>
<rect x="917.708" y="1111.576" width="268.007" height="85.275"/>
<rect x="838.246" y="2312.34" fill="#F2F1EA" stroke="#999999" stroke-linecap="round" stroke-linejoin="round" width="1831.205" height="27.843"/>
<rect x="213.074" y="2342.252" fill="#F2F1EA" stroke="#999999" stroke-linecap="round" stroke-linejoin="round" width="629.543" height="64.049"/>
<polygon fill="#F2F1EA" stroke="#999999" stroke-linecap="round" stroke-linejoin="round" points="842.256,2342.058 
	927.526,2278.784 927.176,2340.732 842.781,2406.625 "/>
<rect x="838.246" y="2280.208" fill="#C4C4C0" stroke="#999999" stroke-linecap="round" stroke-linejoin="round" width="1831.205" height="33.975"/>
<rect x="213.074" y="2316.252" fill="#C4C4C0" stroke="#999999" stroke-linecap="round" stroke-linejoin="round" width="629.543" height="64.049"/>
<polygon fill="#C4C4C0" stroke="#999999" stroke-linecap="round" stroke-linejoin="round" points="842.256,2316.058 
	927.526,2252.784 927.176,2314.732 842.781,2380.625 "/>
<rect x="922.579" y="2058.061" fill="#D6C3AA" width="1760.314" height="224.21"/>
<polygon fill="#AEA08C" points="2682.893,2058.061 750.481,2058.061 750.481,2079.717 2682.893,2079.465 "/>
<polygon fill="#EFEFF0" points="2005.189,1947.809 882.613,1947.809 885.774,1984.604 2640.548,1984.604 2637.387,1947.809 
	2005.189,1947.809 2005.189,1972.757 2005.189,1972.757 "/>
<path fill="#EFEFF0" d="M913.934,1932.177c0,6.163-4.997,11.157-11.167,11.157l0,0c-6.17,0-11.165-4.993-11.165-11.157v-32.572
	c0-6.16,4.995-11.164,11.165-11.164l0,0c6.17,0,11.167,5.004,11.167,11.164V1932.177z"/>
<polygon fill="#D6C3AA" points="2701.899,1991.775 731.468,1993.964 804.021,1976.424 2646.919,1976.424 "/>
<polygon fill="#F2F1EA" stroke="#989898" stroke-width="0.4584" points="2701.899,1991.775 731.235,1992 731.235,2058.061 
	2701.899,2058.061 "/>
<polygon fill="#BCAC97" points="927.748,2281.646 850.451,2342.824 850.155,2042.968 927.435,2015.027 "/>
<polygon fill="#9A8E7D" points="927.748,2079.689 850.63,2104.42 850.63,2079.689 927.435,2059.648 "/>
<rect x="199.695" y="2080.018" fill="#D6C3AA" width="650.935" height="263.376"/>
<polygon fill="#D6C3AA" points="997.534,1978.204 317.545,1980.047 190.714,2005.224 870.48,2005.464 "/>
<g>
	<polygon fill="#B3B3B3" points="675.049,1747.432 658.35,1744.641 658.35,1830.177 675.411,1830.177 	"/>
	<rect x="358.354" y="1744.641" fill="#C2C2C2" width="299.996" height="72.895"/>
</g>
<g>
	<polygon fill="#502B1B" points="427.146,1664.14 448.939,1743.092 485.904,1743.092 507.385,1663.764 	"/>
	<rect x="426.55" y="1655.104" fill="#999999" width="82.921" height="6.265"/>
	
		<linearGradient id="SVGID_2_" gradientUnits="userSpaceOnUse" x1="476.058" y1="1857.924" x2="505.6854" y2="1857.924" gradientTransform="matrix(1 0.002 -0.0019 0.941 -1.4319 -45.7052)">
		<stop  offset="0" style="stop-color:#FFFFFF"/>
		<stop  offset="0.122" style="stop-color:#EFECEA"/>
		<stop  offset="0.3736" style="stop-color:#C6BAB5"/>
		<stop  offset="0.7293" style="stop-color:#856B60"/>
		<stop  offset="1" style="stop-color:#502B1B"/>
	</linearGradient>
	<polygon opacity="0.54" fill="url(#SVGID_2_)" points="471.021,1740.884 482.954,1740.905 500.799,1666.282 488.863,1666.26 	"/>
	
		<linearGradient id="SVGID_3_" gradientUnits="userSpaceOnUse" x1="472.4172" y1="1857.9421" x2="491.6256" y2="1857.9421" gradientTransform="matrix(1 0.002 -0.0019 0.941 -1.4319 -45.7052)">
		<stop  offset="0" style="stop-color:#FFFFFF"/>
		<stop  offset="0.122" style="stop-color:#EFECEA"/>
		<stop  offset="0.3736" style="stop-color:#C6BAB5"/>
		<stop  offset="0.7293" style="stop-color:#856B60"/>
		<stop  offset="1" style="stop-color:#502B1B"/>
	</linearGradient>
	<polygon opacity="0.54" fill="url(#SVGID_3_)" points="467.38,1740.884 468.895,1740.905 486.739,1666.282 485.221,1666.26 	"/>
	<rect x="488.656" y="1655.104" opacity="0.6" fill="#FFFFFF" width="12.785" height="6.387"/>
	<rect x="486.054" y="1655.104" opacity="0.6" fill="#FFFFFF" width="1.326" height="6.387"/>
</g>
<g>
	<polygon fill="#502B1B" points="548.973,1664.14 570.768,1743.092 607.729,1743.092 629.214,1663.764 	"/>
	<rect x="548.372" y="1655.104" fill="#999999" width="82.93" height="6.265"/>
	
		<linearGradient id="SVGID_4_" gradientUnits="userSpaceOnUse" x1="597.884" y1="1857.665" x2="627.5071" y2="1857.665" gradientTransform="matrix(1 0.002 -0.0019 0.941 -1.4319 -45.7052)">
		<stop  offset="0" style="stop-color:#FFFFFF"/>
		<stop  offset="0.122" style="stop-color:#EFECEA"/>
		<stop  offset="0.3736" style="stop-color:#C6BAB5"/>
		<stop  offset="0.7293" style="stop-color:#856B60"/>
		<stop  offset="1" style="stop-color:#502B1B"/>
	</linearGradient>
	<polygon opacity="0.54" fill="url(#SVGID_4_)" points="592.847,1740.884 604.778,1740.905 622.621,1666.282 610.69,1666.26 	"/>
	
		<linearGradient id="SVGID_5_" gradientUnits="userSpaceOnUse" x1="594.2432" y1="1857.6832" x2="613.451" y2="1857.6832" gradientTransform="matrix(1 0.002 -0.0019 0.941 -1.4319 -45.7052)">
		<stop  offset="0" style="stop-color:#FFFFFF"/>
		<stop  offset="0.122" style="stop-color:#EFECEA"/>
		<stop  offset="0.3736" style="stop-color:#C6BAB5"/>
		<stop  offset="0.7293" style="stop-color:#856B60"/>
		<stop  offset="1" style="stop-color:#502B1B"/>
	</linearGradient>
	<polygon opacity="0.54" fill="url(#SVGID_5_)" points="589.206,1740.884 590.722,1740.905 608.565,1666.282 607.045,1666.26 	"/>
	<rect x="610.483" y="1655.104" opacity="0.6" fill="#FFFFFF" width="12.78" height="6.387"/>
	<rect x="607.883" y="1655.104" opacity="0.6" fill="#FFFFFF" width="1.327" height="6.387"/>
</g>
<polygon fill="#F2F1EA" stroke="#989898" stroke-width="0.387" stroke-linecap="round" stroke-linejoin="round" points="
	922.579,1800.621 861.467,1764.115 861.467,1995.484 922.579,1984.486 "/>
<rect x="277.508" y="1764.115" fill="#F2F1EA" stroke="#989898" stroke-width="0.4346" stroke-linecap="round" stroke-linejoin="round" width="583.958" height="231.37"/>
<polygon fill="#F2F1EA" stroke="#989898" stroke-width="0.4366" points="190.714,2005.224 870.046,2005.464 870.046,2080.018 
	190.951,2080.018 "/>
<polygon fill="#F2F1EA" stroke="#989898" stroke-width="0.356" points="870.046,2005.518 933.448,1992.26 933.448,2058.061 
	870.046,2080.166 "/>
<rect x="199.738" y="2080.018" fill="#AEA08C" width="650.892" height="24.402"/>
<polygon fill="#97999C" points="1774.603,1835.952 1607.315,1835.952 1613.802,1964.594 1768.128,1964.594 "/>
<polygon fill="#B3B3B3" points="1774.603,1835.99 1607.315,1835.99 1613.802,1830.614 1768.128,1830.614 "/>
<polygon fill="#B3B3B3" points="1759.761,1980.831 1752.223,1987.655 1628.739,1987.655 1622.166,1980.831 1627.109,1859.652 
	1754.513,1859.652 "/>
<polygon fill="#97999C" points="1753.11,1987.149 1628.813,1987.149 1628.735,1859.652 1753.183,1859.652 "/>
<polygon fill="#B3B3B3" points="1753.036,1862.218 1628.813,1862.218 1627.071,1859.666 1754.485,1859.666 "/>
<g>
	<g>
		<polygon fill="#97999C" points="1855.706,1980.082 1783.608,1980.082 1787.231,1839.574 1852.083,1839.574 		"/>
	</g>
	<rect x="1787.924" y="1796.805" fill="#B3B3B3" width="64.102" height="42.887"/>
</g>
<polygon fill="#97999C" points="2117.056,1835.952 1949.769,1835.952 1956.255,1964.594 2110.581,1964.594 "/>
<polygon fill="#B3B3B3" points="2117.056,1835.99 1949.769,1835.99 1956.255,1830.614 2110.581,1830.614 "/>
<polygon fill="#B3B3B3" points="2102.214,1980.831 2094.677,1987.655 1971.193,1987.655 1964.62,1980.831 1969.562,1859.652 
	2096.967,1859.652 "/>
<polygon fill="#97999C" points="2095.563,1987.149 1971.266,1987.149 1971.188,1859.652 2095.637,1859.652 "/>
<polygon fill="#B3B3B3" points="2095.489,1862.218 1971.266,1862.218 1969.525,1859.666 2096.938,1859.666 "/>
<g>
	<g>
		<polygon fill="#97999C" points="2198.159,1980.082 2126.062,1980.082 2129.684,1839.574 2194.536,1839.574 		"/>
	</g>
	<rect x="2130.378" y="1796.805" fill="#B3B3B3" width="64.102" height="42.887"/>
</g>
<polygon fill="#97999C" points="2459.51,1835.952 2292.223,1835.952 2298.709,1964.594 2453.035,1964.594 "/>
<polygon fill="#B3B3B3" points="2459.51,1835.99 2292.223,1835.99 2298.709,1830.614 2453.035,1830.614 "/>
<polygon fill="#B3B3B3" points="2444.668,1980.831 2437.13,1987.655 2313.646,1987.655 2307.073,1980.831 2312.016,1859.652 
	2439.421,1859.652 "/>
<polygon fill="#97999C" points="2438.017,1987.149 2313.72,1987.149 2313.642,1859.652 2438.091,1859.652 "/>
<polygon fill="#B3B3B3" points="2437.943,1862.218 2313.72,1862.218 2311.978,1859.666 2439.392,1859.666 "/>
<g>
	<g>
		<polygon fill="#97999C" points="2540.613,1980.082 2468.515,1980.082 2472.138,1839.574 2536.99,1839.574 		"/>
	</g>
	<rect x="2472.832" y="1796.805" fill="#B3B3B3" width="64.102" height="42.887"/>
</g>
<g>
	<rect x="2917.225" y="928.872" width="406.545" height="267.922"/>
</g>
<g>
	<rect x="2917.225" y="369.761" width="406.545" height="267.948"/>
</g>
<rect x="1214.316" y="2089.441" fill="#FFFFFF" stroke="#060303" stroke-miterlimit="10" width="174.009" height="212.251"/>
<g>
	<linearGradient id="SVGID_6_" gradientUnits="userSpaceOnUse" x1="1819.6573" y1="1874.8296" x2="1819.6573" y2="2000.7566">
		<stop  offset="0" style="stop-color:#D9D9D9"/>
		<stop  offset="1" style="stop-color:#C4C4C4"/>
	</linearGradient>
	<path fill="url(#SVGID_6_)" d="M1843.77,1971.701c0,0.387-0.317,0.703-0.703,0.703h-46.819c-0.387,0-0.703-0.317-0.703-0.703
		v-26.057c0-0.387,0.317-0.703,0.703-0.703h46.819c0.387,0,0.703,0.317,0.703,0.703V1971.701z"/>
	<path fill="none" stroke="#989898" stroke-width="0.3794" stroke-linecap="round" stroke-linejoin="round" d="M1843.77,1971.701
		c0,0.387-0.317,0.703-0.703,0.703h-46.819c-0.387,0-0.703-0.317-0.703-0.703v-26.057c0-0.387,0.317-0.703,0.703-0.703h46.819
		c0.387,0,0.703,0.317,0.703,0.703V1971.701z"/>
</g>
<g>
	<linearGradient id="SVGID_7_" gradientUnits="userSpaceOnUse" x1="1819.6573" y1="1874.8344" x2="1819.6573" y2="2000.7574">
		<stop  offset="0" style="stop-color:#D9D9D9"/>
		<stop  offset="1" style="stop-color:#C4C4C4"/>
	</linearGradient>
	<path fill="url(#SVGID_7_)" d="M1843.77,1938.741c0,0.387-0.317,0.703-0.703,0.703h-46.819c-0.387,0-0.703-0.317-0.703-0.703
		v-26.056c0-0.387,0.317-0.703,0.703-0.703h46.819c0.387,0,0.703,0.317,0.703,0.703V1938.741z"/>
	<path fill="none" stroke="#989898" stroke-width="0.3794" stroke-linecap="round" stroke-linejoin="round" d="M1843.77,1938.741
		c0,0.387-0.317,0.703-0.703,0.703h-46.819c-0.387,0-0.703-0.317-0.703-0.703v-26.056c0-0.387,0.317-0.703,0.703-0.703h46.819
		c0.387,0,0.703,0.317,0.703,0.703V1938.741z"/>
</g>
<g>
	<linearGradient id="SVGID_8_" gradientUnits="userSpaceOnUse" x1="1819.6573" y1="1874.8333" x2="1819.6573" y2="2000.7478">
		<stop  offset="0" style="stop-color:#D9D9D9"/>
		<stop  offset="1" style="stop-color:#C4C4C4"/>
	</linearGradient>
	<path fill="url(#SVGID_8_)" d="M1843.77,1906.212c0,0.387-0.317,0.703-0.703,0.703h-46.819c-0.387,0-0.703-0.317-0.703-0.703
		v-26.055c0-0.387,0.317-0.703,0.703-0.703h46.819c0.387,0,0.703,0.317,0.703,0.703V1906.212z"/>
	<path fill="none" stroke="#989898" stroke-width="0.3794" stroke-linecap="round" stroke-linejoin="round" d="M1843.77,1906.212
		c0,0.387-0.317,0.703-0.703,0.703h-46.819c-0.387,0-0.703-0.317-0.703-0.703v-26.055c0-0.387,0.317-0.703,0.703-0.703h46.819
		c0.387,0,0.703,0.317,0.703,0.703V1906.212z"/>
</g>
<g>
	<linearGradient id="SVGID_9_" gradientUnits="userSpaceOnUse" x1="1819.6573" y1="1874.832" x2="1819.6573" y2="2000.7548">
		<stop  offset="0" style="stop-color:#D9D9D9"/>
		<stop  offset="1" style="stop-color:#C4C4C4"/>
	</linearGradient>
	<path fill="url(#SVGID_9_)" d="M1843.77,1873.619c0,0.387-0.317,0.703-0.703,0.703h-46.819c-0.387,0-0.703-0.317-0.703-0.703
		v-26.056c0-0.387,0.317-0.703,0.703-0.703h46.819c0.387,0,0.703,0.317,0.703,0.703V1873.619z"/>
	<path fill="none" stroke="#989898" stroke-width="0.3794" stroke-linecap="round" stroke-linejoin="round" d="M1843.77,1873.619
		c0,0.387-0.317,0.703-0.703,0.703h-46.819c-0.387,0-0.703-0.317-0.703-0.703v-26.056c0-0.387,0.317-0.703,0.703-0.703h46.819
		c0.387,0,0.703,0.317,0.703,0.703V1873.619z"/>
</g>
<g>
	<linearGradient id="SVGID_10_" gradientUnits="userSpaceOnUse" x1="2162.1108" y1="1874.8296" x2="2162.1108" y2="2000.7566">
		<stop  offset="0" style="stop-color:#D9D9D9"/>
		<stop  offset="1" style="stop-color:#C4C4C4"/>
	</linearGradient>
	<path fill="url(#SVGID_10_)" d="M2186.224,1971.701c0,0.387-0.316,0.703-0.703,0.703h-46.819c-0.387,0-0.703-0.317-0.703-0.703
		v-26.057c0-0.387,0.317-0.703,0.703-0.703h46.819c0.387,0,0.703,0.317,0.703,0.703V1971.701z"/>
	<path fill="none" stroke="#989898" stroke-width="0.3794" stroke-linecap="round" stroke-linejoin="round" d="M2186.224,1971.701
		c0,0.387-0.316,0.703-0.703,0.703h-46.819c-0.387,0-0.703-0.317-0.703-0.703v-26.057c0-0.387,0.317-0.703,0.703-0.703h46.819
		c0.387,0,0.703,0.317,0.703,0.703V1971.701z"/>
</g>
<g>
	<linearGradient id="SVGID_11_" gradientUnits="userSpaceOnUse" x1="2162.1108" y1="1874.8344" x2="2162.1108" y2="2000.7574">
		<stop  offset="0" style="stop-color:#D9D9D9"/>
		<stop  offset="1" style="stop-color:#C4C4C4"/>
	</linearGradient>
	<path fill="url(#SVGID_11_)" d="M2186.224,1938.741c0,0.387-0.316,0.703-0.703,0.703h-46.819c-0.387,0-0.703-0.317-0.703-0.703
		v-26.056c0-0.387,0.317-0.703,0.703-0.703h46.819c0.387,0,0.703,0.317,0.703,0.703V1938.741z"/>
	<path fill="none" stroke="#989898" stroke-width="0.3794" stroke-linecap="round" stroke-linejoin="round" d="M2186.224,1938.741
		c0,0.387-0.316,0.703-0.703,0.703h-46.819c-0.387,0-0.703-0.317-0.703-0.703v-26.056c0-0.387,0.317-0.703,0.703-0.703h46.819
		c0.387,0,0.703,0.317,0.703,0.703V1938.741z"/>
</g>
<g>
	<linearGradient id="SVGID_12_" gradientUnits="userSpaceOnUse" x1="2162.1108" y1="1874.8333" x2="2162.1108" y2="2000.7478">
		<stop  offset="0" style="stop-color:#D9D9D9"/>
		<stop  offset="1" style="stop-color:#C4C4C4"/>
	</linearGradient>
	<path fill="url(#SVGID_12_)" d="M2186.224,1906.212c0,0.387-0.316,0.703-0.703,0.703h-46.819c-0.387,0-0.703-0.317-0.703-0.703
		v-26.055c0-0.387,0.317-0.703,0.703-0.703h46.819c0.387,0,0.703,0.317,0.703,0.703V1906.212z"/>
	<path fill="none" stroke="#989898" stroke-width="0.3794" stroke-linecap="round" stroke-linejoin="round" d="M2186.224,1906.212
		c0,0.387-0.316,0.703-0.703,0.703h-46.819c-0.387,0-0.703-0.317-0.703-0.703v-26.055c0-0.387,0.317-0.703,0.703-0.703h46.819
		c0.387,0,0.703,0.317,0.703,0.703V1906.212z"/>
</g>
<g>
	<linearGradient id="SVGID_13_" gradientUnits="userSpaceOnUse" x1="2162.1108" y1="1874.832" x2="2162.1108" y2="2000.7548">
		<stop  offset="0" style="stop-color:#D9D9D9"/>
		<stop  offset="1" style="stop-color:#C4C4C4"/>
	</linearGradient>
	<path fill="url(#SVGID_13_)" d="M2186.224,1873.619c0,0.387-0.316,0.703-0.703,0.703h-46.819c-0.387,0-0.703-0.317-0.703-0.703
		v-26.056c0-0.387,0.317-0.703,0.703-0.703h46.819c0.387,0,0.703,0.317,0.703,0.703V1873.619z"/>
	<path fill="none" stroke="#989898" stroke-width="0.3794" stroke-linecap="round" stroke-linejoin="round" d="M2186.224,1873.619
		c0,0.387-0.316,0.703-0.703,0.703h-46.819c-0.387,0-0.703-0.317-0.703-0.703v-26.056c0-0.387,0.317-0.703,0.703-0.703h46.819
		c0.387,0,0.703,0.317,0.703,0.703V1873.619z"/>
</g>
<g>
	<linearGradient id="SVGID_14_" gradientUnits="userSpaceOnUse" x1="2504.5645" y1="1874.8296" x2="2504.5645" y2="2000.7566">
		<stop  offset="0" style="stop-color:#D9D9D9"/>
		<stop  offset="1" style="stop-color:#C4C4C4"/>
	</linearGradient>
	<path fill="url(#SVGID_14_)" d="M2528.677,1971.701c0,0.387-0.316,0.703-0.703,0.703h-46.819c-0.387,0-0.703-0.317-0.703-0.703
		v-26.057c0-0.387,0.317-0.703,0.703-0.703h46.819c0.387,0,0.703,0.317,0.703,0.703V1971.701z"/>
	<path fill="none" stroke="#989898" stroke-width="0.3794" stroke-linecap="round" stroke-linejoin="round" d="M2528.677,1971.701
		c0,0.387-0.316,0.703-0.703,0.703h-46.819c-0.387,0-0.703-0.317-0.703-0.703v-26.057c0-0.387,0.317-0.703,0.703-0.703h46.819
		c0.387,0,0.703,0.317,0.703,0.703V1971.701z"/>
</g>
<g>
	<linearGradient id="SVGID_15_" gradientUnits="userSpaceOnUse" x1="2504.5645" y1="1874.8344" x2="2504.5645" y2="2000.7574">
		<stop  offset="0" style="stop-color:#D9D9D9"/>
		<stop  offset="1" style="stop-color:#C4C4C4"/>
	</linearGradient>
	<path fill="url(#SVGID_15_)" d="M2528.677,1938.741c0,0.387-0.316,0.703-0.703,0.703h-46.819c-0.387,0-0.703-0.317-0.703-0.703
		v-26.056c0-0.387,0.317-0.703,0.703-0.703h46.819c0.387,0,0.703,0.317,0.703,0.703V1938.741z"/>
	<path fill="none" stroke="#989898" stroke-width="0.3794" stroke-linecap="round" stroke-linejoin="round" d="M2528.677,1938.741
		c0,0.387-0.316,0.703-0.703,0.703h-46.819c-0.387,0-0.703-0.317-0.703-0.703v-26.056c0-0.387,0.317-0.703,0.703-0.703h46.819
		c0.387,0,0.703,0.317,0.703,0.703V1938.741z"/>
</g>
<g>
	<linearGradient id="SVGID_16_" gradientUnits="userSpaceOnUse" x1="2504.5645" y1="1874.8333" x2="2504.5645" y2="2000.7478">
		<stop  offset="0" style="stop-color:#D9D9D9"/>
		<stop  offset="1" style="stop-color:#C4C4C4"/>
	</linearGradient>
	<path fill="url(#SVGID_16_)" d="M2528.677,1906.212c0,0.387-0.316,0.703-0.703,0.703h-46.819c-0.387,0-0.703-0.317-0.703-0.703
		v-26.055c0-0.387,0.317-0.703,0.703-0.703h46.819c0.387,0,0.703,0.317,0.703,0.703V1906.212z"/>
	<path fill="none" stroke="#989898" stroke-width="0.3794" stroke-linecap="round" stroke-linejoin="round" d="M2528.677,1906.212
		c0,0.387-0.316,0.703-0.703,0.703h-46.819c-0.387,0-0.703-0.317-0.703-0.703v-26.055c0-0.387,0.317-0.703,0.703-0.703h46.819
		c0.387,0,0.703,0.317,0.703,0.703V1906.212z"/>
</g>
<g>
	<linearGradient id="SVGID_17_" gradientUnits="userSpaceOnUse" x1="2504.5645" y1="1874.832" x2="2504.5645" y2="2000.7548">
		<stop  offset="0" style="stop-color:#D9D9D9"/>
		<stop  offset="1" style="stop-color:#C4C4C4"/>
	</linearGradient>
	<path fill="url(#SVGID_17_)" d="M2528.677,1873.619c0,0.387-0.316,0.703-0.703,0.703h-46.819c-0.387,0-0.703-0.317-0.703-0.703
		v-26.056c0-0.387,0.317-0.703,0.703-0.703h46.819c0.387,0,0.703,0.317,0.703,0.703V1873.619z"/>
	<path fill="none" stroke="#989898" stroke-width="0.3794" stroke-linecap="round" stroke-linejoin="round" d="M2528.677,1873.619
		c0,0.387-0.316,0.703-0.703,0.703h-46.819c-0.387,0-0.703-0.317-0.703-0.703v-26.056c0-0.387,0.317-0.703,0.703-0.703h46.819
		c0.387,0,0.703,0.317,0.703,0.703V1873.619z"/>
</g>
<g>
	<path fill="#58595B" d="M607.1,876.295h10.559v2.494h-13.372v-20.827h2.813V876.295z"/>
	<path fill="#58595B" d="M629.982,878.789v-2.204l-0.058-0.059c-1.073,1.77-2.378,2.698-4.815,2.698
		c-2.234,0-4.931-1.073-4.931-4.699v-10.907h2.552v10.065c0,2.495,1.276,3.336,2.93,3.336c3.22,0,4.177-2.843,4.177-5.047v-8.354
		h2.553v15.171H629.982z"/>
	<path fill="#58595B" d="M648.572,878.789h-2.552v-9.34c0-2.64-0.754-3.975-3.249-3.975c-1.45,0-4.003,0.929-4.003,5.048v8.267
		h-2.553v-15.171h2.408v2.146h0.058c0.551-0.812,1.973-2.581,4.583-2.581c2.35,0,5.308,0.957,5.308,5.279V878.789z"/>
	<path fill="#58595B" d="M661.824,868.723c-0.319-2.03-1.45-3.249-3.597-3.249c-3.162,0-4.177,3.017-4.177,5.715
		c0,2.61,0.638,5.83,4.148,5.83c1.711,0,3.191-1.276,3.626-3.597h2.466c-0.261,2.407-1.741,5.802-6.179,5.802
		c-4.264,0-6.788-3.221-6.788-7.601c0-4.699,2.263-8.44,7.281-8.44c3.974,0,5.482,2.9,5.686,5.54H661.824z"/>
	<path fill="#58595B" d="M679.196,878.789h-2.552v-9.92c0-2.06-0.58-3.395-3.017-3.395c-2.088,0-4.235,1.219-4.235,5.048v8.267
		h-2.553v-20.827h2.553v7.687h0.058c0.725-0.957,2.001-2.465,4.438-2.465c2.35,0,5.308,0.957,5.308,5.279V878.789z"/>
	<path fill="#58595B" d="M682.528,879.34h-1.943l7.136-21.929h1.915L682.528,879.34z"/>
	<path fill="#58595B" d="M691.489,857.962h8.441c5.424,0,8.76,4.119,8.76,10.124c0,4.67-2.031,10.703-8.876,10.703h-8.325V857.962z
		 M694.303,876.382h5.454c3.655,0,6.033-2.872,6.033-8.122s-2.408-7.89-6.236-7.89h-5.25V876.382z"/>
	<path fill="#58595B" d="M712.021,860.862v-2.9h2.553v2.9H712.021z M714.573,878.789h-2.553v-15.171h2.553V878.789z"/>
	<path fill="#58595B" d="M730.757,878.789h-2.552v-9.34c0-2.64-0.754-3.975-3.249-3.975c-1.45,0-4.003,0.929-4.003,5.048v8.267
		H718.4v-15.171h2.408v2.146h0.058c0.551-0.812,1.973-2.581,4.583-2.581c2.35,0,5.308,0.957,5.308,5.279V878.789z"/>
	<path fill="#58595B" d="M746.881,878.789h-2.552v-9.34c0-2.64-0.754-3.975-3.249-3.975c-1.45,0-4.003,0.929-4.003,5.048v8.267
		h-2.553v-15.171h2.408v2.146h0.058c0.551-0.812,1.973-2.581,4.583-2.581c2.35,0,5.308,0.957,5.308,5.279V878.789z"/>
	<path fill="#58595B" d="M763.527,874.032c-0.087,0.725-0.783,2.871-2.698,4.147c-0.696,0.464-1.683,1.045-4.119,1.045
		c-4.264,0-6.788-3.221-6.788-7.601c0-4.699,2.263-8.44,7.281-8.44c4.38,0,6.527,3.48,6.527,8.847h-11.081
		c0,3.162,1.479,4.989,4.409,4.989c2.408,0,3.829-1.856,3.916-2.987H763.527z M761.091,870c-0.145-2.35-1.131-4.525-4.235-4.525
		c-2.35,0-4.206,2.176-4.206,4.525H761.091z"/>
	<path fill="#58595B" d="M769.673,878.789h-2.553v-15.171h2.408v2.523h0.058c1.015-1.769,2.35-2.958,4.264-2.958
		c0.319,0,0.464,0.028,0.667,0.087v2.64h-0.958c-2.378,0-3.887,1.856-3.887,4.061V878.789z"/>
</g>
<g>
	<path fill="#58595B" d="M604.228,300.111h9.166c3.887,0,5.889,2.408,5.889,5.25c0,1.363-0.493,3.279-2.785,4.352
		c1.363,0.551,3.771,1.508,3.771,5.076c0,3.336-2.466,6.15-7.078,6.15h-8.963V300.111z M607.042,308.929h5.077
		c2.697,0,4.351-0.812,4.351-3.365c0-1.943-1.189-3.045-4.322-3.045h-5.105V308.929z M607.042,318.531h6.005
		c2.93,0,4.409-1.479,4.409-3.799c0-2.93-2.582-3.512-4.873-3.512h-5.541V318.531z"/>
	<path fill="#58595B" d="M626.211,320.939h-2.553v-15.172h2.408v2.523h0.058c1.015-1.768,2.35-2.957,4.264-2.957
		c0.319,0,0.464,0.027,0.667,0.086v2.641h-0.958c-2.378,0-3.887,1.855-3.887,4.061V320.939z"/>
	<path fill="#58595B" d="M645.846,316.181c-0.087,0.725-0.783,2.871-2.698,4.148c-0.696,0.463-1.683,1.045-4.119,1.045
		c-4.264,0-6.788-3.221-6.788-7.602c0-4.699,2.263-8.439,7.281-8.439c4.38,0,6.527,3.48,6.527,8.846h-11.081
		c0,3.162,1.479,4.99,4.409,4.99c2.408,0,3.829-1.857,3.916-2.988H645.846z M643.409,312.15c-0.145-2.35-1.131-4.525-4.235-4.525
		c-2.35,0-4.206,2.176-4.206,4.525H643.409z"/>
	<path fill="#58595B" d="M649.003,310.38c0.116-3.627,2.524-5.047,6.266-5.047c1.218,0,5.627,0.348,5.627,4.234v8.73
		c0,0.639,0.319,0.9,0.841,0.9c0.232,0,0.551-0.059,0.841-0.117v1.857c-0.435,0.115-0.812,0.289-1.392,0.289
		c-2.263,0-2.611-1.16-2.698-2.32c-0.986,1.074-2.523,2.467-5.482,2.467c-2.785,0-4.757-1.77-4.757-4.381
		c0-1.277,0.377-4.234,4.612-4.758l4.206-0.521c0.609-0.059,1.334-0.291,1.334-1.799c0-1.596-1.16-2.465-3.568-2.465
		c-2.901,0-3.307,1.77-3.481,2.93H649.003z M658.344,313.193c-0.406,0.32-1.044,0.553-4.206,0.957
		c-1.247,0.176-3.249,0.553-3.249,2.467c0,1.652,0.841,2.639,2.755,2.639c2.379,0,4.699-1.537,4.699-3.566V313.193z"/>
	<path fill="#58595B" d="M677.862,320.939h-3.278l-4.729-7.658l-2.117,1.914v5.744h-2.466v-20.828h2.466v12.068l6.526-6.412h3.249
		l-5.802,5.656L677.862,320.939z"/>
	<path fill="#58595B" d="M682.877,307.886v13.053h-2.553v-13.053h-2.088v-2.119h2.088v-2.609c0-2.293,1.45-3.336,3.945-3.336
		c0.377,0,0.754,0.029,1.16,0.059v2.291c-0.319-0.029-0.725-0.059-1.044-0.059c-1.103,0-1.508,0.551-1.508,1.77v1.885h2.552v2.119
		H682.877z"/>
	<path fill="#58595B" d="M686.826,310.38c0.116-3.627,2.524-5.047,6.266-5.047c1.218,0,5.627,0.348,5.627,4.234v8.73
		c0,0.639,0.319,0.9,0.841,0.9c0.232,0,0.551-0.059,0.841-0.117v1.857c-0.435,0.115-0.812,0.289-1.392,0.289
		c-2.263,0-2.611-1.16-2.698-2.32c-0.986,1.074-2.523,2.467-5.482,2.467c-2.785,0-4.757-1.77-4.757-4.381
		c0-1.277,0.377-4.234,4.612-4.758l4.206-0.521c0.609-0.059,1.334-0.291,1.334-1.799c0-1.596-1.16-2.465-3.568-2.465
		c-2.901,0-3.307,1.77-3.481,2.93H686.826z M696.166,313.193c-0.406,0.32-1.044,0.553-4.206,0.957
		c-1.247,0.176-3.249,0.553-3.249,2.467c0,1.652,0.841,2.639,2.755,2.639c2.379,0,4.699-1.537,4.699-3.566V313.193z"/>
	<path fill="#58595B" d="M711.652,310.089c-0.029-0.957-0.377-2.553-3.597-2.553c-0.783,0-3.017,0.262-3.017,2.146
		c0,1.248,0.783,1.537,2.756,2.031l2.553,0.639c3.162,0.783,4.264,1.943,4.264,4.002c0,3.133-2.582,5.02-6.004,5.02
		c-6.004,0-6.439-3.482-6.526-5.309h2.466c0.087,1.189,0.435,3.104,4.032,3.104c1.828,0,3.481-0.725,3.481-2.408
		c0-1.219-0.841-1.625-3.017-2.176l-2.958-0.725c-2.118-0.521-3.51-1.596-3.51-3.684c0-3.336,2.755-4.844,5.743-4.844
		c5.424,0,5.802,4.002,5.802,4.756H711.652z"/>
	<path fill="#58595B" d="M720.669,307.886v9.861c0,1.189,1.015,1.189,1.538,1.189h0.899v2.002c-0.928,0.086-1.653,0.203-1.914,0.203
		c-2.524,0-3.075-1.422-3.075-3.25v-10.006h-2.06v-2.119h2.06v-4.234h2.552v4.234h2.437v2.119H720.669z"/>
</g>
<g>
	<path fill="#58595B" d="M190.583,1088.027v-12.299c0-0.609,0.058-3.249,0.058-5.192h-0.058l-5.859,17.491h-2.785l-5.859-17.462
		h-0.058c0,1.914,0.058,4.554,0.058,5.163v12.299h-2.727V1067.2h4.032l5.946,17.607h0.058l5.917-17.607h4.003v20.827H190.583z"/>
	<path fill="#58595B" d="M206.763,1077.961c-0.319-2.03-1.45-3.249-3.597-3.249c-3.162,0-4.177,3.017-4.177,5.715
		c0,2.61,0.638,5.83,4.148,5.83c1.711,0,3.191-1.276,3.626-3.597h2.466c-0.261,2.407-1.741,5.802-6.179,5.802
		c-4.264,0-6.788-3.221-6.788-7.601c0-4.699,2.263-8.44,7.281-8.44c3.974,0,5.482,2.9,5.686,5.54H206.763z"/>
	<path fill="#58595B" d="M226.716,1073.465c-0.783-3.655-3.829-4.322-5.831-4.322c-3.771,0-6.817,2.785-6.817,8.268
		c0,4.901,1.741,8.673,6.904,8.673c1.828,0,4.989-0.87,5.946-5.715h2.727c-1.161,7.861-7.542,8.209-9.108,8.209
		c-4.728,0-9.369-3.074-9.369-11.08c0-6.411,3.655-10.849,9.717-10.849c5.366,0,8.151,3.336,8.557,6.816H226.716z"/>
	<path fill="#58595B" d="M232.628,1077.468c0.116-3.626,2.524-5.047,6.266-5.047c1.218,0,5.627,0.348,5.627,4.234v8.731
		c0,0.638,0.319,0.899,0.841,0.899c0.232,0,0.551-0.059,0.841-0.116v1.856c-0.435,0.116-0.812,0.29-1.392,0.29
		c-2.263,0-2.611-1.16-2.698-2.32c-0.986,1.073-2.523,2.466-5.482,2.466c-2.785,0-4.757-1.77-4.757-4.381
		c0-1.276,0.377-4.234,4.612-4.757l4.206-0.522c0.609-0.058,1.334-0.29,1.334-1.798c0-1.596-1.16-2.466-3.568-2.466
		c-2.901,0-3.307,1.77-3.481,2.93H232.628z M241.968,1080.282c-0.406,0.319-1.044,0.552-4.206,0.957
		c-1.247,0.175-3.249,0.552-3.249,2.466c0,1.653,0.841,2.64,2.755,2.64c2.379,0,4.699-1.537,4.699-3.567V1080.282z"/>
	<path fill="#58595B" d="M252.001,1074.974v13.053h-2.553v-13.053h-2.088v-2.118h2.088v-2.61c0-2.292,1.45-3.336,3.945-3.336
		c0.377,0,0.754,0.029,1.16,0.059v2.291c-0.319-0.029-0.725-0.058-1.044-0.058c-1.103,0-1.508,0.551-1.508,1.77v1.885h2.552v2.118
		H252.001z"/>
	<path fill="#58595B" d="M268.917,1083.27c-0.087,0.725-0.783,2.871-2.698,4.147c-0.696,0.464-1.683,1.045-4.119,1.045
		c-4.264,0-6.788-3.221-6.788-7.601c0-4.699,2.263-8.44,7.281-8.44c4.38,0,6.527,3.48,6.527,8.847h-11.081
		c0,3.162,1.479,4.989,4.409,4.989c2.408,0,3.829-1.856,3.916-2.987H268.917z M266.48,1079.238c-0.145-2.35-1.131-4.525-4.235-4.525
		c-2.35,0-4.206,2.176-4.206,4.525H266.48z"/>
	<path fill="#58595B" d="M280.688,1067.2h8.441c5.424,0,8.76,4.119,8.76,10.124c0,4.67-2.031,10.703-8.876,10.703h-8.325V1067.2z
		 M283.501,1085.62h5.454c3.655,0,6.033-2.872,6.033-8.122s-2.408-7.89-6.236-7.89h-5.25V1085.62z"/>
	<path fill="#58595B" d="M318.623,1088.027v-12.299c0-0.609,0.058-3.249,0.058-5.192h-0.058l-5.859,17.491h-2.785l-5.859-17.462
		h-0.058c0,1.914,0.058,4.554,0.058,5.163v12.299h-2.727V1067.2h4.032l5.946,17.607h0.058l5.917-17.607h4.003v20.827H318.623z"/>
	<path fill="#58595B" d="M325.579,1067.2h9.166c3.887,0,5.889,2.408,5.889,5.25c0,1.363-0.493,3.278-2.785,4.352
		c1.363,0.551,3.771,1.508,3.771,5.076c0,3.336-2.466,6.149-7.078,6.149h-8.963V1067.2z M328.392,1076.018h5.077
		c2.697,0,4.351-0.812,4.351-3.365c0-1.943-1.189-3.045-4.322-3.045h-5.105V1076.018z M328.392,1085.62h6.005
		c2.93,0,4.409-1.479,4.409-3.8c0-2.93-2.582-3.511-4.873-3.511h-5.541V1085.62z"/>
	<path fill="#58595B" d="M355.855,1085.533h10.559v2.494h-13.372V1067.2h2.813V1085.533z"/>
	<path fill="#58595B" d="M375.025,1072.421c4.844,0,7.049,4.09,7.049,8.006s-2.205,8.006-7.049,8.006s-7.049-4.09-7.049-8.006
		S370.181,1072.421,375.025,1072.421z M375.025,1086.228c3.655,0,4.409-3.771,4.409-5.801s-0.754-5.802-4.409-5.802
		s-4.409,3.771-4.409,5.802S371.37,1086.228,375.025,1086.228z"/>
	<path fill="#58595B" d="M391.149,1072.421c4.844,0,7.049,4.09,7.049,8.006s-2.205,8.006-7.049,8.006s-7.049-4.09-7.049-8.006
		S386.305,1072.421,391.149,1072.421z M391.149,1086.228c3.655,0,4.409-3.771,4.409-5.801s-0.754-5.802-4.409-5.802
		s-4.409,3.771-4.409,5.802S387.494,1086.228,391.149,1086.228z"/>
	<path fill="#58595B" d="M400.892,1072.856h2.407v2.146h0.058c0.609-0.87,1.77-2.581,4.525-2.581c4.032,0,6.324,3.307,6.324,7.57
		c0,3.626-1.508,8.471-6.671,8.471c-2.031,0-3.365-0.958-4.032-2.031h-0.058v7.601h-2.552V1072.856z M407.476,1086.257
		c2.785,0,4.09-2.523,4.09-5.859c0-1.943-0.203-5.686-4.148-5.686c-3.684,0-4.09,3.975-4.09,6.439
		C403.328,1085.184,405.852,1086.257,407.476,1086.257z"/>
</g>
<g>
	<path fill="#58595B" d="M354.455,1512.686c-0.783-3.655-3.829-4.322-5.831-4.322c-3.771,0-6.817,2.785-6.817,8.268
		c0,4.901,1.741,8.673,6.904,8.673c1.828,0,4.989-0.87,5.946-5.715h2.727c-1.161,7.861-7.542,8.209-9.108,8.209
		c-4.728,0-9.369-3.074-9.369-11.08c0-6.411,3.655-10.849,9.717-10.849c5.366,0,8.151,3.336,8.557,6.816H354.455z"/>
	<path fill="#58595B" d="M363.355,1527.247h-2.553v-15.171h2.408v2.523h0.058c1.015-1.769,2.35-2.958,4.264-2.958
		c0.319,0,0.464,0.028,0.667,0.087v2.64h-0.958c-2.378,0-3.887,1.856-3.887,4.061V1527.247z"/>
	<path fill="#58595B" d="M382.99,1522.49c-0.087,0.725-0.783,2.871-2.698,4.147c-0.696,0.464-1.683,1.045-4.119,1.045
		c-4.264,0-6.788-3.221-6.788-7.601c0-4.699,2.263-8.44,7.281-8.44c4.38,0,6.527,3.48,6.527,8.847h-11.081
		c0,3.162,1.479,4.989,4.409,4.989c2.408,0,3.829-1.856,3.916-2.987H382.99z M380.554,1518.458c-0.145-2.35-1.131-4.525-4.235-4.525
		c-2.35,0-4.206,2.176-4.206,4.525H380.554z"/>
	<path fill="#58595B" d="M391.202,1527.247h-2.64l-4.38-15.171h2.785l2.9,11.922h0.058l2.93-11.922h2.843l2.958,11.922h0.058
		l3.075-11.922h2.553l-4.409,15.171h-2.64l-3.075-11.748h-0.058L391.202,1527.247z"/>
	<path fill="#58595B" d="M418.084,1527.247h-2.813v-20.827h9.369c3.858,0,6.179,2.495,6.179,5.859c0,2.901-1.653,6.179-6.179,6.179
		h-6.556V1527.247z M418.084,1516.051h5.599c2.523,0,4.235-0.929,4.235-3.742c0-2.64-1.798-3.48-4.119-3.48h-5.714V1516.051z"/>
	<path fill="#58595B" d="M438.738,1511.642c4.844,0,7.049,4.09,7.049,8.006s-2.205,8.006-7.049,8.006s-7.049-4.09-7.049-8.006
		S433.894,1511.642,438.738,1511.642z M438.738,1525.448c3.655,0,4.409-3.771,4.409-5.801s-0.754-5.802-4.409-5.802
		s-4.409,3.771-4.409,5.802S435.083,1525.448,438.738,1525.448z"/>
	<path fill="#58595B" d="M457.299,1516.399c-0.029-0.957-0.377-2.553-3.597-2.553c-0.783,0-3.017,0.261-3.017,2.146
		c0,1.247,0.783,1.537,2.756,2.03l2.553,0.639c3.162,0.783,4.264,1.943,4.264,4.003c0,3.133-2.582,5.019-6.004,5.019
		c-6.004,0-6.439-3.481-6.526-5.309h2.466c0.087,1.189,0.435,3.104,4.032,3.104c1.828,0,3.481-0.725,3.481-2.407
		c0-1.219-0.841-1.625-3.017-2.176l-2.958-0.726c-2.118-0.521-3.51-1.595-3.51-3.684c0-3.336,2.755-4.844,5.743-4.844
		c5.424,0,5.802,4.003,5.802,4.757H457.299z"/>
	<path fill="#58595B" d="M466.316,1514.195v9.862c0,1.188,1.015,1.188,1.538,1.188h0.899v2.002
		c-0.928,0.087-1.653,0.203-1.914,0.203c-2.524,0-3.075-1.422-3.075-3.249v-10.007h-2.06v-2.118h2.06v-4.234h2.552v4.234h2.437
		v2.118H466.316z"/>
	<path fill="#58595B" d="M484.125,1522.49c-0.087,0.725-0.783,2.871-2.698,4.147c-0.696,0.464-1.683,1.045-4.119,1.045
		c-4.264,0-6.788-3.221-6.788-7.601c0-4.699,2.263-8.44,7.281-8.44c4.38,0,6.527,3.48,6.527,8.847h-11.081
		c0,3.162,1.479,4.989,4.409,4.989c2.408,0,3.829-1.856,3.916-2.987H484.125z M481.688,1518.458
		c-0.145-2.35-1.131-4.525-4.235-4.525c-2.35,0-4.206,2.176-4.206,4.525H481.688z"/>
	<path fill="#58595B" d="M490.27,1527.247h-2.553v-15.171h2.408v2.523h0.058c1.015-1.769,2.35-2.958,4.264-2.958
		c0.319,0,0.464,0.028,0.667,0.087v2.64h-0.958c-2.378,0-3.887,1.856-3.887,4.061V1527.247z"/>
</g>
<g>
	<path fill="#58595B" d="M2160.868,2030.15l-2.176,6.062h-2.9l7.832-20.827h3.19l7.542,20.827h-3.075l-2.06-6.062H2160.868z
		 M2168.207,2027.656l-3.075-9.167h-0.058l-3.336,9.167H2168.207z"/>
	<path fill="#58595B" d="M2179.514,2036.212h-2.553v-15.171h2.407v2.523h0.059c1.016-1.769,2.35-2.958,4.264-2.958
		c0.319,0,0.465,0.028,0.667,0.087v2.64h-0.957c-2.378,0-3.887,1.856-3.887,4.061V2036.212z"/>
	<path fill="#58595B" d="M2195.757,2026.147c-0.319-2.03-1.451-3.249-3.598-3.249c-3.161,0-4.177,3.017-4.177,5.715
		c0,2.61,0.639,5.83,4.148,5.83c1.711,0,3.19-1.276,3.626-3.597h2.465c-0.261,2.407-1.74,5.802-6.178,5.802
		c-4.265,0-6.788-3.221-6.788-7.601c0-4.699,2.263-8.44,7.281-8.44c3.974,0,5.481,2.9,5.685,5.54H2195.757z"/>
	<path fill="#58595B" d="M2213.128,2036.212h-2.553v-9.92c0-2.06-0.58-3.395-3.017-3.395c-2.088,0-4.234,1.219-4.234,5.048v8.267
		h-2.553v-20.827h2.553v7.687h0.058c0.726-0.957,2.001-2.465,4.438-2.465c2.35,0,5.308,0.957,5.308,5.279V2036.212z"/>
	<path fill="#58595B" d="M2239.895,2021.651c-0.783-3.655-3.829-4.322-5.831-4.322c-3.771,0-6.816,2.785-6.816,8.268
		c0,4.901,1.74,8.673,6.904,8.673c1.827,0,4.989-0.87,5.946-5.715h2.727c-1.16,7.861-7.542,8.209-9.108,8.209
		c-4.729,0-9.369-3.074-9.369-11.08c0-6.411,3.655-10.849,9.717-10.849c5.367,0,8.151,3.336,8.558,6.816H2239.895z"/>
	<path fill="#58595B" d="M2245.807,2025.654c0.115-3.626,2.523-5.047,6.265-5.047c1.219,0,5.628,0.348,5.628,4.234v8.731
		c0,0.638,0.319,0.899,0.841,0.899c0.232,0,0.552-0.059,0.842-0.116v1.856c-0.436,0.116-0.812,0.29-1.393,0.29
		c-2.263,0-2.61-1.16-2.697-2.32c-0.986,1.073-2.524,2.466-5.482,2.466c-2.785,0-4.758-1.77-4.758-4.381
		c0-1.276,0.377-4.234,4.612-4.757l4.206-0.522c0.609-0.058,1.334-0.29,1.334-1.798c0-1.596-1.16-2.466-3.567-2.466
		c-2.9,0-3.307,1.77-3.48,2.93H2245.807z M2255.147,2028.467c-0.406,0.319-1.044,0.552-4.206,0.957
		c-1.247,0.175-3.249,0.552-3.249,2.466c0,1.653,0.842,2.64,2.756,2.64c2.379,0,4.699-1.537,4.699-3.567V2028.467z"/>
	<path fill="#58595B" d="M2264.919,2036.212h-2.553v-15.171h2.407v2.523h0.059c1.016-1.769,2.35-2.958,4.264-2.958
		c0.319,0,0.465,0.028,0.667,0.087v2.64h-0.957c-2.378,0-3.887,1.856-3.887,4.061V2036.212z"/>
	<path fill="#58595B" d="M2284.264,2036.212h-2.407v-2.089h-0.059c-1.103,2.06-2.843,2.524-4.322,2.524
		c-5.163,0-6.671-4.845-6.671-8.471c0-4.264,2.291-7.57,6.323-7.57c2.756,0,3.916,1.711,4.525,2.581l0.058-0.203v-7.6h2.553
		V2036.212z M2277.535,2034.443c1.624,0,4.147-1.073,4.147-5.105c0-2.465-0.406-6.439-4.09-6.439c-3.944,0-4.147,3.742-4.147,5.686
		C2273.445,2031.919,2274.75,2034.443,2277.535,2034.443z"/>
	<path fill="#58595B" d="M2296.325,2015.385h8.441c5.424,0,8.76,4.119,8.76,10.124c0,4.67-2.03,10.703-8.876,10.703h-8.325V2015.385
		z M2299.138,2033.805h5.453c3.655,0,6.034-2.872,6.034-8.122s-2.408-7.89-6.237-7.89h-5.25V2033.805z"/>
	<path fill="#58595B" d="M2316.856,2018.286v-2.9h2.553v2.9H2316.856z M2319.409,2036.212h-2.553v-15.171h2.553V2036.212z"/>
	<path fill="#58595B" d="M2331.851,2025.364c-0.029-0.957-0.378-2.553-3.598-2.553c-0.783,0-3.017,0.261-3.017,2.146
		c0,1.247,0.783,1.537,2.756,2.03l2.553,0.639c3.162,0.783,4.264,1.943,4.264,4.003c0,3.133-2.581,5.019-6.004,5.019
		c-6.005,0-6.439-3.481-6.526-5.309h2.465c0.087,1.189,0.436,3.104,4.032,3.104c1.827,0,3.48-0.725,3.48-2.407
		c0-1.219-0.841-1.625-3.017-2.176l-2.958-0.726c-2.118-0.521-3.511-1.595-3.511-3.684c0-3.336,2.756-4.844,5.744-4.844
		c5.424,0,5.801,4.003,5.801,4.757H2331.851z"/>
	<path fill="#58595B" d="M2337.533,2021.042h2.407v2.146h0.059c0.608-0.87,1.769-2.581,4.524-2.581c4.032,0,6.324,3.307,6.324,7.57
		c0,3.626-1.509,8.471-6.672,8.471c-2.03,0-3.365-0.958-4.032-2.031h-0.058v7.601h-2.553V2021.042z M2344.117,2034.443
		c2.785,0,4.091-2.523,4.091-5.859c0-1.943-0.203-5.686-4.148-5.686c-3.684,0-4.09,3.975-4.09,6.439
		C2339.969,2033.37,2342.493,2034.443,2344.117,2034.443z"/>
	<path fill="#58595B" d="M2356.47,2036.212h-2.553v-20.827h2.553V2036.212z"/>
	<path fill="#58595B" d="M2360.211,2025.654c0.115-3.626,2.523-5.047,6.265-5.047c1.219,0,5.628,0.348,5.628,4.234v8.731
		c0,0.638,0.319,0.899,0.841,0.899c0.232,0,0.552-0.059,0.842-0.116v1.856c-0.436,0.116-0.812,0.29-1.393,0.29
		c-2.263,0-2.61-1.16-2.697-2.32c-0.986,1.073-2.524,2.466-5.482,2.466c-2.785,0-4.758-1.77-4.758-4.381
		c0-1.276,0.377-4.234,4.612-4.757l4.206-0.522c0.609-0.058,1.334-0.29,1.334-1.798c0-1.596-1.16-2.466-3.567-2.466
		c-2.9,0-3.307,1.77-3.48,2.93H2360.211z M2369.551,2028.467c-0.406,0.319-1.044,0.552-4.206,0.957
		c-1.247,0.175-3.249,0.552-3.249,2.466c0,1.653,0.842,2.64,2.756,2.64c2.379,0,4.699-1.537,4.699-3.567V2028.467z"/>
	<path fill="#58595B" d="M2385.044,2021.042h2.813c-1.77,4.96-3.51,9.921-5.453,14.881c-2.408,6.149-2.669,6.497-5.947,6.497
		c-0.377,0-0.667-0.115-1.073-0.231v-2.32c0.319,0.115,0.842,0.261,1.538,0.261c1.334,0,1.479-0.377,2.697-3.51l-5.627-15.577h2.9
		l4.032,12.357h0.058L2385.044,2021.042z"/>
	<path fill="#58595B" d="M2401.687,2036.212h-2.813v-20.827h2.813V2036.212z"/>
	<path fill="#58595B" d="M2418.539,2036.212h-2.553v-9.34c0-2.64-0.754-3.975-3.248-3.975c-1.451,0-4.003,0.929-4.003,5.048v8.267
		h-2.553v-15.171h2.407v2.146h0.058c0.552-0.812,1.973-2.581,4.584-2.581c2.35,0,5.308,0.957,5.308,5.279V2036.212z"/>
	<path fill="#58595B" d="M2430.922,2025.364c-0.029-0.957-0.378-2.553-3.598-2.553c-0.783,0-3.017,0.261-3.017,2.146
		c0,1.247,0.783,1.537,2.756,2.03l2.553,0.639c3.162,0.783,4.264,1.943,4.264,4.003c0,3.133-2.581,5.019-6.004,5.019
		c-6.005,0-6.439-3.481-6.526-5.309h2.465c0.087,1.189,0.436,3.104,4.032,3.104c1.827,0,3.48-0.725,3.48-2.407
		c0-1.219-0.841-1.625-3.017-2.176l-2.958-0.726c-2.118-0.521-3.511-1.595-3.511-3.684c0-3.336,2.756-4.844,5.744-4.844
		c5.424,0,5.801,4.003,5.801,4.757H2430.922z"/>
	<path fill="#58595B" d="M2449.685,2031.456c-0.087,0.725-0.783,2.871-2.697,4.147c-0.696,0.464-1.683,1.045-4.119,1.045
		c-4.265,0-6.788-3.221-6.788-7.601c0-4.699,2.263-8.44,7.281-8.44c4.38,0,6.526,3.48,6.526,8.847h-11.081
		c0,3.162,1.479,4.989,4.409,4.989c2.407,0,3.829-1.856,3.916-2.987H2449.685z M2447.249,2027.423
		c-0.146-2.35-1.132-4.525-4.235-4.525c-2.35,0-4.206,2.176-4.206,4.525H2447.249z"/>
	<path fill="#58595B" d="M2455.831,2036.212h-2.553v-15.171h2.407v2.523h0.059c1.016-1.769,2.35-2.958,4.264-2.958
		c0.319,0,0.465,0.028,0.667,0.087v2.64h-0.957c-2.378,0-3.887,1.856-3.887,4.061V2036.212z"/>
	<path fill="#58595B" d="M2466.874,2023.16v9.862c0,1.188,1.015,1.188,1.537,1.188h0.899v2.002
		c-0.929,0.087-1.653,0.203-1.915,0.203c-2.523,0-3.074-1.422-3.074-3.249v-10.007h-2.06v-2.118h2.06v-4.234h2.553v4.234h2.437
		v2.118H2466.874z"/>
	<path fill="#58595B" d="M2486.624,2014.951c-2.466,4.641-3.945,7.426-3.945,14.387c0,4.786,1.653,8.325,3.974,12.88h-1.711
		c-3.017-4.525-4.989-8.151-4.989-13.576c0-5.104,1.77-9.224,4.902-13.69H2486.624z"/>
	<path fill="#58595B" d="M2494.133,2024.61c0.436,0.028,0.899,0.058,1.335,0.058c1.973,0,3.887-0.783,3.887-3.336
		c0-1.218-0.726-3.22-3.771-3.22c-3.626,0-3.858,2.959-3.975,4.38h-2.494c0-2.987,1.218-6.671,6.584-6.671
		c3.945,0,6.295,2.263,6.295,5.366c0,2.61-1.509,3.857-2.61,4.206v0.058c1.973,0.639,3.394,2.03,3.394,4.757
		c0,3.336-2.146,6.556-7.339,6.556c-1.508,0-2.784-0.377-3.771-0.898c-2.263-1.189-2.872-3.539-3.046-5.889h2.64
		c0.087,1.914,0.551,4.496,4.351,4.496c2.611,0,4.438-1.596,4.438-3.945c0-3.423-3.017-3.742-4.757-3.742
		c-0.378,0-0.783,0.029-1.161,0.029V2024.61z"/>
	<path fill="#58595B" d="M2504.775,2042.217c2.465-4.642,3.944-7.426,3.944-14.388c0-4.786-1.653-8.325-3.974-12.879h1.711
		c3.018,4.524,4.989,8.15,4.989,13.575c0,5.104-1.77,9.224-4.901,13.691H2504.775z"/>
</g>
<g>
	<path fill="#58595B" d="M1624.884,2036.212h-2.813v-20.827h9.63c3.423,0,6.846,1.189,6.846,5.599c0,3.074-1.566,4.206-2.9,4.989
		c1.189,0.493,2.379,1.015,2.494,3.916l0.175,3.771c0.028,1.16,0.174,1.596,1.044,2.089v0.464h-3.452
		c-0.406-1.276-0.493-4.438-0.493-5.222c0-1.711-0.348-3.713-3.713-3.713h-6.816V2036.212z M1624.884,2024.871h6.526
		c2.06,0,4.235-0.522,4.235-3.597c0-3.22-2.35-3.48-3.742-3.48h-7.02V2024.871z"/>
	<path fill="#58595B" d="M1655.22,2031.456c-0.087,0.725-0.783,2.871-2.697,4.147c-0.696,0.464-1.683,1.045-4.119,1.045
		c-4.265,0-6.788-3.221-6.788-7.601c0-4.699,2.263-8.44,7.281-8.44c4.38,0,6.526,3.48,6.526,8.847h-11.081
		c0,3.162,1.479,4.989,4.409,4.989c2.407,0,3.829-1.856,3.916-2.987H1655.22z M1652.784,2027.423
		c-0.146-2.35-1.132-4.525-4.235-4.525c-2.35,0-4.206,2.176-4.206,4.525H1652.784z"/>
	<path fill="#58595B" d="M1671.054,2034.965c0,2.175-0.029,7.629-7.049,7.629c-1.799,0-5.309-0.493-5.802-4.525h2.553
		c0.464,2.407,2.813,2.407,3.423,2.407c4.409,0,4.322-3.538,4.322-5.337v-0.638h-0.058v0.115c-0.668,1.073-2.002,2.031-4.032,2.031
		c-5.163,0-6.672-4.845-6.672-8.471c0-4.264,2.292-7.57,6.323-7.57c2.756,0,3.916,1.711,4.525,2.581h0.058v-2.146h2.408V2034.965z
		 M1664.469,2034.443c1.625,0,4.148-1.073,4.148-5.105c0-2.465-0.406-6.439-4.09-6.439c-3.945,0-4.148,3.742-4.148,5.686
		C1660.38,2031.919,1661.685,2034.443,1664.469,2034.443z"/>
	<path fill="#58595B" d="M1674.647,2018.286v-2.9h2.553v2.9H1674.647z M1677.2,2036.212h-2.553v-15.171h2.553V2036.212z"/>
	<path fill="#58595B" d="M1689.642,2025.364c-0.029-0.957-0.378-2.553-3.598-2.553c-0.783,0-3.017,0.261-3.017,2.146
		c0,1.247,0.783,1.537,2.756,2.03l2.553,0.639c3.162,0.783,4.264,1.943,4.264,4.003c0,3.133-2.581,5.019-6.004,5.019
		c-6.005,0-6.439-3.481-6.526-5.309h2.465c0.087,1.189,0.436,3.104,4.032,3.104c1.827,0,3.48-0.725,3.48-2.407
		c0-1.219-0.841-1.625-3.017-2.176l-2.958-0.726c-2.118-0.521-3.511-1.595-3.511-3.684c0-3.336,2.756-4.844,5.744-4.844
		c5.424,0,5.801,4.003,5.801,4.757H1689.642z"/>
	<path fill="#58595B" d="M1698.66,2023.16v9.862c0,1.188,1.015,1.188,1.537,1.188h0.899v2.002c-0.929,0.087-1.653,0.203-1.915,0.203
		c-2.523,0-3.074-1.422-3.074-3.249v-10.007h-2.06v-2.118h2.06v-4.234h2.553v4.234h2.437v2.118H1698.66z"/>
	<path fill="#58595B" d="M1716.468,2031.456c-0.087,0.725-0.783,2.871-2.697,4.147c-0.696,0.464-1.683,1.045-4.119,1.045
		c-4.265,0-6.788-3.221-6.788-7.601c0-4.699,2.263-8.44,7.281-8.44c4.38,0,6.526,3.48,6.526,8.847h-11.081
		c0,3.162,1.479,4.989,4.409,4.989c2.407,0,3.829-1.856,3.916-2.987H1716.468z M1714.032,2027.423
		c-0.146-2.35-1.132-4.525-4.235-4.525c-2.35,0-4.206,2.176-4.206,4.525H1714.032z"/>
	<path fill="#58595B" d="M1722.614,2036.212h-2.553v-15.171h2.407v2.523h0.059c1.016-1.769,2.35-2.958,4.264-2.958
		c0.319,0,0.465,0.028,0.667,0.087v2.64h-0.957c-2.378,0-3.887,1.856-3.887,4.061V2036.212z"/>
	<path fill="#58595B" d="M1734.508,2015.385h16.911v2.495h-7.049v18.332h-2.813v-18.332h-7.049V2015.385z"/>
	<path fill="#58595B" d="M1756.408,2020.607c4.845,0,7.049,4.09,7.049,8.006s-2.204,8.006-7.049,8.006
		c-4.844,0-7.048-4.09-7.048-8.006S1751.564,2020.607,1756.408,2020.607z M1756.408,2034.414c3.655,0,4.409-3.771,4.409-5.801
		s-0.754-5.802-4.409-5.802c-3.654,0-4.408,3.771-4.408,5.802S1752.754,2034.414,1756.408,2034.414z"/>
	<path fill="#58595B" d="M1766.151,2021.042h2.407v2.146h0.059c0.608-0.87,1.769-2.581,4.524-2.581c4.032,0,6.324,3.307,6.324,7.57
		c0,3.626-1.509,8.471-6.672,8.471c-2.03,0-3.365-0.958-4.032-2.031h-0.058v7.601h-2.553V2021.042z M1772.735,2034.443
		c2.785,0,4.091-2.523,4.091-5.859c0-1.943-0.203-5.686-4.148-5.686c-3.684,0-4.09,3.975-4.09,6.439
		C1768.588,2033.37,1771.111,2034.443,1772.735,2034.443z"/>
	<path fill="#58595B" d="M1782.275,2021.042h2.407v2.146h0.059c0.608-0.87,1.769-2.581,4.524-2.581c4.032,0,6.324,3.307,6.324,7.57
		c0,3.626-1.509,8.471-6.672,8.471c-2.03,0-3.365-0.958-4.032-2.031h-0.058v7.601h-2.553V2021.042z M1788.859,2034.443
		c2.785,0,4.091-2.523,4.091-5.859c0-1.943-0.203-5.686-4.148-5.686c-3.684,0-4.09,3.975-4.09,6.439
		C1784.712,2033.37,1787.235,2034.443,1788.859,2034.443z"/>
	<path fill="#58595B" d="M1811.481,2031.456c-0.087,0.725-0.783,2.871-2.698,4.147c-0.695,0.464-1.682,1.045-4.118,1.045
		c-4.265,0-6.788-3.221-6.788-7.601c0-4.699,2.263-8.44,7.281-8.44c4.38,0,6.526,3.48,6.526,8.847h-11.081
		c0,3.162,1.479,4.989,4.409,4.989c2.407,0,3.829-1.856,3.916-2.987H1811.481z M1809.045,2027.423
		c-0.146-2.35-1.132-4.525-4.235-4.525c-2.35,0-4.206,2.176-4.206,4.525H1809.045z"/>
	<path fill="#58595B" d="M1817.627,2036.212h-2.553v-15.171h2.408v2.523h0.058c1.016-1.769,2.35-2.958,4.264-2.958
		c0.319,0,0.465,0.028,0.667,0.087v2.64h-0.957c-2.378,0-3.887,1.856-3.887,4.061V2036.212z"/>
	<path fill="#58595B" d="M1832.998,2025.364c-0.029-0.957-0.378-2.553-3.598-2.553c-0.783,0-3.017,0.261-3.017,2.146
		c0,1.247,0.783,1.537,2.756,2.03l2.553,0.639c3.162,0.783,4.264,1.943,4.264,4.003c0,3.133-2.581,5.019-6.004,5.019
		c-6.005,0-6.439-3.481-6.526-5.309h2.465c0.087,1.189,0.436,3.104,4.032,3.104c1.827,0,3.48-0.725,3.48-2.407
		c0-1.219-0.841-1.625-3.017-2.176l-2.958-0.726c-2.118-0.521-3.511-1.595-3.511-3.684c0-3.336,2.756-4.844,5.744-4.844
		c5.424,0,5.801,4.003,5.801,4.757H1832.998z"/>
	<path fill="#58595B" d="M1853.704,2014.951c-2.466,4.641-3.945,7.426-3.945,14.387c0,4.786,1.653,8.325,3.974,12.88h-1.711
		c-3.017-4.525-4.989-8.151-4.989-13.576c0-5.104,1.77-9.224,4.902-13.69H1853.704z"/>
	<path fill="#58595B" d="M1861.213,2024.61c0.436,0.028,0.899,0.058,1.335,0.058c1.973,0,3.887-0.783,3.887-3.336
		c0-1.218-0.726-3.22-3.771-3.22c-3.626,0-3.858,2.959-3.975,4.38h-2.494c0-2.987,1.218-6.671,6.584-6.671
		c3.945,0,6.295,2.263,6.295,5.366c0,2.61-1.509,3.857-2.61,4.206v0.058c1.973,0.639,3.394,2.03,3.394,4.757
		c0,3.336-2.146,6.556-7.339,6.556c-1.508,0-2.784-0.377-3.771-0.898c-2.263-1.189-2.872-3.539-3.046-5.889h2.64
		c0.087,1.914,0.551,4.496,4.351,4.496c2.611,0,4.438-1.596,4.438-3.945c0-3.423-3.017-3.742-4.757-3.742
		c-0.378,0-0.783,0.029-1.161,0.029V2024.61z"/>
	<path fill="#58595B" d="M1871.855,2042.217c2.465-4.642,3.944-7.426,3.944-14.388c0-4.786-1.653-8.325-3.974-12.879h1.711
		c3.018,4.524,4.989,8.15,4.989,13.575c0,5.104-1.77,9.224-4.901,13.691H1871.855z"/>
</g>
<g>
	<path fill="#58595B" d="M1234.18,2359.201c-0.783-3.655-3.829-4.322-5.831-4.322c-3.771,0-6.816,2.785-6.816,8.268
		c0,4.901,1.74,8.673,6.904,8.673c1.827,0,4.989-0.87,5.946-5.715h2.727c-1.16,7.861-7.542,8.209-9.108,8.209
		c-4.729,0-9.369-3.074-9.369-11.08c0-6.411,3.655-10.849,9.717-10.849c5.367,0,8.151,3.336,8.558,6.816H1234.18z"/>
	<path fill="#58595B" d="M1246.357,2358.157c4.845,0,7.049,4.09,7.049,8.006s-2.204,8.006-7.049,8.006
		c-4.844,0-7.048-4.09-7.048-8.006S1241.513,2358.157,1246.357,2358.157z M1246.357,2371.963c3.655,0,4.409-3.771,4.409-5.801
		s-0.754-5.802-4.409-5.802c-3.654,0-4.408,3.771-4.408,5.802S1242.703,2371.963,1246.357,2371.963z"/>
	<path fill="#58595B" d="M1266.194,2373.762v-2.204l-0.058-0.059c-1.073,1.77-2.379,2.698-4.815,2.698
		c-2.233,0-4.931-1.073-4.931-4.699v-10.907h2.553v10.065c0,2.495,1.276,3.336,2.93,3.336c3.22,0,4.177-2.843,4.177-5.047v-8.354
		h2.553v15.171H1266.194z"/>
	<path fill="#58595B" d="M1284.784,2373.762h-2.553v-9.34c0-2.64-0.754-3.975-3.248-3.975c-1.451,0-4.003,0.929-4.003,5.048v8.267
		h-2.553v-15.171h2.407v2.146h0.058c0.552-0.812,1.973-2.581,4.584-2.581c2.35,0,5.308,0.957,5.308,5.279V2373.762z"/>
	<path fill="#58595B" d="M1291.684,2360.709v9.862c0,1.188,1.015,1.188,1.537,1.188h0.899v2.002
		c-0.929,0.087-1.653,0.203-1.915,0.203c-2.523,0-3.074-1.422-3.074-3.249v-10.007h-2.06v-2.118h2.06v-4.234h2.553v4.234h2.437
		v2.118H1291.684z"/>
	<path fill="#58595B" d="M1309.492,2369.005c-0.087,0.725-0.783,2.871-2.698,4.147c-0.695,0.464-1.682,1.045-4.118,1.045
		c-4.265,0-6.788-3.22-6.788-7.601c0-4.699,2.263-8.44,7.281-8.44c4.38,0,6.526,3.48,6.526,8.847h-11.081
		c0,3.162,1.479,4.989,4.409,4.989c2.407,0,3.829-1.856,3.916-2.987H1309.492z M1307.055,2364.973
		c-0.146-2.35-1.132-4.525-4.235-4.525c-2.35,0-4.206,2.176-4.206,4.525H1307.055z"/>
	<path fill="#58595B" d="M1315.637,2373.762h-2.553v-15.171h2.408v2.523h0.058c1.016-1.769,2.35-2.958,4.264-2.958
		c0.319,0,0.465,0.028,0.667,0.087v2.64h-0.957c-2.378,0-3.887,1.856-3.887,4.061V2373.762z"/>
	<path fill="#58595B" d="M1347.918,2373.762v-12.299c0-0.609,0.058-3.249,0.058-5.192h-0.058l-5.859,17.491h-2.785l-5.859-17.462
		h-0.058c0,1.914,0.058,4.554,0.058,5.163v12.299h-2.727v-20.827h4.032l5.946,17.607h0.059l5.917-17.607h4.003v20.827H1347.918z"/>
	<path fill="#58595B" d="M1354.526,2363.204c0.115-3.626,2.523-5.047,6.265-5.047c1.219,0,5.628,0.348,5.628,4.234v8.731
		c0,0.638,0.319,0.899,0.841,0.899c0.232,0,0.552-0.059,0.842-0.116v1.856c-0.436,0.116-0.812,0.29-1.393,0.29
		c-2.263,0-2.61-1.16-2.697-2.32c-0.986,1.073-2.524,2.466-5.482,2.466c-2.785,0-4.758-1.77-4.758-4.381
		c0-1.276,0.377-4.234,4.612-4.757l4.206-0.522c0.609-0.058,1.334-0.29,1.334-1.798c0-1.596-1.16-2.466-3.567-2.466
		c-2.9,0-3.307,1.77-3.48,2.93H1354.526z M1363.866,2366.017c-0.406,0.319-1.044,0.552-4.206,0.957
		c-1.247,0.175-3.249,0.552-3.249,2.466c0,1.653,0.842,2.64,2.756,2.64c2.379,0,4.699-1.537,4.699-3.567V2366.017z"/>
	<path fill="#58595B" d="M1373.87,2360.709v9.862c0,1.188,1.015,1.188,1.537,1.188h0.899v2.002
		c-0.929,0.087-1.653,0.203-1.915,0.203c-2.523,0-3.074-1.422-3.074-3.249v-10.007h-2.06v-2.118h2.06v-4.234h2.553v4.234h2.437
		v2.118H1373.87z"/>
</g>
<rect id="_x36_.18_5_" x="296.249" y="1146.596" fill="none" stroke="#060303" stroke-width="2" stroke-miterlimit="10" width="224.831" height="346.314"/>
<ellipse cx="2973.854" cy="2569.066" rx="156.182" ry="43.139"/>
<g>
	<path fill="#999999" d="M3121.448,2557.425l-208.325,49.308c10.375,1.227,21.306,2.153,32.633,2.736l181.918-43.058
		C3126.893,2563.321,3124.765,2560.311,3121.448,2557.425z"/>
	<path fill="#999999" d="M3127.731,2571.486l-163.176,38.622c3.08,0.052,6.179,0.081,9.298,0.081c1.666,0,3.324-0.01,4.978-0.025
		l147.337-34.873C3126.917,2574.038,3127.437,2572.768,3127.731,2571.486z"/>
</g>
<rect x="3102.7" y="1721.655" width="15.338" height="847.407"/>
<rect x="2844.288" y="1721.655" width="258.412" height="13.236"/>
<rect x="2844.288" y="2447.591" width="258.412" height="13.278"/>
<rect x="2828.951" y="1721.655" width="15.338" height="847.407"/>
<rect x="2844.288" y="1734.891" fill="#FFFFFF" stroke="#000000" stroke-width="2" stroke-miterlimit="10" width="258.412" height="712.7"/>
<g>
	<path fill="#58595B" d="M2892.721,2494.472h-2.814v-20.827h9.37c3.857,0,6.178,2.495,6.178,5.859c0,2.901-1.653,6.179-6.178,6.179
		h-6.556V2494.472z M2892.721,2483.276h5.598c2.524,0,4.235-0.929,4.235-3.742c0-2.64-1.799-3.48-4.119-3.48h-5.714V2483.276z"/>
	<path fill="#58595B" d="M2910.932,2494.472h-2.553v-15.171h2.408v2.523h0.058c1.016-1.769,2.35-2.958,4.264-2.958
		c0.319,0,0.465,0.028,0.667,0.087v2.64h-0.957c-2.378,0-3.887,1.856-3.887,4.061V2494.472z"/>
	<path fill="#58595B" d="M2929.958,2489.715c-0.087,0.725-0.783,2.871-2.698,4.147c-0.695,0.464-1.682,1.045-4.118,1.045
		c-4.265,0-6.788-3.221-6.788-7.601c0-4.699,2.263-8.44,7.281-8.44c4.38,0,6.526,3.48,6.526,8.847h-11.081
		c0,3.162,1.479,4.989,4.409,4.989c2.407,0,3.829-1.856,3.916-2.987H2929.958z M2927.521,2485.683
		c-0.146-2.35-1.132-4.525-4.235-4.525c-2.35,0-4.206,2.176-4.206,4.525H2927.521z"/>
	<path fill="#58595B" d="M2939.092,2487.743h-7.106v-2.61h7.106V2487.743z"/>
	<path fill="#58595B" d="M2954.521,2479.737c-0.146-3.22-2.813-4.235-5.163-4.235c-1.77,0-4.758,0.493-4.758,3.655
		c0,1.77,1.248,2.35,2.466,2.64l5.946,1.363c2.698,0.638,4.729,2.263,4.729,5.569c0,4.931-4.583,6.294-8.151,6.294
		c-3.857,0-5.366-1.16-6.294-2.001c-1.77-1.596-2.118-3.336-2.118-5.279h2.64c0,3.771,3.075,4.873,5.744,4.873
		c2.03,0,5.453-0.522,5.453-3.51c0-2.176-1.016-2.872-4.438-3.684l-4.264-0.986c-1.363-0.319-4.438-1.276-4.438-4.902
		c0-3.249,2.118-6.439,7.165-6.439c7.28,0,8.006,4.351,8.122,6.643H2954.521z"/>
	<path fill="#58595B" d="M2973.255,2489.715c-0.087,0.725-0.783,2.871-2.698,4.147c-0.695,0.464-1.682,1.045-4.118,1.045
		c-4.265,0-6.788-3.221-6.788-7.601c0-4.699,2.263-8.44,7.281-8.44c4.38,0,6.526,3.48,6.526,8.847h-11.081
		c0,3.162,1.479,4.989,4.409,4.989c2.407,0,3.829-1.856,3.916-2.987H2973.255z M2970.818,2485.683
		c-0.146-2.35-1.132-4.525-4.235-4.525c-2.35,0-4.206,2.176-4.206,4.525H2970.818z"/>
	<path fill="#58595B" d="M2978.501,2494.472h-2.553v-20.827h2.553V2494.472z"/>
	<path fill="#58595B" d="M2984.33,2494.472h-2.553v-20.827h2.553V2494.472z"/>
	<path fill="#58595B" d="M2998.134,2494.472h-2.814v-20.827h2.814v10.095l10.094-10.095h3.888l-8.674,8.412l8.905,12.415h-3.654
		l-7.281-10.442l-3.277,3.133V2494.472z"/>
	<path fill="#58595B" d="M3013.792,2476.545v-2.9h2.553v2.9H3013.792z M3016.345,2494.472h-2.553v-15.171h2.553V2494.472z"/>
	<path fill="#58595B" d="M3025.741,2478.867c4.845,0,7.049,4.09,7.049,8.006s-2.204,8.006-7.049,8.006
		c-4.844,0-7.048-4.09-7.048-8.006S3020.897,2478.867,3025.741,2478.867z M3025.741,2492.673c3.655,0,4.409-3.771,4.409-5.801
		s-0.754-5.802-4.409-5.802c-3.654,0-4.408,3.771-4.408,5.802S3022.087,2492.673,3025.741,2492.673z"/>
	<path fill="#58595B" d="M3043.693,2483.624c-0.029-0.957-0.378-2.553-3.598-2.553c-0.783,0-3.017,0.261-3.017,2.146
		c0,1.247,0.783,1.537,2.756,2.03l2.553,0.639c3.162,0.783,4.264,1.943,4.264,4.003c0,3.133-2.581,5.019-6.004,5.019
		c-6.005,0-6.439-3.481-6.526-5.309h2.465c0.087,1.189,0.436,3.104,4.032,3.104c1.827,0,3.48-0.725,3.48-2.407
		c0-1.219-0.841-1.625-3.017-2.176l-2.958-0.726c-2.118-0.521-3.511-1.595-3.511-3.684c0-3.336,2.756-4.844,5.744-4.844
		c5.424,0,5.801,4.003,5.801,4.757H3043.693z"/>
	<path fill="#58595B" d="M3061.616,2494.472h-3.277l-4.729-7.658l-2.117,1.915v5.743h-2.466v-20.827h2.466v12.067l6.526-6.411h3.249
		l-5.802,5.656L3061.616,2494.472z"/>
</g>
<g>
	<path fill="#231F20" d="M39.773,95.822V38.075h19.095l7.007,34.109h0.154l7.238-34.109h18.941v57.747H79.272l1.386-45.273h-0.154
		l-9.547,45.273H60.87l-9.316-45.273h-0.154l1.232,45.273H39.773z"/>
	<path fill="#231F20" d="M99.294,95.822V38.075h17.555c10.24,0,18.248,3.311,18.248,14.938c0,5.082-1.848,9.624-6.544,12.165v0.154
		c6.159,3.542,7.468,6.621,7.468,13.782c0,11.703-6.622,16.708-17.632,16.708H99.294z M112.845,60.789
		c5.929-0.385,8.701,0,8.701-6.853c0-5.697-3.927-5.467-8.701-5.467V60.789z M112.845,85.428c6.776-0.154,9.625,0.308,9.625-7.469
		c0-6.698-3.85-6.544-9.625-6.775V85.428z"/>
	<path fill="#231F20" d="M140.566,58.941v-3.003c0-11.396,6.083-17.863,17.709-17.863c10.394,0,16.708,5.159,16.708,15.861
		c0,7.237-2.31,11.396-7.238,16.554l-5.004,4.852c-2.079,2.001-6.93,6.853-7.623,10.086h19.942v10.395h-34.571v-1.925
		c0-9.548,5.929-17.786,12.088-24.562l5.852-6.16c2.772-3.079,3.696-5.544,3.696-9.778c0-2.926-1.309-6.006-4.851-5.697
		c-4.081,0.23-4.466,5.543-4.466,8.469v2.772H140.566z"/>
	<path fill="#231F20" d="M180.606,95.822V38.075h13.551v23.099h0.154l10.009-23.099h13.859l-12.319,25.485l13.089,32.262h-14.321
		l-7.469-20.096l-3.003,5.852v14.244H180.606z"/>
	<path fill="#231F20" d="M57.359,140.676v-3.023c0-4.032-1.449-6.111-3.528-6.111c-3.465-0.063-4.284,1.827-4.284,4.914
		l-0.063,23.374c0,2.646,1.071,4.222,3.969,4.222c3.78,0,4.095-3.906,4.095-6.805v-4.284h11.088v5.796
		c0,8.128-4.662,13.798-16.003,13.798c-10.207,0-14.176-5.418-14.176-15.058v-19.405c0-10.27,4.726-15.058,14.869-15.058
		c9.45,0,15.121,4.032,15.121,13.672v3.969H57.359z"/>
	<path fill="#231F20" d="M73.674,147.229c0-9.072,5.355-12.097,13.105-12.097c8.82,0,13.104,4.158,13.104,12.097v14.365
		c-0.504,8.001-5.481,10.962-13.104,10.962c-7.183,0-13.105-2.897-13.105-10.962V147.229z M83.692,162.224
		c0.189,2.016,1.008,3.087,3.087,3.087s2.898-1.071,3.087-3.087v-15.751c0-2.269-0.756-4.096-3.087-4.096s-3.087,1.827-3.087,4.096
		V162.224z"/>
	<path fill="#231F20" d="M121.492,171.422v-4.348h-0.126c-0.945,2.71-3.843,5.481-6.993,5.481c-5.796,0-8.947-2.646-8.947-7.435
		V136.14h10.018v25.265c0.126,1.638,0.567,3.087,2.458,2.961c1.764-0.062,2.898-1.134,2.898-2.961V136.14h10.018v35.282H121.492z"/>
	<path fill="#231F20" d="M146.44,136.14v4.41h0.126c0.945-2.709,3.843-5.418,6.994-5.418c4.725,0,8.946,2.583,8.946,7.371v28.919
		h-10.018v-25.201c-0.126-1.639-0.756-3.024-2.646-2.898c-1.764,0.063-2.709,1.071-2.709,2.898v25.201h-10.017V136.14H146.44z"/>
	<path fill="#231F20" d="M166.284,143.386v-7.246h3.969v-10.08h10.018v10.08h4.789v7.246h-4.789v18.586
		c0,2.016,0.882,2.457,2.205,2.457c1.134-0.189,1.512-0.126,2.583-0.126v7.056c-2.142,0.315-4.221,0.567-6.427,0.567
		c-5.418,0-8.379-2.772-8.379-8.127v-20.413H166.284z"/>
	<path fill="#231F20" d="M198.918,155.419v6.175c0,1.953,0.882,3.591,3.087,3.717c3.717,0.189,3.339-3.15,3.528-6.111h9.955
		c0.504,9.072-4.41,13.23-13.104,13.356c-7.183,0.063-13.483-2.897-13.483-10.962v-14.365c0-9.072,5.733-12.033,13.483-12.097
		c6.993-0.063,13.483,2.583,13.483,10.207v10.08H198.918z M205.849,148.804v-3.465c0-1.261-0.819-3.592-3.402-3.592
		c-2.835,0-3.528,2.269-3.528,4.726v2.331H205.849z"/>
	<path fill="#231F20" d="M229.977,136.14v5.355h0.126c1.134-3.78,3.591-6.363,7.75-6.363v11.341
		c-1.008-0.189-2.016-0.252-3.024-0.252c-2.835,0-3.969,0.566-4.158,3.465v21.736h-10.018V136.14H229.977z"/>
	<path fill="#231F20" d="M256.373,124.169h25.075v8.82l-13.735,28.982h14.365v9.45h-26.714v-8.442l13.987-29.359h-12.979V124.169z"
		/>
	<path fill="#231F20" d="M285.352,147.229c0-9.072,5.355-12.097,13.105-12.097c8.82,0,13.104,4.158,13.104,12.097v14.365
		c-0.504,8.001-5.481,10.962-13.104,10.962c-7.183,0-13.105-2.897-13.105-10.962V147.229z M295.37,162.224
		c0.189,2.016,1.008,3.087,3.087,3.087s2.898-1.071,3.087-3.087v-15.751c0-2.269-0.756-4.096-3.087-4.096s-3.087,1.827-3.087,4.096
		V162.224z"/>
	<path fill="#231F20" d="M326.618,136.14v4.41h0.126c0.945-2.709,3.843-5.418,6.994-5.418c4.725,0,8.946,2.583,8.946,7.371v28.919
		h-10.018v-25.201c-0.126-1.639-0.756-3.024-2.646-2.898c-1.764,0.063-2.709,1.071-2.709,2.898v25.201h-10.018V136.14H326.618z"/>
	<path fill="#231F20" d="M358.118,155.419v6.175c0,1.953,0.882,3.591,3.087,3.717c3.717,0.189,3.339-3.15,3.528-6.111h9.955
		c0.504,9.072-4.41,13.23-13.104,13.356c-7.183,0.063-13.483-2.897-13.483-10.962v-14.365c0-9.072,5.733-12.033,13.483-12.097
		c6.993-0.063,13.483,2.583,13.483,10.207v10.08H358.118z M365.049,148.804v-3.465c0-1.261-0.819-3.592-3.402-3.592
		c-2.835,0-3.528,2.269-3.528,4.726v2.331H365.049z"/>
</g>
</svg>
