<?xml version="1.0" encoding="utf-8"?>
<!-- Generator: Adobe Illustrator 19.2.1, SVG Export Plug-In . SVG Version: 6.00 Build 0)  -->
<svg version="1.1" id="Interactive" xmlns="http://www.w3.org/2000/svg" xmlns:xlink="http://www.w3.org/1999/xlink" x="0px"
	 y="0px" viewBox="0 0 3600 2782.08" enable-background="new 0 0 3600 2782.08" xml:space="preserve">
<rect id="_x36_.135" x="1861.678" y="1899.345" fill="none" width="78.823" height="52.737"/>
<rect id="_x36_.136" x="2204.807" y="1899.345" fill="none" width="78.823" height="52.737"/>
<rect id="_x36_.137" x="2548.427" y="1899.345" fill="none" width="78.823" height="52.737"/>
<rect id="_x36_.17" x="1209.585" y="1259.781" fill="none" width="146.132" height="65.011"/>
<rect id="_x36_.94" x="2129.29" y="1259.781" fill="none" width="146.132" height="65.011"/>
<rect id="_x36_.30" x="1373.065" y="1168.794" fill="none" width="736.757" height="56.374"/>
<rect id="_x36_.93" x="1373.065" y="1259.781" fill="none" width="736.757" height="56.374"/>
<rect id="_x36_.92" x="1373.065" y="702.638" fill="none" width="736.757" height="56.374"/>
<rect id="_x36_.27" x="2290.683" y="928.93" fill="none" width="268.007" height="268.006"/>
<rect id="_x36_.19" x="606.594" y="369.76" fill="none" width="268.007" height="268.006"/>
<rect id="_x36_.26" x="606.594" y="928.846" fill="none" width="268.007" height="268.006"/>
<rect id="_x36_.25" x="1373.065" y="609.708" fill="none" width="736.757" height="56.374"/>
<rect id="_x36_.20" x="917.708" y="369.76" fill="none" width="268.007" height="268.006"/>
<rect id="_x36_.22" x="2290.686" y="369.759" fill="none" width="268.007" height="268.006"/>
<rect id="_x36_.21" x="2601.8" y="368.432" fill="none" width="268.007" height="268.006"/>
<rect id="_x36_.1" x="63.785" y="742.872" fill="none" width="459" height="288"/>
<rect id="_x36_.89" x="63.785" y="400.108" fill="none" width="459" height="288"/>
<rect id="_x36_.31" x="917.708" y="928.93" fill="none" width="268.007" height="85.275"/>
<rect id="_x36_.32" x="917.708" y="1022.269" fill="none" width="268.007" height="81.243"/>
<rect id="_x36_.33" x="917.708" y="1111.576" fill="none" width="268.007" height="85.275"/>
<rect id="_x36_.16" x="1214.316" y="2089.441" fill="none" width="174.009" height="212.251"/>
<rect id="_x36_.15" x="975.375" y="1746.069" fill="none" width="174.009" height="214.737"/>
<rect id="_x36_.14" x="41.412" y="1541.168" fill="none" width="190.289" height="242.271"/>
<rect id="_x36_.18" x="296.249" y="1146.596" fill="none" width="224.831" height="346.314"/>
<rect id="_x36_.90" x="24.141" y="1146.596" fill="none" width="224.831" height="346.314"/>
<rect id="_x36_.36" x="1005.111" y="1849.62" fill="none" width="114.538" height="93.713"/>
<rect id="_x36_.10" x="2472.832" y="1796.805" fill="none" width="64.102" height="42.887"/>
<rect id="_x36_.9" x="2130.378" y="1796.805" fill="none" width="64.102" height="42.887"/>
<rect id="_x36_.8" x="1787.924" y="1796.805" fill="none" width="64.102" height="42.887"/>
<rect id="_x36_.5" x="1630.876" y="1863.67" fill="none" width="119.341" height="95.499"/>
<rect id="_x36_.6" x="1973.33" y="1863.67" fill="none" width="119.341" height="95.499"/>
<rect id="_x36_.7" x="2315.783" y="1863.67" fill="none" width="119.341" height="95.499"/>
<rect id="_x36_.37" x="1630.876" y="1673.166" fill="none" width="119.341" height="95.499"/>
<rect id="_x36_.38" x="1973.33" y="1673.166" fill="none" width="119.341" height="95.499"/>
<rect id="_x36_.39" x="2315.783" y="1673.166" fill="none" width="119.341" height="95.499"/>
<g id="EVMs_2_">
	<rect x="1257.523" y="893.794" fill="none" width="116.579" height="262"/>
	<rect x="1379.142" y="893.794" fill="none" width="116.579" height="262"/>
	<rect x="1500.761" y="893.794" fill="none" width="116.579" height="262"/>
	<rect x="1622.38" y="893.794" fill="none" width="116.579" height="262"/>
	<rect x="1744" y="893.794" fill="none" width="116.579" height="262"/>
	<rect x="1865.619" y="893.794" fill="none" width="116.579" height="262"/>
	<rect x="1987.238" y="893.794" fill="none" width="116.579" height="262"/>
	<rect x="2108.857" y="893.794" fill="none" width="116.579" height="262"/>
</g>
<rect id="EVM_Full_Shape" x="1257.523" y="893.794" fill="none" width="967.914" height="262"/>
<g id="BVMs_2_">
	<rect x="1257.523" y="334.708" fill="none" width="116.579" height="129.083"/>
	<rect x="1379.145" y="334.708" fill="none" width="116.579" height="129.083"/>
	<rect x="1500.768" y="334.708" fill="none" width="116.579" height="129.083"/>
	<rect x="1622.39" y="334.708" fill="none" width="116.579" height="129.083"/>
	<rect x="1744.013" y="334.708" fill="none" width="116.579" height="129.083"/>
	<rect x="1865.636" y="334.708" fill="none" width="116.579" height="129.083"/>
	<rect x="1987.258" y="334.708" fill="none" width="116.579" height="129.083"/>
	<rect x="2108.881" y="334.708" fill="none" width="116.579" height="129.083"/>
	<rect x="1257.523" y="467.627" fill="none" width="116.579" height="129.083"/>
	<rect x="1379.145" y="467.627" fill="none" width="116.579" height="129.083"/>
	<rect x="1500.768" y="467.627" fill="none" width="116.579" height="129.083"/>
	<rect x="1622.39" y="467.627" fill="none" width="116.579" height="129.083"/>
	<rect x="1744.013" y="467.627" fill="none" width="116.579" height="129.083"/>
	<rect x="1865.636" y="467.627" fill="none" width="116.579" height="129.083"/>
	<rect x="1987.258" y="467.627" fill="none" width="116.579" height="129.083"/>
	<rect x="2108.881" y="467.627" fill="none" width="116.579" height="129.083"/>
</g>
<rect id="BVM_Full_Shape" x="1257.523" y="334.708" fill="none" width="967.914" height="262.001"/>
<rect id="_x36_.23" x="2917.225" y="368.434" fill="none" width="406.545" height="267.948"/>
<rect id="_x36_.28" x="2917.225" y="928.846" fill="none" width="406.545" height="267.948"/>
<rect id="_x36_.34" x="2601.8" y="928.846" fill="none" width="267.847" height="268.006"/>
<rect id="_x36_.91" x="277.607" y="1545.022" fill="none" width="258.604" height="80.813"/>
<rect id="_x36_.79" x="606.594" y="22.928" fill="none" width="268.007" height="268.006"/>
<rect id="_x36_.80" x="917.708" y="22.928" fill="none" width="268.007" height="268.006"/>
<rect id="_x36_.81" x="2290.686" y="22.927" fill="none" width="268.007" height="268.006"/>
<rect id="_x36_.82" x="2601.8" y="21.6" fill="none" width="268.007" height="268.006"/>
<rect id="_x36_.83" x="2917.225" y="21.602" fill="none" width="406.545" height="267.948"/>
<rect id="_x36_.84" x="606.594" y="1243.796" fill="none" width="268.007" height="268.006"/>
<rect id="_x36_.86" x="2290.686" y="1258.194" fill="none" width="268.007" height="268.006"/>
<rect id="_x36_.87" x="2601.8" y="1258.194" fill="none" width="268.007" height="268.006"/>
<rect id="_x36_.88" x="2917.225" y="1258.196" fill="none" width="406.545" height="267.948"/>
<rect id="_x36_.42" x="1592.685" y="2089.441" fill="none" width="1007.561" height="212.251"/>
<rect id="_x36_.41" x="973.287" y="2089.441" fill="none" width="212.229" height="212.251"/>
<rect id="_x36_.95" x="917.708" y="795.73" fill="none" width="268.007" height="85.275"/>
<rect id="_x36_.130" x="1630.876" y="1785.644" fill="none" width="119.341" height="39.657"/>
<rect id="_x36_.131" x="1973.33" y="1785.644" fill="none" width="119.341" height="39.657"/>
<rect id="_x36_.132" x="2315.783" y="1785.644" fill="none" width="119.341" height="39.657"/>
<rect id="_x36_.133" x="2645.71" y="1729.439" fill="none" width="187.87" height="730.213"/>
<rect id="_x36_.13" x="2824.088" y="1558.63" fill="none" width="309.735" height="165.96"/>
<rect id="_x36_.134" x="3113.408" y="1729.439" fill="none" width="187.87" height="730.213"/>
<rect id="_x36_.11" x="2844.288" y="1734.891" fill="none" width="258.412" height="712.7"/>
<rect id="_x36_.12" x="3319.111" y="1734.891" fill="none" width="258.412" height="712.7"/>
</svg>
