<?xml version="1.0" encoding="utf-8"?>
<!-- Generator: Adobe Illustrator 19.2.1, SVG Export Plug-In . SVG Version: 6.00 Build 0)  -->
<svg version="1.1" id="Interactive_1_" xmlns="http://www.w3.org/2000/svg" xmlns:xlink="http://www.w3.org/1999/xlink" x="0px"
	 y="0px" viewBox="0 0 3600 2782.08" enable-background="new 0 0 3600 2782.08" xml:space="preserve">
<rect id="_x31_4.20" x="1664.153" y="892.242" fill="none" width="346.308" height="612.114"/>
<rect id="_x31_4.21" x="2037.932" y="892.242" fill="none" width="346.308" height="612.114"/>
<rect id="_x31_4.22" x="2408.794" y="892.242" fill="none" width="346.308" height="612.114"/>
<rect id="_x31_4.14" x="1206.74" y="122.9" fill="none" width="339.308" height="605.114"/>
<rect id="_x31_4.19" x="767.413" y="122.9" fill="none" width="339.308" height="605.114"/>
<rect id="_x31_4.15" x="1553.048" y="122.9" fill="none" width="339.308" height="605.114"/>
<rect id="_x31_4.16" x="1899.356" y="122.9" fill="none" width="339.308" height="605.114"/>
<rect id="_x31_4.17" x="2245.664" y="122.9" fill="none" width="339.308" height="605.114"/>
<rect id="_x31_4.18" x="2591.971" y="122.9" fill="none" width="339.308" height="605.114"/>
<rect id="_x31_4.12" x="185.412" y="1613.168" fill="none" width="190.289" height="242.271"/>
<rect id="_x31_4.13" x="440.249" y="1218.596" fill="none" width="224.831" height="346.314"/>
<rect id="_x31_4.30" x="168.141" y="1218.596" fill="none" width="224.831" height="346.314"/>
<rect id="_x31_4.29" x="421.607" y="1617.022" fill="none" width="258.604" height="80.813"/>
<rect id="_x31_4.27" x="3028.273" y="429.994" fill="none" width="335.276" height="298.021"/>
<rect id="_x31_4.24" x="1202.647" y="793.182" fill="none" width="335.276" height="298.022"/>
<rect id="_x31_4.23" x="767.413" y="764.382" fill="none" width="335.276" height="298.482"/>
<rect id="_x31_4.25" x="1202.647" y="1112.802" fill="none" width="335.276" height="298.021"/>
<rect id="_x31_4.26" x="1202.647" y="1432.423" fill="none" width="335.276" height="298.021"/>
<rect id="_x31_4.33" x="2645.71" y="1552.38" fill="none" width="187.87" height="730.213"/>
<rect id="_x31_4.9" x="2824.088" y="1381.572" fill="none" width="309.735" height="165.96"/>
<rect id="_x31_4.34" x="3113.408" y="1552.38" fill="none" width="187.87" height="730.213"/>
<rect id="_x31_4.7" x="2844.288" y="1557.832" fill="none" width="258.412" height="712.7"/>
<rect id="_x31_4.8" x="3319.111" y="1557.832" fill="none" width="258.412" height="712.7"/>
<rect id="_x31_4.38" x="1785.661" y="1879.104" fill="none" width="78.823" height="52.737"/>
<rect id="_x31_4.39" x="2128.791" y="1879.104" fill="none" width="78.823" height="52.737"/>
<rect id="_x31_4.40" x="2472.41" y="1879.104" fill="none" width="78.823" height="52.737"/>
<rect id="_x31_4.11" x="1392.683" y="2069.201" fill="none" width="174.009" height="212.251"/>
<rect id="_x31_4.10" x="799.019" y="1725.828" fill="none" width="174.009" height="214.737"/>
<rect id="_x31_4.28" x="828.755" y="1829.38" fill="none" width="114.538" height="93.713"/>
<rect id="_x31_4.6" x="2396.815" y="1776.565" fill="none" width="64.102" height="42.887"/>
<rect id="_x31_4.5" x="2054.361" y="1776.565" fill="none" width="64.102" height="42.887"/>
<rect id="_x31_4.4" x="1711.908" y="1776.565" fill="none" width="64.102" height="42.887"/>
<rect id="_x31_4.42" x="1554.859" y="1843.43" fill="none" width="119.341" height="95.499"/>
<rect id="_x31_4.2" x="1897.313" y="1652.925" fill="none" width="119.341" height="95.499"/>
<rect id="_x31_4.43" x="1897.313" y="1843.43" fill="none" width="119.341" height="95.499"/>
<rect id="_x31_4.44" x="2239.767" y="1843.43" fill="none" width="119.341" height="95.499"/>
<rect id="_x31_4.1" x="1554.859" y="1652.925" fill="none" width="119.341" height="95.499"/>
<rect id="_x31_4.3" x="2239.767" y="1652.925" fill="none" width="119.341" height="95.499"/>
<rect id="_x31_4.32" x="1594.559" y="2069.201" fill="none" width="1007.561" height="212.251"/>
<rect id="_x31_4.31" x="852.515" y="2069.201" fill="none" width="212.229" height="212.251"/>
<rect id="_x31_4.35" x="1554.859" y="1765.403" fill="none" width="119.341" height="39.657"/>
<rect id="_x31_4.36" x="1897.313" y="1765.403" fill="none" width="119.341" height="39.657"/>
<rect id="_x31_4.37" x="2239.767" y="1765.403" fill="none" width="119.341" height="39.657"/>
</svg>
