<?xml version="1.0" encoding="utf-8"?>
<!-- Generator: Adobe Illustrator 19.2.1, SVG Export Plug-In . SVG Version: 6.00 Build 0)  -->
<svg version="1.1" id="Background" xmlns="http://www.w3.org/2000/svg" xmlns:xlink="http://www.w3.org/1999/xlink" x="0px" y="0px"
	 viewBox="0 0 3600 2782.08" enable-background="new 0 0 3600 2782.08" xml:space="preserve">
<rect x="86.63" y="44.305" fill="#F2F1EA" width="3435.269" height="1437.46"/>
<rect x="86.63" y="1065.546" fill="#E6E3D4" stroke="#A4A196" stroke-width="2.0849" width="3435.269" height="398.339"/>
<rect x="86.63" y="1055.771" fill="#E6E3D4" stroke="#A4A196" stroke-width="2" width="3435.269" height="38.575"/>
<rect x="86.629" y="44.305" fill="#E6E3D4" stroke="#A4A196" stroke-width="0.651" width="3435.27" height="41.148"/>
<rect x="86.629" y="44.305" fill="none" stroke="#A4A196" stroke-width="2" width="3435.27" height="1448.38"/>
<rect x="112.205" y="1454.108" fill="#F2F1EA" stroke="#D3D1C7" stroke-width="2.0849" width="3409.694" height="38.577"/>
<rect x="1535.22" y="323.519" fill="#C3C2BC" width="22.06" height="806.614"/>
<rect x="657.451" y="323.519" fill="#C3C2BC" width="18.609" height="806.614"/>
<rect x="657.326" y="322.989" fill="none" stroke="#A4A196" stroke-width="2.7322" width="899.954" height="807.145"/>
<polygon fill="#ABABAB" points="675.471,338.11 658.4,323.519 1557.281,323.519 1536.438,338.11 "/>
<polygon fill="#ABABAB" points="1536.804,1115.484 1557.297,1130.06 657.477,1130.06 675.471,1115.484 "/>
<linearGradient id="SVGID_1_" gradientUnits="userSpaceOnUse" x1="1106.1373" y1="1145.6959" x2="1106.1373" y2="-468.6792">
	<stop  offset="0" style="stop-color:#FFFFFF"/>
	<stop  offset="1" style="stop-color:#AFD3D7"/>
</linearGradient>
<rect x="675.471" y="339.539" fill="url(#SVGID_1_)" stroke="#A4A196" stroke-width="2.737" width="861.333" height="774.596"/>
<g>
	<path fill="#58595B" d="M1048.583,707.92h-2.814v-20.827h14.417v2.495h-11.603v6.382h10.21v2.494h-10.21V707.92z"/>
	<path fill="#58595B" d="M1061.347,697.361c0.115-3.626,2.523-5.047,6.265-5.047c1.219,0,5.628,0.348,5.628,4.235v8.73
		c0,0.639,0.319,0.899,0.841,0.899c0.232,0,0.552-0.058,0.842-0.116v1.856c-0.436,0.116-0.812,0.29-1.393,0.29
		c-2.263,0-2.61-1.16-2.697-2.32c-0.986,1.073-2.524,2.466-5.482,2.466c-2.785,0-4.758-1.77-4.758-4.38
		c0-1.276,0.377-4.235,4.612-4.758l4.206-0.521c0.609-0.059,1.334-0.29,1.334-1.799c0-1.596-1.16-2.466-3.567-2.466
		c-2.9,0-3.307,1.77-3.48,2.93H1061.347z M1070.687,700.176c-0.406,0.318-1.044,0.551-4.206,0.957
		c-1.247,0.174-3.249,0.551-3.249,2.465c0,1.654,0.842,2.64,2.756,2.64c2.379,0,4.699-1.537,4.699-3.567V700.176z"/>
	<path fill="#58595B" d="M1087.044,697.854c-0.319-2.03-1.451-3.248-3.598-3.248c-3.161,0-4.177,3.017-4.177,5.714
		c0,2.61,0.639,5.83,4.148,5.83c1.711,0,3.19-1.276,3.626-3.597h2.465c-0.261,2.408-1.74,5.802-6.178,5.802
		c-4.265,0-6.788-3.22-6.788-7.6c0-4.699,2.263-8.441,7.281-8.441c3.974,0,5.481,2.9,5.685,5.54H1087.044z"/>
	<path fill="#58595B" d="M1092.116,689.994v-2.901h2.553v2.901H1092.116z M1094.669,707.92h-2.553v-15.17h2.553V707.92z"/>
	<path fill="#58595B" d="M1110.852,707.92h-2.553v-9.34c0-2.64-0.754-3.974-3.248-3.974c-1.451,0-4.003,0.928-4.003,5.047v8.267
		h-2.553v-15.17h2.407v2.146h0.058c0.552-0.812,1.973-2.582,4.584-2.582c2.35,0,5.308,0.957,5.308,5.279V707.92z"/>
	<path fill="#58595B" d="M1127.209,706.673c0,2.176-0.029,7.629-7.049,7.629c-1.799,0-5.309-0.493-5.802-4.525h2.553
		c0.464,2.408,2.813,2.408,3.423,2.408c4.409,0,4.322-3.539,4.322-5.338v-0.638h-0.058v0.116c-0.668,1.073-2.002,2.03-4.032,2.03
		c-5.163,0-6.672-4.845-6.672-8.471c0-4.264,2.292-7.57,6.323-7.57c2.756,0,3.916,1.711,4.525,2.582h0.058v-2.146h2.408V706.673z
		 M1120.624,706.15c1.625,0,4.148-1.073,4.148-5.104c0-2.466-0.406-6.439-4.09-6.439c-3.945,0-4.148,3.741-4.148,5.685
		C1116.534,703.627,1117.839,706.15,1120.624,706.15z"/>
	<path fill="#58595B" d="M1148.204,708.471c-7.774,0-10.153-6.469-10.153-10.965s2.379-10.965,10.153-10.965
		c7.773,0,10.152,6.469,10.152,10.965S1155.977,708.471,1148.204,708.471z M1148.204,689.037c-4.525,0-7.252,3.567-7.252,8.47
		s2.727,8.47,7.252,8.47c4.524,0,7.251-3.567,7.251-8.47S1152.728,689.037,1148.204,689.037z"/>
	<path fill="#58595B" d="M1171.257,707.92v-2.204l-0.058-0.059c-1.073,1.77-2.379,2.698-4.815,2.698
		c-2.233,0-4.931-1.073-4.931-4.699V692.75h2.553v10.064c0,2.495,1.276,3.336,2.93,3.336c3.22,0,4.177-2.843,4.177-5.047v-8.354
		h2.553v15.17H1171.257z"/>
	<path fill="#58595B" d="M1180.624,694.867v9.862c0,1.189,1.015,1.189,1.537,1.189h0.899v2.001
		c-0.929,0.087-1.653,0.203-1.915,0.203c-2.523,0-3.074-1.421-3.074-3.249v-10.007h-2.06v-2.117h2.06v-4.235h2.553v4.235h2.437
		v2.117H1180.624z"/>
</g>
<g>
	<path fill="#58595B" d="M1059.864,792.95h-2.814v-20.827h14.417v2.495h-11.603V781h10.21v2.494h-10.21V792.95z"/>
	<path fill="#58595B" d="M1072.629,782.391c0.115-3.626,2.523-5.047,6.265-5.047c1.219,0,5.628,0.348,5.628,4.235v8.73
		c0,0.639,0.319,0.899,0.841,0.899c0.232,0,0.552-0.058,0.842-0.116v1.856c-0.436,0.116-0.812,0.29-1.393,0.29
		c-2.263,0-2.61-1.16-2.697-2.32c-0.986,1.073-2.524,2.466-5.482,2.466c-2.785,0-4.758-1.77-4.758-4.38
		c0-1.276,0.377-4.235,4.612-4.758l4.206-0.521c0.609-0.059,1.334-0.29,1.334-1.799c0-1.596-1.16-2.466-3.567-2.466
		c-2.9,0-3.307,1.77-3.48,2.93H1072.629z M1081.968,785.206c-0.406,0.318-1.044,0.551-4.206,0.957
		c-1.247,0.174-3.249,0.551-3.249,2.465c0,1.654,0.842,2.64,2.756,2.64c2.379,0,4.699-1.537,4.699-3.567V785.206z"/>
	<path fill="#58595B" d="M1098.325,782.885c-0.319-2.03-1.451-3.248-3.598-3.248c-3.161,0-4.177,3.017-4.177,5.714
		c0,2.61,0.639,5.83,4.148,5.83c1.711,0,3.19-1.276,3.626-3.597h2.465c-0.261,2.408-1.74,5.802-6.178,5.802
		c-4.265,0-6.788-3.22-6.788-7.6c0-4.699,2.263-8.441,7.281-8.441c3.974,0,5.481,2.9,5.685,5.54H1098.325z"/>
	<path fill="#58595B" d="M1103.397,775.024v-2.901h2.553v2.901H1103.397z M1105.95,792.95h-2.553v-15.17h2.553V792.95z"/>
	<path fill="#58595B" d="M1122.133,792.95h-2.553v-9.34c0-2.64-0.754-3.974-3.248-3.974c-1.451,0-4.003,0.928-4.003,5.047v8.267
		h-2.553v-15.17h2.407v2.146h0.058c0.552-0.812,1.973-2.582,4.584-2.582c2.35,0,5.308,0.957,5.308,5.279V792.95z"/>
	<path fill="#58595B" d="M1138.49,791.703c0,2.176-0.029,7.629-7.049,7.629c-1.799,0-5.309-0.493-5.802-4.525h2.553
		c0.464,2.408,2.813,2.408,3.423,2.408c4.409,0,4.322-3.539,4.322-5.338v-0.638h-0.058v0.116c-0.668,1.073-2.002,2.03-4.032,2.03
		c-5.163,0-6.672-4.845-6.672-8.471c0-4.264,2.292-7.57,6.323-7.57c2.756,0,3.916,1.711,4.525,2.582h0.058v-2.146h2.408V791.703z
		 M1131.905,791.18c1.625,0,4.148-1.073,4.148-5.104c0-2.466-0.406-6.439-4.09-6.439c-3.945,0-4.148,3.741-4.148,5.685
		C1127.815,788.657,1129.121,791.18,1131.905,791.18z"/>
	<path fill="#58595B" d="M1153.654,792.95h-2.813v-20.827h2.813V792.95z"/>
	<path fill="#58595B" d="M1170.505,792.95h-2.553v-9.34c0-2.64-0.754-3.974-3.248-3.974c-1.451,0-4.003,0.928-4.003,5.047v8.267
		h-2.553v-15.17h2.407v2.146h0.058c0.552-0.812,1.973-2.582,4.584-2.582c2.35,0,5.308,0.957,5.308,5.279V792.95z"/>
</g>
<line fill="none" stroke="#808080" stroke-width="2" x1="736.512" y1="725.409" x2="1479.816" y2="725.409"/>
<path fill="#A3A3A3" d="M3393.405,1624.375c0,5.607-47.595,10.167-106.308,10.167c-58.708,0-106.307-4.56-106.307-10.167
	c0-5.618,47.598-10.178,106.307-10.178C3345.81,1614.197,3393.405,1618.756,3393.405,1624.375z"/>
<rect x="3180.79" y="1616.237" fill="#A3A3A3" width="212.615" height="8.138"/>
<path fill="#555246" d="M3393.405,1616.237c0,5.61-47.595,10.167-106.308,10.167c-58.708,0-106.307-4.557-106.307-10.167
	c0-5.622,47.598-10.183,106.307-10.183C3345.81,1606.054,3393.405,1610.615,3393.405,1616.237z"/>
<polygon fill="#838279" points="3166.558,1383.134 3153.287,1358.526 3152.438,1567.618 3164.818,1567.618 "/>
<polygon fill="#838279" points="3423.231,1383.134 3436.516,1358.526 3437.347,1567.618 3424.972,1567.618 "/>
<path fill="#A4A196" stroke="#A4A196" stroke-width="2.7747" d="M3441.558,1369.644h-10.8l-1.801-68.281h-267.265l-1.8,68.281
	h-10.799l6.098-252.076c0-6.895,10.577-12.494,17.471-12.494h246.22c6.901,0,17.476,5.6,17.476,12.494L3441.558,1369.644z"/>
<path fill="#A4A196" stroke="#A4A196" stroke-width="2.7747" d="M3442.219,1387.076c0,6.77-5.494,12.265-12.279,12.265H3160.71
	c-6.781,0-12.277-5.495-12.277-12.265v-28.55c0-6.784,5.497-12.272,12.277-12.272h269.229c6.785,0,12.279,5.488,12.279,12.272
	V1387.076z"/>
<polygon fill="#A4A196" stroke="#A4A196" stroke-width="2.7747" points="3162.164,1387.641 3148.433,1358.526 3147.565,1618.017 
	3160.364,1618.017 "/>
<polygon fill="#A4A196" stroke="#A4A196" stroke-width="2.7747" points="3427.627,1387.641 3441.363,1358.526 3442.229,1618.017 
	3429.429,1618.017 "/>
<path fill="#838279" d="M3442.219,1361.87h-293.786v-3.344c0-6.784,10.487-12.272,17.265-12.272h259.25
	c6.776,0,17.271,5.488,17.271,12.272V1361.87z"/>
<path fill="#A4A196" stroke="#A4A196" stroke-width="2.7747" d="M3313.853,1609.121c0,0-0.187,6.446-26.75,6.446
	c-26.57,0-26.57-6.446-26.57-6.446v-306.357h53.32V1609.121z"/>
<path fill="#F2F3F3" stroke="#B4B0A2" stroke-width="1.2167" d="M3516.409,1245.648l-406.156,0.492c-3.275,0-6.55,0.148-9.675,0.359
	c-3.128,0.239-6.109,0.577-8.792,0.992c-2.677,0.42-5.054,0.921-6.969,1.476c-1.922,0.562-3.375,1.158-4.205,1.803l-74.579,22.594
	c0,0-0.158,36.098,0.291,36.84c0.452,0.725,1.626,1.417,3.432,1.988c1.805,0.562,4.232,1.011,7.175,1.337
	c2.946,0.304,6.401,0.469,10.251,0.469l478.797-0.582c3.854,0,7.549-0.196,10.931-0.513c3.376-0.332,6.43-0.784,9.011-1.355
	c2.571-0.563,4.674-1.251,6.149-1.984c1.46-0.749,2.314-1.559,2.39-2.404l-0.257-56.938c0.057-0.648,0-32.408,0-32.408
	s0.91,29.562-1.194,29.154c-2.108-0.406-4.62-0.745-7.429-0.965C3522.779,1245.761,3519.681,1245.648,3516.409,1245.648z"/>
<linearGradient id="SVGID_2_" gradientUnits="userSpaceOnUse" x1="3270.2881" y1="1167.6908" x2="3270.2881" y2="1358.3973">
	<stop  offset="0" style="stop-color:#FFFFFF"/>
	<stop  offset="0.25" style="stop-color:#FCFCFC"/>
	<stop  offset="0.4249" style="stop-color:#F3F3F3"/>
	<stop  offset="0.5769" style="stop-color:#E4E4E4"/>
	<stop  offset="0.7159" style="stop-color:#CECECE"/>
	<stop  offset="0.846" style="stop-color:#B1B1B1"/>
	<stop  offset="0.9678" style="stop-color:#8F8F8F"/>
	<stop  offset="1" style="stop-color:#858585"/>
</linearGradient>
<path fill="url(#SVGID_2_)" stroke="#B4B0A2" stroke-width="1.2167" d="M3516.409,1208.811l-406.156,0.488
	c-3.275,0-6.55,0.138-9.675,0.366c-3.128,0.245-6.109,0.583-8.792,0.993c-2.677,0.404-5.054,0.909-6.969,1.465
	c-1.922,0.551-3.375,1.153-4.205,1.796l-73.378,57.037c-1.096,0.839-1.359,1.672-0.91,2.407c0.452,0.742,1.626,1.41,3.432,1.965
	c1.805,0.572,4.232,1.022,7.175,1.355c2.946,0.308,6.401,0.479,10.251,0.462l478.797-0.579c3.854-0.011,7.549-0.185,10.931-0.523
	c3.376-0.308,6.43-0.771,9.011-1.333c2.571-0.577,4.674-1.251,6.149-2c1.46-0.739,2.314-1.551,2.39-2.396l-0.257-53.377
	C3534.586,1211.745,3527.837,1208.811,3516.409,1208.811z"/>
<polygon fill="#404040" points="3125.195,1263.485 3463.569,1263.485 3429.335,1212.971 3154.598,1212.971 "/>
<polygon fill="#8C8C8C" points="3148.433,1254.61 3438.997,1254.61 3416.069,1220.959 3168.208,1220.959 "/>
<polygon fill="#676767" points="3132.385,1263.485 3138.056,1268.218 3451.856,1268.218 3454.376,1263.485 "/>
<rect x="1590.379" y="904.632" fill="#B3B3B3" width="475" height="631.668"/>
<rect x="1615.829" y="930.452" fill="none" stroke="#404040" stroke-width="2" stroke-miterlimit="10" width="205.556" height="110.044"/>
<rect x="1833.884" y="930.452" fill="none" stroke="#404040" stroke-width="2" stroke-miterlimit="10" width="205.556" height="110.044"/>
<polygon fill="#404040" points="1726.658,891.422 1916.111,891.422 1909.467,907.833 1732.854,907.833 "/>
<rect x="98.558" y="352.56" fill="#F9F8F4" stroke="#A4A196" stroke-width="2.1213" width="520.703" height="1140.125"/>
<rect id="Door" x="131.95" y="391.354" fill="#A4A196" stroke="#A4A196" stroke-width="6.2011" width="451.807" height="1093.912"/>
<linearGradient id="Door_2_" gradientUnits="userSpaceOnUse" x1="517.7808" y1="1522.2063" x2="517.7808" y2="-728.2587" gradientTransform="matrix(-1 0 0 1 875.634 0)">
	<stop  offset="0" style="stop-color:#FFFFFF"/>
	<stop  offset="1" style="stop-color:#AFD3D7"/>
</linearGradient>
<rect id="Door_1_" x="139.006" y="398.41" fill="url(#Door_2_)" width="437.695" height="1079.8"/>
<linearGradient id="SVGID_3_" gradientUnits="userSpaceOnUse" x1="518.0885" y1="1075.0457" x2="518.0885" y2="743.1016" gradientTransform="matrix(-1 0 0 1 875.634 0)">
	<stop  offset="0" style="stop-color:#FDF9CC"/>
	<stop  offset="1" style="stop-color:#ECAE6C"/>
</linearGradient>
<rect x="138.22" y="904.632" opacity="0.6" fill="url(#SVGID_3_)" width="438.651" height="104.624"/>
<rect x="140.523" y="356.763" fill="#A4A196" stroke="#F2F1EA" stroke-width="1.3448" width="94.626" height="10.232"/>
<rect x="117.555" y="371.496" fill="none" stroke="#A4A196" stroke-width="2.067" width="482.956" height="1121.189"/>
<g>
	<path fill="#F2F1EA" stroke="#A4A196" stroke-width="1.8699" d="M113.343,609.087c0,2.976,1.968,5.389,4.388,5.389l0,0
		c2.427,0,4.394-2.413,4.394-5.389v-54.042c0-2.98-1.967-5.397-4.394-5.397l0,0c-2.42,0-4.388,2.417-4.388,5.397V609.087z"/>
</g>
<rect x="512.379" y="884.932" opacity="0.58" fill="#B0AFA5" width="71.575" height="163.021"/>
<rect x="516.607" y="878.083" fill="#B0AFA5" width="67.348" height="163.16"/>
<line fill="none" stroke="#D3D2CB" stroke-width="1.2448" x1="573.43" y1="878.025" x2="573.43" y2="1040.497"/>
<line fill="none" stroke="#D3D2CB" stroke-width="1.2448" x1="567.584" y1="878.025" x2="567.584" y2="1040.497"/>
<line fill="none" stroke="#D3D2CB" stroke-width="1.2448" x1="561.745" y1="878.025" x2="561.745" y2="1040.497"/>
<line fill="none" stroke="#D3D2CB" stroke-width="1.2448" x1="555.917" y1="878.025" x2="555.917" y2="1040.497"/>
<line fill="none" stroke="#D3D2CB" stroke-width="1.2448" x1="550.074" y1="878.025" x2="550.074" y2="1040.497"/>
<line fill="none" stroke="#D3D2CB" stroke-width="1.2448" x1="544.229" y1="878.025" x2="544.229" y2="1040.497"/>
<line fill="none" stroke="#D3D2CB" stroke-width="1.2448" x1="538.401" y1="878.025" x2="538.401" y2="1040.497"/>
<line fill="none" stroke="#D3D2CB" stroke-width="1.2448" x1="532.561" y1="878.025" x2="532.561" y2="1040.497"/>
<line fill="none" stroke="#D3D2CB" stroke-width="1.2448" x1="526.716" y1="878.025" x2="526.716" y2="1040.497"/>
<path fill="#DADBDC" stroke="#1C1C1C" stroke-width="3" d="M2253.505,873.398c0,203.55,0,407.095,0,610.655h408.557
	c0-203.561,0-407.105,0-610.655H2253.505z"/>
<line fill="none" stroke="#A4A196" stroke-width="1.8699" x1="121.934" y1="596.781" x2="113.501" y2="596.781"/>
<line fill="none" stroke="#A4A196" stroke-width="1.8699" x1="113.501" y1="582.13" x2="121.934" y2="582.13"/>
<line fill="none" stroke="#A4A196" stroke-width="1.8699" x1="121.934" y1="567.347" x2="113.501" y2="567.347"/>
<g>
	<path fill="#F2F1EA" stroke="#A4A196" stroke-width="1.8699" d="M113.343,1365.313c0,2.976,1.968,5.389,4.388,5.389l0,0
		c2.427,0,4.394-2.413,4.394-5.389v-54.042c0-2.98-1.967-5.397-4.394-5.397l0,0c-2.42,0-4.388,2.417-4.388,5.397V1365.313z"/>
</g>
<line fill="none" stroke="#A4A196" stroke-width="1.8699" x1="121.934" y1="1353.008" x2="113.501" y2="1353.008"/>
<line fill="none" stroke="#A4A196" stroke-width="1.8699" x1="113.501" y1="1338.357" x2="121.934" y2="1338.357"/>
<line fill="none" stroke="#A4A196" stroke-width="1.8699" x1="121.934" y1="1323.573" x2="113.501" y2="1323.573"/>
<g>
	<g>
		<g>
			<polygon fill="#231F20" points="2190.241,1449.177 2182.918,1445.841 2175.433,1448.795 2183.291,1431.435 			"/>
		</g>
	</g>
	
		<line fill="none" stroke="#231F20" stroke-width="2" stroke-miterlimit="10" x1="2182.774" y1="1526.969" x2="2182.982" y2="1443.371"/>
</g>
<rect x="3131.568" y="920.295" fill="#B3B3B3" stroke="#010101" stroke-width="2" width="327.887" height="240.402"/>
<rect x="3131.568" y="648.552" fill="#B3B3B3" stroke="#010101" stroke-width="2" width="327.887" height="240.402"/>
<rect x="1210.056" y="739.954" fill="#B3B3B3" stroke="#010101" stroke-width="2" width="269.76" height="368.381"/>
<rect x="736.512" y="739.954" fill="#B3B3B3" stroke="#010101" stroke-width="2" width="269.761" height="368.381"/>
<rect x="1210.056" y="344.539" fill="#B3B3B3" stroke="#010101" stroke-width="2" width="269.76" height="368.381"/>
<rect x="736.512" y="344.539" fill="#B3B3B3" stroke="#010101" stroke-width="2" width="269.761" height="368.381"/>
<rect x="2109.732" y="1145.3" fill="#DADBDC" stroke="#1C1C1C" stroke-width="3" width="143.773" height="281.2"/>
<rect x="2329.113" y="1042.801" fill="#FFFFFF" stroke="#1C1C1C" stroke-width="3" width="260.247" height="367.842"/>
<rect x="2724.041" y="1042.801" fill="#FFFFFF" stroke="#1C1C1C" stroke-width="3" width="260.247" height="367.842"/>
<g>
	<path fill="#58595B" d="M3233.879,1280.236h16.911v2.494h-7.049v18.333h-2.813v-18.333h-7.049V1280.236z"/>
	<path fill="#58595B" d="M3252.501,1301.063h-2.553v-15.171h2.408v2.523h0.058c1.016-1.77,2.35-2.959,4.264-2.959
		c0.319,0,0.465,0.029,0.667,0.088v2.64h-0.957c-2.378,0-3.887,1.856-3.887,4.061V1301.063z"/>
	<path fill="#58595B" d="M3258.888,1290.505c0.115-3.626,2.523-5.048,6.265-5.048c1.219,0,5.628,0.349,5.628,4.236v8.73
		c0,0.639,0.319,0.899,0.841,0.899c0.232,0,0.552-0.058,0.842-0.116v1.856c-0.436,0.116-0.812,0.29-1.393,0.29
		c-2.263,0-2.61-1.16-2.697-2.32c-0.986,1.073-2.524,2.465-5.482,2.465c-2.785,0-4.758-1.77-4.758-4.379
		c0-1.277,0.377-4.236,4.612-4.758l4.206-0.521c0.609-0.059,1.334-0.291,1.334-1.799c0-1.596-1.16-2.466-3.567-2.466
		c-2.9,0-3.307,1.77-3.48,2.93H3258.888z M3268.228,1293.318c-0.406,0.319-1.044,0.551-4.206,0.957
		c-1.247,0.174-3.249,0.552-3.249,2.466c0,1.653,0.842,2.64,2.756,2.64c2.379,0,4.699-1.537,4.699-3.568V1293.318z"/>
	<path fill="#58595B" d="M3283.721,1285.893h2.813c-1.77,4.961-3.51,9.92-5.453,14.881c-2.408,6.149-2.669,6.498-5.947,6.498
		c-0.377,0-0.667-0.117-1.073-0.232v-2.32c0.319,0.115,0.842,0.261,1.538,0.261c1.334,0,1.479-0.377,2.697-3.51l-5.627-15.577h2.9
		l4.032,12.357h0.058L3283.721,1285.893z"/>
	<path fill="#58595B" d="M3291.346,1301.063h-2.553v-20.827h2.553V1301.063z"/>
	<path fill="#58595B" d="M3295.231,1283.137v-2.9h2.553v2.9H3295.231z M3297.784,1301.063h-2.553v-15.171h2.553V1301.063z"/>
	<path fill="#58595B" d="M3313.967,1301.063h-2.553v-9.341c0-2.639-0.754-3.973-3.248-3.973c-1.451,0-4.003,0.928-4.003,5.047v8.267
		h-2.553v-15.171h2.407v2.146h0.058c0.552-0.812,1.973-2.582,4.584-2.582c2.35,0,5.308,0.958,5.308,5.279V1301.063z"/>
	<path fill="#58595B" d="M3330.614,1296.307c-0.087,0.725-0.783,2.871-2.698,4.147c-0.695,0.464-1.682,1.044-4.118,1.044
		c-4.265,0-6.788-3.219-6.788-7.6c0-4.699,2.263-8.441,7.281-8.441c4.38,0,6.526,3.481,6.526,8.848h-11.081
		c0,3.162,1.479,4.989,4.409,4.989c2.407,0,3.829-1.856,3.916-2.987H3330.614z M3328.177,1292.274
		c-0.146-2.35-1.132-4.524-4.235-4.524c-2.35,0-4.206,2.175-4.206,4.524H3328.177z"/>
	<path fill="#58595B" d="M3336.759,1301.063h-2.553v-15.171h2.408v2.523h0.058c1.016-1.77,2.35-2.959,4.264-2.959
		c0.319,0,0.465,0.029,0.667,0.088v2.64h-0.957c-2.378,0-3.887,1.856-3.887,4.061V1301.063z"/>
</g>
<g>
	<path fill="#58595B" d="M3234.896,915.076h-2.813v-20.827h2.813V915.076z"/>
	<path fill="#58595B" d="M3252.269,900.341c-0.146-3.22-2.813-4.235-5.163-4.235c-1.77,0-4.758,0.493-4.758,3.655
		c0,1.769,1.248,2.349,2.466,2.64l5.946,1.363c2.698,0.638,4.729,2.262,4.729,5.569c0,4.931-4.583,6.294-8.151,6.294
		c-3.857,0-5.366-1.16-6.294-2.001c-1.77-1.596-2.118-3.336-2.118-5.279h2.64c0,3.771,3.075,4.873,5.744,4.873
		c2.03,0,5.453-0.522,5.453-3.51c0-2.176-1.016-2.872-4.438-3.685l-4.264-0.986c-1.363-0.318-4.438-1.275-4.438-4.901
		c0-3.249,2.118-6.439,7.165-6.439c7.28,0,8.006,4.351,8.122,6.643H3252.269z"/>
	<path fill="#58595B" d="M3263.872,894.249h16.911v2.495h-7.049v18.332h-2.813v-18.332h-7.049V894.249z"/>
	<path fill="#58595B" d="M3282.494,915.076h-2.553v-15.17h2.408v2.523h0.058c1.016-1.77,2.35-2.959,4.264-2.959
		c0.319,0,0.465,0.029,0.667,0.087v2.64h-0.957c-2.378,0-3.887,1.856-3.887,4.061V915.076z"/>
	<path fill="#58595B" d="M3288.88,904.518c0.115-3.626,2.523-5.047,6.265-5.047c1.219,0,5.628,0.348,5.628,4.234v8.731
		c0,0.638,0.319,0.899,0.841,0.899c0.232,0,0.552-0.059,0.842-0.116v1.856c-0.436,0.116-0.812,0.29-1.393,0.29
		c-2.263,0-2.61-1.16-2.697-2.32c-0.986,1.073-2.524,2.466-5.482,2.466c-2.785,0-4.758-1.77-4.758-4.381
		c0-1.275,0.377-4.234,4.612-4.757l4.206-0.522c0.609-0.058,1.334-0.289,1.334-1.798c0-1.596-1.16-2.466-3.567-2.466
		c-2.9,0-3.307,1.77-3.48,2.93H3288.88z M3298.22,907.332c-0.406,0.318-1.044,0.551-4.206,0.957
		c-1.247,0.174-3.249,0.551-3.249,2.465c0,1.654,0.842,2.64,2.756,2.64c2.379,0,4.699-1.537,4.699-3.567V907.332z"/>
	<path fill="#58595B" d="M3313.712,899.906h2.813c-1.77,4.959-3.51,9.92-5.453,14.88c-2.408,6.149-2.669,6.497-5.946,6.497
		c-0.378,0-0.668-0.115-1.074-0.231v-2.321c0.319,0.117,0.842,0.262,1.538,0.262c1.334,0,1.479-0.377,2.697-3.51l-5.627-15.576h2.9
		l4.032,12.356h0.058L3313.712,899.906z"/>
	<path fill="#58595B" d="M3321.337,915.076h-2.553v-20.827h2.553V915.076z"/>
	<path fill="#58595B" d="M3325.222,897.15v-2.901h2.553v2.901H3325.222z M3327.775,915.076h-2.553v-15.17h2.553V915.076z"/>
	<path fill="#58595B" d="M3343.958,915.076h-2.553v-9.34c0-2.641-0.754-3.975-3.248-3.975c-1.451,0-4.003,0.929-4.003,5.047v8.268
		h-2.553v-15.17h2.407v2.146h0.058c0.552-0.812,1.973-2.582,4.584-2.582c2.35,0,5.308,0.957,5.308,5.279V915.076z"/>
	<path fill="#58595B" d="M3360.605,910.318c-0.087,0.727-0.783,2.873-2.697,4.148c-0.696,0.465-1.683,1.045-4.119,1.045
		c-4.265,0-6.788-3.221-6.788-7.6c0-4.699,2.263-8.441,7.281-8.441c4.38,0,6.526,3.48,6.526,8.847h-11.081
		c0,3.162,1.479,4.989,4.409,4.989c2.407,0,3.829-1.856,3.916-2.988H3360.605z M3358.168,906.287
		c-0.146-2.35-1.132-4.525-4.235-4.525c-2.35,0-4.206,2.176-4.206,4.525H3358.168z"/>
	<path fill="#58595B" d="M3366.75,915.076h-2.553v-15.17h2.407v2.523h0.059c1.016-1.77,2.35-2.959,4.264-2.959
		c0.319,0,0.465,0.029,0.667,0.087v2.64h-0.957c-2.378,0-3.887,1.856-3.887,4.061V915.076z"/>
</g>
<g>
	<path fill="#58595B" d="M3234.896,643.333h-2.813v-20.827h2.813V643.333z"/>
	<path fill="#58595B" d="M3252.269,628.598c-0.146-3.22-2.813-4.235-5.163-4.235c-1.77,0-4.758,0.493-4.758,3.655
		c0,1.769,1.248,2.349,2.466,2.639l5.946,1.364c2.698,0.638,4.729,2.262,4.729,5.569c0,4.931-4.583,6.294-8.151,6.294
		c-3.857,0-5.366-1.161-6.294-2.001c-1.77-1.596-2.118-3.336-2.118-5.279h2.64c0,3.771,3.075,4.873,5.744,4.873
		c2.03,0,5.453-0.522,5.453-3.51c0-2.176-1.016-2.872-4.438-3.684l-4.264-0.986c-1.363-0.319-4.438-1.276-4.438-4.902
		c0-3.249,2.118-6.439,7.165-6.439c7.28,0,8.006,4.351,8.122,6.643H3252.269z"/>
	<path fill="#58595B" d="M3263.872,622.506h16.911V625h-7.049v18.333h-2.813V625h-7.049V622.506z"/>
	<path fill="#58595B" d="M3282.494,643.333h-2.553v-15.17h2.408v2.523h0.058c1.016-1.77,2.35-2.959,4.264-2.959
		c0.319,0,0.465,0.029,0.667,0.087v2.64h-0.957c-2.378,0-3.887,1.856-3.887,4.061V643.333z"/>
	<path fill="#58595B" d="M3288.88,632.774c0.115-3.626,2.523-5.047,6.265-5.047c1.219,0,5.628,0.348,5.628,4.235v8.731
		c0,0.638,0.319,0.899,0.841,0.899c0.232,0,0.552-0.058,0.842-0.116v1.856c-0.436,0.116-0.812,0.29-1.393,0.29
		c-2.263,0-2.61-1.16-2.697-2.32c-0.986,1.073-2.524,2.465-5.482,2.465c-2.785,0-4.758-1.77-4.758-4.38
		c0-1.276,0.377-4.235,4.612-4.757l4.206-0.522c0.609-0.058,1.334-0.29,1.334-1.798c0-1.596-1.16-2.466-3.567-2.466
		c-2.9,0-3.307,1.77-3.48,2.93H3288.88z M3298.22,635.588c-0.406,0.319-1.044,0.551-4.206,0.957
		c-1.247,0.174-3.249,0.551-3.249,2.465c0,1.654,0.842,2.64,2.756,2.64c2.379,0,4.699-1.537,4.699-3.568V635.588z"/>
	<path fill="#58595B" d="M3313.712,628.163h2.813c-1.77,4.96-3.51,9.92-5.453,14.88c-2.408,6.149-2.669,6.498-5.946,6.498
		c-0.378,0-0.668-0.116-1.074-0.232v-2.321c0.319,0.116,0.842,0.261,1.538,0.261c1.334,0,1.479-0.377,2.697-3.51l-5.627-15.577h2.9
		l4.032,12.357h0.058L3313.712,628.163z"/>
	<path fill="#58595B" d="M3321.337,643.333h-2.553v-20.827h2.553V643.333z"/>
	<path fill="#58595B" d="M3325.222,625.407v-2.901h2.553v2.901H3325.222z M3327.775,643.333h-2.553v-15.17h2.553V643.333z"/>
	<path fill="#58595B" d="M3343.958,643.333h-2.553v-9.34c0-2.64-0.754-3.974-3.248-3.974c-1.451,0-4.003,0.928-4.003,5.047v8.267
		h-2.553v-15.17h2.407v2.146h0.058c0.552-0.812,1.973-2.582,4.584-2.582c2.35,0,5.308,0.958,5.308,5.279V643.333z"/>
	<path fill="#58595B" d="M3360.605,638.576c-0.087,0.726-0.783,2.872-2.697,4.148c-0.696,0.464-1.683,1.044-4.119,1.044
		c-4.265,0-6.788-3.22-6.788-7.6c0-4.699,2.263-8.441,7.281-8.441c4.38,0,6.526,3.481,6.526,8.847h-11.081
		c0,3.162,1.479,4.989,4.409,4.989c2.407,0,3.829-1.856,3.916-2.988H3360.605z M3358.168,634.544
		c-0.146-2.35-1.132-4.525-4.235-4.525c-2.35,0-4.206,2.175-4.206,4.525H3358.168z"/>
	<path fill="#58595B" d="M3366.75,643.333h-2.553v-15.17h2.407v2.523h0.059c1.016-1.77,2.35-2.959,4.264-2.959
		c0.319,0,0.465,0.029,0.667,0.087v2.64h-0.957c-2.378,0-3.887,1.856-3.887,4.061V643.333z"/>
</g>
<g>
	<path fill="#58595B" d="M1237.506,1141.866h2.813v20.827h-2.813v-9.717h-10.878v9.717h-2.813v-20.827h2.813v8.615h10.878V1141.866z
		"/>
	<path fill="#58595B" d="M1261.867,1162.693v-12.299c0-0.609,0.058-3.249,0.058-5.192h-0.058l-5.859,17.491h-2.785l-5.859-17.462
		h-0.058c0,1.914,0.058,4.554,0.058,5.163v12.299h-2.727v-20.827h4.032l5.946,17.607h0.059l5.917-17.607h4.003v20.827H1261.867z"/>
	<path fill="#58595B" d="M1288.899,1141.866h3.162l-7.6,20.827h-2.988l-7.6-20.827h3.133l5.946,17.753h0.059L1288.899,1141.866z"/>
	<path fill="#58595B" d="M1305.086,1157.936c-0.087,0.726-0.783,2.872-2.698,4.147c-0.695,0.465-1.682,1.045-4.118,1.045
		c-4.265,0-6.788-3.22-6.788-7.6c0-4.699,2.263-8.441,7.281-8.441c4.38,0,6.526,3.48,6.526,8.847h-11.081
		c0,3.162,1.479,4.989,4.409,4.989c2.407,0,3.829-1.856,3.916-2.987H1305.086z M1302.649,1153.904
		c-0.146-2.35-1.132-4.524-4.235-4.524c-2.35,0-4.206,2.175-4.206,4.524H1302.649z"/>
	<path fill="#58595B" d="M1316.946,1151.844c-0.029-0.957-0.378-2.553-3.598-2.553c-0.783,0-3.017,0.262-3.017,2.146
		c0,1.248,0.783,1.538,2.756,2.031l2.553,0.638c3.162,0.783,4.264,1.943,4.264,4.003c0,3.133-2.581,5.019-6.004,5.019
		c-6.005,0-6.439-3.481-6.526-5.309h2.465c0.087,1.189,0.436,3.104,4.032,3.104c1.827,0,3.48-0.725,3.48-2.407
		c0-1.219-0.841-1.624-3.017-2.176l-2.958-0.725c-2.118-0.522-3.511-1.596-3.511-3.685c0-3.335,2.756-4.844,5.744-4.844
		c5.424,0,5.801,4.003,5.801,4.757H1316.946z"/>
	<path fill="#58595B" d="M1325.964,1149.64v9.862c0,1.189,1.015,1.189,1.537,1.189h0.899v2.001
		c-0.929,0.087-1.653,0.203-1.915,0.203c-2.523,0-3.074-1.421-3.074-3.249v-10.007h-2.06v-2.117h2.06v-4.235h2.553v4.235h2.437
		v2.117H1325.964z"/>
	<path fill="#58595B" d="M1330.951,1144.767v-2.901h2.553v2.901H1330.951z M1333.504,1162.693h-2.553v-15.17h2.553V1162.693z"/>
	<path fill="#58595B" d="M1337.128,1162.693v-20.827h2.553v7.571h0.058c1.103-1.596,2.61-2.32,4.38-2.35
		c4.032,0,6.324,3.307,6.324,7.57c0,3.626-1.509,8.471-6.672,8.471c-2.582,0-3.655-1.479-4.177-2.32h-0.059v1.885H1337.128z
		 M1343.654,1149.38c-3.684,0-4.09,3.974-4.09,6.439c0,4.031,2.523,5.104,4.147,5.104c2.785,0,4.091-2.523,4.091-5.859
		C1347.802,1153.121,1347.599,1149.38,1343.654,1149.38z"/>
	<path fill="#58595B" d="M1362.772,1162.693v-2.204l-0.058-0.059c-1.073,1.77-2.379,2.698-4.815,2.698
		c-2.233,0-4.931-1.073-4.931-4.699v-10.906h2.553v10.064c0,2.495,1.276,3.336,2.93,3.336c3.22,0,4.177-2.843,4.177-5.047v-8.354
		h2.553v15.17H1362.772z"/>
	<path fill="#58595B" d="M1371.616,1162.693h-2.553v-20.827h2.553V1162.693z"/>
	<path fill="#58595B" d="M1388.322,1157.936c-0.087,0.726-0.783,2.872-2.698,4.147c-0.695,0.465-1.682,1.045-4.118,1.045
		c-4.265,0-6.788-3.22-6.788-7.6c0-4.699,2.263-8.441,7.281-8.441c4.38,0,6.526,3.48,6.526,8.847h-11.081
		c0,3.162,1.479,4.989,4.409,4.989c2.407,0,3.829-1.856,3.916-2.987H1388.322z M1385.885,1153.904
		c-0.146-2.35-1.132-4.524-4.235-4.524c-2.35,0-4.206,2.175-4.206,4.524H1385.885z"/>
	<path fill="#58595B" d="M1403.051,1162.693h-2.814v-20.827h9.37c3.857,0,6.178,2.495,6.178,5.859c0,2.901-1.653,6.179-6.178,6.179
		h-6.556V1162.693z M1403.051,1151.497h5.598c2.524,0,4.235-0.929,4.235-3.742c0-2.64-1.799-3.48-4.119-3.48h-5.714V1151.497z"/>
	<path fill="#58595B" d="M1423.705,1147.088c4.845,0,7.049,4.09,7.049,8.006s-2.204,8.006-7.049,8.006
		c-4.844,0-7.048-4.09-7.048-8.006S1418.861,1147.088,1423.705,1147.088z M1423.705,1160.895c3.655,0,4.409-3.771,4.409-5.802
		s-0.754-5.802-4.409-5.802c-3.654,0-4.408,3.771-4.408,5.802S1420.05,1160.895,1423.705,1160.895z"/>
	<path fill="#58595B" d="M1442.266,1151.844c-0.029-0.957-0.378-2.553-3.598-2.553c-0.783,0-3.017,0.262-3.017,2.146
		c0,1.248,0.783,1.538,2.756,2.031l2.553,0.638c3.162,0.783,4.264,1.943,4.264,4.003c0,3.133-2.581,5.019-6.004,5.019
		c-6.005,0-6.439-3.481-6.526-5.309h2.465c0.087,1.189,0.436,3.104,4.032,3.104c1.827,0,3.48-0.725,3.48-2.407
		c0-1.219-0.841-1.624-3.017-2.176l-2.958-0.725c-2.118-0.522-3.511-1.596-3.511-3.685c0-3.335,2.756-4.844,5.744-4.844
		c5.424,0,5.801,4.003,5.801,4.757H1442.266z"/>
	<path fill="#58595B" d="M1451.284,1149.64v9.862c0,1.189,1.015,1.189,1.537,1.189h0.899v2.001
		c-0.929,0.087-1.653,0.203-1.915,0.203c-2.523,0-3.074-1.421-3.074-3.249v-10.007h-2.06v-2.117h2.06v-4.235h2.553v4.235h2.437
		v2.117H1451.284z"/>
	<path fill="#58595B" d="M1469.092,1157.936c-0.087,0.726-0.783,2.872-2.697,4.147c-0.696,0.465-1.683,1.045-4.119,1.045
		c-4.265,0-6.788-3.22-6.788-7.6c0-4.699,2.263-8.441,7.281-8.441c4.38,0,6.526,3.48,6.526,8.847h-11.081
		c0,3.162,1.479,4.989,4.409,4.989c2.407,0,3.829-1.856,3.916-2.987H1469.092z M1466.656,1153.904
		c-0.146-2.35-1.132-4.524-4.235-4.524c-2.35,0-4.206,2.175-4.206,4.524H1466.656z"/>
	<path fill="#58595B" d="M1475.237,1162.693h-2.553v-15.17h2.408v2.523h0.058c1.016-1.77,2.35-2.959,4.264-2.959
		c0.319,0,0.465,0.029,0.667,0.087v2.64h-0.957c-2.378,0-3.887,1.856-3.887,4.061V1162.693z"/>
	<path fill="#58595B" d="M1273.05,1173.431c-2.466,4.641-3.945,7.426-3.945,14.388c0,4.786,1.653,8.324,3.974,12.879h-1.711
		c-3.017-4.525-4.989-8.151-4.989-13.575c0-5.105,1.77-9.225,4.902-13.691H1273.05z"/>
	<path fill="#58595B" d="M1293.411,1194.693v-12.299c0-0.609,0.058-3.249,0.058-5.192h-0.058l-5.859,17.491h-2.785l-5.859-17.462
		h-0.058c0,1.914,0.058,4.554,0.058,5.163v12.299h-2.727v-20.827h4.032l5.946,17.607h0.059l5.917-17.607h4.003v20.827H1293.411z"/>
	<path fill="#58595B" d="M1306.283,1179.088c4.845,0,7.049,4.09,7.049,8.006s-2.204,8.006-7.049,8.006
		c-4.844,0-7.048-4.09-7.048-8.006S1301.439,1179.088,1306.283,1179.088z M1306.283,1192.895c3.655,0,4.409-3.771,4.409-5.802
		s-0.754-5.802-4.409-5.802c-3.654,0-4.408,3.771-4.408,5.802S1302.629,1192.895,1306.283,1192.895z"/>
	<path fill="#58595B" d="M1316.229,1179.523h2.407v2.146h0.058c0.552-0.812,1.856-2.582,4.584-2.582
		c2.727,0,3.597,1.653,4.031,2.466c1.276-1.422,2.292-2.466,4.642-2.466c1.624,0,4.699,0.841,4.699,5.105v10.5h-2.553v-9.804
		c0-2.089-0.639-3.51-2.813-3.51c-2.146,0-3.568,2.03-3.568,4.061v9.253h-2.553v-10.5c0-1.276-0.493-2.813-2.378-2.813
		c-1.451,0-4.003,0.928-4.003,5.047v8.267h-2.553V1179.523z"/>
	<path fill="#58595B" d="M1340.038,1173.866h3.017v2.843c0,2.233-0.667,4.003-3.017,4.555v-1.363
		c1.509-0.232,1.538-1.973,1.538-2.959h-1.538V1173.866z"/>
	<path fill="#58595B" d="M1353.995,1183.844c-0.029-0.957-0.378-2.553-3.598-2.553c-0.783,0-3.017,0.262-3.017,2.146
		c0,1.248,0.783,1.538,2.756,2.031l2.553,0.638c3.162,0.783,4.264,1.943,4.264,4.003c0,3.133-2.581,5.019-6.004,5.019
		c-6.005,0-6.439-3.481-6.526-5.309h2.465c0.087,1.189,0.436,3.104,4.032,3.104c1.827,0,3.48-0.725,3.48-2.407
		c0-1.219-0.841-1.624-3.017-2.176l-2.958-0.725c-2.118-0.522-3.511-1.596-3.511-3.685c0-3.335,2.756-4.844,5.744-4.844
		c5.424,0,5.801,4.003,5.801,4.757H1353.995z"/>
	<path fill="#58595B" d="M1365.017,1173.866h16.911v2.495h-7.049v18.332h-2.813v-18.332h-7.049V1173.866z"/>
	<path fill="#58595B" d="M1383.639,1194.693h-2.553v-15.17h2.408v2.523h0.058c1.016-1.77,2.35-2.959,4.264-2.959
		c0.319,0,0.465,0.029,0.667,0.087v2.64h-0.957c-2.378,0-3.887,1.856-3.887,4.061V1194.693z"/>
	<path fill="#58595B" d="M1400.718,1194.693v-2.204l-0.058-0.059c-1.073,1.77-2.379,2.698-4.815,2.698
		c-2.233,0-4.931-1.073-4.931-4.699v-10.906h2.553v10.064c0,2.495,1.276,3.336,2.93,3.336c3.22,0,4.177-2.843,4.177-5.047v-8.354
		h2.553v15.17H1400.718z"/>
	<path fill="#58595B" d="M1415.567,1183.844c-0.029-0.957-0.378-2.553-3.598-2.553c-0.783,0-3.017,0.262-3.017,2.146
		c0,1.248,0.783,1.538,2.756,2.031l2.553,0.638c3.162,0.783,4.264,1.943,4.264,4.003c0,3.133-2.581,5.019-6.004,5.019
		c-6.005,0-6.439-3.481-6.526-5.309h2.465c0.087,1.189,0.436,3.104,4.032,3.104c1.827,0,3.48-0.725,3.48-2.407
		c0-1.219-0.841-1.624-3.017-2.176l-2.958-0.725c-2.118-0.522-3.511-1.596-3.511-3.685c0-3.335,2.756-4.844,5.744-4.844
		c5.424,0,5.801,4.003,5.801,4.757H1415.567z"/>
	<path fill="#58595B" d="M1424.585,1181.64v9.862c0,1.189,1.015,1.189,1.537,1.189h0.899v2.001
		c-0.929,0.087-1.653,0.203-1.915,0.203c-2.523,0-3.074-1.421-3.074-3.249v-10.007h-2.06v-2.117h2.06v-4.235h2.553v4.235h2.437
		v2.117H1424.585z"/>
	<path fill="#58595B" d="M1428.644,1200.698c2.465-4.642,3.944-7.426,3.944-14.388c0-4.786-1.653-8.325-3.974-12.879h1.711
		c3.018,4.525,4.989,8.15,4.989,13.575c0,5.105-1.77,9.225-4.902,13.691H1428.644z"/>
</g>
<g>
	<path fill="#58595B" d="M748.531,1141.866h2.813v20.827h-2.813v-9.717h-10.878v9.717h-2.813v-20.827h2.813v8.615h10.878V1141.866z"
		/>
	<path fill="#58595B" d="M772.891,1162.693v-12.299c0-0.609,0.058-3.249,0.058-5.192h-0.058l-5.859,17.491h-2.785l-5.859-17.462
		h-0.058c0,1.914,0.058,4.554,0.058,5.163v12.299h-2.727v-20.827h4.032l5.946,17.607h0.059l5.917-17.607h4.003v20.827H772.891z"/>
	<path fill="#58595B" d="M799.923,1141.866h3.162l-7.6,20.827h-2.988l-7.6-20.827h3.133l5.946,17.753h0.059L799.923,1141.866z"/>
	<path fill="#58595B" d="M816.11,1157.936c-0.087,0.726-0.783,2.872-2.698,4.147c-0.695,0.465-1.682,1.045-4.118,1.045
		c-4.265,0-6.788-3.22-6.788-7.6c0-4.699,2.263-8.441,7.281-8.441c4.38,0,6.526,3.48,6.526,8.847h-11.081
		c0,3.162,1.479,4.989,4.409,4.989c2.407,0,3.829-1.856,3.916-2.987H816.11z M813.673,1153.904c-0.146-2.35-1.132-4.524-4.235-4.524
		c-2.35,0-4.206,2.175-4.206,4.524H813.673z"/>
	<path fill="#58595B" d="M827.97,1151.844c-0.029-0.957-0.378-2.553-3.598-2.553c-0.783,0-3.017,0.262-3.017,2.146
		c0,1.248,0.783,1.538,2.756,2.031l2.553,0.638c3.162,0.783,4.264,1.943,4.264,4.003c0,3.133-2.581,5.019-6.004,5.019
		c-6.005,0-6.439-3.481-6.526-5.309h2.465c0.087,1.189,0.436,3.104,4.032,3.104c1.827,0,3.48-0.725,3.48-2.407
		c0-1.219-0.841-1.624-3.017-2.176l-2.958-0.725c-2.118-0.522-3.511-1.596-3.511-3.685c0-3.335,2.756-4.844,5.744-4.844
		c5.424,0,5.801,4.003,5.801,4.757H827.97z"/>
	<path fill="#58595B" d="M836.988,1149.64v9.862c0,1.189,1.015,1.189,1.537,1.189h0.899v2.001c-0.929,0.087-1.653,0.203-1.915,0.203
		c-2.523,0-3.074-1.421-3.074-3.249v-10.007h-2.06v-2.117h2.06v-4.235h2.553v4.235h2.437v2.117H836.988z"/>
	<path fill="#58595B" d="M841.975,1144.767v-2.901h2.553v2.901H841.975z M844.528,1162.693h-2.553v-15.17h2.553V1162.693z"/>
	<path fill="#58595B" d="M848.152,1162.693v-20.827h2.553v7.571h0.058c1.103-1.596,2.61-2.32,4.38-2.35
		c4.032,0,6.324,3.307,6.324,7.57c0,3.626-1.509,8.471-6.672,8.471c-2.582,0-3.655-1.479-4.177-2.32h-0.059v1.885H848.152z
		 M854.678,1149.38c-3.684,0-4.09,3.974-4.09,6.439c0,4.031,2.523,5.104,4.147,5.104c2.785,0,4.091-2.523,4.091-5.859
		C858.827,1153.121,858.624,1149.38,854.678,1149.38z"/>
	<path fill="#58595B" d="M873.797,1162.693v-2.204l-0.058-0.059c-1.073,1.77-2.379,2.698-4.815,2.698
		c-2.233,0-4.931-1.073-4.931-4.699v-10.906h2.553v10.064c0,2.495,1.276,3.336,2.93,3.336c3.22,0,4.177-2.843,4.177-5.047v-8.354
		h2.553v15.17H873.797z"/>
	<path fill="#58595B" d="M882.64,1162.693h-2.553v-20.827h2.553V1162.693z"/>
	<path fill="#58595B" d="M899.346,1157.936c-0.087,0.726-0.783,2.872-2.698,4.147c-0.695,0.465-1.682,1.045-4.118,1.045
		c-4.265,0-6.788-3.22-6.788-7.6c0-4.699,2.263-8.441,7.281-8.441c4.38,0,6.526,3.48,6.526,8.847h-11.081
		c0,3.162,1.479,4.989,4.409,4.989c2.407,0,3.829-1.856,3.916-2.987H899.346z M896.91,1153.904c-0.146-2.35-1.132-4.524-4.235-4.524
		c-2.35,0-4.206,2.175-4.206,4.524H896.91z"/>
	<path fill="#58595B" d="M914.076,1162.693h-2.814v-20.827h9.37c3.857,0,6.178,2.495,6.178,5.859c0,2.901-1.653,6.179-6.178,6.179
		h-6.556V1162.693z M914.076,1151.497h5.598c2.524,0,4.235-0.929,4.235-3.742c0-2.64-1.799-3.48-4.119-3.48h-5.714V1151.497z"/>
	<path fill="#58595B" d="M934.729,1147.088c4.845,0,7.049,4.09,7.049,8.006s-2.204,8.006-7.049,8.006
		c-4.844,0-7.048-4.09-7.048-8.006S929.885,1147.088,934.729,1147.088z M934.729,1160.895c3.655,0,4.409-3.771,4.409-5.802
		s-0.754-5.802-4.409-5.802c-3.654,0-4.408,3.771-4.408,5.802S931.075,1160.895,934.729,1160.895z"/>
	<path fill="#58595B" d="M953.291,1151.844c-0.029-0.957-0.378-2.553-3.598-2.553c-0.783,0-3.017,0.262-3.017,2.146
		c0,1.248,0.783,1.538,2.756,2.031l2.553,0.638c3.162,0.783,4.264,1.943,4.264,4.003c0,3.133-2.581,5.019-6.004,5.019
		c-6.005,0-6.439-3.481-6.526-5.309h2.465c0.087,1.189,0.436,3.104,4.032,3.104c1.827,0,3.48-0.725,3.48-2.407
		c0-1.219-0.841-1.624-3.017-2.176l-2.958-0.725c-2.118-0.522-3.511-1.596-3.511-3.685c0-3.335,2.756-4.844,5.744-4.844
		c5.424,0,5.801,4.003,5.801,4.757H953.291z"/>
	<path fill="#58595B" d="M962.308,1149.64v9.862c0,1.189,1.015,1.189,1.537,1.189h0.899v2.001c-0.929,0.087-1.653,0.203-1.915,0.203
		c-2.523,0-3.074-1.421-3.074-3.249v-10.007h-2.06v-2.117h2.06v-4.235h2.553v4.235h2.437v2.117H962.308z"/>
	<path fill="#58595B" d="M980.117,1157.936c-0.087,0.726-0.783,2.872-2.697,4.147c-0.696,0.465-1.683,1.045-4.119,1.045
		c-4.265,0-6.788-3.22-6.788-7.6c0-4.699,2.263-8.441,7.281-8.441c4.38,0,6.526,3.48,6.526,8.847h-11.081
		c0,3.162,1.479,4.989,4.409,4.989c2.407,0,3.829-1.856,3.916-2.987H980.117z M977.68,1153.904c-0.146-2.35-1.132-4.524-4.235-4.524
		c-2.35,0-4.206,2.175-4.206,4.524H977.68z"/>
	<path fill="#58595B" d="M986.261,1162.693h-2.553v-15.17h2.408v2.523h0.058c1.016-1.77,2.35-2.959,4.264-2.959
		c0.319,0,0.465,0.029,0.667,0.087v2.64h-0.957c-2.378,0-3.887,1.856-3.887,4.061V1162.693z"/>
	<path fill="#58595B" d="M784.075,1173.431c-2.466,4.641-3.945,7.426-3.945,14.388c0,4.786,1.653,8.324,3.974,12.879h-1.711
		c-3.017-4.525-4.989-8.151-4.989-13.575c0-5.105,1.77-9.225,4.902-13.691H784.075z"/>
	<path fill="#58595B" d="M804.435,1194.693v-12.299c0-0.609,0.058-3.249,0.058-5.192h-0.058l-5.859,17.491h-2.785l-5.859-17.462
		h-0.058c0,1.914,0.058,4.554,0.058,5.163v12.299h-2.727v-20.827h4.032l5.946,17.607h0.059l5.917-17.607h4.003v20.827H804.435z"/>
	<path fill="#58595B" d="M817.307,1179.088c4.845,0,7.049,4.09,7.049,8.006s-2.204,8.006-7.049,8.006
		c-4.844,0-7.048-4.09-7.048-8.006S812.464,1179.088,817.307,1179.088z M817.307,1192.895c3.655,0,4.409-3.771,4.409-5.802
		s-0.754-5.802-4.409-5.802c-3.654,0-4.408,3.771-4.408,5.802S813.653,1192.895,817.307,1192.895z"/>
	<path fill="#58595B" d="M827.254,1179.523h2.407v2.146h0.058c0.552-0.812,1.856-2.582,4.584-2.582c2.727,0,3.597,1.653,4.031,2.466
		c1.276-1.422,2.292-2.466,4.642-2.466c1.624,0,4.699,0.841,4.699,5.105v10.5h-2.553v-9.804c0-2.089-0.639-3.51-2.813-3.51
		c-2.146,0-3.568,2.03-3.568,4.061v9.253h-2.553v-10.5c0-1.276-0.493-2.813-2.378-2.813c-1.451,0-4.003,0.928-4.003,5.047v8.267
		h-2.553V1179.523z"/>
	<path fill="#58595B" d="M851.062,1173.866h3.017v2.843c0,2.233-0.667,4.003-3.017,4.555v-1.363
		c1.509-0.232,1.538-1.973,1.538-2.959h-1.538V1173.866z"/>
	<path fill="#58595B" d="M865.019,1183.844c-0.029-0.957-0.378-2.553-3.598-2.553c-0.783,0-3.017,0.262-3.017,2.146
		c0,1.248,0.783,1.538,2.756,2.031l2.553,0.638c3.162,0.783,4.264,1.943,4.264,4.003c0,3.133-2.581,5.019-6.004,5.019
		c-6.005,0-6.439-3.481-6.526-5.309h2.465c0.087,1.189,0.436,3.104,4.032,3.104c1.827,0,3.48-0.725,3.48-2.407
		c0-1.219-0.841-1.624-3.017-2.176l-2.958-0.725c-2.118-0.522-3.511-1.596-3.511-3.685c0-3.335,2.756-4.844,5.744-4.844
		c5.424,0,5.801,4.003,5.801,4.757H865.019z"/>
	<path fill="#58595B" d="M876.042,1173.866h16.911v2.495h-7.049v18.332h-2.813v-18.332h-7.049V1173.866z"/>
	<path fill="#58595B" d="M894.664,1194.693h-2.553v-15.17h2.408v2.523h0.058c1.016-1.77,2.35-2.959,4.264-2.959
		c0.319,0,0.465,0.029,0.667,0.087v2.64h-0.957c-2.378,0-3.887,1.856-3.887,4.061V1194.693z"/>
	<path fill="#58595B" d="M911.743,1194.693v-2.204l-0.058-0.059c-1.073,1.77-2.379,2.698-4.815,2.698
		c-2.233,0-4.931-1.073-4.931-4.699v-10.906h2.553v10.064c0,2.495,1.276,3.336,2.93,3.336c3.22,0,4.177-2.843,4.177-5.047v-8.354
		h2.553v15.17H911.743z"/>
	<path fill="#58595B" d="M926.591,1183.844c-0.029-0.957-0.378-2.553-3.598-2.553c-0.783,0-3.017,0.262-3.017,2.146
		c0,1.248,0.783,1.538,2.756,2.031l2.553,0.638c3.162,0.783,4.264,1.943,4.264,4.003c0,3.133-2.581,5.019-6.004,5.019
		c-6.005,0-6.439-3.481-6.526-5.309h2.465c0.087,1.189,0.436,3.104,4.032,3.104c1.827,0,3.48-0.725,3.48-2.407
		c0-1.219-0.841-1.624-3.017-2.176l-2.958-0.725c-2.118-0.522-3.511-1.596-3.511-3.685c0-3.335,2.756-4.844,5.744-4.844
		c5.424,0,5.801,4.003,5.801,4.757H926.591z"/>
	<path fill="#58595B" d="M935.609,1181.64v9.862c0,1.189,1.015,1.189,1.537,1.189h0.899v2.001c-0.929,0.087-1.653,0.203-1.915,0.203
		c-2.523,0-3.074-1.421-3.074-3.249v-10.007h-2.06v-2.117h2.06v-4.235h2.553v4.235h2.437v2.117H935.609z"/>
	<path fill="#58595B" d="M939.669,1200.698c2.465-4.642,3.944-7.426,3.944-14.388c0-4.786-1.653-8.325-3.974-12.879h1.711
		c3.018,4.525,4.989,8.15,4.989,13.575c0,5.105-1.77,9.225-4.902,13.691H939.669z"/>
</g>
<g>
	<path fill="#58595B" d="M1238.448,294.294h2.813v20.827h-2.813v-9.717h-10.878v9.717h-2.813v-20.827h2.813v8.615h10.878V294.294z"
		/>
	<path fill="#58595B" d="M1262.808,315.121v-12.299c0-0.609,0.058-3.249,0.058-5.192h-0.058l-5.859,17.491h-2.785l-5.859-17.462
		h-0.058c0,1.915,0.058,4.554,0.058,5.164v12.299h-2.727v-20.827h4.032l5.946,17.607h0.059l5.917-17.607h4.003v20.827H1262.808z"/>
	<path fill="#58595B" d="M1289.84,294.294h3.162l-7.6,20.827h-2.988l-7.6-20.827h3.133l5.946,17.752h0.059L1289.84,294.294z"/>
	<path fill="#58595B" d="M1306.027,310.364c-0.087,0.726-0.783,2.872-2.698,4.148c-0.695,0.464-1.682,1.044-4.118,1.044
		c-4.265,0-6.788-3.22-6.788-7.6c0-4.699,2.263-8.441,7.281-8.441c4.38,0,6.526,3.481,6.526,8.847h-11.081
		c0,3.162,1.479,4.989,4.409,4.989c2.407,0,3.829-1.856,3.916-2.988H1306.027z M1303.59,306.332
		c-0.146-2.35-1.132-4.525-4.235-4.525c-2.35,0-4.206,2.175-4.206,4.525H1303.59z"/>
	<path fill="#58595B" d="M1317.887,304.273c-0.029-0.957-0.378-2.553-3.598-2.553c-0.783,0-3.017,0.261-3.017,2.146
		c0,1.248,0.783,1.538,2.756,2.031l2.553,0.638c3.162,0.783,4.264,1.943,4.264,4.003c0,3.133-2.581,5.018-6.004,5.018
		c-6.005,0-6.439-3.481-6.526-5.308h2.465c0.087,1.189,0.436,3.104,4.032,3.104c1.827,0,3.48-0.725,3.48-2.407
		c0-1.219-0.841-1.625-3.017-2.176l-2.958-0.725c-2.118-0.522-3.511-1.595-3.511-3.684c0-3.335,2.756-4.844,5.744-4.844
		c5.424,0,5.801,4.003,5.801,4.757H1317.887z"/>
	<path fill="#58595B" d="M1326.905,302.068v9.862c0,1.189,1.015,1.189,1.537,1.189h0.899v2.001
		c-0.929,0.087-1.653,0.203-1.915,0.203c-2.523,0-3.074-1.421-3.074-3.249v-10.007h-2.06v-2.117h2.06v-4.235h2.553v4.235h2.437
		v2.117H1326.905z"/>
	<path fill="#58595B" d="M1331.892,297.195v-2.901h2.553v2.901H1331.892z M1334.445,315.121h-2.553v-15.17h2.553V315.121z"/>
	<path fill="#58595B" d="M1338.069,315.121v-20.827h2.553v7.571h0.058c1.103-1.595,2.61-2.32,4.38-2.35
		c4.032,0,6.324,3.307,6.324,7.571c0,3.626-1.509,8.47-6.672,8.47c-2.582,0-3.655-1.479-4.177-2.32h-0.059v1.885H1338.069z
		 M1344.595,301.807c-3.684,0-4.09,3.974-4.09,6.439c0,4.032,2.523,5.105,4.147,5.105c2.785,0,4.091-2.523,4.091-5.859
		C1348.744,305.549,1348.541,301.807,1344.595,301.807z"/>
	<path fill="#58595B" d="M1363.714,315.121v-2.205l-0.058-0.058c-1.073,1.77-2.379,2.698-4.815,2.698
		c-2.233,0-4.931-1.073-4.931-4.699v-10.906h2.553v10.065c0,2.495,1.276,3.336,2.93,3.336c3.22,0,4.177-2.843,4.177-5.047v-8.354
		h2.553v15.17H1363.714z"/>
	<path fill="#58595B" d="M1372.557,315.121h-2.553v-20.827h2.553V315.121z"/>
	<path fill="#58595B" d="M1389.263,310.364c-0.087,0.726-0.783,2.872-2.698,4.148c-0.695,0.464-1.682,1.044-4.118,1.044
		c-4.265,0-6.788-3.22-6.788-7.6c0-4.699,2.263-8.441,7.281-8.441c4.38,0,6.526,3.481,6.526,8.847h-11.081
		c0,3.162,1.479,4.989,4.409,4.989c2.407,0,3.829-1.856,3.916-2.988H1389.263z M1386.827,306.332
		c-0.146-2.35-1.132-4.525-4.235-4.525c-2.35,0-4.206,2.175-4.206,4.525H1386.827z"/>
	<path fill="#58595B" d="M1403.993,315.121h-2.814v-20.827h9.37c3.857,0,6.178,2.495,6.178,5.859c0,2.901-1.653,6.179-6.178,6.179
		h-6.556V315.121z M1403.993,303.925h5.598c2.524,0,4.235-0.928,4.235-3.742c0-2.64-1.799-3.481-4.119-3.481h-5.714V303.925z"/>
	<path fill="#58595B" d="M1424.646,299.515c4.845,0,7.049,4.09,7.049,8.006c0,3.916-2.204,8.006-7.049,8.006
		c-4.844,0-7.048-4.09-7.048-8.006C1417.598,303.606,1419.802,299.515,1424.646,299.515z M1424.646,313.323
		c3.655,0,4.409-3.771,4.409-5.801c0-2.031-0.754-5.802-4.409-5.802c-3.654,0-4.408,3.771-4.408,5.802
		C1420.238,309.552,1420.992,313.323,1424.646,313.323z"/>
	<path fill="#58595B" d="M1443.208,304.273c-0.029-0.957-0.378-2.553-3.598-2.553c-0.783,0-3.017,0.261-3.017,2.146
		c0,1.248,0.783,1.538,2.756,2.031l2.553,0.638c3.162,0.783,4.264,1.943,4.264,4.003c0,3.133-2.581,5.018-6.004,5.018
		c-6.005,0-6.439-3.481-6.526-5.308h2.465c0.087,1.189,0.436,3.104,4.032,3.104c1.827,0,3.48-0.725,3.48-2.407
		c0-1.219-0.841-1.625-3.017-2.176l-2.958-0.725c-2.118-0.522-3.511-1.595-3.511-3.684c0-3.335,2.756-4.844,5.744-4.844
		c5.424,0,5.801,4.003,5.801,4.757H1443.208z"/>
	<path fill="#58595B" d="M1452.225,302.068v9.862c0,1.189,1.015,1.189,1.537,1.189h0.899v2.001
		c-0.929,0.087-1.653,0.203-1.915,0.203c-2.523,0-3.074-1.421-3.074-3.249v-10.007h-2.06v-2.117h2.06v-4.235h2.553v4.235h2.437
		v2.117H1452.225z"/>
	<path fill="#58595B" d="M1470.034,310.364c-0.087,0.726-0.783,2.872-2.697,4.148c-0.696,0.464-1.683,1.044-4.119,1.044
		c-4.265,0-6.788-3.22-6.788-7.6c0-4.699,2.263-8.441,7.281-8.441c4.38,0,6.526,3.481,6.526,8.847h-11.081
		c0,3.162,1.479,4.989,4.409,4.989c2.407,0,3.829-1.856,3.916-2.988H1470.034z M1467.597,306.332
		c-0.146-2.35-1.132-4.525-4.235-4.525c-2.35,0-4.206,2.175-4.206,4.525H1467.597z"/>
	<path fill="#58595B" d="M1476.178,315.121h-2.553v-15.17h2.408v2.523h0.058c1.016-1.77,2.35-2.959,4.264-2.959
		c0.319,0,0.465,0.029,0.667,0.087v2.64h-0.957c-2.378,0-3.887,1.856-3.887,4.061V315.121z"/>
</g>
<g>
	<path fill="#58595B" d="M753.972,294.294h2.813v20.827h-2.813v-9.717h-10.878v9.717h-2.813v-20.827h2.813v8.615h10.878V294.294z"/>
	<path fill="#58595B" d="M778.333,315.121v-12.299c0-0.609,0.058-3.249,0.058-5.192h-0.058l-5.859,17.491h-2.785l-5.859-17.462
		h-0.058c0,1.915,0.058,4.554,0.058,5.164v12.299h-2.727v-20.827h4.032l5.946,17.607h0.059l5.917-17.607h4.003v20.827H778.333z"/>
	<path fill="#58595B" d="M805.365,294.294h3.162l-7.6,20.827h-2.988l-7.6-20.827h3.133l5.946,17.752h0.059L805.365,294.294z"/>
	<path fill="#58595B" d="M821.551,310.364c-0.087,0.726-0.783,2.872-2.698,4.148c-0.695,0.464-1.682,1.044-4.118,1.044
		c-4.265,0-6.788-3.22-6.788-7.6c0-4.699,2.263-8.441,7.281-8.441c4.38,0,6.526,3.481,6.526,8.847h-11.081
		c0,3.162,1.479,4.989,4.409,4.989c2.407,0,3.829-1.856,3.916-2.988H821.551z M819.115,306.332c-0.146-2.35-1.132-4.525-4.235-4.525
		c-2.35,0-4.206,2.175-4.206,4.525H819.115z"/>
	<path fill="#58595B" d="M833.412,304.273c-0.029-0.957-0.378-2.553-3.598-2.553c-0.783,0-3.017,0.261-3.017,2.146
		c0,1.248,0.783,1.538,2.756,2.031l2.553,0.638c3.162,0.783,4.264,1.943,4.264,4.003c0,3.133-2.581,5.018-6.004,5.018
		c-6.005,0-6.439-3.481-6.526-5.308h2.465c0.087,1.189,0.436,3.104,4.032,3.104c1.827,0,3.48-0.725,3.48-2.407
		c0-1.219-0.841-1.625-3.017-2.176l-2.958-0.725c-2.118-0.522-3.511-1.595-3.511-3.684c0-3.335,2.756-4.844,5.744-4.844
		c5.424,0,5.801,4.003,5.801,4.757H833.412z"/>
	<path fill="#58595B" d="M842.429,302.068v9.862c0,1.189,1.015,1.189,1.537,1.189h0.899v2.001c-0.929,0.087-1.653,0.203-1.915,0.203
		c-2.523,0-3.074-1.421-3.074-3.249v-10.007h-2.06v-2.117h2.06v-4.235h2.553v4.235h2.437v2.117H842.429z"/>
	<path fill="#58595B" d="M847.417,297.195v-2.901h2.553v2.901H847.417z M849.969,315.121h-2.553v-15.17h2.553V315.121z"/>
	<path fill="#58595B" d="M853.593,315.121v-20.827h2.553v7.571h0.058c1.103-1.595,2.61-2.32,4.38-2.35
		c4.032,0,6.324,3.307,6.324,7.571c0,3.626-1.509,8.47-6.672,8.47c-2.582,0-3.655-1.479-4.177-2.32h-0.059v1.885H853.593z
		 M860.12,301.807c-3.684,0-4.09,3.974-4.09,6.439c0,4.032,2.523,5.105,4.147,5.105c2.785,0,4.091-2.523,4.091-5.859
		C864.268,305.549,864.065,301.807,860.12,301.807z"/>
	<path fill="#58595B" d="M879.238,315.121v-2.205l-0.058-0.058c-1.073,1.77-2.379,2.698-4.815,2.698
		c-2.233,0-4.931-1.073-4.931-4.699v-10.906h2.553v10.065c0,2.495,1.276,3.336,2.93,3.336c3.22,0,4.177-2.843,4.177-5.047v-8.354
		h2.553v15.17H879.238z"/>
	<path fill="#58595B" d="M888.082,315.121h-2.553v-20.827h2.553V315.121z"/>
	<path fill="#58595B" d="M904.788,310.364c-0.087,0.726-0.783,2.872-2.698,4.148c-0.695,0.464-1.682,1.044-4.118,1.044
		c-4.265,0-6.788-3.22-6.788-7.6c0-4.699,2.263-8.441,7.281-8.441c4.38,0,6.526,3.481,6.526,8.847H893.91
		c0,3.162,1.479,4.989,4.409,4.989c2.407,0,3.829-1.856,3.916-2.988H904.788z M902.351,306.332c-0.146-2.35-1.132-4.525-4.235-4.525
		c-2.35,0-4.206,2.175-4.206,4.525H902.351z"/>
	<path fill="#58595B" d="M919.517,315.121h-2.814v-20.827h9.37c3.857,0,6.178,2.495,6.178,5.859c0,2.901-1.653,6.179-6.178,6.179
		h-6.556V315.121z M919.517,303.925h5.598c2.524,0,4.235-0.928,4.235-3.742c0-2.64-1.799-3.481-4.119-3.481h-5.714V303.925z"/>
	<path fill="#58595B" d="M940.171,299.515c4.845,0,7.049,4.09,7.049,8.006c0,3.916-2.204,8.006-7.049,8.006
		c-4.844,0-7.048-4.09-7.048-8.006C933.123,303.606,935.327,299.515,940.171,299.515z M940.171,313.323
		c3.655,0,4.409-3.771,4.409-5.801c0-2.031-0.754-5.802-4.409-5.802c-3.654,0-4.408,3.771-4.408,5.802
		C935.762,309.552,936.516,313.323,940.171,313.323z"/>
	<path fill="#58595B" d="M958.732,304.273c-0.029-0.957-0.378-2.553-3.598-2.553c-0.783,0-3.017,0.261-3.017,2.146
		c0,1.248,0.783,1.538,2.756,2.031l2.553,0.638c3.162,0.783,4.264,1.943,4.264,4.003c0,3.133-2.581,5.018-6.004,5.018
		c-6.005,0-6.439-3.481-6.526-5.308h2.465c0.087,1.189,0.436,3.104,4.032,3.104c1.827,0,3.48-0.725,3.48-2.407
		c0-1.219-0.841-1.625-3.017-2.176l-2.958-0.725c-2.118-0.522-3.511-1.595-3.511-3.684c0-3.335,2.756-4.844,5.744-4.844
		c5.424,0,5.801,4.003,5.801,4.757H958.732z"/>
	<path fill="#58595B" d="M967.75,302.068v9.862c0,1.189,1.015,1.189,1.537,1.189h0.899v2.001c-0.929,0.087-1.653,0.203-1.915,0.203
		c-2.523,0-3.074-1.421-3.074-3.249v-10.007h-2.06v-2.117h2.06v-4.235h2.553v4.235h2.437v2.117H967.75z"/>
	<path fill="#58595B" d="M985.558,310.364c-0.087,0.726-0.783,2.872-2.697,4.148c-0.696,0.464-1.683,1.044-4.119,1.044
		c-4.265,0-6.788-3.22-6.788-7.6c0-4.699,2.263-8.441,7.281-8.441c4.38,0,6.526,3.481,6.526,8.847H974.68
		c0,3.162,1.479,4.989,4.409,4.989c2.407,0,3.829-1.856,3.916-2.988H985.558z M983.122,306.332c-0.146-2.35-1.132-4.525-4.235-4.525
		c-2.35,0-4.206,2.175-4.206,4.525H983.122z"/>
	<path fill="#58595B" d="M991.703,315.121h-2.553v-15.17h2.408v2.523h0.058c1.016-1.77,2.35-2.959,4.264-2.959
		c0.319,0,0.465,0.029,0.667,0.087v2.64h-0.957c-2.378,0-3.887,1.856-3.887,4.061V315.121z"/>
</g>
<g>
	<path fill="#58595B" d="M2156.848,1538.669h2.813v20.827h-2.813v-9.717h-10.878v9.717h-2.813v-20.827h2.813v8.615h10.878V1538.669z
		"/>
	<path fill="#58595B" d="M2181.208,1559.496v-12.299c0-0.609,0.058-3.249,0.058-5.192h-0.058l-5.859,17.491h-2.785l-5.859-17.463
		h-0.058c0,1.915,0.058,4.555,0.058,5.164v12.299h-2.727v-20.827h4.032l5.946,17.607h0.059l5.917-17.607h4.003v20.827H2181.208z"/>
	<path fill="#58595B" d="M2193.042,1538.669h16.911v2.495h-7.049v18.332h-2.813v-18.332h-7.049V1538.669z"/>
	<path fill="#58595B" d="M2214.941,1543.891c4.845,0,7.049,4.09,7.049,8.006s-2.204,8.006-7.049,8.006
		c-4.844,0-7.048-4.09-7.048-8.006S2210.097,1543.891,2214.941,1543.891z M2214.941,1557.697c3.655,0,4.409-3.771,4.409-5.801
		c0-2.031-0.754-5.802-4.409-5.802c-3.654,0-4.408,3.771-4.408,5.802C2210.533,1553.927,2211.287,1557.697,2214.941,1557.697z"/>
	<path fill="#58595B" d="M2233.509,1544.326h2.813c-1.77,4.959-3.51,9.92-5.453,14.88c-2.408,6.149-2.669,6.497-5.947,6.497
		c-0.377,0-0.667-0.115-1.073-0.231v-2.321c0.319,0.117,0.842,0.262,1.538,0.262c1.334,0,1.479-0.377,2.697-3.51l-5.627-15.576h2.9
		l4.032,12.356h0.058L2233.509,1544.326z"/>
	<path fill="#58595B" d="M2120.302,1591.496v-12.299c0-0.609,0.058-3.249,0.058-5.192h-0.058l-5.859,17.491h-2.785l-5.859-17.463
		h-0.058c0,1.915,0.058,4.555,0.058,5.164v12.299h-2.727v-20.827h4.032l5.946,17.607h0.059l5.917-17.607h4.003v20.827H2120.302z"/>
	<path fill="#58595B" d="M2139.876,1586.738c-0.087,0.727-0.783,2.873-2.698,4.148c-0.695,0.465-1.682,1.045-4.118,1.045
		c-4.265,0-6.788-3.221-6.788-7.6c0-4.699,2.263-8.441,7.281-8.441c4.38,0,6.526,3.48,6.526,8.847h-11.081
		c0,3.162,1.479,4.989,4.409,4.989c2.407,0,3.829-1.856,3.916-2.988H2139.876z M2137.44,1582.707
		c-0.146-2.35-1.132-4.525-4.235-4.525c-2.35,0-4.206,2.176-4.206,4.525H2137.44z"/>
	<path fill="#58595B" d="M2146.022,1591.496h-2.553v-15.17h2.408v2.523h0.058c1.016-1.77,2.35-2.959,4.264-2.959
		c0.319,0,0.465,0.029,0.667,0.087v2.64h-0.957c-2.378,0-3.887,1.856-3.887,4.061V1591.496z"/>
	<path fill="#58595B" d="M2162.263,1581.431c-0.319-2.03-1.451-3.249-3.598-3.249c-3.161,0-4.177,3.018-4.177,5.715
		c0,2.61,0.639,5.83,4.148,5.83c1.711,0,3.19-1.276,3.626-3.597h2.465c-0.261,2.407-1.74,5.802-6.178,5.802
		c-4.265,0-6.788-3.221-6.788-7.6c0-4.699,2.263-8.441,7.281-8.441c3.974,0,5.481,2.9,5.685,5.54H2162.263z"/>
	<path fill="#58595B" d="M2179.634,1591.496h-2.553v-9.92c0-2.061-0.58-3.395-3.017-3.395c-2.088,0-4.234,1.219-4.234,5.047v8.268
		h-2.553v-20.827h2.553v7.687h0.058c0.726-0.957,2.001-2.465,4.438-2.465c2.35,0,5.308,0.957,5.308,5.279V1591.496z"/>
	<path fill="#58595B" d="M2183.315,1580.938c0.115-3.626,2.523-5.047,6.265-5.047c1.219,0,5.628,0.348,5.628,4.234v8.731
		c0,0.638,0.319,0.899,0.841,0.899c0.232,0,0.552-0.059,0.842-0.116v1.856c-0.436,0.116-0.812,0.29-1.393,0.29
		c-2.263,0-2.61-1.16-2.697-2.32c-0.986,1.073-2.524,2.466-5.482,2.466c-2.785,0-4.758-1.77-4.758-4.381
		c0-1.275,0.377-4.234,4.612-4.757l4.206-0.522c0.609-0.058,1.334-0.289,1.334-1.798c0-1.596-1.16-2.466-3.567-2.466
		c-2.9,0-3.307,1.77-3.48,2.93H2183.315z M2192.655,1583.752c-0.406,0.318-1.044,0.551-4.206,0.957
		c-1.247,0.174-3.249,0.551-3.249,2.465c0,1.654,0.842,2.64,2.756,2.64c2.379,0,4.699-1.537,4.699-3.567V1583.752z"/>
	<path fill="#58595B" d="M2211.882,1591.496h-2.553v-9.34c0-2.641-0.754-3.975-3.248-3.975c-1.451,0-4.003,0.929-4.003,5.047v8.268
		h-2.553v-15.17h2.407v2.146h0.058c0.552-0.812,1.973-2.582,4.584-2.582c2.35,0,5.308,0.957,5.308,5.279V1591.496z"/>
	<path fill="#58595B" d="M2228.239,1591.496h-2.408v-2.088h-0.058c-1.103,2.059-2.843,2.523-4.322,2.523
		c-5.163,0-6.671-4.845-6.671-8.471c0-4.264,2.291-7.57,6.323-7.57c2.756,0,3.916,1.711,4.525,2.582l0.058-0.203v-7.601h2.553
		V1591.496z M2221.509,1589.727c1.624,0,4.147-1.073,4.147-5.105c0-2.465-0.406-6.439-4.09-6.439c-3.944,0-4.147,3.742-4.147,5.686
		C2217.419,1587.203,2218.724,1589.727,2221.509,1589.727z"/>
	<path fill="#58595B" d="M2231.832,1573.57v-2.901h2.553v2.901H2231.832z M2234.384,1591.496h-2.553v-15.17h2.553V1591.496z"/>
	<path fill="#58595B" d="M2246.827,1580.647c-0.029-0.957-0.378-2.553-3.598-2.553c-0.783,0-3.017,0.261-3.017,2.146
		c0,1.247,0.783,1.538,2.756,2.03l2.553,0.639c3.162,0.783,4.264,1.943,4.264,4.003c0,3.133-2.581,5.019-6.004,5.019
		c-6.005,0-6.439-3.481-6.526-5.309h2.465c0.087,1.189,0.436,3.104,4.032,3.104c1.827,0,3.48-0.725,3.48-2.407
		c0-1.219-0.841-1.624-3.017-2.176l-2.958-0.726c-2.118-0.521-3.511-1.595-3.511-3.684c0-3.336,2.756-4.844,5.744-4.844
		c5.424,0,5.801,4.003,5.801,4.757H2246.827z"/>
	<path fill="#58595B" d="M2265.59,1586.738c-0.087,0.727-0.783,2.873-2.697,4.148c-0.696,0.465-1.683,1.045-4.119,1.045
		c-4.265,0-6.788-3.221-6.788-7.6c0-4.699,2.263-8.441,7.281-8.441c4.38,0,6.526,3.48,6.526,8.847h-11.081
		c0,3.162,1.479,4.989,4.409,4.989c2.407,0,3.829-1.856,3.916-2.988H2265.59z M2263.154,1582.707
		c-0.146-2.35-1.132-4.525-4.235-4.525c-2.35,0-4.206,2.176-4.206,4.525H2263.154z"/>
	<path fill="#58595B" d="M2271.736,1591.496h-2.553v-15.17h2.407v2.523h0.059c1.016-1.77,2.35-2.959,4.264-2.959
		c0.319,0,0.465,0.029,0.667,0.087v2.64h-0.957c-2.378,0-3.887,1.856-3.887,4.061V1591.496z"/>
	<path fill="#58595B" d="M2145.442,1621.002H2156v2.494h-13.373v-20.827h2.814V1621.002z"/>
	<path fill="#58595B" d="M2168.324,1623.496v-2.205l-0.058-0.058c-1.073,1.77-2.379,2.698-4.815,2.698
		c-2.233,0-4.931-1.074-4.931-4.699v-10.906h2.553v10.064c0,2.494,1.276,3.336,2.93,3.336c3.22,0,4.177-2.843,4.177-5.047v-8.354
		h2.553v15.17H2168.324z"/>
	<path fill="#58595B" d="M2187.146,1622.249c0,2.175-0.029,7.628-7.049,7.628c-1.799,0-5.309-0.492-5.802-4.524h2.553
		c0.465,2.407,2.813,2.407,3.423,2.407c4.409,0,4.322-3.539,4.322-5.337v-0.638h-0.058v0.115c-0.668,1.074-2.002,2.031-4.032,2.031
		c-5.163,0-6.672-4.845-6.672-8.471c0-4.264,2.292-7.57,6.323-7.57c2.756,0,3.916,1.711,4.525,2.582h0.059v-2.146h2.407V1622.249z
		 M2180.561,1621.727c1.625,0,4.148-1.073,4.148-5.105c0-2.465-0.406-6.439-4.09-6.439c-3.945,0-4.148,3.742-4.148,5.686
		C2176.471,1619.203,2177.777,1621.727,2180.561,1621.727z"/>
	<path fill="#58595B" d="M2197.178,1616.767h-7.106v-2.61h7.106V1616.767z"/>
	<path fill="#58595B" d="M2209.736,1624.047c-7.774,0-10.153-6.469-10.153-10.965s2.379-10.964,10.153-10.964
		c7.773,0,10.152,6.468,10.152,10.964S2217.509,1624.047,2209.736,1624.047z M2209.736,1604.613c-4.525,0-7.252,3.567-7.252,8.469
		c0,4.902,2.727,8.471,7.252,8.471c4.524,0,7.251-3.568,7.251-8.471C2216.987,1608.181,2214.26,1604.613,2209.736,1604.613z"/>
	<path fill="#58595B" d="M2235.256,1623.496h-2.553v-9.34c0-2.641-0.754-3.975-3.248-3.975c-1.451,0-4.003,0.929-4.003,5.047v8.268
		h-2.553v-15.17h2.407v2.146h0.058c0.552-0.812,1.973-2.582,4.584-2.582c2.35,0,5.308,0.957,5.308,5.279V1623.496z"/>
</g>
<g>
	<path fill="#58595B" d="M2398.236,1513.593h2.813v20.828h-2.813v-9.718h-10.878v9.718h-2.813v-20.828h2.813v8.615h10.878V1513.593z
		"/>
	<path fill="#58595B" d="M2405.047,1523.863c0.115-3.627,2.523-5.048,6.265-5.048c1.219,0,5.628,0.349,5.628,4.235v8.73
		c0,0.639,0.319,0.9,0.841,0.9c0.232,0,0.552-0.059,0.842-0.117v1.857c-0.436,0.115-0.812,0.289-1.393,0.289
		c-2.263,0-2.61-1.16-2.697-2.32c-0.986,1.074-2.524,2.466-5.482,2.466c-2.785,0-4.758-1.77-4.758-4.38
		c0-1.276,0.377-4.235,4.612-4.758l4.206-0.521c0.609-0.059,1.334-0.29,1.334-1.799c0-1.596-1.16-2.465-3.567-2.465
		c-2.9,0-3.307,1.77-3.48,2.93H2405.047z M2414.387,1526.676c-0.406,0.319-1.044,0.551-4.206,0.957
		c-1.247,0.174-3.249,0.552-3.249,2.466c0,1.653,0.842,2.639,2.756,2.639c2.379,0,4.699-1.537,4.699-3.567V1526.676z"/>
	<path fill="#58595B" d="M2421.055,1519.25h2.407v2.146h0.059c0.608-0.87,1.769-2.582,4.524-2.582c4.032,0,6.324,3.308,6.324,7.571
		c0,3.625-1.509,8.47-6.672,8.47c-2.03,0-3.365-0.957-4.032-2.03h-0.058v7.6h-2.553V1519.25z M2427.639,1532.652
		c2.785,0,4.091-2.523,4.091-5.859c0-1.943-0.203-5.686-4.148-5.686c-3.684,0-4.09,3.974-4.09,6.439
		C2423.492,1531.577,2426.015,1532.652,2427.639,1532.652z"/>
	<path fill="#58595B" d="M2437.179,1519.25h2.407v2.146h0.059c0.608-0.87,1.769-2.582,4.524-2.582c4.032,0,6.324,3.308,6.324,7.571
		c0,3.625-1.509,8.47-6.672,8.47c-2.03,0-3.365-0.957-4.032-2.03h-0.058v7.6h-2.553V1519.25z M2443.763,1532.652
		c2.785,0,4.091-2.523,4.091-5.859c0-1.943-0.203-5.686-4.148-5.686c-3.684,0-4.09,3.974-4.09,6.439
		C2439.616,1531.577,2442.139,1532.652,2443.763,1532.652z"/>
	<path fill="#58595B" d="M2462.127,1519.25h2.813c-1.77,4.96-3.51,9.92-5.453,14.88c-2.408,6.15-2.669,6.498-5.946,6.498
		c-0.378,0-0.668-0.116-1.074-0.232v-2.32c0.319,0.116,0.842,0.262,1.538,0.262c1.334,0,1.479-0.377,2.697-3.51l-5.627-15.577h2.9
		l4.032,12.356h0.058L2462.127,1519.25z"/>
	<path fill="#58595B" d="M2492.667,1534.421v-12.299c0-0.609,0.058-3.25,0.058-5.193h-0.058l-5.859,17.492h-2.785l-5.859-17.463
		h-0.058c0,1.914,0.058,4.555,0.058,5.164v12.299h-2.727v-20.828h4.032l5.946,17.607h0.059l5.917-17.607h4.003v20.828H2492.667z"/>
	<path fill="#58595B" d="M2512.24,1529.663c-0.087,0.726-0.783,2.872-2.698,4.148c-0.695,0.464-1.682,1.044-4.118,1.044
		c-4.265,0-6.788-3.22-6.788-7.6c0-4.699,2.263-8.441,7.281-8.441c4.38,0,6.526,3.481,6.526,8.847h-11.081
		c0,3.162,1.479,4.99,4.409,4.99c2.407,0,3.829-1.857,3.916-2.988H2512.24z M2509.803,1525.632c-0.146-2.35-1.132-4.525-4.235-4.525
		c-2.35,0-4.206,2.176-4.206,4.525H2509.803z"/>
	<path fill="#58595B" d="M2515.398,1523.863c0.115-3.627,2.523-5.048,6.265-5.048c1.219,0,5.628,0.349,5.628,4.235v8.73
		c0,0.639,0.319,0.9,0.841,0.9c0.232,0,0.552-0.059,0.842-0.117v1.857c-0.436,0.115-0.812,0.289-1.393,0.289
		c-2.263,0-2.61-1.16-2.697-2.32c-0.986,1.074-2.524,2.466-5.482,2.466c-2.785,0-4.758-1.77-4.758-4.38
		c0-1.276,0.377-4.235,4.612-4.758l4.206-0.521c0.609-0.059,1.334-0.29,1.334-1.799c0-1.596-1.16-2.465-3.567-2.465
		c-2.9,0-3.307,1.77-3.48,2.93H2515.398z M2524.738,1526.676c-0.406,0.319-1.044,0.551-4.206,0.957
		c-1.247,0.174-3.249,0.552-3.249,2.466c0,1.653,0.842,2.639,2.756,2.639c2.379,0,4.699-1.537,4.699-3.567V1526.676z"/>
	<path fill="#58595B" d="M2534.219,1534.421h-2.553v-20.828h2.553V1534.421z"/>
	<path fill="#58595B" d="M2349.092,1545.593h16.911v2.495h-7.049v18.333h-2.813v-18.333h-7.049V1545.593z"/>
	<path fill="#58595B" d="M2370.993,1550.815c4.845,0,7.049,4.091,7.049,8.007c0,3.915-2.204,8.006-7.049,8.006
		c-4.844,0-7.048-4.091-7.048-8.006C2363.945,1554.906,2366.149,1550.815,2370.993,1550.815z M2370.993,1564.622
		c3.655,0,4.409-3.771,4.409-5.801c0-2.031-0.754-5.803-4.409-5.803c-3.654,0-4.408,3.771-4.408,5.803
		C2366.584,1560.851,2367.338,1564.622,2370.993,1564.622z"/>
	<path fill="#58595B" d="M2389.56,1551.25h2.813c-1.77,4.96-3.51,9.92-5.453,14.88c-2.408,6.15-2.669,6.498-5.947,6.498
		c-0.377,0-0.667-0.116-1.073-0.232v-2.32c0.319,0.116,0.842,0.262,1.538,0.262c1.334,0,1.479-0.377,2.697-3.51l-5.627-15.577h2.9
		l4.032,12.356h0.058L2389.56,1551.25z"/>
	<path fill="#58595B" d="M2420.099,1566.421v-12.299c0-0.609,0.058-3.25,0.058-5.193h-0.058l-5.859,17.492h-2.785l-5.859-17.463
		h-0.058c0,1.914,0.058,4.555,0.058,5.164v12.299h-2.727v-20.828h4.032l5.946,17.607h0.059l5.917-17.607h4.003v20.828H2420.099z"/>
	<path fill="#58595B" d="M2439.672,1561.663c-0.087,0.726-0.783,2.872-2.697,4.148c-0.696,0.464-1.683,1.044-4.119,1.044
		c-4.265,0-6.788-3.22-6.788-7.6c0-4.699,2.263-8.441,7.281-8.441c4.38,0,6.526,3.481,6.526,8.847h-11.081
		c0,3.162,1.479,4.99,4.409,4.99c2.407,0,3.829-1.857,3.916-2.988H2439.672z M2437.236,1557.632
		c-0.146-2.35-1.132-4.525-4.235-4.525c-2.35,0-4.206,2.176-4.206,4.525H2437.236z"/>
	<path fill="#58595B" d="M2445.818,1566.421h-2.553v-15.171h2.407v2.523h0.059c1.016-1.77,2.35-2.959,4.264-2.959
		c0.319,0,0.465,0.029,0.667,0.087v2.641h-0.957c-2.378,0-3.887,1.855-3.887,4.061V1566.421z"/>
	<path fill="#58595B" d="M2462.06,1556.355c-0.319-2.029-1.451-3.248-3.598-3.248c-3.161,0-4.177,3.017-4.177,5.715
		c0,2.609,0.639,5.83,4.148,5.83c1.711,0,3.19-1.277,3.626-3.598h2.465c-0.261,2.408-1.74,5.802-6.178,5.802
		c-4.265,0-6.788-3.22-6.788-7.6c0-4.699,2.263-8.441,7.281-8.441c3.974,0,5.481,2.901,5.685,5.54H2462.06z"/>
	<path fill="#58595B" d="M2479.431,1566.421h-2.553v-9.921c0-2.06-0.58-3.394-3.017-3.394c-2.088,0-4.234,1.219-4.234,5.047v8.268
		h-2.553v-20.828h2.553v7.688h0.058c0.726-0.957,2.001-2.466,4.438-2.466c2.35,0,5.308,0.958,5.308,5.279V1566.421z"/>
	<path fill="#58595B" d="M2483.112,1555.863c0.115-3.627,2.523-5.048,6.265-5.048c1.219,0,5.628,0.349,5.628,4.235v8.73
		c0,0.639,0.319,0.9,0.841,0.9c0.232,0,0.552-0.059,0.842-0.117v1.857c-0.436,0.115-0.812,0.289-1.393,0.289
		c-2.263,0-2.61-1.16-2.697-2.32c-0.986,1.074-2.524,2.466-5.482,2.466c-2.785,0-4.758-1.77-4.758-4.38
		c0-1.276,0.377-4.235,4.612-4.758l4.206-0.521c0.609-0.059,1.334-0.29,1.334-1.799c0-1.596-1.16-2.465-3.567-2.465
		c-2.9,0-3.307,1.77-3.48,2.93H2483.112z M2492.452,1558.676c-0.406,0.319-1.044,0.551-4.206,0.957
		c-1.247,0.174-3.249,0.552-3.249,2.466c0,1.653,0.842,2.639,2.756,2.639c2.379,0,4.699-1.537,4.699-3.567V1558.676z"/>
	<path fill="#58595B" d="M2511.679,1566.421h-2.553v-9.341c0-2.64-0.754-3.974-3.248-3.974c-1.451,0-4.003,0.928-4.003,5.047v8.268
		h-2.553v-15.171h2.407v2.146h0.058c0.552-0.812,1.973-2.582,4.584-2.582c2.35,0,5.308,0.958,5.308,5.279V1566.421z"/>
	<path fill="#58595B" d="M2528.036,1566.421h-2.408v-2.089h-0.058c-1.103,2.06-2.843,2.523-4.322,2.523
		c-5.163,0-6.671-4.845-6.671-8.47c0-4.264,2.291-7.571,6.323-7.571c2.756,0,3.916,1.712,4.525,2.582l0.058-0.203v-7.601h2.553
		V1566.421z M2521.306,1564.652c1.624,0,4.147-1.074,4.147-5.105c0-2.466-0.406-6.439-4.09-6.439c-3.944,0-4.147,3.742-4.147,5.686
		C2517.216,1562.128,2518.521,1564.652,2521.306,1564.652z"/>
	<path fill="#58595B" d="M2531.628,1548.494v-2.901h2.553v2.901H2531.628z M2534.181,1566.421h-2.553v-15.171h2.553V1566.421z"/>
	<path fill="#58595B" d="M2546.624,1555.572c-0.029-0.957-0.378-2.553-3.598-2.553c-0.783,0-3.017,0.262-3.017,2.146
		c0,1.248,0.783,1.538,2.756,2.031l2.553,0.639c3.162,0.783,4.264,1.943,4.264,4.002c0,3.133-2.581,5.019-6.004,5.019
		c-6.005,0-6.439-3.481-6.526-5.308h2.465c0.087,1.188,0.436,3.104,4.032,3.104c1.827,0,3.48-0.726,3.48-2.408
		c0-1.219-0.841-1.624-3.017-2.176l-2.958-0.725c-2.118-0.521-3.511-1.596-3.511-3.684c0-3.336,2.756-4.845,5.744-4.845
		c5.424,0,5.801,4.003,5.801,4.757H2546.624z"/>
	<path fill="#58595B" d="M2565.387,1561.663c-0.087,0.726-0.783,2.872-2.697,4.148c-0.696,0.464-1.683,1.044-4.119,1.044
		c-4.265,0-6.788-3.22-6.788-7.6c0-4.699,2.263-8.441,7.281-8.441c4.38,0,6.526,3.481,6.526,8.847h-11.081
		c0,3.162,1.479,4.99,4.409,4.99c2.407,0,3.829-1.857,3.916-2.988H2565.387z M2562.951,1557.632
		c-0.146-2.35-1.132-4.525-4.235-4.525c-2.35,0-4.206,2.176-4.206,4.525H2562.951z"/>
	<path fill="#58595B" d="M2571.533,1566.421h-2.553v-15.171h2.407v2.523h0.059c1.016-1.77,2.35-2.959,4.264-2.959
		c0.319,0,0.465,0.029,0.667,0.087v2.641h-0.957c-2.378,0-3.887,1.855-3.887,4.061V1566.421z"/>
</g>
<rect x="434.254" y="398.447" fill="#B3B3B3" stroke="#010101" stroke-width="2" width="141.463" height="1080.263"/>
<g>
	<path fill="#58595B" d="M435.931,1502.475h8.61c5.533,0,8.935,4.201,8.935,10.325c0,4.764-2.071,10.918-9.053,10.918h-8.492
		V1502.475z M438.801,1521.262h5.562c3.728,0,6.154-2.929,6.154-8.284s-2.456-8.048-6.361-8.048h-5.355V1521.262z"/>
	<path fill="#58595B" d="M463.718,1507.8c4.941,0,7.189,4.172,7.189,8.166s-2.249,8.166-7.189,8.166s-7.189-4.172-7.189-8.166
		S458.777,1507.8,463.718,1507.8z M463.718,1521.884c3.728,0,4.497-3.847,4.497-5.918s-0.769-5.917-4.497-5.917
		s-4.497,3.846-4.497,5.917S459.99,1521.884,463.718,1521.884z"/>
	<path fill="#58595B" d="M480.764,1507.8c4.941,0,7.189,4.172,7.189,8.166s-2.249,8.166-7.189,8.166s-7.189-4.172-7.189-8.166
		S475.823,1507.8,480.764,1507.8z M480.764,1521.884c3.728,0,4.497-3.847,4.497-5.918s-0.769-5.917-4.497-5.917
		s-4.497,3.846-4.497,5.917S477.036,1521.884,480.764,1521.884z"/>
	<path fill="#58595B" d="M494.467,1523.718h-2.604v-15.474h2.456v2.574h0.059c1.036-1.806,2.396-3.019,4.349-3.019
		c0.326,0,0.474,0.03,0.681,0.089v2.692h-0.976c-2.426,0-3.965,1.894-3.965,4.143V1523.718z"/>
	<path fill="#58595B" d="M511.248,1502.475h8.61c5.533,0,8.935,4.201,8.935,10.325c0,4.764-2.071,10.918-9.053,10.918h-8.492
		V1502.475z M514.118,1521.262h5.562c3.728,0,6.154-2.929,6.154-8.284s-2.456-8.048-6.361-8.048h-5.355V1521.262z"/>
	<path fill="#58595B" d="M545.869,1518.865c-0.089,0.74-0.799,2.93-2.751,4.231c-0.71,0.474-1.716,1.064-4.201,1.064
		c-4.35,0-6.923-3.283-6.923-7.751c0-4.793,2.308-8.61,7.426-8.61c4.467,0,6.657,3.551,6.657,9.024h-11.302
		c0,3.225,1.509,5.089,4.497,5.089c2.456,0,3.905-1.894,3.994-3.048H545.869z M543.384,1514.753
		c-0.148-2.396-1.154-4.615-4.319-4.615c-2.396,0-4.29,2.219-4.29,4.615H543.384z"/>
	<path fill="#58595B" d="M559.454,1513.451c-0.326-2.071-1.479-3.313-3.669-3.313c-3.225,0-4.26,3.077-4.26,5.828
		c0,2.663,0.651,5.947,4.231,5.947c1.746,0,3.254-1.302,3.698-3.669h2.515c-0.266,2.456-1.775,5.917-6.302,5.917
		c-4.35,0-6.923-3.283-6.923-7.751c0-4.793,2.308-8.61,7.426-8.61c4.053,0,5.592,2.959,5.799,5.651H559.454z"/>
	<path fill="#58595B" d="M565.079,1512.948c0.118-3.698,2.574-5.148,6.391-5.148c1.243,0,5.74,0.355,5.74,4.32v8.905
		c0,0.651,0.326,0.917,0.858,0.917c0.237,0,0.562-0.059,0.858-0.118v1.894c-0.444,0.118-0.829,0.296-1.42,0.296
		c-2.308,0-2.663-1.184-2.751-2.367c-1.006,1.095-2.574,2.515-5.592,2.515c-2.84,0-4.853-1.805-4.853-4.467
		c0-1.302,0.385-4.32,4.705-4.853l4.29-0.532c0.621-0.06,1.361-0.296,1.361-1.835c0-1.627-1.184-2.515-3.639-2.515
		c-2.958,0-3.373,1.805-3.55,2.988H565.079z M574.606,1515.818c-0.414,0.325-1.065,0.562-4.29,0.977
		c-1.272,0.177-3.314,0.562-3.314,2.515c0,1.687,0.858,2.692,2.811,2.692c2.426,0,4.793-1.568,4.793-3.64V1515.818z"/>
	<path fill="#58595B" d="M584.877,1523.718h-2.604v-21.243h2.604V1523.718z"/>
</g>
<rect fill="#D6D6D5" width="494.725" height="207.8"/>
<rect x="0" fill="#FFFFFF" width="483.925" height="197"/>
<g>
	<path fill="#231F20" d="M39.543,95.822V38.075h14.706c4.928,0,10.856,0.154,15.245,2.695c5.236,3.079,6.083,8.7,6.083,14.244v25.64
		c-0.077,5.774-1.848,10.009-5.774,12.473c-3.542,2.311-7.854,2.695-12.011,2.695H39.543z M53.094,85.428
		c9.085,0.616,9.162-3.08,8.931-10.779V55.784c-0.077-6.775-2.31-7.16-8.931-7.314V85.428z"/>
	<path fill="#231F20" d="M83.432,48.47V38.075h12.243V48.47H83.432z M83.432,95.822V52.704h12.243v43.118H83.432z"/>
	<path fill="#231F20" d="M115.386,52.704v5.391h0.154c1.155-3.312,4.697-6.622,8.546-6.622c5.775,0,10.934,3.157,10.934,9.009
		v35.341h-12.243V65.024c-0.154-2.002-0.924-3.696-3.233-3.542c-2.156,0.077-3.311,1.309-3.311,3.542v30.798h-12.242V52.704H115.386
		z"/>
	<path fill="#231F20" d="M143.338,48.47V38.075h12.243V48.47H143.338z M143.338,95.822V52.704h12.243v43.118H143.338z"/>
	<path fill="#231F20" d="M175.292,52.704v5.391h0.154c1.155-3.312,4.697-6.622,8.546-6.622c5.775,0,10.934,3.157,10.934,9.009
		v35.341h-12.243V65.024c-0.154-2.002-0.924-3.696-3.233-3.542c-2.156,0.077-3.311,1.309-3.311,3.542v30.798h-12.242V52.704H175.292
		z"/>
	<path fill="#231F20" d="M213.638,98.209c0,3.003,0.462,4.312,4.004,4.081c2.541-0.231,3.619-0.771,3.696-3.542v-8.7h-0.154
		c-2.464,2.849-5.39,4.696-8.7,4.696c-7.7,0-10.779-6.93-10.779-13.551V66.256c0-6.775,2.464-14.783,10.548-14.783
		c4.235,0.154,7.623,2.156,9.701,6.468h0.154v-5.236h11.395v43.965c0,10.087-7.237,13.705-16.4,13.705
		c-9.24,0-15.399-2.232-15.707-12.165H213.638z M213.946,80.115c0,2.387,0.77,4.62,3.619,4.62c3.311,0,3.696-3.003,3.696-5.621
		V67.18c0-2.926-0.693-5.697-4.004-5.697c-3.157,0-3.388,4.157-3.311,6.391V80.115z"/>
	<path fill="#231F20" d="M257.067,95.822l12.627-57.747h16.323l12.55,57.747h-13.706l-1.925-11.241h-10.625l-1.617,11.241H257.067z
		 M277.856,48.547h-0.154l-3.927,25.87h7.854L277.856,48.547z"/>
	<path fill="#231F20" d="M313.816,52.704v6.545h0.154c1.386-4.619,4.389-7.776,9.471-7.776v13.859
		c-1.232-0.231-2.464-0.308-3.696-0.308c-3.465,0-4.851,0.692-5.082,4.234v26.563H302.42V52.704H313.816z"/>
	<path fill="#231F20" d="M339.995,76.266v7.545c0,2.388,1.078,4.389,3.773,4.543c4.543,0.231,4.081-3.85,4.312-7.469h12.165
		c0.616,11.088-5.39,16.169-16.015,16.323c-8.777,0.077-16.477-3.542-16.477-13.397V66.256c0-11.087,7.007-14.706,16.477-14.783
		c8.547-0.077,16.477,3.157,16.477,12.474v12.319H339.995z M348.464,68.181v-4.234c0-1.54-1.001-4.389-4.158-4.389
		c-3.465,0-4.312,2.771-4.312,5.774v2.849H348.464z"/>
	<path fill="#231F20" d="M386.964,91.973c-3.08,3.388-5.698,5.235-10.548,5.235c-6.93,0-11.241-4.696-11.241-11.549
		c0-9.779,5.312-12.858,10.702-14.63c5.312-1.771,10.625-2.31,10.625-6.93c0-2.387-1.386-4.466-3.85-4.466
		c-4.466,0-4.466,3.08-4.697,6.699h-12.243c-0.231-5.39,1.386-9.086,4.389-11.473c3.002-2.387,7.237-3.388,12.165-3.388
		c12.088,0,16.477,3.696,16.477,13.166v26.41c0,1.616,0.462,3.233,1.001,4.773h-11.934L386.964,91.973z M386.503,74.88
		c-2.464,1.309-4.62,2.001-6.16,3.156c-1.54,1.078-2.849,2.618-2.849,5.544c0,2.694,1.617,4.619,4.542,4.619
		c3.619,0,4.389-3.772,4.466-6.544V74.88z"/>
	<path fill="#231F20" d="M38.332,171.422v-47.253h11.089v37.803h13.545v9.45H38.332z"/>
	<path fill="#231F20" d="M66.618,147.229c0-9.072,5.355-12.097,13.105-12.097c8.82,0,13.104,4.158,13.104,12.097v14.365
		c-0.504,8.001-5.481,10.962-13.104,10.962c-7.183,0-13.105-2.897-13.105-10.962V147.229z M76.635,162.224
		c0.189,2.016,1.008,3.087,3.087,3.087s2.898-1.071,3.087-3.087v-15.751c0-2.269-0.756-4.096-3.087-4.096s-3.087,1.827-3.087,4.096
		V162.224z"/>
	<path fill="#231F20" d="M108.513,139.038h0.126c1.575-3.024,4.599-3.906,7.497-3.906c6.616,0,8.568,6.553,8.568,12.097v12.223
		c0,5.985-1.449,12.853-8.757,13.104c-3.213-0.126-6.363-1.89-8.001-5.166h-0.126v4.032h-9.324v-47.253h10.017V139.038z
		 M114.688,149.118c0-2.079,0-5.732-2.898-5.732c-2.709,0-3.276,2.771-3.276,6.174v8.316c0,3.024,0.63,6.553,3.087,6.489
		c3.213,0,3.087-3.843,3.087-6.111V149.118z"/>
	<path fill="#231F20" d="M140.013,139.038h0.126c1.575-3.024,4.599-3.906,7.497-3.906c6.616,0,8.568,6.553,8.568,12.097v12.223
		c0,5.985-1.449,12.853-8.757,13.104c-3.213-0.126-6.363-1.89-8.001-5.166h-0.126v4.032h-9.324v-47.253h10.017V139.038z
		 M146.188,149.118c0-2.079,0-5.732-2.898-5.732c-2.709,0-3.276,2.771-3.276,6.174v8.316c0,3.024,0.63,6.553,3.087,6.489
		c3.213,0,3.087-3.843,3.087-6.111V149.118z"/>
	<path fill="#231F20" d="M172.333,158.947h0.126l3.465-22.808h9.829l-6.364,30.179c-2.52,9.577-2.457,17.011-13.419,17.011
		c-1.764,0-2.961-0.314-3.969-0.314v-7.435c0.63,0.063,1.323,0.126,1.953,0.252c1.071,0.189,3.024-0.378,3.024-1.764
		c0-1.639-0.756-4.348-1.134-5.985l-6.994-31.943h10.081L172.333,158.947z"/>
	<path fill="#231F20" d="M203.831,124.169h25.075v8.82l-13.735,28.982h14.365v9.45h-26.714v-8.442l13.987-29.359h-12.979V124.169z"
		/>
	<path fill="#231F20" d="M232.81,147.229c0-9.072,5.355-12.097,13.105-12.097c8.82,0,13.104,4.158,13.104,12.097v14.365
		c-0.504,8.001-5.481,10.962-13.104,10.962c-7.183,0-13.105-2.897-13.105-10.962V147.229z M242.828,162.224
		c0.189,2.016,1.008,3.087,3.087,3.087s2.898-1.071,3.087-3.087v-15.751c0-2.269-0.756-4.096-3.087-4.096s-3.087,1.827-3.087,4.096
		V162.224z"/>
	<path fill="#231F20" d="M274.076,136.14v4.41h0.126c0.945-2.709,3.843-5.418,6.994-5.418c4.725,0,8.946,2.583,8.946,7.371v28.919
		h-10.018v-25.201c-0.126-1.639-0.756-3.024-2.646-2.898c-1.764,0.063-2.709,1.071-2.709,2.898v25.201h-10.017V136.14H274.076z"/>
	<path fill="#231F20" d="M305.576,155.419v6.175c0,1.953,0.882,3.591,3.087,3.717c3.717,0.189,3.339-3.15,3.528-6.111h9.955
		c0.504,9.072-4.41,13.23-13.104,13.356c-7.183,0.063-13.483-2.897-13.483-10.962v-14.365c0-9.072,5.733-12.033,13.483-12.097
		c6.993-0.063,13.483,2.583,13.483,10.207v10.08H305.576z M312.506,148.804v-3.465c0-1.261-0.819-3.592-3.402-3.592
		c-2.835,0-3.528,2.269-3.528,4.726v2.331H312.506z"/>
</g>
</svg>
