<?xml version="1.0" encoding="utf-8"?>
<!-- Generator: Adobe Illustrator 19.2.1, SVG Export Plug-In . SVG Version: 6.00 Build 0)  -->
<svg version="1.1" id="Interactive" xmlns="http://www.w3.org/2000/svg" xmlns:xlink="http://www.w3.org/1999/xlink" x="0px"
	 y="0px" viewBox="0 0 3600 2782.08" enable-background="new 0 0 3600 2782.08" xml:space="preserve">
<rect id="_x31_1.10" x="3131.568" y="920.295" fill="none" width="327.887" height="240.402"/>
<rect id="_x31_1.9" x="3131.568" y="648.552" fill="none" width="327.887" height="240.402"/>
<rect id="_x31_1.22" x="3131.568" y="105.246" fill="none" width="327.887" height="240.402"/>
<rect id="_x31_1.18" x="2232.079" y="99.306" fill="none" width="451.409" height="330.967"/>
<rect id="_x31_1.19" x="2232.079" y="459.073" fill="none" width="451.409" height="330.967"/>
<rect id="_x31_1.23" x="3131.568" y="361.879" fill="none" width="327.887" height="240.402"/>
<rect id="_x31_1.12" x="1662.459" y="677.726" fill="none" width="335.413" height="195.299"/>
<rect id="_x31_1.5" x="1210.056" y="739.954" fill="none" width="269.76" height="368.381"/>
<rect id="_x31_1.3" x="736.512" y="739.954" fill="none" width="269.761" height="368.381"/>
<rect id="_x31_1.21" x="1210.056" y="1213.51" fill="none" width="269.76" height="368.381"/>
<rect id="_x31_1.20" x="736.512" y="1213.51" fill="none" width="269.761" height="368.381"/>
<rect id="_x31_1.4" x="1210.056" y="344.539" fill="none" width="269.76" height="368.381"/>
<rect id="_x31_1.2" x="736.512" y="344.539" fill="none" width="269.761" height="368.381"/>
<rect id="_x31_1.13" x="1688.607" y="1144.284" fill="none" width="277.197" height="353.366"/>
<rect id="_x31_1.6" x="2209" y="811.292" fill="none" width="497.994" height="673.057"/>
<rect id="_x31_1.8" x="2724.041" y="1042.801" fill="none" width="260.247" height="367.842"/>
<rect id="_x31_1.15" x="434.254" y="398.447" fill="none" width="141.463" height="1080.263"/>
<rect id="_x31_1.16" x="139.006" y="398.447" fill="none" width="295.249" height="540.131"/>
<rect id="_x31_1.17" x="139.006" y="938.579" fill="none" width="295.249" height="540.131"/>
<rect id="_x31_1.7" x="2329.113" y="1042.801" fill="none" width="260.247" height="367.842"/>
<rect id="_x31_1.14" x="2109.732" y="1145.3" fill="none" width="143.773" height="281.2"/>
</svg>
