<?xml version="1.0" encoding="utf-8"?>
<!-- Generator: Adobe Illustrator 19.0.1, SVG Export Plug-In . SVG Version: 6.00 Build 0)  -->
<svg version="1.1" xmlns="http://www.w3.org/2000/svg" xmlns:xlink="http://www.w3.org/1999/xlink" x="0px" y="0px"
	 viewBox="0 0 3679.2 2376" enable-background="new 0 0 3679.2 2376" xml:space="preserve">
<g id="Background">
	<rect x="126.23" y="490.705" fill="#F2F1EA" width="3435.269" height="1405.06"/>
	<rect x="126.23" y="1508.346" fill="#E6E3D4" stroke="#A4A196" stroke-width="2.0849" width="3435.269" height="398.339"/>
	<rect x="126.23" y="1469.771" fill="#E6E3D4" stroke="#A4A196" stroke-width="2" width="3435.269" height="38.575"/>
	<rect x="126.229" y="490.705" fill="#E6E3D4" stroke="#A4A196" stroke-width="0.651" width="3435.27" height="41.148"/>
	<rect x="126.229" y="490.705" fill="none" stroke="#A4A196" stroke-width="2" width="3435.27" height="1415.98"/>
	<rect x="151.805" y="1868.108" fill="#F2F1EA" stroke="#D3D1C7" stroke-width="2.0849" width="3409.694" height="38.577"/>
	<rect x="1574.82" y="766.319" fill="#C3C2BC" width="22.06" height="806.614"/>
	<rect x="697.051" y="766.319" fill="#C3C2BC" width="18.609" height="806.614"/>
	<rect x="696.926" y="765.789" fill="none" stroke="#A4A196" stroke-width="2.7322" width="899.954" height="807.145"/>
	<polygon fill="#ABABAB" points="715.071,780.91 698,766.319 1596.88,766.319 1576.038,780.91 	"/>
	<polygon fill="#ABABAB" points="1576.404,1558.284 1596.897,1572.86 697.077,1572.86 715.071,1558.284 	"/>
	<linearGradient id="SVGID_1_" gradientUnits="userSpaceOnUse" x1="1145.7373" y1="1588.496" x2="1145.7373" y2="-25.8792">
		<stop  offset="0" style="stop-color:#FFFFFF"/>
		<stop  offset="1" style="stop-color:#AFD3D7"/>
	</linearGradient>
	<rect x="715.071" y="782.339" fill="url(#SVGID_1_)" stroke="#A4A196" stroke-width="2.737" width="861.333" height="774.596"/>
	<text transform="matrix(1 0 0 1 1082.1501 1150.72)" fill="#595A5C" font-family="'Helvetica'" font-size="29px">Facing Out</text>
	<text transform="matrix(1 0 0 1 1093.4285 1235.7502)" fill="#595A5C" font-family="'Helvetica'" font-size="29px">Facing In</text>
	<line fill="none" stroke="#808080" stroke-width="2" x1="776.112" y1="1168.209" x2="1519.416" y2="1168.209"/>
	<path fill="#A3A3A3" d="M3433.004,2038.375c0,5.607-47.595,10.167-106.308,10.167c-58.708,0-106.307-4.56-106.307-10.167
		c0-5.618,47.598-10.178,106.307-10.178C3385.41,2028.197,3433.004,2032.756,3433.004,2038.375z"/>
	<rect x="3220.39" y="2030.237" fill="#A3A3A3" width="212.615" height="8.138"/>
	<path fill="#555246" d="M3433.004,2030.237c0,5.61-47.595,10.167-106.308,10.167c-58.708,0-106.307-4.557-106.307-10.167
		c0-5.622,47.598-10.183,106.307-10.183C3385.41,2020.054,3433.004,2024.615,3433.004,2030.237z"/>
	<polygon fill="#838279" points="3206.158,1797.134 3192.887,1772.526 3192.038,1981.618 3204.418,1981.618 	"/>
	<polygon fill="#838279" points="3462.831,1797.134 3476.116,1772.526 3476.947,1981.618 3464.572,1981.618 	"/>
	<path fill="#A4A196" stroke="#A4A196" stroke-width="2.7747" d="M3481.158,1783.644h-10.8l-1.801-68.281h-267.265l-1.8,68.281
		h-10.799l6.098-252.076c0-6.895,10.577-12.494,17.471-12.494h246.22c6.901,0,17.476,5.6,17.476,12.494L3481.158,1783.644z"/>
	<path fill="#A4A196" stroke="#A4A196" stroke-width="2.7747" d="M3481.818,1801.076c0,6.77-5.494,12.265-12.279,12.265H3200.31
		c-6.781,0-12.277-5.495-12.277-12.265v-28.55c0-6.784,5.496-12.272,12.277-12.272h269.229c6.785,0,12.279,5.488,12.279,12.272
		V1801.076z"/>
	<polygon fill="#A4A196" stroke="#A4A196" stroke-width="2.7747" points="3201.764,1801.641 3188.033,1772.526 3187.165,2032.017 
		3199.963,2032.017 	"/>
	<polygon fill="#A4A196" stroke="#A4A196" stroke-width="2.7747" points="3467.227,1801.641 3480.963,1772.526 3481.829,2032.017 
		3469.029,2032.017 	"/>
	<path fill="#838279" d="M3481.818,1775.87h-293.785v-3.344c0-6.784,10.487-12.272,17.264-12.272h259.25
		c6.776,0,17.271,5.488,17.271,12.272V1775.87z"/>
	<path fill="#A4A196" stroke="#A4A196" stroke-width="2.7747" d="M3353.453,2023.121c0,0-0.187,6.446-26.751,6.446
		c-26.57,0-26.57-6.446-26.57-6.446v-306.357h53.32V2023.121z"/>
	<path fill="#F2F3F3" stroke="#B4B0A2" stroke-width="1.2167" d="M3584.014,1659.648l-452.857,0.492
		c-3.652,0-7.303,0.148-10.787,0.359c-3.488,0.239-6.812,0.577-9.803,0.992c-2.984,0.42-5.636,0.921-7.77,1.476
		c-2.143,0.562-3.763,1.158-4.689,1.803l-83.154,22.594c0,0-0.177,36.098,0.324,36.84c0.503,0.725,1.813,1.417,3.826,1.988
		c2.012,0.562,4.719,1.011,8,1.337c3.285,0.304,7.137,0.469,11.43,0.469l533.851-0.582c4.297,0,8.417-0.196,12.188-0.513
		c3.765-0.332,7.169-0.784,10.048-1.355c2.867-0.563,5.211-1.251,6.856-1.984c1.627-0.749,2.58-1.559,2.665-2.404l5.809-56.938
		c0.063-0.648,0-37.249,0-37.249s-5.081,34.403-7.428,33.995c-2.351-0.406-5.151-0.745-8.284-0.965
		C3591.116,1659.761,3587.662,1659.648,3584.014,1659.648z"/>
	<linearGradient id="SVGID_2_" gradientUnits="userSpaceOnUse" x1="3312.5002" y1="1581.6908" x2="3312.5002" y2="1772.3973">
		<stop  offset="0" style="stop-color:#FFFFFF"/>
		<stop  offset="0.25" style="stop-color:#FCFCFC"/>
		<stop  offset="0.4249" style="stop-color:#F3F3F3"/>
		<stop  offset="0.5769" style="stop-color:#E4E4E4"/>
		<stop  offset="0.7159" style="stop-color:#CECECE"/>
		<stop  offset="0.846" style="stop-color:#B1B1B1"/>
		<stop  offset="0.9678" style="stop-color:#8F8F8F"/>
		<stop  offset="1" style="stop-color:#858585"/>
	</linearGradient>
	<path fill="url(#SVGID_2_)" stroke="#B4B0A2" stroke-width="1.2167" d="M3584.014,1622.811l-452.857,0.488
		c-3.652,0-7.303,0.138-10.787,0.366c-3.488,0.245-6.812,0.583-9.803,0.993c-2.984,0.404-5.636,0.909-7.77,1.465
		c-2.143,0.551-3.763,1.153-4.689,1.796l-81.815,57.037c-1.222,0.839-1.515,1.672-1.014,2.407c0.503,0.742,1.813,1.41,3.826,1.965
		c2.012,0.572,4.719,1.022,8,1.355c3.285,0.308,7.137,0.479,11.43,0.462l533.851-0.579c4.297-0.011,8.417-0.185,12.188-0.523
		c3.765-0.308,7.169-0.771,10.048-1.333c2.867-0.577,5.211-1.251,6.856-2c1.627-0.739,2.58-1.551,2.665-2.396l5.809-56.943
		c0.063-0.648-0.619-1.247-1.907-1.803c-1.282-0.551-3.174-1.043-5.521-1.45c-2.351-0.417-5.151-0.745-8.284-0.961
		C3591.116,1622.92,3587.662,1622.811,3584.014,1622.811z"/>
	<polygon fill="#404040" points="3164.795,1677.485 3503.168,1677.485 3468.935,1626.971 3194.198,1626.971 	"/>
	<polygon fill="#8C8C8C" points="3188.033,1668.61 3478.597,1668.61 3455.668,1634.959 3207.808,1634.959 	"/>
	<polygon fill="#676767" points="3171.985,1677.485 3177.656,1682.218 3491.456,1682.218 3493.976,1677.485 	"/>
	<rect x="1629.979" y="1318.632" fill="#B3B3B3" width="475" height="631.668"/>
	
		<rect x="1655.429" y="1344.452" fill="none" stroke="#404040" stroke-width="2" stroke-miterlimit="10" width="205.556" height="110.044"/>
	
		<rect x="1873.484" y="1344.452" fill="none" stroke="#404040" stroke-width="2" stroke-miterlimit="10" width="205.556" height="110.044"/>
	<polygon fill="#404040" points="1766.258,1305.422 1955.711,1305.422 1949.068,1321.833 1772.454,1321.833 	"/>
	<rect x="138.158" y="766.56" fill="#F9F8F4" stroke="#A4A196" stroke-width="2.1213" width="520.703" height="1140.125"/>
	
		<rect id="Door" x="171.55" y="805.354" fill="#A4A196" stroke="#A4A196" stroke-width="6.2011" width="451.807" height="1093.912"/>
	
		<linearGradient id="Door_2_" gradientUnits="userSpaceOnUse" x1="557.3808" y1="1936.2063" x2="557.3808" y2="-314.2587" gradientTransform="matrix(-1 0 0 1 954.834 0)">
		<stop  offset="0" style="stop-color:#FFFFFF"/>
		<stop  offset="1" style="stop-color:#AFD3D7"/>
	</linearGradient>
	<rect id="Door_1_" x="178.606" y="812.41" fill="url(#Door_2_)" width="437.695" height="1079.8"/>
	
		<linearGradient id="SVGID_3_" gradientUnits="userSpaceOnUse" x1="557.6885" y1="1489.0457" x2="557.6885" y2="1157.1016" gradientTransform="matrix(-1 0 0 1 954.834 0)">
		<stop  offset="0" style="stop-color:#FDF9CC"/>
		<stop  offset="1" style="stop-color:#ECAE6C"/>
	</linearGradient>
	<rect x="177.82" y="1318.632" opacity="0.6" fill="url(#SVGID_3_)" width="438.651" height="104.624"/>
	<rect x="180.124" y="770.763" fill="#A4A196" stroke="#F2F1EA" stroke-width="1.3448" width="94.626" height="10.232"/>
	<rect x="157.155" y="785.496" fill="none" stroke="#A4A196" stroke-width="2.067" width="482.956" height="1121.189"/>
	<g>
		<path fill="#F2F1EA" stroke="#A4A196" stroke-width="1.8699" d="M152.943,1023.087c0,2.976,1.968,5.389,4.388,5.389l0,0
			c2.427,0,4.394-2.413,4.394-5.389v-54.042c0-2.98-1.967-5.397-4.394-5.397l0,0c-2.42,0-4.388,2.417-4.388,5.397V1023.087z"/>
	</g>
	<rect x="551.979" y="1298.932" opacity="0.58" fill="#B0AFA5" width="71.575" height="163.021"/>
	<rect x="556.206" y="1292.083" fill="#B0AFA5" width="67.348" height="163.16"/>
	<line fill="none" stroke="#D3D2CB" stroke-width="1.2448" x1="613.03" y1="1292.025" x2="613.03" y2="1454.497"/>
	<line fill="none" stroke="#D3D2CB" stroke-width="1.2448" x1="607.184" y1="1292.025" x2="607.184" y2="1454.497"/>
	<line fill="none" stroke="#D3D2CB" stroke-width="1.2448" x1="601.345" y1="1292.025" x2="601.345" y2="1454.497"/>
	<line fill="none" stroke="#D3D2CB" stroke-width="1.2448" x1="595.517" y1="1292.025" x2="595.517" y2="1454.497"/>
	<line fill="none" stroke="#D3D2CB" stroke-width="1.2448" x1="589.674" y1="1292.025" x2="589.674" y2="1454.497"/>
	<line fill="none" stroke="#D3D2CB" stroke-width="1.2448" x1="583.829" y1="1292.025" x2="583.829" y2="1454.497"/>
	<line fill="none" stroke="#D3D2CB" stroke-width="1.2448" x1="578" y1="1292.025" x2="578" y2="1454.497"/>
	<line fill="none" stroke="#D3D2CB" stroke-width="1.2448" x1="572.161" y1="1292.025" x2="572.161" y2="1454.497"/>
	<line fill="none" stroke="#D3D2CB" stroke-width="1.2448" x1="566.316" y1="1292.025" x2="566.316" y2="1454.497"/>
	<path fill="#CFD1D1" d="M2607.009,2113.049c-37.366-10.725-72.9-41.928-80.74-49.118v-140.008c0-4.758-3.859-8.613-8.609-8.613
		h-38.95c-4.764,0-8.606,3.856-8.606,8.613v140.002c-7.829,7.182-43.4,38.422-80.8,49.138
		c-53.343,13.074-88.526,35.473-88.526,60.908c0,40.336,88.381,73.037,197.407,73.037c109.024,0,197.409-32.701,197.409-73.037
		C2695.593,2148.527,2660.384,2126.121,2607.009,2113.049z"/>
	<path opacity="0.3" fill="#FFFFFF" d="M2307.179,2185.584c0,0,22.893,49.764,193.769,49.32
		c177.969-0.457,188.49-52.848,188.49-52.848s-67.676,35.816-189.646,35.816C2377.815,2217.874,2332.856,2193.606,2307.179,2185.584
		z"/>
	<linearGradient id="SVGID_4_" gradientUnits="userSpaceOnUse" x1="2506.3296" y1="2021.2682" x2="2478.3599" y2="1905.6133">
		<stop  offset="0.0769" style="stop-color:#FFFFFF"/>
		<stop  offset="0.1374" style="stop-color:#F2F2F2"/>
		<stop  offset="0.8901" style="stop-color:#000000"/>
	</linearGradient>
	<polygon fill="url(#SVGID_4_)" points="2525.279,2006.981 2472.124,2039.983 2472.124,1939.467 2525.279,1939.467 	"/>
	<path fill="#525352" d="M2701.662,1898.053c0-203.561,0-407.105,0-610.655c-127.21-69.937-281.345-69.937-408.557,0
		c0,203.55,0,407.095,0,610.655H2701.662z"/>
	<path fill="#A8BF64" d="M2701.662,1898.053c-127.21,69.924-281.345,69.924-408.557,0H2701.662z"/>
	<line fill="none" stroke="#A4A196" stroke-width="1.8699" x1="161.534" y1="1010.781" x2="153.101" y2="1010.781"/>
	<line fill="none" stroke="#A4A196" stroke-width="1.8699" x1="153.101" y1="996.13" x2="161.534" y2="996.13"/>
	<line fill="none" stroke="#A4A196" stroke-width="1.8699" x1="161.534" y1="981.347" x2="153.101" y2="981.347"/>
	<g>
		<path fill="#F2F1EA" stroke="#A4A196" stroke-width="1.8699" d="M152.943,1779.313c0,2.976,1.968,5.389,4.388,5.389l0,0
			c2.427,0,4.394-2.413,4.394-5.389v-54.042c0-2.98-1.967-5.397-4.394-5.397l0,0c-2.42,0-4.388,2.417-4.388,5.397V1779.313z"/>
	</g>
	<line fill="none" stroke="#A4A196" stroke-width="1.8699" x1="161.534" y1="1767.008" x2="153.101" y2="1767.008"/>
	<line fill="none" stroke="#A4A196" stroke-width="1.8699" x1="153.101" y1="1752.357" x2="161.534" y2="1752.357"/>
	<line fill="none" stroke="#A4A196" stroke-width="1.8699" x1="161.534" y1="1737.573" x2="153.101" y2="1737.573"/>
	<g>
		<g>
			<g>
				<polygon fill="#231F20" points="2241.841,1863.177 2234.518,1859.841 2227.033,1862.795 2234.89,1845.435 				"/>
			</g>
		</g>
		
			<line fill="none" stroke="#231F20" stroke-width="2" stroke-miterlimit="10" x1="2234.374" y1="1940.969" x2="2234.582" y2="1857.371"/>
	</g>
	<rect x="3171.167" y="1334.295" fill="#B3B3B3" stroke="#010101" stroke-width="2" width="327.887" height="240.402"/>
	<rect x="3171.167" y="1062.552" fill="#B3B3B3" stroke="#010101" stroke-width="2" width="327.887" height="240.402"/>
	
		<rect x="1702.059" y="1091.726" fill="#FFFFFF" stroke="#EB2227" stroke-width="5" stroke-miterlimit="10" stroke-dasharray="14" width="335.413" height="195.299"/>
	<rect x="1268.7" y="1182.754" fill="#B3B3B3" stroke="#010101" stroke-width="2" width="250.716" height="368.381"/>
	<rect x="776.112" y="1182.754" fill="#B3B3B3" stroke="#010101" stroke-width="2" width="250.716" height="368.381"/>
	<rect x="1268.7" y="787.339" fill="#B3B3B3" stroke="#010101" stroke-width="2" width="250.716" height="368.381"/>
	<rect x="776.112" y="787.339" fill="#B3B3B3" stroke="#010101" stroke-width="2" width="250.716" height="368.381"/>
	
		<rect x="1721.007" y="1558.284" fill="#FFFFFF" stroke="#EB2227" stroke-width="5" stroke-miterlimit="10" stroke-dasharray="14" width="297.398" height="353.366"/>
	
		<rect x="2163.004" y="1559.3" fill="#FFFFFF" stroke="#EB2227" stroke-width="5" stroke-miterlimit="10" stroke-dasharray="14" width="143.773" height="281.2"/>
	<rect x="2368.712" y="1456.801" fill="#FFFFFF" stroke="#1C1C1C" width="260.247" height="367.842"/>
	<rect x="2734.841" y="1456.801" fill="#FFFFFF" stroke="#1C1C1C" width="260.247" height="367.842"/>
	<text transform="matrix(1 0 0 1 3270.752 1715.0635)" font-family="'Helvetica'" font-size="29px">Trayliner</text>
</g>
<g id="Interactive">
	<rect id="_x31_1.10" x="3171.167" y="1334.295" fill="none" width="327.887" height="240.402"/>
	<rect id="_x31_1.9" x="3171.167" y="1062.552" fill="none" width="327.887" height="240.402"/>
	<rect id="_x31_1.12" x="1702.059" y="1091.726" fill="none" width="335.413" height="195.299"/>
	<rect id="_x31_1.5" x="1268.7" y="1182.754" fill="none" width="250.716" height="368.381"/>
	<rect id="_x31_1.3" x="776.112" y="1182.754" fill="none" width="250.716" height="368.381"/>
	<rect id="_x31_1.4" x="1268.7" y="787.339" fill="none" width="250.716" height="368.381"/>
	<rect id="_x31_1.2" x="776.112" y="787.339" fill="none" width="250.716" height="368.381"/>
	<rect id="_x31_1.13" x="1721.007" y="1558.284" fill="none" width="297.398" height="353.366"/>
	<rect id="_x31_1.14" x="2163.004" y="1559.3" fill="none" width="143.773" height="281.2"/>
	<rect id="_x31_1.7" x="2368.712" y="1456.801" fill="none" width="260.247" height="367.842"/>
	<rect id="_x31_1.8" x="2734.841" y="1456.801" fill="none" width="260.247" height="367.842"/>
</g>
<g id="Text_Labels">
	<text transform="matrix(1 0 0 1 3266.0042 1329.0762)" font-family="'Helvetica'" font-size="29px">IS Trayliner</text>
	<text transform="matrix(1 0 0 1 3266.0042 1057.333)" font-family="'Helvetica'" font-size="29px">IS Trayliner</text>
	<text transform="matrix(1 0 0 1 1780.4432 1081.7598)" font-family="'Helvetica'" font-size="29px">IS Trayholder</text>
	<text transform="matrix(1 0 0 1 1258.2812 1605.4934)"><tspan x="0" y="0" font-family="'Helvetica'" font-size="29px">HM Vestibule Poster</tspan><tspan x="42.757" y="32" font-family="'Helvetica'" font-size="29px">(Mom’s Trust)</tspan></text>
	<text transform="matrix(1 0 0 1 769.3057 1605.4934)"><tspan x="0" y="0" font-family="'Helvetica'" font-size="29px">HM Vestibule Poster</tspan><tspan x="42.757" y="32" font-family="'Helvetica'" font-size="29px">(Mom’s Trust)</tspan></text>
	<text transform="matrix(1 0 0 1 1259.2227 757.9216)" font-family="'Helvetica'" font-size="29px">HM Vestibule Poster</text>
	<text transform="matrix(1 0 0 1 774.7468 757.9216)" font-family="'Helvetica'" font-size="29px">HM Vestibule Poster</text>
	<text transform="matrix(1 0 0 1 1789.3143 1542.2935)" font-family="'Helvetica'" font-size="29px">Trash Decal</text>
	<text transform="matrix(1 0 0 1 2189.6311 1973.4961)"><tspan x="0" y="0" font-family="'Helvetica'" font-size="29px">HM Toy</tspan><tspan x="-37.093" y="32" font-family="'Helvetica'" font-size="29px">Merchandiser</tspan><tspan x="2.386" y="64" font-family="'Helvetica'" font-size="29px">Lug-On</tspan></text>
	<text transform="matrix(1 0 0 1 2421.4653 2301.4917)"><tspan x="0" y="0" font-family="'Helvetica'" font-size="29px">Happy Meal</tspan><tspan x="-42.7" y="32" font-family="'Helvetica'" font-size="29px"> Toy Merchandiser</tspan></text>
</g>
</svg>
