<?xml version="1.0" encoding="utf-8"?>
<!-- Generator: Adobe Illustrator 19.1.0, SVG Export Plug-In . SVG Version: 6.00 Build 0)  -->
<svg version="1.1" xmlns="http://www.w3.org/2000/svg" xmlns:xlink="http://www.w3.org/1999/xlink" x="0px" y="0px"
	 viewBox="0 0 3672.37 2376.24" enable-background="new 0 0 3672.37 2376.24" xml:space="preserve">
<g id="Background">
	<path fill="#9FCD8D" stroke="#8E9AA0" stroke-width="1.649" d="M3300.594,1988.333c0,57.201-30.249,70.506-67.569,70.506
		l-1480.855,98.283l-1503.806-98.283c-37.317,0-70.081-17.027-70.081-74.227v-17.75c0-57.201,180.952-202.384,218.268-202.384
		l2701.235-3.306c37.318,0,202.808,152.211,202.808,209.412V1988.333z"/>
	<path fill="#91BB80" d="M376.969,1771.288c27.382-12.699,324.901,16.877,429.531,16.877c111.438,0,205.726,52.749,335.913,89.977
		c137.669,39.367,291.858,61.858,479.088,28.116c187.231-33.733,308.379-44.983,465.318-28.116
		c156.948,16.875,215.24-78.465,572.711-28.112c399.237,56.228,335.279-45.086,461.858-26.172
		c99.832,14.922,55.778,59.908-4.802,88.024c-137.355,63.765-410.251,61.862-503.866,78.735
		c-93.613,16.875-313.884-5.621-344.175-22.495c-30.284-16.864-255.707,20.651-311.135,56.234
		c-55.418,35.59-231.277,22.501-363.443,0c-132.159-22.485-223.024,44.99-393.735,11.258
		c-161.774-31.981-192.559-83.707-324.898-89.99c-118.396-5.624-245.973,27.855-319.392,22.498
		C170.466,1940.001,316.394,1799.413,376.969,1771.288"/>
	<linearGradient id="SVGID_1_" gradientUnits="userSpaceOnUse" x1="178.2823" y1="2082.3789" x2="3303.2034" y2="2082.3789">
		<stop  offset="0" style="stop-color:#F5F0D5"/>
		<stop  offset="0.5" style="stop-color:#F3E9A1"/>
		<stop  offset="1" style="stop-color:#ECE2A6"/>
	</linearGradient>
	<path fill="url(#SVGID_1_)" stroke="#8E9AA0" d="M178.282,1966.862v99.217c1038.486,175.757,2086.441,175.757,3124.921,0v-99.217
		C2264.724,2142.624,1216.768,2142.624,178.282,1966.862"/>
	<g>
		<path fill="#60846A" d="M631.834,1934.737c-8.255-0.427-16.119-0.386-23.172,0.047c-6.529-1.069-14.106-1.879-22.226-2.301
			c-25.301-1.292-46.272,1.679-46.847,6.643c-0.562,4.861,18.592,9.815,43.104,11.254c8.301,4.456,25.765,8.109,46.268,9.163
			c29.194,1.505,53.501-2.837,54.296-9.679C684.047,1943.004,661.027,1936.235,631.834,1934.737z"/>
		<g>
			
				<radialGradient id="SVGID_2_" cx="3431.457" cy="2043.6039" r="25.7878" gradientTransform="matrix(1.9175 0 0 2.1525 -5978.5566 -2516.6353)" gradientUnits="userSpaceOnUse">
				<stop  offset="0" style="stop-color:#A7C94C"/>
				<stop  offset="0.2256" style="stop-color:#8BAE44"/>
				<stop  offset="0.7088" style="stop-color:#45692F"/>
				<stop  offset="1" style="stop-color:#183C22"/>
			</radialGradient>
			<path fill="url(#SVGID_2_)" d="M543.396,1913.15c0-14.256,37.745-25.939,37.463-25.818c-0.276,0.114,37.469,11.562,37.469,25.818
				c0,14.263-16.779,25.828-37.469,25.828C560.168,1938.978,543.396,1927.413,543.396,1913.15z"/>
			<g>
				
					<radialGradient id="SVGID_3_" cx="3453.9153" cy="1973.7793" r="28.3559" gradientTransform="matrix(1.9175 0 0 2.3249 -5978.5605 -2740.2744)" gradientUnits="userSpaceOnUse">
					<stop  offset="0" style="stop-color:#A7C94C"/>
					<stop  offset="0.2256" style="stop-color:#8BAE44"/>
					<stop  offset="0.7088" style="stop-color:#45692F"/>
					<stop  offset="1" style="stop-color:#183C22"/>
				</radialGradient>
				<path fill="url(#SVGID_3_)" d="M664.829,1884.925c0,16.75-20.156,30.336-45.018,30.336c-24.866,0-45.027-13.586-45.027-30.336
					c0-16.746,20.161-30.322,45.027-30.322C644.673,1854.603,664.829,1868.179,664.829,1884.925z"/>
			</g>
			
				<radialGradient id="SVGID_4_" cx="3461.4517" cy="2042.2161" r="35.3199" gradientTransform="matrix(1.9175 0 0 2.1525 -5978.5566 -2516.6353)" gradientUnits="userSpaceOnUse">
				<stop  offset="0" style="stop-color:#A7C94C"/>
				<stop  offset="0.2256" style="stop-color:#8BAE44"/>
				<stop  offset="0.7088" style="stop-color:#45692F"/>
				<stop  offset="1" style="stop-color:#183C22"/>
			</radialGradient>
			<path fill="url(#SVGID_4_)" d="M579.525,1921.622c0-19.534,51.691-35.526,51.31-35.367c-0.383,0.164,51.312,15.834,51.312,35.367
				c0,19.537-22.971,35.37-51.312,35.37C602.496,1956.992,579.525,1941.159,579.525,1921.622z"/>
			<g opacity="0.5">
				<path fill="#CBEAED" d="M543.396,1913.15c0-14.256,37.745-25.939,37.463-25.818c-0.276,0.114,37.469,11.562,37.469,25.818
					c0,14.263-16.779,25.828-37.469,25.828C560.168,1938.978,543.396,1927.413,543.396,1913.15z"/>
				<g>
					<path fill="#CBEAED" d="M664.829,1884.925c0,16.75-20.156,30.336-45.018,30.336c-24.866,0-45.027-13.586-45.027-30.336
						c0-16.746,20.161-30.322,45.027-30.322C644.673,1854.603,664.829,1868.179,664.829,1884.925z"/>
				</g>
				<path fill="#CBEAED" d="M579.525,1921.622c0-19.534,51.691-35.526,51.31-35.367c-0.383,0.164,51.312,15.834,51.312,35.367
					c0,19.537-22.971,35.37-51.312,35.37C602.496,1956.992,579.525,1941.159,579.525,1921.622z"/>
			</g>
		</g>
	</g>
	<g>
		<path fill="#60846A" d="M3155.513,1850.63c-3.978-0.228-7.766-0.206-11.164,0.025c-3.146-0.57-6.796-1.003-10.708-1.228
			c-12.19-0.689-22.294,0.896-22.571,3.545c-0.271,2.594,8.958,5.237,20.767,6.005c3.999,2.378,12.414,4.327,22.292,4.889
			c14.066,0.803,25.777-1.514,26.16-5.165C3180.669,1855.041,3169.578,1851.429,3155.513,1850.63z"/>
		<g>
			
				<radialGradient id="SVGID_5_" cx="1480.2131" cy="2690.082" r="60.6124" gradientTransform="matrix(0.3931 0 0 0.4887 2558.9771 508.0424)" gradientUnits="userSpaceOnUse">
				<stop  offset="0" style="stop-color:#A7C94C"/>
				<stop  offset="0.2256" style="stop-color:#8BAE44"/>
				<stop  offset="0.7088" style="stop-color:#45692F"/>
				<stop  offset="1" style="stop-color:#183C22"/>
			</radialGradient>
			<path fill="url(#SVGID_5_)" d="M3112.904,1839.111c0-7.607,18.186-13.841,18.05-13.776c-0.133,0.061,18.052,6.169,18.052,13.776
				c0,7.611-8.084,13.782-18.052,13.782C3120.984,1852.893,3112.904,1846.721,3112.904,1839.111z"/>
			<g>
				
					<radialGradient id="SVGID_6_" cx="1532.9971" cy="2552.781" r="66.6486" gradientTransform="matrix(0.3931 0 0 0.5278 2558.9763 457.2714)" gradientUnits="userSpaceOnUse">
					<stop  offset="0" style="stop-color:#A7C94C"/>
					<stop  offset="0.2256" style="stop-color:#8BAE44"/>
					<stop  offset="0.7088" style="stop-color:#45692F"/>
					<stop  offset="1" style="stop-color:#183C22"/>
				</radialGradient>
				<path fill="url(#SVGID_6_)" d="M3171.41,1824.05c0,8.938-9.711,16.187-21.69,16.187c-11.98,0-21.694-7.249-21.694-16.187
					c0-8.936,9.714-16.18,21.694-16.18C3161.699,1807.87,3171.41,1815.115,3171.41,1824.05z"/>
			</g>
			
				<radialGradient id="SVGID_7_" cx="1550.7134" cy="2686.8201" r="83.0169" gradientTransform="matrix(0.3931 0 0 0.4887 2558.9771 508.0424)" gradientUnits="userSpaceOnUse">
				<stop  offset="0" style="stop-color:#A7C94C"/>
				<stop  offset="0.2256" style="stop-color:#8BAE44"/>
				<stop  offset="0.7088" style="stop-color:#45692F"/>
				<stop  offset="1" style="stop-color:#183C22"/>
			</radialGradient>
			<path fill="url(#SVGID_7_)" d="M3130.311,1843.632c0-10.423,24.905-18.957,24.721-18.872
				c-0.184,0.088,24.722,8.449,24.722,18.872c0,10.425-11.068,18.873-24.722,18.873
				C3141.378,1862.505,3130.311,1854.056,3130.311,1843.632z"/>
			<g opacity="0.5">
				<path fill="#CBEAED" d="M3112.904,1839.111c0-7.607,18.186-13.841,18.05-13.776c-0.133,0.061,18.052,6.169,18.052,13.776
					c0,7.611-8.084,13.782-18.052,13.782C3120.984,1852.893,3112.904,1846.721,3112.904,1839.111z"/>
				<g>
					<path fill="#CBEAED" d="M3171.41,1824.05c0,8.938-9.711,16.187-21.69,16.187c-11.98,0-21.694-7.249-21.694-16.187
						c0-8.936,9.714-16.18,21.694-16.18C3161.699,1807.87,3171.41,1815.115,3171.41,1824.05z"/>
				</g>
				<path fill="#CBEAED" d="M3130.311,1843.632c0-10.423,24.905-18.957,24.721-18.872c-0.184,0.088,24.722,8.449,24.722,18.872
					c0,10.425-11.068,18.873-24.722,18.873C3141.378,1862.505,3130.311,1854.056,3130.311,1843.632z"/>
			</g>
		</g>
	</g>
	<polygon fill="#E5F5F9" stroke="#8F9BA1" stroke-miterlimit="10" points="1421.511,683.827 779.121,683.827 779.121,480.251 
		1421.511,376.469 	"/>
	<polygon fill="#E5F5F9" stroke="#8F9BA1" stroke-miterlimit="10" points="2308.302,683.827 2950.693,683.827 2950.693,480.251 
		2308.302,376.469 	"/>
	<polygon fill="none" stroke="#8F9BA1" stroke-width="0.225" points="2308.302,683.827 2950.693,683.827 2950.693,480.251 
		2308.302,376.469 	"/>
	<polygon fill="#E5F5F9" stroke="#8F9BA1" stroke-miterlimit="10" points="1652.366,683.827 2294.757,683.827 2294.757,480.251 
		1652.366,376.469 	"/>
	<polygon fill="none" stroke="#8F9BA1" stroke-width="0.225" points="1652.366,683.827 2294.757,683.827 2294.757,480.251 
		1652.366,376.469 	"/>
	<polygon fill="#E5F5F9" stroke="#8F9BA1" stroke-miterlimit="10" points="1654.913,683.827 1012.525,683.827 1012.525,480.251 
		1654.913,376.469 	"/>
	<rect x="997.804" y="439.677" fill="#F6F6F6" stroke="#8F9BA1" width="38.593" height="236.987"/>
	<rect x="1641.943" y="439.677" fill="#F6F6F6" stroke="#8F9BA1" width="38.593" height="236.987"/>
	<rect x="2283.203" y="439.677" fill="#F6F6F6" stroke="#8F9BA1" width="38.593" height="236.987"/>
	<rect x="744.455" y="517.49" fill="#F6F6F6" stroke="#8F9BA1" width="64.318" height="159.174"/>
	<radialGradient id="SVGID_8_" cx="1829.0122" cy="514.7198" r="942.3298" gradientUnits="userSpaceOnUse">
		<stop  offset="0" style="stop-color:#FED208"/>
		<stop  offset="0.2198" style="stop-color:#FED208"/>
		<stop  offset="0.328" style="stop-color:#FECE0A"/>
		<stop  offset="1" style="stop-color:#FDB714"/>
	</radialGradient>
	<path fill="url(#SVGID_8_)" d="M507.877,533.753c0.534,20.443,1.547,36.714,3.63,58.718
		C1366.83,362.04,2317.54,401.585,3149.473,689.569c0-58.856,0-100.942,0.675-157.911c-428.829-127.847-875.2-191.8-1320.74-191.789
		C1381.685,339.882,934.802,404.485,507.877,533.753"/>
	<g>
		<rect x="632.042" y="693.166" fill="#F2F1EA" width="2364.441" height="1140.779"/>
		<polygon fill="#DAD5C0" points="635.447,1854.801 635.447,1879.905 3053.93,1879.905 3053.93,1851.964 		"/>
		<rect x="739.306" y="673.106" fill="#F6F6F6" stroke="#8F9BA1" width="2310.763" height="20.388"/>
		<rect x="637.704" y="1834.274" fill="#F6F6F6" stroke="#989898" width="2432.633" height="20.391"/>
	</g>
	<rect x="496.482" y="955.425" fill="#C0C2C4" stroke="#231F20" stroke-width="3" width="311.116" height="748.653"/>
	<rect x="807.597" y="955.425" fill="#C0C2C4" stroke="#231F20" stroke-width="3" width="311.116" height="748.653"/>
	<rect x="1118.713" y="955.425" fill="#C0C2C4" stroke="#231F20" stroke-width="3" width="311.116" height="748.653"/>
	<rect x="1429.828" y="955.425" fill="#C0C2C4" stroke="#231F20" stroke-width="3" width="311.116" height="748.653"/>
	<rect x="107.135" y="954.405" fill="#C0C2C4" stroke="#231F20" stroke-width="3" width="311.116" height="748.653"/>
	<g>
		<rect x="248.875" y="1702.14" fill="#231F20" width="27.301" height="6.732"/>
		<rect x="239.111" y="1707.497" fill="#4C3838" width="46.828" height="11.547"/>
		<rect x="238.114" y="1719.908" fill="#4C3838" stroke="#231F20" width="48.821" height="191.146"/>
		<rect x="250.643" y="1707.497" fill="#7B6968" width="10.657" height="203.557"/>
		<rect x="272.28" y="1707.497" fill="#30191B" width="8.501" height="203.557"/>
		<rect x="244.351" y="1707.497" fill="#7B6968" width="3.401" height="203.557"/>
		<rect x="239.111" y="1707.497" fill="none" stroke="#231F20" width="46.828" height="11.547"/>
		<rect x="225.868" y="1712.14" fill="#4C3838" width="73.313" height="13.64"/>
		<rect x="245.118" y="1712.14" fill="#7B6968" width="9.553" height="13.64"/>
		<rect x="277.958" y="1712.14" fill="#30191B" width="9.553" height="13.64"/>
		<rect x="236.449" y="1712.14" fill="#7B6968" width="4.102" height="13.64"/>
		<rect x="225.868" y="1712.14" fill="none" stroke="#231F20" width="73.313" height="13.64"/>
	</g>
	<g>
		<rect x="2035.003" y="1702.14" fill="#231F20" width="27.301" height="6.732"/>
		<rect x="2025.24" y="1707.497" fill="#4C3838" width="46.828" height="11.547"/>
		<rect x="2024.243" y="1719.908" fill="#4C3838" stroke="#231F20" width="48.821" height="245.866"/>
		<rect x="2036.772" y="1707.497" fill="#7B6968" width="10.657" height="258.277"/>
		<rect x="2058.409" y="1707.497" fill="#30191B" width="8.501" height="258.277"/>
		<rect x="2030.48" y="1707.497" fill="#7B6968" width="3.401" height="258.277"/>
		<rect x="2025.24" y="1707.497" fill="none" stroke="#231F20" width="46.828" height="11.547"/>
		<rect x="2011.997" y="1712.14" fill="#4C3838" width="73.313" height="13.64"/>
		<rect x="2031.247" y="1712.14" fill="#7B6968" width="9.553" height="13.64"/>
		<rect x="2064.087" y="1712.14" fill="#30191B" width="9.553" height="13.64"/>
		<rect x="2022.578" y="1712.14" fill="#7B6968" width="4.102" height="13.64"/>
		<rect x="2011.997" y="1712.14" fill="none" stroke="#231F20" width="73.313" height="13.64"/>
	</g>
	<g>
		<path fill="#60846A" d="M295.183,1941.449c11.726-0.45,22.896-0.407,32.913,0.049c9.274-1.125,20.036-1.978,31.569-2.423
			c35.937-1.36,65.724,1.768,66.542,6.994c0.798,5.118-26.408,10.334-61.224,11.848c-11.79,4.691-36.596,8.537-65.719,9.647
			c-41.467,1.584-75.992-2.986-77.122-10.191C221.02,1950.153,253.718,1943.026,295.183,1941.449z"/>
		<g>
			
				<radialGradient id="SVGID_9_" cx="3307.7175" cy="1970.3821" r="25.7878" gradientTransform="matrix(-2.7236 0 0 2.2662 9347.4717 -2579.1201)" gradientUnits="userSpaceOnUse">
				<stop  offset="0" style="stop-color:#A7C94C"/>
				<stop  offset="0.2256" style="stop-color:#8BAE44"/>
				<stop  offset="0.7088" style="stop-color:#45692F"/>
				<stop  offset="1" style="stop-color:#183C22"/>
			</radialGradient>
			<path fill="url(#SVGID_9_)" d="M420.799,1918.721c0-15.009-53.612-27.309-53.212-27.182c0.392,0.12-53.22,12.172-53.22,27.182
				c0,15.016,23.832,27.192,53.22,27.192C396.977,1945.914,420.799,1933.738,420.799,1918.721z"/>
			<g>
				
					<radialGradient id="SVGID_10_" cx="3330.1758" cy="1905.9877" r="28.3559" gradientTransform="matrix(-2.7236 0 0 2.4477 9347.4775 -2814.5723)" gradientUnits="userSpaceOnUse">
					<stop  offset="0" style="stop-color:#A7C94C"/>
					<stop  offset="0.2256" style="stop-color:#8BAE44"/>
					<stop  offset="0.7088" style="stop-color:#45692F"/>
					<stop  offset="1" style="stop-color:#183C22"/>
				</radialGradient>
				<path fill="url(#SVGID_10_)" d="M248.317,1889.006c0,17.635,28.629,31.939,63.944,31.939c35.319,0,63.955-14.303,63.955-31.939
					c0-17.63-28.636-31.923-63.955-31.923C276.946,1857.082,248.317,1871.375,248.317,1889.006z"/>
			</g>
			
				<radialGradient id="SVGID_11_" cx="3337.7122" cy="1968.9943" r="35.3199" gradientTransform="matrix(-2.7236 0 0 2.2662 9347.4717 -2579.1201)" gradientUnits="userSpaceOnUse">
				<stop  offset="0" style="stop-color:#A7C94C"/>
				<stop  offset="0.2256" style="stop-color:#8BAE44"/>
				<stop  offset="0.7088" style="stop-color:#45692F"/>
				<stop  offset="1" style="stop-color:#183C22"/>
			</radialGradient>
			<path fill="url(#SVGID_11_)" d="M369.481,1927.641c0-20.565-73.421-37.403-72.88-37.235c0.543,0.173-72.882,16.67-72.882,37.235
				c0,20.569,32.628,37.238,72.882,37.238C336.854,1964.879,369.481,1948.21,369.481,1927.641z"/>
			<g opacity="0.5">
				<path fill="#CBEAED" d="M420.799,1918.721c0-15.009-53.612-27.309-53.212-27.182c0.392,0.12-53.22,12.172-53.22,27.182
					c0,15.016,23.832,27.192,53.22,27.192C396.977,1945.914,420.799,1933.738,420.799,1918.721z"/>
				<g>
					<path fill="#CBEAED" d="M248.317,1889.006c0,17.635,28.629,31.939,63.944,31.939c35.319,0,63.955-14.303,63.955-31.939
						c0-17.63-28.636-31.923-63.955-31.923C276.946,1857.082,248.317,1871.375,248.317,1889.006z"/>
				</g>
				<path fill="#CBEAED" d="M369.481,1927.641c0-20.565-73.421-37.403-72.88-37.235c0.543,0.173-72.882,16.67-72.882,37.235
					c0,20.569,32.628,37.238,72.882,37.238C336.854,1964.879,369.481,1948.21,369.481,1927.641z"/>
			</g>
		</g>
	</g>
	<rect x="124.877" y="970.077" fill="#8C8280" width="275.296" height="714.307"/>
	<rect x="514.224" y="971.097" fill="#231F20" width="275.296" height="714.307"/>
	<rect x="825.339" y="971.097" fill="#231F20" width="275.296" height="714.307"/>
	<rect x="1136.455" y="971.097" fill="#231F20" width="275.296" height="714.307"/>
	<rect x="1447.571" y="971.097" fill="#231F20" width="275.296" height="714.307"/>
	<rect x="514.224" y="971.097" fill="#8C8280" width="275.296" height="229.139"/>
	<rect x="514.224" y="1213.681" fill="#8C8280" width="275.296" height="229.139"/>
	<rect x="514.224" y="1456.266" fill="#8C8280" width="275.296" height="229.139"/>
	<rect x="825.339" y="971.097" fill="#8C8280" width="275.296" height="229.139"/>
	<rect x="825.339" y="1213.681" fill="#8C8280" width="275.296" height="229.139"/>
	<rect x="825.339" y="1456.266" fill="#8C8280" width="275.296" height="229.139"/>
	<rect x="1136.455" y="971.097" fill="#8C8280" width="275.296" height="229.139"/>
	<rect x="1136.455" y="1213.681" fill="#8C8280" width="275.296" height="229.139"/>
	<rect x="1136.455" y="1456.266" fill="#8C8280" width="275.296" height="229.139"/>
	<rect x="1589.792" y="1469.567" fill="#8C8280" width="133.075" height="215.837"/>
	<g>
		<rect x="1447.259" y="1636.008" fill="#8C8280" width="133.075" height="49.396"/>
		<rect x="1447.259" y="1580.528" fill="#8C8280" width="133.075" height="49.396"/>
		<rect x="1447.259" y="1525.047" fill="#8C8280" width="133.075" height="49.396"/>
		<rect x="1447.259" y="1469.567" fill="#8C8280" width="133.075" height="49.396"/>
	</g>
	<rect x="1447.571" y="971.097" fill="#8C8280" width="275.296" height="328.239"/>
	<rect x="1447.571" y="1309.566" fill="#8C8280" width="275.296" height="83.85"/>
	<rect x="1447.571" y="1403.645" fill="#8C8280" width="275.296" height="55.654"/>
	<rect x="2282.62" y="955.425" fill="#C0C2C4" stroke="#231F20" stroke-width="3" width="311.116" height="748.653"/>
	<rect x="2593.735" y="955.425" fill="#C0C2C4" stroke="#231F20" stroke-width="3" width="311.116" height="748.653"/>
	<rect x="2904.851" y="955.425" fill="#C0C2C4" stroke="#231F20" stroke-width="3" width="311.116" height="748.653"/>
	<rect x="3215.967" y="955.425" fill="#C0C2C4" stroke="#231F20" stroke-width="3" width="311.116" height="748.653"/>
	<rect x="1893.273" y="954.405" fill="#C0C2C4" stroke="#231F20" stroke-width="3" width="311.116" height="748.653"/>
	<rect x="1911.015" y="970.077" fill="#8C8280" width="275.296" height="714.307"/>
	<rect x="2300.362" y="971.097" fill="#231F20" width="275.296" height="714.307"/>
	<rect x="2611.478" y="971.097" fill="#231F20" width="275.296" height="714.307"/>
	<rect x="2922.593" y="971.097" fill="#231F20" width="275.296" height="714.307"/>
	<rect x="2300.362" y="971.097" fill="#8C8280" width="275.296" height="229.139"/>
	<rect x="2300.362" y="1213.681" fill="#8C8280" width="275.296" height="229.139"/>
	<rect x="2300.362" y="1456.266" fill="#8C8280" width="275.296" height="229.139"/>
	<rect x="2611.478" y="971.097" fill="#8C8280" width="275.296" height="229.139"/>
	<rect x="2611.478" y="1213.681" fill="#8C8280" width="275.296" height="229.139"/>
	<rect x="2611.478" y="1456.266" fill="#8C8280" width="275.296" height="229.139"/>
	<rect x="2922.593" y="971.097" fill="#8C8280" width="275.296" height="229.139"/>
	<rect x="2922.593" y="1213.681" fill="#8C8280" width="275.296" height="229.139"/>
	<rect x="2922.593" y="1456.266" fill="#8C8280" width="275.296" height="229.139"/>
	<rect x="3233.709" y="971.097" fill="#231F20" width="275.296" height="714.307"/>
	<rect x="3233.709" y="971.097" fill="#8C8280" width="275.296" height="229.139"/>
	<rect x="3233.709" y="1213.681" fill="#8C8280" width="275.296" height="229.139"/>
	<rect x="3233.709" y="1456.266" fill="#8C8280" width="275.296" height="229.139"/>
	<g>
		<path fill="#60846A" d="M2041.756,2034.193c10.679-0.546,20.852-0.494,29.975,0.06c8.446-1.366,18.248-2.401,28.751-2.94
			c32.729-1.651,59.857,2.146,60.602,8.489c0.727,6.212-24.051,12.542-55.759,14.38c-10.738,5.694-33.329,10.361-59.853,11.708
			c-37.766,1.923-69.209-3.625-70.238-12.368C1974.213,2044.757,2003.992,2036.106,2041.756,2034.193z"/>
		<g>
			
				<radialGradient id="SVGID_12_" cx="2342.0354" cy="2244.9055" r="60.6124" gradientTransform="matrix(-1.0553 0 0 1.1702 4552.9209 -659.9165)" gradientUnits="userSpaceOnUse">
				<stop  offset="0" style="stop-color:#A7C94C"/>
				<stop  offset="0.2256" style="stop-color:#8BAE44"/>
				<stop  offset="0.7088" style="stop-color:#45692F"/>
				<stop  offset="1" style="stop-color:#183C22"/>
			</radialGradient>
			<path fill="url(#SVGID_12_)" d="M2156.159,2006.609c0-18.217-48.826-33.145-48.462-32.99c0.357,0.146-48.47,14.773-48.47,32.99
				c0,18.225,21.705,33.003,48.47,33.003C2134.464,2039.611,2156.159,2024.834,2156.159,2006.609z"/>
			<g>
				
					<radialGradient id="SVGID_13_" cx="2394.8193" cy="2140.6187" r="66.6486" gradientTransform="matrix(-1.0553 0 0 1.2639 4552.9233 -781.4962)" gradientUnits="userSpaceOnUse">
					<stop  offset="0" style="stop-color:#A7C94C"/>
					<stop  offset="0.2256" style="stop-color:#8BAE44"/>
					<stop  offset="0.7088" style="stop-color:#45692F"/>
					<stop  offset="1" style="stop-color:#183C22"/>
				</radialGradient>
				<path fill="url(#SVGID_13_)" d="M1999.073,1970.543c0,21.403,26.074,38.763,58.236,38.763c32.167,0,58.247-17.36,58.247-38.763
					c0-21.398-26.08-38.745-58.247-38.745C2025.147,1931.798,1999.073,1949.146,1999.073,1970.543z"/>
			</g>
			
				<radialGradient id="SVGID_14_" cx="2412.5356" cy="2241.6433" r="83.0169" gradientTransform="matrix(-1.0553 0 0 1.1702 4552.9209 -659.9165)" gradientUnits="userSpaceOnUse">
				<stop  offset="0" style="stop-color:#A7C94C"/>
				<stop  offset="0.2256" style="stop-color:#8BAE44"/>
				<stop  offset="0.7088" style="stop-color:#45692F"/>
				<stop  offset="1" style="stop-color:#183C22"/>
			</radialGradient>
			<path fill="url(#SVGID_14_)" d="M2109.422,2017.434c0-24.96-66.868-45.395-66.375-45.192c0.495,0.21-66.377,20.232-66.377,45.192
				c0,24.964,29.715,45.195,66.377,45.195C2079.707,2062.629,2109.422,2042.399,2109.422,2017.434z"/>
			<g opacity="0.5">
				<path fill="#CBEAED" d="M2156.159,2006.609c0-18.217-48.826-33.145-48.462-32.99c0.357,0.146-48.47,14.773-48.47,32.99
					c0,18.225,21.705,33.003,48.47,33.003C2134.464,2039.611,2156.159,2024.834,2156.159,2006.609z"/>
				<g>
					<path fill="#CBEAED" d="M1999.073,1970.543c0,21.403,26.074,38.763,58.236,38.763c32.167,0,58.247-17.36,58.247-38.763
						c0-21.398-26.08-38.745-58.247-38.745C2025.147,1931.798,1999.073,1949.146,1999.073,1970.543z"/>
				</g>
				<path fill="#CBEAED" d="M2109.422,2017.434c0-24.96-66.868-45.395-66.375-45.192c0.495,0.21-66.377,20.232-66.377,45.192
					c0,24.964,29.715,45.195,66.377,45.195C2079.707,2062.629,2109.422,2042.399,2109.422,2017.434z"/>
			</g>
		</g>
	</g>
	<g>
		<g>
			<rect x="949.505" y="1702.14" fill="#231F20" width="27.301" height="6.732"/>
			<rect x="939.741" y="1707.497" fill="#4C3838" width="46.828" height="11.547"/>
			<rect x="938.745" y="1719.908" fill="#4C3838" stroke="#231F20" width="48.821" height="150.106"/>
			<rect x="951.274" y="1707.497" fill="#7B6968" width="10.657" height="162.517"/>
			<rect x="974.051" y="1707.497" fill="#30191B" width="10.657" height="162.517"/>
			<rect x="944.981" y="1707.497" fill="#7B6968" width="3.401" height="162.517"/>
			<rect x="939.741" y="1707.497" fill="none" stroke="#231F20" width="46.828" height="11.547"/>
			<rect x="926.498" y="1712.14" fill="#4C3838" width="73.313" height="13.64"/>
			<rect x="945.748" y="1712.14" fill="#7B6968" width="9.553" height="13.64"/>
			<rect x="980.832" y="1712.14" fill="#30191B" width="9.553" height="13.64"/>
			<rect x="937.079" y="1712.14" fill="#7B6968" width="4.102" height="13.64"/>
			<rect x="926.498" y="1712.14" fill="none" stroke="#231F20" width="73.313" height="13.64"/>
		</g>
		<g>
			<rect x="1260.62" y="1702.14" fill="#231F20" width="27.301" height="6.732"/>
			<rect x="1250.857" y="1707.497" fill="#4C3838" width="46.828" height="11.547"/>
			<rect x="1249.86" y="1719.908" fill="#4C3838" stroke="#231F20" width="48.821" height="150.106"/>
			<rect x="1262.389" y="1707.497" fill="#7B6968" width="10.657" height="162.517"/>
			<rect x="1285.167" y="1707.497" fill="#30191B" width="10.657" height="162.517"/>
			<rect x="1256.097" y="1707.497" fill="#7B6968" width="3.401" height="162.517"/>
			<rect x="1250.857" y="1707.497" fill="none" stroke="#231F20" width="46.828" height="11.547"/>
			<rect x="1237.614" y="1712.14" fill="#4C3838" width="73.313" height="13.64"/>
			<rect x="1256.864" y="1712.14" fill="#7B6968" width="9.553" height="13.64"/>
			<rect x="1291.948" y="1712.14" fill="#30191B" width="9.553" height="13.64"/>
			<rect x="1248.194" y="1712.14" fill="#7B6968" width="4.102" height="13.64"/>
			<rect x="1237.614" y="1712.14" fill="none" stroke="#231F20" width="73.313" height="13.64"/>
		</g>
		<g>
			<rect x="1571.736" y="1702.14" fill="#231F20" width="27.301" height="6.732"/>
			<rect x="1561.972" y="1707.497" fill="#4C3838" width="46.828" height="11.547"/>
			<rect x="1560.976" y="1719.908" fill="#4C3838" stroke="#231F20" width="48.821" height="150.106"/>
			<rect x="1573.505" y="1707.497" fill="#7B6968" width="10.657" height="162.517"/>
			<rect x="1596.282" y="1707.497" fill="#30191B" width="10.657" height="162.517"/>
			<rect x="1567.212" y="1707.497" fill="#7B6968" width="3.401" height="162.517"/>
			<rect x="1561.972" y="1707.497" fill="none" stroke="#231F20" width="46.828" height="11.547"/>
			<rect x="1548.73" y="1712.14" fill="#4C3838" width="73.313" height="13.64"/>
			<rect x="1567.979" y="1712.14" fill="#7B6968" width="9.553" height="13.64"/>
			<rect x="1603.064" y="1712.14" fill="#30191B" width="9.553" height="13.64"/>
			<rect x="1559.31" y="1712.14" fill="#7B6968" width="4.102" height="13.64"/>
			<rect x="1548.73" y="1712.14" fill="none" stroke="#231F20" width="73.313" height="13.64"/>
		</g>
		<g>
			<rect x="1065.645" y="1899.585" fill="#4C3838" stroke="#231F20" width="115.931" height="31.277"/>
			<rect x="1081.913" y="1898.962" fill="#7B6968" width="22.138" height="31.904"/>
			<rect x="1150.82" y="1898.962" fill="#30191B" width="14.36" height="31.904"/>
			<rect x="1074.768" y="1898.962" fill="#7B6968" width="3.42" height="31.904"/>
			<rect x="1046.788" y="1928.463" fill="#4C3838" stroke="#231F20" width="153.644" height="10.185"/>
			<g>
				<rect x="638.389" y="1702.14" fill="#231F20" width="27.301" height="6.732"/>
				<rect x="628.625" y="1707.497" fill="#4C3838" width="46.828" height="11.547"/>
				<rect x="627.629" y="1719.908" fill="#4C3838" stroke="#231F20" width="48.821" height="150.106"/>
				<rect x="640.158" y="1707.497" fill="#7B6968" width="10.657" height="162.517"/>
				<rect x="662.935" y="1707.497" fill="#30191B" width="10.657" height="162.517"/>
				<rect x="633.865" y="1707.497" fill="#7B6968" width="3.401" height="162.517"/>
				<rect x="628.625" y="1707.497" fill="none" stroke="#231F20" width="46.828" height="11.547"/>
				<rect x="615.383" y="1712.14" fill="#4C3838" width="73.313" height="13.64"/>
				<rect x="634.632" y="1712.14" fill="#7B6968" width="9.553" height="13.64"/>
				<rect x="669.717" y="1712.14" fill="#30191B" width="9.553" height="13.64"/>
				<rect x="625.963" y="1712.14" fill="#7B6968" width="4.102" height="13.64"/>
				<rect x="615.383" y="1712.14" fill="none" stroke="#231F20" width="73.313" height="13.64"/>
			</g>
			<rect x="600.518" y="1855.227" fill="#4C3838" stroke="#231F20" width="1040.159" height="44.881"/>
			<rect x="601.86" y="1867.832" fill="#7B6968" width="1037.247" height="6.042"/>
			<polygon fill="#7B6968" points="1627.503,1864.941 1627.319,1862.907 601.86,1862.907 601.86,1864.941 			"/>
			<g>
				<polygon fill="#4C3838" points="727.964,1884.932 678.418,1884.932 645.295,1857.796 694.841,1857.796 				"/>
			</g>
			<g>
				<polygon fill="#30191B" points="706.796,1867.907 657.25,1867.907 641.947,1855.227 691.493,1855.227 				"/>
			</g>
			<g>
				<polygon fill="#4C3838" points="1040.805,1884.932 991.259,1884.932 958.136,1857.796 1007.681,1857.796 				"/>
			</g>
			<g>
				<polygon fill="#30191B" points="1019.636,1867.907 970.09,1867.907 954.787,1855.227 1004.333,1855.227 				"/>
			</g>
			<g>
				<polygon fill="#4C3838" points="1353.645,1884.932 1304.099,1884.932 1270.976,1857.796 1320.522,1857.796 				"/>
			</g>
			<g>
				<polygon fill="#30191B" points="1332.477,1867.907 1282.931,1867.907 1267.628,1855.227 1317.173,1855.227 				"/>
			</g>
			<g>
				<polygon fill="#4C3838" points="1639.107,1884.932 1612.836,1884.932 1579.712,1857.796 1629.258,1857.796 1640.1,1866.678 				
					"/>
			</g>
			<g>
				<polygon fill="#30191B" points="1639.844,1867.907 1591.667,1867.907 1576.364,1855.227 1625.91,1855.227 1639.868,1866.793 
									"/>
			</g>
			<rect x="601.86" y="1886.27" fill="#30191B" width="1037.247" height="6.042"/>
		</g>
	</g>
	<g>
		<g>
			<rect x="2733.758" y="1702.14" fill="#231F20" width="27.301" height="6.732"/>
			<rect x="2723.994" y="1707.497" fill="#4C3838" width="46.828" height="11.547"/>
			<rect x="2722.998" y="1719.908" fill="#4C3838" stroke="#231F20" width="48.821" height="150.106"/>
			<rect x="2735.527" y="1707.497" fill="#7B6968" width="10.657" height="162.517"/>
			<rect x="2758.304" y="1707.497" fill="#30191B" width="10.657" height="162.517"/>
			<rect x="2729.234" y="1707.497" fill="#7B6968" width="3.401" height="162.517"/>
			<rect x="2723.994" y="1707.497" fill="none" stroke="#231F20" width="46.828" height="11.547"/>
			<rect x="2710.752" y="1712.14" fill="#4C3838" width="73.313" height="13.64"/>
			<rect x="2730.001" y="1712.14" fill="#7B6968" width="9.553" height="13.64"/>
			<rect x="2765.086" y="1712.14" fill="#30191B" width="9.553" height="13.64"/>
			<rect x="2721.332" y="1712.14" fill="#7B6968" width="4.102" height="13.64"/>
			<rect x="2710.752" y="1712.14" fill="none" stroke="#231F20" width="73.313" height="13.64"/>
		</g>
		<g>
			<rect x="3044.874" y="1702.14" fill="#231F20" width="27.301" height="6.732"/>
			<rect x="3035.11" y="1707.497" fill="#4C3838" width="46.828" height="11.547"/>
			<rect x="3034.114" y="1719.908" fill="#4C3838" stroke="#231F20" width="48.821" height="150.106"/>
			<rect x="3046.643" y="1707.497" fill="#7B6968" width="10.657" height="162.517"/>
			<rect x="3069.42" y="1707.497" fill="#30191B" width="10.657" height="162.517"/>
			<rect x="3040.35" y="1707.497" fill="#7B6968" width="3.401" height="162.517"/>
			<rect x="3035.11" y="1707.497" fill="none" stroke="#231F20" width="46.828" height="11.547"/>
			<rect x="3021.867" y="1712.14" fill="#4C3838" width="73.313" height="13.64"/>
			<rect x="3041.117" y="1712.14" fill="#7B6968" width="9.553" height="13.64"/>
			<rect x="3076.201" y="1712.14" fill="#30191B" width="9.553" height="13.64"/>
			<rect x="3032.448" y="1712.14" fill="#7B6968" width="4.102" height="13.64"/>
			<rect x="3021.867" y="1712.14" fill="none" stroke="#231F20" width="73.313" height="13.64"/>
		</g>
		<g>
			<rect x="3355.989" y="1702.14" fill="#231F20" width="27.301" height="6.732"/>
			<rect x="3346.226" y="1707.497" fill="#4C3838" width="46.828" height="11.547"/>
			<rect x="3345.229" y="1719.908" fill="#4C3838" stroke="#231F20" width="48.821" height="150.106"/>
			<rect x="3357.758" y="1707.497" fill="#7B6968" width="10.657" height="162.517"/>
			<rect x="3380.536" y="1707.497" fill="#30191B" width="10.657" height="162.517"/>
			<rect x="3351.466" y="1707.497" fill="#7B6968" width="3.401" height="162.517"/>
			<rect x="3346.226" y="1707.497" fill="none" stroke="#231F20" width="46.828" height="11.547"/>
			<rect x="3332.983" y="1712.14" fill="#4C3838" width="73.313" height="13.64"/>
			<rect x="3352.232" y="1712.14" fill="#7B6968" width="9.553" height="13.64"/>
			<rect x="3387.317" y="1712.14" fill="#30191B" width="9.553" height="13.64"/>
			<rect x="3343.563" y="1712.14" fill="#7B6968" width="4.102" height="13.64"/>
			<rect x="3332.983" y="1712.14" fill="none" stroke="#231F20" width="73.313" height="13.64"/>
		</g>
		<g>
			<rect x="2849.898" y="1899.585" fill="#4C3838" stroke="#231F20" width="115.931" height="31.277"/>
			<rect x="2866.167" y="1898.962" fill="#7B6968" width="22.138" height="31.904"/>
			<rect x="2935.073" y="1898.962" fill="#30191B" width="14.36" height="31.904"/>
			<rect x="2859.021" y="1898.962" fill="#7B6968" width="3.42" height="31.904"/>
			<rect x="2831.042" y="1928.463" fill="#4C3838" stroke="#231F20" width="153.644" height="10.185"/>
			<g>
				<rect x="2422.642" y="1702.14" fill="#231F20" width="27.301" height="6.732"/>
				<rect x="2412.878" y="1707.497" fill="#4C3838" width="46.828" height="11.547"/>
				<rect x="2411.882" y="1719.908" fill="#4C3838" stroke="#231F20" width="48.821" height="150.106"/>
				<rect x="2424.411" y="1707.497" fill="#7B6968" width="10.657" height="162.517"/>
				<rect x="2447.189" y="1707.497" fill="#30191B" width="10.657" height="162.517"/>
				<rect x="2418.118" y="1707.497" fill="#7B6968" width="3.401" height="162.517"/>
				<rect x="2412.878" y="1707.497" fill="none" stroke="#231F20" width="46.828" height="11.547"/>
				<rect x="2399.636" y="1712.14" fill="#4C3838" width="73.313" height="13.64"/>
				<rect x="2418.885" y="1712.14" fill="#7B6968" width="9.553" height="13.64"/>
				<rect x="2453.97" y="1712.14" fill="#30191B" width="9.553" height="13.64"/>
				<rect x="2410.216" y="1712.14" fill="#7B6968" width="4.102" height="13.64"/>
				<rect x="2399.636" y="1712.14" fill="none" stroke="#231F20" width="73.313" height="13.64"/>
			</g>
			<rect x="2384.771" y="1855.227" fill="#4C3838" stroke="#231F20" width="1040.159" height="44.881"/>
			<rect x="2386.113" y="1867.832" fill="#7B6968" width="1037.247" height="6.042"/>
			<polygon fill="#7B6968" points="3411.757,1864.941 3411.572,1862.907 2386.113,1862.907 2386.113,1864.941 			"/>
			<g>
				<polygon fill="#4C3838" points="2512.218,1884.932 2462.672,1884.932 2429.549,1857.796 2479.094,1857.796 				"/>
			</g>
			<g>
				<polygon fill="#30191B" points="2491.049,1867.907 2441.503,1867.907 2426.2,1855.227 2475.746,1855.227 				"/>
			</g>
			<g>
				<polygon fill="#4C3838" points="2825.058,1884.932 2775.512,1884.932 2742.389,1857.796 2791.935,1857.796 				"/>
			</g>
			<g>
				<polygon fill="#30191B" points="2803.889,1867.907 2754.344,1867.907 2739.041,1855.227 2788.586,1855.227 				"/>
			</g>
			<g>
				<polygon fill="#4C3838" points="3137.898,1884.932 3088.353,1884.932 3055.229,1857.796 3104.775,1857.796 				"/>
			</g>
			<g>
				<polygon fill="#30191B" points="3116.73,1867.907 3067.184,1867.907 3051.881,1855.227 3101.427,1855.227 				"/>
			</g>
			<g>
				<polygon fill="#4C3838" points="3423.36,1884.932 3397.089,1884.932 3363.966,1857.796 3413.511,1857.796 3424.353,1866.678 
									"/>
			</g>
			<g>
				<polygon fill="#30191B" points="3424.098,1867.907 3375.92,1867.907 3360.617,1855.227 3410.163,1855.227 3424.122,1866.793 
									"/>
			</g>
			<rect x="2386.113" y="1886.27" fill="#30191B" width="1037.247" height="6.042"/>
		</g>
	</g>
</g>
<g id="Interactive">
	<rect id="_x31_7.1" x="124.877" y="970.077" fill="none" width="275.296" height="714.307"/>
	<rect id="_x31_7.16" x="1911.015" y="970.077" fill="none" width="275.296" height="714.307"/>
	<rect id="_x31_7.28_1_" x="3233.709" y="971.097" fill="none" width="275.296" height="714.307"/>
	<rect id="_x31_7.25_1_" x="2922.593" y="971.097" fill="none" width="275.296" height="714.307"/>
	<rect id="_x31_7.22_1_" x="2611.478" y="971.097" fill="none" width="275.296" height="714.307"/>
	<rect id="_x31_7.17_1_" x="2300.362" y="971.097" fill="none" width="275.296" height="714.307"/>
	<rect id="_x31_7.6_1_" x="1589.792" y="1469.567" fill="none" width="133.075" height="215.837"/>
	<rect id="_x31_7.5" x="1447.259" y="1469.567" fill="none" width="133.075" height="214.817"/>
	<rect id="_x31_7.2_1_" x="1447.571" y="971.097" fill="none" width="275.296" height="488.202"/>
	<rect id="_x31_7.13_1_" x="1136.455" y="971.097" fill="none" width="275.296" height="714.307"/>
	<rect id="_x31_7.10_1_" x="825.339" y="971.097" fill="none" width="275.296" height="714.307"/>
	<path fill="#FFFFFF" stroke="#DC2527" stroke-width="5" stroke-miterlimit="10" stroke-dasharray="12" d="M1724.233,770.313
		c0-73.617-272.709-133.296-609.113-133.296s-609.113,59.678-609.113,133.296v176.675h1218.227V770.313z"/>
	<path fill="#FFFFFF" stroke="#DC2527" stroke-width="5" stroke-miterlimit="10" stroke-dasharray="12" d="M3517.752,770.313
		c0-73.617-272.709-133.296-609.114-133.296c-336.404,0-609.113,59.678-609.113,133.296v176.675h1218.227V770.313z"/>
</g>
<g id="Text_Labels">
	<text transform="matrix(1 0 0 1 214.9746 942.6703)" fill="#58595B" font-family="'Helvetica'" font-size="27px">Breakfast</text>
	<text transform="matrix(1 0 0 1 1975.4746 942.6703)" fill="#58595B" font-family="'Helvetica'" font-size="27px">Rest of Day</text>
	<text transform="matrix(1 0 0 1 448.9885 779.2626)"><tspan x="0" y="0" fill="#58595B" font-family="'Helvetica'" font-size="27px">DT </tspan><tspan x="43.492" y="0" fill="#58595B" font-family="'Helvetica'" font-size="27px"> </tspan><tspan x="-54.039" y="30.13" fill="#58595B" font-family="'Helvetica'" font-size="27px">M</tspan><tspan x="-31.548" y="30.13" fill="#58595B" font-family="'Helvetica'" font-size="27px">o</tspan><tspan x="-15.992" y="30.13" fill="#58595B" font-family="'Helvetica'" font-size="27px">nster </tspan><tspan x="-49.557" y="60.261" fill="#58595B" font-family="'Helvetica'" font-size="27px"> Topper</tspan></text>
	<text transform="matrix(1 0 0 1 2242.915 779.2626)"><tspan x="0" y="0" fill="#58595B" font-family="'Helvetica'" font-size="27px">DT </tspan><tspan x="43.492" y="0" fill="#58595B" font-family="'Helvetica'" font-size="27px"> </tspan><tspan x="-54.039" y="30.13" fill="#58595B" font-family="'Helvetica'" font-size="27px">M</tspan><tspan x="-31.548" y="30.13" fill="#58595B" font-family="'Helvetica'" font-size="27px">o</tspan><tspan x="-15.992" y="30.13" fill="#58595B" font-family="'Helvetica'" font-size="27px">nster </tspan><tspan x="-49.557" y="60.261" fill="#58595B" font-family="'Helvetica'" font-size="27px"> Topper</tspan></text>
</g>
</svg>
