<?xml version="1.0" encoding="utf-8"?>
<!-- Generator: Adobe Illustrator 19.0.1, SVG Export Plug-In . SVG Version: 6.00 Build 0)  -->
<svg version="1.1" xmlns="http://www.w3.org/2000/svg" xmlns:xlink="http://www.w3.org/1999/xlink" x="0px" y="0px"
	 viewBox="0 0 3672.092 2376.738" enable-background="new 0 0 3672.092 2376.738" xml:space="preserve">
<g id="Background">
	<g>
		<g>
			<linearGradient id="SVGID_1_" gradientUnits="userSpaceOnUse" x1="379.7303" y1="665.1731" x2="379.7303" y2="1425.4742">
				<stop  offset="0.1648" style="stop-color:#949494"/>
				<stop  offset="0.5769" style="stop-color:#000000"/>
			</linearGradient>
			<polygon fill="url(#SVGID_1_)" stroke="#010101" stroke-width="0.0968" stroke-linecap="round" stroke-linejoin="round" points="
				138.35,710.176 138.35,978.547 138.35,1021.193 621.111,1021.193 621.111,710.176 			"/>
		</g>
	</g>

		<rect x="150.231" y="721.687" fill="#FFFFFF" stroke="#010101" stroke-width="2" stroke-linecap="round" stroke-linejoin="round" width="459" height="288"/>
	<rect x="705.867" y="710.176" fill="#828487" width="2801.061" height="344.524"/>

		<rect x="1342.589" y="701.209" fill="#828487" stroke="#000000" stroke-width="2" stroke-miterlimit="10" width="1065.836" height="365.633"/>
	<rect x="743.44" y="749.261" width="268.007" height="268.006"/>
	<rect x="1054.554" y="749.261" width="268.007" height="268.006"/>
	<rect x="2738.646" y="931.907" width="268.007" height="85.359"/>
	<rect x="2738.646" y="749.261" width="62.582" height="175.584"/>
	<rect x="2807.068" y="749.261" width="62.582" height="175.584"/>
	<rect x="2875.49" y="749.261" width="62.582" height="175.584"/>
	<rect x="2943.911" y="749.261" width="62.582" height="175.584"/>
	<rect x="1394.369" y="714.209" width="116.579" height="262"/>
	<rect x="1515.988" y="714.209" width="116.579" height="262"/>
	<rect x="1637.607" y="714.209" width="116.579" height="262"/>
	<rect x="1759.227" y="714.209" width="116.579" height="262"/>
	<rect x="1880.846" y="714.209" width="116.579" height="262"/>
	<rect x="2002.465" y="714.209" width="116.579" height="262"/>
	<rect x="2124.084" y="714.209" width="116.579" height="262"/>
	<rect x="2245.704" y="714.209" width="116.579" height="262"/>
	<rect x="705.867" y="215.89" fill="#828487" width="2801.061" height="344.524"/>

		<rect x="1342.589" y="206.923" fill="#828487" stroke="#000000" stroke-width="2" stroke-miterlimit="10" width="1065.836" height="365.633"/>
	<rect x="743.44" y="254.975" width="268.007" height="268.006"/>
	<rect x="1054.554" y="254.975" width="268.007" height="268.006"/>
	<rect x="2427.532" y="254.974" width="268.007" height="268.006"/>
	<polyline points="2362.306,353.671 2362.306,481.925 2245.727,481.925 	"/>
	<rect x="1394.369" y="219.923" width="116.579" height="129.083"/>
	<rect x="1515.991" y="219.923" width="116.579" height="129.083"/>
	<rect x="1637.614" y="219.923" width="116.579" height="129.083"/>
	<rect x="1759.236" y="219.923" width="116.579" height="129.083"/>
	<rect x="1880.859" y="219.923" width="116.579" height="129.083"/>
	<rect x="2002.482" y="219.923" width="116.579" height="129.083"/>
	<rect x="2124.104" y="219.923" width="116.579" height="129.083"/>
	<rect x="2245.727" y="219.923" width="116.579" height="129.083"/>
	<rect x="1394.369" y="352.842" width="116.579" height="129.083"/>
	<rect x="1515.991" y="352.842" width="116.579" height="129.083"/>
	<rect x="1637.614" y="352.842" width="116.579" height="129.083"/>
	<rect x="1759.236" y="352.842" width="116.579" height="129.083"/>
	<rect x="1880.859" y="352.842" width="116.579" height="129.083"/>
	<rect x="2002.482" y="352.842" width="116.579" height="129.083"/>
	<rect x="2124.104" y="352.842" width="116.579" height="129.083"/>
	<rect x="2245.727" y="352.842" width="116.579" height="129.083"/>
	<rect x="2738.646" y="254.974" width="268.007" height="268.006"/>

		<line fill="none" stroke="#000000" stroke-width="3" stroke-miterlimit="10" x1="724.113" y1="1017.209" x2="1342.59" y2="1017.209"/>

		<line fill="none" stroke="#000000" stroke-width="3" stroke-miterlimit="10" x1="2408.426" y1="749.287" x2="3486.485" y2="749.287"/>
	<line fill="none" stroke="#000000" stroke-width="3" stroke-miterlimit="10" x1="724.113" y1="710.176" x2="724.113" y2="1054.7"/>

		<line fill="none" stroke="#000000" stroke-width="3" stroke-miterlimit="10" x1="1033.979" y1="710.176" x2="1033.979" y2="1054.7"/>

		<line fill="none" stroke="#000000" stroke-width="3" stroke-miterlimit="10" x1="1342.59" y1="749.287" x2="1342.59" y2="1017.182"/>

		<line fill="none" stroke="#000000" stroke-width="3" stroke-miterlimit="10" x1="2408.426" y1="749.287" x2="2408.426" y2="1017.182"/>

		<line fill="none" stroke="#000000" stroke-width="3" stroke-miterlimit="10" x1="2717.145" y1="710.209" x2="2717.145" y2="1054.7"/>

		<line fill="none" stroke="#000000" stroke-width="3" stroke-miterlimit="10" x1="3027.629" y1="710.209" x2="3027.629" y2="1054.7"/>

		<line fill="none" stroke="#000000" stroke-width="3" stroke-miterlimit="10" x1="3486.485" y1="710.209" x2="3486.485" y2="1054.7"/>

		<line fill="none" stroke="#000000" stroke-width="3" stroke-miterlimit="10" x1="724.113" y1="749.287" x2="1342.59" y2="749.287"/>

		<line fill="none" stroke="#000000" stroke-width="3" stroke-miterlimit="10" x1="2408.426" y1="1017.209" x2="3486.485" y2="1017.209"/>

		<line fill="none" stroke="#000000" stroke-width="2" stroke-miterlimit="10" x1="2244.697" y1="990.209" x2="2408.426" y2="990.209"/>

		<line fill="none" stroke="#000000" stroke-width="2" stroke-miterlimit="10" x1="2244.697" y1="1044.583" x2="2408.426" y2="1044.583"/>

		<line fill="none" stroke="#000000" stroke-width="2" stroke-miterlimit="10" x1="2244.697" y1="1017.182" x2="2408.426" y2="1017.182"/>

		<line fill="none" stroke="#000000" stroke-width="2" stroke-miterlimit="10" x1="2244.697" y1="1031.572" x2="2408.426" y2="1031.572"/>

		<line fill="none" stroke="#000000" stroke-width="2" stroke-miterlimit="10" x1="2244.697" y1="1002.682" x2="2408.426" y2="1002.682"/>

		<line fill="none" stroke="#000000" stroke-width="2" stroke-miterlimit="10" x1="1342.59" y1="990.209" x2="1509.911" y2="990.209"/>

		<line fill="none" stroke="#000000" stroke-width="2" stroke-miterlimit="10" x1="1342.59" y1="1044.583" x2="1509.911" y2="1044.583"/>

		<line fill="none" stroke="#000000" stroke-width="2" stroke-miterlimit="10" x1="1342.59" y1="1017.182" x2="1509.911" y2="1017.182"/>

		<line fill="none" stroke="#000000" stroke-width="2" stroke-miterlimit="10" x1="1342.59" y1="1031.572" x2="1509.911" y2="1031.572"/>

		<line fill="none" stroke="#000000" stroke-width="2" stroke-miterlimit="10" x1="1342.59" y1="1002.682" x2="1509.911" y2="1002.682"/>

		<line fill="none" stroke="#000000" stroke-width="3" stroke-miterlimit="10" x1="724.113" y1="522.923" x2="1342.59" y2="522.923"/>

		<line fill="none" stroke="#000000" stroke-width="3" stroke-miterlimit="10" x1="2408.426" y1="255.002" x2="3486.485" y2="255.002"/>
	<line fill="none" stroke="#000000" stroke-width="3" stroke-miterlimit="10" x1="724.113" y1="215.89" x2="724.113" y2="560.414"/>

		<line fill="none" stroke="#000000" stroke-width="3" stroke-miterlimit="10" x1="1033.979" y1="215.89" x2="1033.979" y2="560.414"/>

		<line fill="none" stroke="#000000" stroke-width="3" stroke-miterlimit="10" x1="1342.59" y1="255.002" x2="1342.59" y2="522.897"/>

		<line fill="none" stroke="#000000" stroke-width="3" stroke-miterlimit="10" x1="2408.426" y1="255.002" x2="2408.426" y2="522.897"/>

		<line fill="none" stroke="#000000" stroke-width="3" stroke-miterlimit="10" x1="2717.145" y1="215.923" x2="2717.145" y2="560.414"/>

		<line fill="none" stroke="#000000" stroke-width="3" stroke-miterlimit="10" x1="3027.629" y1="215.923" x2="3027.629" y2="560.414"/>

		<line fill="none" stroke="#000000" stroke-width="3" stroke-miterlimit="10" x1="3486.485" y1="215.923" x2="3486.485" y2="560.414"/>

		<line fill="none" stroke="#000000" stroke-width="3" stroke-miterlimit="10" x1="724.113" y1="255.002" x2="1342.59" y2="255.002"/>

		<line fill="none" stroke="#000000" stroke-width="3" stroke-miterlimit="10" x1="2408.426" y1="522.923" x2="3486.485" y2="522.923"/>

		<line fill="none" stroke="#000000" stroke-width="2" stroke-miterlimit="10" x1="2244.697" y1="495.923" x2="2408.426" y2="495.923"/>

		<line fill="none" stroke="#000000" stroke-width="2" stroke-miterlimit="10" x1="2244.697" y1="550.297" x2="2408.426" y2="550.297"/>

		<line fill="none" stroke="#000000" stroke-width="2" stroke-miterlimit="10" x1="2244.697" y1="522.897" x2="2408.426" y2="522.897"/>

		<line fill="none" stroke="#000000" stroke-width="2" stroke-miterlimit="10" x1="2244.697" y1="537.286" x2="2408.426" y2="537.286"/>

		<line fill="none" stroke="#000000" stroke-width="2" stroke-miterlimit="10" x1="2244.697" y1="508.396" x2="2408.426" y2="508.396"/>
	<rect x="1509.911" y="494.923" width="180.439" height="56.374"/>
	<rect x="1695.35" y="494.923" width="180.439" height="56.374"/>
	<rect x="1880.789" y="494.923" width="180.439" height="56.374"/>
	<rect x="2066.229" y="494.923" width="180.439" height="56.374"/>

		<line fill="none" stroke="#000000" stroke-width="2" stroke-miterlimit="10" x1="1342.59" y1="495.923" x2="1509.911" y2="495.923"/>

		<line fill="none" stroke="#000000" stroke-width="2" stroke-miterlimit="10" x1="1342.59" y1="550.297" x2="1509.911" y2="550.297"/>

		<line fill="none" stroke="#000000" stroke-width="2" stroke-miterlimit="10" x1="1342.59" y1="522.897" x2="1509.911" y2="522.897"/>

		<line fill="none" stroke="#000000" stroke-width="2" stroke-miterlimit="10" x1="1342.59" y1="537.286" x2="1509.911" y2="537.286"/>

		<line fill="none" stroke="#000000" stroke-width="2" stroke-miterlimit="10" x1="1342.59" y1="508.396" x2="1509.911" y2="508.396"/>
	<rect x="1509.911" y="989.209" width="180.439" height="56.374"/>
	<rect x="1695.35" y="989.209" width="180.439" height="56.374"/>
	<rect x="1880.789" y="989.209" width="180.439" height="56.374"/>
	<rect x="2066.229" y="989.209" width="180.439" height="56.374"/>
	<rect x="2427.532" y="749.261" width="268.007" height="85.275"/>
	<rect x="2427.532" y="842.6" width="268.007" height="81.243"/>
	<rect x="2427.532" y="931.907" width="268.007" height="85.275"/>
	<g>
		<g>
			<polyline fill="none" stroke="#ED1C24" stroke-width="5" stroke-miterlimit="10" points="743.44,1064.7 743.44,1058.7
				749.44,1058.7 			"/>

				<line fill="none" stroke="#ED1C24" stroke-width="5" stroke-miterlimit="10" stroke-dasharray="12.1908,12.1908" x1="761.631" y1="1058.7" x2="999.351" y2="1058.7"/>
			<polyline fill="none" stroke="#ED1C24" stroke-width="5" stroke-miterlimit="10" points="1005.447,1058.7 1011.447,1058.7
				1011.447,1064.7 			"/>

				<line fill="none" stroke="#ED1C24" stroke-width="5" stroke-miterlimit="10" stroke-dasharray="10.6023,10.6023" x1="1011.447" y1="1075.302" x2="1011.447" y2="1112.41"/>
			<polyline fill="none" stroke="#ED1C24" stroke-width="5" stroke-miterlimit="10" points="1011.447,1117.711 1011.447,1123.711
				1005.447,1123.711 			"/>

				<line fill="none" stroke="#ED1C24" stroke-width="5" stroke-miterlimit="10" stroke-dasharray="12.1908,12.1908" x1="993.256" y1="1123.711" x2="755.535" y2="1123.711"/>
			<polyline fill="none" stroke="#ED1C24" stroke-width="5" stroke-miterlimit="10" points="749.44,1123.711 743.44,1123.711
				743.44,1117.711 			"/>

				<line fill="none" stroke="#ED1C24" stroke-width="5" stroke-miterlimit="10" stroke-dasharray="10.6023,10.6023" x1="743.44" y1="1107.109" x2="743.44" y2="1070.001"/>
		</g>
	</g>

		<rect x="1083.092" y="1965.004" fill="#F2F1EA" stroke="#999999" stroke-linecap="round" stroke-linejoin="round" width="1831.205" height="27.843"/>

		<rect x="457.92" y="1994.917" fill="#F2F1EA" stroke="#999999" stroke-linecap="round" stroke-linejoin="round" width="629.543" height="64.049"/>
	<polygon fill="#F2F1EA" stroke="#999999" stroke-linecap="round" stroke-linejoin="round" points="1087.102,1994.723
		1172.373,1931.448 1172.022,1993.396 1087.627,2059.29 	"/>

		<rect x="1083.092" y="1932.872" fill="#C4C4C0" stroke="#999999" stroke-linecap="round" stroke-linejoin="round" width="1831.205" height="33.975"/>

		<rect x="457.92" y="1968.917" fill="#C4C4C0" stroke="#999999" stroke-linecap="round" stroke-linejoin="round" width="629.543" height="64.049"/>
	<polygon fill="#C4C4C0" stroke="#999999" stroke-linecap="round" stroke-linejoin="round" points="1087.102,1968.723
		1172.373,1905.448 1172.022,1967.396 1087.627,2033.29 	"/>
	<rect x="1167.426" y="1710.726" fill="#D6C3AA" width="1760.314" height="224.21"/>
	<polygon fill="#AEA08C" points="2927.739,1710.726 995.327,1710.726 995.327,1732.382 2927.739,1732.129 	"/>
	<polygon fill="#EFEFF0" points="2126.032,1600.474 1127.459,1600.474 1130.62,1637.269 2885.395,1637.269 2882.234,1600.474
		2374.129,1600.474 2374.129,1625.421 2125.849,1625.421 	"/>
	<path fill="#EFEFF0" d="M1158.78,1584.842c0,6.163-4.997,11.157-11.167,11.157l0,0c-6.17,0-11.165-4.993-11.165-11.157v-32.572
		c0-6.16,4.995-11.164,11.165-11.164l0,0c6.17,0,11.167,5.004,11.167,11.164V1584.842z"/>
	<path fill="#EFEFF0" d="M2169.501,1294.748c0,8.692-7.033,15.738-15.726,15.738l0,0c-8.687,0-15.727-7.046-15.727-15.738v-45.877
		c0-8.684,7.04-15.73,15.727-15.73l0,0c8.693,0,15.726,7.046,15.726,15.73V1294.748z"/>
	<path fill="#EFEFF0" d="M2254.71,1301.146c0,5.151-7.04,9.339-15.728,9.339l0,0c-8.69,0-15.73-4.189-15.73-9.339v-27.213
		c0-5.155,7.04-9.335,15.73-9.335l0,0c8.688,0,15.728,4.18,15.728,9.335V1301.146z"/>
	<path fill="#EFEFF0" d="M2216.692,1298.472c0,6.993-7.043,12.667-15.73,12.667l0,0c-8.692,0-15.737-5.674-15.737-12.667v-36.934
		c0-6.994,7.045-12.667,15.737-12.667l0,0c8.688,0,15.73,5.673,15.73,12.667V1298.472z"/>
	<g>
		<path fill="#EFEFF0" d="M2797.434,1404.05c0-0.364,0.297-0.661,0.661-0.661h82.415c0.364,0,0.661,0.298,0.661,0.661v191.287
			c0,0.364-0.298,0.661-0.661,0.661h-82.415c-0.364,0-0.661-0.298-0.661-0.661V1404.05z"/>
	</g>
	<g>
		<path fill="#EFEFF0" d="M2626.355,1595.337c0,0.364,0.297,0.661,0.661,0.661h163.374c0.364,0,0.661-0.298,0.661-0.661v-205.713
			c0-0.364-0.297-0.661-0.661-0.661h-163.374c-0.364,0-0.661,0.298-0.661,0.661V1595.337z"/>
	</g>
	<g>
		<path fill="#EFEFF0" d="M2774.308,1595.337c0,0.364-0.298,0.661-0.661,0.661h-133.605c-0.364,0-0.661-0.298-0.661-0.661v-196.089
			c0-0.364,0.297-0.661,0.661-0.661h133.605c0.364,0,0.661,0.297,0.661,0.661V1595.337z"/>
	</g>
	<g>
		<path fill="#EFEFF0" d="M2569.731,1595.337c0,0.364,0.298,0.661,0.661,0.661h48.927c0.364,0,0.661-0.298,0.661-0.661v-195.942
			c0-0.364-0.298-0.661-0.661-0.661h-48.927c-0.364,0-0.661,0.298-0.661,0.661V1595.337z"/>
	</g>
	<g>
		<path fill="#EFEFF0" d="M2264.92,1618.883c0,0.364-0.298,0.661-0.661,0.661h-133.256c-0.364,0-0.661-0.298-0.661-0.661v-298.761
			c0-0.364,0.298-0.661,0.661-0.661h133.256c0.364,0,0.661,0.298,0.661,0.661V1618.883z"/>
	</g>
	<g>
		<path fill="#EFEFF0" d="M1987.311,1595.351c0,0.356-0.291,0.647-0.647,0.647h-83.382c-0.356,0-0.647-0.291-0.647-0.647v-265.952
			c0-0.356,0.291-0.647,0.647-0.647h83.382c0.356,0,0.647,0.291,0.647,0.647V1595.351z"/>
	</g>
	<g>
		<path fill="#EFEFF0" d="M1896.257,1595.337c0,0.364-0.298,0.661-0.661,0.661h-83.354c-0.364,0-0.661-0.298-0.661-0.661v-47.989
			c0-0.364,0.297-0.661,0.661-0.661h83.354c0.364,0,0.661,0.297,0.661,0.661V1595.337z"/>
	</g>
	<g>
		<path fill="#EFEFF0" d="M1249.835,1595.337c0,0.364-0.298,0.661-0.661,0.661h-83.357c-0.364,0-0.661-0.298-0.661-0.661v-47.989
			c0-0.364,0.298-0.661,0.661-0.661h83.357c0.364,0,0.661,0.297,0.661,0.661V1595.337z"/>
	</g>
	<g>
		<path fill="#EFEFF0" d="M2123.959,1595.337c0,0.364-0.298,0.661-0.661,0.661H1994.35c-0.364,0-0.661-0.298-0.661-0.661v-47.989
			c0-0.364,0.298-0.661,0.661-0.661h128.948c0.364,0,0.661,0.297,0.661,0.661V1595.337z"/>
	</g>
	<rect x="1347.265" y="1214.931" fill="#EFEFF0" width="457.937" height="381.068"/>
	<rect x="1347.265" y="1214.931" fill="#EFEFF0" width="457.937" height="83.271"/>
	<g>
		<path fill="#EFEFF0" d="M2563.357,1595.337c0,0.364-0.298,0.661-0.661,0.661h-186.654c-0.364,0-0.661-0.298-0.661-0.661v-312.251
			c0-0.364,0.298-0.661,0.661-0.661h186.654c0.364,0,0.661,0.298,0.661,0.661V1595.337z"/>
	</g>
	<g>
		<path fill="#EFEFF0" d="M2555.906,1291.465c0-0.364-0.298-0.661-0.661-0.661h-171.752c-0.364,0-0.661,0.298-0.661,0.661v185.704
			c0,0.364,0.297,0.661,0.661,0.661h171.752c0.364,0,0.661-0.298,0.661-0.661V1291.465z"/>
	</g>
	<g>
		<path fill="#EFEFF0" d="M2615.181,1392.678c0,0.364-0.298,0.661-0.661,0.661h-37.757c-0.364,0-0.661-0.298-0.661-0.661v-29.394
			c0-0.364,0.298-0.661,0.661-0.661h37.757c0.364,0,0.661,0.298,0.661,0.661V1392.678z"/>
	</g>
	<g>
		<path fill="#EFEFF0" d="M2615.181,1357.179c0,0.364-0.298,0.661-0.661,0.661h-37.757c-0.364,0-0.661-0.298-0.661-0.661v-29.39
			c0-0.364,0.298-0.661,0.661-0.661h37.757c0.364,0,0.661,0.298,0.661,0.661V1357.179z"/>
	</g>
	<g>
		<path fill="#EFEFF0" d="M2369.003,1618.419c0,0.364-0.298,0.661-0.661,0.661h-96.374c-0.364,0-0.661-0.298-0.661-0.661v-256.428
			c0-0.364,0.298-0.661,0.661-0.661h96.374c0.364,0,0.661,0.298,0.661,0.661V1618.419z"/>
	</g>
	<g>
		<path fill="#EFEFF0" d="M2358.427,1455.588c0,0.364-0.298,0.661-0.661,0.661h-75.222c-0.364,0-0.661-0.298-0.661-0.661v-76.849
			c0-0.364,0.298-0.661,0.661-0.661h75.222c0.364,0,0.661,0.297,0.661,0.661V1455.588z"/>
	</g>
	<g>
		<path fill="#EFEFF0" d="M1340.89,1595.564c0,0.239-0.196,0.435-0.435,0.435h-83.811c-0.239,0-0.435-0.196-0.435-0.435v-119.648
			c0-0.239,0.196-0.435,0.435-0.435h83.811c0.239,0,0.435,0.196,0.435,0.435V1595.564z"/>
	</g>
	<g>
		<path fill="#EFEFF0" d="M1340.89,1468.216c0,0.239-0.196,0.435-0.435,0.435h-83.811c-0.239,0-0.435-0.196-0.435-0.435v-119.656
			c0-0.239,0.196-0.435,0.435-0.435h83.811c0.239,0,0.435,0.196,0.435,0.435V1468.216z"/>
	</g>
	<polygon fill="#D6C3AA" points="2946.745,1644.439 976.315,1646.629 1048.867,1629.089 2891.765,1629.089 	"/>
	<polygon fill="#F2F1EA" stroke="#989898" stroke-width="0.4584" points="2946.745,1644.439 976.082,1644.664 976.082,1710.726
		2946.745,1710.726 	"/>
	<polygon fill="#BCAC97" points="1172.595,1934.31 1095.297,1995.489 1095.002,1695.633 1172.281,1667.692 	"/>
	<polygon fill="#9A8E7D" points="1172.595,1732.354 1095.476,1757.085 1095.476,1732.354 1172.281,1712.313 	"/>
	<rect x="444.541" y="1735.457" fill="#D6C3AA" width="650.935" height="260.602"/>
	<polygon fill="#D6C3AA" points="1242.38,1630.869 562.391,1632.711 435.56,1657.888 1115.326,1658.128 	"/>
	<g>
		<polygon fill="#B3B3B3" points="887.495,1400.097 870.796,1397.305 870.796,1482.841 887.857,1482.841 		"/>
		<rect x="570.8" y="1397.305" fill="#C2C2C2" width="299.996" height="72.895"/>
	</g>
	<g>
		<polygon fill="#502B1B" points="639.592,1316.804 661.385,1395.756 698.35,1395.756 719.831,1316.429 		"/>
		<rect x="638.996" y="1307.768" fill="#999999" width="82.921" height="6.265"/>

			<linearGradient id="SVGID_2_" gradientUnits="userSpaceOnUse" x1="687.9476" y1="1492.9514" x2="717.5749" y2="1492.9514" gradientTransform="matrix(1 0.002 -0.0019 0.941 -1.5687 -50.0253)">
			<stop  offset="0" style="stop-color:#FFFFFF"/>
			<stop  offset="0.122" style="stop-color:#EFECEA"/>
			<stop  offset="0.3736" style="stop-color:#C6BAB5"/>
			<stop  offset="0.7293" style="stop-color:#856B60"/>
			<stop  offset="1" style="stop-color:#502B1B"/>
		</linearGradient>
		<polygon opacity="0.54" fill="url(#SVGID_2_)" points="683.467,1393.549 695.4,1393.57 713.245,1318.947 701.309,1318.924 		"/>

			<linearGradient id="SVGID_3_" gradientUnits="userSpaceOnUse" x1="684.3068" y1="1492.9696" x2="703.5151" y2="1492.9696" gradientTransform="matrix(1 0.002 -0.0019 0.941 -1.5687 -50.0253)">
			<stop  offset="0" style="stop-color:#FFFFFF"/>
			<stop  offset="0.122" style="stop-color:#EFECEA"/>
			<stop  offset="0.3736" style="stop-color:#C6BAB5"/>
			<stop  offset="0.7293" style="stop-color:#856B60"/>
			<stop  offset="1" style="stop-color:#502B1B"/>
		</linearGradient>
		<polygon opacity="0.54" fill="url(#SVGID_3_)" points="679.826,1393.549 681.341,1393.57 699.185,1318.947 697.667,1318.924 		"/>
		<rect x="701.102" y="1307.768" opacity="0.6" fill="#FFFFFF" width="12.785" height="6.387"/>
		<rect x="698.501" y="1307.768" opacity="0.6" fill="#FFFFFF" width="1.326" height="6.387"/>
	</g>
	<g>
		<polygon fill="#502B1B" points="761.419,1316.804 783.214,1395.756 820.175,1395.756 841.66,1316.429 		"/>
		<rect x="760.819" y="1307.768" fill="#999999" width="82.93" height="6.265"/>

			<linearGradient id="SVGID_4_" gradientUnits="userSpaceOnUse" x1="809.7734" y1="1492.6925" x2="839.3967" y2="1492.6925" gradientTransform="matrix(1 0.002 -0.0019 0.941 -1.5687 -50.0253)">
			<stop  offset="0" style="stop-color:#FFFFFF"/>
			<stop  offset="0.122" style="stop-color:#EFECEA"/>
			<stop  offset="0.3736" style="stop-color:#C6BAB5"/>
			<stop  offset="0.7293" style="stop-color:#856B60"/>
			<stop  offset="1" style="stop-color:#502B1B"/>
		</linearGradient>
		<polygon opacity="0.54" fill="url(#SVGID_4_)" points="805.293,1393.549 817.224,1393.57 835.067,1318.947 823.136,1318.924 		"/>

			<linearGradient id="SVGID_5_" gradientUnits="userSpaceOnUse" x1="806.1328" y1="1492.7107" x2="825.3405" y2="1492.7107" gradientTransform="matrix(1 0.002 -0.0019 0.941 -1.5687 -50.0253)">
			<stop  offset="0" style="stop-color:#FFFFFF"/>
			<stop  offset="0.122" style="stop-color:#EFECEA"/>
			<stop  offset="0.3736" style="stop-color:#C6BAB5"/>
			<stop  offset="0.7293" style="stop-color:#856B60"/>
			<stop  offset="1" style="stop-color:#502B1B"/>
		</linearGradient>
		<polygon opacity="0.54" fill="url(#SVGID_5_)" points="801.653,1393.549 803.168,1393.57 821.011,1318.947 819.491,1318.924 		"/>
		<rect x="822.929" y="1307.768" opacity="0.6" fill="#FFFFFF" width="12.78" height="6.387"/>
		<rect x="820.329" y="1307.768" opacity="0.6" fill="#FFFFFF" width="1.327" height="6.387"/>
	</g>
	<polygon fill="#F2F1EA" stroke="#989898" stroke-width="0.387" stroke-linecap="round" stroke-linejoin="round" points="
		1167.426,1453.285 1106.313,1416.779 1106.313,1648.149 1167.426,1637.151 	"/>

		<rect x="522.355" y="1416.779" fill="#F2F1EA" stroke="#989898" stroke-width="0.4346" stroke-linecap="round" stroke-linejoin="round" width="583.958" height="231.37"/>
	<polygon fill="#F2F1EA" stroke="#989898" stroke-width="0.4366" points="435.56,1657.888 1114.892,1658.128 1114.892,1732.682
		435.797,1732.682 	"/>
	<polygon fill="#F2F1EA" stroke="#989898" stroke-width="0.356" points="1114.892,1658.182 1178.294,1644.925 1178.294,1710.726
		1114.892,1732.83 	"/>

		<rect x="750.516" y="1425.684" fill="#FFFFFF" stroke="#000000" stroke-width="0.5594" stroke-miterlimit="10" width="164.179" height="209.446"/>

		<rect x="925.912" y="1425.684" fill="#FFFFFF" stroke="#000000" stroke-width="0.5594" stroke-miterlimit="10" width="164.179" height="209.446"/>
	<rect x="444.584" y="1735.457" fill="#AEA08C" width="650.892" height="21.628"/>
	<polygon fill="#97999C" points="2069.849,1488.616 1902.562,1488.616 1909.048,1617.258 2063.374,1617.258 	"/>
	<polygon fill="#B3B3B3" points="2069.849,1488.655 1902.562,1488.655 1909.048,1483.279 2063.374,1483.279 	"/>
	<polygon fill="#B3B3B3" points="2055.007,1633.495 2047.469,1640.319 1923.985,1640.319 1917.412,1633.495 1922.355,1512.317
		2049.76,1512.317 	"/>
	<polygon fill="#97999C" points="2048.356,1639.813 1924.059,1639.813 1923.981,1512.317 2048.43,1512.317 	"/>
	<polygon fill="#B3B3B3" points="2048.282,1514.882 1924.059,1514.882 1922.317,1512.331 2049.731,1512.331 	"/>
	<g>
		<g>
			<polygon fill="#97999C" points="2150.952,1632.746 2078.854,1632.746 2082.477,1492.239 2147.329,1492.239 			"/>
		</g>
		<rect x="2083.171" y="1449.47" fill="#B3B3B3" width="64.102" height="42.887"/>
	</g>
	<polygon fill="#97999C" points="2397.902,1488.616 2230.615,1488.616 2237.101,1617.258 2391.427,1617.258 	"/>
	<polygon fill="#B3B3B3" points="2397.902,1488.655 2230.615,1488.655 2237.101,1483.279 2391.427,1483.279 	"/>
	<polygon fill="#B3B3B3" points="2383.061,1633.495 2375.523,1640.319 2252.039,1640.319 2245.466,1633.495 2250.408,1512.317
		2377.813,1512.317 	"/>
	<polygon fill="#97999C" points="2376.41,1639.813 2252.113,1639.813 2252.034,1512.317 2376.483,1512.317 	"/>
	<polygon fill="#B3B3B3" points="2376.335,1514.882 2252.113,1514.882 2250.371,1512.331 2377.784,1512.331 	"/>
	<g>
		<g>
			<polygon fill="#97999C" points="2479.005,1632.746 2406.908,1632.746 2410.531,1492.239 2475.383,1492.239 			"/>
		</g>
		<rect x="2411.224" y="1449.47" fill="#B3B3B3" width="64.102" height="42.887"/>
	</g>
	<polygon fill="#97999C" points="2725.956,1488.616 2558.669,1488.616 2565.155,1617.258 2719.481,1617.258 	"/>
	<polygon fill="#B3B3B3" points="2725.956,1488.655 2558.669,1488.655 2565.155,1483.279 2719.481,1483.279 	"/>
	<polygon fill="#B3B3B3" points="2711.114,1633.495 2703.576,1640.319 2580.093,1640.319 2573.52,1633.495 2578.462,1512.317
		2705.867,1512.317 	"/>
	<polygon fill="#97999C" points="2704.463,1639.813 2580.166,1639.813 2580.088,1512.317 2704.537,1512.317 	"/>
	<polygon fill="#B3B3B3" points="2704.389,1514.882 2580.166,1514.882 2578.425,1512.331 2705.838,1512.331 	"/>
	<g>
		<g>
			<polygon fill="#97999C" points="2807.059,1632.746 2734.961,1632.746 2738.584,1492.239 2803.436,1492.239 			"/>
		</g>
		<rect x="2739.278" y="1449.47" fill="#B3B3B3" width="64.102" height="42.887"/>
	</g>
	<g>
		<g>
			<polyline fill="none" stroke="#ED1C24" stroke-width="5" stroke-miterlimit="10" points="113.198,1465.564 113.198,1459.564
				119.198,1459.564 			"/>

				<line fill="none" stroke="#ED1C24" stroke-width="5" stroke-miterlimit="10" stroke-dasharray="11.6696,11.6696" x1="130.867" y1="1459.564" x2="358.424" y2="1459.564"/>
			<polyline fill="none" stroke="#ED1C24" stroke-width="5" stroke-miterlimit="10" points="364.259,1459.564 370.259,1459.564
				370.259,1465.564 			"/>

				<line fill="none" stroke="#ED1C24" stroke-width="5" stroke-miterlimit="10" stroke-dasharray="12.4254,12.4254" x1="370.259" y1="1477.989" x2="370.259" y2="1645.732"/>
			<polyline fill="none" stroke="#ED1C24" stroke-width="5" stroke-miterlimit="10" points="370.259,1651.945 370.259,1657.945
				364.259,1657.945 			"/>

				<line fill="none" stroke="#ED1C24" stroke-width="5" stroke-miterlimit="10" stroke-dasharray="11.6696,11.6696" x1="352.59" y1="1657.945" x2="125.032" y2="1657.945"/>
			<polyline fill="none" stroke="#ED1C24" stroke-width="5" stroke-miterlimit="10" points="119.198,1657.945 113.198,1657.945
				113.198,1651.945 			"/>

				<line fill="none" stroke="#ED1C24" stroke-width="5" stroke-miterlimit="10" stroke-dasharray="12.4254,12.4254" x1="113.198" y1="1639.519" x2="113.198" y2="1471.776"/>
		</g>
	</g>
	<g>
		<g>
			<polyline fill="none" stroke="#ED1C24" stroke-width="5" stroke-miterlimit="10" points="113.198,1716.165 113.198,1710.165
				119.198,1710.165 			"/>

				<line fill="none" stroke="#ED1C24" stroke-width="5" stroke-miterlimit="10" stroke-dasharray="11.6696,11.6696" x1="130.867" y1="1710.165" x2="358.424" y2="1710.165"/>
			<polyline fill="none" stroke="#ED1C24" stroke-width="5" stroke-miterlimit="10" points="364.259,1710.165 370.259,1710.165
				370.259,1716.165 			"/>

				<line fill="none" stroke="#ED1C24" stroke-width="5" stroke-miterlimit="10" stroke-dasharray="12.382,12.382" x1="370.259" y1="1728.547" x2="370.259" y2="2044.288"/>
			<polyline fill="none" stroke="#ED1C24" stroke-width="5" stroke-miterlimit="10" points="370.259,2050.479 370.259,2056.479
				364.259,2056.479 			"/>

				<line fill="none" stroke="#ED1C24" stroke-width="5" stroke-miterlimit="10" stroke-dasharray="11.6696,11.6696" x1="352.59" y1="2056.479" x2="125.032" y2="2056.479"/>
			<polyline fill="none" stroke="#ED1C24" stroke-width="5" stroke-miterlimit="10" points="119.198,2056.479 113.198,2056.479
				113.198,2050.479 			"/>

				<line fill="none" stroke="#ED1C24" stroke-width="5" stroke-miterlimit="10" stroke-dasharray="12.382,12.382" x1="113.198" y1="2038.097" x2="113.198" y2="1722.356"/>
		</g>
	</g>
	<ellipse cx="3131.745" cy="2133.957" rx="156.182" ry="43.138"/>
	<ellipse fill="none" cx="3131.745" cy="2133.957" rx="156.182" ry="43.138"/>
	<g>
		<path fill="#999999" d="M3279.339,2122.315l-208.325,49.308c10.375,1.227,21.306,2.153,32.633,2.736l181.918-43.058
			C3284.784,2128.211,3282.656,2125.201,3279.339,2122.315z"/>
		<path fill="#999999" d="M3285.623,2136.376l-163.176,38.622c3.08,0.052,6.179,0.081,9.298,0.081c1.666,0,3.324-0.01,4.978-0.025
			l147.337-34.873C3284.809,2138.928,3285.328,2137.658,3285.623,2136.376z"/>
	</g>
	<rect x="3260.591" y="1286.545" width="15.338" height="847.407"/>
	<rect x="3002.179" y="1286.545" width="258.412" height="13.236"/>
	<rect x="3002.179" y="2012.481" width="258.412" height="13.278"/>
	<rect x="2986.842" y="1286.545" width="15.338" height="847.407"/>
	<g>
		<rect x="3054.071" y="749.287" width="406.545" height="267.922"/>
	</g>
	<g>
		<rect x="3054.071" y="254.976" width="406.545" height="267.948"/>
	</g>
	<g>
		<g>
			<polyline fill="none" stroke="#ED1C24" stroke-width="5" stroke-miterlimit="10" points="113.198,1465.564 113.198,1459.564
				119.198,1459.564 			"/>

				<line fill="none" stroke="#ED1C24" stroke-width="5" stroke-miterlimit="10" stroke-dasharray="11.6696,11.6696" x1="130.867" y1="1459.564" x2="358.424" y2="1459.564"/>
			<polyline fill="none" stroke="#ED1C24" stroke-width="5" stroke-miterlimit="10" points="364.259,1459.564 370.259,1459.564
				370.259,1465.564 			"/>

				<line fill="none" stroke="#ED1C24" stroke-width="5" stroke-miterlimit="10" stroke-dasharray="12.4254,12.4254" x1="370.259" y1="1477.989" x2="370.259" y2="1645.732"/>
			<polyline fill="none" stroke="#ED1C24" stroke-width="5" stroke-miterlimit="10" points="370.259,1651.945 370.259,1657.945
				364.259,1657.945 			"/>

				<line fill="none" stroke="#ED1C24" stroke-width="5" stroke-miterlimit="10" stroke-dasharray="11.6696,11.6696" x1="352.59" y1="1657.945" x2="125.032" y2="1657.945"/>
			<polyline fill="none" stroke="#ED1C24" stroke-width="5" stroke-miterlimit="10" points="119.198,1657.945 113.198,1657.945
				113.198,1651.945 			"/>

				<line fill="none" stroke="#ED1C24" stroke-width="5" stroke-miterlimit="10" stroke-dasharray="12.4254,12.4254" x1="113.198" y1="1639.519" x2="113.198" y2="1471.776"/>
		</g>
	</g>
	<g>
		<g>
			<polyline fill="none" stroke="#ED1C24" stroke-width="5" stroke-miterlimit="10" points="113.198,1716.165 113.198,1710.165
				119.198,1710.165 			"/>

				<line fill="none" stroke="#ED1C24" stroke-width="5" stroke-miterlimit="10" stroke-dasharray="11.6696,11.6696" x1="130.867" y1="1710.165" x2="358.424" y2="1710.165"/>
			<polyline fill="none" stroke="#ED1C24" stroke-width="5" stroke-miterlimit="10" points="364.259,1710.165 370.259,1710.165
				370.259,1716.165 			"/>

				<line fill="none" stroke="#ED1C24" stroke-width="5" stroke-miterlimit="10" stroke-dasharray="12.382,12.382" x1="370.259" y1="1728.547" x2="370.259" y2="2044.288"/>
			<polyline fill="none" stroke="#ED1C24" stroke-width="5" stroke-miterlimit="10" points="370.259,2050.479 370.259,2056.479
				364.259,2056.479 			"/>

				<line fill="none" stroke="#ED1C24" stroke-width="5" stroke-miterlimit="10" stroke-dasharray="11.6696,11.6696" x1="352.59" y1="2056.479" x2="125.032" y2="2056.479"/>
			<polyline fill="none" stroke="#ED1C24" stroke-width="5" stroke-miterlimit="10" points="119.198,2056.479 113.198,2056.479
				113.198,2050.479 			"/>

				<line fill="none" stroke="#ED1C24" stroke-width="5" stroke-miterlimit="10" stroke-dasharray="12.382,12.382" x1="113.198" y1="2038.097" x2="113.198" y2="1722.356"/>
		</g>
	</g>
	<rect x="442.479" y="1663.382" fill="#502B1B" stroke="#000000" stroke-miterlimit="10" width="666.108" height="72.074"/>
	<rect x="936.06" y="1434.739" fill="#502B1B" width="143.879" height="190.27"/>
	<rect x="760.155" y="1434.739" fill="#502B1B" width="143.879" height="190.27"/>
	<g>
		<rect x="1220.222" y="1398.733" fill="#FFFFFF" width="174.009" height="214.737"/>
		<g>
			<polyline fill="none" stroke="#ED1C24" stroke-width="5" stroke-miterlimit="10" points="1220.222,1404.733 1220.222,1398.733
				1226.222,1398.733 			"/>

				<line fill="none" stroke="#ED1C24" stroke-width="5" stroke-miterlimit="10" stroke-dasharray="12.4623,12.4623" x1="1238.684" y1="1398.733" x2="1382" y2="1398.733"/>
			<polyline fill="none" stroke="#ED1C24" stroke-width="5" stroke-miterlimit="10" points="1388.231,1398.733 1394.231,1398.733
				1394.231,1404.733 			"/>

				<line fill="none" stroke="#ED1C24" stroke-width="5" stroke-miterlimit="10" stroke-dasharray="11.9257,11.9257" x1="1394.231" y1="1416.659" x2="1394.231" y2="1601.507"/>
			<polyline fill="none" stroke="#ED1C24" stroke-width="5" stroke-miterlimit="10" points="1394.231,1607.47 1394.231,1613.47
				1388.231,1613.47 			"/>

				<line fill="none" stroke="#ED1C24" stroke-width="5" stroke-miterlimit="10" stroke-dasharray="12.4623,12.4623" x1="1375.769" y1="1613.47" x2="1232.453" y2="1613.47"/>
			<polyline fill="none" stroke="#ED1C24" stroke-width="5" stroke-miterlimit="10" points="1226.222,1613.47 1220.222,1613.47
				1220.222,1607.47 			"/>

				<line fill="none" stroke="#ED1C24" stroke-width="5" stroke-miterlimit="10" stroke-dasharray="11.9257,11.9257" x1="1220.222" y1="1595.544" x2="1220.222" y2="1410.696"/>
		</g>
	</g>
	<g>
		<rect x="1878.925" y="1883.509" fill="#FFFFFF" width="174.009" height="183.918"/>
		<g>
			<polyline fill="none" stroke="#ED1C24" stroke-width="5" stroke-miterlimit="10" points="1878.925,1889.509 1878.925,1883.509
				1884.925,1883.509 			"/>

				<line fill="none" stroke="#ED1C24" stroke-width="5" stroke-miterlimit="10" stroke-dasharray="12.4623,12.4623" x1="1897.387" y1="1883.509" x2="2040.703" y2="1883.509"/>
			<polyline fill="none" stroke="#ED1C24" stroke-width="5" stroke-miterlimit="10" points="2046.935,1883.509 2052.935,1883.509
				2052.935,1889.509 			"/>

				<line fill="none" stroke="#ED1C24" stroke-width="5" stroke-miterlimit="10" stroke-dasharray="11.4612,11.4612" x1="2052.935" y1="1900.97" x2="2052.935" y2="2055.696"/>
			<polyline fill="none" stroke="#ED1C24" stroke-width="5" stroke-miterlimit="10" points="2052.935,2061.427 2052.935,2067.427
				2046.935,2067.427 			"/>

				<line fill="none" stroke="#ED1C24" stroke-width="5" stroke-miterlimit="10" stroke-dasharray="12.4623,12.4623" x1="2034.472" y1="2067.427" x2="1891.156" y2="2067.427"/>
			<polyline fill="none" stroke="#ED1C24" stroke-width="5" stroke-miterlimit="10" points="1884.925,2067.427 1878.925,2067.427
				1878.925,2061.427 			"/>

				<line fill="none" stroke="#ED1C24" stroke-width="5" stroke-miterlimit="10" stroke-dasharray="11.4612,11.4612" x1="1878.925" y1="2049.966" x2="1878.925" y2="1895.239"/>
		</g>
	</g>
	<g>
		<linearGradient id="SVGID_6_" gradientUnits="userSpaceOnUse" x1="2114.9036" y1="1527.4941" x2="2114.9036" y2="1653.4211">
			<stop  offset="0" style="stop-color:#D9D9D9"/>
			<stop  offset="1" style="stop-color:#C4C4C4"/>
		</linearGradient>
		<path fill="url(#SVGID_6_)" d="M2139.016,1624.365c0,0.387-0.317,0.703-0.704,0.703h-46.819c-0.387,0-0.704-0.317-0.704-0.703
			v-26.057c0-0.387,0.317-0.703,0.704-0.703h46.819c0.387,0,0.704,0.317,0.704,0.703V1624.365z"/>
		<path fill="none" stroke="#989898" stroke-width="0.3794" stroke-linecap="round" stroke-linejoin="round" d="M2139.016,1624.365
			c0,0.387-0.317,0.703-0.704,0.703h-46.819c-0.387,0-0.704-0.317-0.704-0.703v-26.057c0-0.387,0.317-0.703,0.704-0.703h46.819
			c0.387,0,0.704,0.317,0.704,0.703V1624.365z"/>
	</g>
	<g>
		<linearGradient id="SVGID_7_" gradientUnits="userSpaceOnUse" x1="2114.9036" y1="1527.4989" x2="2114.9036" y2="1653.422">
			<stop  offset="0" style="stop-color:#D9D9D9"/>
			<stop  offset="1" style="stop-color:#C4C4C4"/>
		</linearGradient>
		<path fill="url(#SVGID_7_)" d="M2139.016,1591.406c0,0.387-0.317,0.703-0.704,0.703h-46.819c-0.387,0-0.704-0.317-0.704-0.703
			v-26.056c0-0.387,0.317-0.703,0.704-0.703h46.819c0.387,0,0.704,0.317,0.704,0.703V1591.406z"/>
		<path fill="none" stroke="#989898" stroke-width="0.3794" stroke-linecap="round" stroke-linejoin="round" d="M2139.016,1591.406
			c0,0.387-0.317,0.703-0.704,0.703h-46.819c-0.387,0-0.704-0.317-0.704-0.703v-26.056c0-0.387,0.317-0.703,0.704-0.703h46.819
			c0.387,0,0.704,0.317,0.704,0.703V1591.406z"/>
	</g>
	<g>
		<linearGradient id="SVGID_8_" gradientUnits="userSpaceOnUse" x1="2114.9036" y1="1527.4978" x2="2114.9036" y2="1653.4124">
			<stop  offset="0" style="stop-color:#D9D9D9"/>
			<stop  offset="1" style="stop-color:#C4C4C4"/>
		</linearGradient>
		<path fill="url(#SVGID_8_)" d="M2139.016,1558.876c0,0.387-0.317,0.703-0.704,0.703h-46.819c-0.387,0-0.704-0.317-0.704-0.703
			v-26.055c0-0.387,0.317-0.703,0.704-0.703h46.819c0.387,0,0.704,0.317,0.704,0.703V1558.876z"/>
		<path fill="none" stroke="#989898" stroke-width="0.3794" stroke-linecap="round" stroke-linejoin="round" d="M2139.016,1558.876
			c0,0.387-0.317,0.703-0.704,0.703h-46.819c-0.387,0-0.704-0.317-0.704-0.703v-26.055c0-0.387,0.317-0.703,0.704-0.703h46.819
			c0.387,0,0.704,0.317,0.704,0.703V1558.876z"/>
	</g>
	<g>
		<linearGradient id="SVGID_9_" gradientUnits="userSpaceOnUse" x1="2114.9036" y1="1527.4966" x2="2114.9036" y2="1653.4193">
			<stop  offset="0" style="stop-color:#D9D9D9"/>
			<stop  offset="1" style="stop-color:#C4C4C4"/>
		</linearGradient>
		<path fill="url(#SVGID_9_)" d="M2139.016,1526.284c0,0.387-0.317,0.703-0.704,0.703h-46.819c-0.387,0-0.704-0.317-0.704-0.703
			v-26.056c0-0.387,0.317-0.703,0.704-0.703h46.819c0.387,0,0.704,0.317,0.704,0.703V1526.284z"/>
		<path fill="none" stroke="#989898" stroke-width="0.3794" stroke-linecap="round" stroke-linejoin="round" d="M2139.016,1526.284
			c0,0.387-0.317,0.703-0.704,0.703h-46.819c-0.387,0-0.704-0.317-0.704-0.703v-26.056c0-0.387,0.317-0.703,0.704-0.703h46.819
			c0.387,0,0.704,0.317,0.704,0.703V1526.284z"/>
	</g>
	<g>
		<linearGradient id="SVGID_10_" gradientUnits="userSpaceOnUse" x1="2442.957" y1="1527.4941" x2="2442.957" y2="1653.4211">
			<stop  offset="0" style="stop-color:#D9D9D9"/>
			<stop  offset="1" style="stop-color:#C4C4C4"/>
		</linearGradient>
		<path fill="url(#SVGID_10_)" d="M2467.07,1624.365c0,0.387-0.316,0.703-0.703,0.703h-46.819c-0.387,0-0.703-0.317-0.703-0.703
			v-26.057c0-0.387,0.316-0.703,0.703-0.703h46.819c0.387,0,0.703,0.317,0.703,0.703V1624.365z"/>
		<path fill="none" stroke="#989898" stroke-width="0.3794" stroke-linecap="round" stroke-linejoin="round" d="M2467.07,1624.365
			c0,0.387-0.316,0.703-0.703,0.703h-46.819c-0.387,0-0.703-0.317-0.703-0.703v-26.057c0-0.387,0.316-0.703,0.703-0.703h46.819
			c0.387,0,0.703,0.317,0.703,0.703V1624.365z"/>
	</g>
	<g>
		<linearGradient id="SVGID_11_" gradientUnits="userSpaceOnUse" x1="2442.957" y1="1527.4989" x2="2442.957" y2="1653.422">
			<stop  offset="0" style="stop-color:#D9D9D9"/>
			<stop  offset="1" style="stop-color:#C4C4C4"/>
		</linearGradient>
		<path fill="url(#SVGID_11_)" d="M2467.07,1591.406c0,0.387-0.316,0.703-0.703,0.703h-46.819c-0.387,0-0.703-0.317-0.703-0.703
			v-26.056c0-0.387,0.316-0.703,0.703-0.703h46.819c0.387,0,0.703,0.317,0.703,0.703V1591.406z"/>
		<path fill="none" stroke="#989898" stroke-width="0.3794" stroke-linecap="round" stroke-linejoin="round" d="M2467.07,1591.406
			c0,0.387-0.316,0.703-0.703,0.703h-46.819c-0.387,0-0.703-0.317-0.703-0.703v-26.056c0-0.387,0.316-0.703,0.703-0.703h46.819
			c0.387,0,0.703,0.317,0.703,0.703V1591.406z"/>
	</g>
	<g>
		<linearGradient id="SVGID_12_" gradientUnits="userSpaceOnUse" x1="2442.957" y1="1527.4978" x2="2442.957" y2="1653.4124">
			<stop  offset="0" style="stop-color:#D9D9D9"/>
			<stop  offset="1" style="stop-color:#C4C4C4"/>
		</linearGradient>
		<path fill="url(#SVGID_12_)" d="M2467.07,1558.876c0,0.387-0.316,0.703-0.703,0.703h-46.819c-0.387,0-0.703-0.317-0.703-0.703
			v-26.055c0-0.387,0.316-0.703,0.703-0.703h46.819c0.387,0,0.703,0.317,0.703,0.703V1558.876z"/>
		<path fill="none" stroke="#989898" stroke-width="0.3794" stroke-linecap="round" stroke-linejoin="round" d="M2467.07,1558.876
			c0,0.387-0.316,0.703-0.703,0.703h-46.819c-0.387,0-0.703-0.317-0.703-0.703v-26.055c0-0.387,0.316-0.703,0.703-0.703h46.819
			c0.387,0,0.703,0.317,0.703,0.703V1558.876z"/>
	</g>
	<g>
		<linearGradient id="SVGID_13_" gradientUnits="userSpaceOnUse" x1="2442.957" y1="1527.4966" x2="2442.957" y2="1653.4193">
			<stop  offset="0" style="stop-color:#D9D9D9"/>
			<stop  offset="1" style="stop-color:#C4C4C4"/>
		</linearGradient>
		<path fill="url(#SVGID_13_)" d="M2467.07,1526.284c0,0.387-0.316,0.703-0.703,0.703h-46.819c-0.387,0-0.703-0.317-0.703-0.703
			v-26.056c0-0.387,0.316-0.703,0.703-0.703h46.819c0.387,0,0.703,0.317,0.703,0.703V1526.284z"/>
		<path fill="none" stroke="#989898" stroke-width="0.3794" stroke-linecap="round" stroke-linejoin="round" d="M2467.07,1526.284
			c0,0.387-0.316,0.703-0.703,0.703h-46.819c-0.387,0-0.703-0.317-0.703-0.703v-26.056c0-0.387,0.316-0.703,0.703-0.703h46.819
			c0.387,0,0.703,0.317,0.703,0.703V1526.284z"/>
	</g>
	<g>
		<linearGradient id="SVGID_14_" gradientUnits="userSpaceOnUse" x1="2771.0107" y1="1527.4941" x2="2771.0107" y2="1653.4211">
			<stop  offset="0" style="stop-color:#D9D9D9"/>
			<stop  offset="1" style="stop-color:#C4C4C4"/>
		</linearGradient>
		<path fill="url(#SVGID_14_)" d="M2795.124,1624.365c0,0.387-0.317,0.703-0.704,0.703h-46.819c-0.387,0-0.704-0.317-0.704-0.703
			v-26.057c0-0.387,0.317-0.703,0.704-0.703h46.819c0.387,0,0.704,0.317,0.704,0.703V1624.365z"/>
		<path fill="none" stroke="#989898" stroke-width="0.3794" stroke-linecap="round" stroke-linejoin="round" d="M2795.124,1624.365
			c0,0.387-0.317,0.703-0.704,0.703h-46.819c-0.387,0-0.704-0.317-0.704-0.703v-26.057c0-0.387,0.317-0.703,0.704-0.703h46.819
			c0.387,0,0.704,0.317,0.704,0.703V1624.365z"/>
	</g>
	<g>
		<linearGradient id="SVGID_15_" gradientUnits="userSpaceOnUse" x1="2771.0107" y1="1527.4989" x2="2771.0107" y2="1653.422">
			<stop  offset="0" style="stop-color:#D9D9D9"/>
			<stop  offset="1" style="stop-color:#C4C4C4"/>
		</linearGradient>
		<path fill="url(#SVGID_15_)" d="M2795.124,1591.406c0,0.387-0.317,0.703-0.704,0.703h-46.819c-0.387,0-0.704-0.317-0.704-0.703
			v-26.056c0-0.387,0.317-0.703,0.704-0.703h46.819c0.387,0,0.704,0.317,0.704,0.703V1591.406z"/>
		<path fill="none" stroke="#989898" stroke-width="0.3794" stroke-linecap="round" stroke-linejoin="round" d="M2795.124,1591.406
			c0,0.387-0.317,0.703-0.704,0.703h-46.819c-0.387,0-0.704-0.317-0.704-0.703v-26.056c0-0.387,0.317-0.703,0.704-0.703h46.819
			c0.387,0,0.704,0.317,0.704,0.703V1591.406z"/>
	</g>
	<g>
		<linearGradient id="SVGID_16_" gradientUnits="userSpaceOnUse" x1="2771.0107" y1="1527.4978" x2="2771.0107" y2="1653.4124">
			<stop  offset="0" style="stop-color:#D9D9D9"/>
			<stop  offset="1" style="stop-color:#C4C4C4"/>
		</linearGradient>
		<path fill="url(#SVGID_16_)" d="M2795.124,1558.876c0,0.387-0.317,0.703-0.704,0.703h-46.819c-0.387,0-0.704-0.317-0.704-0.703
			v-26.055c0-0.387,0.317-0.703,0.704-0.703h46.819c0.387,0,0.704,0.317,0.704,0.703V1558.876z"/>
		<path fill="none" stroke="#989898" stroke-width="0.3794" stroke-linecap="round" stroke-linejoin="round" d="M2795.124,1558.876
			c0,0.387-0.317,0.703-0.704,0.703h-46.819c-0.387,0-0.704-0.317-0.704-0.703v-26.055c0-0.387,0.317-0.703,0.704-0.703h46.819
			c0.387,0,0.704,0.317,0.704,0.703V1558.876z"/>
	</g>
	<g>
		<linearGradient id="SVGID_17_" gradientUnits="userSpaceOnUse" x1="2771.0107" y1="1527.4966" x2="2771.0107" y2="1653.4193">
			<stop  offset="0" style="stop-color:#D9D9D9"/>
			<stop  offset="1" style="stop-color:#C4C4C4"/>
		</linearGradient>
		<path fill="url(#SVGID_17_)" d="M2795.124,1526.284c0,0.387-0.317,0.703-0.704,0.703h-46.819c-0.387,0-0.704-0.317-0.704-0.703
			v-26.056c0-0.387,0.317-0.703,0.704-0.703h46.819c0.387,0,0.704,0.317,0.704,0.703V1526.284z"/>
		<path fill="none" stroke="#989898" stroke-width="0.3794" stroke-linecap="round" stroke-linejoin="round" d="M2795.124,1526.284
			c0,0.387-0.317,0.703-0.704,0.703h-46.819c-0.387,0-0.704-0.317-0.704-0.703v-26.056c0-0.387,0.317-0.703,0.704-0.703h46.819
			c0.387,0,0.704,0.317,0.704,0.703V1526.284z"/>
	</g>
	<g>
		<rect x="3323.187" y="1233.141" fill="#FFFFFF" width="249.243" height="785.979"/>
		<g>
			<polyline fill="none" stroke="#ED1C24" stroke-width="5" stroke-miterlimit="10" points="3323.187,1239.141 3323.187,1233.141
				3329.187,1233.141 			"/>

				<line fill="none" stroke="#ED1C24" stroke-width="5" stroke-miterlimit="10" stroke-dasharray="12.4865,12.4865" x1="3341.674" y1="1233.141" x2="3560.187" y2="1233.141"/>
			<polyline fill="none" stroke="#ED1C24" stroke-width="5" stroke-miterlimit="10" points="3566.43,1233.141 3572.43,1233.141
				3572.43,1239.141 			"/>

				<line fill="none" stroke="#ED1C24" stroke-width="5" stroke-miterlimit="10" stroke-dasharray="11.9074,11.9074" x1="3572.43" y1="1251.048" x2="3572.43" y2="2007.166"/>
			<polyline fill="none" stroke="#ED1C24" stroke-width="5" stroke-miterlimit="10" points="3572.43,2013.12 3572.43,2019.12
				3566.43,2019.12 			"/>

				<line fill="none" stroke="#ED1C24" stroke-width="5" stroke-miterlimit="10" stroke-dasharray="12.4865,12.4865" x1="3553.944" y1="2019.12" x2="3335.43" y2="2019.12"/>
			<polyline fill="none" stroke="#ED1C24" stroke-width="5" stroke-miterlimit="10" points="3329.187,2019.12 3323.187,2019.12
				3323.187,2013.12 			"/>

				<line fill="none" stroke="#ED1C24" stroke-width="5" stroke-miterlimit="10" stroke-dasharray="11.9074,11.9074" x1="3323.187" y1="2001.212" x2="3323.187" y2="1245.094"/>
		</g>
	</g>
	<g>
		<rect x="3006.764" y="1154.204" fill="#FFFFFF" width="249.243" height="113.496"/>
		<g>
			<polyline fill="none" stroke="#ED1C24" stroke-width="5" stroke-miterlimit="10" points="3006.764,1160.205 3006.764,1154.205
				3012.764,1154.205 			"/>

				<line fill="none" stroke="#ED1C24" stroke-width="5" stroke-miterlimit="10" stroke-dasharray="12.4865,12.4865" x1="3025.25" y1="1154.205" x2="3243.764" y2="1154.205"/>
			<polyline fill="none" stroke="#ED1C24" stroke-width="5" stroke-miterlimit="10" points="3250.007,1154.205 3256.007,1154.205
				3256.007,1160.205 			"/>

				<line fill="none" stroke="#ED1C24" stroke-width="5" stroke-miterlimit="10" stroke-dasharray="11.2773,11.2773" x1="3256.007" y1="1171.482" x2="3256.007" y2="1256.062"/>
			<polyline fill="none" stroke="#ED1C24" stroke-width="5" stroke-miterlimit="10" points="3256.007,1261.701 3256.007,1267.701
				3250.007,1267.701 			"/>

				<line fill="none" stroke="#ED1C24" stroke-width="5" stroke-miterlimit="10" stroke-dasharray="12.4865,12.4865" x1="3237.521" y1="1267.701" x2="3019.007" y2="1267.701"/>
			<polyline fill="none" stroke="#ED1C24" stroke-width="5" stroke-miterlimit="10" points="3012.764,1267.701 3006.764,1267.701
				3006.764,1261.701 			"/>

				<line fill="none" stroke="#ED1C24" stroke-width="5" stroke-miterlimit="10" stroke-dasharray="11.2773,11.2773" x1="3006.764" y1="1250.423" x2="3006.764" y2="1165.843"/>
		</g>
	</g>

		<rect x="3002.179" y="1299.781" fill="#FFFFFF" stroke="#000000" stroke-width="2" stroke-miterlimit="10" width="258.412" height="712.7"/>
	<g id="_x37_.13_1_">
		<rect x="1249.957" y="1502.285" fill="#FFFFFF" width="114.538" height="93.713"/>
		<g>
			<polyline fill="none" stroke="#ED1C24" stroke-width="5" stroke-miterlimit="10" points="1249.957,1508.285 1249.957,1502.285
				1255.957,1502.285 			"/>

				<line fill="none" stroke="#ED1C24" stroke-width="5" stroke-miterlimit="10" stroke-dasharray="11.3931,11.3931" x1="1267.35" y1="1502.285" x2="1352.799" y2="1502.285"/>
			<polyline fill="none" stroke="#ED1C24" stroke-width="5" stroke-miterlimit="10" points="1358.495,1502.285 1364.495,1502.285
				1364.495,1508.285 			"/>

				<line fill="none" stroke="#ED1C24" stroke-width="5" stroke-miterlimit="10" stroke-dasharray="11.6733,11.6733" x1="1364.495" y1="1519.958" x2="1364.495" y2="1584.162"/>
			<polyline fill="none" stroke="#ED1C24" stroke-width="5" stroke-miterlimit="10" points="1364.495,1589.999 1364.495,1595.999
				1358.495,1595.999 			"/>

				<line fill="none" stroke="#ED1C24" stroke-width="5" stroke-miterlimit="10" stroke-dasharray="11.3931,11.3931" x1="1347.102" y1="1595.999" x2="1261.654" y2="1595.999"/>
			<polyline fill="none" stroke="#ED1C24" stroke-width="5" stroke-miterlimit="10" points="1255.957,1595.999 1249.957,1595.999
				1249.957,1589.999 			"/>

				<line fill="none" stroke="#ED1C24" stroke-width="5" stroke-miterlimit="10" stroke-dasharray="11.6733,11.6733" x1="1249.957" y1="1578.325" x2="1249.957" y2="1514.122"/>
		</g>
	</g>
	<g>
		<g>
			<g>
				<polygon fill="#231F20" points="1314.083,1634.182 1306.761,1630.846 1299.276,1633.8 1307.133,1616.44 				"/>
			</g>
		</g>

			<line fill="none" stroke="#231F20" stroke-width="2" stroke-miterlimit="10" x1="1306.824" y1="1651.056" x2="1306.824" y2="1628.376"/>
	</g>
	<text transform="matrix(1 0 0 1 738.9279 684.8035)" fill="#58595B" font-family="'Helvetica'" font-size="29px">Lunch/Dinner</text>
	<text transform="matrix(1 0 0 1 738.9279 191.7534)" fill="#58595B" font-family="'Helvetica'" font-size="29px">Breakfast</text>
	<text transform="matrix(1 0 0 1 2960.1067 128.9894)" font-family="'Helvetica'" font-size="63px">MB2K Counter Zone</text>
</g>
<g id="Interactive">
	<rect id="_x36_.30_1_" x="1509.911" y="989.209" fill="none" width="736.757" height="56.374"/>
	<rect id="_x36_.27" x="1054.554" y="749.261" fill="none" width="268.007" height="268.006"/>
	<rect id="_x36_.35" x="2738.646" y="931.907" fill="none" width="268.007" height="85.359"/>
	<g id="_x36_.37">
	</g>
	<rect id="_x36_.19" x="743.44" y="254.975" fill="none" width="268.007" height="268.006"/>
	<rect id="_x36_.26" x="743.44" y="749.261" fill="none" width="268.007" height="268.006"/>
	<rect id="_x36_.25_1_" x="1509.911" y="494.923" fill="none" width="736.757" height="56.374"/>
	<rect id="_x36_.20" x="1054.554" y="254.975" fill="none" width="268.007" height="268.006"/>
	<rect id="_x36_.22" x="2427.532" y="254.974" fill="none" width="268.007" height="268.006"/>
	<rect id="_x36_.21" x="2738.646" y="254.974" fill="none" width="268.007" height="268.006"/>
	<rect id="_x36_.1" x="150.231" y="721.687" fill="none" width="459" height="288"/>
	<rect id="_x36_.31_1_" x="2427.532" y="749.261" fill="none" width="268.007" height="85.275"/>
	<rect id="_x36_.32" x="2427.532" y="842.6" fill="none" width="268.007" height="81.243"/>
	<rect id="_x36_.33_1_" x="2427.532" y="931.907" fill="none" width="268.007" height="85.275"/>
	<rect id="_x36_.17" x="743.44" y="1058.7" fill="none" width="268.007" height="65.011"/>
	<g id="_x36_.16">
		<rect x="1878.925" y="1883.509" fill="none" width="174.009" height="183.918"/>
	</g>
	<g id="_x36_.15">
		<rect x="1220.222" y="1398.733" fill="none" width="174.009" height="214.737"/>
	</g>
	<rect id="_x36_.14" x="113.198" y="1459.564" fill="none" width="257.062" height="198.381"/>
	<rect id="_x36_.18" x="113.198" y="1710.165" fill="none" width="257.062" height="346.314"/>
	<g id="_x36_.36">
		<rect x="1249.957" y="1502.285" fill="none" width="114.538" height="93.713"/>
	</g>
	<g id="_x36_.13">
		<rect x="3006.764" y="1154.204" fill="none" width="249.243" height="113.496"/>
	</g>
	<g id="_x36_.12">
		<rect x="3323.187" y="1233.141" fill="none" width="249.243" height="785.979"/>
	</g>
	<g id="_x36_.11">
		<rect x="3002.179" y="1299.781" fill="none" width="258.412" height="712.7"/>
	</g>
	<g id="_x36_.10">
		<rect x="2739.278" y="1449.47" fill="none" width="64.102" height="42.887"/>
	</g>
	<g id="_x36_.9">
		<rect x="2411.224" y="1449.47" fill="none" width="64.102" height="42.887"/>
	</g>
	<g id="_x36_.8">
		<rect x="2083.171" y="1449.47" fill="none" width="64.102" height="42.887"/>
	</g>
	<g id="_x36_.5">
		<rect x="1926.122" y="1516.335" fill="none" width="119.341" height="95.499"/>
	</g>
	<g id="_x36_.6">
		<rect x="2254.176" y="1516.335" fill="none" width="119.341" height="95.499"/>
	</g>
	<g id="_x36_.7">
		<rect x="2582.23" y="1516.335" fill="none" width="119.341" height="95.499"/>
	</g>
	<g id="_x36_.4">
		<rect x="442.479" y="1663.382" fill="none" width="666.108" height="72.074"/>
	</g>
	<g id="_x36_.3">
		<rect x="936.06" y="1434.739" fill="none" width="143.879" height="190.27"/>
	</g>
	<g id="_x36_.2">
		<rect x="760.155" y="1434.739" fill="none" width="143.879" height="190.27"/>
	</g>
	<g id="EVMs">
		<rect x="1394.369" y="714.209" fill="none" width="116.579" height="262"/>
		<rect x="1515.988" y="714.209" fill="none" width="116.579" height="262"/>
		<rect x="1637.607" y="714.209" fill="none" width="116.579" height="262"/>
		<rect x="1759.227" y="714.209" fill="none" width="116.579" height="262"/>
		<rect x="1880.846" y="714.209" fill="none" width="116.579" height="262"/>
		<rect x="2002.465" y="714.209" fill="none" width="116.579" height="262"/>
		<rect x="2124.084" y="714.209" fill="none" width="116.579" height="262"/>
		<rect x="2245.704" y="714.209" fill="none" width="116.579" height="262"/>
	</g>
	<g id="BVMs">
		<rect x="1394.369" y="219.923" fill="none" width="116.579" height="129.083"/>
		<rect x="1515.991" y="219.923" fill="none" width="116.579" height="129.083"/>
		<rect x="1637.614" y="219.923" fill="none" width="116.579" height="129.083"/>
		<rect x="1759.236" y="219.923" fill="none" width="116.579" height="129.083"/>
		<rect x="1880.859" y="219.923" fill="none" width="116.579" height="129.083"/>
		<rect x="2002.482" y="219.923" fill="none" width="116.579" height="129.083"/>
		<rect x="2124.104" y="219.923" fill="none" width="116.579" height="129.083"/>
		<rect x="2245.727" y="219.923" fill="none" width="116.579" height="129.083"/>
		<rect x="1394.369" y="352.842" fill="none" width="116.579" height="129.083"/>
		<rect x="1515.991" y="352.842" fill="none" width="116.579" height="129.083"/>
		<rect x="1637.614" y="352.842" fill="none" width="116.579" height="129.083"/>
		<rect x="1759.236" y="352.842" fill="none" width="116.579" height="129.083"/>
		<rect x="1880.859" y="352.842" fill="none" width="116.579" height="129.083"/>
		<rect x="2002.482" y="352.842" fill="none" width="116.579" height="129.083"/>
		<rect x="2124.104" y="352.842" fill="none" width="116.579" height="129.083"/>
		<rect x="2245.727" y="352.842" fill="none" width="116.579" height="129.083"/>
	</g>
	<rect id="_x36_.23_2_" x="3054.071" y="254.976" fill="none" width="406.545" height="267.948"/>
	<rect id="_x36_.28_2_" x="3054.071" y="749.261" fill="none" width="406.545" height="267.948"/>
	<rect id="_x36_.34_1_" x="2738.646" y="749.261" fill="none" width="267.847" height="175.584"/>
</g>
<g id="Text_Labels">
	<text transform="matrix(1 0 0 1 257.2376 1066.8417)" fill="#58595B" font-family="'Helvetica'" font-size="29px">McCafe DMB Loop</text>
	<text transform="matrix(1 0 0 1 814.18 1154.2047)" fill="#58595B" font-family="'Helvetica'" font-size="29px">IS Lug-On</text>
	<text transform="matrix(1 0 0 1 1886.1442 1866.1139)" fill="#58595B" font-family="'Helvetica'" font-size="29px">Counter Mat</text>

		<text id="Counter_Card" transform="matrix(1 0 0 1 1219.637 1385.5983)" fill="#58595B" font-family="'Helvetica'" font-size="29px">Counter Card</text>
	<text transform="matrix(1 0 0 1 173.9209 1445.9419)" fill="#58595B" font-family="'Helvetica'" font-size="29px">Bag Stuffer</text>
	<text transform="matrix(1 0 0 1 166.6919 2090.8162)" fill="#58595B" font-family="'Helvetica'" font-size="29px">Crew Poster</text>
	<text id="Counter_Card_1_" transform="matrix(1 0 0 1 1220.6448 1670.2401)"><tspan x="0" y="0" fill="#58595B" font-family="'Helvetica'" font-size="29px">Counter Card</tspan><tspan x="27.4" y="30.307" fill="#58595B" font-family="'Helvetica'" font-size="29px">Tear Pad</tspan></text>
	<text transform="matrix(1 0 0 1 3044.3425 1133.209)" fill="#58595B" font-family="'Helvetica'" font-size="29px">Kiosk Header</text>
	<text transform="matrix(1 0 0 1 3368.2617 2056.4639)"><tspan x="0" y="0" fill="#58595B" font-family="'Helvetica'" font-size="29px">Presell Kiosk  </tspan><tspan x="10.465" y="30.307" fill="#58595B" font-family="'Helvetica'" font-size="29px">with Header</tspan></text>

		<text id="Pre-Sell_Kiosk_1_" transform="matrix(1 0 0 1 3045.2905 2059.3628)" fill="#58595B" font-family="'Helvetica'" font-size="29px">Pre-Sell Kiosk</text>
	<text transform="matrix(1 0 0 1 2421.8315 1688.877)" fill="#58595B" font-family="'Helvetica'" font-size="29px">Arch Card Display Insert (3)</text>
	<text transform="matrix(1 0 0 1 1885.9644 1688.877)" fill="#58595B" font-family="'Helvetica'" font-size="29px">Register Toppers (3)</text>
	<text transform="matrix(1 0 0 1 585.9874 1788.756)" fill="#58595B" font-family="'Helvetica'" font-size="29px">McCafe Cell Wall Graphic</text>
	<text transform="matrix(1 0 0 1 916.561 1375.2365)"><tspan x="0" y="0" fill="#58595B" font-family="'Helvetica'" font-size="29px">McCafe</tspan><tspan x="0" y="30.307" fill="#58595B" font-family="'Helvetica'" font-size="29px">Louvre Posters</tspan></text>
</g>
</svg>
