<?xml version="1.0" encoding="utf-8"?>
<!-- Generator: Adobe Illustrator 19.1.0, SVG Export Plug-In . SVG Version: 6.00 Build 0)  -->
<svg version="1.1" xmlns="http://www.w3.org/2000/svg" xmlns:xlink="http://www.w3.org/1999/xlink" x="0px" y="0px"
	 viewBox="0 0 3672.37 2376.24" enable-background="new 0 0 3672.37 2376.24" xml:space="preserve">
<g id="Background">
	<rect x="129.351" y="1042.431" fill="#5F6062" width="250.848" height="8.636"/>
	<rect x="129.351" y="1042.431" fill="none" width="250.848" height="8.636"/>
	<rect x="129.351" y="1495.488" fill="#5F6062" width="250.848" height="8.636"/>
	<rect x="129.351" y="1495.488" fill="none" width="250.848" height="8.636"/>
	<path fill="#A1CE8E" stroke="#8F9BA1" stroke-width="1.649" d="M3241.15,1906.958c0,33.441-27.109,41.219-60.556,41.219
		l-1327.158,57.459l-1347.727-57.459c-33.444,0-60.552-7.778-60.552-41.219v-10.377c0-33.441,159.916-120.495,193.359-120.495
		l2420.875-1.933c33.445,0,181.759,88.987,181.759,122.428V1906.958z"/>
	<path fill="#92BC81" d="M620.967,1780.067c24.54-7.424,291.18,9.867,384.95,9.867c99.871,0,184.374,30.839,301.049,52.603
		c123.38,23.015,261.566,36.164,429.363,16.437c167.798-19.721,276.373-26.298,417.023-16.437
		c140.659,9.866,192.9-45.873,513.27-16.435c357.8,32.873,300.481-26.359,413.922-15.301c89.471,8.724,49.989,35.024-4.303,51.461
		c-123.099,37.279-367.671,36.166-451.57,46.031c-83.897,9.866-281.307-3.286-308.453-13.151
		c-27.141-9.859-229.167,12.073-278.842,32.876c-49.667,20.807-207.273,13.155-325.722,0
		c-118.442-13.145-199.877,26.302-352.869,6.582c-144.984-18.697-172.574-48.938-291.177-52.611
		c-106.108-3.288-220.444,16.285-286.242,13.153C435.897,1878.701,566.68,1796.51,620.967,1780.067"/>
	<polygon fill="#E5F5F9" stroke="#8F9BA1" stroke-miterlimit="10" points="1421.511,683.827 779.121,683.827 779.121,480.251 
		1421.511,376.469 	"/>
	<polygon fill="#E5F5F9" stroke="#8F9BA1" stroke-miterlimit="10" points="2308.302,683.827 2950.693,683.827 2950.693,480.251 
		2308.302,376.469 	"/>
	<polygon fill="none" stroke="#8F9BA1" stroke-width="0.225" points="2308.302,683.827 2950.693,683.827 2950.693,480.251 
		2308.302,376.469 	"/>
	<polygon fill="#E5F5F9" stroke="#8F9BA1" stroke-miterlimit="10" points="1652.366,683.827 2294.757,683.827 2294.757,480.251 
		1652.366,376.469 	"/>
	<polygon fill="none" stroke="#8F9BA1" stroke-width="0.225" points="1652.366,683.827 2294.757,683.827 2294.757,480.251 
		1652.366,376.469 	"/>
	<polygon fill="#E5F5F9" stroke="#8F9BA1" stroke-miterlimit="10" points="1654.913,683.827 1012.525,683.827 1012.525,480.251 
		1654.913,376.469 	"/>
	<polyline fill="#F2F1EA" stroke="#8F9BA1" points="632.042,1833.945 632.042,693.166 2996.484,693.166 2996.484,1833.945 	"/>
	<rect x="997.804" y="439.677" fill="#F6F6F6" stroke="#8F9BA1" width="38.593" height="236.987"/>
	<rect x="1641.943" y="439.677" fill="#F6F6F6" stroke="#8F9BA1" width="38.593" height="236.987"/>
	<rect x="2283.203" y="439.677" fill="#F6F6F6" stroke="#8F9BA1" width="38.593" height="236.987"/>
	<rect x="744.455" y="517.49" fill="#F6F6F6" stroke="#8F9BA1" width="64.318" height="159.174"/>
	<rect x="639.306" y="672.778" fill="#F6F6F6" stroke="#8F9BA1" width="2410.763" height="20.388"/>
	<rect x="619.039" y="1834.274" fill="#F6F6F6" stroke="#8F9BA1" stroke-miterlimit="10" width="2394.768" height="20.391"/>
	<radialGradient id="SVGID_1_" cx="1829.0122" cy="514.7198" r="942.3298" gradientUnits="userSpaceOnUse">
		<stop  offset="0" style="stop-color:#FED208"/>
		<stop  offset="0.2198" style="stop-color:#FED208"/>
		<stop  offset="0.328" style="stop-color:#FECE0A"/>
		<stop  offset="1" style="stop-color:#FDB714"/>
	</radialGradient>
	<path fill="url(#SVGID_1_)" d="M507.877,533.753c0.534,20.443,1.547,36.714,3.63,58.718
		C1366.83,362.04,2317.54,401.585,3149.473,689.569c0-58.856,0-100.942,0.675-157.911c-428.829-127.847-875.2-191.8-1320.74-191.789
		C1381.685,339.882,934.802,404.485,507.877,533.753"/>
	<linearGradient id="SVGID_2_" gradientUnits="userSpaceOnUse" x1="442.9022" y1="1965.6227" x2="3243.4893" y2="1965.6227">
		<stop  offset="0" style="stop-color:#F6F1D5"/>
		<stop  offset="0.5" style="stop-color:#F5EBA4"/>
		<stop  offset="1" style="stop-color:#EDE4A8"/>
	</linearGradient>
	<path fill="url(#SVGID_2_)" stroke="#8F9BA1" d="M442.902,1894.405v65.371c930.702,102.753,1869.891,102.753,2800.587,0v-65.371
		C2312.793,1997.161,1373.604,1997.161,442.902,1894.405"/>
	<g>
		<rect x="129.351" y="1042.431" fill="#5F6062" width="250.848" height="8.636"/>
	</g>
	<g>
		<rect x="129.351" y="1495.488" fill="none" stroke="#FFFFFF" stroke-width="0.588" width="250.848" height="8.636"/>
	</g>
	<polygon fill="#939598" points="76.911,697.908 68.945,718.747 86.203,738.705 376.889,738.705 376.889,697.908 	"/>
	<linearGradient id="SVGID_3_" gradientUnits="userSpaceOnUse" x1="68.9446" y1="728.7259" x2="376.8886" y2="728.7259">
		<stop  offset="0" style="stop-color:#717375"/>
		<stop  offset="0.0337" style="stop-color:#717375"/>
		<stop  offset="1" style="stop-color:#8C8E90"/>
	</linearGradient>
	<polygon fill="url(#SVGID_3_)" points="68.945,718.747 77.407,738.705 376.889,738.705 376.889,718.747 	"/>
	
		<linearGradient id="SVGID_4_" gradientUnits="userSpaceOnUse" x1="0.0126" y1="2376.167" x2="0.9542" y2="2376.167" gradientTransform="matrix(-1.766000e-04 4039.3711 4039.3711 1.766000e-04 -9597823 312.5074)">
		<stop  offset="0" style="stop-color:#717375"/>
		<stop  offset="0.0337" style="stop-color:#717375"/>
		<stop  offset="0.2403" style="stop-color:#8A8C8E"/>
		<stop  offset="0.6777" style="stop-color:#CBCCCD"/>
		<stop  offset="1" style="stop-color:#FFFFFF"/>
	</linearGradient>
	<rect x="376.889" y="697.908" fill="url(#SVGID_4_)" width="40.601" height="1258.013"/>
	
		<linearGradient id="SVGID_5_" gradientUnits="userSpaceOnUse" x1="0.0126" y1="2376.1694" x2="0.9542" y2="2376.1694" gradientTransform="matrix(-1.766000e-04 -4039.3711 4039.3711 -1.766000e-04 -9597823 2341.322)">
		<stop  offset="0" style="stop-color:#717375"/>
		<stop  offset="0.0337" style="stop-color:#717375"/>
		<stop  offset="0.2403" style="stop-color:#8A8C8E"/>
		<stop  offset="0.6777" style="stop-color:#CBCCCD"/>
		<stop  offset="1" style="stop-color:#FFFFFF"/>
	</linearGradient>
	<rect x="396.535" y="697.908" fill="url(#SVGID_5_)" width="21.199" height="1258.013"/>
	<rect x="147.007" y="1031.507" fill="#F2F2F3" stroke="#8F9BA1" width="211.819" height="481.104"/>
	<path fill="#AA002F" stroke="#002616" stroke-miterlimit="10" d="M3288.35,1776.53L3275,1746.775l-29.758,13.342l14.265,5.431
		c-11.974,21.976-32.132,35.025-54.582,35.099c-0.063,0-0.126,0-0.19,0c-22.003,0-41.739-12.474-53.485-33.586l14.236-5.447
		l-29.779-13.294l-13.301,29.776l14.538-5.562c7.045,13.375,16.941,24.359,28.744,31.854c11.797,7.491,25.294,11.446,39.053,11.446
		c0.078,0,0.157,0,0.235,0c28.766-0.094,54.332-16.809,68.836-44.839L3288.35,1776.53z"/>
	<rect x="1110.349" y="1666.833" fill="#999B9E" width="41.152" height="230.698"/>
	<rect x="1110.349" y="1666.833" fill="#545456" width="19.535" height="230.698"/>
	<path fill="none" d="M981.58,847.612c-1.608,0-2.925,1.34-2.925,2.977v845.404c0,1.639,1.317,2.975,2.925,2.975h300.22
		c1.608,0,2.923-1.337,2.923-2.975V850.589c0-1.637-1.315-2.977-2.923-2.977H981.58z"/>
	<g>
		<linearGradient id="SVGID_6_" gradientUnits="userSpaceOnUse" x1="1131.6899" y1="1631.4637" x2="1131.6899" y2="651.5542">
			<stop  offset="0" style="stop-color:#717375"/>
			<stop  offset="0.0337" style="stop-color:#717375"/>
			<stop  offset="0.2403" style="stop-color:#8A8C8E"/>
			<stop  offset="0.6777" style="stop-color:#CBCCCD"/>
			<stop  offset="1" style="stop-color:#FFFFFF"/>
		</linearGradient>
		<path fill="url(#SVGID_6_)" stroke="#231F20" d="M1284.724,1695.993c0,1.637-1.315,2.975-2.925,2.975h-300.22
			c-1.608,0-2.923-1.339-2.923-2.975V850.59c0-1.639,1.315-2.979,2.923-2.979h300.22c1.61,0,2.925,1.34,2.925,2.979V1695.993z"/>
	</g>
	<rect x="989.637" y="858.56" fill="#FFFFFF" width="284.105" height="829.459"/>
	<g>
		<path fill="#5F856A" d="M1973.181,1894.74c11.513-0.562,22.479-0.508,32.315,0.061c9.106-1.405,19.672-2.469,30.995-3.023
			c35.284-1.698,64.53,2.206,65.332,8.729c0.784,6.388-25.928,12.897-60.111,14.787c-11.576,5.855-35.931,10.655-64.525,12.039
			c-40.714,1.978-74.611-3.727-75.72-12.718C1900.365,1905.603,1932.469,1896.708,1973.181,1894.74z"/>
		<g>
			
				<radialGradient id="SVGID_7_" cx="2226.6858" cy="1826.5692" r="60.6124" gradientTransform="matrix(-1.1377 0 0 1.2033 4549.1157 -372.2499)" gradientUnits="userSpaceOnUse">
				<stop  offset="0" style="stop-color:#A8CA4C"/>
				<stop  offset="0.2186" style="stop-color:#8CAF44"/>
				<stop  offset="0.687" style="stop-color:#466C2F"/>
				<stop  offset="1" style="stop-color:#143C20"/>
			</radialGradient>
			<path fill="url(#SVGID_7_)" d="M2096.513,1866.375c0-18.732-52.637-34.083-52.245-33.924c0.385,0.15-52.253,15.192-52.253,33.924
				c0,18.741,23.399,33.937,52.253,33.937C2073.124,1900.312,2096.513,1885.116,2096.513,1866.375z"/>
			<g>
				
					<radialGradient id="SVGID_8_" cx="2279.4695" cy="1753.3062" r="66.6486" gradientTransform="matrix(-1.1377 0 0 1.2997 4549.1182 -497.2713)" gradientUnits="userSpaceOnUse">
					<stop  offset="0" style="stop-color:#A8CA4C"/>
					<stop  offset="0.2186" style="stop-color:#8CAF44"/>
					<stop  offset="0.687" style="stop-color:#466C2F"/>
					<stop  offset="1" style="stop-color:#143C20"/>
				</radialGradient>
				<path fill="url(#SVGID_8_)" d="M1927.166,1829.289c0,22.009,28.109,39.861,62.781,39.861c34.677,0,62.793-17.851,62.793-39.861
					c0-22.003-28.116-39.842-62.793-39.842C1955.275,1789.447,1927.166,1807.286,1927.166,1829.289z"/>
			</g>
			
				<radialGradient id="SVGID_9_" cx="2297.1858" cy="1823.3073" r="83.0169" gradientTransform="matrix(-1.1377 0 0 1.2033 4549.1157 -372.2499)" gradientUnits="userSpaceOnUse">
				<stop  offset="0" style="stop-color:#A8CA4C"/>
				<stop  offset="0.2186" style="stop-color:#8CAF44"/>
				<stop  offset="0.687" style="stop-color:#466C2F"/>
				<stop  offset="1" style="stop-color:#143C20"/>
			</radialGradient>
			<path fill="url(#SVGID_9_)" d="M2046.128,1877.508c0-25.667-72.087-46.68-71.556-46.471c0.534,0.216-71.558,20.805-71.558,46.471
				c0,25.671,32.035,46.474,71.558,46.474C2014.094,1923.982,2046.128,1903.178,2046.128,1877.508z"/>
			<g opacity="0.5">
				<path fill="#CBEAED" d="M2096.513,1866.375c0-18.732-52.637-34.083-52.245-33.924c0.385,0.15-52.253,15.192-52.253,33.924
					c0,18.741,23.399,33.937,52.253,33.937C2073.124,1900.312,2096.513,1885.116,2096.513,1866.375z"/>
				<g>
					<path fill="#CBEAED" d="M1927.166,1829.289c0,22.009,28.109,39.861,62.781,39.861c34.677,0,62.793-17.851,62.793-39.861
						c0-22.003-28.116-39.842-62.793-39.842C1955.275,1789.447,1927.166,1807.286,1927.166,1829.289z"/>
				</g>
				<path fill="#CBEAED" d="M2046.128,1877.508c0-25.667-72.087-46.68-71.556-46.471c0.534,0.216-71.558,20.805-71.558,46.471
					c0,25.671,32.035,46.474,71.558,46.474C2014.094,1923.982,2046.128,1903.178,2046.128,1877.508z"/>
			</g>
		</g>
	</g>
	<g>
		<path fill="#5F856A" d="M591.968,1882.981c-7.411-0.316-14.471-0.286-20.803,0.035c-5.862-0.791-12.664-1.391-19.953-1.703
			c-22.714-0.956-41.541,1.243-42.057,4.918c-0.505,3.599,16.691,7.266,38.696,8.331c7.452,3.298,23.13,6.003,41.538,6.783
			c26.209,1.114,48.031-2.1,48.745-7.165C638.843,1889.101,618.176,1884.089,591.968,1882.981z"/>
		<g>
			
				<radialGradient id="SVGID_10_" cx="3460.9722" cy="1846.5286" r="25.7878" gradientTransform="matrix(1.7214 0 0 1.5934 -5393.3306 -1098.1975)" gradientUnits="userSpaceOnUse">
				<stop  offset="0" style="stop-color:#A8CA4C"/>
				<stop  offset="0.2186" style="stop-color:#8CAF44"/>
				<stop  offset="0.687" style="stop-color:#466C2F"/>
				<stop  offset="1" style="stop-color:#143C20"/>
			</radialGradient>
			<path fill="url(#SVGID_10_)" d="M512.574,1867c0-10.553,33.885-19.202,33.633-19.112c-0.248,0.084,33.638,8.559,33.638,19.112
				c0,10.558-15.063,19.12-33.638,19.12C527.63,1886.12,512.574,1877.559,512.574,1867z"/>
			<g>
				
					<radialGradient id="SVGID_11_" cx="3483.4304" cy="1791.3192" r="28.3559" gradientTransform="matrix(1.7214 0 0 1.721 -5393.334 -1263.7499)" gradientUnits="userSpaceOnUse">
					<stop  offset="0" style="stop-color:#A8CA4C"/>
					<stop  offset="0.2186" style="stop-color:#8CAF44"/>
					<stop  offset="0.687" style="stop-color:#466C2F"/>
					<stop  offset="1" style="stop-color:#143C20"/>
				</radialGradient>
				<path fill="url(#SVGID_11_)" d="M621.59,1846.107c0,12.4-18.095,22.457-40.415,22.457c-22.323,0-40.423-10.057-40.423-22.457
					c0-12.396,18.1-22.446,40.423-22.446C603.495,1823.66,621.59,1833.71,621.59,1846.107z"/>
			</g>
			
				<radialGradient id="SVGID_12_" cx="3490.9668" cy="1845.1407" r="35.3199" gradientTransform="matrix(1.7214 0 0 1.5934 -5393.3306 -1098.1975)" gradientUnits="userSpaceOnUse">
				<stop  offset="0" style="stop-color:#A8CA4C"/>
				<stop  offset="0.2186" style="stop-color:#8CAF44"/>
				<stop  offset="0.687" style="stop-color:#466C2F"/>
				<stop  offset="1" style="stop-color:#143C20"/>
			</radialGradient>
			<path fill="url(#SVGID_12_)" d="M545.009,1873.272c0-14.46,46.406-26.299,46.064-26.181
				c-0.344,0.121,46.065,11.721,46.065,26.181c0,14.463-20.622,26.183-46.065,26.183
				C565.631,1899.455,545.009,1887.734,545.009,1873.272z"/>
			<g opacity="0.5">
				<path fill="#CBEAED" d="M512.574,1867c0-10.553,33.885-19.202,33.633-19.112c-0.248,0.084,33.638,8.559,33.638,19.112
					c0,10.558-15.063,19.12-33.638,19.12C527.63,1886.12,512.574,1877.559,512.574,1867z"/>
				<g>
					<path fill="#CBEAED" d="M621.59,1846.107c0,12.4-18.095,22.457-40.415,22.457c-22.323,0-40.423-10.057-40.423-22.457
						c0-12.396,18.1-22.446,40.423-22.446C603.495,1823.66,621.59,1833.71,621.59,1846.107z"/>
				</g>
				<path fill="#CBEAED" d="M545.009,1873.272c0-14.46,46.406-26.299,46.064-26.181c-0.344,0.121,46.065,11.721,46.065,26.181
					c0,14.463-20.622,26.183-46.065,26.183C565.631,1899.455,545.009,1887.734,545.009,1873.272z"/>
			</g>
		</g>
	</g>
	<g>
		<path fill="#5F856A" d="M1000.9,1895.061c14.158-0.463,27.645-0.418,39.74,0.051c11.198-1.157,24.192-2.034,38.117-2.491
			c43.391-1.399,79.357,1.818,80.344,7.191c0.964,5.262-31.886,10.625-73.923,12.182c-14.236,4.823-44.187,8.778-79.351,9.919
			c-50.069,1.629-91.755-3.071-93.119-10.478C911.354,1904.01,950.834,1896.682,1000.9,1895.061z"/>
		<g>
			
				<radialGradient id="SVGID_13_" cx="3470.4124" cy="1851.2932" r="25.7878" gradientTransform="matrix(-3.2885 0 0 2.3301 12465.8838 -2475.4744)" gradientUnits="userSpaceOnUse">
				<stop  offset="0" style="stop-color:#A8CA4C"/>
				<stop  offset="0.2186" style="stop-color:#8CAF44"/>
				<stop  offset="0.687" style="stop-color:#466C2F"/>
				<stop  offset="1" style="stop-color:#143C20"/>
			</radialGradient>
			<path fill="url(#SVGID_13_)" d="M1152.571,1871.693c0-15.432-64.732-28.079-64.25-27.948c0.473,0.124-64.26,12.516-64.26,27.948
				c0,15.44,28.776,27.959,64.26,27.959C1123.808,1899.652,1152.571,1887.132,1152.571,1871.693z"/>
			<g>
				
					<radialGradient id="SVGID_14_" cx="3492.8706" cy="1795.7305" r="28.3559" gradientTransform="matrix(-3.2885 0 0 2.5167 12465.8906 -2717.5647)" gradientUnits="userSpaceOnUse">
					<stop  offset="0" style="stop-color:#A8CA4C"/>
					<stop  offset="0.2186" style="stop-color:#8CAF44"/>
					<stop  offset="0.687" style="stop-color:#466C2F"/>
					<stop  offset="1" style="stop-color:#143C20"/>
				</radialGradient>
				<path fill="url(#SVGID_14_)" d="M944.312,1841.139c0,18.132,34.568,32.839,77.207,32.839c42.645,0,77.221-14.707,77.221-32.839
					c0-18.127-34.576-32.824-77.221-32.824C978.88,1808.316,944.312,1823.012,944.312,1841.139z"/>
			</g>
			
				<radialGradient id="SVGID_15_" cx="3500.407" cy="1849.9054" r="35.3199" gradientTransform="matrix(-3.2885 0 0 2.3301 12465.8838 -2475.4744)" gradientUnits="userSpaceOnUse">
				<stop  offset="0" style="stop-color:#A8CA4C"/>
				<stop  offset="0.2186" style="stop-color:#8CAF44"/>
				<stop  offset="0.687" style="stop-color:#466C2F"/>
				<stop  offset="1" style="stop-color:#143C20"/>
			</radialGradient>
			<path fill="url(#SVGID_15_)" d="M1090.609,1880.864c0-21.145-88.65-38.457-87.998-38.285c0.656,0.178-88,17.14-88,38.285
				c0,21.149,39.396,38.288,88,38.288C1051.214,1919.152,1090.609,1902.013,1090.609,1880.864z"/>
			<g opacity="0.5">
				<path fill="#CBEAED" d="M1152.571,1871.693c0-15.432-64.732-28.079-64.25-27.948c0.473,0.124-64.26,12.516-64.26,27.948
					c0,15.44,28.776,27.959,64.26,27.959C1123.808,1899.652,1152.571,1887.132,1152.571,1871.693z"/>
				<g>
					<path fill="#CBEAED" d="M944.312,1841.139c0,18.132,34.568,32.839,77.207,32.839c42.645,0,77.221-14.707,77.221-32.839
						c0-18.127-34.576-32.824-77.221-32.824C978.88,1808.316,944.312,1823.012,944.312,1841.139z"/>
				</g>
				<path fill="#CBEAED" d="M1090.609,1880.864c0-21.145-88.65-38.457-87.998-38.285c0.656,0.178-88,17.14-88,38.285
					c0,21.149,39.396,38.288,88,38.288C1051.214,1919.152,1090.609,1902.013,1090.609,1880.864z"/>
			</g>
		</g>
	</g>
	<g>
		<path fill="#5F856A" d="M3124.439,1838.932c-3.615-0.271-7.059-0.245-10.147,0.03c-2.859-0.677-6.177-1.191-9.733-1.458
			c-11.08-0.819-20.263,1.064-20.515,4.209c-0.246,3.08,8.142,6.219,18.875,7.131c3.635,2.823,11.283,5.138,20.261,5.806
			c12.784,0.954,23.428-1.797,23.777-6.133C3147.304,1844.171,3137.223,1839.881,3124.439,1838.932z"/>
		<g>
			
				<radialGradient id="SVGID_16_" cx="2256.1191" cy="1787.6046" r="60.6124" gradientTransform="matrix(0.3572 0 0 0.5803 2305.0562 768.2825)" gradientUnits="userSpaceOnUse">
				<stop  offset="0" style="stop-color:#A8CA4C"/>
				<stop  offset="0.2186" style="stop-color:#8CAF44"/>
				<stop  offset="0.687" style="stop-color:#466C2F"/>
				<stop  offset="1" style="stop-color:#143C20"/>
			</radialGradient>
			<path fill="url(#SVGID_16_)" d="M3085.711,1825.253c0-9.034,16.529-16.437,16.406-16.36c-0.121,0.072,16.408,7.326,16.408,16.36
				c0,9.038-7.347,16.366-16.408,16.366C3093.056,1841.619,3085.711,1834.291,3085.711,1825.253z"/>
			<g>
				
					<radialGradient id="SVGID_17_" cx="2308.9031" cy="1717.2311" r="66.6486" gradientTransform="matrix(0.3572 0 0 0.6268 2305.0554 707.9907)" gradientUnits="userSpaceOnUse">
					<stop  offset="0" style="stop-color:#A8CA4C"/>
					<stop  offset="0.2186" style="stop-color:#8CAF44"/>
					<stop  offset="0.687" style="stop-color:#466C2F"/>
					<stop  offset="1" style="stop-color:#143C20"/>
				</radialGradient>
				<path fill="url(#SVGID_17_)" d="M3138.888,1807.368c0,10.614-8.826,19.223-19.714,19.223c-10.889,0-19.718-8.609-19.718-19.223
					c0-10.611,8.829-19.214,19.718-19.214C3130.062,1788.154,3138.888,1796.757,3138.888,1807.368z"/>
			</g>
			
				<radialGradient id="SVGID_18_" cx="2326.6194" cy="1784.3425" r="83.0169" gradientTransform="matrix(0.3572 0 0 0.5803 2305.0562 768.2825)" gradientUnits="userSpaceOnUse">
				<stop  offset="0" style="stop-color:#A8CA4C"/>
				<stop  offset="0.2186" style="stop-color:#8CAF44"/>
				<stop  offset="0.687" style="stop-color:#466C2F"/>
				<stop  offset="1" style="stop-color:#143C20"/>
			</radialGradient>
			<path fill="url(#SVGID_18_)" d="M3101.533,1830.621c0-12.378,22.636-22.512,22.469-22.411
				c-0.167,0.104,22.47,10.033,22.47,22.411c0,12.38-10.059,22.412-22.47,22.412
				C3111.592,1853.034,3101.533,1843.001,3101.533,1830.621z"/>
			<g opacity="0.5">
				<path fill="#CBEAED" d="M3085.711,1825.253c0-9.034,16.529-16.437,16.406-16.36c-0.121,0.072,16.408,7.326,16.408,16.36
					c0,9.038-7.347,16.366-16.408,16.366C3093.056,1841.619,3085.711,1834.291,3085.711,1825.253z"/>
				<g>
					<path fill="#CBEAED" d="M3138.888,1807.368c0,10.614-8.826,19.223-19.714,19.223c-10.889,0-19.718-8.609-19.718-19.223
						c0-10.611,8.829-19.214,19.718-19.214C3130.062,1788.154,3138.888,1796.757,3138.888,1807.368z"/>
				</g>
				<path fill="#CBEAED" d="M3101.533,1830.621c0-12.378,22.636-22.512,22.469-22.411c-0.167,0.104,22.47,10.033,22.47,22.411
					c0,12.38-10.059,22.412-22.47,22.412C3111.592,1853.034,3101.533,1843.001,3101.533,1830.621z"/>
			</g>
		</g>
	</g>
	<g>
		<rect x="123.81" y="1490.368" fill="#5F6062" width="9.004" height="18.876"/>
	</g>
	<g>
		<rect x="123.81" y="1037.312" fill="#5F6062" width="9.004" height="18.875"/>
	</g>
	<polygon fill="#6C6F71" points="2503.405,1903.448 2471.101,1896.336 2471.101,1717.537 2503.405,1717.537 	"/>
	<polygon fill="#545759" points="2503.405,1769.657 2471.101,1740.827 2471.101,1717.537 2503.405,1717.537 	"/>
	<polygon fill="#B8BABC" points="2503.405,1903.448 2532.822,1896.336 2532.822,1717.537 2503.405,1717.537 	"/>
	<polygon fill="#656769" points="2502.396,1768.649 2532.822,1801.573 2532.822,1717.537 2502.396,1716.529 	"/>
	<rect x="1804.834" y="824.376" width="1391.936" height="899.645"/>
	<rect x="3212.408" y="824.376" width="386.386" height="899.645"/>
	<text transform="matrix(1 0 0 1 1953.4932 1702.9812)" fill="#FFFFFF" font-family="'Helvetica'" font-size="38.6048px">Col 1</text>
	<text transform="matrix(1 0 0 1 2283.2031 1702.9812)" fill="#FFFFFF" font-family="'Helvetica'" font-size="38.6048px">Col 2</text>
	<text transform="matrix(1 0 0 1 2633.6807 1702.9812)" fill="#FFFFFF" font-family="'Helvetica'" font-size="38.6048px">Col 3</text>
	<text transform="matrix(1 0 0 1 2973.6963 1702.9812)" fill="#FFFFFF" font-family="'Helvetica'" font-size="38.6048px">Col 4</text>
	<text transform="matrix(1 0 0 1 3375.7197 1702.9812)" fill="#FFFFFF" font-family="'Helvetica'" font-size="38.6048px">Col 4</text>
	<rect x="1840.37" y="873.13" fill="#8E8482" width="303.398" height="252.529"/>
	<rect x="1840.37" y="1140.477" fill="#8E8482" width="303.398" height="252.529"/>
	<rect x="1840.37" y="1407.825" fill="#8E8482" width="303.398" height="252.529"/>
	<rect x="2178.583" y="873.13" fill="#8E8482" width="303.398" height="252.529"/>
	<rect x="2178.583" y="1140.477" fill="#8E8482" width="303.398" height="252.529"/>
	<rect x="2178.583" y="1407.825" fill="#8E8482" width="303.398" height="252.529"/>
	<rect x="2516.795" y="873.13" fill="#8E8482" width="303.398" height="252.529"/>
	<rect x="2516.795" y="1140.477" fill="#8E8482" width="303.398" height="252.529"/>
	<rect x="2516.795" y="1407.825" fill="#8E8482" width="303.398" height="252.529"/>
	<rect x="2855.008" y="873.13" fill="#8E8482" width="303.398" height="252.529"/>
	<rect x="2855.008" y="1140.477" fill="#8E8482" width="303.398" height="252.529"/>
	<rect x="2855.008" y="1407.825" fill="#8E8482" width="303.398" height="252.529"/>
	<rect x="3410.641" y="1421.972" fill="#8E8482" width="146.659" height="238.382"/>
	<g>
		<rect x="3253.559" y="1605.798" fill="#8E8482" width="146.659" height="54.556"/>
		<rect x="3253.559" y="1544.523" fill="#8E8482" width="146.659" height="54.556"/>
		<rect x="3253.559" y="1483.247" fill="#8E8482" width="146.659" height="54.556"/>
		<rect x="3253.559" y="1421.972" fill="#8E8482" width="146.659" height="54.556"/>
	</g>
	<rect x="3253.902" y="871.435" fill="#8E8482" width="303.398" height="362.524"/>
	<rect x="3253.902" y="1245.258" fill="#8E8482" width="303.398" height="92.608"/>
	<rect x="3253.902" y="1349.164" fill="#8E8482" width="303.398" height="61.467"/>
	<g>
		<polygon fill="#6D6F71" points="689.884,1880.164 669.213,1903.05 885.739,1903.05 854.598,1880.164 		"/>
	</g>
	<polygon fill="#414042" points="712.517,1885.435 705.837,1895.515 699.157,1885.435 699.157,1656.78 712.517,1656.78 	"/>
	<polygon fill="#8E9092" points="712.517,1885.435 705.837,1895.515 705.837,1656.78 712.517,1656.78 	"/>
	<polygon fill="#414042" points="845.979,1885.435 839.298,1895.515 832.618,1885.435 832.618,1656.78 845.979,1656.78 	"/>
	<polygon fill="#8E9092" points="845.979,1885.435 839.298,1895.515 839.298,1656.78 845.979,1656.78 	"/>
	<path fill="none" d="M689.137,1388.362c-0.894,0-1.625,0.732-1.625,1.625v461.477c0,0.895,0.732,1.624,1.625,1.624h166.8
		c0.894,0,1.624-0.73,1.624-1.624v-461.477c0-0.893-0.731-1.625-1.624-1.625H689.137z"/>
	<g>
		<linearGradient id="SVGID_19_" gradientUnits="userSpaceOnUse" x1="772.5365" y1="1816.24" x2="772.5365" y2="1281.3409">
			<stop  offset="0" style="stop-color:#717375"/>
			<stop  offset="0.0337" style="stop-color:#717375"/>
			<stop  offset="0.2403" style="stop-color:#8A8C8E"/>
			<stop  offset="0.6777" style="stop-color:#CBCCCD"/>
			<stop  offset="1" style="stop-color:#FFFFFF"/>
		</linearGradient>
		<path fill="url(#SVGID_19_)" stroke="#231F20" d="M857.561,1851.464c0,0.894-0.731,1.624-1.625,1.624h-166.8
			c-0.894,0-1.624-0.731-1.624-1.624v-461.477c0-0.895,0.731-1.626,1.624-1.626h166.8c0.895,0,1.625,0.732,1.625,1.626V1851.464z"/>
	</g>
	<rect x="697.073" y="1397.886" fill="#FFFFFF" width="150.927" height="445.677"/>
	<polygon fill="#414042" points="1297.687,2053.183 1297.687,2059.863 1297.687,2066.543 1203.391,2066.543 1203.391,2053.183 	"/>
	<rect x="1203.391" y="2053.183" fill="#AFB1B4" width="94.296" height="6.68"/>
	<g>
		<polygon fill="#414042" points="1212.446,2130.273 1205.766,2140.354 1199.086,2130.273 1199.086,1901.618 1212.446,1901.618 		
			"/>
		<polygon fill="#8E9092" points="1212.446,2130.273 1205.766,2140.354 1205.766,1901.618 1212.446,1901.618 		"/>
		<polygon fill="#414042" points="1304.367,2130.273 1297.687,2140.354 1291.007,2130.273 1291.007,1901.618 1304.367,1901.618 		
			"/>
		<polygon fill="#8E9092" points="1304.367,2130.273 1297.687,2140.354 1297.687,1901.618 1304.367,1901.618 		"/>
		<g>
			<rect x="1120.676" y="1816.995" fill="#FFFFFF" width="262.101" height="194.381"/>
			<g>
				<polyline fill="none" stroke="#DC2527" stroke-width="5" stroke-miterlimit="10" points="1382.777,2005.376 1382.777,2011.376 
					1376.777,2011.376 				"/>
				
					<line fill="none" stroke="#DC2527" stroke-width="5" stroke-miterlimit="10" stroke-dasharray="11.9096,11.9096" x1="1364.868" y1="2011.376" x2="1132.631" y2="2011.376"/>
				<polyline fill="none" stroke="#DC2527" stroke-width="5" stroke-miterlimit="10" points="1126.676,2011.376 1120.676,2011.376 
					1120.676,2005.376 				"/>
				
					<line fill="none" stroke="#DC2527" stroke-width="5" stroke-miterlimit="10" stroke-dasharray="12.1588,12.1588" x1="1120.676" y1="1993.218" x2="1120.676" y2="1829.075"/>
				<polyline fill="none" stroke="#DC2527" stroke-width="5" stroke-miterlimit="10" points="1120.676,1822.995 1120.676,1816.995 
					1126.676,1816.995 				"/>
				
					<line fill="none" stroke="#DC2527" stroke-width="5" stroke-miterlimit="10" stroke-dasharray="11.9096,11.9096" x1="1138.586" y1="1816.995" x2="1370.823" y2="1816.995"/>
				<polyline fill="none" stroke="#DC2527" stroke-width="5" stroke-miterlimit="10" points="1376.777,1816.995 1382.777,1816.995 
					1382.777,1822.995 				"/>
				
					<line fill="none" stroke="#DC2527" stroke-width="5" stroke-miterlimit="10" stroke-dasharray="12.1588,12.1588" x1="1382.777" y1="1835.154" x2="1382.777" y2="1999.297"/>
			</g>
		</g>
	</g>
	<path fill="#FFFFFF" stroke="#DC2527" stroke-width="5" stroke-miterlimit="10" stroke-dasharray="12" d="M1621.724,824.376
		c-68.631,0-124.267,145.695-124.267,325.418s55.636,325.418,124.267,325.418h164.708V824.376H1621.724z"/>
	<path fill="#FFFFFF" stroke="#DC2527" stroke-width="5" stroke-miterlimit="10" stroke-dasharray="12" d="M3197.7,661.024
		c0-61.803-311.804-111.904-696.433-111.904s-696.433,50.101-696.433,111.904v148.322H3197.7V661.024z"/>
	<path fill="#939598" d="M1598.878,1943.775v-399.82c0-27.82-9.783-50.59-38.128-50.59h-127.972
		c-28.355,0-38.129,22.77-38.129,50.59v398.765"/>
	<path fill="none" stroke="#FFFFFF" stroke-width="0.172" d="M1598.878,1943.775v-399.82c0-27.82-9.783-50.59-38.128-50.59h-127.972
		c-28.355,0-38.129,22.77-38.129,50.59v398.765"/>
	<linearGradient id="SVGID_20_" gradientUnits="userSpaceOnUse" x1="1496.7633" y1="1983.04" x2="1496.7633" y2="1303.6505">
		<stop  offset="0" style="stop-color:#717375"/>
		<stop  offset="0.0337" style="stop-color:#717375"/>
		<stop  offset="0.2403" style="stop-color:#8A8C8E"/>
		<stop  offset="0.6777" style="stop-color:#CBCCCD"/>
		<stop  offset="1" style="stop-color:#FFFFFF"/>
	</linearGradient>
	<path fill="url(#SVGID_20_)" d="M1432.775,1501.112c-20.063,0-30.232,14.417-30.232,42.843v391.063l188.44,0.975v-392.038
		c0-28.425-10.17-42.843-30.233-42.843H1432.775z"/>
	<linearGradient id="SVGID_21_" gradientUnits="userSpaceOnUse" x1="1497.5605" y1="1981.04" x2="1497.5605" y2="1008.5134">
		<stop  offset="0" style="stop-color:#717375"/>
		<stop  offset="0.0337" style="stop-color:#717375"/>
		<stop  offset="0.2403" style="stop-color:#8A8C8E"/>
		<stop  offset="0.6777" style="stop-color:#CBCCCD"/>
		<stop  offset="1" style="stop-color:#FFFFFF"/>
	</linearGradient>
	<path fill="url(#SVGID_21_)" d="M1590.983,1935.993v-392.038c0-28.425-10.17-42.843-30.233-42.843h-127.975
		c-15.472,0-25.06,8.574-28.638,25.533L1590.983,1935.993z"/>
	<rect x="1472.656" y="1714.428" fill="none" width="50.186" height="49.239"/>
	<path fill="#696A6D" d="M1522.839,1739.047c0-13.593-11.234-24.619-25.095-24.619c-13.855,0-25.087,11.026-25.087,24.619
		c0,13.596,11.232,24.62,25.087,24.62C1511.605,1763.666,1522.839,1752.643,1522.839,1739.047"/>
	<path fill="none" stroke="#CDCFD0" stroke-width="2" d="M1432.775,1501.112c-20.063,0-30.232,14.417-30.232,42.843v391.063
		l188.44,0.975v-392.038c0-28.425-10.17-42.843-30.233-42.843H1432.775z"/>
	<g>
		<g>
			<g>
				<polygon fill="#231F20" points="1466.886,1921.038 1461.36,1915.189 1453.313,1915.106 1467.13,1901.985 				"/>
			</g>
		</g>
		
			<line fill="none" stroke="#231F20" stroke-width="2" stroke-miterlimit="10" x1="1438.162" y1="1971.858" x2="1462.349" y2="1912.925"/>
	</g>
	<rect x="1409.673" y="1522.349" fill="#F2F2F3" stroke="#231F20" stroke-miterlimit="10" width="174.182" height="134.713"/>
	
		<rect x="697.073" y="881.589" fill="#FFFFFF" stroke="#DC2527" stroke-width="5" stroke-miterlimit="10" stroke-dasharray="12" width="150.927" height="445.677"/>
	<path fill="#FFFFFF" stroke="#DC2527" stroke-width="5" stroke-miterlimit="10" stroke-dasharray="12" d="M1273.481,764.839
		c0-29.931-63.541-54.196-141.922-54.196c-78.381,0-141.922,24.264-141.922,54.196v71.833h283.844V764.839z"/>
	
		<rect x="1440.926" y="1788.024" fill="#FFFFFF" stroke="#DC2527" stroke-width="5" stroke-miterlimit="10" stroke-dasharray="12" width="111.47" height="112.982"/>
</g>
<g id="Interactive">
	<rect id="_x31_6.1" x="147.007" y="1031.507" fill="none" width="211.819" height="481.104"/>
	<rect id="_x31_6.4" x="989.637" y="858.56" fill="none" width="284.105" height="829.459"/>
	<g id="_x31_6.13">
	</g>
	<rect id="_x31_6.2" x="697.073" y="1397.886" fill="none" width="150.927" height="445.677"/>
	<rect id="_x31_6.7" x="1120.676" y="1816.995" fill="none" width="262.101" height="194.381"/>
	<rect id="_x31_6.5" x="1409.673" y="1522.349" fill="none" width="174.182" height="134.713"/>
	<rect id="_x31_6.3" x="697.073" y="881.589" fill="none" width="150.927" height="445.677"/>
	<rect id="_x31_6.14_1_" x="3410.641" y="1421.972" fill="none" width="146.659" height="238.382"/>
	<rect id="_x31_6.13_1_" x="3253.559" y="1421.972" fill="none" width="146.659" height="238.382"/>
	<rect id="_x31_6.10_1_" x="3253.902" y="871.435" fill="none" width="303.398" height="539.196"/>
	<rect id="_x31_6.24_1_" x="2855.008" y="873.13" fill="none" width="303.398" height="787.223"/>
	<rect id="_x31_6.21_1_" x="2516.795" y="873.13" fill="none" width="303.398" height="787.223"/>
	<rect id="_x31_6.18_1_" x="2178.583" y="873.13" fill="none" width="303.398" height="787.223"/>
	<rect id="_x31_6.15_1_" x="1840.37" y="873.13" fill="none" width="303.398" height="787.223"/>
	
		<rect x="1440.926" y="1788.024" fill="#FFFFFF" stroke="#DC2527" stroke-width="5" stroke-miterlimit="10" stroke-dasharray="12" width="111.47" height="112.982"/>
	<path fill="#FFFFFF" stroke="#DC2527" stroke-width="5" stroke-miterlimit="10" stroke-dasharray="12" d="M1621.724,824.376
		c-68.631,0-124.267,145.695-124.267,325.418s55.636,325.418,124.267,325.418h164.708V824.376H1621.724z"/>
	<path fill="#FFFFFF" stroke="#DC2527" stroke-width="5" stroke-miterlimit="10" stroke-dasharray="12" d="M3197.7,661.024
		c0-61.803-311.804-111.904-696.433-111.904s-696.433,50.101-696.433,111.904v148.322H3197.7V661.024z"/>
	<path fill="#FFFFFF" stroke="#DC2527" stroke-width="5" stroke-miterlimit="10" stroke-dasharray="12" d="M1273.481,764.839
		c0-29.931-63.541-54.196-141.922-54.196c-78.381,0-141.922,24.264-141.922,54.196v71.833h283.844V764.839z"/>
</g>
<g id="Text_Labels">
	<text transform="matrix(1 0 0 1 680.3646 1378.5725)" fill="#58595B" font-family="'Helvetica'" font-size="27px">In-Ground Sign</text>
	<text transform="matrix(1 0 0 1 1167.7161 1801.9385)" fill="#58595B" font-family="'Helvetica'" font-size="27px">DT Lawn Sign</text>
	<text transform="matrix(1 0 0 1 1625.7552 1514.4365)" fill="#58595B" font-family="'Helvetica'" font-size="27px">DT Side Kick</text>
	<text transform="matrix(1 0 0 1 1749.3086 721.1693)"><tspan x="0" y="0" fill="#58595B" font-family="'Helvetica'" font-size="27px">DT </tspan><tspan x="43.492" y="0" fill="#58595B" font-family="'Helvetica'" font-size="27px"> </tspan><tspan x="-54.039" y="30.13" fill="#58595B" font-family="'Helvetica'" font-size="27px">M</tspan><tspan x="-31.548" y="30.13" fill="#58595B" font-family="'Helvetica'" font-size="27px">o</tspan><tspan x="-15.992" y="30.13" fill="#58595B" font-family="'Helvetica'" font-size="27px">nster </tspan><tspan x="-49.557" y="60.261" fill="#58595B" font-family="'Helvetica'" font-size="27px"> Topper</tspan></text>
	<text transform="matrix(1 0 0 1 1418.2256 1995.5565)" fill="#58595B" font-family="'Helvetica'" font-size="27px">COD Placard</text>
	<text transform="matrix(1 0 0 1 1466.0977 1700.3799)"><tspan x="0" y="0" fill="#FFFFFF" font-family="'Helvetica'" font-size="27.3058px">COD</tspan><tspan x="-24.293" y="30.131" fill="#FFFFFF" font-family="'Helvetica'" font-size="27.3058px">Graphics</tspan></text>
	<text transform="matrix(1 0 0 1 252.2764 1552.9099)"><tspan x="0" y="0" fill="#58595B" font-family="'Helvetica'" font-size="27px">Gateway</tspan><tspan x="19.485" y="31.072" fill="#58595B" font-family="'Helvetica'" font-size="27px">Banner</tspan></text>
	<text transform="matrix(1 0 0 1 1002.6304 1742.1599)"><tspan x="0" y="0" fill="#58595B" font-family="'Helvetica'" font-size="27px">Pre-Sell</tspan><tspan x="30.006" y="30.131" fill="#58595B" font-family="'Helvetica'" font-size="27px">Kiosk</tspan></text>
	<text transform="matrix(1 0 0 1 1301.9548 808.5538)"><tspan x="0" y="0" fill="#58595B" font-family="'Helvetica'" font-size="27.3058px">Kiosk  </tspan><tspan x="0" y="30.13" fill="#58595B" font-family="'Helvetica'" font-size="27.3058px">Header</tspan></text>
</g>
</svg>
