<?xml version="1.0" encoding="utf-8"?>
<!-- Generator: Adobe Illustrator 19.0.1, SVG Export Plug-In . SVG Version: 6.00 Build 0)  -->
<svg version="1.1" xmlns="http://www.w3.org/2000/svg" xmlns:xlink="http://www.w3.org/1999/xlink" x="0px" y="0px"
	 viewBox="0 0 6892.622 3718.421" enable-background="new 0 0 6892.622 3718.421" xml:space="preserve">
<g id="Background">
	<g>
		<g>
			<rect x="5312.853" y="2204.94" fill="#C9D1D7" width="11.601" height="250.228"/>
			<rect x="5336.901" y="2204.94" fill="#C9D1D7" width="11.597" height="250.228"/>
			<rect x="5360.947" y="2204.94" fill="#C9D1D7" width="11.606" height="250.228"/>
			<rect x="5385.01" y="2204.94" fill="#C9D1D7" width="11.605" height="250.228"/>
			<rect x="5409.06" y="2204.94" fill="#C9D1D7" width="11.604" height="250.228"/>
			<rect x="5433.108" y="2204.94" fill="#C9D1D7" width="11.602" height="250.228"/>
			<rect x="5457.169" y="2204.94" fill="#C9D1D7" width="11.605" height="250.228"/>
			<rect x="5481.215" y="2204.94" fill="#C9D1D7" width="11.608" height="250.228"/>
			<rect x="5505.273" y="2204.94" fill="#C9D1D7" width="11.604" height="250.228"/>
			<rect x="5529.325" y="2204.94" fill="#C9D1D7" width="11.604" height="250.228"/>
			<rect x="5553.375" y="2204.94" fill="#C9D1D7" width="11.604" height="250.228"/>
			<rect x="5577.437" y="2204.94" fill="#C9D1D7" width="11.598" height="250.228"/>
			<rect x="5601.484" y="2204.94" fill="#C9D1D7" width="11.599" height="250.228"/>
			<rect x="5625.526" y="2204.94" fill="#C9D1D7" width="11.618" height="250.228"/>
			<rect x="5649.595" y="2204.94" fill="#C9D1D7" width="11.604" height="250.228"/>
			<rect x="5673.642" y="2204.94" fill="#C9D1D7" width="11.614" height="250.228"/>
			<rect x="5697.692" y="2204.94" fill="#C9D1D7" width="11.609" height="250.228"/>
			<rect x="5721.747" y="2204.94" fill="#C9D1D7" width="11.607" height="250.228"/>
			<rect x="5745.807" y="2204.94" fill="#C9D1D7" width="11.591" height="250.228"/>
			<rect x="5769.863" y="2204.94" fill="#C9D1D7" width="11.59" height="250.228"/>
			<rect x="5793.905" y="2204.94" fill="#C9D1D7" width="11.609" height="250.228"/>
			<rect x="5817.968" y="2204.94" fill="#C9D1D7" width="11.595" height="250.228"/>
			<rect x="5842.021" y="2204.94" fill="#C9D1D7" width="11.594" height="250.228"/>
		</g>
		<g opacity="0.41">
			<rect x="5312.853" y="2435.317" fill="#C9D1D7" width="11.601" height="4.284"/>
			<rect x="5336.901" y="2435.317" fill="#C9D1D7" width="11.597" height="4.284"/>
			<rect x="5360.947" y="2435.317" fill="#C9D1D7" width="11.606" height="4.284"/>
			<rect x="5385.01" y="2435.317" fill="#C9D1D7" width="11.605" height="4.284"/>
			<rect x="5409.06" y="2435.317" fill="#C9D1D7" width="11.604" height="4.284"/>
			<rect x="5433.108" y="2435.317" fill="#C9D1D7" width="11.602" height="4.284"/>
			<rect x="5457.169" y="2435.317" fill="#C9D1D7" width="11.605" height="4.284"/>
			<rect x="5481.215" y="2435.317" fill="#C9D1D7" width="11.608" height="4.284"/>
			<rect x="5505.273" y="2435.317" fill="#C9D1D7" width="11.604" height="4.284"/>
			<rect x="5529.325" y="2435.317" fill="#C9D1D7" width="11.604" height="4.284"/>
			<rect x="5553.375" y="2435.317" fill="#C9D1D7" width="11.604" height="4.284"/>
			<rect x="5577.437" y="2435.317" fill="#C9D1D7" width="11.598" height="4.284"/>
			<rect x="5601.484" y="2435.317" fill="#C9D1D7" width="11.599" height="4.284"/>
			<rect x="5625.526" y="2435.317" fill="#C9D1D7" width="11.618" height="4.284"/>
			<rect x="5649.595" y="2435.317" fill="#C9D1D7" width="11.604" height="4.284"/>
			<rect x="5673.642" y="2435.317" fill="#C9D1D7" width="11.614" height="4.284"/>
			<rect x="5697.692" y="2435.317" fill="#C9D1D7" width="11.609" height="4.284"/>
			<rect x="5721.747" y="2435.317" fill="#C9D1D7" width="11.607" height="4.284"/>
			<rect x="5745.807" y="2435.317" fill="#C9D1D7" width="11.591" height="4.284"/>
			<rect x="5769.863" y="2435.317" fill="#C9D1D7" width="11.59" height="4.284"/>
			<rect x="5793.905" y="2435.317" fill="#C9D1D7" width="11.609" height="4.284"/>
			<rect x="5817.968" y="2435.317" fill="#C9D1D7" width="11.595" height="4.284"/>
			<rect x="5842.021" y="2435.317" fill="#C9D1D7" width="11.594" height="4.284"/>
		</g>
		<g opacity="0.41">
			<rect x="5312.853" y="2242.698" fill="#C9D1D7" width="11.601" height="5.584"/>
			<rect x="5336.901" y="2242.698" fill="#C9D1D7" width="11.597" height="5.584"/>
			<rect x="5360.947" y="2242.698" fill="#C9D1D7" width="11.606" height="5.584"/>
			<rect x="5385.01" y="2242.698" fill="#C9D1D7" width="11.605" height="5.584"/>
			<rect x="5409.06" y="2242.698" fill="#C9D1D7" width="11.604" height="5.584"/>
			<rect x="5433.108" y="2242.698" fill="#C9D1D7" width="11.602" height="5.584"/>
			<rect x="5457.169" y="2242.698" fill="#C9D1D7" width="11.605" height="5.584"/>
			<rect x="5481.215" y="2242.698" fill="#C9D1D7" width="11.608" height="5.584"/>
			<rect x="5505.273" y="2242.698" fill="#C9D1D7" width="11.604" height="5.584"/>
			<rect x="5529.325" y="2242.698" fill="#C9D1D7" width="11.604" height="5.584"/>
			<rect x="5553.375" y="2242.698" fill="#C9D1D7" width="11.604" height="5.584"/>
			<rect x="5577.437" y="2242.698" fill="#C9D1D7" width="11.598" height="5.584"/>
			<rect x="5601.484" y="2242.698" fill="#C9D1D7" width="11.599" height="5.584"/>
			<rect x="5625.526" y="2242.698" fill="#C9D1D7" width="11.618" height="5.584"/>
			<rect x="5649.595" y="2242.698" fill="#C9D1D7" width="11.604" height="5.584"/>
			<rect x="5673.642" y="2242.698" fill="#C9D1D7" width="11.614" height="5.584"/>
			<rect x="5697.692" y="2242.698" fill="#C9D1D7" width="11.609" height="5.584"/>
			<rect x="5721.747" y="2242.698" fill="#C9D1D7" width="11.607" height="5.584"/>
			<rect x="5745.807" y="2242.698" fill="#C9D1D7" width="11.591" height="5.584"/>
			<rect x="5769.863" y="2242.698" fill="#C9D1D7" width="11.59" height="5.584"/>
			<rect x="5793.905" y="2242.698" fill="#C9D1D7" width="11.609" height="5.584"/>
			<rect x="5817.968" y="2242.698" fill="#C9D1D7" width="11.595" height="5.584"/>
			<rect x="5842.021" y="2242.698" fill="#C9D1D7" width="11.594" height="5.584"/>
		</g>
		<rect x="5231.652" y="2154.942" fill="#E6E3D4" width="64.717" height="302.586"/>
		<rect x="5221.85" y="2152.121" fill="#D9D9D9" width="82.005" height="62.567"/>
		<polygon fill="#8C8C8C" points="5232.567,2215.51 5295.444,2215.51 5294.52,2223.203 		"/>
		<rect x="5296.369" y="2229.905" fill="#C9D1D7" width="573.077" height="15.075"/>
		<rect x="5296.117" y="2421.638" fill="#C9D1D7" width="574.022" height="15.065"/>
		<rect x="5296.117" y="2421.638" opacity="0.5" fill="#C9D1D7" width="574.022" height="2.09"/>
		<rect x="5296.117" y="2229.797" opacity="0.5" fill="#C9D1D7" width="574.022" height="2.081"/>
		<rect x="5868.239" y="2154.942" fill="#E6E3D4" width="64.725" height="302.586"/>
		<rect x="5858.447" y="2152.121" fill="#D9D9D9" width="81.995" height="62.567"/>
		<polygon fill="#8C8C8C" points="5871.356,2215.51 5932.429,2215.51 5932.397,2223.899 		"/>
		<polygon opacity="0.15" fill="#8C8C8C" points="5303.154,2231.695 5297.868,2244.765 5296.117,2244.765 5296.117,2229.797
			5305.764,2229.797 		"/>
		<polygon opacity="0.15" fill="#8C8C8C" points="5303.154,2423.418 5297.868,2436.474 5296.117,2436.474 5296.117,2421.517
			5305.764,2421.517 		"/>
	</g>
	<g>
		<g>
			<rect x="5949.45" y="2204.94" fill="#C9D1D7" width="11.601" height="250.228"/>
			<rect x="5973.498" y="2204.94" fill="#C9D1D7" width="11.597" height="250.228"/>
			<rect x="5997.544" y="2204.94" fill="#C9D1D7" width="11.606" height="250.228"/>
			<rect x="6021.607" y="2204.94" fill="#C9D1D7" width="11.605" height="250.228"/>
			<rect x="6045.657" y="2204.94" fill="#C9D1D7" width="11.604" height="250.228"/>
			<rect x="6069.705" y="2204.94" fill="#C9D1D7" width="11.602" height="250.228"/>
			<rect x="6093.766" y="2204.94" fill="#C9D1D7" width="11.605" height="250.228"/>
			<rect x="6117.812" y="2204.94" fill="#C9D1D7" width="11.608" height="250.228"/>
			<rect x="6141.87" y="2204.94" fill="#C9D1D7" width="11.604" height="250.228"/>
			<rect x="6165.922" y="2204.94" fill="#C9D1D7" width="11.604" height="250.228"/>
			<rect x="6189.972" y="2204.94" fill="#C9D1D7" width="11.604" height="250.228"/>
			<rect x="6214.034" y="2204.94" fill="#C9D1D7" width="11.598" height="250.228"/>
			<rect x="6238.081" y="2204.94" fill="#C9D1D7" width="11.599" height="250.228"/>
			<rect x="6262.123" y="2204.94" fill="#C9D1D7" width="11.618" height="250.228"/>
			<rect x="6286.192" y="2204.94" fill="#C9D1D7" width="11.604" height="250.228"/>
			<rect x="6310.238" y="2204.94" fill="#C9D1D7" width="11.614" height="250.228"/>
			<rect x="6334.289" y="2204.94" fill="#C9D1D7" width="11.609" height="250.228"/>
			<rect x="6358.344" y="2204.94" fill="#C9D1D7" width="11.607" height="250.228"/>
			<rect x="6382.404" y="2204.94" fill="#C9D1D7" width="11.591" height="250.228"/>
			<rect x="6406.46" y="2204.94" fill="#C9D1D7" width="11.59" height="250.228"/>
			<rect x="6430.501" y="2204.94" fill="#C9D1D7" width="11.609" height="250.228"/>
			<rect x="6454.564" y="2204.94" fill="#C9D1D7" width="11.595" height="250.228"/>
			<rect x="6478.619" y="2204.94" fill="#C9D1D7" width="11.594" height="250.228"/>
		</g>
		<g opacity="0.41">
			<rect x="5949.45" y="2435.317" fill="#C9D1D7" width="11.601" height="4.284"/>
			<rect x="5973.498" y="2435.317" fill="#C9D1D7" width="11.597" height="4.284"/>
			<rect x="5997.544" y="2435.317" fill="#C9D1D7" width="11.606" height="4.284"/>
			<rect x="6021.607" y="2435.317" fill="#C9D1D7" width="11.605" height="4.284"/>
			<rect x="6045.657" y="2435.317" fill="#C9D1D7" width="11.604" height="4.284"/>
			<rect x="6069.705" y="2435.317" fill="#C9D1D7" width="11.602" height="4.284"/>
			<rect x="6093.766" y="2435.317" fill="#C9D1D7" width="11.605" height="4.284"/>
			<rect x="6117.812" y="2435.317" fill="#C9D1D7" width="11.608" height="4.284"/>
			<rect x="6141.87" y="2435.317" fill="#C9D1D7" width="11.604" height="4.284"/>
			<rect x="6165.922" y="2435.317" fill="#C9D1D7" width="11.604" height="4.284"/>
			<rect x="6189.972" y="2435.317" fill="#C9D1D7" width="11.604" height="4.284"/>
			<rect x="6214.034" y="2435.317" fill="#C9D1D7" width="11.598" height="4.284"/>
			<rect x="6238.081" y="2435.317" fill="#C9D1D7" width="11.599" height="4.284"/>
			<rect x="6262.123" y="2435.317" fill="#C9D1D7" width="11.618" height="4.284"/>
			<rect x="6286.192" y="2435.317" fill="#C9D1D7" width="11.604" height="4.284"/>
			<rect x="6310.238" y="2435.317" fill="#C9D1D7" width="11.614" height="4.284"/>
			<rect x="6334.289" y="2435.317" fill="#C9D1D7" width="11.609" height="4.284"/>
			<rect x="6358.344" y="2435.317" fill="#C9D1D7" width="11.607" height="4.284"/>
			<rect x="6382.404" y="2435.317" fill="#C9D1D7" width="11.591" height="4.284"/>
			<rect x="6406.46" y="2435.317" fill="#C9D1D7" width="11.59" height="4.284"/>
			<rect x="6430.501" y="2435.317" fill="#C9D1D7" width="11.609" height="4.284"/>
			<rect x="6454.564" y="2435.317" fill="#C9D1D7" width="11.595" height="4.284"/>
			<rect x="6478.619" y="2435.317" fill="#C9D1D7" width="11.594" height="4.284"/>
		</g>
		<g opacity="0.41">
			<rect x="5949.45" y="2242.698" fill="#C9D1D7" width="11.601" height="5.584"/>
			<rect x="5973.498" y="2242.698" fill="#C9D1D7" width="11.597" height="5.584"/>
			<rect x="5997.544" y="2242.698" fill="#C9D1D7" width="11.606" height="5.584"/>
			<rect x="6021.607" y="2242.698" fill="#C9D1D7" width="11.605" height="5.584"/>
			<rect x="6045.657" y="2242.698" fill="#C9D1D7" width="11.604" height="5.584"/>
			<rect x="6069.705" y="2242.698" fill="#C9D1D7" width="11.602" height="5.584"/>
			<rect x="6093.766" y="2242.698" fill="#C9D1D7" width="11.605" height="5.584"/>
			<rect x="6117.812" y="2242.698" fill="#C9D1D7" width="11.608" height="5.584"/>
			<rect x="6141.87" y="2242.698" fill="#C9D1D7" width="11.604" height="5.584"/>
			<rect x="6165.922" y="2242.698" fill="#C9D1D7" width="11.604" height="5.584"/>
			<rect x="6189.972" y="2242.698" fill="#C9D1D7" width="11.604" height="5.584"/>
			<rect x="6214.034" y="2242.698" fill="#C9D1D7" width="11.598" height="5.584"/>
			<rect x="6238.081" y="2242.698" fill="#C9D1D7" width="11.599" height="5.584"/>
			<rect x="6262.123" y="2242.698" fill="#C9D1D7" width="11.618" height="5.584"/>
			<rect x="6286.192" y="2242.698" fill="#C9D1D7" width="11.604" height="5.584"/>
			<rect x="6310.238" y="2242.698" fill="#C9D1D7" width="11.614" height="5.584"/>
			<rect x="6334.289" y="2242.698" fill="#C9D1D7" width="11.609" height="5.584"/>
			<rect x="6358.344" y="2242.698" fill="#C9D1D7" width="11.607" height="5.584"/>
			<rect x="6382.404" y="2242.698" fill="#C9D1D7" width="11.591" height="5.584"/>
			<rect x="6406.46" y="2242.698" fill="#C9D1D7" width="11.59" height="5.584"/>
			<rect x="6430.501" y="2242.698" fill="#C9D1D7" width="11.609" height="5.584"/>
			<rect x="6454.564" y="2242.698" fill="#C9D1D7" width="11.595" height="5.584"/>
			<rect x="6478.619" y="2242.698" fill="#C9D1D7" width="11.594" height="5.584"/>
		</g>
		<rect x="5868.249" y="2154.942" fill="#E6E3D4" width="64.717" height="302.586"/>
		<rect x="5858.447" y="2152.121" fill="#D9D9D9" width="82.005" height="62.567"/>
		<polygon fill="#8C8C8C" points="5869.164,2215.51 5932.042,2215.51 5931.117,2223.203 		"/>
		<rect x="5932.966" y="2229.905" fill="#C9D1D7" width="573.077" height="15.075"/>
		<rect x="5932.713" y="2421.638" fill="#C9D1D7" width="574.022" height="15.065"/>
		<rect x="5932.713" y="2421.638" opacity="0.5" fill="#C9D1D7" width="574.022" height="2.09"/>
		<rect x="5932.713" y="2229.797" opacity="0.5" fill="#C9D1D7" width="574.022" height="2.081"/>
		<rect x="6504.836" y="2154.942" fill="#E6E3D4" width="64.725" height="302.586"/>
		<rect x="6495.044" y="2152.121" fill="#D9D9D9" width="81.995" height="62.567"/>
		<polygon fill="#8C8C8C" points="6507.953,2215.51 6569.025,2215.51 6568.994,2223.899 		"/>
		<polygon opacity="0.15" fill="#8C8C8C" points="5939.751,2231.695 5934.465,2244.765 5932.713,2244.765 5932.713,2229.797
			5942.361,2229.797 		"/>
		<polygon opacity="0.15" fill="#8C8C8C" points="5939.751,2423.418 5934.465,2436.474 5932.713,2436.474 5932.713,2421.517
			5942.361,2421.517 		"/>
	</g>
	<g>
		<g>
			<rect x="6585.478" y="2205.217" fill="#C9D1D7" width="11.601" height="250.228"/>
			<rect x="6609.526" y="2205.217" fill="#C9D1D7" width="11.597" height="250.228"/>
			<rect x="6633.572" y="2205.217" fill="#C9D1D7" width="11.606" height="250.228"/>
			<rect x="6657.635" y="2205.217" fill="#C9D1D7" width="11.605" height="250.228"/>
			<rect x="6681.685" y="2205.217" fill="#C9D1D7" width="11.604" height="250.228"/>
			<rect x="6705.733" y="2205.217" fill="#C9D1D7" width="11.602" height="250.228"/>
			<rect x="6729.794" y="2205.217" fill="#C9D1D7" width="11.605" height="250.228"/>
		</g>
		<g opacity="0.41">
			<rect x="6585.478" y="2435.595" fill="#C9D1D7" width="11.601" height="4.284"/>
			<rect x="6609.526" y="2435.595" fill="#C9D1D7" width="11.597" height="4.284"/>
			<rect x="6633.572" y="2435.595" fill="#C9D1D7" width="11.606" height="4.284"/>
			<rect x="6657.635" y="2435.595" fill="#C9D1D7" width="11.605" height="4.284"/>
			<rect x="6681.685" y="2435.595" fill="#C9D1D7" width="11.604" height="4.284"/>
			<rect x="6705.733" y="2435.595" fill="#C9D1D7" width="11.602" height="4.284"/>
			<rect x="6729.794" y="2435.595" fill="#C9D1D7" width="11.605" height="4.284"/>
		</g>
		<g opacity="0.41">
			<rect x="6585.478" y="2242.975" fill="#C9D1D7" width="11.601" height="5.584"/>
			<rect x="6609.526" y="2242.975" fill="#C9D1D7" width="11.597" height="5.584"/>
			<rect x="6633.572" y="2242.975" fill="#C9D1D7" width="11.606" height="5.584"/>
			<rect x="6657.635" y="2242.975" fill="#C9D1D7" width="11.605" height="5.584"/>
			<rect x="6681.685" y="2242.975" fill="#C9D1D7" width="11.604" height="5.584"/>
			<rect x="6705.733" y="2242.975" fill="#C9D1D7" width="11.602" height="5.584"/>
			<rect x="6729.794" y="2242.975" fill="#C9D1D7" width="11.605" height="5.584"/>
		</g>
		<rect x="6568.823" y="2230.182" fill="#C9D1D7" width="184.279" height="15.075"/>
		<rect x="6568.742" y="2421.915" fill="#C9D1D7" width="184.583" height="15.065"/>
		<rect x="6568.742" y="2421.915" opacity="0.5" fill="#C9D1D7" width="182.348" height="2.09"/>
		<rect x="6568.742" y="2230.074" opacity="0.5" fill="#C9D1D7" width="182.348" height="2.081"/>
		<polygon opacity="0.15" fill="#8C8C8C" points="6575.779,2231.973 6570.493,2245.042 6568.742,2245.042 6568.742,2230.074
			6578.389,2230.074 		"/>
		<polygon opacity="0.15" fill="#8C8C8C" points="6575.779,2423.696 6570.493,2436.752 6568.742,2436.752 6568.742,2421.794
			6578.389,2421.794 		"/>
	</g>
	<rect x="5974.771" y="2092.679" fill="#FFFFFF" stroke="#808080" stroke-width="2" width="493.524" height="243.736"/>
	<path fill="#83BC6C" d="M5341.845,2648.595c0,0,214.483,63.56,285.513,0c71.029-63.56-167.685-100.414-167.685-100.414
		l-135.708-60.449L5341.845,2648.595z"/>
	<polygon points="5579.181,2548.22 5529.087,2548.22 5529.087,2460.112 5520.295,2460.112 5520.295,2548.22 5464.373,2548.22
		5455.581,2548.22 5455.581,2557.012 5455.581,2620.133 5459.822,2624.165 5464.373,2620.133 5464.373,2557.012 5520.295,2557.012
		5520.295,2615.062 5524.691,2621.847 5529.087,2615.062 5529.087,2557.012 5579.181,2557.012 5579.181,2620.133 5583.577,2624.165
		5587.972,2620.133 5587.972,2557.012 5587.972,2548.22 	"/>
	<g>
		<linearGradient id="SVGID_1_" gradientUnits="userSpaceOnUse" x1="5524.5288" y1="2440.1809" x2="5524.5288" y2="2108.907">
			<stop  offset="0.0337" style="stop-color:#525252"/>
			<stop  offset="1" style="stop-color:#ABABAB"/>
		</linearGradient>
		<path fill="url(#SVGID_1_)" d="M5649.055,2459.821c0,1.03-0.843,1.873-1.874,1.873h-245.305c-1.03,0-1.873-0.843-1.873-1.873
			v-435.492c0-1.03,0.843-1.873,1.873-1.873h245.305c1.03,0,1.874,0.843,1.874,1.873V2459.821z"/>
		<path fill="none" d="M5649.055,2459.821c0,1.03-0.843,1.873-1.874,1.873h-245.305c-1.03,0-1.873-0.843-1.873-1.873v-435.492
			c0-1.03,0.843-1.873,1.873-1.873h245.305c1.03,0,1.874,0.843,1.874,1.873V2459.821z"/>
	</g>
	<g>
		<linearGradient id="SVGID_2_" gradientUnits="userSpaceOnUse" x1="5524.5288" y1="2458.9641" x2="5524.5288" y2="1918.2649">
			<stop  offset="0.0337" style="stop-color:#525252"/>
			<stop  offset="1" style="stop-color:#FFFFFF"/>
		</linearGradient>
		<path fill="url(#SVGID_2_)" d="M5640.444,2451.124c0,1.02-0.835,1.855-1.855,1.855h-228.119c-1.02,0-1.855-0.835-1.855-1.855
			v-416.159c0-1.02,0.835-1.855,1.855-1.855h228.119c1.021,0,1.855,0.835,1.855,1.855V2451.124z"/>
		<path fill="none" stroke="#FFFFFF" stroke-width="2" d="M5640.444,2451.124c0,1.02-0.835,1.855-1.855,1.855h-228.119
			c-1.02,0-1.855-0.835-1.855-1.855v-416.159c0-1.02,0.835-1.855,1.855-1.855h228.119c1.021,0,1.855,0.835,1.855,1.855V2451.124z"/>
	</g>
	<polygon fill="#FFFFFF" points="5631.841,2444.277 5417.224,2444.277 5417.224,2042.341 5631.841,2042.341 5631.841,2444.277 	"/>
	<path fill="#83BC6C" d="M1455.298,2401.841c0,0-251.911,51.138-570.984,147.895c-289.624,87.827-647.125,102.675-603.604,426.211
		s492.676,384.724,619.945,412.405c482.019,104.838,557.487-184.613,939.839-77.605c382.353,107.008,580.653,191.488,862.314,50.688
		c281.661-140.8,305.928-510.546,305.928-510.546L1455.298,2401.841z"/>
	<path fill="#659051" d="M2819.634,2841.226c-22.087-1.019-43.127-0.921-61.997,0.112c-17.469-2.548-37.741-4.479-59.465-5.484
		c-67.693-3.079-123.801,4.002-125.341,15.833c-1.504,11.587,49.743,23.394,115.324,26.823
		c22.208,10.62,68.934,19.327,123.792,21.839c78.11,3.587,143.142-6.761,145.271-23.07
		C2959.332,2860.931,2897.74,2844.796,2819.634,2841.226z"/>
	<polygon fill="#F2F1EA" stroke="#989898" stroke-width="2" points="3001.192,2795.054 3001.192,1328.853 5343.698,1615.931
		5343.698,2586.954 	"/>
	<polygon fill="#E2DBCC" points="4604.202,2671.261 4604.202,1530.4 5210.033,1604.646 5210.033,2615.327 	"/>
	<polygon fill="#F2F1EA" stroke="#989898" stroke-width="2" points="5343.698,1603.138 2998.483,1309.196 2998.483,1335.406
		5343.698,1620.489 	"/>
	<polygon fill="none" stroke="#989898" stroke-width="2" points="5343.698,1746.765 2998.483,1526.152 2998.483,1552.362
		5343.698,1764.116 	"/>
	<linearGradient id="SVGID_3_" gradientUnits="userSpaceOnUse" x1="3746.7708" y1="2563.4927" x2="3746.7708" y2="1364.6467">
		<stop  offset="0" style="stop-color:#D4DDDF"/>
		<stop  offset="1" style="stop-color:#AFD3D7"/>
	</linearGradient>
	<polygon fill="url(#SVGID_3_)" stroke="#000000" stroke-width="2" points="3543.198,1964.835 3543.198,2540.055 3950.343,2516.929
		3950.343,1978.336 	"/>
	<linearGradient id="SVGID_4_" gradientUnits="userSpaceOnUse" x1="4187.811" y1="2536.824" x2="4187.811" y2="1420.6711">
		<stop  offset="0" style="stop-color:#D4DDDF"/>
		<stop  offset="1" style="stop-color:#AFD3D7"/>
	</linearGradient>
	<polygon fill="url(#SVGID_4_)" stroke="#000000" stroke-width="2" points="3984.243,1979.46 3984.243,2515.003 4391.379,2491.877
		4391.379,1992.961 	"/>
	<linearGradient id="SVGID_5_" gradientUnits="userSpaceOnUse" x1="3304.196" y1="2590.2542" x2="3304.196" y2="1308.4276">
		<stop  offset="0" style="stop-color:#D4DDDF"/>
		<stop  offset="1" style="stop-color:#AFD3D7"/>
	</linearGradient>
	<polygon fill="url(#SVGID_5_)" stroke="#000000" stroke-width="2" points="3100.621,1950.159 3100.621,2565.194 3507.771,2542.068
		3507.771,1963.66 	"/>
	<polygon fill="#DAD5BF" stroke="#989898" stroke-width="2" points="5343.693,2603.093 5343.693,2654.296 2998.917,2896.197
		2998.917,2817.187 	"/>
	<linearGradient id="SVGID_6_" gradientUnits="userSpaceOnUse" x1="3303.2944" y1="1951.7275" x2="3303.2944" y2="1825.3997">
		<stop  offset="0" style="stop-color:#FDB714"/>
		<stop  offset="1" style="stop-color:#FED208"/>
	</linearGradient>
	<polygon fill="url(#SVGID_6_)" points="3063.781,1644.246 3542.808,1681.505 3542.808,1966.144 3063.781,1950.208 	"/>
	<line fill="none" stroke="#F5831F" stroke-width="2" x1="3132.319" y1="1952.488" x2="3132.319" y2="1649.577"/>
	<line fill="none" stroke="#F5831F" stroke-width="2" x1="3200.887" y1="1954.769" x2="3200.887" y2="1654.91"/>
	<line fill="none" stroke="#F5831F" stroke-width="2" x1="3269.449" y1="1957.05" x2="3269.449" y2="1660.243"/>
	<line fill="none" stroke="#F5831F" stroke-width="2" x1="3338.016" y1="1959.331" x2="3338.016" y2="1665.576"/>
	<line fill="none" stroke="#F5831F" stroke-width="2" x1="3406.581" y1="1961.612" x2="3406.581" y2="1670.909"/>
	<line fill="none" stroke="#F5831F" stroke-width="2" x1="3475.143" y1="1963.893" x2="3475.143" y2="1676.242"/>
	<linearGradient id="SVGID_7_" gradientUnits="userSpaceOnUse" x1="3782.7122" y1="1968.6328" x2="3782.7122" y2="1850.6799">
		<stop  offset="0" style="stop-color:#FDB714"/>
		<stop  offset="1" style="stop-color:#FED208"/>
	</linearGradient>
	<polygon fill="url(#SVGID_7_)" points="3543.198,1681.536 4022.226,1718.796 4022.226,1982.094 3543.198,1966.157 	"/>
	<line fill="none" stroke="#F5831F" stroke-width="2" x1="3611.737" y1="1968.438" x2="3611.737" y2="1686.867"/>
	<line fill="none" stroke="#F5831F" stroke-width="2" x1="3680.304" y1="1970.719" x2="3680.304" y2="1692.2"/>
	<line fill="none" stroke="#F5831F" stroke-width="2" x1="3748.867" y1="1973" x2="3748.867" y2="1697.533"/>
	<line fill="none" stroke="#F5831F" stroke-width="2" x1="3817.434" y1="1975.281" x2="3817.434" y2="1702.866"/>
	<line fill="none" stroke="#F5831F" stroke-width="2" x1="3885.999" y1="1977.562" x2="3885.999" y2="1708.199"/>
	<line fill="none" stroke="#F5831F" stroke-width="2" x1="3954.56" y1="1979.843" x2="3954.56" y2="1713.532"/>

		<linearGradient id="SVGID_8_" gradientUnits="userSpaceOnUse" x1="4223.9214" y1="1984.1503" x2="4223.9214" y2="1875.4279" gradientTransform="matrix(1 0.0037 -0.0037 1 6.8564 -16.3667)">
		<stop  offset="0" style="stop-color:#FDB714"/>
		<stop  offset="1" style="stop-color:#FED208"/>
	</linearGradient>
	<polygon fill="url(#SVGID_8_)" points="4022.602,1717.874 4426.035,1751.092 4425.286,1996.389 4021.853,1982.137 	"/>
	<line fill="none" stroke="#F5831F" stroke-width="2" x1="4090.764" y1="1984.374" x2="4090.764" y2="1724.127"/>
	<line fill="none" stroke="#F5831F" stroke-width="2" x1="4159.332" y1="1986.655" x2="4159.332" y2="1729.46"/>
	<line fill="none" stroke="#F5831F" stroke-width="2" x1="4227.894" y1="1988.936" x2="4227.894" y2="1734.793"/>
	<line fill="none" stroke="#F5831F" stroke-width="2" x1="4296.461" y1="1991.217" x2="4296.461" y2="1740.126"/>
	<line fill="none" stroke="#F5831F" stroke-width="2" x1="4365.026" y1="1993.498" x2="4365.026" y2="1745.459"/>
	<radialGradient id="SVGID_9_" cx="5145.8721" cy="1617.7466" r="515.1592" gradientUnits="userSpaceOnUse">
		<stop  offset="0.2198" style="stop-color:#FED208"/>
		<stop  offset="1" style="stop-color:#FDB714"/>
	</radialGradient>
	<path fill="url(#SVGID_9_)" d="M5134.506,1822.27c13.24,0.983,23.974,59.837,23.974,131.439l19.172,0.903
		c0-76.803-19.31-140.535-43.146-142.354c-13.547-1.034-25.647,17.025-33.552,46.176c-7.905-30.295-20.003-50.264-33.551-51.298
		c-23.819-1.818-43.147,60.97-43.147,140.249l19.171,0.903c0-73.325,10.732-131.983,23.977-131
		c13.227,0.982,23.964,56.12,23.964,123.146l19.175,0.943C5110.542,1874.616,5121.271,1821.287,5134.506,1822.27"/>
	<g>
		<polygon fill="#E3E2DC" stroke="#989898" stroke-width="2" points="928.06,2473.591 928.06,1428.488 3001.871,1335.488
			3001.871,2802.259 		"/>
		<linearGradient id="SVGID_10_" gradientUnits="userSpaceOnUse" x1="1863.0018" y1="2685.3723" x2="1863.0018" y2="1108.3242">
			<stop  offset="0" style="stop-color:#D4DDDF"/>
			<stop  offset="1" style="stop-color:#AFD3D7"/>
		</linearGradient>
		<polygon fill="url(#SVGID_10_)" points="1643.473,1897.855 1643.473,2584.957 2082.531,2654.541 2082.531,1915.917 		"/>
		<linearGradient id="SVGID_11_" gradientUnits="userSpaceOnUse" x1="2439.9338" y1="2779.5652" x2="2439.9338" y2="1061.4204">
			<stop  offset="0" style="stop-color:#D4DDDF"/>
			<stop  offset="1" style="stop-color:#AFD3D7"/>
		</linearGradient>
		<polygon fill="url(#SVGID_11_)" points="2220.41,1921.589 2220.41,2676.393 2659.458,2745.976 2659.458,1939.651 		"/>
		<linearGradient id="SVGID_12_" gradientUnits="userSpaceOnUse" x1="1285.7917" y1="2591.134" x2="1285.7917" y2="1155.251">
			<stop  offset="0" style="stop-color:#D4DDDF"/>
			<stop  offset="1" style="stop-color:#AFD3D7"/>
		</linearGradient>
		<polygon fill="url(#SVGID_12_)" points="1066.26,1874.109 1066.26,2493.478 1505.323,2563.062 1505.323,1892.171 		"/>
		<polygon fill="#E6E3D4" points="1643.473,2523.658 1643.473,2586.973 2082.531,2656.557 2082.531,2588.494 		"/>
		<polygon fill="#E6E3D4" points="2220.41,2607.847 2220.41,2677.401 2659.458,2746.984 2659.458,2672.682 		"/>
		<polygon fill="#E6E3D4" points="1066.26,2438.42 1066.26,2495.494 1505.323,2565.079 1505.323,2503.257 		"/>
		<polygon fill="#DAD5BF" stroke="#989898" stroke-width="2" points="2998.917,2817.187 2998.917,2896.197 930.571,2540.677
			930.571,2483.146 		"/>
		<polygon fill="#F2F1EA" stroke="#989898" stroke-width="2" points="2999.359,1309.4 930.575,1409.691 930.575,1428.375
			2999.359,1335.6 		"/>
		<polygon fill="#F2F1EA" stroke="#989898" stroke-width="2" points="3002.184,1526.2 907.31,1565.026 907.31,1583.626
			3002.184,1552.485 		"/>
		<line fill="none" stroke="#FFFFFF" stroke-width="2" x1="1643.052" y1="2521.511" x2="2082.112" y2="2586.191"/>
		<line fill="none" stroke="#FFFFFF" stroke-width="2" x1="2219.845" y1="2606.481" x2="2658.906" y2="2671.162"/>
		<line fill="none" stroke="#FFFFFF" stroke-width="2" x1="1066.26" y1="2436.54" x2="1505.323" y2="2501.221"/>
		<line fill="none" stroke="#FFFFFF" stroke-width="2" x1="2082.112" y1="2563.889" x2="1643.052" y2="2500.764"/>
		<line fill="none" stroke="#FFFFFF" stroke-width="2" x1="2658.906" y1="2646.816" x2="2219.845" y2="2583.691"/>
		<line fill="none" stroke="#FFFFFF" stroke-width="2" x1="1505.323" y1="2480.963" x2="1066.26" y2="2417.838"/>
		<polygon fill="none" stroke="#000000" stroke-width="2" points="1643.473,1897.855 1643.473,2584.957 2082.531,2654.541
			2082.531,1915.917 		"/>
		<polygon fill="none" stroke="#000000" stroke-width="2" points="2220.41,1921.589 2220.41,2676.393 2659.458,2745.976
			2659.458,1939.651 		"/>
		<polygon fill="none" stroke="#000000" stroke-width="2" points="1066.26,1874.109 1066.26,2493.478 1505.323,2563.062
			1505.323,1892.171 		"/>
		<linearGradient id="SVGID_13_" gradientUnits="userSpaceOnUse" x1="2437.5461" y1="1929.1969" x2="2437.5461" y2="1813.1251">
			<stop  offset="0" style="stop-color:#FDB714"/>
			<stop  offset="1" style="stop-color:#FED208"/>
		</linearGradient>
		<polygon fill="url(#SVGID_13_)" points="2179.255,1647.599 2695.837,1646.678 2695.837,1942.443 2179.255,1921.246 		"/>
		<linearGradient id="SVGID_14_" gradientUnits="userSpaceOnUse" x1="1284.8195" y1="1884.1055" x2="1284.8195" y2="1787.4033">
			<stop  offset="0" style="stop-color:#FDB714"/>
			<stop  offset="1" style="stop-color:#FED208"/>
		</linearGradient>
		<polygon fill="url(#SVGID_14_)" points="1026.532,1649.653 1543.107,1648.733 1543.107,1895.141 1026.532,1873.944 		"/>
		<linearGradient id="SVGID_15_" gradientUnits="userSpaceOnUse" x1="1862.0283" y1="1906.6842" x2="1862.0283" y2="1800.2831">
			<stop  offset="0" style="stop-color:#FDB714"/>
			<stop  offset="1" style="stop-color:#FED208"/>
		</linearGradient>
		<polygon fill="url(#SVGID_15_)" points="1603.742,1648.625 2120.314,1647.704 2120.314,1918.827 1603.742,1897.63 		"/>
		<g>
			<g>
				<line fill="none" stroke="#F5831F" stroke-width="2" x1="1100.443" y1="1876.977" x2="1100.443" y2="1649.521"/>
			</g>
			<g>
				<line fill="none" stroke="#F5831F" stroke-width="2" x1="1174.385" y1="1880.011" x2="1174.385" y2="1649.39"/>
			</g>
			<g>
				<line fill="none" stroke="#F5831F" stroke-width="2" x1="1248.321" y1="1883.045" x2="1248.321" y2="1649.258"/>
			</g>
			<g>
				<line fill="none" stroke="#F5831F" stroke-width="2" x1="1322.262" y1="1886.079" x2="1322.262" y2="1649.126"/>
			</g>
			<g>
				<line fill="none" stroke="#F5831F" stroke-width="2" x1="1396.202" y1="1889.113" x2="1396.202" y2="1648.994"/>
			</g>
			<g>
				<line fill="none" stroke="#F5831F" stroke-width="2" x1="1470.137" y1="1892.147" x2="1470.137" y2="1648.863"/>
			</g>
		</g>
		<g>
			<g>
				<line fill="none" stroke="#F5831F" stroke-width="2" x1="1675.598" y1="1900.578" x2="1675.598" y2="1648.497"/>
			</g>
			<g>
				<line fill="none" stroke="#F5831F" stroke-width="2" x1="1749.537" y1="1903.612" x2="1749.537" y2="1648.365"/>
			</g>
			<g>
				<line fill="none" stroke="#F5831F" stroke-width="2" x1="1823.477" y1="1906.646" x2="1823.477" y2="1648.233"/>
			</g>
			<g>
				<line fill="none" stroke="#F5831F" stroke-width="2" x1="1897.421" y1="1909.681" x2="1897.421" y2="1648.101"/>
			</g>
			<g>
				<line fill="none" stroke="#F5831F" stroke-width="2" x1="1971.359" y1="1912.715" x2="1971.359" y2="1647.969"/>
			</g>
			<g>
				<line fill="none" stroke="#F5831F" stroke-width="2" x1="2045.299" y1="1915.749" x2="2045.299" y2="1647.838"/>
			</g>
		</g>
		<g>
			<g>
				<line fill="none" stroke="#F5831F" stroke-width="2" x1="2255.101" y1="1924.358" x2="2255.101" y2="1647.464"/>
			</g>
			<g>
				<line fill="none" stroke="#F5831F" stroke-width="2" x1="2329.043" y1="1927.392" x2="2329.043" y2="1647.332"/>
			</g>
			<g>
				<line fill="none" stroke="#F5831F" stroke-width="2" x1="2402.977" y1="1930.426" x2="2402.977" y2="1647.2"/>
			</g>
			<g>
				<line fill="none" stroke="#F5831F" stroke-width="2" x1="2476.924" y1="1933.46" x2="2476.924" y2="1647.069"/>
			</g>
			<g>
				<line fill="none" stroke="#F5831F" stroke-width="2" x1="2550.868" y1="1936.495" x2="2550.868" y2="1646.937"/>
			</g>
			<g>
				<line fill="none" stroke="#F5831F" stroke-width="2" x1="2624.798" y1="1939.528" x2="2624.798" y2="1646.805"/>
			</g>
		</g>
		<polygon fill="#FFFFFF" stroke="#989898" stroke-width="2" points="2162.439,1806.248 2712.664,1818.959 2712.664,1836.648
			2162.439,1822.531 		"/>
		<polygon fill="#FFFFFF" stroke="#989898" stroke-width="2" points="1586.915,1792.952 2137.141,1805.663 2137.141,1821.882
			1586.915,1807.765 		"/>
		<polygon fill="#FFFFFF" stroke="#989898" stroke-width="2" points="1009.711,1779.617 1559.931,1792.328 1559.931,1807.073
			1009.711,1792.956 		"/>
		<radialGradient id="SVGID_16_" cx="2475.3845" cy="1181.8383" r="1852.7079" gradientUnits="userSpaceOnUse">
			<stop  offset="0.2198" style="stop-color:#FED208"/>
			<stop  offset="1" style="stop-color:#FDB714"/>
		</radialGradient>
		<path fill="url(#SVGID_16_)" d="M3140.372,1249.545c-763.108-237.368-1552.464-160.363-2322.726,127.615
			c0.607,47.156,0.607,82.021,0.607,130.775c745.333-296.288,1552.581-401.683,2318.863-187.152
			C3138.989,1294.069,3139.894,1274.319,3140.372,1249.545z"/>
		<radialGradient id="SVGID_17_" cx="2907.7419" cy="1439.292" r="703.2437" gradientUnits="userSpaceOnUse">
			<stop  offset="0.2198" style="stop-color:#FED208"/>
			<stop  offset="1" style="stop-color:#FDB714"/>
		</radialGradient>
		<path fill="url(#SVGID_17_)" d="M2895.485,1712.861c14.278,0.108,25.854,83.553,25.854,186.358l20.675,0.696
			c0-111.037-20.824-201.162-46.528-201.306c-14.609-0.081-27.657,26.618-36.182,68.34c-8.524-41.881-21.571-68.662-36.181-68.744
			c-25.686-0.143-46.53,87.668-46.53,196.138l20.674,0.696c0-101.016,11.574-182.836,25.856-182.728
			c14.264,0.108,25.842,76.357,25.842,170.295l20.678,0.655C2869.643,1789.049,2881.213,1712.753,2895.485,1712.861"/>
		<polygon fill="#F2F1EA" stroke="#989898" stroke-width="2" points="2999.356,2795.325 930.572,2469.329 930.572,2486.592
			2999.356,2819.533 		"/>
		<polygon fill="#F2F1EA" stroke="#989898" stroke-width="2" points="5343.694,2586.955 2998.48,2795.295 2998.48,2819.512
			5343.694,2602.986 		"/>
	</g>
	<path fill="#A2A192" d="M2946.868,2887.251c0,0,20.37-18.355,0-56.164c-46.26,18.493-68.864,44.327-68.864,44.327
		L2946.868,2887.251z"/>
	<g>

			<radialGradient id="SVGID_18_" cx="2737.855" cy="2715.9211" r="132.2991" gradientTransform="matrix(1 0 0 1 0.002 0)" gradientUnits="userSpaceOnUse">
			<stop  offset="0" style="stop-color:#A6CE38"/>
			<stop  offset="0.2195" style="stop-color:#84A838"/>
			<stop  offset="0.6896" style="stop-color:#3D632D"/>
			<stop  offset="1" style="stop-color:#0E3D1F"/>
		</radialGradient>
		<path fill="url(#SVGID_18_)" d="M2583.019,2789.774c0-33.979,100.986-61.824,100.233-61.535
			c-0.739,0.272,100.249,27.556,100.249,61.535c0,33.995-44.892,61.56-100.249,61.56
			C2627.891,2851.333,2583.019,2823.769,2583.019,2789.774z"/>
		<g>

				<radialGradient id="SVGID_19_" cx="2853.0645" cy="2729.783" r="145.4743" gradientTransform="matrix(1 0 0 1.0801 0 -312.6707)" gradientUnits="userSpaceOnUse">
				<stop  offset="0" style="stop-color:#A6CE38"/>
				<stop  offset="0.2195" style="stop-color:#84A838"/>
				<stop  offset="0.6896" style="stop-color:#3D632D"/>
				<stop  offset="1" style="stop-color:#0E3D1F"/>
			</radialGradient>
			<path fill="url(#SVGID_19_)" d="M2907.914,2722.502c0,39.924-53.927,72.305-120.447,72.305
				c-66.529,0-120.47-32.381-120.47-72.305c0-39.913,53.941-72.271,120.47-72.271
				C2853.987,2650.231,2907.914,2682.589,2907.914,2722.502z"/>
		</g>

			<radialGradient id="SVGID_20_" cx="2891.7363" cy="2708.8013" r="181.2016" gradientTransform="matrix(1 0 0 1 0.002 0)" gradientUnits="userSpaceOnUse">
			<stop  offset="0" style="stop-color:#A6CE38"/>
			<stop  offset="0.2195" style="stop-color:#84A838"/>
			<stop  offset="0.6896" style="stop-color:#3D632D"/>
			<stop  offset="1" style="stop-color:#0E3D1F"/>
		</radialGradient>
		<path fill="url(#SVGID_20_)" d="M2679.683,2809.967c0-46.557,138.3-84.675,137.281-84.296
			c-1.024,0.391,137.285,37.739,137.285,84.296c0,46.565-61.459,84.301-137.285,84.301
			C2741.142,2894.268,2679.683,2856.532,2679.683,2809.967z"/>
		<g opacity="0.5">
			<path fill="#CBEAED" d="M2583.019,2789.774c0-33.979,100.986-61.824,100.233-61.535c-0.739,0.272,100.249,27.556,100.249,61.535
				c0,33.995-44.892,61.56-100.249,61.56C2627.891,2851.333,2583.019,2823.769,2583.019,2789.774z"/>
			<g>
				<path fill="#CBEAED" d="M2907.914,2722.502c0,39.924-53.927,72.305-120.447,72.305c-66.529,0-120.47-32.381-120.47-72.305
					c0-39.913,53.941-72.271,120.47-72.271C2853.987,2650.231,2907.914,2682.589,2907.914,2722.502z"/>
			</g>
			<path fill="#CBEAED" d="M2679.683,2809.967c0-46.557,138.3-84.675,137.281-84.296c-1.024,0.391,137.285,37.739,137.285,84.296
				c0,46.565-61.459,84.301-137.285,84.301C2741.142,2894.268,2679.683,2856.532,2679.683,2809.967z"/>
		</g>
	</g>
	<g>

			<rect x="609.343" y="2939.525" fill="#141414" stroke="#231F20" stroke-width="0.5" stroke-miterlimit="10" width="10.219" height="290.446"/>
	</g>
	<path fill="#FFFFFF" stroke="#231F20" stroke-width="2" stroke-miterlimit="10" d="M812.178,2025.839
		c-27.216,2.169-56.196,5.032-85.003,13.919c-35.488,10.948-61.79,28.413-80.406,53.394
		c-38.898,52.198-39.555,110.648-39.564,113.138v787.354l13.433-17.084c26.876-34.181,61.352-58.816,102.466-73.222
		c33.873-11.867,63.723-13.638,78.502-13.638c6.59,0,10.421,0.352,10.451,0.355l8.239,0.791v-865.655L812.178,2025.839z"/>
	<polygon fill="#E6E7E8" points="465.816,2573.195 1.008,2379.308 1.008,2349.828 461.925,2543.44 	"/>
	<polygon fill="#B4B4B4" points="235.166,480.871 250.294,476.64 679.899,476.64 690.423,480.902 	"/>
	<path fill="#3E3E3E" d="M447.825,643.145l30.758,6.066v1919.467c0,0-3.47,5.538-14.93,5.538c-11.458,0-15.828-11.604-15.828-11.604
		V643.145z"/>
	<polygon fill="#3E3E3E" points="594.413,660.135 331.878,660.135 324.515,642.783 601.776,642.783 	"/>
	<polygon fill="#3E3E3E" points="594.413,660.135 331.878,660.135 324.515,642.783 601.776,642.783 	"/>
	<polygon fill="#3E3E3E" points="595.622,648.405 330.673,648.405 323.312,641.813 602.988,641.813 	"/>
	<polygon fill="#3E3E3E" points="478.444,665.959 447.99,665.959 447.144,659.371 479.29,659.371 	"/>
	<polygon fill="#8C8C8C" points="666.071,641.678 262.667,641.678 235.868,481.356 690.423,481.356 	"/>
	<path fill="#5D5555" d="M551.183,228.616c31.363,0,56.792,132.231,56.792,295.346h45.448c0-175.659-45.778-318.068-102.24-318.068
		c-32.121,0-60.78,42.796-79.525,109.72c-18.735-66.924-47.404-109.72-79.529-109.72c-56.451,0-102.236,142.409-102.236,318.068
		h45.447c0-163.115,25.436-295.346,56.789-295.346c31.374,0,56.812,122.063,56.812,272.633h45.44
		C494.381,350.679,519.814,228.616,551.183,228.616z"/>
	<radialGradient id="SVGID_21_" cx="349.9104" cy="194.5013" r="394.8495" gradientUnits="userSpaceOnUse">
		<stop  offset="0.2198" style="stop-color:#FED208"/>
		<stop  offset="1" style="stop-color:#FDB714"/>
	</radialGradient>
	<path fill="url(#SVGID_21_)" d="M546.028,228.616c31.362,0,56.791,132.231,56.791,295.346h45.447
		c0-175.659-45.78-318.068-102.237-318.068c-32.124,0-60.782,42.796-79.521,109.72c-18.744-66.924-47.409-109.72-79.531-109.72
		c-56.455,0-102.238,142.409-102.238,318.068h45.448c0-163.115,25.431-295.346,56.789-295.346
		c31.373,0,56.813,122.063,56.813,272.633h45.436C489.225,350.679,514.661,228.616,546.028,228.616z"/>
	<polygon fill="#3E3E3E" points="341.72,597.665 330.967,597.665 330.967,562.995 321.589,597.665 311.601,597.665 302.29,562.995
		302.29,597.665 291.543,597.665 291.543,551.762 308.217,551.762 316.563,583.046 325.246,551.762 341.72,551.762 	"/>
	<path fill="#3E3E3E" d="M372.671,575.405c-1.859-3.588-3.789-5.035-6.827-5.035c-4.618,0-7.579,4.065-7.579,10.477
		c0,6.135,2.961,9.994,7.79,9.994c3.096,0,5.17-1.584,6.82-5.106l7.655,4.209c-4.07,6.34-8.481,8.829-15.096,8.829
		c-10.821,0-17.784-6.897-17.784-17.717c0-11.168,6.963-18.545,17.575-18.545c6.683,0,11.713,2.895,15.169,8.683L372.671,575.405z"
		/>
	<g>
		<path fill="#3E3E3E" d="M450.074,591.259c5.108,0,8.135-3.862,8.135-10.549c0-6.691-2.961-10.61-8.135-10.61
			c-5.098,0.068-8.134,3.919-8.069,10.61C442.005,587.398,444.976,591.259,450.074,591.259v7.516
			c-11.231,0-18.47-6.967-18.47-18.065c0-11.093,7.168-18.198,18.47-18.198c11.304,0.069,18.479,7.104,18.479,18.198
			c-0.071,11.098-7.244,18.065-18.479,18.065V591.259z"/>
	</g>
	<g>
		<path fill="#FFFFFF" d="M448.706,589.891c5.108,0,8.135-3.862,8.135-10.549c0-6.691-2.961-10.61-8.135-10.61
			c-5.098,0.068-8.134,3.919-8.069,10.61C440.637,586.03,443.608,589.891,448.706,589.891v7.516c-11.231,0-18.47-6.967-18.47-18.065
			c0-11.093,7.168-18.198,18.47-18.198c11.304,0.069,18.479,7.104,18.479,18.198c-0.071,11.098-7.244,18.065-18.479,18.065V589.891z
			"/>
	</g>
	<path fill="#3E3E3E" d="M484.127,563.685v2.824c2.96-2.68,5.512-3.716,9.573-3.716c3.932,0,7.38,1.44,9.035,3.853
		c1.239,1.656,1.654,3.724,1.654,7.372v23.646h-10.202v-19.92c0-5.032-1.235-6.688-4.958-6.688c-3.865,0-5.24,1.932-5.24,7.378
		v19.229h-10.205v-33.98H484.127z"/>
	<path fill="#3E3E3E" d="M521.554,598.562c-6.964,0-11.854-4.198-11.854-10.342c0-6.205,4.341-9.784,13.922-11.515l7.581-1.369
		v-1.929c0-2.685-1.443-4.002-4.414-4.002c-2.826,0-4.549,1.317-5.095,4.002h-10.413c0.482-7.378,5.175-10.613,15.161-10.613
		c9.864,0,14.826,3.301,14.826,9.997v20.946c0,1.858,0.071,2.274,0.896,3.928h-9.995v-3.03
		C528.171,597.596,525.48,598.562,521.554,598.562l2.62-7.516c4.273,0,7.029-3.24,7.029-8.272c0-0.265,0-0.687,0-1.234l-5.17,1.369
		c-4.136,1.178-5.997,2.627-5.997,4.755c0,2.004,1.724,3.381,4.137,3.381L521.554,598.562z"/>
	<path fill="#FFFFFF" d="M520.186,597.194c-6.964,0-11.854-4.198-11.854-10.342c0-6.205,4.341-9.784,13.922-11.515l7.581-1.369
		v-1.929c0-2.685-1.443-4.002-4.414-4.002c-2.826,0-4.549,1.317-5.095,4.002h-10.413c0.482-7.378,5.175-10.613,15.161-10.613
		c9.864,0,14.826,3.301,14.826,9.997v20.946c0,1.858,0.071,2.274,0.896,3.928H530.8v-3.03
		C526.802,596.228,524.112,597.194,520.186,597.194l2.62-7.516c4.273,0,7.029-3.24,7.029-8.272c0-0.265,0-0.687,0-1.234l-5.17,1.369
		c-4.136,1.178-5.997,2.627-5.997,4.755c0,2.004,1.724,3.381,4.137,3.381L520.186,597.194z"/>
	<rect x="547.543" y="551.762" fill="#3E3E3E" width="10.197" height="45.904"/>
	<path fill="#3E3E3E" d="M572.835,580.71c0,6.688,2.408,10.337,6.757,10.337c4.485,0,7.095-3.781,7.095-10.199
		c0-6.829-2.409-10.477-7.027-10.477C575.179,570.371,572.835,573.954,572.835,580.71l-9.927-0.34
		c0-10.966,5.515-17.576,14.544-17.576c3.794,0,6.344,1.107,8.893,3.919v-14.952h10.271v45.904h-9.649v-3.097
		c-2.962,2.823-5.861,3.994-9.449,3.994c-8.889,0-14.611-7.033-14.611-18.192L572.835,580.71z"/>
	<path fill="#FFFFFF" d="M571.467,579.342c0,6.688,2.408,10.337,6.757,10.337c4.485,0,7.095-3.781,7.095-10.199
		c0-6.829-2.409-10.477-7.027-10.477C573.811,569.003,571.467,572.586,571.467,579.342l-9.927-0.34
		c0-10.966,5.515-17.576,14.544-17.576c3.794,0,6.344,1.107,8.893,3.919v-14.952h10.272v45.904H585.6V593.2
		c-2.962,2.823-5.861,3.994-9.449,3.994c-8.889,0-14.611-7.033-14.611-18.192L571.467,579.342z"/>
	<path fill="#3E3E3E" d="M615.918,561.273c0,7.099-3.587,11.374-10.818,13.096v-4.753c2.896-1.17,3.923-2.826,3.991-6.621H605.1
		v-11.234h10.818V561.273z"/>
	<path fill="#3E3E3E" d="M646.796,573.683c-3.38-2.553-5.928-3.582-8.824-3.582c-2.755,0-4.614,1.029-4.614,2.479
		c0,1.236,0.965,1.857,3.79,2.547l4.621,1.173c4.685,1.239,7.098,2.205,8.959,3.861c1.787,1.51,2.756,3.862,2.756,6.542
		c0,7.102-6.62,12.073-15.925,12.073c-6.34,0-12.059-2.349-17.024-7.107l6.549-5.653c3.381,3.582,6.618,5.244,10.274,5.244
		c3.305,0,5.58-1.314,5.58-3.318c0-1.57-1.041-2.343-4.135-2.892l-2.964-0.61c-9.239-1.802-12.823-4.698-12.823-10.276
		c0-6.754,6.067-11.65,14.472-11.65c5.38,0,10.755,1.857,15.721,5.379L646.796,573.683z"/>
	<polygon fill="#FFFFFF" points="340.108,596.299 329.356,596.299 329.356,561.624 319.983,596.299 309.987,596.299
		300.679,561.624 300.679,596.299 289.925,596.299 289.925,550.393 306.61,550.393 314.946,581.678 323.635,550.393
		340.108,550.393 	"/>
	<path fill="#FFFFFF" d="M371.056,574.031c-1.859-3.583-3.789-5.032-6.825-5.032c-4.615,0-7.578,4.062-7.578,10.475
		c0,6.141,2.963,10,7.786,10c3.104,0,5.164-1.593,6.825-5.104l7.65,4.207c-4.066,6.34-8.475,8.827-15.098,8.827
		c-10.816,0-17.779-6.9-17.779-17.72c0-11.17,6.964-18.537,17.582-18.537c6.681,0,11.714,2.893,15.16,8.686L371.056,574.031z"/>
	<path fill="#3E3E3E" d="M386.317,597.665v-45.906h16.745c16.413,0,24.406,7.513,24.406,22.945c0,15.442-7.993,22.961-24.406,22.961
		H386.317l11.715-9.658h5.447c8.336,0,12.272-4.201,12.272-13.303c0-9.092-3.936-13.302-12.272-13.302h-5.447v26.605
		L386.317,597.665z"/>
	<path fill="#FFFFFF" d="M482.515,562.308v2.829c2.96-2.689,5.516-3.724,9.577-3.724c3.933,0,7.379,1.449,9.032,3.862
		c1.242,1.659,1.655,3.724,1.655,7.38v23.643h-10.206v-19.926c0-5.034-1.235-6.685-4.955-6.685c-3.864,0-5.243,1.932-5.243,7.37
		v19.241h-10.2v-33.991H482.515z"/>
	<rect x="545.929" y="550.393" fill="#FFFFFF" width="10.197" height="45.906"/>
	<path fill="#FFFFFF" d="M614.305,559.905c0,7.098-3.585,11.363-10.818,13.096v-4.759c2.894-1.17,3.929-2.835,3.992-6.619h-3.992
		v-11.231h10.818V559.905z"/>
	<path fill="#FFFFFF" d="M645.185,572.308c-3.378-2.548-5.929-3.588-8.825-3.588c-2.753,0-4.614,1.04-4.614,2.484
		c0,1.242,0.965,1.857,3.787,2.556l4.618,1.162c4.692,1.248,7.103,2.208,8.965,3.859c1.791,1.523,2.76,3.867,2.76,6.556
		c0,7.101-6.623,12.067-15.925,12.067c-6.344,0-12.066-2.346-17.024-7.105l6.543-5.65c3.384,3.581,6.621,5.23,10.273,5.23
		c3.305,0,5.584-1.303,5.584-3.301c0-1.592-1.037-2.346-4.14-2.901l-2.965-0.615c-9.232-1.794-12.819-4.687-12.819-10.268
		c0-6.759,6.074-11.648,14.477-11.648c5.38,0,10.754,1.852,15.721,5.366L645.185,572.308z"/>
	<rect x="447.825" y="1060.492" opacity="0.5" fill="#3E3E3E" width="30.553" height="6.161"/>
	<polygon opacity="0.5" fill="#3E3E3E" points="447.825,1303.405 478.378,1303.405 478.378,1315.053 447.825,1309.568 	"/>
	<polygon opacity="0.31" fill="#3E3E3E" points="335.451,526.118 329.954,527.821 328.348,527.705 284.739,524.536 284.739,523.136
		335.451,523.136 	"/>
	<polygon opacity="0.31" fill="#3E3E3E" points="653.061,526.033 647.562,527.724 645.954,527.617 602.347,524.453 602.347,523.054
		653.061,523.054 	"/>
	<polygon opacity="0.31" fill="#3E3E3E" points="493.839,503.669 488.341,505.376 486.738,505.254 443.131,502.096 443.131,500.689
		493.839,500.689 	"/>
	<g>
		<path fill="#4C4E50" d="M156.178,1306.513c-1.085,0-1.972-0.887-1.972-1.972v-236.135c0-1.085,0.887-1.972,1.972-1.972h609.934
			c1.085,0,1.972,0.887,1.972,1.972v236.135c0,1.085-0.887,1.972-1.972,1.972H156.178z"/>
		<path fill="none" stroke="#939598" stroke-width="0.1461" d="M156.178,1306.513c-1.085,0-1.972-0.887-1.972-1.972v-236.135
			c0-1.085,0.887-1.972,1.972-1.972h609.934c1.085,0,1.972,0.887,1.972,1.972v236.135c0,1.085-0.887,1.972-1.972,1.972H156.178z"/>
	</g>
	<g>

			<linearGradient id="SVGID_22_" gradientUnits="userSpaceOnUse" x1="-56.2608" y1="6243.0522" x2="-56.2608" y2="5725.2119" gradientTransform="matrix(0 1 -1 0 6358.4165 1242.7319)">
			<stop  offset="0" style="stop-color:#636363"/>
			<stop  offset="1" style="stop-color:#000000"/>
		</linearGradient>
		<path fill="url(#SVGID_22_)" d="M157.287,1305.638c-1.076,0-1.956-0.88-1.956-1.956V1069.26c0-1.076,0.88-1.956,1.956-1.956
			h608.072c1.076,0,1.956,0.88,1.956,1.956v234.422c0,1.076-0.88,1.956-1.956,1.956H157.287z"/>
		<path fill="none" stroke="#939598" stroke-width="0.1478" d="M157.287,1305.638c-1.076,0-1.956-0.88-1.956-1.956V1069.26
			c0-1.076,0.88-1.956,1.956-1.956h608.072c1.076,0,1.956,0.88,1.956,1.956v234.422c0,1.076-0.88,1.956-1.956,1.956H157.287z"/>
	</g>

		<linearGradient id="SVGID_23_" gradientUnits="userSpaceOnUse" x1="5030.3931" y1="6698.7988" x2="5030.3931" y2="6518.7666" gradientTransform="matrix(-1 0 0 -1 5491.7476 7748.6772)">
		<stop  offset="0" style="stop-color:#525252"/>
		<stop  offset="1" style="stop-color:#000000"/>
	</linearGradient>
	<path fill="url(#SVGID_23_)" d="M158.581,1071.83c0-1.009,0.826-1.834,1.835-1.834h601.88c1.009,0,1.834,0.825,1.833,1.834
		l-0.141,228.112c-0.001,1.009-0.827,1.836-1.836,1.839l-601.736,1.416c-1.009,0.002-1.835-0.821-1.835-1.83V1071.83z"/>
	<rect x="170.031" y="1081.505" fill="#F2F1EA" width="582.227" height="208.037"/>
	<line fill="none" stroke="#F5831F" stroke-width="2" x1="3543.704" y1="1969.458" x2="3543.704" y2="1681.807"/>
	<line fill="none" stroke="#F5831F" stroke-width="2" x1="4023.122" y1="1982.384" x2="4023.122" y2="1719.097"/>
	<polygon fill="#FFFFFF" stroke="#989898" stroke-width="2" points="3048.183,1821.254 4437.708,1892.375 4437.708,1909.316
		3048.183,1839.55 	"/>
	<g>
		<g>
			<g>
				<linearGradient id="SVGID_24_" gradientUnits="userSpaceOnUse" x1="4924.8477" y1="2607.0657" x2="4924.8477" y2="2121.4255">
					<stop  offset="0.0337" style="stop-color:#525252"/>
					<stop  offset="1" style="stop-color:#ABABAB"/>
				</linearGradient>
				<path fill="url(#SVGID_24_)" d="M5059.741,2613.447c0,0.948-0.843,1.797-1.873,1.888l-266.042,23.264
					c-1.03,0.074-1.873-0.708-1.873-1.738v-640.433c0-1.03,0.843-1.81,1.873-1.732l266.041,23.224
					c1.03,0.102,1.873,0.961,1.873,1.909V2613.447z"/>
				<path fill="none" stroke="#FFFFFF" stroke-width="0.1404" d="M5059.741,2613.447c0,0.948-0.843,1.797-1.873,1.888
					l-266.042,23.264c-1.03,0.074-1.873-0.708-1.873-1.738v-640.433c0-1.03,0.843-1.81,1.873-1.732l266.041,23.224
					c1.03,0.102,1.873,0.961,1.873,1.909V2613.447z"/>
			</g>
			<g>
				<linearGradient id="SVGID_25_" gradientUnits="userSpaceOnUse" x1="4924.8481" y1="2623.5664" x2="4924.8481" y2="1845.4578">
					<stop  offset="0.0337" style="stop-color:#525252"/>
					<stop  offset="1" style="stop-color:#FFFFFF"/>
				</linearGradient>
				<path fill="url(#SVGID_25_)" d="M5050.414,2591.113c0,0.942-0.835,1.797-1.855,1.9l-247.421,21.932
					c-1.021,0.094-1.855-0.662-1.855-1.679V2012.45c0-1.018,0.834-1.79,1.855-1.717l247.421,20.472
					c1.02,0.095,1.855,0.944,1.855,1.886V2591.113z"/>
				<path fill="none" stroke="#FFFFFF" stroke-width="2" d="M5050.414,2591.113c0,0.942-0.835,1.797-1.855,1.9l-247.421,21.932
					c-1.021,0.094-1.855-0.662-1.855-1.679V2012.45c0-1.018,0.834-1.79,1.855-1.717l247.421,20.472
					c1.02,0.095,1.855,0.944,1.855,1.886V2591.113z"/>
			</g>
			<g>
				<linearGradient id="SVGID_26_" gradientUnits="userSpaceOnUse" x1="4808.6084" y1="2314.0337" x2="5041.0947" y2="2314.0337">
					<stop  offset="0" style="stop-color:#D4DDDF"/>
					<stop  offset="1" style="stop-color:#AFD3D7"/>
				</linearGradient>
				<path fill="url(#SVGID_26_)" d="M5041.095,2583.856c0,0.937-0.828,1.788-1.839,1.893l-228.809,20.68
					c-1.011,0.096-1.839-0.648-1.839-1.654v-581.437c0-1.006,0.828-1.772,1.839-1.702l228.809,18.029
					c1.011,0.089,1.839,0.929,1.839,1.866v535.88c0,0.937,0,2.469,0,3.406V2583.856z"/>
			</g>
		</g>
		<polygon fill="#808285" points="4839.804,2345.657 4801.298,2346.384 4801.298,2254.022 4839.804,2254.275 		"/>
	</g>
	<polygon fill="#939598" points="1229.203,1421.211 1229.203,1646.696 2557.927,1646.696 2557.927,1369.175 	"/>
	<polygon fill="#FFFFFF" points="1222.323,1415.166 1222.323,1640.65 2551.047,1640.65 2551.047,1363.13 	"/>
	<polygon fill="#D1D3D4" stroke="#FFFFFF" stroke-width="4" stroke-miterlimit="10" points="3160.927,2030.892 3160.927,2502.277
		3446.311,2485.596 3447.465,2040.672 	"/>
	<polygon fill="#D1D3D4" stroke="#FFFFFF" stroke-width="4" stroke-miterlimit="10" points="2293.707,1994.337 2294.861,2502.277
		2583.019,2548.193 2583.019,2009.932 	"/>
	<polygon fill="#D1D3D4" stroke="#FFFFFF" stroke-width="4" stroke-miterlimit="10" points="1714.52,1972.337 1714.52,2421.517
		2001.057,2463.596 2003.832,1987.932 	"/>
	<polygon fill="#D1D3D4" stroke="#FFFFFF" stroke-width="4" stroke-miterlimit="10" points="1138.19,1948.337 1139.095,2346.563
		1422.613,2383.625 1427.503,1963.932 	"/>
	<polygon fill="#D1D3D4" stroke="#FFFFFF" stroke-width="4" stroke-miterlimit="10" points="3605.598,2047.101 3605.598,2471.285
		3892.135,2457.423 3892.135,2057.564 	"/>
	<polygon fill="#D1D3D4" stroke="#FFFFFF" stroke-width="4" stroke-miterlimit="10" points="4044.542,2061.564 4044.542,2447.829
		4331.08,2434.886 4331.08,2070.736 	"/>
	<path fill="#FFFFFF" d="M384.706,596.299v-45.906h16.745c16.413,0,24.406,7.513,24.406,22.945c0,15.442-7.993,22.961-24.406,22.961
		H384.706l11.715-9.658h5.447c8.336,0,12.272-4.201,12.272-13.303c0-9.092-3.936-13.302-12.272-13.302h-5.447v26.605
		L384.706,596.299z"/>
</g>
<g id="Interactive">
	<rect x="5974.771" y="2092.679" fill="#FFFFFF" stroke="#808080" stroke-width="2" width="493.524" height="243.736"/>
	<polygon fill="#FFFFFF" points="5631.841,2444.277 5417.224,2444.277 5417.224,2042.341 5631.841,2042.341 5631.841,2444.277 	"/>
	<path fill="#FFFFFF" stroke="#231F20" stroke-width="2" stroke-miterlimit="10" d="M812.178,2025.839
		c-27.216,2.169-56.196,5.032-85.003,13.919c-35.488,10.948-61.79,28.413-80.406,53.394
		c-38.898,52.198-39.555,110.648-39.564,113.138v787.354l13.433-17.084c26.876-34.181,61.352-58.816,102.466-73.222
		c33.873-11.867,63.723-13.638,78.502-13.638c6.59,0,10.421,0.352,10.451,0.355l8.239,0.791v-865.655L812.178,2025.839z"/>
	<rect x="170.031" y="1081.505" fill="#F2F1EA" width="582.227" height="208.037"/>
	<polygon fill="#FFFFFF" points="1222.323,1415.166 1222.323,1640.65 2551.047,1640.65 2551.047,1363.13 	"/>
	<polygon fill="#D1D3D4" stroke="#FFFFFF" stroke-width="4" stroke-miterlimit="10" points="3160.927,2030.892 3160.927,2502.277
		3446.311,2485.596 3447.465,2040.672 	"/>
	<polygon fill="#D1D3D4" stroke="#FFFFFF" stroke-width="4" stroke-miterlimit="10" points="2293.707,1994.337 2294.861,2502.277
		2583.019,2548.193 2583.019,2009.932 	"/>
	<polygon fill="#D1D3D4" stroke="#FFFFFF" stroke-width="4" stroke-miterlimit="10" points="1714.52,1972.337 1714.52,2421.517
		2001.057,2463.596 2003.832,1987.932 	"/>
	<polygon fill="#D1D3D4" stroke="#FFFFFF" stroke-width="4" stroke-miterlimit="10" points="1138.19,1948.337 1139.095,2346.563
		1422.613,2383.625 1427.503,1963.932 	"/>
	<polygon fill="#D1D3D4" stroke="#FFFFFF" stroke-width="4" stroke-miterlimit="10" points="3605.598,2047.101 3605.598,2471.285
		3892.135,2457.423 3892.135,2057.564 	"/>
	<polygon fill="#D1D3D4" stroke="#FFFFFF" stroke-width="4" stroke-miterlimit="10" points="4044.542,2061.564 4044.542,2447.829
		4331.08,2434.886 4331.08,2070.736 	"/>
</g>
<g id="Text_Labels">
	<text transform="matrix(1 0 0 1 240.7385 1381.5869)"><tspan x="0" y="0" fill="#58595B" font-family="'Helvetica'" font-size="46.7214px">Graphic</tspan><tspan x="-109.138" y="56.066" fill="#58595B" font-family="'Helvetica'" font-size="46.7214px">Readerboard</tspan></text>

		<text transform="matrix(1.0139 0.1511 -0.0122 0.9999 1719.3853 2476.8333)" fill="#58595B" font-family="'Helvetica'" font-size="38.4457px">Window Element</text>

		<text transform="matrix(1.0036 -0.0524 -0.0192 0.9998 3611.6865 2520.9773)" fill="#58595B" font-family="'Helvetica'" font-size="38.6987px">Window Element</text>
	<text transform="matrix(1 -0.0537 0 1 1749.0613 1352.9543)" fill="#58595B" font-family="'Helvetica'" font-size="46.7214px">Rooftop Banner</text>
	<text transform="matrix(1 0 0 1 5372.8618 2753.259)"><tspan x="0" y="0" fill="#58595B" font-family="'Helvetica'" font-size="46.7214px">Free-Standing</tspan><tspan x="48.033" y="56.066" fill="#58595B" font-family="'Helvetica'" font-size="46.7214px">Pole Sign</tspan></text>
	<text transform="matrix(1 0 0 1 6054.2007 2064.249)" fill="#58595B" font-family="'Helvetica'" font-size="46.7214px">Playland Banner</text>
	<text transform="matrix(1 0 0 1 651.3231 3093.4541)"><tspan x="0" y="0" font-family="'Helvetica'" font-size="46.7214px">Roadside</tspan><tspan x="0" y="56.066" font-family="'Helvetica'" font-size="46.7214px">Banner</tspan></text>
</g>
</svg>
