<?xml version="1.0" encoding="utf-8"?>
<!-- Generator: Adobe Illustrator 19.2.1, SVG Export Plug-In . SVG Version: 6.00 Build 0)  -->
<svg version="1.1" id="Background" xmlns="http://www.w3.org/2000/svg" xmlns:xlink="http://www.w3.org/1999/xlink" x="0px" y="0px"
	 viewBox="0 0 3600 2782.08" enable-background="new 0 0 3600 2782.08" xml:space="preserve">
<polygon fill="#F2F1EA" stroke="#999999" stroke-linecap="round" stroke-linejoin="round" points="1078.938,2303.976 
	413.856,2303.976 413.856,2236.347 1078.938,2236.458 "/>
<path fill-rule="evenodd" clip-rule="evenodd" fill="#F7F8F8" d="M1037.901,2189.572c8.333,0.506,10.37-5.275,16.754-6.71
	c-2.317,6.618-8.938,8.935-16.754,10.052C1037.901,2191.802,1037.901,2190.679,1037.901,2189.572z"/>
<polygon fill="#F2F1EA" stroke="#999999" stroke-linecap="round" stroke-linejoin="round" points="1078.938,2236.458 
	1159.035,2174.612 1159.035,2234.742 1078.938,2304.318 "/>
<polygon fill="#C4C4C0" stroke="#999999" stroke-linecap="round" stroke-linejoin="round" points="1078.938,2236.458 
	413.856,2236.884 413.856,2272.174 1078.938,2272.174 "/>
<polygon fill="#C4C4C0" stroke="#999999" stroke-linecap="round" stroke-linejoin="round" points="1078.938,2272.174 
	1159.035,2207.605 1159.035,2170.672 1078.938,2236.458 "/>
<polygon fill="#BEAD97" points="1168.989,2172.353 1087.372,2236.951 1087.059,1920.337 1168.658,1890.834 "/>
<path fill-rule="evenodd" clip-rule="evenodd" fill="#F7F8F8" d="M1037.901,2189.572c8.333,0.506,10.37-5.275,16.754-6.71
	c-2.317,6.618-8.938,8.935-16.754,10.052C1037.901,2191.802,1037.901,2190.679,1037.901,2189.572z"/>
<polygon fill="#D9C4AB" points="1087.56,2237.643 400.245,2237.552 400.304,1889.482 1087.56,1889.482 "/>
<path opacity="0.34" d="M1094.022,1958.734l-693.731-0.497v25.036l687.269,0.689l81.718-25.132
	c0.018-8.767,0.097-17.278,0.295-25.747L1094.022,1958.734z"/>
<polygon fill="#D6C3AA" points="1175.007,1866.795 482.408,1866.795 391.013,1880.839 1055.546,1889.058 "/>
<polygon fill="#F2F1EA" stroke="#989898" stroke-width="0.387" stroke-linecap="round" stroke-linejoin="round" points="
	1080.64,1819.152 1023.964,1809.682 1023.964,1869.986 1080.64,1867.117 "/>
<rect x="482.408" y="1809.682" fill="#F2F1EA" stroke="#989898" stroke-width="0.4346" stroke-linecap="round" stroke-linejoin="round" width="541.557" height="60.517"/>
<rect x="391.013" y="1880.736" fill="#F2F1EA" stroke="#989898" stroke-width="0.4366" width="702.649" height="78.721"/>
<polygon fill="#F2F1EA" stroke="#989898" stroke-width="0.356" points="1093.662,1880.793 1175.007,1866.795 1175.007,1936.273 
	1093.662,1959.613 "/>
<g>
	<g>
		<polyline fill="none" stroke="#5D6062" stroke-width="3" points="2594.437,815.81 2594.437,770.51 1789.315,770.51 
			1789.315,731.415 		"/>
		<g>
			<path fill="#5D6062" d="M2594.437,810.425l-10.809-6.574l-0.245,0.369l7,17.625c1.351,6.141,2.701,12.281,4.053,18.422
				c1.351-6.141,2.701-12.281,4.053-18.422l7-17.625l-0.185-0.369L2594.437,810.425z"/>
		</g>
	</g>
</g>
<rect x="1261.806" y="112.3" width="1738.539" height="619.114"/>
<rect x="1268.806" y="119.3" fill="#FFFFFF" width="339.308" height="605.114"/>
<rect x="822.48" y="112.3" width="353.304" height="619.114"/>
<rect x="829.48" y="119.3" fill="#FFFFFF" width="339.308" height="605.114"/>
<rect x="1615.113" y="119.3" fill="#FFFFFF" width="339.308" height="605.114"/>
<rect x="1961.421" y="119.3" fill="#FFFFFF" width="339.308" height="605.114"/>
<rect x="2307.729" y="119.3" fill="#FFFFFF" width="339.308" height="605.114"/>
<rect x="2654.037" y="119.3" fill="#FFFFFF" width="339.308" height="605.114"/>
<polygon fill="#EFEFF0" points="1374.86,1865.634 1374.975,1905.383 2511.097,1905.383 2511.153,1865.634 "/>
<rect x="1310.699" y="2200.167" fill="#F2F1EA" stroke="#999999" stroke-linecap="round" stroke-linejoin="round" width="1233.859" height="67.629"/>
<polygon opacity="0.6" fill="#E8E8E8" points="2561.016,1969.907 1297.908,1969.907 1297.908,1991.109 2561.016,1990.842 "/>
<rect x="1298.061" y="1900.154" fill="#C2C2C2" width="1283.024" height="69.754"/>
<path fill="#C4C4C0" stroke="#999999" stroke-linecap="round" stroke-linejoin="round" d="M1310.699,2203.647v0.63
	c0,14.264,0,27.271,0,40.898v-0.809h1233.859v-40.72H1310.699z"/>
<rect x="1298.004" y="1969.907" fill="#D6C3AA" width="1263.012" height="236.741"/>
<polygon fill="#D6C3AA" points="2581.084,1900.154 1298.061,1900.154 1338.102,1884.064 2545.285,1884.064 "/>
<path fill="#AEA08C" d="M1298.24,1966.8l-0.125,0.074c-0.14,8.359-0.195,16.774-0.206,25.432l0.152-0.082l1260.198,0.396v-25.82
	H1298.24z"/>
<rect x="1298.061" y="1900.154" fill="#F2F1EA" stroke="#989898" stroke-width="0.4584" width="1283.024" height="69.754"/>
<g>
	<path fill="#58595B" d="M354.455,1512.686c-0.783-3.655-3.829-4.322-5.831-4.322c-3.771,0-6.817,2.785-6.817,8.268
		c0,4.901,1.741,8.673,6.904,8.673c1.828,0,4.989-0.87,5.946-5.715h2.727c-1.161,7.861-7.542,8.209-9.108,8.209
		c-4.728,0-9.369-3.074-9.369-11.08c0-6.411,3.655-10.849,9.717-10.849c5.366,0,8.151,3.336,8.557,6.816H354.455z"/>
	<path fill="#58595B" d="M363.355,1527.247h-2.553v-15.171h2.408v2.523h0.058c1.015-1.769,2.35-2.958,4.264-2.958
		c0.319,0,0.464,0.028,0.667,0.087v2.64h-0.958c-2.378,0-3.887,1.856-3.887,4.061V1527.247z"/>
	<path fill="#58595B" d="M382.99,1522.49c-0.087,0.725-0.783,2.871-2.698,4.147c-0.696,0.464-1.683,1.045-4.119,1.045
		c-4.264,0-6.788-3.221-6.788-7.601c0-4.699,2.263-8.44,7.281-8.44c4.38,0,6.527,3.48,6.527,8.847h-11.081
		c0,3.162,1.479,4.989,4.409,4.989c2.408,0,3.829-1.856,3.916-2.987H382.99z M380.554,1518.458c-0.145-2.35-1.131-4.525-4.235-4.525
		c-2.35,0-4.206,2.176-4.206,4.525H380.554z"/>
	<path fill="#58595B" d="M391.202,1527.247h-2.64l-4.38-15.171h2.785l2.9,11.922h0.058l2.93-11.922h2.843l2.958,11.922h0.058
		l3.075-11.922h2.553l-4.409,15.171h-2.64l-3.075-11.748h-0.058L391.202,1527.247z"/>
	<path fill="#58595B" d="M418.084,1527.247h-2.813v-20.827h9.369c3.858,0,6.179,2.495,6.179,5.859c0,2.901-1.653,6.179-6.179,6.179
		h-6.556V1527.247z M418.084,1516.051h5.599c2.523,0,4.235-0.929,4.235-3.742c0-2.64-1.798-3.48-4.119-3.48h-5.714V1516.051z"/>
	<path fill="#58595B" d="M438.738,1511.642c4.844,0,7.049,4.09,7.049,8.006s-2.205,8.006-7.049,8.006s-7.049-4.09-7.049-8.006
		S433.894,1511.642,438.738,1511.642z M438.738,1525.448c3.655,0,4.409-3.771,4.409-5.801s-0.754-5.802-4.409-5.802
		s-4.409,3.771-4.409,5.802S435.083,1525.448,438.738,1525.448z"/>
	<path fill="#58595B" d="M457.299,1516.399c-0.029-0.957-0.377-2.553-3.597-2.553c-0.783,0-3.017,0.261-3.017,2.146
		c0,1.247,0.783,1.537,2.756,2.03l2.553,0.639c3.162,0.783,4.264,1.943,4.264,4.003c0,3.133-2.582,5.019-6.004,5.019
		c-6.004,0-6.439-3.481-6.526-5.309h2.466c0.087,1.189,0.435,3.104,4.032,3.104c1.828,0,3.481-0.725,3.481-2.407
		c0-1.219-0.841-1.625-3.017-2.176l-2.958-0.726c-2.118-0.521-3.51-1.595-3.51-3.684c0-3.336,2.755-4.844,5.743-4.844
		c5.424,0,5.802,4.003,5.802,4.757H457.299z"/>
	<path fill="#58595B" d="M466.316,1514.195v9.862c0,1.188,1.015,1.188,1.538,1.188h0.899v2.002
		c-0.928,0.087-1.653,0.203-1.914,0.203c-2.524,0-3.075-1.422-3.075-3.249v-10.007h-2.06v-2.118h2.06v-4.234h2.552v4.234h2.437
		v2.118H466.316z"/>
	<path fill="#58595B" d="M484.125,1522.49c-0.087,0.725-0.783,2.871-2.698,4.147c-0.696,0.464-1.683,1.045-4.119,1.045
		c-4.264,0-6.788-3.221-6.788-7.601c0-4.699,2.263-8.44,7.281-8.44c4.38,0,6.527,3.48,6.527,8.847h-11.081
		c0,3.162,1.479,4.989,4.409,4.989c2.408,0,3.829-1.856,3.916-2.987H484.125z M481.688,1518.458
		c-0.145-2.35-1.131-4.525-4.235-4.525c-2.35,0-4.206,2.176-4.206,4.525H481.688z"/>
	<path fill="#58595B" d="M490.27,1527.247h-2.553v-15.171h2.408v2.523h0.058c1.015-1.769,2.35-2.958,4.264-2.958
		c0.319,0,0.464,0.028,0.667,0.087v2.64h-0.958c-2.378,0-3.887,1.856-3.887,4.061V1527.247z"/>
</g>
<rect id="_x36_.18_5_" x="296.249" y="1146.596" fill="none" stroke="#060303" stroke-width="3" stroke-miterlimit="10" width="224.831" height="346.314"/>
<g>
	<g>
		<line fill="none" stroke="#5D6062" stroke-width="3" x1="1849.795" y1="815.81" x2="1849.795" y2="770.51"/>
		<g>
			<path fill="#5D6062" d="M1849.795,810.425l-10.809-6.574l-0.245,0.369l7,17.625c1.351,6.141,2.701,12.281,4.053,18.422
				c1.351-6.141,2.701-12.281,4.053-18.422l7-17.625l-0.185-0.369L1849.795,810.425z"/>
		</g>
	</g>
</g>
<g>
	<g>
		<line fill="none" stroke="#5D6062" stroke-width="3" x1="2223.212" y1="815.81" x2="2223.212" y2="770.51"/>
		<g>
			<path fill="#5D6062" d="M2223.212,810.425l-10.809-6.574l-0.245,0.369l7,17.625c1.351,6.141,2.701,12.281,4.053,18.422
				c1.351-6.141,2.701-12.281,4.053-18.422l7-17.625l-0.185-0.369L2223.212,810.425z"/>
		</g>
	</g>
</g>
<rect x="1676.279" y="888.642" fill="none" stroke="#000000" stroke-width="3" stroke-miterlimit="10" width="346.308" height="612.114"/>
<rect x="2050.058" y="888.642" fill="none" stroke="#000000" stroke-width="3" stroke-miterlimit="10" width="346.308" height="612.114"/>
<rect x="2420.921" y="888.642" fill="none" stroke="#000000" stroke-width="3" stroke-miterlimit="10" width="346.308" height="612.114"/>
<g>
	<path d="M32.681,95.822V38.075h13.551v57.747H32.681z"/>
	<path d="M53.702,95.822V38.075h14.706c4.928,0,10.856,0.154,15.245,2.695c5.236,3.079,6.083,8.7,6.083,14.244v25.64
		c-0.077,5.774-1.848,10.009-5.774,12.473c-3.542,2.311-7.854,2.695-12.011,2.695H53.702z M67.253,85.428
		c9.085,0.616,9.162-3.08,8.931-10.779V55.784c-0.077-6.775-2.31-7.16-8.931-7.314V85.428z"/>
	<path d="M96.745,95.822V38.075h19.095l7.007,34.109H123l7.238-34.109h18.941v57.747h-12.936l1.386-45.273h-0.154l-9.547,45.273
		h-10.086l-9.316-45.273h-0.154l1.232,45.273H96.745z"/>
	<path d="M156.265,95.822V38.075h17.555c10.24,0,18.248,3.311,18.248,14.938c0,5.082-1.848,9.624-6.544,12.165v0.154
		c6.159,3.542,7.468,6.621,7.468,13.782c0,11.703-6.622,16.708-17.632,16.708H156.265z M169.817,60.789
		c5.929-0.385,8.701,0,8.701-6.853c0-5.697-3.927-5.467-8.701-5.467V60.789z M169.817,85.428c6.776-0.154,9.625,0.308,9.625-7.469
		c0-6.698-3.85-6.544-9.625-6.775V85.428z"/>
	<path d="M32.142,188.223v-57.747h17.555c10.24,0,18.248,3.311,18.248,14.938c0,5.082-1.848,9.624-6.545,12.165v0.154
		c6.16,3.542,7.469,6.621,7.469,13.782c0,11.703-6.622,16.708-17.632,16.708H32.142z M45.693,153.189
		c5.929-0.385,8.701,0,8.701-6.853c0-5.697-3.927-5.467-8.701-5.467V153.189z M45.693,177.828c6.776-0.154,9.625,0.308,9.625-7.469
		c0-6.698-3.85-6.544-9.625-6.775V177.828z"/>
	<path d="M86.196,145.105v6.545h0.154c1.386-4.619,4.389-7.776,9.471-7.776v13.859c-1.232-0.231-2.464-0.308-3.696-0.308
		c-3.465,0-4.851,0.692-5.082,4.234v26.563H74.8v-43.118H86.196z"/>
	<path d="M112.375,168.666v7.545c0,2.388,1.078,4.389,3.773,4.543c4.543,0.231,4.081-3.85,4.312-7.469h12.165
		c0.616,11.088-5.39,16.169-16.015,16.323c-8.777,0.077-16.477-3.542-16.477-13.397v-17.555c0-11.087,7.007-14.706,16.477-14.783
		c8.547-0.077,16.477,3.157,16.477,12.474v12.319H112.375z M120.844,160.581v-4.234c0-1.54-1.001-4.389-4.158-4.389
		c-3.465,0-4.312,2.771-4.312,5.774v2.849H120.844z"/>
	<path d="M159.344,184.373c-3.08,3.388-5.698,5.235-10.548,5.235c-6.93,0-11.242-4.696-11.242-11.549
		c0-9.779,5.313-12.858,10.703-14.63c5.313-1.771,10.625-2.31,10.625-6.93c0-2.387-1.386-4.466-3.85-4.466
		c-4.466,0-4.466,3.08-4.697,6.699h-12.243c-0.231-5.39,1.386-9.086,4.389-11.473c3.003-2.387,7.238-3.388,12.166-3.388
		c12.088,0,16.477,3.696,16.477,13.166v26.41c0,1.616,0.462,3.233,1.001,4.773h-11.934L159.344,184.373z M158.883,167.28
		c-2.464,1.309-4.62,2.001-6.16,3.156c-1.54,1.078-2.849,2.618-2.849,5.544c0,2.694,1.617,4.619,4.543,4.619
		c3.619,0,4.389-3.772,4.466-6.544V167.28z"/>
	<path d="M177.287,188.223v-57.747h12.242v29.027h0.154l8.393-14.398h13.397l-12.166,17.324l12.319,25.794h-12.858l-7.161-16.631
		l-2.079,2.771v13.859H177.287z"/>
	<path d="M219.097,154.036h-4.928v-8.854h4.851l0.077-3.772c0.154-8.238,4.158-10.934,12.088-10.934h5.39v8.854h-2.618
		c-1.386,0-2.618,0.385-2.618,1.463v4.389h5.236v8.854h-5.236v34.187h-12.242V154.036z"/>
	<path d="M261.985,184.373c-3.08,3.388-5.698,5.235-10.548,5.235c-6.93,0-11.242-4.696-11.242-11.549
		c0-9.779,5.313-12.858,10.703-14.63c5.313-1.771,10.625-2.31,10.625-6.93c0-2.387-1.386-4.466-3.85-4.466
		c-4.466,0-4.466,3.08-4.697,6.699h-12.243c-0.231-5.39,1.386-9.086,4.389-11.473c3.003-2.387,7.238-3.388,12.166-3.388
		c12.088,0,16.477,3.696,16.477,13.166v26.41c0,1.616,0.462,3.233,1.001,4.773h-11.934L261.985,184.373z M261.523,167.28
		c-2.464,1.309-4.62,2.001-6.16,3.156c-1.54,1.078-2.849,2.618-2.849,5.544c0,2.694,1.617,4.619,4.543,4.619
		c3.619,0,4.389-3.772,4.466-6.544V167.28z"/>
	<path d="M298.021,157.887c-0.154-1.463-0.154-2.927-0.693-4.081c-0.462-1.078-1.386-1.848-3.388-1.848
		c-2.387,0-4.081,1.077-4.081,3.618c0,2.311,1.925,3.465,3.773,4.389c7.931,3.619,16.477,5.698,16.477,15.938
		c0,9.624-7.314,13.705-16.323,13.705c-9.701,0-16.477-4.157-16.015-14.552h11.704c-0.077,1.463,0.077,3.079,0.77,4.389
		c0.616,1.231,1.771,2.079,3.619,2.079c2.618,0,4.389-1.31,4.389-4.081c0-1.309-0.616-2.541-1.617-3.311
		c-4.928-2.618-11.78-4.466-15.63-8.854c-2.079-2.388-3.08-4.928-3.08-8.085c0-9.316,7.392-13.32,15.938-13.32
		c8.932,0,16.092,4.466,15.63,14.014H298.021z"/>
	<path d="M311.958,153.96v-8.855h4.851v-12.318h12.242v12.318h5.852v8.855h-5.852v22.713c0,2.464,1.078,3.003,2.695,3.003
		c1.386-0.23,1.848-0.153,3.157-0.153v8.623c-2.618,0.385-5.159,0.693-7.854,0.693c-6.622,0-10.24-3.388-10.24-9.933V153.96H311.958
		z"/>
	<path d="M32.094,263.822v-47.253h13.167c4.284,0,10.458,0.378,13.546,3.906c2.583,2.898,3.087,6.427,3.087,10.27
		c0,5.104-1.197,10.837-6.237,13.168c-3.843,1.891-8.316,1.323-12.475,1.512v18.397H32.094z M43.182,236.92
		c2.079-0.063,4.473,0.188,6.237-1.197c1.134-1.26,1.386-3.15,1.386-4.788c0-1.827-0.189-4.6-2.079-5.481
		c-1.071-0.378-2.583-0.378-4.347-0.378h-1.197V236.92z"/>
	<path d="M66.428,239.629c0-9.072,5.355-12.097,13.105-12.097c8.82,0,13.104,4.158,13.104,12.097v14.365
		c-0.504,8.001-5.481,10.962-13.104,10.962c-7.183,0-13.105-2.897-13.105-10.962V239.629z M76.446,254.624
		c0.189,2.016,1.008,3.087,3.087,3.087s2.898-1.071,3.087-3.087v-15.751c0-2.269-0.756-4.096-3.087-4.096s-3.087,1.827-3.087,4.096
		V254.624z"/>
	<path d="M107.253,228.54v5.355h0.126c1.134-3.78,3.591-6.363,7.75-6.363v11.341c-1.008-0.189-2.016-0.252-3.024-0.252
		c-2.835,0-3.969,0.566-4.158,3.465v21.736H97.928V228.54H107.253z"/>
	<path d="M117.016,235.786v-7.246h3.969v-10.08h10.018v10.08h4.789v7.246h-4.789v18.586c0,2.016,0.882,2.457,2.205,2.457
		c1.134-0.189,1.512-0.126,2.583-0.126v7.056c-2.142,0.315-4.221,0.567-6.427,0.567c-5.418,0-8.379-2.772-8.379-8.127v-20.413
		H117.016z"/>
	<path d="M149.21,228.54v5.355h0.126c1.134-3.78,3.591-6.363,7.75-6.363v11.341c-1.008-0.189-2.016-0.252-3.024-0.252
		c-2.835,0-3.969,0.566-4.158,3.465v21.736h-10.018V228.54H149.21z"/>
	<path d="M177.56,260.672c-2.521,2.772-4.663,4.284-8.632,4.284c-5.67,0-9.198-3.843-9.198-9.45c0-8.002,4.347-10.521,8.757-11.971
		c4.347-1.449,8.694-1.89,8.694-5.67c0-1.953-1.134-3.654-3.15-3.654c-3.654,0-3.654,2.52-3.843,5.481h-10.018
		c-0.189-4.411,1.134-7.435,3.591-9.388s5.922-2.772,9.955-2.772c9.892,0,13.482,3.024,13.482,10.773v21.61
		c0,1.323,0.378,2.646,0.819,3.906h-9.766L177.56,260.672z M177.181,246.686c-2.016,1.071-3.78,1.638-5.04,2.583
		c-1.26,0.882-2.331,2.142-2.331,4.536c0,2.205,1.323,3.78,3.717,3.78c2.961,0,3.591-3.087,3.654-5.355V246.686z"/>
	<path d="M193.498,225.075v-8.506h10.018v8.506H193.498z M193.498,263.822V228.54h10.018v35.282H193.498z"/>
	<path d="M207.988,235.786v-7.246h3.969v-10.08h10.018v10.08h4.789v7.246h-4.789v18.586c0,2.016,0.882,2.457,2.205,2.457
		c1.134-0.189,1.512-0.126,2.583-0.126v7.056c-2.142,0.315-4.221,0.567-6.426,0.567c-5.418,0-8.38-2.772-8.38-8.127v-20.413H207.988
		z"/>
	<path d="M242.196,269.744l14.176-53.175h6.931l-14.365,53.175H242.196z"/>
	<path d="M288.187,263.822l-10.27-47.253h11.089l5.67,33.141h0.126l5.67-33.141h11.088l-10.333,47.253H288.187z"/>
	<path d="M323.541,247.819v6.175c0,1.953,0.882,3.591,3.087,3.717c3.717,0.189,3.339-3.15,3.528-6.111h9.955
		c0.504,9.072-4.41,13.23-13.104,13.356c-7.183,0.063-13.483-2.897-13.483-10.962v-14.365c0-9.072,5.733-12.033,13.483-12.097
		c6.993-0.063,13.483,2.583,13.483,10.207v10.08H323.541z M330.472,241.204v-3.465c0-1.261-0.819-3.592-3.402-3.592
		c-2.835,0-3.528,2.269-3.528,4.726v2.331H330.472z"/>
	<path d="M354.6,228.54v5.355h0.126c1.134-3.78,3.591-6.363,7.75-6.363v11.341c-1.008-0.189-2.016-0.252-3.024-0.252
		c-2.835,0-3.969,0.566-4.158,3.465v21.736h-10.018V228.54H354.6z"/>
	<path d="M364.364,235.786v-7.246h3.969v-10.08h10.018v10.08h4.789v7.246h-4.789v18.586c0,2.016,0.882,2.457,2.205,2.457
		c1.134-0.189,1.512-0.126,2.583-0.126v7.056c-2.142,0.315-4.221,0.567-6.427,0.567c-5.418,0-8.379-2.772-8.379-8.127v-20.413
		H364.364z"/>
	<path d="M388.367,225.075v-8.506h10.018v8.506H388.367z M388.367,263.822V228.54h10.018v35.282H388.367z"/>
	<path d="M421.38,241.646l-0.063-0.631c-0.189-1.322-0.126-2.709-0.378-4.032c-0.441-1.449-1.197-2.205-2.709-2.205
		c-2.583,0-3.024,2.017-3.024,4.284v14.554c0,2.206,0.63,4.096,3.213,4.096c3.717,0,3.087-5.544,3.087-8.19h9.702
		c0,2.079-0.252,6.489-0.819,8.38c-1.323,4.41-5.103,6.426-9.451,6.867c-0.945,0.062-1.827,0.188-3.339,0.188
		c-7.183,0-12.412-2.897-12.412-10.962v-14.365c0-9.072,4.662-12.097,12.412-12.097c9.892,0.126,13.798,4.41,13.23,14.113H421.38z"
		/>
	<path d="M452.943,260.672c-2.521,2.772-4.663,4.284-8.632,4.284c-5.67,0-9.198-3.843-9.198-9.45c0-8.002,4.347-10.521,8.757-11.971
		c4.347-1.449,8.694-1.89,8.694-5.67c0-1.953-1.134-3.654-3.15-3.654c-3.654,0-3.654,2.52-3.843,5.481h-10.018
		c-0.189-4.411,1.134-7.435,3.591-9.388s5.922-2.772,9.955-2.772c9.892,0,13.482,3.024,13.482,10.773v21.61
		c0,1.323,0.378,2.646,0.819,3.906h-9.766L452.943,260.672z M452.564,246.686c-2.016,1.071-3.78,1.638-5.04,2.583
		c-1.26,0.882-2.331,2.142-2.331,4.536c0,2.205,1.323,3.78,3.717,3.78c2.961,0,3.591-3.087,3.654-5.355V246.686z"/>
	<path d="M468.881,263.822v-47.253h10.018v47.253H468.881z"/>
	<path d="M500.696,263.822v-47.253h11.089v37.803h13.545v9.45H500.696z"/>
	<path d="M545.678,260.672c-2.521,2.772-4.663,4.284-8.632,4.284c-5.67,0-9.198-3.843-9.198-9.45c0-8.002,4.347-10.521,8.757-11.971
		c4.347-1.449,8.694-1.89,8.694-5.67c0-1.953-1.134-3.654-3.15-3.654c-3.654,0-3.654,2.52-3.843,5.481h-10.018
		c-0.189-4.411,1.134-7.435,3.591-9.388s5.922-2.772,9.955-2.772c9.892,0,13.482,3.024,13.482,10.773v21.61
		c0,1.323,0.378,2.646,0.819,3.906h-9.766L545.678,260.672z M545.3,246.686c-2.016,1.071-3.78,1.638-5.04,2.583
		c-1.26,0.882-2.331,2.142-2.331,4.536c0,2.205,1.323,3.78,3.717,3.78c2.961,0,3.591-3.087,3.654-5.355V246.686z"/>
	<path d="M571.697,251.348h0.126l3.465-22.808h9.829l-6.364,30.179c-2.52,9.577-2.457,17.011-13.419,17.011
		c-1.764,0-2.961-0.314-3.969-0.314v-7.435c0.63,0.063,1.323,0.126,1.953,0.252c1.071,0.189,3.024-0.378,3.024-1.764
		c0-1.639-0.756-4.348-1.134-5.985l-6.994-31.943h10.081L571.697,251.348z"/>
	<path d="M588.453,239.629c0-9.072,5.355-12.097,13.105-12.097c8.82,0,13.104,4.158,13.104,12.097v14.365
		c-0.504,8.001-5.481,10.962-13.104,10.962c-7.183,0-13.105-2.897-13.105-10.962V239.629z M598.471,254.624
		c0.189,2.016,1.008,3.087,3.087,3.087s2.898-1.071,3.087-3.087v-15.751c0-2.269-0.756-4.096-3.087-4.096s-3.087,1.827-3.087,4.096
		V254.624z"/>
	<path d="M636.271,263.822v-4.348h-0.126c-0.945,2.71-3.843,5.481-6.993,5.481c-5.796,0-8.947-2.646-8.947-7.435V228.54h10.018
		v25.265c0.126,1.638,0.567,3.087,2.458,2.961c1.764-0.062,2.898-1.134,2.898-2.961V228.54h10.018v35.282H636.271z"/>
	<path d="M649.563,235.786v-7.246h3.969v-10.08h10.018v10.08h4.789v7.246h-4.789v18.586c0,2.016,0.882,2.457,2.205,2.457
		c1.134-0.189,1.512-0.126,2.583-0.126v7.056c-2.142,0.315-4.221,0.567-6.427,0.567c-5.418,0-8.379-2.772-8.379-8.127v-20.413
		H649.563z"/>
</g>
<ellipse cx="2973.854" cy="2356.007" rx="156.182" ry="43.139"/>
<g>
	<path fill="#999999" d="M3121.448,2344.366l-208.325,49.308c10.375,1.227,21.306,2.153,32.633,2.736l181.918-43.058
		C3126.893,2350.262,3124.765,2347.253,3121.448,2344.366z"/>
	<path fill="#999999" d="M3127.731,2358.427l-163.176,38.622c3.08,0.052,6.179,0.081,9.298,0.081c1.666,0,3.324-0.01,4.978-0.025
		l147.337-34.873C3126.917,2360.98,3127.437,2359.71,3127.731,2358.427z"/>
</g>
<rect x="3102.7" y="1508.596" width="15.338" height="847.407"/>
<rect x="2844.288" y="1508.596" width="258.412" height="13.236"/>
<rect x="2844.288" y="2234.532" width="258.412" height="13.278"/>
<rect x="2828.951" y="1508.596" width="15.338" height="847.407"/>
<rect x="2844.288" y="1521.832" fill="#FFFFFF" stroke="#000000" stroke-width="2" stroke-miterlimit="10" width="258.412" height="712.7"/>
<g>
	<path fill="#58595B" d="M2892.721,2281.414h-2.814v-20.827h9.37c3.857,0,6.178,2.495,6.178,5.859c0,2.901-1.653,6.179-6.178,6.179
		h-6.556V2281.414z M2892.721,2270.217h5.598c2.524,0,4.235-0.929,4.235-3.742c0-2.64-1.799-3.48-4.119-3.48h-5.714V2270.217z"/>
	<path fill="#58595B" d="M2910.932,2281.414h-2.553v-15.171h2.408v2.523h0.058c1.016-1.769,2.35-2.958,4.264-2.958
		c0.319,0,0.465,0.028,0.667,0.087v2.64h-0.957c-2.378,0-3.887,1.856-3.887,4.061V2281.414z"/>
	<path fill="#58595B" d="M2929.958,2276.657c-0.087,0.725-0.783,2.871-2.698,4.147c-0.695,0.464-1.682,1.045-4.118,1.045
		c-4.265,0-6.788-3.221-6.788-7.601c0-4.699,2.263-8.44,7.281-8.44c4.38,0,6.526,3.48,6.526,8.847h-11.081
		c0,3.162,1.479,4.989,4.409,4.989c2.407,0,3.829-1.856,3.916-2.987H2929.958z M2927.521,2272.625
		c-0.146-2.35-1.132-4.525-4.235-4.525c-2.35,0-4.206,2.176-4.206,4.525H2927.521z"/>
	<path fill="#58595B" d="M2939.092,2274.684h-7.106v-2.61h7.106V2274.684z"/>
	<path fill="#58595B" d="M2954.521,2266.678c-0.146-3.22-2.813-4.235-5.163-4.235c-1.77,0-4.758,0.493-4.758,3.655
		c0,1.77,1.248,2.35,2.466,2.64l5.946,1.363c2.698,0.638,4.729,2.263,4.729,5.569c0,4.931-4.583,6.294-8.151,6.294
		c-3.857,0-5.366-1.16-6.294-2.001c-1.77-1.596-2.118-3.336-2.118-5.279h2.64c0,3.771,3.075,4.873,5.744,4.873
		c2.03,0,5.453-0.522,5.453-3.51c0-2.176-1.016-2.872-4.438-3.684l-4.264-0.986c-1.363-0.319-4.438-1.276-4.438-4.902
		c0-3.249,2.118-6.439,7.165-6.439c7.28,0,8.006,4.351,8.122,6.643H2954.521z"/>
	<path fill="#58595B" d="M2973.255,2276.657c-0.087,0.725-0.783,2.871-2.698,4.147c-0.695,0.464-1.682,1.045-4.118,1.045
		c-4.265,0-6.788-3.221-6.788-7.601c0-4.699,2.263-8.44,7.281-8.44c4.38,0,6.526,3.48,6.526,8.847h-11.081
		c0,3.162,1.479,4.989,4.409,4.989c2.407,0,3.829-1.856,3.916-2.987H2973.255z M2970.818,2272.625
		c-0.146-2.35-1.132-4.525-4.235-4.525c-2.35,0-4.206,2.176-4.206,4.525H2970.818z"/>
	<path fill="#58595B" d="M2978.501,2281.414h-2.553v-20.827h2.553V2281.414z"/>
	<path fill="#58595B" d="M2984.33,2281.414h-2.553v-20.827h2.553V2281.414z"/>
	<path fill="#58595B" d="M2998.134,2281.414h-2.814v-20.827h2.814v10.095l10.094-10.095h3.888l-8.674,8.412l8.905,12.415h-3.654
		l-7.281-10.442l-3.277,3.133V2281.414z"/>
	<path fill="#58595B" d="M3013.792,2263.487v-2.9h2.553v2.9H3013.792z M3016.345,2281.414h-2.553v-15.171h2.553V2281.414z"/>
	<path fill="#58595B" d="M3025.741,2265.808c4.845,0,7.049,4.09,7.049,8.006s-2.204,8.006-7.049,8.006
		c-4.844,0-7.048-4.09-7.048-8.006S3020.897,2265.808,3025.741,2265.808z M3025.741,2279.615c3.655,0,4.409-3.771,4.409-5.801
		s-0.754-5.802-4.409-5.802c-3.654,0-4.408,3.771-4.408,5.802S3022.087,2279.615,3025.741,2279.615z"/>
	<path fill="#58595B" d="M3043.693,2270.565c-0.029-0.957-0.378-2.553-3.598-2.553c-0.783,0-3.017,0.261-3.017,2.146
		c0,1.247,0.783,1.537,2.756,2.03l2.553,0.639c3.162,0.783,4.264,1.943,4.264,4.003c0,3.133-2.581,5.019-6.004,5.019
		c-6.005,0-6.439-3.481-6.526-5.309h2.465c0.087,1.189,0.436,3.104,4.032,3.104c1.827,0,3.48-0.725,3.48-2.407
		c0-1.219-0.841-1.625-3.017-2.176l-2.958-0.726c-2.118-0.521-3.511-1.595-3.511-3.684c0-3.336,2.756-4.844,5.744-4.844
		c5.424,0,5.801,4.003,5.801,4.757H3043.693z"/>
	<path fill="#58595B" d="M3061.616,2281.414h-3.277l-4.729-7.658l-2.117,1.915v5.743h-2.466v-20.827h2.466v12.067l6.526-6.411h3.249
		l-5.802,5.656L3061.616,2281.414z"/>
</g>
<polygon fill="#97999C" points="1648.647,1743.711 1481.359,1743.711 1487.846,1872.353 1642.172,1872.353 "/>
<polygon fill="#B3B3B3" points="1648.647,1743.75 1481.359,1743.75 1487.846,1738.374 1642.172,1738.374 "/>
<polygon fill="#B3B3B3" points="1633.805,1888.591 1626.267,1895.414 1502.783,1895.414 1496.21,1888.591 1501.153,1767.412 
	1628.557,1767.412 "/>
<polygon fill="#97999C" points="1627.154,1894.908 1502.857,1894.908 1502.779,1767.412 1627.228,1767.412 "/>
<polygon fill="#B3B3B3" points="1627.079,1769.978 1502.857,1769.978 1501.115,1767.426 1628.529,1767.426 "/>
<g>
	<g>
		<polygon fill="#97999C" points="1729.75,1887.841 1657.652,1887.841 1661.275,1747.334 1726.127,1747.334 		"/>
	</g>
	<rect x="1661.969" y="1704.565" fill="#B3B3B3" width="64.102" height="42.887"/>
</g>
<polygon fill="#97999C" points="1991.1,1743.711 1823.813,1743.711 1830.299,1872.353 1984.625,1872.353 "/>
<polygon fill="#B3B3B3" points="1991.1,1743.75 1823.813,1743.75 1830.299,1738.374 1984.625,1738.374 "/>
<polygon fill="#B3B3B3" points="1976.258,1888.591 1968.721,1895.414 1845.237,1895.414 1838.664,1888.591 1843.606,1767.412 
	1971.011,1767.412 "/>
<polygon fill="#97999C" points="1969.608,1894.908 1845.31,1894.908 1845.232,1767.412 1969.681,1767.412 "/>
<polygon fill="#B3B3B3" points="1969.533,1769.978 1845.31,1769.978 1843.569,1767.426 1970.982,1767.426 "/>
<g>
	<g>
		<polygon fill="#97999C" points="2072.203,1887.841 2000.106,1887.841 2003.728,1747.334 2068.58,1747.334 		"/>
	</g>
	<rect x="2004.422" y="1704.565" fill="#B3B3B3" width="64.102" height="42.887"/>
</g>
<polygon fill="#97999C" points="2333.554,1743.711 2166.267,1743.711 2172.753,1872.353 2327.079,1872.353 "/>
<polygon fill="#B3B3B3" points="2333.554,1743.75 2166.267,1743.75 2172.753,1738.374 2327.079,1738.374 "/>
<polygon fill="#B3B3B3" points="2318.712,1888.591 2311.174,1895.414 2187.69,1895.414 2181.117,1888.591 2186.06,1767.412 
	2313.465,1767.412 "/>
<polygon fill="#97999C" points="2312.061,1894.908 2187.764,1894.908 2187.686,1767.412 2312.135,1767.412 "/>
<polygon fill="#B3B3B3" points="2311.987,1769.978 2187.764,1769.978 2186.022,1767.426 2313.436,1767.426 "/>
<g>
	<g>
		<polygon fill="#97999C" points="2414.657,1887.841 2342.559,1887.841 2346.182,1747.334 2411.034,1747.334 		"/>
	</g>
	<rect x="2346.876" y="1704.565" fill="#B3B3B3" width="64.102" height="42.887"/>
</g>
<rect x="1342.744" y="1997.201" fill="#FFFFFF" stroke="#060303" stroke-width="3" stroke-miterlimit="10" width="174.009" height="212.251"/>
<g>
	<linearGradient id="SVGID_1_" gradientUnits="userSpaceOnUse" x1="1693.7013" y1="1782.5891" x2="1693.7013" y2="1908.5162">
		<stop  offset="0" style="stop-color:#D9D9D9"/>
		<stop  offset="1" style="stop-color:#C4C4C4"/>
	</linearGradient>
	<path fill="url(#SVGID_1_)" d="M1717.814,1879.461c0,0.387-0.317,0.703-0.703,0.703h-46.819c-0.387,0-0.703-0.317-0.703-0.703
		v-26.057c0-0.387,0.317-0.703,0.703-0.703h46.819c0.387,0,0.703,0.317,0.703,0.703V1879.461z"/>
	<path fill="none" stroke="#989898" stroke-width="0.3794" stroke-linecap="round" stroke-linejoin="round" d="M1717.814,1879.461
		c0,0.387-0.317,0.703-0.703,0.703h-46.819c-0.387,0-0.703-0.317-0.703-0.703v-26.057c0-0.387,0.317-0.703,0.703-0.703h46.819
		c0.387,0,0.703,0.317,0.703,0.703V1879.461z"/>
</g>
<g>
	<linearGradient id="SVGID_2_" gradientUnits="userSpaceOnUse" x1="1693.7013" y1="1782.5939" x2="1693.7013" y2="1908.5171">
		<stop  offset="0" style="stop-color:#D9D9D9"/>
		<stop  offset="1" style="stop-color:#C4C4C4"/>
	</linearGradient>
	<path fill="url(#SVGID_2_)" d="M1717.814,1846.501c0,0.387-0.317,0.703-0.703,0.703h-46.819c-0.387,0-0.703-0.317-0.703-0.703
		v-26.056c0-0.387,0.317-0.703,0.703-0.703h46.819c0.387,0,0.703,0.317,0.703,0.703V1846.501z"/>
	<path fill="none" stroke="#989898" stroke-width="0.3794" stroke-linecap="round" stroke-linejoin="round" d="M1717.814,1846.501
		c0,0.387-0.317,0.703-0.703,0.703h-46.819c-0.387,0-0.703-0.317-0.703-0.703v-26.056c0-0.387,0.317-0.703,0.703-0.703h46.819
		c0.387,0,0.703,0.317,0.703,0.703V1846.501z"/>
</g>
<g>
	<linearGradient id="SVGID_3_" gradientUnits="userSpaceOnUse" x1="1693.7013" y1="1782.5929" x2="1693.7013" y2="1908.5074">
		<stop  offset="0" style="stop-color:#D9D9D9"/>
		<stop  offset="1" style="stop-color:#C4C4C4"/>
	</linearGradient>
	<path fill="url(#SVGID_3_)" d="M1717.814,1813.971c0,0.387-0.317,0.703-0.703,0.703h-46.819c-0.387,0-0.703-0.317-0.703-0.703
		v-26.054c0-0.387,0.317-0.703,0.703-0.703h46.819c0.387,0,0.703,0.317,0.703,0.703V1813.971z"/>
	<path fill="none" stroke="#989898" stroke-width="0.3794" stroke-linecap="round" stroke-linejoin="round" d="M1717.814,1813.971
		c0,0.387-0.317,0.703-0.703,0.703h-46.819c-0.387,0-0.703-0.317-0.703-0.703v-26.054c0-0.387,0.317-0.703,0.703-0.703h46.819
		c0.387,0,0.703,0.317,0.703,0.703V1813.971z"/>
</g>
<g>
	<linearGradient id="SVGID_4_" gradientUnits="userSpaceOnUse" x1="1693.7013" y1="1782.5917" x2="1693.7013" y2="1908.5144">
		<stop  offset="0" style="stop-color:#D9D9D9"/>
		<stop  offset="1" style="stop-color:#C4C4C4"/>
	</linearGradient>
	<path fill="url(#SVGID_4_)" d="M1717.814,1781.379c0,0.387-0.317,0.703-0.703,0.703h-46.819c-0.387,0-0.703-0.317-0.703-0.703
		v-26.056c0-0.387,0.317-0.703,0.703-0.703h46.819c0.387,0,0.703,0.317,0.703,0.703V1781.379z"/>
	<path fill="none" stroke="#989898" stroke-width="0.3794" stroke-linecap="round" stroke-linejoin="round" d="M1717.814,1781.379
		c0,0.387-0.317,0.703-0.703,0.703h-46.819c-0.387,0-0.703-0.317-0.703-0.703v-26.056c0-0.387,0.317-0.703,0.703-0.703h46.819
		c0.387,0,0.703,0.317,0.703,0.703V1781.379z"/>
</g>
<g>
	<linearGradient id="SVGID_5_" gradientUnits="userSpaceOnUse" x1="2036.1549" y1="1782.5891" x2="2036.1549" y2="1908.5162">
		<stop  offset="0" style="stop-color:#D9D9D9"/>
		<stop  offset="1" style="stop-color:#C4C4C4"/>
	</linearGradient>
	<path fill="url(#SVGID_5_)" d="M2060.268,1879.461c0,0.387-0.316,0.703-0.703,0.703h-46.819c-0.387,0-0.703-0.317-0.703-0.703
		v-26.057c0-0.387,0.317-0.703,0.703-0.703h46.819c0.387,0,0.703,0.317,0.703,0.703V1879.461z"/>
	<path fill="none" stroke="#989898" stroke-width="0.3794" stroke-linecap="round" stroke-linejoin="round" d="M2060.268,1879.461
		c0,0.387-0.316,0.703-0.703,0.703h-46.819c-0.387,0-0.703-0.317-0.703-0.703v-26.057c0-0.387,0.317-0.703,0.703-0.703h46.819
		c0.387,0,0.703,0.317,0.703,0.703V1879.461z"/>
</g>
<g>
	<linearGradient id="SVGID_6_" gradientUnits="userSpaceOnUse" x1="2036.1549" y1="1782.5939" x2="2036.1549" y2="1908.5171">
		<stop  offset="0" style="stop-color:#D9D9D9"/>
		<stop  offset="1" style="stop-color:#C4C4C4"/>
	</linearGradient>
	<path fill="url(#SVGID_6_)" d="M2060.268,1846.501c0,0.387-0.316,0.703-0.703,0.703h-46.819c-0.387,0-0.703-0.317-0.703-0.703
		v-26.056c0-0.387,0.317-0.703,0.703-0.703h46.819c0.387,0,0.703,0.317,0.703,0.703V1846.501z"/>
	<path fill="none" stroke="#989898" stroke-width="0.3794" stroke-linecap="round" stroke-linejoin="round" d="M2060.268,1846.501
		c0,0.387-0.316,0.703-0.703,0.703h-46.819c-0.387,0-0.703-0.317-0.703-0.703v-26.056c0-0.387,0.317-0.703,0.703-0.703h46.819
		c0.387,0,0.703,0.317,0.703,0.703V1846.501z"/>
</g>
<g>
	<linearGradient id="SVGID_7_" gradientUnits="userSpaceOnUse" x1="2036.1549" y1="1782.5929" x2="2036.1549" y2="1908.5074">
		<stop  offset="0" style="stop-color:#D9D9D9"/>
		<stop  offset="1" style="stop-color:#C4C4C4"/>
	</linearGradient>
	<path fill="url(#SVGID_7_)" d="M2060.268,1813.971c0,0.387-0.316,0.703-0.703,0.703h-46.819c-0.387,0-0.703-0.317-0.703-0.703
		v-26.054c0-0.387,0.317-0.703,0.703-0.703h46.819c0.387,0,0.703,0.317,0.703,0.703V1813.971z"/>
	<path fill="none" stroke="#989898" stroke-width="0.3794" stroke-linecap="round" stroke-linejoin="round" d="M2060.268,1813.971
		c0,0.387-0.316,0.703-0.703,0.703h-46.819c-0.387,0-0.703-0.317-0.703-0.703v-26.054c0-0.387,0.317-0.703,0.703-0.703h46.819
		c0.387,0,0.703,0.317,0.703,0.703V1813.971z"/>
</g>
<g>
	<linearGradient id="SVGID_8_" gradientUnits="userSpaceOnUse" x1="2036.1549" y1="1782.5917" x2="2036.1549" y2="1908.5144">
		<stop  offset="0" style="stop-color:#D9D9D9"/>
		<stop  offset="1" style="stop-color:#C4C4C4"/>
	</linearGradient>
	<path fill="url(#SVGID_8_)" d="M2060.268,1781.379c0,0.387-0.316,0.703-0.703,0.703h-46.819c-0.387,0-0.703-0.317-0.703-0.703
		v-26.056c0-0.387,0.317-0.703,0.703-0.703h46.819c0.387,0,0.703,0.317,0.703,0.703V1781.379z"/>
	<path fill="none" stroke="#989898" stroke-width="0.3794" stroke-linecap="round" stroke-linejoin="round" d="M2060.268,1781.379
		c0,0.387-0.316,0.703-0.703,0.703h-46.819c-0.387,0-0.703-0.317-0.703-0.703v-26.056c0-0.387,0.317-0.703,0.703-0.703h46.819
		c0.387,0,0.703,0.317,0.703,0.703V1781.379z"/>
</g>
<g>
	<linearGradient id="SVGID_9_" gradientUnits="userSpaceOnUse" x1="2378.6084" y1="1782.5891" x2="2378.6084" y2="1908.5162">
		<stop  offset="0" style="stop-color:#D9D9D9"/>
		<stop  offset="1" style="stop-color:#C4C4C4"/>
	</linearGradient>
	<path fill="url(#SVGID_9_)" d="M2402.721,1879.461c0,0.387-0.316,0.703-0.703,0.703h-46.819c-0.387,0-0.703-0.317-0.703-0.703
		v-26.057c0-0.387,0.317-0.703,0.703-0.703h46.819c0.387,0,0.703,0.317,0.703,0.703V1879.461z"/>
	<path fill="none" stroke="#989898" stroke-width="0.3794" stroke-linecap="round" stroke-linejoin="round" d="M2402.721,1879.461
		c0,0.387-0.316,0.703-0.703,0.703h-46.819c-0.387,0-0.703-0.317-0.703-0.703v-26.057c0-0.387,0.317-0.703,0.703-0.703h46.819
		c0.387,0,0.703,0.317,0.703,0.703V1879.461z"/>
</g>
<g>
	<linearGradient id="SVGID_10_" gradientUnits="userSpaceOnUse" x1="2378.6084" y1="1782.5939" x2="2378.6084" y2="1908.5171">
		<stop  offset="0" style="stop-color:#D9D9D9"/>
		<stop  offset="1" style="stop-color:#C4C4C4"/>
	</linearGradient>
	<path fill="url(#SVGID_10_)" d="M2402.721,1846.501c0,0.387-0.316,0.703-0.703,0.703h-46.819c-0.387,0-0.703-0.317-0.703-0.703
		v-26.056c0-0.387,0.317-0.703,0.703-0.703h46.819c0.387,0,0.703,0.317,0.703,0.703V1846.501z"/>
	<path fill="none" stroke="#989898" stroke-width="0.3794" stroke-linecap="round" stroke-linejoin="round" d="M2402.721,1846.501
		c0,0.387-0.316,0.703-0.703,0.703h-46.819c-0.387,0-0.703-0.317-0.703-0.703v-26.056c0-0.387,0.317-0.703,0.703-0.703h46.819
		c0.387,0,0.703,0.317,0.703,0.703V1846.501z"/>
</g>
<g>
	<linearGradient id="SVGID_11_" gradientUnits="userSpaceOnUse" x1="2378.6084" y1="1782.5929" x2="2378.6084" y2="1908.5074">
		<stop  offset="0" style="stop-color:#D9D9D9"/>
		<stop  offset="1" style="stop-color:#C4C4C4"/>
	</linearGradient>
	<path fill="url(#SVGID_11_)" d="M2402.721,1813.971c0,0.387-0.316,0.703-0.703,0.703h-46.819c-0.387,0-0.703-0.317-0.703-0.703
		v-26.054c0-0.387,0.317-0.703,0.703-0.703h46.819c0.387,0,0.703,0.317,0.703,0.703V1813.971z"/>
	<path fill="none" stroke="#989898" stroke-width="0.3794" stroke-linecap="round" stroke-linejoin="round" d="M2402.721,1813.971
		c0,0.387-0.316,0.703-0.703,0.703h-46.819c-0.387,0-0.703-0.317-0.703-0.703v-26.054c0-0.387,0.317-0.703,0.703-0.703h46.819
		c0.387,0,0.703,0.317,0.703,0.703V1813.971z"/>
</g>
<g>
	<linearGradient id="SVGID_12_" gradientUnits="userSpaceOnUse" x1="2378.6084" y1="1782.5917" x2="2378.6084" y2="1908.5144">
		<stop  offset="0" style="stop-color:#D9D9D9"/>
		<stop  offset="1" style="stop-color:#C4C4C4"/>
	</linearGradient>
	<path fill="url(#SVGID_12_)" d="M2402.721,1781.379c0,0.387-0.316,0.703-0.703,0.703h-46.819c-0.387,0-0.703-0.317-0.703-0.703
		v-26.056c0-0.387,0.317-0.703,0.703-0.703h46.819c0.387,0,0.703,0.317,0.703,0.703V1781.379z"/>
	<path fill="none" stroke="#989898" stroke-width="0.3794" stroke-linecap="round" stroke-linejoin="round" d="M2402.721,1781.379
		c0,0.387-0.316,0.703-0.703,0.703h-46.819c-0.387,0-0.703-0.317-0.703-0.703v-26.056c0-0.387,0.317-0.703,0.703-0.703h46.819
		c0.387,0,0.703,0.317,0.703,0.703V1781.379z"/>
</g>
<g>
	<path fill="#58595B" d="M2034.912,1937.91l-2.176,6.062h-2.9l7.832-20.827h3.19l7.542,20.827h-3.075l-2.06-6.062H2034.912z
		 M2042.251,1935.415l-3.075-9.167h-0.058l-3.336,9.167H2042.251z"/>
	<path fill="#58595B" d="M2053.558,1943.972h-2.553v-15.171h2.407v2.523h0.059c1.016-1.769,2.35-2.958,4.264-2.958
		c0.319,0,0.465,0.028,0.667,0.087v2.64h-0.957c-2.378,0-3.887,1.856-3.887,4.061V1943.972z"/>
	<path fill="#58595B" d="M2069.801,1933.907c-0.319-2.03-1.451-3.249-3.598-3.249c-3.161,0-4.177,3.017-4.177,5.715
		c0,2.61,0.639,5.83,4.148,5.83c1.711,0,3.19-1.276,3.626-3.597h2.465c-0.261,2.407-1.74,5.802-6.178,5.802
		c-4.265,0-6.788-3.221-6.788-7.601c0-4.699,2.263-8.44,7.281-8.44c3.974,0,5.481,2.9,5.685,5.54H2069.801z"/>
	<path fill="#58595B" d="M2087.172,1943.972h-2.553v-9.92c0-2.06-0.58-3.395-3.017-3.395c-2.088,0-4.234,1.219-4.234,5.048v8.267
		h-2.553v-20.827h2.553v7.687h0.058c0.726-0.957,2.001-2.465,4.438-2.465c2.35,0,5.308,0.957,5.308,5.279V1943.972z"/>
	<path fill="#58595B" d="M2113.939,1929.411c-0.783-3.655-3.829-4.322-5.831-4.322c-3.771,0-6.816,2.785-6.816,8.268
		c0,4.901,1.74,8.673,6.904,8.673c1.827,0,4.989-0.87,5.946-5.715h2.727c-1.16,7.861-7.542,8.209-9.108,8.209
		c-4.729,0-9.369-3.074-9.369-11.08c0-6.411,3.655-10.849,9.717-10.849c5.367,0,8.151,3.336,8.558,6.816H2113.939z"/>
	<path fill="#58595B" d="M2119.851,1933.413c0.115-3.626,2.523-5.047,6.265-5.047c1.219,0,5.628,0.348,5.628,4.234v8.731
		c0,0.638,0.319,0.899,0.841,0.899c0.232,0,0.552-0.059,0.842-0.116v1.856c-0.436,0.116-0.812,0.29-1.393,0.29
		c-2.263,0-2.61-1.16-2.697-2.32c-0.986,1.073-2.524,2.466-5.482,2.466c-2.785,0-4.758-1.77-4.758-4.381
		c0-1.276,0.377-4.234,4.612-4.757l4.206-0.522c0.609-0.058,1.334-0.29,1.334-1.798c0-1.596-1.16-2.466-3.567-2.466
		c-2.9,0-3.307,1.77-3.48,2.93H2119.851z M2129.191,1936.227c-0.406,0.319-1.044,0.552-4.206,0.957
		c-1.247,0.175-3.249,0.552-3.249,2.466c0,1.653,0.842,2.64,2.756,2.64c2.379,0,4.699-1.537,4.699-3.567V1936.227z"/>
	<path fill="#58595B" d="M2138.963,1943.972h-2.553v-15.171h2.407v2.523h0.059c1.016-1.769,2.35-2.958,4.264-2.958
		c0.319,0,0.465,0.028,0.667,0.087v2.64h-0.957c-2.378,0-3.887,1.856-3.887,4.061V1943.972z"/>
	<path fill="#58595B" d="M2158.308,1943.972h-2.407v-2.089h-0.059c-1.103,2.06-2.843,2.524-4.322,2.524
		c-5.163,0-6.671-4.845-6.671-8.471c0-4.264,2.291-7.57,6.323-7.57c2.756,0,3.916,1.711,4.525,2.581l0.058-0.203v-7.6h2.553
		V1943.972z M2151.579,1942.203c1.624,0,4.147-1.073,4.147-5.105c0-2.465-0.406-6.439-4.09-6.439c-3.944,0-4.147,3.742-4.147,5.686
		C2147.489,1939.679,2148.794,1942.203,2151.579,1942.203z"/>
	<path fill="#58595B" d="M2170.369,1923.145h8.441c5.424,0,8.76,4.119,8.76,10.124c0,4.67-2.03,10.703-8.876,10.703h-8.325V1923.145
		z M2173.182,1941.565h5.453c3.655,0,6.034-2.872,6.034-8.122s-2.408-7.89-6.237-7.89h-5.25V1941.565z"/>
	<path fill="#58595B" d="M2190.9,1926.045v-2.9h2.553v2.9H2190.9z M2193.453,1943.972h-2.553v-15.171h2.553V1943.972z"/>
	<path fill="#58595B" d="M2205.895,1933.123c-0.029-0.957-0.378-2.553-3.598-2.553c-0.783,0-3.017,0.261-3.017,2.146
		c0,1.247,0.783,1.537,2.756,2.03l2.553,0.639c3.162,0.783,4.264,1.943,4.264,4.003c0,3.133-2.581,5.019-6.004,5.019
		c-6.005,0-6.439-3.481-6.526-5.309h2.465c0.087,1.189,0.436,3.104,4.032,3.104c1.827,0,3.48-0.725,3.48-2.407
		c0-1.219-0.841-1.625-3.017-2.176l-2.958-0.726c-2.118-0.521-3.511-1.595-3.511-3.684c0-3.336,2.756-4.844,5.744-4.844
		c5.424,0,5.801,4.003,5.801,4.757H2205.895z"/>
	<path fill="#58595B" d="M2211.577,1928.801h2.407v2.146h0.059c0.608-0.87,1.769-2.581,4.524-2.581c4.032,0,6.324,3.307,6.324,7.57
		c0,3.626-1.509,8.471-6.672,8.471c-2.03,0-3.365-0.958-4.032-2.031h-0.058v7.601h-2.553V1928.801z M2218.161,1942.203
		c2.785,0,4.091-2.523,4.091-5.859c0-1.943-0.203-5.686-4.148-5.686c-3.684,0-4.09,3.975-4.09,6.439
		C2214.013,1941.129,2216.537,1942.203,2218.161,1942.203z"/>
	<path fill="#58595B" d="M2230.514,1943.972h-2.553v-20.827h2.553V1943.972z"/>
	<path fill="#58595B" d="M2234.255,1933.413c0.115-3.626,2.523-5.047,6.265-5.047c1.219,0,5.628,0.348,5.628,4.234v8.731
		c0,0.638,0.319,0.899,0.841,0.899c0.232,0,0.552-0.059,0.842-0.116v1.856c-0.436,0.116-0.812,0.29-1.393,0.29
		c-2.263,0-2.61-1.16-2.697-2.32c-0.986,1.073-2.524,2.466-5.482,2.466c-2.785,0-4.758-1.77-4.758-4.381
		c0-1.276,0.377-4.234,4.612-4.757l4.206-0.522c0.609-0.058,1.334-0.29,1.334-1.798c0-1.596-1.16-2.466-3.567-2.466
		c-2.9,0-3.307,1.77-3.48,2.93H2234.255z M2243.594,1936.227c-0.406,0.319-1.044,0.552-4.206,0.957
		c-1.247,0.175-3.249,0.552-3.249,2.466c0,1.653,0.842,2.64,2.756,2.64c2.379,0,4.699-1.537,4.699-3.567V1936.227z"/>
	<path fill="#58595B" d="M2259.088,1928.801h2.813c-1.77,4.96-3.51,9.921-5.453,14.881c-2.408,6.149-2.669,6.497-5.947,6.497
		c-0.377,0-0.667-0.115-1.073-0.231v-2.32c0.319,0.115,0.842,0.261,1.538,0.261c1.334,0,1.479-0.377,2.697-3.51l-5.627-15.577h2.9
		l4.032,12.357h0.058L2259.088,1928.801z"/>
	<path fill="#58595B" d="M2275.731,1943.972h-2.813v-20.827h2.813V1943.972z"/>
	<path fill="#58595B" d="M2292.583,1943.972h-2.553v-9.34c0-2.64-0.754-3.975-3.248-3.975c-1.451,0-4.003,0.929-4.003,5.048v8.267
		h-2.553v-15.171h2.407v2.146h0.058c0.552-0.812,1.973-2.581,4.584-2.581c2.35,0,5.308,0.957,5.308,5.279V1943.972z"/>
	<path fill="#58595B" d="M2304.966,1933.123c-0.029-0.957-0.378-2.553-3.598-2.553c-0.783,0-3.017,0.261-3.017,2.146
		c0,1.247,0.783,1.537,2.756,2.03l2.553,0.639c3.162,0.783,4.264,1.943,4.264,4.003c0,3.133-2.581,5.019-6.004,5.019
		c-6.005,0-6.439-3.481-6.526-5.309h2.465c0.087,1.189,0.436,3.104,4.032,3.104c1.827,0,3.48-0.725,3.48-2.407
		c0-1.219-0.841-1.625-3.017-2.176l-2.958-0.726c-2.118-0.521-3.511-1.595-3.511-3.684c0-3.336,2.756-4.844,5.744-4.844
		c5.424,0,5.801,4.003,5.801,4.757H2304.966z"/>
	<path fill="#58595B" d="M2323.729,1939.215c-0.087,0.725-0.783,2.871-2.697,4.147c-0.696,0.464-1.683,1.045-4.119,1.045
		c-4.265,0-6.788-3.221-6.788-7.601c0-4.699,2.263-8.44,7.281-8.44c4.38,0,6.526,3.48,6.526,8.847h-11.081
		c0,3.162,1.479,4.989,4.409,4.989c2.407,0,3.829-1.856,3.916-2.987H2323.729z M2321.293,1935.183
		c-0.146-2.35-1.132-4.525-4.235-4.525c-2.35,0-4.206,2.176-4.206,4.525H2321.293z"/>
	<path fill="#58595B" d="M2329.875,1943.972h-2.553v-15.171h2.407v2.523h0.059c1.016-1.769,2.35-2.958,4.264-2.958
		c0.319,0,0.465,0.028,0.667,0.087v2.64h-0.957c-2.378,0-3.887,1.856-3.887,4.061V1943.972z"/>
	<path fill="#58595B" d="M2340.918,1930.919v9.862c0,1.188,1.015,1.188,1.537,1.188h0.899v2.002
		c-0.929,0.087-1.653,0.203-1.915,0.203c-2.523,0-3.074-1.422-3.074-3.249v-10.007h-2.06v-2.118h2.06v-4.234h2.553v4.234h2.437
		v2.118H2340.918z"/>
	<path fill="#58595B" d="M2360.668,1922.71c-2.466,4.641-3.945,7.426-3.945,14.387c0,4.786,1.653,8.325,3.974,12.88h-1.711
		c-3.017-4.525-4.989-8.151-4.989-13.576c0-5.104,1.77-9.224,4.902-13.69H2360.668z"/>
	<path fill="#58595B" d="M2368.177,1932.37c0.436,0.028,0.899,0.058,1.335,0.058c1.973,0,3.887-0.783,3.887-3.336
		c0-1.218-0.726-3.22-3.771-3.22c-3.626,0-3.858,2.959-3.975,4.38h-2.494c0-2.987,1.218-6.671,6.584-6.671
		c3.945,0,6.295,2.263,6.295,5.366c0,2.61-1.509,3.857-2.61,4.206v0.058c1.973,0.639,3.394,2.03,3.394,4.757
		c0,3.336-2.146,6.556-7.339,6.556c-1.508,0-2.784-0.377-3.771-0.898c-2.263-1.189-2.872-3.539-3.046-5.889h2.64
		c0.087,1.914,0.551,4.496,4.351,4.496c2.611,0,4.438-1.596,4.438-3.945c0-3.423-3.017-3.742-4.757-3.742
		c-0.378,0-0.783,0.029-1.161,0.029V1932.37z"/>
	<path fill="#58595B" d="M2378.819,1949.977c2.465-4.642,3.944-7.426,3.944-14.388c0-4.786-1.653-8.325-3.974-12.879h1.711
		c3.018,4.524,4.989,8.15,4.989,13.575c0,5.104-1.77,9.224-4.901,13.691H2378.819z"/>
</g>
<g>
	<path fill="#58595B" d="M1498.928,1943.972h-2.813v-20.827h9.63c3.423,0,6.846,1.189,6.846,5.599c0,3.074-1.566,4.206-2.9,4.989
		c1.189,0.493,2.379,1.015,2.494,3.916l0.175,3.771c0.028,1.16,0.174,1.596,1.044,2.089v0.464h-3.452
		c-0.406-1.276-0.493-4.438-0.493-5.222c0-1.711-0.348-3.713-3.713-3.713h-6.816V1943.972z M1498.928,1932.63h6.526
		c2.06,0,4.235-0.522,4.235-3.597c0-3.22-2.35-3.48-3.742-3.48h-7.02V1932.63z"/>
	<path fill="#58595B" d="M1529.264,1939.215c-0.087,0.725-0.783,2.871-2.697,4.147c-0.696,0.464-1.683,1.045-4.119,1.045
		c-4.265,0-6.788-3.221-6.788-7.601c0-4.699,2.263-8.44,7.281-8.44c4.38,0,6.526,3.48,6.526,8.847h-11.081
		c0,3.162,1.479,4.989,4.409,4.989c2.407,0,3.829-1.856,3.916-2.987H1529.264z M1526.828,1935.183
		c-0.146-2.35-1.132-4.525-4.235-4.525c-2.35,0-4.206,2.176-4.206,4.525H1526.828z"/>
	<path fill="#58595B" d="M1545.098,1942.725c0,2.175-0.029,7.629-7.049,7.629c-1.799,0-5.309-0.493-5.802-4.525h2.553
		c0.464,2.407,2.813,2.407,3.423,2.407c4.409,0,4.322-3.538,4.322-5.337v-0.638h-0.058v0.115c-0.668,1.073-2.002,2.031-4.032,2.031
		c-5.163,0-6.672-4.845-6.672-8.471c0-4.264,2.292-7.57,6.323-7.57c2.756,0,3.916,1.711,4.525,2.581h0.058v-2.146h2.408V1942.725z
		 M1538.513,1942.203c1.625,0,4.148-1.073,4.148-5.105c0-2.465-0.406-6.439-4.09-6.439c-3.945,0-4.148,3.742-4.148,5.686
		C1534.424,1939.679,1535.729,1942.203,1538.513,1942.203z"/>
	<path fill="#58595B" d="M1548.691,1926.045v-2.9h2.553v2.9H1548.691z M1551.244,1943.972h-2.553v-15.171h2.553V1943.972z"/>
	<path fill="#58595B" d="M1563.686,1933.123c-0.029-0.957-0.378-2.553-3.598-2.553c-0.783,0-3.017,0.261-3.017,2.146
		c0,1.247,0.783,1.537,2.756,2.03l2.553,0.639c3.162,0.783,4.264,1.943,4.264,4.003c0,3.133-2.581,5.019-6.004,5.019
		c-6.005,0-6.439-3.481-6.526-5.309h2.465c0.087,1.189,0.436,3.104,4.032,3.104c1.827,0,3.48-0.725,3.48-2.407
		c0-1.219-0.841-1.625-3.017-2.176l-2.958-0.726c-2.118-0.521-3.511-1.595-3.511-3.684c0-3.336,2.756-4.844,5.744-4.844
		c5.424,0,5.801,4.003,5.801,4.757H1563.686z"/>
	<path fill="#58595B" d="M1572.704,1930.919v9.862c0,1.188,1.015,1.188,1.537,1.188h0.899v2.002
		c-0.929,0.087-1.653,0.203-1.915,0.203c-2.523,0-3.074-1.422-3.074-3.249v-10.007h-2.06v-2.118h2.06v-4.234h2.553v4.234h2.437
		v2.118H1572.704z"/>
	<path fill="#58595B" d="M1590.512,1939.215c-0.087,0.725-0.783,2.871-2.697,4.147c-0.696,0.464-1.683,1.045-4.119,1.045
		c-4.265,0-6.788-3.221-6.788-7.601c0-4.699,2.263-8.44,7.281-8.44c4.38,0,6.526,3.48,6.526,8.847h-11.081
		c0,3.162,1.479,4.989,4.409,4.989c2.407,0,3.829-1.856,3.916-2.987H1590.512z M1588.076,1935.183
		c-0.146-2.35-1.132-4.525-4.235-4.525c-2.35,0-4.206,2.176-4.206,4.525H1588.076z"/>
	<path fill="#58595B" d="M1596.658,1943.972h-2.553v-15.171h2.407v2.523h0.059c1.016-1.769,2.35-2.958,4.264-2.958
		c0.319,0,0.465,0.028,0.667,0.087v2.64h-0.957c-2.378,0-3.887,1.856-3.887,4.061V1943.972z"/>
	<path fill="#58595B" d="M1608.552,1923.145h16.911v2.495h-7.049v18.332h-2.813v-18.332h-7.049V1923.145z"/>
	<path fill="#58595B" d="M1630.452,1928.367c4.845,0,7.049,4.09,7.049,8.006s-2.204,8.006-7.049,8.006
		c-4.844,0-7.048-4.09-7.048-8.006S1625.608,1928.367,1630.452,1928.367z M1630.452,1942.173c3.655,0,4.409-3.771,4.409-5.801
		s-0.754-5.802-4.409-5.802c-3.654,0-4.408,3.771-4.408,5.802S1626.798,1942.173,1630.452,1942.173z"/>
	<path fill="#58595B" d="M1640.195,1928.801h2.407v2.146h0.059c0.608-0.87,1.769-2.581,4.524-2.581c4.032,0,6.324,3.307,6.324,7.57
		c0,3.626-1.509,8.471-6.672,8.471c-2.03,0-3.365-0.958-4.032-2.031h-0.058v7.601h-2.553V1928.801z M1646.779,1942.203
		c2.785,0,4.091-2.523,4.091-5.859c0-1.943-0.203-5.686-4.148-5.686c-3.684,0-4.09,3.975-4.09,6.439
		C1642.632,1941.129,1645.155,1942.203,1646.779,1942.203z"/>
	<path fill="#58595B" d="M1656.319,1928.801h2.407v2.146h0.059c0.608-0.87,1.769-2.581,4.524-2.581c4.032,0,6.324,3.307,6.324,7.57
		c0,3.626-1.509,8.471-6.672,8.471c-2.03,0-3.365-0.958-4.032-2.031h-0.058v7.601h-2.553V1928.801z M1662.903,1942.203
		c2.785,0,4.091-2.523,4.091-5.859c0-1.943-0.203-5.686-4.148-5.686c-3.684,0-4.09,3.975-4.09,6.439
		C1658.756,1941.129,1661.279,1942.203,1662.903,1942.203z"/>
	<path fill="#58595B" d="M1685.525,1939.215c-0.087,0.725-0.783,2.871-2.698,4.147c-0.695,0.464-1.682,1.045-4.118,1.045
		c-4.265,0-6.788-3.221-6.788-7.601c0-4.699,2.263-8.44,7.281-8.44c4.38,0,6.526,3.48,6.526,8.847h-11.081
		c0,3.162,1.479,4.989,4.409,4.989c2.407,0,3.829-1.856,3.916-2.987H1685.525z M1683.089,1935.183
		c-0.146-2.35-1.132-4.525-4.235-4.525c-2.35,0-4.206,2.176-4.206,4.525H1683.089z"/>
	<path fill="#58595B" d="M1691.671,1943.972h-2.553v-15.171h2.408v2.523h0.058c1.016-1.769,2.35-2.958,4.264-2.958
		c0.319,0,0.465,0.028,0.667,0.087v2.64h-0.957c-2.378,0-3.887,1.856-3.887,4.061V1943.972z"/>
	<path fill="#58595B" d="M1707.042,1933.123c-0.029-0.957-0.378-2.553-3.598-2.553c-0.783,0-3.017,0.261-3.017,2.146
		c0,1.247,0.783,1.537,2.756,2.03l2.553,0.639c3.162,0.783,4.264,1.943,4.264,4.003c0,3.133-2.581,5.019-6.004,5.019
		c-6.005,0-6.439-3.481-6.526-5.309h2.465c0.087,1.189,0.436,3.104,4.032,3.104c1.827,0,3.48-0.725,3.48-2.407
		c0-1.219-0.841-1.625-3.017-2.176l-2.958-0.726c-2.118-0.521-3.511-1.595-3.511-3.684c0-3.336,2.756-4.844,5.744-4.844
		c5.424,0,5.801,4.003,5.801,4.757H1707.042z"/>
	<path fill="#58595B" d="M1727.748,1922.71c-2.466,4.641-3.945,7.426-3.945,14.387c0,4.786,1.653,8.325,3.974,12.88h-1.711
		c-3.017-4.525-4.989-8.151-4.989-13.576c0-5.104,1.77-9.224,4.902-13.69H1727.748z"/>
	<path fill="#58595B" d="M1735.257,1932.37c0.436,0.028,0.899,0.058,1.335,0.058c1.973,0,3.887-0.783,3.887-3.336
		c0-1.218-0.726-3.22-3.771-3.22c-3.626,0-3.858,2.959-3.975,4.38h-2.494c0-2.987,1.218-6.671,6.584-6.671
		c3.945,0,6.295,2.263,6.295,5.366c0,2.61-1.509,3.857-2.61,4.206v0.058c1.973,0.639,3.394,2.03,3.394,4.757
		c0,3.336-2.146,6.556-7.339,6.556c-1.508,0-2.784-0.377-3.771-0.898c-2.263-1.189-2.872-3.539-3.046-5.889h2.64
		c0.087,1.914,0.551,4.496,4.351,4.496c2.611,0,4.438-1.596,4.438-3.945c0-3.423-3.017-3.742-4.757-3.742
		c-0.378,0-0.783,0.029-1.161,0.029V1932.37z"/>
	<path fill="#58595B" d="M1745.899,1949.977c2.465-4.642,3.944-7.426,3.944-14.388c0-4.786-1.653-8.325-3.974-12.879h1.711
		c3.018,4.524,4.989,8.15,4.989,13.575c0,5.104-1.77,9.224-4.901,13.691H1745.899z"/>
</g>
<g>
	<path fill="#58595B" d="M1362.608,2288.56c-0.783-3.655-3.829-4.322-5.831-4.322c-3.771,0-6.816,2.785-6.816,8.268
		c0,4.901,1.74,8.673,6.904,8.673c1.827,0,4.989-0.87,5.946-5.715h2.727c-1.16,7.861-7.542,8.209-9.108,8.209
		c-4.729,0-9.369-3.074-9.369-11.08c0-6.411,3.655-10.849,9.717-10.849c5.367,0,8.151,3.336,8.558,6.816H1362.608z"/>
	<path fill="#58595B" d="M1374.785,2287.516c4.845,0,7.049,4.09,7.049,8.006s-2.204,8.006-7.049,8.006
		c-4.844,0-7.048-4.09-7.048-8.006S1369.941,2287.516,1374.785,2287.516z M1374.785,2301.323c3.655,0,4.409-3.771,4.409-5.801
		s-0.754-5.802-4.409-5.802c-3.654,0-4.408,3.771-4.408,5.802S1371.131,2301.323,1374.785,2301.323z"/>
	<path fill="#58595B" d="M1394.622,2303.122v-2.204l-0.058-0.059c-1.073,1.77-2.379,2.698-4.815,2.698
		c-2.233,0-4.931-1.073-4.931-4.699v-10.907h2.553v10.065c0,2.495,1.276,3.336,2.93,3.336c3.22,0,4.177-2.843,4.177-5.047v-8.354
		h2.553v15.171H1394.622z"/>
	<path fill="#58595B" d="M1413.212,2303.122h-2.553v-9.34c0-2.64-0.754-3.975-3.248-3.975c-1.451,0-4.003,0.929-4.003,5.048v8.267
		h-2.553v-15.171h2.407v2.146h0.058c0.552-0.812,1.973-2.581,4.584-2.581c2.35,0,5.308,0.957,5.308,5.279V2303.122z"/>
	<path fill="#58595B" d="M1420.112,2290.069v9.862c0,1.188,1.015,1.188,1.537,1.188h0.899v2.002
		c-0.929,0.087-1.653,0.203-1.915,0.203c-2.523,0-3.074-1.422-3.074-3.249v-10.007h-2.06v-2.118h2.06v-4.234h2.553v4.234h2.437
		v2.118H1420.112z"/>
	<path fill="#58595B" d="M1437.92,2298.365c-0.087,0.725-0.783,2.871-2.698,4.147c-0.695,0.464-1.682,1.045-4.118,1.045
		c-4.265,0-6.788-3.22-6.788-7.601c0-4.699,2.263-8.44,7.281-8.44c4.38,0,6.526,3.48,6.526,8.847h-11.081
		c0,3.162,1.479,4.989,4.409,4.989c2.407,0,3.829-1.856,3.916-2.987H1437.92z M1435.483,2294.333
		c-0.146-2.35-1.132-4.525-4.235-4.525c-2.35,0-4.206,2.176-4.206,4.525H1435.483z"/>
	<path fill="#58595B" d="M1444.065,2303.122h-2.553v-15.171h2.408v2.523h0.058c1.016-1.769,2.35-2.958,4.264-2.958
		c0.319,0,0.465,0.028,0.667,0.087v2.64h-0.957c-2.378,0-3.887,1.856-3.887,4.061V2303.122z"/>
	<path fill="#58595B" d="M1476.345,2303.122v-12.299c0-0.609,0.058-3.249,0.058-5.192h-0.058l-5.859,17.491h-2.785l-5.859-17.462
		h-0.058c0,1.914,0.058,4.554,0.058,5.163v12.299h-2.727v-20.827h4.032l5.946,17.607h0.059l5.917-17.607h4.003v20.827H1476.345z"/>
	<path fill="#58595B" d="M1482.954,2292.563c0.115-3.626,2.523-5.047,6.265-5.047c1.219,0,5.628,0.348,5.628,4.234v8.731
		c0,0.638,0.319,0.899,0.841,0.899c0.232,0,0.552-0.059,0.842-0.116v1.856c-0.436,0.116-0.812,0.29-1.393,0.29
		c-2.263,0-2.61-1.16-2.697-2.32c-0.986,1.073-2.524,2.466-5.482,2.466c-2.785,0-4.758-1.77-4.758-4.381
		c0-1.276,0.377-4.234,4.612-4.757l4.206-0.522c0.609-0.058,1.334-0.29,1.334-1.798c0-1.596-1.16-2.466-3.567-2.466
		c-2.9,0-3.307,1.77-3.48,2.93H1482.954z M1492.294,2295.377c-0.406,0.319-1.044,0.552-4.206,0.957
		c-1.247,0.175-3.249,0.552-3.249,2.466c0,1.653,0.842,2.64,2.756,2.64c2.379,0,4.699-1.537,4.699-3.567V2295.377z"/>
	<path fill="#58595B" d="M1502.298,2290.069v9.862c0,1.188,1.015,1.188,1.537,1.188h0.899v2.002
		c-0.929,0.087-1.653,0.203-1.915,0.203c-2.523,0-3.074-1.422-3.074-3.249v-10.007h-2.06v-2.118h2.06v-4.234h2.553v4.234h2.437
		v2.118H1502.298z"/>
</g>
<g>
	<path fill="#58595B" d="M1716.3,851.281h2.142v17.44h9.86v1.785H1716.3V851.281z"/>
	<path fill="#58595B" d="M1730.443,864.629v-2.307c0-3.461,2.307-6.207,6.29-6.207s6.262,2.746,6.262,6.207v2.307
		c0,3.461-2.28,6.207-6.262,6.207C1732.723,870.836,1730.443,868.09,1730.443,864.629z M1736.733,857.79
		c-2.774,0-4.257,1.896-4.257,4.56v2.252c0,2.664,1.483,4.56,4.257,4.56c2.774,0,4.257-1.896,4.257-4.56v-2.252
		C1740.99,859.686,1739.507,857.79,1736.733,857.79z"/>
	<path fill="#58595B" d="M1746.07,864.656v-2.361c0-3.543,2.334-6.18,6.235-6.18c3.543,0,5.85,2.307,6.015,5.273h-1.867
		c-0.275-1.896-1.456-3.626-4.12-3.626c-2.884,0-4.229,1.868-4.229,4.505v2.416c0,2.637,1.346,4.505,4.229,4.505
		c2.664,0,3.845-1.73,4.12-3.626h1.867c-0.165,2.967-2.472,5.273-6.015,5.273C1748.405,870.836,1746.07,868.199,1746.07,864.656z"/>
	<path fill="#58595B" d="M1771.668,870.507v-1.758c-0.604,0.989-2.5,2.087-4.834,2.087c-3.323,0-5.329-1.867-5.329-4.422
		c0-2.719,2.225-4.395,5.576-4.395c2.225,0,3.708,0.935,4.504,1.758v-2.609c0-1.922-1.263-3.405-3.516-3.405
		c-1.785,0-2.938,0.824-3.516,2.115h-1.922c0.714-2.335,2.691-3.763,5.465-3.763c3.488,0,5.576,2.279,5.576,5.053v9.339H1771.668z
		 M1771.585,866.387c0-1.758-2.087-2.993-4.202-2.993c-2.334,0-3.9,1.099-3.9,3.048c0,1.95,1.621,3.049,3.791,3.049
		C1769.47,869.49,1771.585,868.199,1771.585,866.387z"/>
	<path fill="#58595B" d="M1778.094,850.457h2.087v20.05h-2.087V850.457z"/>
	<path fill="#58595B" d="M1790.123,864.629v-2.307c0-3.461,2.307-6.207,6.29-6.207s6.262,2.746,6.262,6.207v2.307
		c0,3.461-2.28,6.207-6.262,6.207C1792.403,870.836,1790.123,868.09,1790.123,864.629z M1796.412,857.79
		c-2.774,0-4.257,1.896-4.257,4.56v2.252c0,2.664,1.483,4.56,4.257,4.56c2.774,0,4.257-1.896,4.257-4.56v-2.252
		C1800.67,859.686,1799.187,857.79,1796.412,857.79z"/>
	<path fill="#58595B" d="M1806.436,856.444h1.95v3.241c0.522-2.17,2.033-3.323,4.587-3.323h0.33v1.95h-0.412
		c-2.664,0-4.367,1.758-4.367,5.301v6.894h-2.087V856.444z"/>
	<path fill="#58595B" d="M1821.871,862.515v-3.241c0-4.779,2.691-8.377,7.992-8.377c4.45,0,7.278,3.104,7.581,6.729h-2.06
		c-0.329-2.637-2.087-4.943-5.548-4.943c-3.928,0-5.823,2.746-5.823,6.51v3.405c0,3.763,1.895,6.51,5.823,6.51
		c3.461,0,5.219-2.308,5.548-4.944h2.06c-0.302,3.626-3.131,6.729-7.581,6.729C1824.563,870.892,1821.871,867.293,1821.871,862.515z
		"/>
	<path fill="#58595B" d="M1840.739,864.629v-2.307c0-3.461,2.307-6.207,6.29-6.207s6.262,2.746,6.262,6.207v2.307
		c0,3.461-2.28,6.207-6.262,6.207C1843.019,870.836,1840.739,868.09,1840.739,864.629z M1847.029,857.79
		c-2.774,0-4.257,1.896-4.257,4.56v2.252c0,2.664,1.483,4.56,4.257,4.56c2.774,0,4.257-1.896,4.257-4.56v-2.252
		C1851.286,859.686,1849.803,857.79,1847.029,857.79z"/>
	<path fill="#58595B" d="M1857.052,856.444h1.95v3.241c0.522-2.17,2.033-3.323,4.587-3.323h0.33v1.95h-0.412
		c-2.664,0-4.367,1.758-4.367,5.301v6.894h-2.087V856.444z"/>
	<path fill="#58595B" d="M1865.842,864.712v-2.253c0-3.817,2.17-6.344,6.125-6.344c4.01,0,5.96,2.664,5.96,6.124v2.088h-10.08v0.494
		c0,2.444,1.264,4.422,4.203,4.422c2.115,0,3.405-1.126,3.873-2.719h1.868c-0.467,2.526-2.802,4.312-5.74,4.312
		C1868.396,870.836,1865.842,868.502,1865.842,864.712z M1867.846,862.734h8.13v-0.659c0-2.5-1.263-4.367-4.01-4.367
		c-3.021,0-4.12,2.005-4.12,4.587V862.734z"/>
	<path fill="#58595B" d="M1888.06,851.281h7.525c4.038,0,6.537,2.637,6.537,6.097c0,3.461-2.5,6.152-6.537,6.152h-5.383v6.977
		h-2.142V851.281z M1895.394,861.745c3.158,0,4.586-2.032,4.586-4.367c0-2.334-1.428-4.312-4.586-4.312h-5.191v8.679H1895.394z"/>
	<path fill="#58595B" d="M1905.335,856.444h1.95v3.241c0.522-2.17,2.032-3.323,4.587-3.323h0.33v1.95h-0.412
		c-2.664,0-4.367,1.758-4.367,5.301v6.894h-2.087V856.444z"/>
	<path fill="#58595B" d="M1914.124,864.629v-2.307c0-3.461,2.307-6.207,6.29-6.207s6.262,2.746,6.262,6.207v2.307
		c0,3.461-2.279,6.207-6.262,6.207C1916.404,870.836,1914.124,868.09,1914.124,864.629z M1920.413,857.79
		c-2.774,0-4.257,1.896-4.257,4.56v2.252c0,2.664,1.482,4.56,4.257,4.56s4.257-1.896,4.257-4.56v-2.252
		C1924.67,859.686,1923.188,857.79,1920.413,857.79z"/>
	<path fill="#58595B" d="M1930.437,856.444h1.978v2.39c0.659-1.593,2.197-2.719,4.643-2.719c2.087,0,3.68,1.043,4.477,2.746
		c0.961-1.648,2.664-2.746,5.108-2.746c3.076,0,5.054,2.197,5.054,5.521v8.871h-2.087v-8.569c0-2.39-1.182-4.01-3.488-4.01
		c-2.308,0-4.01,1.4-4.01,4.312v8.268h-2.088v-8.569c0-2.39-1.181-4.01-3.488-4.01c-2.307,0-4.01,1.4-4.01,4.312v8.268h-2.088
		V856.444z"/>
	<path fill="#58595B" d="M1955.321,864.629v-2.307c0-3.461,2.307-6.207,6.289-6.207c3.983,0,6.263,2.746,6.263,6.207v2.307
		c0,3.461-2.279,6.207-6.263,6.207C1957.6,870.836,1955.321,868.09,1955.321,864.629z M1961.61,857.79
		c-2.773,0-4.257,1.896-4.257,4.56v2.252c0,2.664,1.483,4.56,4.257,4.56c2.774,0,4.258-1.896,4.258-4.56v-2.252
		C1965.867,859.686,1964.384,857.79,1961.61,857.79z"/>
	<path fill="#58595B" d="M1980.313,853.45l-4.01,1.896v-1.923l4.367-2.142h1.758v19.226h-2.115V853.45z"/>
</g>
<g>
	<path fill="#58595B" d="M2116.945,851.281h2.006l10.574,15.792v-15.792h2.087v19.226h-2.005l-10.574-15.793v15.793h-2.088V851.281z
		"/>
	<path fill="#58595B" d="M2145.865,870.507v-1.758c-0.604,0.989-2.499,2.087-4.834,2.087c-3.323,0-5.328-1.867-5.328-4.422
		c0-2.719,2.225-4.395,5.575-4.395c2.225,0,3.708,0.935,4.504,1.758v-2.609c0-1.922-1.263-3.405-3.516-3.405
		c-1.785,0-2.938,0.824-3.516,2.115h-1.922c0.714-2.335,2.691-3.763,5.466-3.763c3.487,0,5.575,2.279,5.575,5.053v9.339H2145.865z
		 M2145.782,866.387c0-1.758-2.087-2.993-4.201-2.993c-2.335,0-3.9,1.099-3.9,3.048c0,1.95,1.62,3.049,3.79,3.049
		C2143.668,869.49,2145.782,868.199,2145.782,866.387z"/>
	<path fill="#58595B" d="M2156.934,870.507c-2.692,0-3.817-1.346-3.817-3.735v-8.624h-2.391v-1.703h2.391v-4.037h2.087v4.037h3.598
		v1.703h-3.598v8.624c0,1.428,0.521,2.032,2.087,2.032h1.401v1.703H2156.934z"/>
	<path fill="#58595B" d="M2163.388,851.473c0.796,0,1.318,0.522,1.318,1.264c0,0.742-0.522,1.264-1.318,1.264
		c-0.797,0-1.318-0.521-1.318-1.264C2162.07,851.995,2162.591,851.473,2163.388,851.473z M2162.344,856.444h2.087v14.062h-2.087
		V856.444z"/>
	<path fill="#58595B" d="M2168.331,864.629v-2.307c0-3.461,2.307-6.207,6.289-6.207s6.262,2.746,6.262,6.207v2.307
		c0,3.461-2.279,6.207-6.262,6.207C2170.611,870.836,2168.331,868.09,2168.331,864.629z M2174.62,857.79
		c-2.773,0-4.257,1.896-4.257,4.56v2.252c0,2.664,1.483,4.56,4.257,4.56c2.774,0,4.258-1.896,4.258-4.56v-2.252
		C2178.878,859.686,2177.395,857.79,2174.62,857.79z"/>
	<path fill="#58595B" d="M2184.644,856.444h1.979v2.39c0.658-1.593,2.252-2.719,4.696-2.719c3.159,0,5.163,2.142,5.163,5.521v8.871
		h-2.087v-8.569c0-2.39-1.071-4.01-3.599-4.01c-2.307,0-4.064,1.4-4.064,4.312v8.268h-2.088V856.444z"/>
	<path fill="#58595B" d="M2210.324,870.507v-1.758c-0.604,0.989-2.499,2.087-4.834,2.087c-3.323,0-5.328-1.867-5.328-4.422
		c0-2.719,2.225-4.395,5.575-4.395c2.225,0,3.708,0.935,4.504,1.758v-2.609c0-1.922-1.263-3.405-3.516-3.405
		c-1.785,0-2.938,0.824-3.516,2.115h-1.922c0.714-2.335,2.691-3.763,5.466-3.763c3.487,0,5.575,2.279,5.575,5.053v9.339H2210.324z
		 M2210.241,866.387c0-1.758-2.087-2.993-4.201-2.993c-2.335,0-3.9,1.099-3.9,3.048c0,1.95,1.62,3.049,3.79,3.049
		C2208.127,869.49,2210.241,868.199,2210.241,866.387z"/>
	<path fill="#58595B" d="M2216.75,850.457h2.088v20.05h-2.088V850.457z"/>
	<path fill="#58595B" d="M2229.741,851.281h7.525c4.037,0,6.537,2.637,6.537,6.097c0,3.461-2.5,6.152-6.537,6.152h-5.384v6.977
		h-2.142V851.281z M2237.074,861.745c3.158,0,4.587-2.032,4.587-4.367c0-2.334-1.429-4.312-4.587-4.312h-5.191v8.679H2237.074z"/>
	<path fill="#58595B" d="M2247.016,856.444h1.95v3.241c0.521-2.17,2.032-3.323,4.587-3.323h0.329v1.95h-0.412
		c-2.664,0-4.367,1.758-4.367,5.301v6.894h-2.087V856.444z"/>
	<path fill="#58595B" d="M2255.804,864.629v-2.307c0-3.461,2.308-6.207,6.29-6.207s6.263,2.746,6.263,6.207v2.307
		c0,3.461-2.28,6.207-6.263,6.207C2258.084,870.836,2255.804,868.09,2255.804,864.629z M2262.094,857.79
		c-2.774,0-4.257,1.896-4.257,4.56v2.252c0,2.664,1.482,4.56,4.257,4.56s4.257-1.896,4.257-4.56v-2.252
		C2266.351,859.686,2264.868,857.79,2262.094,857.79z"/>
	<path fill="#58595B" d="M2272.118,856.444h1.977v2.39c0.66-1.593,2.197-2.719,4.643-2.719c2.087,0,3.68,1.043,4.477,2.746
		c0.961-1.648,2.664-2.746,5.109-2.746c3.076,0,5.053,2.197,5.053,5.521v8.871h-2.087v-8.569c0-2.39-1.181-4.01-3.488-4.01
		s-4.01,1.4-4.01,4.312v8.268h-2.088v-8.569c0-2.39-1.181-4.01-3.487-4.01c-2.308,0-4.011,1.4-4.011,4.312v8.268h-2.087V856.444z"/>
	<path fill="#58595B" d="M2297.001,864.629v-2.307c0-3.461,2.307-6.207,6.289-6.207c3.983,0,6.263,2.746,6.263,6.207v2.307
		c0,3.461-2.279,6.207-6.263,6.207C2299.281,870.836,2297.001,868.09,2297.001,864.629z M2303.29,857.79
		c-2.773,0-4.257,1.896-4.257,4.56v2.252c0,2.664,1.483,4.56,4.257,4.56c2.774,0,4.258-1.896,4.258-4.56v-2.252
		C2307.548,859.686,2306.065,857.79,2303.29,857.79z"/>
	<path fill="#58595B" d="M2319.055,868.859l8.13-8.542c1.346-1.401,2.143-2.665,2.143-4.147c0-2.143-1.676-3.543-3.928-3.543
		c-2.445,0-4.038,1.4-4.038,3.872v0.439h-2.005v-0.521c0-3.516,2.473-5.521,6.043-5.521c3.488,0,6.042,2.06,6.042,5.273
		c0,2.334-1.62,4.119-3.158,5.686l-6.784,6.921h9.97v1.73h-12.414V868.859z"/>
</g>
<g>
	<path fill="#58595B" d="M1673.36,79.563h2.005l10.574,15.792V79.563h2.087v19.226h-2.005l-10.574-15.793v15.793h-2.087V79.563z"/>
	<path fill="#58595B" d="M1702.28,98.788V97.03c-0.604,0.989-2.5,2.087-4.834,2.087c-3.323,0-5.329-1.867-5.329-4.422
		c0-2.719,2.225-4.395,5.576-4.395c2.225,0,3.708,0.935,4.504,1.758v-2.609c0-1.922-1.263-3.405-3.516-3.405
		c-1.785,0-2.938,0.824-3.516,2.115h-1.922c0.714-2.335,2.691-3.763,5.465-3.763c3.488,0,5.576,2.279,5.576,5.053v9.339H1702.28z
		 M1702.198,94.668c0-1.758-2.087-2.993-4.202-2.993c-2.334,0-3.9,1.099-3.9,3.048c0,1.95,1.621,3.049,3.791,3.049
		C1700.083,97.771,1702.198,96.48,1702.198,94.668z"/>
	<path fill="#58595B" d="M1713.348,98.788c-2.691,0-3.817-1.346-3.817-3.735v-8.624h-2.39v-1.703h2.39v-4.037h2.087v4.037h3.598
		v1.703h-3.598v8.624c0,1.428,0.522,2.032,2.087,2.032h1.4v1.703H1713.348z"/>
	<path fill="#58595B" d="M1719.802,79.754c0.796,0,1.318,0.522,1.318,1.264c0,0.742-0.522,1.264-1.318,1.264
		s-1.318-0.521-1.318-1.264C1718.484,80.276,1719.006,79.754,1719.802,79.754z M1718.758,84.726h2.088v14.062h-2.088V84.726z"/>
	<path fill="#58595B" d="M1724.745,92.91v-2.307c0-3.461,2.307-6.207,6.29-6.207c3.983,0,6.262,2.746,6.262,6.207v2.307
		c0,3.461-2.279,6.207-6.262,6.207C1727.025,99.117,1724.745,96.371,1724.745,92.91z M1731.035,86.071
		c-2.774,0-4.257,1.896-4.257,4.56v2.252c0,2.664,1.483,4.56,4.257,4.56s4.257-1.896,4.257-4.56v-2.252
		C1735.292,87.967,1733.809,86.071,1731.035,86.071z"/>
	<path fill="#58595B" d="M1741.059,84.726h1.978v2.39c0.659-1.593,2.252-2.719,4.697-2.719c3.159,0,5.164,2.142,5.164,5.521v8.871
		h-2.087v-8.569c0-2.39-1.071-4.01-3.598-4.01c-2.307,0-4.065,1.4-4.065,4.312v8.268h-2.087V84.726z"/>
	<path fill="#58595B" d="M1766.739,98.788V97.03c-0.604,0.989-2.5,2.087-4.834,2.087c-3.323,0-5.329-1.867-5.329-4.422
		c0-2.719,2.225-4.395,5.576-4.395c2.225,0,3.708,0.935,4.504,1.758v-2.609c0-1.922-1.263-3.405-3.516-3.405
		c-1.785,0-2.938,0.824-3.516,2.115h-1.922c0.714-2.335,2.691-3.763,5.465-3.763c3.488,0,5.576,2.279,5.576,5.053v9.339H1766.739z
		 M1766.656,94.668c0-1.758-2.087-2.993-4.202-2.993c-2.334,0-3.9,1.099-3.9,3.048c0,1.95,1.621,3.049,3.791,3.049
		C1764.542,97.771,1766.656,96.48,1766.656,94.668z"/>
	<path fill="#58595B" d="M1773.165,78.738h2.087v20.05h-2.087V78.738z"/>
	<path fill="#58595B" d="M1786.156,79.563h7.525c4.038,0,6.537,2.637,6.537,6.097c0,3.461-2.5,6.152-6.537,6.152h-5.383v6.977
		h-2.142V79.563z M1793.489,90.026c3.159,0,4.587-2.032,4.587-4.367c0-2.334-1.428-4.312-4.587-4.312h-5.191v8.679H1793.489z"/>
	<path fill="#58595B" d="M1803.43,84.726h1.95v3.241c0.522-2.17,2.033-3.323,4.587-3.323h0.33v1.95h-0.412
		c-2.664,0-4.367,1.758-4.367,5.301v6.894h-2.087V84.726z"/>
	<path fill="#58595B" d="M1812.219,92.91v-2.307c0-3.461,2.307-6.207,6.29-6.207c3.983,0,6.262,2.746,6.262,6.207v2.307
		c0,3.461-2.279,6.207-6.262,6.207C1814.499,99.117,1812.219,96.371,1812.219,92.91z M1818.509,86.071
		c-2.774,0-4.257,1.896-4.257,4.56v2.252c0,2.664,1.483,4.56,4.257,4.56s4.257-1.896,4.257-4.56v-2.252
		C1822.766,87.967,1821.282,86.071,1818.509,86.071z"/>
	<path fill="#58595B" d="M1828.532,84.726h1.978v2.39c0.659-1.593,2.197-2.719,4.642-2.719c2.088,0,3.681,1.043,4.477,2.746
		c0.961-1.648,2.665-2.746,5.109-2.746c3.076,0,5.054,2.197,5.054,5.521v8.871h-2.087v-8.569c0-2.39-1.181-4.01-3.488-4.01
		s-4.01,1.4-4.01,4.312v8.268h-2.087v-8.569c0-2.39-1.181-4.01-3.488-4.01s-4.01,1.4-4.01,4.312v8.268h-2.087V84.726z"/>
	<path fill="#58595B" d="M1853.416,92.91v-2.307c0-3.461,2.307-6.207,6.29-6.207s6.262,2.746,6.262,6.207v2.307
		c0,3.461-2.28,6.207-6.262,6.207C1855.696,99.117,1853.416,96.371,1853.416,92.91z M1859.705,86.071
		c-2.774,0-4.257,1.896-4.257,4.56v2.252c0,2.664,1.483,4.56,4.257,4.56c2.774,0,4.257-1.896,4.257-4.56v-2.252
		C1863.963,87.967,1862.48,86.071,1859.705,86.071z"/>
	<path fill="#58595B" d="M1878.408,81.731l-4.01,1.896v-1.923l4.367-2.142h1.758v19.226h-2.115V81.731z"/>
</g>
<g>
	<path fill="#58595B" d="M1976.59,79.563h7.938c3.405,0,5.246,2.005,5.246,4.778c0,2.225-1.182,3.763-2.829,4.505
		c2.114,0.467,3.955,1.922,3.955,4.724c0,3.214-2.39,5.219-6.18,5.219h-8.13V79.563z M1984.061,88.131
		c2.39,0,3.625-1.647,3.625-3.516c0-1.949-1.291-3.378-3.625-3.378h-5.411v6.894H1984.061z M1984.555,97.112
		c2.746,0,4.257-1.318,4.257-3.68c0-2.143-1.565-3.626-4.229-3.626h-5.933v7.306H1984.555z"/>
	<path fill="#58595B" d="M1992.053,79.563h2.087l5.768,17.166l5.769-17.166h2.087l-6.674,19.226h-2.362L1992.053,79.563z"/>
	<path fill="#58595B" d="M2027.675,98.788h-2.032V83.682l-5.301,10.465h-2.032l-5.302-10.465v15.106h-2.032V79.563h2.005
		l6.345,12.688l6.345-12.688h2.005V98.788z"/>
	<path fill="#58595B" d="M2041.077,81.731l-4.01,1.896v-1.923l4.367-2.142h1.758v19.226h-2.115V81.731z"/>
</g>
<g>
	<path fill="#58595B" d="M2325.126,79.563h7.938c3.406,0,5.246,2.005,5.246,4.778c0,2.225-1.181,3.763-2.829,4.505
		c2.115,0.467,3.955,1.922,3.955,4.724c0,3.214-2.39,5.219-6.18,5.219h-8.13V79.563z M2332.597,88.131
		c2.39,0,3.626-1.647,3.626-3.516c0-1.949-1.291-3.378-3.626-3.378h-5.41v6.894H2332.597z M2333.091,97.112
		c2.747,0,4.258-1.318,4.258-3.68c0-2.143-1.565-3.626-4.229-3.626h-5.933v7.306H2333.091z"/>
	<path fill="#58595B" d="M2340.589,79.563h2.088l5.768,17.166l5.768-17.166h2.088l-6.675,19.226h-2.362L2340.589,79.563z"/>
	<path fill="#58595B" d="M2376.212,98.788h-2.033V83.682l-5.301,10.465h-2.032l-5.301-10.465v15.106h-2.032V79.563h2.005
		l6.345,12.688l6.345-12.688h2.005V98.788z"/>
	<path fill="#58595B" d="M2386.675,97.141l8.13-8.542c1.346-1.401,2.143-2.665,2.143-4.147c0-2.143-1.676-3.543-3.928-3.543
		c-2.444,0-4.037,1.4-4.037,3.872v0.439h-2.006v-0.521c0-3.516,2.473-5.521,6.043-5.521c3.488,0,6.042,2.06,6.042,5.273
		c0,2.334-1.62,4.119-3.158,5.686l-6.784,6.921h9.971v1.73h-12.415V97.141z"/>
</g>
<g>
	<path fill="#58595B" d="M2688.896,98.788h-2.032V83.682l-5.301,10.465h-2.032l-5.302-10.465v15.106h-2.032V79.563h2.005
		l6.345,12.688l6.345-12.688h2.005V98.788z"/>
	<path fill="#58595B" d="M2692.933,92.938v-2.361c0-3.543,2.334-6.18,6.234-6.18c3.543,0,5.851,2.307,6.016,5.273h-1.868
		c-0.274-1.896-1.456-3.626-4.12-3.626c-2.884,0-4.229,1.868-4.229,4.505v2.416c0,2.637,1.346,4.505,4.229,4.505
		c2.664,0,3.846-1.73,4.12-3.626h1.868c-0.165,2.967-2.473,5.273-6.016,5.273C2695.267,99.117,2692.933,96.48,2692.933,92.938z"/>
	<path fill="#58595B" d="M2708.698,90.796v-3.241c0-4.779,2.691-8.377,7.992-8.377c4.45,0,7.279,3.104,7.581,6.729h-2.06
		c-0.33-2.637-2.088-4.943-5.549-4.943c-3.928,0-5.822,2.746-5.822,6.51v3.405c0,3.763,1.895,6.51,5.822,6.51
		c3.461,0,5.219-2.308,5.549-4.944h2.06c-0.302,3.626-3.131,6.729-7.581,6.729C2711.389,99.173,2708.698,95.574,2708.698,90.796z"/>
	<path fill="#58595B" d="M2737.7,98.788V97.03c-0.604,0.989-2.499,2.087-4.834,2.087c-3.323,0-5.328-1.867-5.328-4.422
		c0-2.719,2.225-4.395,5.575-4.395c2.226,0,3.708,0.935,4.505,1.758v-2.609c0-1.922-1.264-3.405-3.516-3.405
		c-1.785,0-2.938,0.824-3.516,2.115h-1.923c0.714-2.335,2.691-3.763,5.466-3.763c3.488,0,5.575,2.279,5.575,5.053v9.339H2737.7z
		 M2737.618,94.668c0-1.758-2.088-2.993-4.202-2.993c-2.335,0-3.9,1.099-3.9,3.048c0,1.95,1.62,3.049,3.79,3.049
		C2735.503,97.771,2737.618,96.48,2737.618,94.668z"/>
	<path fill="#58595B" d="M2744.896,86.429h-2.06v-1.703h2.06v-1.868c0-2.719,1.209-4.119,4.065-4.119h1.978v1.703h-1.812
		c-1.483,0-2.143,0.687-2.143,2.252v2.032h3.461v1.703h-3.461v12.359h-2.088V86.429z"/>
	<path fill="#58595B" d="M2752.119,92.993V90.74c0-3.817,2.17-6.344,6.125-6.344c4.01,0,5.96,2.664,5.96,6.124v2.088h-10.08v0.494
		c0,2.444,1.264,4.422,4.202,4.422c2.115,0,3.406-1.126,3.873-2.719h1.867c-0.467,2.526-2.802,4.312-5.74,4.312
		C2754.673,99.117,2752.119,96.783,2752.119,92.993z M2754.124,91.016h8.13v-0.659c0-2.5-1.264-4.367-4.01-4.367
		c-3.021,0-4.12,2.005-4.12,4.587V91.016z M2757.09,82.803l2.226-3.9h2.526l-2.691,3.9H2757.09z"/>
</g>
<g>
	<path fill="#58595B" d="M2453.953,851.281h2.143v17.44h9.86v1.785h-12.003V851.281z"/>
	<path fill="#58595B" d="M2468.097,864.629v-2.307c0-3.461,2.308-6.207,6.29-6.207s6.262,2.746,6.262,6.207v2.307
		c0,3.461-2.279,6.207-6.262,6.207C2470.377,870.836,2468.097,868.09,2468.097,864.629z M2474.387,857.79
		c-2.774,0-4.258,1.896-4.258,4.56v2.252c0,2.664,1.483,4.56,4.258,4.56c2.773,0,4.257-1.896,4.257-4.56v-2.252
		C2478.644,859.686,2477.16,857.79,2474.387,857.79z"/>
	<path fill="#58595B" d="M2483.724,864.656v-2.361c0-3.543,2.335-6.18,6.235-6.18c3.543,0,5.85,2.307,6.015,5.273h-1.868
		c-0.274-1.896-1.455-3.626-4.119-3.626c-2.884,0-4.23,1.868-4.23,4.505v2.416c0,2.637,1.347,4.505,4.23,4.505
		c2.664,0,3.845-1.73,4.119-3.626h1.868c-0.165,2.967-2.472,5.273-6.015,5.273C2486.059,870.836,2483.724,868.199,2483.724,864.656z
		"/>
	<path fill="#58595B" d="M2509.322,870.507v-1.758c-0.604,0.989-2.499,2.087-4.834,2.087c-3.323,0-5.328-1.867-5.328-4.422
		c0-2.719,2.225-4.395,5.575-4.395c2.225,0,3.708,0.935,4.505,1.758v-2.609c0-1.922-1.264-3.405-3.516-3.405
		c-1.785,0-2.939,0.824-3.516,2.115h-1.923c0.714-2.335,2.691-3.763,5.466-3.763c3.488,0,5.575,2.279,5.575,5.053v9.339H2509.322z
		 M2509.24,866.387c0-1.758-2.088-2.993-4.202-2.993c-2.335,0-3.9,1.099-3.9,3.048c0,1.95,1.62,3.049,3.79,3.049
		C2507.124,869.49,2509.24,868.199,2509.24,866.387z"/>
	<path fill="#58595B" d="M2515.747,850.457h2.088v20.05h-2.088V850.457z"/>
	<path fill="#58595B" d="M2527.777,864.629v-2.307c0-3.461,2.308-6.207,6.29-6.207s6.262,2.746,6.262,6.207v2.307
		c0,3.461-2.279,6.207-6.262,6.207C2530.057,870.836,2527.777,868.09,2527.777,864.629z M2534.067,857.79
		c-2.774,0-4.258,1.896-4.258,4.56v2.252c0,2.664,1.483,4.56,4.258,4.56c2.773,0,4.257-1.896,4.257-4.56v-2.252
		C2538.323,859.686,2536.84,857.79,2534.067,857.79z"/>
	<path fill="#58595B" d="M2544.09,856.444h1.95v3.241c0.522-2.17,2.032-3.323,4.587-3.323h0.33v1.95h-0.412
		c-2.664,0-4.367,1.758-4.367,5.301v6.894h-2.088V856.444z"/>
	<path fill="#58595B" d="M2559.525,862.515v-3.241c0-4.779,2.692-8.377,7.993-8.377c4.449,0,7.278,3.104,7.58,6.729h-2.06
		c-0.33-2.637-2.088-4.943-5.548-4.943c-3.928,0-5.823,2.746-5.823,6.51v3.405c0,3.763,1.896,6.51,5.823,6.51
		c3.46,0,5.218-2.308,5.548-4.944h2.06c-0.302,3.626-3.131,6.729-7.58,6.729C2562.217,870.892,2559.525,867.293,2559.525,862.515z"
		/>
	<path fill="#58595B" d="M2578.393,864.629v-2.307c0-3.461,2.308-6.207,6.29-6.207s6.262,2.746,6.262,6.207v2.307
		c0,3.461-2.279,6.207-6.262,6.207C2580.673,870.836,2578.393,868.09,2578.393,864.629z M2584.683,857.79
		c-2.774,0-4.258,1.896-4.258,4.56v2.252c0,2.664,1.483,4.56,4.258,4.56c2.773,0,4.257-1.896,4.257-4.56v-2.252
		C2588.94,859.686,2587.456,857.79,2584.683,857.79z"/>
	<path fill="#58595B" d="M2594.706,856.444h1.95v3.241c0.522-2.17,2.032-3.323,4.587-3.323h0.33v1.95h-0.412
		c-2.664,0-4.367,1.758-4.367,5.301v6.894h-2.088V856.444z"/>
	<path fill="#58595B" d="M2603.495,864.712v-2.253c0-3.817,2.17-6.344,6.125-6.344c4.01,0,5.96,2.664,5.96,6.124v2.088h-10.08v0.494
		c0,2.444,1.264,4.422,4.202,4.422c2.115,0,3.406-1.126,3.873-2.719h1.868c-0.468,2.526-2.802,4.312-5.741,4.312
		C2606.05,870.836,2603.495,868.502,2603.495,864.712z M2605.5,862.734h8.13v-0.659c0-2.5-1.263-4.367-4.01-4.367
		c-3.021,0-4.12,2.005-4.12,4.587V862.734z"/>
	<path fill="#58595B" d="M2625.714,851.281h7.525c4.038,0,6.537,2.637,6.537,6.097c0,3.461-2.499,6.152-6.537,6.152h-5.383v6.977
		h-2.143V851.281z M2633.047,861.745c3.159,0,4.587-2.032,4.587-4.367c0-2.334-1.428-4.312-4.587-4.312h-5.19v8.679H2633.047z"/>
	<path fill="#58595B" d="M2642.99,856.444h1.95v3.241c0.521-2.17,2.032-3.323,4.587-3.323h0.329v1.95h-0.412
		c-2.664,0-4.367,1.758-4.367,5.301v6.894h-2.087V856.444z"/>
	<path fill="#58595B" d="M2651.778,864.629v-2.307c0-3.461,2.308-6.207,6.29-6.207s6.262,2.746,6.262,6.207v2.307
		c0,3.461-2.279,6.207-6.262,6.207C2654.058,870.836,2651.778,868.09,2651.778,864.629z M2658.068,857.79
		c-2.774,0-4.258,1.896-4.258,4.56v2.252c0,2.664,1.483,4.56,4.258,4.56c2.773,0,4.257-1.896,4.257-4.56v-2.252
		C2662.324,859.686,2660.841,857.79,2658.068,857.79z"/>
	<path fill="#58595B" d="M2668.091,856.444h1.978v2.39c0.659-1.593,2.197-2.719,4.642-2.719c2.088,0,3.681,1.043,4.478,2.746
		c0.961-1.648,2.664-2.746,5.108-2.746c3.076,0,5.054,2.197,5.054,5.521v8.871h-2.087v-8.569c0-2.39-1.182-4.01-3.488-4.01
		c-2.308,0-4.011,1.4-4.011,4.312v8.268h-2.087v-8.569c0-2.39-1.181-4.01-3.488-4.01c-2.307,0-4.01,1.4-4.01,4.312v8.268h-2.088
		V856.444z"/>
	<path fill="#58595B" d="M2692.975,864.629v-2.307c0-3.461,2.307-6.207,6.289-6.207s6.263,2.746,6.263,6.207v2.307
		c0,3.461-2.28,6.207-6.263,6.207C2695.254,870.836,2692.975,868.09,2692.975,864.629z M2699.264,857.79
		c-2.773,0-4.257,1.896-4.257,4.56v2.252c0,2.664,1.483,4.56,4.257,4.56c2.774,0,4.258-1.896,4.258-4.56v-2.252
		C2703.522,859.686,2702.038,857.79,2699.264,857.79z"/>
	<path fill="#58595B" d="M2715.029,868.859l8.13-8.542c1.346-1.401,2.143-2.665,2.143-4.147c0-2.143-1.676-3.543-3.928-3.543
		c-2.445,0-4.038,1.4-4.038,3.872v0.439h-2.005v-0.521c0-3.516,2.472-5.521,6.043-5.521c3.488,0,6.042,2.06,6.042,5.273
		c0,2.334-1.62,4.119-3.158,5.686l-6.784,6.921h9.97v1.73h-12.414V868.859z"/>
</g>
<g>
	<path fill="#58595B" d="M1262.448,79.562h1.879l5.191,17.167l5.191-17.167h1.879l-6.007,19.227h-2.126L1262.448,79.562z"/>
	<path fill="#58595B" d="M1286.054,98.788V97.03c-0.543,0.988-2.249,2.088-4.351,2.088c-2.991,0-4.795-1.868-4.795-4.423
		c0-2.719,2.002-4.395,5.018-4.395c2.002,0,3.337,0.935,4.054,1.758V89.45c0-1.923-1.137-3.406-3.164-3.406
		c-1.607,0-2.645,0.824-3.164,2.115h-1.73c0.643-2.335,2.422-3.764,4.919-3.764c3.14,0,5.018,2.28,5.018,5.055v9.338H1286.054z
		 M1285.98,94.668c0-1.758-1.879-2.993-3.782-2.993c-2.101,0-3.51,1.099-3.51,3.049c0,1.949,1.458,3.048,3.411,3.048
		C1284.076,97.771,1285.98,96.481,1285.98,94.668z"/>
	<path fill="#58595B" d="M1291.838,78.738h1.878v20.05h-1.878V78.738z"/>
	<path fill="#58595B" d="M1308.251,98.788h-1.78v-2.39c-0.593,1.593-2.027,2.72-4.227,2.72c-2.769,0-4.523-2.143-4.523-5.521v-8.871
		h1.878v8.569c0,2.39,0.939,4.065,3.115,4.065c2.076,0,3.658-1.456,3.658-4.367v-8.268h1.879V98.788z"/>
	<path fill="#58595B" d="M1311.637,92.993V90.74c0-3.817,1.953-6.345,5.512-6.345c3.609,0,5.364,2.665,5.364,6.125v2.088h-9.072
		v0.494c0,2.444,1.137,4.422,3.782,4.422c1.903,0,3.065-1.126,3.485-2.719h1.681c-0.42,2.526-2.521,4.312-5.167,4.312
		C1313.936,99.118,1311.637,96.783,1311.637,92.993z M1313.442,91.016h7.317v-0.659c0-2.5-1.137-4.367-3.609-4.367
		c-2.719,0-3.708,2.005-3.708,4.587V91.016z"/>
	<path fill="#58595B" d="M1334.748,78.188h1.755l-6.971,23.483h-1.755L1334.748,78.188z"/>
	<path fill="#58595B" d="M1342.583,79.562h7.144c3.065,0,4.721,2.006,4.721,4.779c0,2.225-1.063,3.763-2.546,4.505
		c1.904,0.467,3.56,1.923,3.56,4.724c0,3.214-2.15,5.219-5.562,5.219h-7.317V79.562z M1349.306,88.132
		c2.15,0,3.263-1.648,3.263-3.516c0-1.95-1.162-3.379-3.263-3.379h-4.87v6.895H1349.306z M1349.751,97.112
		c2.472,0,3.832-1.318,3.832-3.68c0-2.143-1.409-3.626-3.807-3.626h-5.339v7.306H1349.751z"/>
	<path fill="#58595B" d="M1358.724,84.726h1.755v3.241c0.47-2.17,1.829-3.323,4.128-3.323h0.297v1.949h-0.371
		c-2.397,0-3.93,1.758-3.93,5.302v6.894h-1.878V84.726z"/>
	<path fill="#58595B" d="M1367.449,78.738h1.878v12.606l5.463-6.619h2.349l-5.785,6.784l6.032,7.278h-2.348l-5.71-7.086v7.086
		h-1.878V78.738z"/>
	<path fill="#58595B" d="M1380.772,86.429h-1.854v-1.703h1.854v-1.867c0-2.72,1.088-4.12,3.659-4.12h1.78v1.702h-1.632
		c-1.334,0-1.928,0.688-1.928,2.253v2.032h3.114v1.703h-3.114v12.359h-1.879V86.429z"/>
	<path fill="#58595B" d="M1387.496,94.695v-0.137h1.706v0.082c0,1.758,1.483,2.911,3.56,2.911c1.953,0,3.362-0.852,3.362-2.664
		c0-0.988-0.569-1.703-1.582-1.95l-3.757-0.961c-1.879-0.467-2.966-1.73-2.966-3.57c0-2.637,2.002-4.011,4.795-4.011
		c2.645,0,4.697,1.786,4.697,4.395v0.138h-1.706v-0.082c0-1.73-1.137-2.884-3.016-2.884c-1.755,0-3.041,0.823-3.041,2.389
		c0,0.962,0.42,1.566,1.335,1.813l3.881,1.016c1.953,0.522,3.115,1.594,3.115,3.626c0,2.499-2.175,4.312-5.142,4.312
		C1389.671,99.118,1387.496,97.415,1387.496,94.695z"/>
	<path fill="#58595B" d="M1405.293,98.788c-2.423,0-3.436-1.346-3.436-3.735v-8.624h-2.151v-1.703h2.151v-4.037h1.878v4.037h3.238
		v1.703h-3.238v8.624c0,1.429,0.47,2.032,1.879,2.032h1.261v1.703H1405.293z"/>
	<path fill="#58595B" d="M1415.204,90.796v-3.241c0-4.779,2.422-8.377,7.193-8.377c4.004,0,6.55,3.104,6.822,6.729h-1.854
		c-0.296-2.637-1.878-4.943-4.993-4.943c-3.535,0-5.241,2.746-5.241,6.509v3.406c0,3.763,1.706,6.51,5.241,6.51
		c3.115,0,4.697-2.308,4.993-4.944h1.854c-0.272,3.626-2.818,6.729-6.822,6.729C1417.627,99.173,1415.204,95.574,1415.204,90.796z"
		/>
	<path fill="#58595B" d="M1432.804,78.738h1.878v8.157c0.717-1.456,2.027-2.5,4.128-2.5c2.842,0,4.647,2.143,4.647,5.521v8.871
		h-1.878v-8.569c0-2.39-0.964-4.01-3.238-4.01c-2.077,0-3.659,1.4-3.659,4.312v8.268h-1.878V78.738z"/>
	<path fill="#58595B" d="M1446.72,92.91v-2.307c0-3.461,2.076-6.208,5.661-6.208s5.636,2.747,5.636,6.208v2.307
		c0,3.461-2.052,6.208-5.636,6.208C1448.772,99.118,1446.72,96.371,1446.72,92.91z M1452.381,86.071
		c-2.497,0-3.832,1.896-3.832,4.56v2.252c0,2.664,1.335,4.56,3.832,4.56s3.832-1.896,3.832-4.56v-2.252
		C1456.212,87.967,1454.877,86.071,1452.381,86.071z"/>
	<path fill="#58595B" d="M1462.465,79.754c0.717,0,1.187,0.522,1.187,1.264s-0.469,1.264-1.187,1.264
		c-0.717,0-1.187-0.522-1.187-1.264S1461.748,79.754,1462.465,79.754z M1461.526,84.726h1.878v14.062h-1.878V84.726z"/>
	<path fill="#58595B" d="M1466.914,92.938v-2.361c0-3.544,2.101-6.181,5.611-6.181c3.188,0,5.265,2.308,5.414,5.273h-1.681
		c-0.247-1.895-1.31-3.625-3.708-3.625c-2.595,0-3.807,1.867-3.807,4.504v2.418c0,2.637,1.211,4.504,3.807,4.504
		c2.398,0,3.461-1.73,3.708-3.625h1.681c-0.148,2.966-2.225,5.273-5.414,5.273C1469.015,99.118,1466.914,96.481,1466.914,92.938z"/>
	<path fill="#58595B" d="M1480.757,92.993V90.74c0-3.817,1.953-6.345,5.512-6.345c3.609,0,5.364,2.665,5.364,6.125v2.088h-9.072
		v0.494c0,2.444,1.137,4.422,3.782,4.422c1.903,0,3.065-1.126,3.485-2.719h1.681c-0.42,2.526-2.521,4.312-5.167,4.312
		C1483.055,99.118,1480.757,96.783,1480.757,92.993z M1482.561,91.016h7.317v-0.659c0-2.5-1.137-4.367-3.609-4.367
		c-2.719,0-3.708,2.005-3.708,4.587V91.016z"/>
	<path fill="#58595B" d="M1494.475,94.695v-0.137h1.706v0.082c0,1.758,1.483,2.911,3.56,2.911c1.953,0,3.362-0.852,3.362-2.664
		c0-0.988-0.569-1.703-1.582-1.95l-3.757-0.961c-1.879-0.467-2.966-1.73-2.966-3.57c0-2.637,2.002-4.011,4.795-4.011
		c2.645,0,4.697,1.786,4.697,4.395v0.138h-1.706v-0.082c0-1.73-1.137-2.884-3.016-2.884c-1.755,0-3.041,0.823-3.041,2.389
		c0,0.962,0.42,1.566,1.335,1.813l3.881,1.016c1.953,0.522,3.115,1.594,3.115,3.626c0,2.499-2.175,4.312-5.142,4.312
		C1496.651,99.118,1494.475,97.415,1494.475,94.695z"/>
	<path fill="#58595B" d="M1516.869,78.188h1.755l-6.971,23.483h-1.755L1516.869,78.188z"/>
	<path fill="#58595B" d="M1524.704,79.562h6.773c3.634,0,5.883,2.637,5.883,6.098s-2.25,6.152-5.883,6.152h-4.845v6.977h-1.928
		V79.562z M1531.304,90.026c2.843,0,4.128-2.032,4.128-4.367c0-2.334-1.285-4.312-4.128-4.312h-4.672v8.679H1531.304z"/>
	<path fill="#58595B" d="M1540.376,78.738h1.878v20.05h-1.878V78.738z"/>
	<path fill="#58595B" d="M1554.959,98.788V97.03c-0.543,0.988-2.249,2.088-4.351,2.088c-2.991,0-4.795-1.868-4.795-4.423
		c0-2.719,2.002-4.395,5.018-4.395c2.002,0,3.337,0.935,4.054,1.758V89.45c0-1.923-1.137-3.406-3.164-3.406
		c-1.607,0-2.645,0.824-3.164,2.115h-1.73c0.643-2.335,2.422-3.764,4.919-3.764c3.14,0,5.018,2.28,5.018,5.055v9.338H1554.959z
		 M1554.885,94.668c0-1.758-1.879-2.993-3.782-2.993c-2.101,0-3.51,1.099-3.51,3.049c0,1.949,1.458,3.048,3.411,3.048
		C1552.982,97.771,1554.885,96.481,1554.885,94.668z"/>
	<path fill="#58595B" d="M1564.921,98.788c-2.423,0-3.436-1.346-3.436-3.735v-8.624h-2.151v-1.703h2.151v-4.037h1.878v4.037h3.238
		v1.703h-3.238v8.624c0,1.429,0.47,2.032,1.879,2.032h1.261v1.703H1564.921z"/>
	<path fill="#58595B" d="M1573.968,98.788c-2.423,0-3.436-1.346-3.436-3.735v-8.624h-2.151v-1.703h2.151v-4.037h1.878v4.037h3.238
		v1.703h-3.238v8.624c0,1.429,0.47,2.032,1.879,2.032h1.261v1.703H1573.968z"/>
	<path fill="#58595B" d="M1577.972,92.993V90.74c0-3.817,1.953-6.345,5.512-6.345c3.609,0,5.364,2.665,5.364,6.125v2.088h-9.072
		v0.494c0,2.444,1.137,4.422,3.782,4.422c1.903,0,3.065-1.126,3.485-2.719h1.681c-0.42,2.526-2.521,4.312-5.167,4.312
		C1580.271,99.118,1577.972,96.783,1577.972,92.993z M1579.777,91.016h7.317v-0.659c0-2.5-1.137-4.367-3.609-4.367
		c-2.719,0-3.708,2.005-3.708,4.587V91.016z"/>
	<path fill="#58595B" d="M1592.284,84.726h1.755v3.241c0.47-2.17,1.829-3.323,4.128-3.323h0.297v1.949h-0.371
		c-2.397,0-3.93,1.758-3.93,5.302v6.894h-1.878V84.726z"/>
	<path fill="#58595B" d="M1600.293,94.695v-0.137h1.706v0.082c0,1.758,1.483,2.911,3.56,2.911c1.953,0,3.362-0.852,3.362-2.664
		c0-0.988-0.569-1.703-1.582-1.95l-3.757-0.961c-1.879-0.467-2.966-1.73-2.966-3.57c0-2.637,2.002-4.011,4.795-4.011
		c2.645,0,4.697,1.786,4.697,4.395v0.138h-1.706v-0.082c0-1.73-1.137-2.884-3.016-2.884c-1.755,0-3.04,0.823-3.04,2.389
		c0,0.962,0.42,1.566,1.334,1.813l3.881,1.016c1.953,0.522,3.115,1.594,3.115,3.626c0,2.499-2.175,4.312-5.142,4.312
		C1602.469,99.118,1600.293,97.415,1600.293,94.695z"/>
</g>
<g>
	<path fill="#58595B" d="M823.181,90.795v-3.241c0-4.779,2.422-8.377,7.193-8.377c4.004,0,6.55,3.104,6.822,6.729h-1.854
		c-0.296-2.637-1.878-4.943-4.993-4.943c-3.535,0-5.241,2.746-5.241,6.51v3.405c0,3.763,1.706,6.51,5.241,6.51
		c3.115,0,4.697-2.308,4.993-4.944h1.854c-0.272,3.626-2.818,6.729-6.822,6.729C825.604,99.172,823.181,95.573,823.181,90.795z"/>
	<path fill="#58595B" d="M840.162,92.909v-2.307c0-3.461,2.077-6.207,5.661-6.207c3.584,0,5.636,2.746,5.636,6.207v2.307
		c0,3.461-2.052,6.207-5.636,6.207C842.214,99.116,840.162,96.37,840.162,92.909z M845.823,86.07c-2.497,0-3.832,1.896-3.832,4.56
		v2.252c0,2.664,1.335,4.56,3.832,4.56s3.832-1.896,3.832-4.56V90.63C849.655,87.966,848.32,86.07,845.823,86.07z"/>
	<path fill="#58595B" d="M854.969,78.737h1.878v20.05h-1.878V78.737z"/>
	<path fill="#58595B" d="M871.703,78.737v20.05h-1.78V96.59c-0.544,1.291-2.175,2.526-4.276,2.526c-3.337,0-5.29-2.773-5.29-6.289
		v-2.143c0-3.652,2.052-6.289,5.241-6.289c1.978,0,3.46,0.988,4.227,2.416v-8.074H871.703z M862.235,92.745
		c0,2.581,1.113,4.669,3.733,4.669c2.497,0,3.856-2.115,3.856-4.834v-1.813c0-2.884-1.78-4.669-3.881-4.669
		c-2.397,0-3.708,2.088-3.708,4.669V92.745z"/>
	<path fill="#58595B" d="M887.892,79.562c4.4,0,6.823,3.104,6.823,7.388v4.449c0,4.285-2.422,7.389-6.823,7.389h-6.501V79.562
		H887.892z M892.812,91.398v-4.449c0-3.351-1.78-5.63-5.191-5.63h-4.326v15.71h4.326C891.032,97.029,892.812,94.75,892.812,91.398z"
		/>
	<path fill="#58595B" d="M898.422,84.725h1.755v3.241c0.47-2.17,1.829-3.323,4.128-3.323h0.297v1.95h-0.371
		c-2.398,0-3.931,1.758-3.931,5.301v6.894h-1.878V84.725z"/>
	<path fill="#58595B" d="M908.211,79.753c0.717,0,1.187,0.522,1.187,1.264c0,0.742-0.47,1.264-1.187,1.264
		c-0.717,0-1.187-0.521-1.187-1.264C907.024,80.275,907.493,79.753,908.211,79.753z M907.271,84.725h1.878v14.062h-1.878V84.725z"/>
	<path fill="#58595B" d="M913.278,84.725h1.78v2.39c0.593-1.593,2.027-2.719,4.227-2.719c2.843,0,4.647,2.142,4.647,5.521v8.871
		h-1.879v-8.569c0-2.39-0.964-4.01-3.238-4.01c-2.077,0-3.659,1.4-3.659,4.312v8.268h-1.878V84.725z"/>
	<path fill="#58595B" d="M927.812,78.737h1.878v12.606l5.463-6.619h2.349l-5.785,6.784l6.032,7.278H935.4l-5.71-7.086v7.086h-1.878
		V78.737z"/>
	<path fill="#58595B" d="M939.578,94.694v-0.137h1.706v0.082c0,1.758,1.483,2.911,3.56,2.911c1.953,0,3.361-0.851,3.361-2.664
		c0-0.988-0.568-1.702-1.582-1.95l-3.757-0.961c-1.879-0.467-2.967-1.73-2.967-3.57c0-2.637,2.003-4.01,4.796-4.01
		c2.645,0,4.696,1.785,4.696,4.395v0.137h-1.705v-0.082c0-1.73-1.138-2.884-3.016-2.884c-1.755,0-3.041,0.823-3.041,2.39
		c0,0.961,0.421,1.565,1.335,1.812l3.881,1.016c1.953,0.522,3.115,1.594,3.115,3.626c0,2.499-2.176,4.312-5.142,4.312
		C941.754,99.116,939.578,97.414,939.578,94.694z"/>
	<path fill="#58595B" d="M964.444,78.188h1.755l-6.971,23.483h-1.755L964.444,78.188z"/>
	<path fill="#58595B" d="M989.78,98.787h-1.829V83.681l-4.771,10.465h-1.829l-4.771-10.465v15.106h-1.83V79.562h1.805l5.71,12.688
		l5.711-12.688h1.804V98.787z"/>
	<path fill="#58595B" d="M993.414,92.909v-2.307c0-3.461,2.076-6.207,5.66-6.207s5.636,2.746,5.636,6.207v2.307
		c0,3.461-2.052,6.207-5.636,6.207C995.465,99.116,993.414,96.37,993.414,92.909z M999.074,86.07c-2.496,0-3.831,1.896-3.831,4.56
		v2.252c0,2.664,1.335,4.56,3.831,4.56c2.497,0,3.832-1.896,3.832-4.56V90.63C1002.906,87.966,1001.571,86.07,999.074,86.07z"/>
	<path fill="#58595B" d="M1008.095,84.725h1.756v3.241c0.469-2.17,1.829-3.323,4.128-3.323h0.296v1.95h-0.37
		c-2.398,0-3.931,1.758-3.931,5.301v6.894h-1.879V84.725z"/>
	<path fill="#58595B" d="M1016.821,84.725h1.78v2.39c0.593-1.593,2.026-2.719,4.227-2.719c2.843,0,4.647,2.142,4.647,5.521v8.871
		h-1.879v-8.569c0-2.39-0.964-4.01-3.238-4.01c-2.076,0-3.658,1.4-3.658,4.312v8.268h-1.879V84.725z"/>
	<path fill="#58595B" d="M1032.419,79.753c0.717,0,1.187,0.522,1.187,1.264c0,0.742-0.47,1.264-1.187,1.264
		s-1.187-0.521-1.187-1.264C1031.232,80.275,1031.702,79.753,1032.419,79.753z M1031.479,84.725h1.879v14.062h-1.879V84.725z"/>
	<path fill="#58595B" d="M1037.485,84.725h1.78v2.39c0.593-1.593,2.026-2.719,4.227-2.719c2.843,0,4.647,2.142,4.647,5.521v8.871
		h-1.879v-8.569c0-2.39-0.964-4.01-3.238-4.01c-2.076,0-3.658,1.4-3.658,4.312v8.268h-1.879V84.725z"/>
	<path fill="#58595B" d="M1051.624,100.298h1.854c0.691,1.346,1.903,1.95,3.634,1.95c2.2,0,3.708-1.374,3.708-3.516v-3.187
		c-0.396,1.291-2.126,2.664-4.252,2.664c-3.288,0-5.166-2.609-5.166-5.74v-2.334c0-3.187,1.854-5.74,5.19-5.74
		c2.373,0,3.782,1.428,4.302,2.664v-2.335h1.804v14.062c0,2.911-2.373,5.108-5.586,5.108
		C1054.591,103.896,1052.316,102.605,1051.624,100.298z M1060.82,92.25v-1.812c0-2.39-1.632-4.34-3.808-4.34
		c-2.472,0-3.757,1.511-3.757,4.202v2.006c0,2.637,1.261,4.202,3.684,4.202C1059.09,96.508,1060.82,94.914,1060.82,92.25z"/>
	<path fill="#58595B" d="M1072.386,79.562h6.773c3.634,0,5.883,2.637,5.883,6.097c0,3.461-2.249,6.152-5.883,6.152h-4.845v6.977
		h-1.929V79.562z M1078.987,90.025c2.843,0,4.128-2.032,4.128-4.367c0-2.334-1.285-4.312-4.128-4.312h-4.672v8.679H1078.987z"/>
	<path fill="#58595B" d="M1088.058,78.737h1.879v20.05h-1.879V78.737z"/>
	<path fill="#58595B" d="M1102.642,98.787v-1.758c-0.544,0.989-2.25,2.087-4.351,2.087c-2.991,0-4.796-1.867-4.796-4.422
		c0-2.719,2.002-4.395,5.019-4.395c2.002,0,3.337,0.935,4.054,1.758v-2.609c0-1.922-1.138-3.405-3.164-3.405
		c-1.607,0-2.646,0.824-3.164,2.115h-1.73c0.643-2.335,2.423-3.763,4.919-3.763c3.14,0,5.019,2.279,5.019,5.053v9.339H1102.642z
		 M1102.568,94.667c0-1.758-1.879-2.993-3.782-2.993c-2.102,0-3.51,1.099-3.51,3.048c0,1.95,1.458,3.049,3.411,3.049
		C1100.665,97.771,1102.568,96.48,1102.568,94.667z"/>
	<path fill="#58595B" d="M1112.603,98.787c-2.423,0-3.437-1.346-3.437-3.735v-8.624h-2.15v-1.703h2.15v-4.037h1.879v4.037h3.238
		v1.703h-3.238v8.624c0,1.428,0.47,2.032,1.879,2.032h1.261v1.703H1112.603z"/>
	<path fill="#58595B" d="M1121.651,98.787c-2.423,0-3.437-1.346-3.437-3.735v-8.624h-2.15v-1.703h2.15v-4.037h1.879v4.037h3.238
		v1.703h-3.238v8.624c0,1.428,0.47,2.032,1.879,2.032h1.261v1.703H1121.651z"/>
	<path fill="#58595B" d="M1125.654,92.992v-2.253c0-3.817,1.953-6.344,5.513-6.344c3.609,0,5.364,2.664,5.364,6.124v2.088h-9.072
		v0.494c0,2.444,1.138,4.422,3.782,4.422c1.903,0,3.065-1.126,3.485-2.719h1.681c-0.42,2.526-2.521,4.312-5.166,4.312
		C1127.954,99.116,1125.654,96.782,1125.654,92.992z M1127.459,91.015h7.317v-0.659c0-2.5-1.138-4.367-3.609-4.367
		c-2.719,0-3.708,2.005-3.708,4.587V91.015z"/>
	<path fill="#58595B" d="M1139.966,84.725h1.755v3.241c0.47-2.17,1.83-3.323,4.129-3.323h0.296v1.95h-0.37
		c-2.398,0-3.931,1.758-3.931,5.301v6.894h-1.879V84.725z"/>
	<path fill="#58595B" d="M1147.975,94.694v-0.137h1.705v0.082c0,1.758,1.483,2.911,3.56,2.911c1.953,0,3.362-0.851,3.362-2.664
		c0-0.988-0.568-1.702-1.582-1.95l-3.758-0.961c-1.878-0.467-2.966-1.73-2.966-3.57c0-2.637,2.002-4.01,4.795-4.01
		c2.646,0,4.697,1.785,4.697,4.395v0.137h-1.706v-0.082c0-1.73-1.137-2.884-3.016-2.884c-1.755,0-3.04,0.823-3.04,2.39
		c0,0.961,0.42,1.565,1.335,1.812l3.881,1.016c1.952,0.522,3.114,1.594,3.114,3.626c0,2.499-2.175,4.312-5.142,4.312
		C1150.15,99.116,1147.975,97.414,1147.975,94.694z"/>
</g>
<g>
	<g>
		<polyline fill="none" stroke="#5D6062" stroke-width="3" points="993.773,64.884 993.773,36.209 1430.337,36.209 1430.337,64.884 
					"/>
		<g>
			<path fill="#5D6062" d="M993.773,63.918c-2.508-2.508-7.467-3.703-10.908-3.802c4.62,3.438,8.648,7.907,10.908,13.312
				c2.163-5.406,6.436-9.677,10.908-13.312C1000.996,60.412,996.524,61.312,993.773,63.918z"/>
		</g>
		<g>
			<path fill="#5D6062" d="M1430.337,63.918c2.508-2.508,7.467-3.703,10.908-3.802c-4.62,3.438-8.648,7.907-10.908,13.312
				c-2.163-5.406-6.436-9.677-10.908-13.312C1423.113,60.412,1427.585,61.312,1430.337,63.918z"/>
		</g>
	</g>
</g>
<g>
	<path fill="#58595B" d="M1204.267,10.964h6.782c3.614,0,5.515,2.323,5.515,5.233c0,2.276-1.314,4.201-3.543,4.905l3.567,6.289
		h-2.088l-3.333-6.008h-5.069v6.008h-1.831V10.964z M1210.815,19.929c2.628,0,3.919-1.596,3.919-3.731s-1.361-3.755-3.919-3.755
		h-4.717v7.486H1210.815z"/>
	<path fill="#58595B" d="M1219.121,22.369v-1.971c0-2.957,1.971-5.304,5.374-5.304s5.351,2.347,5.351,5.304v1.971
		c0,2.957-1.948,5.304-5.351,5.304C1221.069,27.673,1219.121,25.326,1219.121,22.369z M1224.495,16.526
		c-2.37,0-3.638,1.619-3.638,3.896v1.924c0,2.276,1.268,3.896,3.638,3.896s3.638-1.619,3.638-3.896v-1.924
		C1228.133,18.146,1226.865,16.526,1224.495,16.526z"/>
	<path fill="#58595B" d="M1237.071,27.392c-2.3,0-3.262-1.15-3.262-3.191v-7.369h-2.042v-1.455h2.042v-3.45h1.783v3.45h3.075v1.455
		h-3.075V24.2c0,1.22,0.446,1.736,1.784,1.736h1.197v1.455H1237.071z"/>
	<path fill="#58595B" d="M1249.602,27.392V25.89c-0.517,0.845-2.136,1.783-4.13,1.783c-2.84,0-4.553-1.596-4.553-3.778
		c0-2.323,1.901-3.755,4.764-3.755c1.901,0,3.168,0.798,3.849,1.502v-2.229c0-1.643-1.08-2.91-3.004-2.91
		c-1.525,0-2.511,0.704-3.004,1.808h-1.643c0.61-1.995,2.3-3.215,4.67-3.215c2.98,0,4.764,1.947,4.764,4.317v7.979H1249.602z
		 M1249.532,23.871c0-1.502-1.784-2.558-3.591-2.558c-1.995,0-3.333,0.938-3.333,2.604c0,1.667,1.385,2.605,3.239,2.605
		C1247.725,26.523,1249.532,25.42,1249.532,23.871z"/>
	<path fill="#58595B" d="M1259.058,27.392c-2.3,0-3.262-1.15-3.262-3.191v-7.369h-2.042v-1.455h2.042v-3.45h1.783v3.45h3.075v1.455
		h-3.075V24.2c0,1.22,0.446,1.736,1.784,1.736h1.197v1.455H1259.058z"/>
	<path fill="#58595B" d="M1264.572,11.128c0.681,0,1.126,0.446,1.126,1.08s-0.446,1.079-1.126,1.079s-1.126-0.445-1.126-1.079
		S1263.891,11.128,1264.572,11.128z M1263.679,15.376h1.784v12.016h-1.784V15.376z"/>
	<path fill="#58595B" d="M1268.795,22.369v-1.971c0-2.957,1.971-5.304,5.374-5.304s5.351,2.347,5.351,5.304v1.971
		c0,2.957-1.948,5.304-5.351,5.304C1270.742,27.673,1268.795,25.326,1268.795,22.369z M1274.169,16.526
		c-2.37,0-3.638,1.619-3.638,3.896v1.924c0,2.276,1.268,3.896,3.638,3.896s3.638-1.619,3.638-3.896v-1.924
		C1277.806,18.146,1276.539,16.526,1274.169,16.526z"/>
	<path fill="#58595B" d="M1282.732,15.376h1.69v2.042c0.563-1.361,1.924-2.323,4.013-2.323c2.699,0,4.412,1.83,4.412,4.717v7.58
		h-1.784v-7.322c0-2.041-0.915-3.426-3.074-3.426c-1.971,0-3.473,1.196-3.473,3.685v7.063h-1.784V15.376z"/>
</g>
<g>
	<path fill="#58595B" d="M2174.61,746.563h6.782c3.613,0,5.515,2.323,5.515,5.233c0,2.276-1.314,4.201-3.544,4.905l3.567,6.289
		h-2.089l-3.332-6.008h-5.069v6.008h-1.83V746.563z M2181.156,755.528c2.629,0,3.92-1.596,3.92-3.731s-1.361-3.755-3.92-3.755
		h-4.717v7.486H2181.156z"/>
	<path fill="#58595B" d="M2189.463,757.969v-1.971c0-2.957,1.971-5.304,5.374-5.304c3.402,0,5.351,2.347,5.351,5.304v1.971
		c0,2.957-1.948,5.304-5.351,5.304C2191.41,763.272,2189.463,760.926,2189.463,757.969z M2194.837,752.126
		c-2.37,0-3.638,1.619-3.638,3.896v1.924c0,2.276,1.268,3.896,3.638,3.896s3.638-1.619,3.638-3.896v-1.924
		C2198.475,753.745,2197.207,752.126,2194.837,752.126z"/>
	<path fill="#58595B" d="M2207.413,762.991c-2.3,0-3.262-1.15-3.262-3.191v-7.369h-2.042v-1.455h2.042v-3.45h1.783v3.45h3.074v1.455
		h-3.074v7.369c0,1.22,0.446,1.736,1.783,1.736h1.197v1.455H2207.413z"/>
	<path fill="#58595B" d="M2219.945,762.991v-1.502c-0.517,0.845-2.136,1.783-4.131,1.783c-2.84,0-4.553-1.596-4.553-3.778
		c0-2.323,1.901-3.755,4.764-3.755c1.901,0,3.169,0.798,3.85,1.502v-2.229c0-1.643-1.08-2.91-3.004-2.91
		c-1.525,0-2.512,0.704-3.004,1.808h-1.644c0.61-1.995,2.3-3.215,4.671-3.215c2.98,0,4.764,1.947,4.764,4.317v7.979H2219.945z
		 M2219.874,759.471c0-1.502-1.784-2.558-3.591-2.558c-1.995,0-3.333,0.938-3.333,2.604c0,1.667,1.385,2.605,3.239,2.605
		C2218.067,762.123,2219.874,761.02,2219.874,759.471z"/>
	<path fill="#58595B" d="M2229.4,762.991c-2.3,0-3.262-1.15-3.262-3.191v-7.369h-2.042v-1.455h2.042v-3.45h1.783v3.45h3.075v1.455
		h-3.075v7.369c0,1.22,0.446,1.736,1.784,1.736h1.196v1.455H2229.4z"/>
	<path fill="#58595B" d="M2234.913,746.728c0.681,0,1.127,0.446,1.127,1.08s-0.446,1.079-1.127,1.079s-1.126-0.445-1.126-1.079
		S2234.233,746.728,2234.913,746.728z M2234.022,750.976h1.783v12.016h-1.783V750.976z"/>
	<path fill="#58595B" d="M2239.137,757.969v-1.971c0-2.957,1.971-5.304,5.374-5.304c3.402,0,5.351,2.347,5.351,5.304v1.971
		c0,2.957-1.948,5.304-5.351,5.304C2241.084,763.272,2239.137,760.926,2239.137,757.969z M2244.511,752.126
		c-2.37,0-3.638,1.619-3.638,3.896v1.924c0,2.276,1.268,3.896,3.638,3.896s3.638-1.619,3.638-3.896v-1.924
		C2248.149,753.745,2246.881,752.126,2244.511,752.126z"/>
	<path fill="#58595B" d="M2253.074,750.976h1.689v2.042c0.563-1.361,1.925-2.323,4.013-2.323c2.699,0,4.412,1.83,4.412,4.717v7.58
		h-1.783v-7.322c0-2.041-0.915-3.426-3.074-3.426c-1.972,0-3.474,1.196-3.474,3.685v7.063h-1.783V750.976z"/>
</g>
</svg>
