<?xml version="1.0" encoding="utf-8"?>
<!-- Generator: Adobe Illustrator 19.2.1, SVG Export Plug-In . SVG Version: 6.00 Build 0)  -->
<svg version="1.1" id="Interactive_1_" xmlns="http://www.w3.org/2000/svg" xmlns:xlink="http://www.w3.org/1999/xlink" x="0px"
	 y="0px" viewBox="0 0 3600 2782.08" enable-background="new 0 0 3600 2782.08" xml:space="preserve">
<rect id="_x31_3.17" x="1676.279" y="888.642" fill="none" width="346.308" height="612.114"/>
<rect id="_x31_3.18" x="2050.058" y="888.642" fill="none" width="346.308" height="612.114"/>
<rect id="_x31_3.19" x="2420.921" y="888.642" fill="none" width="346.308" height="612.114"/>
<rect id="_x31_3.12" x="1268.806" y="119.3" fill="none" width="339.308" height="605.114"/>
<rect id="_x31_3.42" x="829.478" y="119.3" fill="none" width="339.308" height="605.114"/>
<rect id="_x31_3.13" x="1615.113" y="119.3" fill="none" width="339.308" height="605.114"/>
<rect id="_x31_3.14" x="1961.421" y="119.3" fill="none" width="339.308" height="605.114"/>
<rect id="_x31_3.15" x="2307.729" y="119.3" fill="none" width="339.308" height="605.114"/>
<rect id="_x31_3.16" x="2654.037" y="119.3" fill="none" width="339.308" height="605.114"/>
<rect id="_x31_3.21" x="41.412" y="1541.168" fill="none" width="190.289" height="242.271"/>
<rect id="_x31_3.22" x="296.249" y="1146.596" fill="none" width="224.831" height="346.314"/>
<rect id="_x31_3.28" x="24.141" y="1146.596" fill="none" width="224.831" height="346.314"/>
<rect id="_x31_3.27" x="277.607" y="1545.022" fill="none" width="258.604" height="80.813"/>
<rect id="_x31_3.25" x="3036.338" y="426.394" fill="none" width="335.276" height="298.021"/>
<rect id="_x31_3.26" x="3036.338" y="760.652" fill="none" width="335.276" height="298.021"/>
<rect id="_x31_3.24" x="1264.713" y="760.782" fill="none" width="335.276" height="298.021"/>
<rect id="_x31_3.23" x="829.48" y="760.782" fill="none" width="335.276" height="298.021"/>
<rect id="_x31_3.30" x="2645.71" y="1516.38" fill="none" width="187.87" height="730.213"/>
<rect id="_x31_3.9" x="2824.088" y="1345.572" fill="none" width="309.735" height="165.96"/>
<rect id="_x31_3.31" x="3113.408" y="1516.38" fill="none" width="187.87" height="730.213"/>
<rect id="_x31_3.7" x="2844.288" y="1521.832" fill="none" width="258.412" height="712.7"/>
<rect id="_x31_3.8" x="3319.111" y="1521.832" fill="none" width="258.412" height="712.7"/>
<rect id="_x31_3.39" x="1735.722" y="1807.104" fill="none" width="78.823" height="52.737"/>
<rect id="_x31_3.40" x="2078.851" y="1807.104" fill="none" width="78.823" height="52.737"/>
<rect id="_x31_3.41" x="2422.471" y="1807.104" fill="none" width="78.823" height="52.737"/>
<rect id="_x31_3.11" x="1342.744" y="1997.201" fill="none" width="174.009" height="212.251"/>
<rect id="_x31_3.10" x="799.019" y="1653.828" fill="none" width="174.009" height="214.737"/>
<rect id="_x31_3.20" x="828.755" y="1757.38" fill="none" width="114.538" height="93.713"/>
<rect id="_x31_3.6" x="2346.876" y="1704.565" fill="none" width="64.102" height="42.887"/>
<rect id="_x31_3.5" x="2004.422" y="1704.565" fill="none" width="64.102" height="42.887"/>
<rect id="_x31_3.4" x="1661.969" y="1704.565" fill="none" width="64.102" height="42.887"/>
<rect id="_x31_3.1" x="1504.92" y="1771.43" fill="none" width="119.341" height="95.499"/>
<rect id="_x31_3.34" x="1847.374" y="1580.925" fill="none" width="119.341" height="95.499"/>
<rect id="_x31_3.2" x="1847.374" y="1771.43" fill="none" width="119.341" height="95.499"/>
<rect id="_x31_3.3" x="2189.827" y="1771.43" fill="none" width="119.341" height="95.499"/>
<rect id="_x31_3.33" x="1504.92" y="1580.925" fill="none" width="119.341" height="95.499"/>
<rect id="_x31_3.35" x="2189.827" y="1580.925" fill="none" width="119.341" height="95.499"/>
<rect id="_x31_3.32" x="1544.62" y="1997.201" fill="none" width="1007.561" height="212.251"/>
<rect id="_x31_3.29" x="852.515" y="1997.201" fill="none" width="212.229" height="212.251"/>
<rect id="_x31_3.36" x="1504.92" y="1693.403" fill="none" width="119.341" height="39.657"/>
<rect id="_x31_3.37" x="1847.374" y="1693.403" fill="none" width="119.341" height="39.657"/>
<rect id="_x31_3.38" x="2189.827" y="1693.403" fill="none" width="119.341" height="39.657"/>
</svg>
