<?xml version="1.0" encoding="utf-8"?>
<!-- Generator: Adobe Illustrator 19.2.1, SVG Export Plug-In . SVG Version: 6.00 Build 0)  -->
<svg version="1.1" id="Background" xmlns="http://www.w3.org/2000/svg" xmlns:xlink="http://www.w3.org/1999/xlink" x="0px" y="0px"
	 viewBox="0 0 3600 2782.08" enable-background="new 0 0 3600 2782.08" xml:space="preserve">
<polygon fill="#808080" points="338.1,434.51 338.1,1634.93 297.5,1634.93 297.5,475.31 317.15,455.35 "/>
<rect x="317.15" y="434.51" fill="#BFBFBF" width="21.2" height="1200.41"/>
<rect x="49.97" y="721.44" fill="#5F6062" width="250.85" height="8.64"/>
<rect x="49.97" y="721.44" fill="none" width="250.85" height="8.64"/>
<rect x="49.97" y="1174.49" fill="#5F6062" width="250.85" height="8.64"/>
<rect x="49.97" y="1174.49" fill="none" width="250.85" height="8.64"/>
<path fill="#A1CE8E" stroke="#8F9BA1" stroke-width="1.649" d="M3204.97,1585.96c0,33.44-27.11,41.22-60.56,41.22l-1327.16,57.46
	l-1347.73-57.46c-33.44,0-60.55-7.78-60.55-41.22v-10.38c0-33.44,159.92-120.49,193.36-120.49l2420.88-1.93
	c33.45,0,181.76,88.99,181.76,122.43V1585.96z"/>
<path fill="#92BC81" d="M584.78,1459.07c24.54-7.42,291.18,9.87,384.95,9.87c99.87,0,184.37,30.84,301.05,52.6
	c123.38,23.02,261.57,36.16,429.36,16.44c167.8-19.72,276.37-26.3,417.02-16.44c140.66,9.87,192.9-45.87,513.27-16.44
	c357.8,32.87,300.48-26.36,413.92-15.3c89.47,8.72,49.99,35.02-4.3,51.46c-123.1,37.28-367.67,36.17-451.57,46.03
	c-83.9,9.87-281.31-3.29-308.45-13.15c-27.14-9.86-229.17,12.07-278.84,32.88c-49.67,20.81-207.27,13.15-325.72,0
	c-118.44-13.15-199.88,26.3-352.87,6.58c-144.98-18.7-172.57-48.94-291.18-52.61c-106.11-3.29-220.44,16.28-286.24,13.15
	C399.71,1557.71,530.49,1475.52,584.78,1459.07"/>
<polygon fill="#E5F5F9" stroke="#8F9BA1" stroke-miterlimit="10" points="1385.33,427.63 742.94,427.63 742.94,224.06 
	1385.33,120.28 "/>
<polygon fill="#E5F5F9" stroke="#8F9BA1" stroke-miterlimit="10" points="2272.12,427.63 2914.51,427.63 2914.51,224.06 
	2272.12,120.28 "/>
<polygon fill="none" stroke="#8F9BA1" stroke-width="0.225" points="2272.12,427.63 2914.51,427.63 2914.51,224.06 2272.12,120.28 
	"/>
<polygon fill="#E5F5F9" stroke="#8F9BA1" stroke-miterlimit="10" points="1616.18,427.63 2258.57,427.63 2258.57,224.06 
	1616.18,120.28 "/>
<polygon fill="none" stroke="#8F9BA1" stroke-width="0.225" points="1616.18,427.63 2258.57,427.63 2258.57,224.06 1616.18,120.28 
	"/>
<polygon fill="#E5F5F9" stroke="#8F9BA1" stroke-miterlimit="10" points="1618.73,427.63 976.34,427.63 976.34,224.06 
	1618.73,120.28 "/>
<polyline fill="#F2F1EA" stroke="#8F9BA1" points="595.86,1512.95 595.86,436.97 2960.3,436.97 2960.3,1512.95 "/>
<rect x="961.62" y="183.48" fill="#F6F6F6" stroke="#8F9BA1" width="38.59" height="236.99"/>
<rect x="1605.76" y="183.48" fill="#F6F6F6" stroke="#8F9BA1" width="38.59" height="236.99"/>
<rect x="2247.02" y="183.48" fill="#F6F6F6" stroke="#8F9BA1" width="38.59" height="236.99"/>
<rect x="708.27" y="261.3" fill="#F6F6F6" stroke="#8F9BA1" width="64.32" height="159.17"/>
<rect x="603.12" y="416.58" fill="#F6F6F6" stroke="#8F9BA1" width="2410.76" height="20.39"/>
<rect x="582.85" y="1513.28" fill="#F6F6F6" stroke="#8F9BA1" stroke-miterlimit="10" width="2394.77" height="20.39"/>
<radialGradient id="SVGID_1_" cx="1792.8271" cy="258.5258" r="942.3298" gradientUnits="userSpaceOnUse">
	<stop  offset="0" style="stop-color:#FED208"/>
	<stop  offset="0.2198" style="stop-color:#FED208"/>
	<stop  offset="0.328" style="stop-color:#FECE0A"/>
	<stop  offset="1" style="stop-color:#FDB714"/>
</radialGradient>
<path fill="url(#SVGID_1_)" d="M471.69,277.56c0.53,20.44,1.55,36.71,3.63,58.72c855.32-230.43,1806.03-190.89,2637.97,97.1
	c0-58.86,0-100.94,0.67-157.91c-428.83-127.85-875.2-191.8-1320.74-191.79C1345.5,83.69,898.62,148.29,471.69,277.56"/>
<linearGradient id="SVGID_2_" gradientUnits="userSpaceOnUse" x1="406.7172" y1="1644.6288" x2="3207.3042" y2="1644.6288">
	<stop  offset="0" style="stop-color:#F6F1D5"/>
	<stop  offset="0.5" style="stop-color:#F5EBA4"/>
	<stop  offset="1" style="stop-color:#EDE4A8"/>
</linearGradient>
<path fill="url(#SVGID_2_)" stroke="#8F9BA1" d="M406.72,1573.41v65.37c930.7,102.75,1869.89,102.75,2800.59,0v-65.37
	C2276.61,1676.17,1337.42,1676.17,406.72,1573.41"/>
<g>
	<rect x="49.97" y="721.44" fill="#5F6062" width="250.85" height="8.64"/>
</g>
<g>
	<rect x="49.97" y="1174.49" fill="none" stroke="#FFFFFF" stroke-width="0.588" width="250.85" height="8.64"/>
</g>
<polygon fill="#5D5D5D" points="25.56,455.35 34.02,475.31 297.5,475.31 317.8,455.35 "/>
<rect x="67.62" y="710.51" fill="#F2F2F3" stroke="#8F9BA1" stroke-width="3" width="211.82" height="481.1"/>
<path fill="#AA002F" stroke="#002616" stroke-miterlimit="10" d="M3221.47,1427.58l-8.48-18.9l-18.9,8.48l9.06,3.45
	c-7.61,13.96-20.41,22.25-34.67,22.3c-0.04,0-0.08,0-0.12,0c-13.98,0-26.51-7.92-33.98-21.34l9.04-3.46l-18.92-8.44l-8.45,18.91
	l9.23-3.53c4.48,8.5,10.76,15.47,18.26,20.23c7.49,4.76,16.07,7.27,24.81,7.27c0.05,0,0.1,0,0.15,0
	c18.27-0.06,34.51-10.68,43.73-28.48L3221.47,1427.58z"/>
<rect x="1074.16" y="1345.84" fill="#999B9E" width="41.15" height="230.7"/>
<rect x="1074.16" y="1345.84" fill="#545456" width="19.54" height="230.7"/>
<path fill="none" d="M945.4,526.62c-1.61,0-2.93,1.34-2.93,2.98V1375c0,1.64,1.32,2.98,2.93,2.98h300.22c1.61,0,2.92-1.34,2.92-2.98
	V529.6c0-1.64-1.32-2.98-2.92-2.98H945.4z"/>
<g>
	<linearGradient id="SVGID_3_" gradientUnits="userSpaceOnUse" x1="1095.5049" y1="1310.4698" x2="1095.5049" y2="330.5602">
		<stop  offset="0" style="stop-color:#717375"/>
		<stop  offset="0.0337" style="stop-color:#717375"/>
		<stop  offset="0.2403" style="stop-color:#8A8C8E"/>
		<stop  offset="0.6777" style="stop-color:#CBCCCD"/>
		<stop  offset="1" style="stop-color:#FFFFFF"/>
	</linearGradient>
	<path fill="url(#SVGID_3_)" stroke="#231F20" d="M1248.54,1375c0,1.64-1.32,2.98-2.93,2.98H945.39c-1.61,0-2.92-1.34-2.92-2.98
		V529.6c0-1.64,1.32-2.98,2.92-2.98h300.22c1.61,0,2.93,1.34,2.93,2.98V1375z"/>
</g>
<rect x="953.45" y="537.57" fill="#FFFFFF" width="284.11" height="829.46"/>
<g>
	<path fill="#5F856A" d="M1937,1573.75c11.51-0.56,22.48-0.51,32.32,0.06c9.11-1.4,19.67-2.47,31-3.02
		c35.28-1.7,64.53,2.21,65.33,8.73c0.78,6.39-25.93,12.9-60.11,14.79c-11.58,5.85-35.93,10.65-64.52,12.04
		c-40.71,1.98-74.61-3.73-75.72-12.72C1864.18,1584.61,1896.28,1575.71,1937,1573.75z"/>
	<g>
		<g>
			<path fill="#476F53" d="M2045.19,1527.27c-8.08,26.22-29.82,45.91-56.34,49.66c5.96,1.53,12.44,2.39,19.24,2.39
				c28.86,0,52.25-15.2,52.25-33.94C2060.33,1538.74,2053.71,1532.53,2045.19,1527.27z"/>
			<path fill="#476F53" d="M2045.19,1527.27c-0.95-0.59-1.92-1.16-2.92-1.72c-8.32,27.94-32.89,48.25-61.98,48.56
				c2.7,1.1,5.56,2.05,8.56,2.82C2015.37,1573.18,2037.11,1553.5,2045.19,1527.27z"/>
			<path fill="#4F7755" d="M2042.27,1525.55c-0.97-0.55-1.97-1.09-2.97-1.62c-7.8,27.04-31.56,46.72-59.68,46.72
				c-2.41,0-4.79-0.16-7.13-0.44c2.4,1.45,5.01,2.76,7.8,3.9C2009.38,1573.8,2033.95,1553.5,2042.27,1525.55z"/>
			<path fill="#577F58" d="M2039.3,1523.94c-0.99-0.52-2-1.03-3-1.53c-7.23,25.88-29.86,44.77-56.68,44.77
				c-4.69,0-9.24-0.59-13.62-1.69c1.93,1.7,4.1,3.28,6.48,4.72c2.34,0.28,4.72,0.44,7.13,0.44
				C2007.74,1570.66,2031.51,1550.98,2039.3,1523.94z"/>
			<path fill="#5F865A" d="M2036.3,1522.41c-1.01-0.49-2.02-0.98-3.03-1.44c-6.69,24.68-28.17,42.74-53.65,42.74
				c-6.44,0-12.62-1.17-18.38-3.29c1.36,1.79,2.96,3.49,4.77,5.08c4.37,1.09,8.93,1.69,13.62,1.69
				C2006.44,1567.18,2029.07,1548.29,2036.3,1522.41z"/>
			<path fill="#678E5D" d="M2033.27,1520.97c-1.02-0.47-2.04-0.93-3.05-1.37c-6.17,23.44-26.48,40.64-50.61,40.64
				c-7.25,0-14.17-1.55-20.45-4.37c-0.35-0.16-0.69-0.33-1.03-0.49c0.83,1.75,1.87,3.43,3.1,5.04c5.76,2.12,11.94,3.29,18.38,3.29
				C2005.1,1563.71,2026.58,1545.65,2033.27,1520.97z"/>
			<path fill="#6F965F" d="M1979.62,1560.24c24.12,0,44.44-17.2,50.61-40.64c-1.03-0.45-2.05-0.89-3.06-1.31
				c-5.66,22.16-24.8,38.47-47.54,38.47c-6.8,0-13.28-1.46-19.17-4.09c-1.36-0.61-2.69-1.29-3.99-2.02c0.39,1.62,0.95,3.2,1.68,4.73
				c0.34,0.16,0.68,0.34,1.03,0.49C1965.46,1558.68,1972.37,1560.24,1979.62,1560.24z"/>
			<path fill="#779D61" d="M1979.62,1556.76c22.75,0,41.88-16.31,47.54-38.47c-1.04-0.43-2.07-0.85-3.08-1.25
				c-5.18,20.86-23.12,36.25-44.47,36.25c-6.35,0-12.39-1.36-17.89-3.82c-2.03-0.91-3.99-1.97-5.86-3.17
				c0.06,1.47,0.25,2.92,0.59,4.35c1.3,0.73,2.63,1.41,3.99,2.02C1966.34,1555.31,1972.82,1556.76,1979.62,1556.76z"/>
			<path fill="#7FA564" d="M1979.62,1553.29c21.35,0,39.29-15.39,44.47-36.25c-1.06-0.42-2.1-0.82-3.1-1.2
				c-4.7,19.53-21.44,33.97-41.37,33.97c-8.62,0-16.65-2.71-23.36-7.37c-0.28,0.97-0.43,1.94-0.43,2.93c0,0.31,0.02,0.61,0.04,0.92
				c1.87,1.2,3.83,2.26,5.86,3.17C1967.23,1551.93,1973.27,1553.29,1979.62,1553.29z"/>
			<path fill="#87AC66" d="M2020.99,1515.84c-1.08-0.41-2.13-0.79-3.12-1.15c-4.24,18.17-19.76,31.65-38.25,31.65
				c-8.14,0-15.69-2.61-21.97-7.08c-0.61,1.04-1.08,2.11-1.39,3.18c6.71,4.65,14.73,7.37,23.36,7.37
				C1999.55,1549.82,2016.29,1535.37,2020.99,1515.84z"/>
			<path fill="#8FB468" d="M2017.87,1514.69c-1.12-0.4-2.16-0.77-3.13-1.1c-3.8,16.79-18.08,29.28-35.12,29.28
				c-7.39,0-14.26-2.35-19.98-6.38c-0.77,0.91-1.43,1.84-1.99,2.78c6.28,4.47,13.84,7.08,21.97,7.08
				C1998.11,1546.34,2013.63,1532.87,2017.87,1514.69z"/>
			<path fill="#96BB6B" d="M2014.74,1513.59c-1.18-0.4-2.24-0.75-3.14-1.05c-3.37,15.38-16.41,26.85-31.98,26.85
				c-6.48,0-12.51-1.99-17.6-5.42c-0.87,0.82-1.67,1.66-2.38,2.51c5.72,4.03,12.59,6.38,19.98,6.38
				C1996.66,1542.87,2010.94,1530.38,2014.74,1513.59z"/>
			<path fill="#9EC26D" d="M2011.6,1512.54c-1.53-0.5-2.63-0.83-3.15-0.98c-2.97,13.95-14.74,24.37-28.82,24.37
				c-5.43,0-10.52-1.56-14.9-4.27c-0.96,0.76-1.86,1.53-2.7,2.32c5.09,3.42,11.12,5.42,17.6,5.42
				C1995.19,1539.4,2008.23,1527.93,2011.6,1512.54z"/>
			<path fill="#A5C96F" d="M2008.44,1511.56c-0.25-0.07-0.38-0.11-0.36-0.1c0.06,0.02-1.17,0.41-3.28,1.11
				c-3.22,11.5-13.27,19.88-25.19,19.88c-4.28,0-8.31-1.09-11.88-3.01c-1.05,0.72-2.06,1.46-3.01,2.22
				c4.38,2.71,9.46,4.27,14.9,4.27C1993.7,1535.92,2005.48,1525.5,2008.44,1511.56z"/>
			<path fill="#ADD071" d="M2004.81,1512.57c-1.09,0.36-2.42,0.81-3.92,1.34c-3.44,8.84-11.66,15.07-21.26,15.07
				c-3,0-5.87-0.62-8.5-1.72c-1.17,0.71-2.3,1.44-3.39,2.19c3.57,1.92,7.61,3.01,11.88,3.01
				C1991.53,1532.45,2001.59,1524.06,2004.81,1512.57z"/>
			<path fill="#B4D773" d="M2000.89,1513.9c-1.35,0.47-2.86,1.01-4.46,1.61c-3.46,5.99-9.68,9.99-16.8,9.99
				c-1.54,0-3.03-0.21-4.47-0.56c-1.37,0.75-2.72,1.52-4.02,2.31c2.63,1.11,5.49,1.72,8.5,1.72
				C1989.22,1528.98,1997.45,1522.75,2000.89,1513.9z"/>
			<path fill="#BBDE75" d="M1996.42,1515.51c-1.94,0.72-4.03,1.53-6.21,2.41c-2.52,2.26-5.7,3.72-9.19,4.03
				c-1.98,0.95-3.96,1.94-5.88,2.99c1.44,0.35,2.93,0.56,4.47,0.56C1986.74,1525.51,1992.96,1521.5,1996.42,1515.51z"/>
			<path fill="#C2E578" d="M1981.03,1521.96c3.49-0.31,6.66-1.78,9.19-4.03C1987.25,1519.13,1984.13,1520.48,1981.03,1521.96z"/>
		</g>
		<g>
			<path fill="#476F53" d="M1993.9,1477.66c-6.13,34.82-30.55,62.08-61.31,68.16c6.62,1.51,13.74,2.33,21.17,2.33
				c34.68,0,62.79-17.85,62.79-39.86C2016.56,1495.98,2007.74,1484.97,1993.9,1477.66z"/>
			<path fill="#476F53" d="M1993.9,1477.66c-1.1-0.58-2.24-1.14-3.41-1.67c-6.17,37.05-34.02,65.3-67.9,66.9
				c3.17,1.15,6.51,2.14,10,2.94C1963.36,1539.74,1987.77,1512.48,1993.9,1477.66z"/>
			<path fill="#4F7755" d="M1990.49,1475.99c-1.12-0.51-2.26-1-3.44-1.47c-5.8,36.58-33.79,64.33-67.49,64.33
				c-2.3,0-4.57-0.13-6.81-0.39c3.04,1.67,6.33,3.15,9.83,4.42C1956.48,1541.29,1984.32,1513.04,1990.49,1475.99z"/>
			<path fill="#577F58" d="M1987.06,1474.52c-1.13-0.45-2.28-0.89-3.47-1.29c-5.29,34.93-31.93,61.5-64.02,61.5
				c-5.38,0-10.6-0.76-15.6-2.17c2.61,2.15,5.56,4.13,8.79,5.91c2.24,0.25,4.51,0.39,6.81,0.39
				C1953.26,1538.85,1981.26,1511.1,1987.06,1474.52z"/>
			<path fill="#5F865A" d="M1983.59,1473.23c-1.14-0.39-2.31-0.75-3.5-1.1c-4.86,33.18-30.1,58.48-60.52,58.48
				c-7.82,0-15.28-1.69-22.16-4.73c1.84,2.37,4.04,4.61,6.56,6.69c5,1.41,10.22,2.17,15.6,2.17
				C1951.66,1534.73,1978.3,1508.16,1983.59,1473.23z"/>
			<path fill="#678E5D" d="M1980.1,1472.13c-1.15-0.34-2.33-0.65-3.52-0.95c-4.48,31.36-28.29,55.3-57.01,55.3
				c-7.98,0-15.58-1.85-22.49-5.19c-1.24-0.6-2.45-1.26-3.64-1.96c1.03,2.27,2.36,4.46,3.97,6.54c6.88,3.04,14.34,4.73,22.16,4.73
				C1950,1530.6,1975.24,1505.31,1980.1,1472.13z"/>
			<path fill="#6F965F" d="M1919.57,1526.48c28.72,0,52.53-23.94,57.01-55.3c-1.17-0.29-2.34-0.56-3.54-0.8
				c-4.15,29.47-26.5,51.98-53.46,51.98c-7.48,0-14.6-1.73-21.08-4.86c-2.42-1.17-4.75-2.53-6.97-4.08c0.41,2.03,1.06,4,1.93,5.92
				c1.19,0.69,2.4,1.36,3.64,1.96C1903.99,1524.63,1911.59,1526.48,1919.57,1526.48z"/>
			<path fill="#779D61" d="M1919.57,1522.35c26.96,0,49.32-22.51,53.46-51.98c-1.17-0.24-2.36-0.47-3.56-0.66
				c-3.87,27.5-24.73,48.52-49.9,48.52c-10.61,0-20.45-3.74-28.58-10.12c0,0.06-0.01,0.13-0.01,0.19c0,1.74,0.19,3.44,0.53,5.12
				c2.23,1.54,4.55,2.91,6.97,4.08C1904.97,1520.62,1912.09,1522.35,1919.57,1522.35z"/>
			<path fill="#7FA564" d="M1969.47,1469.71c-1.18-0.19-2.38-0.36-3.59-0.51c-3.65,25.46-22.99,44.9-46.31,44.9
				c-10.54,0-20.27-3.97-28.11-10.67c-0.29,1.53-0.46,3.09-0.48,4.68c8.13,6.38,17.97,10.12,28.58,10.12
				C1944.74,1518.23,1965.6,1497.21,1969.47,1469.71z"/>
			<path fill="#87AC66" d="M1965.88,1469.2c-1.19-0.15-2.4-0.27-3.61-0.37c-3.48,23.36-21.27,41.15-42.7,41.15
				c-10.18,0-19.54-4.02-26.94-10.74c-0.5,1.37-0.89,2.77-1.17,4.2c7.84,6.7,17.57,10.67,28.11,10.67
				C1942.89,1514.1,1962.23,1494.67,1965.88,1469.2z"/>
			<path fill="#8FB468" d="M1962.27,1468.83c-1.2-0.1-2.41-0.18-3.63-0.24c-3.35,21.19-19.56,37.27-39.07,37.27
				c-9.59,0-18.39-3.89-25.26-10.36c-0.65,1.22-1.21,2.47-1.68,3.74c7.4,6.72,16.75,10.74,26.94,10.74
				C1941.01,1509.98,1958.8,1492.19,1962.27,1468.83z"/>
			<path fill="#96BB6B" d="M1958.64,1468.58c-1.21-0.06-2.42-0.1-3.65-0.11c-3.26,18.95-17.88,33.26-35.42,33.26
				c-8.82,0-16.9-3.62-23.17-9.62c-0.77,1.1-1.47,2.23-2.09,3.39c6.87,6.47,15.67,10.36,25.26,10.36
				C1939.08,1505.85,1955.3,1489.77,1958.64,1468.58z"/>
			<path fill="#9EC26D" d="M1954.99,1468.47c-0.41-0.01-0.82-0.02-1.23-0.02c-0.83,0-1.64,0.02-2.46,0.04
				c-3.21,16.65-16.19,29.11-31.73,29.11c-7.9,0-15.13-3.22-20.77-8.57c-0.87,1-1.67,2.03-2.41,3.07c6.27,6,14.35,9.62,23.17,9.62
				C1937.12,1501.73,1951.74,1487.43,1954.99,1468.47z"/>
			<path fill="#A5C96F" d="M1951.3,1468.49c-1.25,0.03-2.5,0.08-3.74,0.16c-3.18,14.27-14.51,24.83-27.99,24.83
				c-6.84,0-13.12-2.72-18.07-7.26c-0.96,0.91-1.86,1.85-2.7,2.81c5.63,5.35,12.87,8.57,20.77,8.57
				C1935.11,1497.6,1948.09,1485.14,1951.3,1468.49z"/>
			<path fill="#ADD071" d="M1947.56,1468.65c-1.29,0.08-2.56,0.19-3.83,0.32c-3.17,11.81-12.79,20.39-24.16,20.39
				c-5.66,0-10.89-2.13-15.1-5.72c-1.04,0.84-2.03,1.69-2.97,2.58c4.95,4.54,11.23,7.26,18.07,7.26
				C1933.06,1493.48,1944.38,1482.92,1947.56,1468.65z"/>
			<path fill="#B4D773" d="M1943.73,1468.97c-1.34,0.14-2.67,0.31-3.98,0.5c-3.15,9.23-11,15.77-20.19,15.77
				c-4.37,0-8.43-1.48-11.83-4.02c-1.14,0.78-2.23,1.59-3.27,2.43c4.21,3.59,9.44,5.72,15.1,5.72
				C1930.94,1489.35,1940.56,1480.77,1943.73,1468.97z"/>
			<path fill="#BBDE75" d="M1939.76,1469.46c-1.44,0.21-2.86,0.44-4.25,0.71c-3.04,6.5-9.03,10.93-15.93,10.93
				c-2.93,0-5.69-0.82-8.14-2.23c-1.28,0.74-2.51,1.53-3.7,2.33c3.4,2.54,7.46,4.02,11.83,4.02
				C1928.76,1485.23,1936.61,1478.69,1939.76,1469.46z"/>
			<path fill="#C2E578" d="M1935.5,1470.17c-1.72,0.33-3.4,0.71-5.05,1.13c-2.65,3.47-6.54,5.68-10.89,5.68
				c-1.23,0-2.41-0.19-3.55-0.52c-1.59,0.76-3.12,1.57-4.59,2.42c2.45,1.42,5.21,2.23,8.14,2.23
				C1926.47,1481.1,1932.47,1476.67,1935.5,1470.17z"/>
			<path fill="#C9EC7A" d="M1930.46,1471.3c-5.19,1.32-10.04,3.05-14.43,5.16c1.14,0.33,2.32,0.52,3.55,0.52
				C1923.92,1476.98,1927.81,1474.77,1930.46,1471.3z"/>
		</g>
		<g>
			<path fill="#476F53" d="M1989.21,1531.71c-0.83,2.69-1.74,5.33-2.77,7.91c-4.78,11.95-11.7,22.71-20.24,31.75
				c-14.27,15.1-33.09,25.38-54.1,28.36c8.14,2.09,17,3.25,26.29,3.25c39.52,0,71.56-20.8,71.56-46.47
				C2009.94,1547.42,2000.88,1538.9,1989.21,1531.71z"/>
			<path fill="#476F53" d="M1966.2,1571.38c8.55-9.04,15.46-19.8,20.24-31.75c1.03-2.58,1.94-5.23,2.77-7.91
				c-1.3-0.8-2.64-1.59-3.99-2.36c-0.85,2.87-1.83,5.68-2.92,8.42c-4.55,11.38-11.14,21.63-19.28,30.24
				c-16.08,17-38.21,27.59-62.68,27.85c3.71,1.51,7.64,2.81,11.76,3.87C1933.1,1596.75,1951.93,1586.47,1966.2,1571.38z"/>
			<path fill="#4F7755" d="M1963.02,1568.01c8.14-8.61,14.73-18.86,19.28-30.24c1.1-2.74,2.07-5.55,2.92-8.42
				c-1.33-0.76-2.69-1.49-4.06-2.21c-0.86,2.99-1.86,5.93-3,8.78c-4.32,10.81-10.58,20.55-18.31,28.73
				c-15.46,16.36-36.83,26.47-60.42,26.47c-3.3,0-6.56-0.2-9.76-0.59c3.29,1.99,6.86,3.77,10.68,5.33
				C1924.81,1595.61,1946.94,1585.02,1963.02,1568.01z"/>
			<path fill="#577F58" d="M1959.84,1564.65c7.73-8.18,13.99-17.92,18.31-28.73c1.14-2.85,2.14-5.79,3-8.78
				c-1.36-0.71-2.73-1.41-4.11-2.09c-0.86,3.08-1.86,6.09-3.03,9.02c-4.1,10.24-10.02,19.47-17.35,27.22
				c-14.65,15.49-34.89,25.08-57.24,25.08c-6.43,0-12.67-0.82-18.66-2.31c2.65,2.34,5.64,4.5,8.9,6.48c3.2,0.39,6.46,0.59,9.76,0.59
				C1923.01,1591.12,1944.37,1581.01,1959.84,1564.65z"/>
			<path fill="#5F865A" d="M1956.66,1561.29c7.33-7.75,13.25-16.97,17.35-27.22c1.17-2.92,2.17-5.94,3.03-9.02
				c-1.38-0.68-2.76-1.34-4.14-1.98c-0.85,3.13-1.85,6.18-3.03,9.14c-3.87,9.67-9.47,18.39-16.39,25.7
				c-13.84,14.63-32.95,23.69-54.06,23.69c-8.83,0-17.3-1.6-25.19-4.51c1.87,2.45,4.05,4.78,6.52,6.96
				c5.99,1.5,12.24,2.31,18.66,2.31C1921.77,1586.37,1942.01,1576.78,1956.66,1561.29z"/>
			<path fill="#678E5D" d="M1953.48,1557.92c6.92-7.32,12.52-16.03,16.39-25.7c1.18-2.96,2.18-6.02,3.03-9.14
				c-1.4-0.65-2.79-1.27-4.17-1.88c-0.83,3.14-1.82,6.21-3,9.17c-3.64,9.11-8.91,17.31-15.42,24.19
				c-13.02,13.77-31.01,22.29-50.88,22.29c-9.94,0-19.4-2.13-28.01-5.98c-0.48-0.21-0.94-0.45-1.42-0.68
				c1.13,2.39,2.56,4.69,4.24,6.9c7.89,2.91,16.36,4.51,25.19,4.51C1920.53,1581.61,1939.64,1572.56,1953.48,1557.92z"/>
			<path fill="#6F965F" d="M1899.41,1576.85c19.87,0,37.86-8.52,50.88-22.29c6.51-6.89,11.78-15.09,15.42-24.19
				c1.18-2.96,2.18-6.03,3-9.17c-1.41-0.62-2.81-1.22-4.19-1.79c-0.8,3.12-1.78,6.17-2.95,9.11c-3.41,8.54-8.35,16.22-14.46,22.68
				c-12.21,12.91-29.07,20.9-47.7,20.9c-9.31,0-18.19-2-26.26-5.61c-1.87-0.84-3.69-1.77-5.46-2.77c0.53,2.21,1.3,4.38,2.3,6.48
				c0.47,0.22,0.94,0.46,1.42,0.68C1880.01,1574.72,1889.48,1576.85,1899.41,1576.85z"/>
			<path fill="#779D61" d="M1899.41,1572.09c18.63,0,35.5-7.99,47.7-20.9c6.1-6.46,11.04-14.14,14.46-22.68
				c1.18-2.94,2.16-5.98,2.95-9.11c-1.43-0.6-2.84-1.17-4.22-1.71c-0.76,3.08-1.73,6.08-2.88,8.97c-3.19,7.97-7.8,15.14-13.49,21.17
				c-11.39,12.05-27.14,19.51-44.52,19.51c-8.69,0-16.98-1.86-24.51-5.23c-2.78-1.25-5.46-2.7-8.02-4.34
				c0.08,2.02,0.34,4.01,0.81,5.95c1.78,1,3.6,1.93,5.46,2.77C1881.22,1570.1,1890.1,1572.09,1899.41,1572.09z"/>
			<path fill="#7FA564" d="M1899.41,1567.34c17.39,0,33.13-7.45,44.52-19.51c5.7-6.03,10.31-13.2,13.49-21.17
				c1.16-2.89,2.12-5.89,2.88-8.97c-1.45-0.58-2.87-1.12-4.24-1.64c-0.73,3.01-1.66,5.94-2.79,8.76
				c-2.96,7.4-7.24,14.06-12.53,19.66c-10.58,11.19-25.2,18.11-41.34,18.11c-8.07,0-15.76-1.73-22.76-4.86
				c-3.24-1.45-6.32-3.21-9.23-5.23c-0.38,1.32-0.59,2.66-0.59,4.02c0,0.42,0.03,0.84,0.05,1.25c2.56,1.64,5.24,3.09,8.02,4.34
				C1882.44,1565.47,1890.72,1567.34,1899.41,1567.34z"/>
			<path fill="#87AC66" d="M1899.41,1562.58c16.15,0,30.76-6.92,41.34-18.11c5.29-5.6,9.57-12.26,12.53-19.66
				c1.13-2.82,2.06-5.74,2.79-8.76c-1.49-0.56-2.91-1.09-4.27-1.58c-0.68,2.92-1.57,5.76-2.66,8.48
				c-2.73,6.83-6.68,12.98-11.57,18.14c-9.77,10.33-23.26,16.72-38.16,16.72c-11.14,0-21.49-3.57-30.09-9.69
				c-0.84,1.43-1.48,2.89-1.9,4.36c2.91,2.02,5.99,3.78,9.23,5.23C1883.65,1560.85,1891.34,1562.58,1899.41,1562.58z"/>
			<path fill="#8FB468" d="M1937.58,1541.11c4.88-5.16,8.84-11.32,11.57-18.14c1.09-2.72,1.98-5.56,2.66-8.48
				c-1.53-0.55-2.96-1.05-4.29-1.51c-0.64,2.81-1.47,5.53-2.52,8.14c-2.5,6.26-6.13,11.9-10.6,16.63
				c-8.95,9.47-21.32,15.33-34.98,15.33c-10.12,0-19.53-3.22-27.37-8.74c-1.05,1.25-1.96,2.52-2.72,3.8
				c8.6,6.12,18.95,9.69,30.09,9.69C1914.32,1557.82,1927.81,1551.44,1937.58,1541.11z"/>
			<path fill="#96BB6B" d="M1934.4,1537.74c4.48-4.73,8.1-10.37,10.6-16.63c1.04-2.61,1.88-5.33,2.52-8.14
				c-1.61-0.55-3.06-1.03-4.3-1.44c-0.58,2.67-1.37,5.25-2.36,7.72c-2.28,5.69-5.57,10.82-9.64,15.12
				c-8.14,8.61-19.38,13.93-31.8,13.93c-8.87,0-17.13-2.73-24.1-7.42c-1.2,1.13-2.29,2.27-3.27,3.44
				c7.84,5.52,17.25,8.74,27.37,8.74C1913.07,1553.07,1925.44,1547.21,1934.4,1537.74z"/>
			<path fill="#9EC26D" d="M1931.22,1534.38c4.07-4.3,7.36-9.43,9.64-15.12c0.99-2.47,1.77-5.06,2.36-7.72
				c-2.09-0.68-3.59-1.14-4.32-1.35c-0.53,2.5-1.26,4.91-2.18,7.22c-2.05,5.12-5.01,9.73-8.67,13.61
				c-7.33,7.75-17.44,12.54-28.62,12.54c-7.44,0-14.41-2.13-20.4-5.84c-1.32,1.04-2.55,2.1-3.7,3.18c6.97,4.69,15.23,7.42,24.1,7.42
				C1911.83,1548.31,1923.08,1542.99,1931.22,1534.38z"/>
			<path fill="#A5C96F" d="M1928.03,1531.01c3.66-3.87,6.63-8.49,8.67-13.61c0.92-2.31,1.65-4.73,2.18-7.22
				c-0.35-0.1-0.53-0.15-0.5-0.14c0.08,0.03-1.59,0.56-4.48,1.52c-0.38,1.36-0.83,2.7-1.34,3.99c-1.82,4.55-4.46,8.65-7.71,12.1
				c-6.51,6.89-15.51,11.15-25.44,11.15c-5.86,0-11.38-1.49-16.27-4.12c-1.44,0.99-2.82,2-4.13,3.03c5.99,3.71,12.96,5.84,20.4,5.84
				C1910.59,1543.55,1920.71,1538.76,1928.03,1531.01z"/>
			<path fill="#ADD071" d="M1924.85,1527.65c3.26-3.44,5.89-7.54,7.71-12.1c0.52-1.29,0.96-2.63,1.34-3.99
				c-1.49,0.5-3.31,1.11-5.37,1.83c-0.04,0.1-0.07,0.21-0.11,0.31c-1.59,3.98-3.9,7.57-6.75,10.58c-5.7,6.03-13.57,9.75-22.26,9.75
				c-4.11,0-8.03-0.84-11.63-2.36c-1.6,0.97-3.15,1.97-4.64,3c4.89,2.63,10.41,4.12,16.27,4.12
				C1909.35,1538.8,1918.34,1534.54,1924.85,1527.65z"/>
			<path fill="#B4D773" d="M1921.67,1524.29c2.85-3.01,5.15-6.6,6.75-10.58c0.04-0.1,0.07-0.2,0.11-0.31
				c-1.84,0.64-3.88,1.38-6.07,2.19c-1.12,1.94-2.46,3.74-3.97,5.34c-4.88,5.16-11.63,8.36-19.08,8.36c-2.12,0-4.17-0.27-6.15-0.75
				c-1.87,1.02-3.71,2.07-5.49,3.15c3.6,1.52,7.52,2.36,11.63,2.36C1908.11,1534.04,1915.98,1530.31,1921.67,1524.29z"/>
			<path fill="#BBDE75" d="M1918.49,1520.92c1.51-1.6,2.85-3.39,3.97-5.34c-2.66,0.99-5.54,2.1-8.53,3.31
				c-3.46,3.1-7.82,5.11-12.61,5.54c-2.72,1.3-5.42,2.66-8.06,4.1c1.97,0.49,4.03,0.75,6.15,0.75
				C1906.86,1529.28,1913.61,1526.09,1918.49,1520.92z"/>
			<path fill="#C2E578" d="M1901.33,1524.43c4.79-0.43,9.15-2.44,12.61-5.54C1909.87,1520.55,1905.58,1522.4,1901.33,1524.43z"/>
		</g>
	</g>
</g>
<g>
	<path fill="#5F856A" d="M555.78,1561.99c-7.41-0.32-14.47-0.29-20.8,0.03c-5.86-0.79-12.66-1.39-19.95-1.7
		c-22.71-0.96-41.54,1.24-42.06,4.92c-0.5,3.6,16.69,7.27,38.7,8.33c7.45,3.3,23.13,6,41.54,6.78c26.21,1.11,48.03-2.1,48.74-7.17
		C602.66,1568.11,581.99,1563.1,555.78,1561.99z"/>
	<g>
		<g>
			<path fill="#476F53" d="M486.14,1535.81c-5.49,2.96-9.75,6.46-9.75,10.2c0,10.56,15.06,19.12,33.63,19.12
				c4.37,0,8.55-0.48,12.38-1.34C505.33,1561.67,491.34,1550.58,486.14,1535.81z"/>
			<path fill="#476F53" d="M522.4,1563.78c1.93-0.44,3.77-0.97,5.51-1.59c-18.73-0.17-34.54-11.61-39.9-27.35
				c-0.64,0.32-1.27,0.64-1.88,0.97C491.34,1550.58,505.33,1561.67,522.4,1563.78z"/>
			<path fill="#4F7755" d="M527.92,1562.19c1.79-0.64,3.48-1.38,5.02-2.2c-1.51,0.16-3.04,0.25-4.59,0.25
				c-18.1,0-33.4-11.08-38.42-26.32c-0.65,0.3-1.28,0.6-1.91,0.91C493.37,1550.58,509.19,1562.02,527.92,1562.19z"/>
			<path fill="#577F58" d="M528.34,1560.25c1.55,0,3.08-0.09,4.59-0.25c1.53-0.81,2.93-1.7,4.17-2.66
				c-2.82,0.61-5.75,0.95-8.76,0.95c-17.26,0-31.83-10.64-36.49-25.22c-0.65,0.28-1.29,0.57-1.93,0.86
				C494.94,1549.16,510.24,1560.25,528.34,1560.25z"/>
			<path fill="#5F865A" d="M528.34,1558.29c3.02,0,5.95-0.34,8.76-0.95c1.16-0.9,2.19-1.85,3.07-2.86
				c-3.71,1.2-7.69,1.85-11.83,1.85c-16.4,0-30.23-10.18-34.54-24.08c-0.65,0.26-1.3,0.53-1.95,0.81
				C496.51,1547.65,511.08,1558.29,528.34,1558.29z"/>
			<path fill="#678E5D" d="M528.34,1556.33c4.15,0,8.13-0.66,11.83-1.85c0.79-0.91,1.46-1.86,2-2.84c-0.22,0.09-0.44,0.19-0.66,0.28
				c-4.05,1.58-8.5,2.46-13.17,2.46c-15.53,0-28.6-9.69-32.58-22.89c-0.65,0.25-1.3,0.51-1.96,0.77
				C498.11,1546.16,511.94,1556.33,528.34,1556.33z"/>
			<path fill="#6F965F" d="M528.34,1554.38c4.67,0,9.12-0.88,13.17-2.46c0.22-0.09,0.44-0.19,0.66-0.28
				c0.47-0.86,0.83-1.75,1.08-2.66c-4.45,2.2-9.52,3.45-14.91,3.45c-14.64,0-26.96-9.19-30.61-21.67c-0.65,0.24-1.31,0.48-1.97,0.74
				C499.74,1544.68,512.81,1554.38,528.34,1554.38z"/>
			<path fill="#779D61" d="M528.34,1552.42c5.39,0,10.47-1.25,14.91-3.45c0.22-0.8,0.34-1.62,0.38-2.45
				c-4.46,2.5-9.7,3.94-15.29,3.94c-13.74,0-25.29-8.67-28.62-20.42c-0.65,0.22-1.31,0.46-1.98,0.7
				C501.38,1543.23,513.7,1552.42,528.34,1552.42z"/>
			<path fill="#7FA564" d="M528.34,1550.46c5.6,0,10.83-1.44,15.29-3.94c0.01-0.17,0.02-0.34,0.02-0.52c0-0.55-0.11-1.1-0.29-1.64
				c-4.32,2.62-9.48,4.14-15.03,4.14c-12.83,0-23.6-8.14-26.63-19.14c-0.65,0.21-1.31,0.44-1.99,0.67
				C503.05,1541.79,514.6,1550.46,528.34,1550.46z"/>
			<path fill="#87AC66" d="M528.34,1548.51c5.55,0,10.71-1.53,15.03-4.14c-0.2-0.61-0.5-1.2-0.89-1.79
				c-4.04,2.51-8.9,3.98-14.13,3.98c-11.91,0-21.89-7.59-24.62-17.83c-0.64,0.2-1.31,0.42-2.01,0.65
				C504.74,1540.37,515.51,1548.51,528.34,1548.51z"/>
			<path fill="#8FB468" d="M528.34,1546.55c5.23,0,10.09-1.47,14.13-3.98c-0.36-0.53-0.78-1.05-1.27-1.57
				c-3.68,2.27-8.1,3.59-12.86,3.59c-10.97,0-20.16-7.03-22.61-16.49c-0.62,0.19-1.29,0.39-2.01,0.62
				C506.45,1538.96,516.44,1546.55,528.34,1546.55z"/>
			<path fill="#96BB6B" d="M528.34,1544.59c4.76,0,9.18-1.32,12.86-3.59c-0.46-0.48-0.98-0.96-1.54-1.42
				c-3.27,1.93-7.15,3.06-11.32,3.06c-10.02,0-18.4-6.47-20.57-15.13c-0.59,0.17-1.27,0.37-2.03,0.59
				C508.18,1537.56,517.37,1544.59,528.34,1544.59z"/>
			<path fill="#9EC26D" d="M528.34,1542.64c4.17,0,8.04-1.13,11.32-3.06c-0.54-0.44-1.13-0.88-1.74-1.31
				c-2.81,1.52-6.08,2.41-9.57,2.41c-9.06,0-16.63-5.87-18.55-13.73c-0.33,0.08-1.03,0.27-2.03,0.55
				C509.94,1536.17,518.32,1542.64,528.34,1542.64z"/>
			<path fill="#A5C96F" d="M528.34,1540.68c3.49,0,6.76-0.89,9.57-2.41c-0.61-0.42-1.26-0.84-1.93-1.25c-2.3,1.08-4.89,1.7-7.64,1.7
				c-7.67,0-14.13-4.73-16.21-11.2c-1.36-0.4-2.15-0.61-2.12-0.63c0.01,0-0.08,0.02-0.22,0.06
				C511.71,1534.81,519.28,1540.68,528.34,1540.68z"/>
			<path fill="#ADD071" d="M528.34,1538.72c2.75,0,5.34-0.62,7.64-1.7c-0.7-0.42-1.43-0.83-2.18-1.23
				c-1.69,0.62-3.53,0.97-5.45,0.97c-6.18,0-11.47-3.51-13.68-8.49c-0.96-0.29-1.82-0.55-2.52-0.75
				C514.21,1534,520.68,1538.72,528.34,1538.72z"/>
			<path fill="#B4D773" d="M528.34,1536.77c1.93,0,3.77-0.35,5.45-0.97c-0.84-0.45-1.7-0.88-2.58-1.3c-0.93,0.2-1.89,0.32-2.88,0.32
				c-4.58,0-8.59-2.26-10.81-5.63c-1.04-0.34-2-0.64-2.87-0.9C516.87,1533.26,522.16,1536.77,528.34,1536.77z"/>
			<path fill="#BBDE75" d="M528.34,1534.81c0.99,0,1.95-0.12,2.88-0.32c-1.24-0.59-2.51-1.15-3.79-1.68c-2.24-0.18-4.28-1-5.9-2.27
				c-1.4-0.5-2.75-0.96-4-1.36C519.76,1532.55,523.76,1534.81,528.34,1534.81z"/>
			<path fill="#C2E578" d="M521.53,1530.54c1.62,1.27,3.66,2.09,5.9,2.27C525.43,1531.98,523.43,1531.22,521.53,1530.54z"/>
		</g>
		<g>
			<path fill="#476F53" d="M519.15,1507.85c-8.91,4.12-14.58,10.32-14.58,17.26c0,12.4,18.1,22.46,40.42,22.46
				c4.8,0,9.4-0.47,13.66-1.32C538.83,1542.83,523.1,1527.48,519.15,1507.85z"/>
			<path fill="#476F53" d="M558.65,1546.25c2.23-0.45,4.37-1,6.4-1.65c-21.81-0.9-39.74-16.82-43.71-37.69
				c-0.75,0.3-1.48,0.61-2.19,0.94C523.1,1527.48,538.83,1542.83,558.65,1546.25z"/>
			<path fill="#4F7755" d="M565.05,1544.6c2.26-0.72,4.37-1.55,6.33-2.49c-1.44,0.14-2.9,0.22-4.38,0.22
				c-21.69,0-39.71-15.64-43.44-36.24c-0.76,0.26-1.49,0.54-2.21,0.83C525.32,1527.78,543.24,1543.7,565.05,1544.6z"/>
			<path fill="#577F58" d="M567,1542.33c1.48,0,2.94-0.08,4.38-0.22c2.08-1,3.98-2.11,5.66-3.33c-3.22,0.79-6.58,1.22-10.04,1.22
				c-20.66,0-37.8-14.97-41.21-34.65c-0.76,0.23-1.5,0.47-2.23,0.73C527.29,1526.69,545.31,1542.33,567,1542.33z"/>
			<path fill="#5F865A" d="M567,1540c3.46,0,6.82-0.43,10.04-1.22c1.62-1.17,3.04-2.43,4.22-3.77c-4.43,1.71-9.23,2.66-14.26,2.66
				c-19.59,0-35.83-14.25-38.96-32.94c-0.76,0.2-1.51,0.4-2.25,0.62C529.2,1525.03,546.34,1540,567,1540z"/>
			<path fill="#678E5D" d="M567,1537.68c5.03,0,9.84-0.95,14.26-2.66c1.04-1.17,1.9-2.41,2.56-3.68
				c-5.05,2.57-10.77,4.02-16.82,4.02c-18.49,0-33.82-13.49-36.7-31.16c-0.77,0.17-1.52,0.34-2.27,0.54
				C531.17,1523.43,547.41,1537.68,567,1537.68z"/>
			<path fill="#6F965F" d="M567,1535.36c6.06,0,11.77-1.46,16.82-4.02c0.56-1.08,0.98-2.2,1.24-3.34
				c-5.27,3.2-11.45,5.04-18.06,5.04c-17.36,0-31.75-12.68-34.42-29.28c-0.77,0.14-1.53,0.29-2.28,0.45
				C533.18,1521.87,548.51,1535.36,567,1535.36z"/>
			<path fill="#779D61" d="M567,1533.03c6.61,0,12.79-1.84,18.06-5.04c0.22-0.94,0.34-1.91,0.34-2.88c0-0.04,0-0.07,0-0.11
				c-5.23,3.59-11.57,5.7-18.4,5.7c-16.2,0-29.63-11.84-32.12-27.33c-0.78,0.11-1.54,0.24-2.29,0.37
				C535.25,1520.35,549.64,1533.03,567,1533.03z"/>
			<path fill="#7FA564" d="M567,1530.71c6.83,0,13.17-2.11,18.4-5.7c-0.01-0.89-0.12-1.77-0.31-2.63
				c-5.04,3.78-11.31,6.01-18.09,6.01c-15.01,0-27.46-10.95-29.81-25.3c-0.78,0.08-1.55,0.18-2.31,0.29
				C537.37,1518.87,550.8,1530.71,567,1530.71z"/>
			<path fill="#87AC66" d="M567,1528.38c6.79,0,13.05-2.24,18.09-6.01c-0.18-0.8-0.43-1.59-0.75-2.36
				c-4.76,3.79-10.79,6.05-17.34,6.05c-13.8,0-25.25-10.02-27.49-23.18c-0.78,0.06-1.56,0.13-2.32,0.21
				C539.54,1517.43,551.99,1528.38,567,1528.38z"/>
			<path fill="#8FB468" d="M567,1526.06c6.56,0,12.58-2.27,17.34-6.05c-0.3-0.72-0.66-1.42-1.08-2.11
				c-4.42,3.65-10.08,5.83-16.26,5.83c-12.56,0-23-9.06-25.15-21c-0.79,0.03-1.56,0.08-2.34,0.14
				C541.75,1516.04,553.2,1526.06,567,1526.06z"/>
			<path fill="#96BB6B" d="M567,1523.74c6.18,0,11.84-2.19,16.26-5.83c-0.4-0.65-0.85-1.29-1.34-1.91
				c-4.04,3.38-9.24,5.42-14.92,5.42c-11.3,0-20.71-8.06-22.8-18.74c-0.79,0.01-1.57,0.03-2.35,0.06
				C544,1514.68,554.44,1523.74,567,1523.74z"/>
			<path fill="#9EC26D" d="M567,1521.41c5.68,0,10.88-2.04,14.92-5.42c-0.47-0.59-0.99-1.17-1.55-1.73
				c-3.63,3.01-8.28,4.83-13.37,4.83c-10,0-18.35-7.02-20.42-16.4c-0.53-0.01-1.06-0.02-1.59-0.02c-0.27,0-0.53,0.01-0.79,0.01
				C546.29,1513.36,555.7,1521.41,567,1521.41z"/>
			<path fill="#A5C96F" d="M567,1519.09c5.08,0,9.74-1.82,13.37-4.83c-0.54-0.54-1.12-1.07-1.74-1.59
				c-3.19,2.56-7.22,4.09-11.63,4.09c-8.68,0-15.95-5.95-18-13.99c-0.8-0.04-1.61-0.07-2.42-0.09
				C548.65,1512.07,557,1519.09,567,1519.09z"/>
			<path fill="#ADD071" d="M567,1516.77c4.4,0,8.44-1.54,11.63-4.09c-0.6-0.5-1.25-0.99-1.92-1.46c-2.71,2.02-6.06,3.23-9.7,3.23
				c-7.32,0-13.51-4.84-15.55-11.49c-0.81-0.07-1.62-0.13-2.44-0.18C551.05,1510.81,558.32,1516.77,567,1516.77z"/>
			<path fill="#B4D773" d="M567,1514.44c3.64,0,6.99-1.21,9.7-3.23c-0.67-0.47-1.36-0.92-2.09-1.36c-2.19,1.43-4.8,2.27-7.61,2.27
				c-5.91,0-10.96-3.69-12.98-8.88c-0.85-0.11-1.7-0.2-2.57-0.28C553.49,1509.61,559.68,1514.44,567,1514.44z"/>
			<path fill="#BBDE75" d="M567,1512.12c2.81,0,5.42-0.84,7.61-2.27c-0.76-0.45-1.55-0.89-2.37-1.31c-1.58,0.8-3.35,1.26-5.24,1.26
				c-4.44,0-8.3-2.5-10.26-6.16c-0.9-0.15-1.81-0.28-2.73-0.4C556.04,1508.43,561.09,1512.12,567,1512.12z"/>
			<path fill="#C2E578" d="M567,1509.79c1.89,0,3.66-0.46,5.24-1.26c-0.94-0.48-1.93-0.93-2.95-1.36c-0.73,0.19-1.49,0.29-2.28,0.29
				c-2.8,0-5.3-1.24-7.01-3.2c-1.06-0.24-2.15-0.45-3.25-0.64C558.7,1507.3,562.56,1509.79,567,1509.79z"/>
			<path fill="#C9EC7A" d="M567,1507.47c0.79,0,1.55-0.11,2.28-0.29c-2.83-1.18-5.95-2.16-9.29-2.9
				C561.7,1506.23,564.2,1507.47,567,1507.47z"/>
		</g>
		<g>
			<path fill="#476F53" d="M522.17,1538.31c-7.51,4.05-13.35,8.85-13.35,13.97c0,14.46,20.62,26.18,46.06,26.18
				c5.99,0,11.71-0.66,16.96-1.84C548.47,1573.73,529.29,1558.54,522.17,1538.31z"/>
			<path fill="#476F53" d="M571.85,1576.62c2.65-0.6,5.17-1.33,7.55-2.18c-25.66-0.23-47.32-15.9-54.66-37.47
				c-0.87,0.43-1.73,0.88-2.57,1.33C529.29,1558.54,548.47,1573.73,571.85,1576.62z"/>
			<path fill="#4F7755" d="M579.4,1574.44c2.46-0.88,4.76-1.89,6.88-3.01c-2.07,0.22-4.17,0.34-6.3,0.34
				c-24.79,0-45.74-15.18-52.62-36.05c-0.88,0.41-1.76,0.82-2.62,1.25C532.08,1558.54,553.74,1574.21,579.4,1574.44z"/>
			<path fill="#577F58" d="M579.98,1571.78c2.13,0,4.23-0.12,6.3-0.34c2.1-1.11,4.01-2.33,5.71-3.64c-3.86,0.84-7.88,1.3-12.01,1.3
				c-23.64,0-43.59-14.57-49.97-34.54c-0.89,0.38-1.77,0.78-2.65,1.18C534.23,1556.6,555.19,1571.78,579.98,1571.78z"/>
			<path fill="#5F865A" d="M579.98,1569.1c4.14,0,8.15-0.46,12.01-1.3c1.59-1.23,3-2.54,4.2-3.92c-5.08,1.64-10.53,2.54-16.21,2.54
				c-22.47,0-41.4-13.94-47.3-32.98c-0.89,0.36-1.78,0.73-2.67,1.11C536.38,1554.52,556.34,1569.1,579.98,1569.1z"/>
			<path fill="#678E5D" d="M579.98,1566.42c5.68,0,11.13-0.9,16.21-2.54c1.08-1.24,2-2.54,2.73-3.89c-0.3,0.13-0.6,0.26-0.91,0.38
				c-5.54,2.17-11.64,3.37-18.03,3.37c-21.27,0-39.18-13.27-44.62-31.35c-0.89,0.34-1.79,0.69-2.68,1.06
				C538.58,1552.48,557.51,1566.42,579.98,1566.42z"/>
			<path fill="#6F965F" d="M579.98,1563.74c6.4,0,12.49-1.2,18.03-3.37c0.31-0.12,0.61-0.26,0.91-0.38c0.64-1.18,1.14-2.4,1.48-3.65
				c-1.14,0.57-2.32,1.09-3.52,1.56c-5.2,2.03-10.91,3.16-16.9,3.16c-20.05,0-36.92-12.58-41.92-29.68
				c-0.89,0.32-1.79,0.66-2.7,1.01C540.8,1550.46,558.71,1563.74,579.98,1563.74z"/>
			<path fill="#779D61" d="M579.98,1561.06c6,0,11.71-1.12,16.9-3.16c1.2-0.47,2.37-1,3.52-1.56c0.3-1.1,0.47-2.22,0.52-3.35
				c-6.11,3.42-13.28,5.39-20.94,5.39c-18.82,0-34.64-11.87-39.2-27.97c-0.89,0.31-1.79,0.63-2.71,0.96
				C543.05,1548.47,559.92,1561.06,579.98,1561.06z"/>
			<path fill="#7FA564" d="M579.98,1558.38c7.66,0,14.83-1.97,20.94-5.39c0.01-0.24,0.03-0.47,0.03-0.71c0-0.76-0.14-1.52-0.38-2.26
				c-5.92,3.59-12.99,5.68-20.59,5.68c-17.57,0-32.33-11.14-36.47-26.21c-0.88,0.29-1.79,0.6-2.73,0.92
				C545.34,1546.5,561.16,1558.38,579.98,1558.38z"/>
			<path fill="#87AC66" d="M579.98,1555.7c7.6,0,14.68-2.09,20.59-5.68c-0.27-0.83-0.68-1.65-1.22-2.46
				c-5.53,3.45-12.2,5.46-19.37,5.46c-16.3,0-29.98-10.4-33.72-24.42c-0.87,0.28-1.79,0.57-2.75,0.89
				C547.65,1544.55,562.41,1555.7,579.98,1555.7z"/>
			<path fill="#8FB468" d="M579.98,1553.02c7.17,0,13.83-2.01,19.37-5.46c-0.49-0.73-1.08-1.44-1.75-2.14
				c-5.05,3.11-11.1,4.92-17.62,4.92c-15.02,0-27.61-9.63-30.96-22.59c-0.85,0.26-1.78,0.54-2.76,0.85
				C550,1542.62,563.67,1553.02,579.98,1553.02z"/>
			<path fill="#96BB6B" d="M579.98,1550.34c6.52,0,12.57-1.81,17.62-4.92c-0.63-0.66-1.33-1.3-2.1-1.94
				c-4.49,2.64-9.8,4.18-15.52,4.18c-13.73,0-25.22-8.85-28.2-20.72c-0.8,0.23-1.73,0.5-2.77,0.81
				C552.37,1540.7,564.95,1550.34,579.98,1550.34z"/>
			<path fill="#9EC26D" d="M579.98,1547.66c5.71,0,11.03-1.54,15.52-4.18c-0.74-0.61-1.54-1.21-2.38-1.79
				c-3.86,2.09-8.34,3.29-13.13,3.29c-12.42,0-22.8-8.04-25.41-18.8c-0.47,0.12-1.44,0.38-2.78,0.76
				C554.76,1538.81,566.25,1547.66,579.98,1547.66z"/>
			<path fill="#A5C96F" d="M579.98,1544.98c4.79,0,9.28-1.2,13.13-3.29c-0.84-0.58-1.73-1.15-2.66-1.71
				c-3.15,1.48-6.7,2.32-10.48,2.32c-10.5,0-19.37-6.47-22.21-15.34c-1.86-0.54-2.94-0.84-2.88-0.86c0.02-0.01-0.1,0.02-0.32,0.08
				C557.18,1536.94,567.56,1544.98,579.98,1544.98z"/>
			<path fill="#ADD071" d="M579.98,1542.3c3.77,0,7.33-0.84,10.48-2.32c-0.96-0.58-1.96-1.14-3-1.69c-2.32,0.85-4.83,1.33-7.48,1.33
				c-8.46,0-15.71-4.81-18.74-11.63c-1.33-0.41-2.5-0.75-3.46-1.03C560.61,1535.82,569.47,1542.3,579.98,1542.3z"/>
			<path fill="#B4D773" d="M579.98,1539.62c2.64,0,5.16-0.48,7.48-1.33c-1.15-0.61-2.33-1.2-3.54-1.78
				c-1.27,0.27-2.58,0.43-3.94,0.43c-6.28,0-11.76-3.09-14.81-7.71c-1.42-0.46-2.74-0.87-3.93-1.24
				C564.27,1534.81,571.51,1539.62,579.98,1539.62z"/>
			<path fill="#BBDE75" d="M579.98,1536.94c1.36,0,2.67-0.16,3.94-0.43c-1.7-0.81-3.44-1.58-5.19-2.31
				c-3.07-0.24-5.87-1.37-8.09-3.11c-1.92-0.68-3.77-1.31-5.48-1.86C568.22,1533.85,573.7,1536.94,579.98,1536.94z"/>
			<path fill="#C2E578" d="M570.64,1531.09c2.22,1.74,5.02,2.87,8.09,3.11C576,1533.06,573.25,1532.02,570.64,1531.09z"/>
		</g>
	</g>
</g>
<g>
	<path fill="#5F856A" d="M964.71,1574.07c14.16-0.46,27.64-0.42,39.74,0.05c11.2-1.16,24.19-2.03,38.12-2.49
		c43.39-1.4,79.36,1.82,80.34,7.19c0.96,5.26-31.89,10.62-73.92,12.18c-14.24,4.82-44.19,8.78-79.35,9.92
		c-50.07,1.63-91.75-3.07-93.12-10.48C875.17,1583.02,914.65,1575.69,964.71,1574.07z"/>
	<g>
		<g>
			<path fill="#476F53" d="M1097.76,1535.78c-9.94,21.6-36.67,37.82-69.28,40.91c7.32,1.26,15.3,1.97,23.66,1.97
				c35.49,0,64.25-12.52,64.25-27.96C1116.39,1545.23,1108.25,1540.11,1097.76,1535.78z"/>
			<path fill="#476F53" d="M1097.76,1535.78c-1.17-0.48-2.37-0.96-3.59-1.42c-10.23,23.02-40.44,39.75-76.23,40
				c3.32,0.91,6.84,1.69,10.53,2.32C1061.09,1573.6,1087.83,1557.39,1097.76,1535.78z"/>
			<path fill="#4F7755" d="M1094.18,1534.36c-1.2-0.45-2.42-0.9-3.65-1.33c-9.59,22.28-38.82,38.49-73.39,38.49
				c-2.97,0-5.89-0.13-8.77-0.36c2.95,1.2,6.16,2.27,9.59,3.21C1053.74,1574.12,1083.95,1557.38,1094.18,1534.36z"/>
			<path fill="#577F58" d="M1090.53,1533.03c-1.22-0.43-2.45-0.85-3.69-1.26c-8.89,21.32-36.72,36.88-69.7,36.88
				c-5.77,0-11.37-0.49-16.74-1.39c2.38,1.4,5.05,2.7,7.97,3.89c2.88,0.23,5.81,0.36,8.77,0.36
				C1051.71,1571.52,1080.94,1555.31,1090.53,1533.03z"/>
			<path fill="#5F865A" d="M1086.83,1531.78c-1.24-0.41-2.48-0.8-3.72-1.19c-8.23,20.33-34.64,35.21-65.98,35.21
				c-7.92,0-15.52-0.96-22.61-2.71c1.68,1.47,3.64,2.87,5.86,4.18c5.38,0.9,10.98,1.39,16.74,1.39
				C1050.11,1568.66,1077.94,1553.1,1086.83,1531.78z"/>
			<path fill="#678E5D" d="M1083.11,1530.59c-1.25-0.39-2.5-0.77-3.74-1.13c-7.59,19.31-32.57,33.48-62.23,33.48
				c-8.92,0-17.42-1.28-25.15-3.6c-0.43-0.13-0.85-0.27-1.27-0.41c1.02,1.44,2.3,2.82,3.81,4.15c7.08,1.75,14.68,2.71,22.61,2.71
				C1048.47,1565.8,1074.88,1550.92,1083.11,1530.59z"/>
			<path fill="#6F965F" d="M1017.13,1562.94c29.67,0,54.65-14.17,62.23-33.48c-1.27-0.37-2.53-0.73-3.77-1.08
				c-6.97,18.26-30.5,31.7-58.47,31.7c-8.36,0-16.33-1.2-23.58-3.37c-1.68-0.5-3.31-1.06-4.91-1.67c0.48,1.33,1.17,2.63,2.06,3.9
				c0.42,0.13,0.84,0.28,1.27,0.41C999.71,1561.66,1008.21,1562.94,1017.13,1562.94z"/>
			<path fill="#779D61" d="M1017.13,1560.08c27.97,0,51.5-13.44,58.47-31.7c-1.29-0.36-2.55-0.7-3.79-1.03
				c-6.37,17.18-28.43,29.86-54.68,29.86c-7.81,0-15.24-1.12-22.01-3.15c-2.5-0.75-4.91-1.62-7.21-2.61
				c0.07,1.21,0.31,2.41,0.73,3.58c1.6,0.6,3.23,1.16,4.91,1.67C1000.8,1558.87,1008.77,1560.08,1017.13,1560.08z"/>
			<path fill="#7FA564" d="M1017.13,1557.21c26.25,0,48.32-12.68,54.68-29.86c-1.31-0.35-2.58-0.68-3.81-0.99
				c-5.78,16.09-26.37,27.99-50.87,27.99c-10.61,0-20.47-2.24-28.73-6.07c-0.34,0.8-0.53,1.6-0.53,2.41c0,0.25,0.03,0.51,0.04,0.76
				c2.3,0.99,4.71,1.86,7.21,2.61C1001.89,1556.09,1009.33,1557.21,1017.13,1557.21z"/>
			<path fill="#87AC66" d="M1068.01,1526.36c-1.33-0.34-2.62-0.65-3.84-0.95c-5.22,14.97-24.3,26.08-47.04,26.08
				c-10,0-19.3-2.15-27.02-5.83c-0.75,0.86-1.33,1.74-1.71,2.62c8.26,3.83,18.12,6.07,28.73,6.07
				C1041.64,1554.35,1062.23,1542.45,1068.01,1526.36z"/>
			<path fill="#8FB468" d="M1064.17,1525.42c-1.37-0.33-2.66-0.63-3.85-0.91c-4.68,13.83-22.23,24.12-43.19,24.12
				c-9.09,0-17.54-1.94-24.58-5.26c-0.94,0.75-1.76,1.51-2.44,2.29c7.72,3.68,17.01,5.83,27.02,5.83
				C1039.88,1551.49,1058.95,1540.39,1064.17,1525.42z"/>
			<path fill="#96BB6B" d="M1060.32,1524.51c-1.45-0.33-2.75-0.62-3.86-0.86c-4.15,12.67-20.18,22.12-39.33,22.12
				c-7.97,0-15.39-1.64-21.64-4.46c-1.07,0.68-2.05,1.37-2.93,2.07c7.04,3.32,15.49,5.26,24.58,5.26
				C1038.09,1548.63,1055.65,1538.34,1060.32,1524.51z"/>
			<path fill="#9EC26D" d="M1056.46,1523.65c-1.88-0.41-3.23-0.68-3.88-0.81c-3.65,11.49-18.13,20.07-35.45,20.07
				c-6.68,0-12.94-1.28-18.32-3.51c-1.18,0.63-2.29,1.26-3.32,1.91c6.26,2.82,13.68,4.46,21.64,4.46
				C1036.29,1545.77,1052.31,1536.32,1056.46,1523.65z"/>
			<path fill="#A5C96F" d="M1052.58,1522.83c-0.31-0.06-0.47-0.09-0.45-0.08c0.07,0.02-1.43,0.34-4.03,0.91
				c-3.96,9.47-16.32,16.38-30.97,16.38c-5.26,0-10.22-0.9-14.61-2.48c-1.29,0.6-2.53,1.2-3.71,1.83
				c5.38,2.23,11.64,3.51,18.32,3.51C1034.45,1542.91,1048.93,1534.32,1052.58,1522.83z"/>
			<path fill="#ADD071" d="M1048.11,1523.67c-1.34,0.3-2.97,0.67-4.82,1.1c-4.23,7.29-14.34,12.42-26.15,12.42
				c-3.69,0-7.22-0.51-10.45-1.42c-1.44,0.59-2.83,1.19-4.17,1.8c4.39,1.58,9.35,2.48,14.61,2.48
				C1031.78,1540.05,1044.15,1533.14,1048.11,1523.67z"/>
			<path fill="#B4D773" d="M1043.28,1524.77c-1.65,0.39-3.49,0.83-5.45,1.31c-4.25,4.94-11.93,8.24-20.7,8.24
				c-1.9,0-3.75-0.16-5.52-0.45c-1.68,0.61-3.33,1.24-4.93,1.9c3.23,0.91,6.76,1.42,10.45,1.42
				C1028.94,1537.19,1039.06,1532.05,1043.28,1524.77z"/>
			<path fill="#BBDE75" d="M1037.84,1526.08c-2.39,0.6-4.98,1.26-7.67,2c-3.1,1.86-7.01,3.06-11.3,3.32
				c-2.45,0.78-4.88,1.61-7.25,2.47c1.77,0.29,3.62,0.45,5.52,0.45C1025.9,1534.32,1033.58,1531.02,1037.84,1526.08z"/>
			<path fill="#C2E578" d="M1018.87,1531.4c4.29-0.26,8.19-1.46,11.3-3.32C1026.52,1529.07,1022.68,1530.18,1018.87,1531.4z"/>
		</g>
		<g>
			<path fill="#476F53" d="M1034.7,1494.91c-7.54,28.69-37.57,51.15-75.4,56.16c8.14,1.24,16.9,1.92,26.04,1.92
				c42.65,0,77.22-14.71,77.22-32.84C1062.56,1510,1051.72,1500.93,1034.7,1494.91z"/>
			<path fill="#476F53" d="M1034.7,1494.91c-1.35-0.48-2.75-0.93-4.18-1.37c-7.59,30.51-41.83,53.79-83.49,55.12
				c3.89,0.95,7.99,1.76,12.26,2.41C997.13,1546.05,1027.15,1523.6,1034.7,1494.91z"/>
			<path fill="#4F7755" d="M1030.52,1493.54c-1.38-0.42-2.79-0.83-4.24-1.22c-7.13,30.14-41.56,53-82.99,53
				c-2.83,0-5.62-0.11-8.37-0.32c3.74,1.38,7.8,2.6,12.12,3.65C988.69,1547.33,1022.93,1524.05,1030.52,1493.54z"/>
			<path fill="#577F58" d="M1026.28,1492.32c-1.39-0.37-2.81-0.73-4.26-1.06c-6.51,28.77-39.27,50.67-78.73,50.67
				c-6.62,0-13.04-0.63-19.19-1.79c3.21,1.77,6.83,3.4,10.81,4.87c2.76,0.21,5.55,0.32,8.37,0.32
				C984.72,1545.32,1019.15,1522.46,1026.28,1492.32z"/>
			<path fill="#5F865A" d="M1022.02,1491.26c-1.4-0.32-2.84-0.62-4.3-0.91c-5.97,27.34-37.01,48.17-74.43,48.17
				c-9.61,0-18.79-1.39-27.25-3.9c2.26,1.95,4.97,3.8,8.06,5.51c6.15,1.16,12.57,1.79,19.19,1.79
				C982.75,1541.92,1015.51,1520.03,1022.02,1491.26z"/>
			<path fill="#678E5D" d="M1017.72,1490.35c-1.42-0.28-2.86-0.54-4.33-0.78c-5.5,25.84-34.79,45.56-70.1,45.56
				c-9.81,0-19.15-1.52-27.65-4.27c-1.52-0.49-3.01-1.04-4.48-1.61c1.26,1.87,2.9,3.67,4.89,5.39c8.45,2.51,17.64,3.9,27.25,3.9
				C980.7,1538.52,1011.74,1517.68,1017.72,1490.35z"/>
			<path fill="#6F965F" d="M943.29,1535.12c35.32,0,64.6-19.72,70.1-45.56c-1.43-0.24-2.88-0.46-4.36-0.66
				c-5.1,24.28-32.59,42.82-65.75,42.82c-9.2,0-17.96-1.43-25.93-4.01c-2.98-0.96-5.84-2.09-8.58-3.36c0.5,1.67,1.3,3.3,2.37,4.88
				c1.47,0.57,2.95,1.12,4.48,1.61C924.13,1533.6,933.48,1535.12,943.29,1535.12z"/>
			<path fill="#779D61" d="M943.29,1531.73c33.16,0,60.65-18.55,65.75-42.82c-1.44-0.2-2.9-0.38-4.38-0.55
				c-4.76,22.66-30.42,39.97-61.37,39.97c-8.58,0-16.76-1.33-24.2-3.74c-3.72-1.2-7.25-2.68-10.56-4.39
				c-0.13-0.07-0.26-0.14-0.39-0.21c0,0.05-0.01,0.1-0.01,0.16c0,1.43,0.24,2.84,0.66,4.22c2.74,1.27,5.6,2.4,8.58,3.36
				C925.33,1530.3,934.09,1531.73,943.29,1531.73z"/>
			<path fill="#7FA564" d="M919.09,1524.59c7.44,2.41,15.61,3.74,24.2,3.74c30.95,0,56.61-17.31,61.37-39.97
				c-1.45-0.16-2.93-0.3-4.41-0.42c-4.49,20.98-28.27,36.99-56.95,36.99c-12.96,0-24.93-3.27-34.57-8.79
				c-0.36,1.26-0.57,2.55-0.58,3.85c0.13,0.07,0.26,0.14,0.39,0.21C911.84,1521.91,915.37,1523.39,919.09,1524.59z"/>
			<path fill="#87AC66" d="M1000.24,1487.94c-1.46-0.12-2.95-0.22-4.44-0.31c-4.27,19.24-26.15,33.9-52.52,33.9
				c-12.53,0-24.03-3.32-33.13-8.85c-0.62,1.13-1.1,2.28-1.44,3.46c9.64,5.52,21.6,8.79,34.57,8.79
				C971.97,1524.93,995.75,1508.92,1000.24,1487.94z"/>
			<path fill="#8FB468" d="M995.8,1487.63c-1.47-0.08-2.96-0.15-4.46-0.2c-4.12,17.46-24.06,30.7-48.05,30.7
				c-11.8,0-22.62-3.2-31.06-8.53c-0.8,1.01-1.49,2.03-2.06,3.08c9.1,5.54,20.6,8.85,33.13,8.85
				C969.65,1521.53,991.53,1506.88,995.8,1487.63z"/>
			<path fill="#96BB6B" d="M991.34,1487.43c-1.49-0.05-2.98-0.08-4.49-0.09c-4.01,15.62-21.98,27.4-43.56,27.4
				c-10.85,0-20.78-2.98-28.5-7.93c-0.95,0.91-1.81,1.84-2.57,2.79c8.44,5.33,19.26,8.53,31.06,8.53
				C967.28,1518.13,987.22,1504.89,991.34,1487.43z"/>
			<path fill="#9EC26D" d="M986.85,1487.34c-0.51,0-1.01-0.02-1.52-0.02c-1.02,0-2.02,0.02-3.03,0.03
				c-3.95,13.72-19.91,23.98-39.02,23.98c-9.71,0-18.61-2.65-25.54-7.06c-1.07,0.82-2.05,1.67-2.96,2.53
				c7.71,4.94,17.65,7.93,28.5,7.93C964.87,1514.74,982.84,1502.95,986.85,1487.34z"/>
			<path fill="#A5C96F" d="M982.31,1487.35c-1.54,0.03-3.08,0.06-4.6,0.13c-3.91,11.76-17.84,20.46-34.42,20.46
				c-8.41,0-16.13-2.24-22.22-5.98c-1.18,0.75-2.28,1.53-3.32,2.32c6.93,4.41,15.83,7.06,25.54,7.06
				C962.39,1511.34,978.36,1501.07,982.31,1487.35z"/>
			<path fill="#ADD071" d="M977.71,1487.48c-1.58,0.07-3.15,0.15-4.71,0.26c-3.9,9.73-15.73,16.8-29.72,16.8
				c-6.96,0-13.39-1.75-18.57-4.71c-1.28,0.69-2.5,1.4-3.65,2.13c6.09,3.74,13.81,5.98,22.22,5.98
				C959.87,1507.94,973.8,1499.24,977.71,1487.48z"/>
			<path fill="#B4D773" d="M973,1487.74c-1.65,0.11-3.28,0.25-4.89,0.41c-3.87,7.6-13.52,12.99-24.83,12.99
				c-5.37,0-10.37-1.22-14.55-3.31c-1.4,0.64-2.74,1.31-4.02,2c5.18,2.96,11.61,4.71,18.57,4.71
				C957.27,1504.54,969.1,1497.47,973,1487.74z"/>
			<path fill="#BBDE75" d="M968.11,1488.15c-1.76,0.17-3.51,0.36-5.23,0.58c-3.73,5.36-11.11,9.01-19.6,9.01
				c-3.61,0-7.01-0.66-10.02-1.83c-1.57,0.61-3.08,1.25-4.53,1.92c4.18,2.09,9.18,3.31,14.55,3.31
				C954.59,1501.14,964.24,1495.75,968.11,1488.15z"/>
			<path fill="#C2E578" d="M962.89,1488.74c-2.11,0.27-4.18,0.59-6.21,0.93c-3.26,2.86-8.04,4.68-13.39,4.68
				c-1.51,0-2.96-0.16-4.36-0.43c-1.96,0.63-3.85,1.29-5.66,2c3.01,1.17,6.41,1.83,10.02,1.83
				C951.78,1497.74,959.15,1494.1,962.89,1488.74z"/>
			<path fill="#C9EC7A" d="M956.67,1489.67c-6.38,1.09-12.34,2.52-17.75,4.25c1.4,0.27,2.85,0.43,4.36,0.43
				C948.63,1494.35,953.42,1492.53,956.67,1489.67z"/>
		</g>
		<g>
			<path fill="#476F53" d="M1028.94,1539.44c-13.61,29.59-50.23,51.8-94.89,56.04c10.02,1.73,20.94,2.67,32.37,2.67
				c48.6,0,88-17.14,88-38.29C1054.42,1552.38,1043.29,1545.37,1028.94,1539.44z"/>
			<path fill="#476F53" d="M1028.94,1539.44c-1.61-0.66-3.25-1.31-4.92-1.95c-14.02,31.53-55.4,54.45-104.42,54.79
				c4.55,1.25,9.39,2.32,14.45,3.19C978.71,1591.25,1015.34,1569.03,1028.94,1539.44z"/>
			<path fill="#4F7755" d="M1024.02,1537.5c-1.64-0.62-3.31-1.23-5-1.82c-13.13,30.51-53.17,52.71-100.53,52.71
				c-4.08,0-8.1-0.18-12.06-0.5c4.05,1.64,8.46,3.12,13.17,4.41C968.62,1591.95,1010,1569.03,1024.02,1537.5z"/>
			<path fill="#577F58" d="M1019.02,1535.67c-1.67-0.59-3.36-1.16-5.05-1.72c-12.19,29.2-50.32,50.51-95.48,50.51
				c-7.91,0-15.59-0.67-22.96-1.91c3.25,1.92,6.9,3.7,10.9,5.32c3.96,0.32,7.98,0.5,12.06,0.5
				C965.85,1588.38,1005.89,1566.18,1019.02,1535.67z"/>
			<path fill="#5F865A" d="M1013.97,1533.96c-1.69-0.56-3.39-1.1-5.09-1.63c-11.27,27.84-47.47,48.21-90.39,48.21
				c-10.86,0-21.28-1.32-30.99-3.72c2.29,2.02,4.98,3.94,8.03,5.73c7.37,1.23,15.05,1.91,22.96,1.91
				C963.66,1584.46,1001.79,1563.16,1013.97,1533.96z"/>
			<path fill="#678E5D" d="M1008.88,1532.33c-1.72-0.53-3.43-1.05-5.13-1.55c-10.39,26.44-44.62,45.84-85.26,45.84
				c-12.22,0-23.86-1.75-34.45-4.93c-0.59-0.18-1.16-0.37-1.75-0.56c1.39,1.97,3.14,3.87,5.2,5.68c9.71,2.4,20.13,3.72,30.99,3.72
				C961.41,1580.54,997.61,1560.17,1008.88,1532.33z"/>
			<path fill="#6F965F" d="M918.5,1576.63c40.63,0,74.86-19.4,85.26-45.84c-1.74-0.51-3.47-1.01-5.18-1.48
				c-9.54,25-41.77,43.41-80.08,43.41c-11.46,0-22.37-1.64-32.29-4.62c-2.3-0.69-4.54-1.46-6.72-2.28c0.65,1.82,1.6,3.61,2.82,5.33
				c0.58,0.19,1.16,0.38,1.75,0.56C894.64,1574.87,906.28,1576.63,918.5,1576.63z"/>
			<path fill="#779D61" d="M918.5,1572.71c38.31,0,70.53-18.4,80.08-43.41c-1.76-0.49-3.49-0.96-5.18-1.41
				c-8.72,23.53-38.94,40.9-74.89,40.9c-10.69,0-20.88-1.54-30.14-4.31c-3.43-1.03-6.74-2.23-9.9-3.58c0.1,1.67,0.45,3.31,1.02,4.91
				c2.19,0.83,4.43,1.59,6.72,2.28C896.13,1571.06,907.04,1572.71,918.5,1572.71z"/>
			<path fill="#7FA564" d="M918.5,1568.79c35.95,0,66.17-17.36,74.89-40.9c-1.79-0.47-3.53-0.93-5.22-1.35
				c-7.92,22.03-36.11,38.33-69.68,38.33c-9.93,0-19.39-1.43-27.99-4c-3.98-1.19-7.77-2.65-11.35-4.31
				c-0.47,1.09-0.73,2.19-0.73,3.31c0,0.34,0.01,0.68,0.03,1.02c3.16,1.35,6.46,2.56,9.9,3.58
				C897.62,1567.25,907.8,1568.79,918.5,1568.79z"/>
			<path fill="#87AC66" d="M918.5,1564.87c33.56,0,61.75-16.3,69.68-38.33c-1.83-0.46-3.58-0.9-5.25-1.3
				c-7.15,20.5-33.28,35.71-64.42,35.71c-13.7,0-26.43-2.94-37-7.98c-1.03,1.18-1.82,2.38-2.34,3.59c3.58,1.66,7.37,3.11,11.35,4.31
				C899.11,1563.44,908.57,1564.87,918.5,1564.87z"/>
			<path fill="#8FB468" d="M982.92,1525.24c-1.88-0.45-3.64-0.87-5.27-1.24c-6.41,18.95-30.45,33.03-59.15,33.03
				c-12.45,0-24.02-2.65-33.66-7.2c-1.29,1.03-2.42,2.07-3.35,3.13c10.57,5.04,23.3,7.98,37,7.98
				C949.64,1560.95,975.77,1545.74,982.92,1525.24z"/>
			<path fill="#96BB6B" d="M977.65,1524c-1.99-0.46-3.76-0.85-5.29-1.18c-5.69,17.36-27.63,30.3-53.86,30.3
				c-10.91,0-21.07-2.25-29.64-6.11c-1.47,0.93-2.81,1.87-4.02,2.83c9.64,4.54,21.21,7.2,33.66,7.2
				C947.2,1557.03,971.24,1542.94,977.65,1524z"/>
			<path fill="#9EC26D" d="M972.36,1522.81c-2.57-0.56-4.42-0.94-5.31-1.11c-5,15.73-24.83,27.49-48.55,27.49
				c-9.15,0-17.72-1.76-25.09-4.81c-1.62,0.86-3.14,1.73-4.55,2.62c8.57,3.86,18.73,6.11,29.64,6.11
				C944.72,1553.11,966.67,1540.17,972.36,1522.81z"/>
			<path fill="#A5C96F" d="M967.04,1521.7c-0.43-0.08-0.65-0.13-0.62-0.12c0.1,0.03-1.96,0.46-5.51,1.25
				c-5.42,12.97-22.36,22.44-42.42,22.44c-7.2,0-14-1.23-20.01-3.39c-1.77,0.82-3.47,1.65-5.08,2.5c7.37,3.05,15.94,4.81,25.09,4.81
				C942.21,1549.19,962.04,1537.44,967.04,1521.7z"/>
			<path fill="#ADD071" d="M960.92,1522.84c-1.83,0.41-4.07,0.92-6.61,1.51c-5.79,9.98-19.64,17.01-35.81,17.01
				c-5.06,0-9.88-0.69-14.31-1.94c-1.97,0.8-3.88,1.63-5.71,2.47c6.01,2.16,12.81,3.39,20.01,3.39
				C938.56,1545.27,955.5,1535.81,960.92,1522.84z"/>
			<path fill="#B4D773" d="M954.31,1524.35c-2.27,0.53-4.78,1.13-7.46,1.8c-5.83,6.77-16.34,11.29-28.35,11.29
				c-2.6,0-5.13-0.22-7.56-0.62c-2.3,0.84-4.56,1.71-6.75,2.6c4.43,1.25,9.25,1.94,14.31,1.94
				C934.67,1541.36,948.52,1534.33,954.31,1524.35z"/>
			<path fill="#BBDE75" d="M946.85,1526.15c-3.27,0.81-6.81,1.73-10.49,2.73c-4.26,2.55-9.62,4.21-15.5,4.56
				c-3.34,1.07-6.67,2.19-9.91,3.37c2.43,0.4,4.96,0.62,7.56,0.62C930.5,1537.44,941.02,1532.92,946.85,1526.15z"/>
			<path fill="#C2E578" d="M920.85,1533.44c5.89-0.35,11.25-2.01,15.5-4.56C931.35,1530.24,926.09,1531.77,920.85,1533.44z"/>
		</g>
	</g>
</g>
<g>
	<path fill="#5F856A" d="M3088.25,1517.94c-3.61-0.27-7.06-0.24-10.15,0.03c-2.86-0.68-6.18-1.19-9.73-1.46
		c-11.08-0.82-20.26,1.06-20.52,4.21c-0.25,3.08,8.14,6.22,18.88,7.13c3.64,2.82,11.28,5.14,20.26,5.81
		c12.78,0.95,23.43-1.8,23.78-6.13C3111.12,1523.18,3101.04,1518.89,3088.25,1517.94z"/>
	<g>
		<g>
			<path fill="#476F53" d="M3054.28,1495.53c-2.68,2.53-4.76,5.53-4.76,8.73c0,9.04,7.34,16.37,16.41,16.37
				c2.13,0,4.16-0.42,6.02-1.15C3063.64,1517.65,3056.82,1508.17,3054.28,1495.53z"/>
			<path fill="#476F53" d="M3071.96,1519.47c0.94-0.37,1.84-0.83,2.68-1.36c-9.13-0.16-16.83-9.95-19.44-23.41
				c-0.31,0.27-0.62,0.55-0.92,0.83C3056.82,1508.17,3063.64,1517.65,3071.96,1519.47z"/>
			<path fill="#4F7755" d="M3074.64,1518.11c0.87-0.55,1.69-1.18,2.45-1.87c-0.73,0.13-1.46,0.21-2.21,0.21
				c-8.83,0-16.29-9.49-18.74-22.53c-0.31,0.25-0.62,0.52-0.93,0.78C3057.81,1508.16,3065.51,1517.95,3074.64,1518.11z"/>
			<path fill="#577F58" d="M3074.87,1516.45c0.75,0,1.49-0.07,2.21-0.21c0.75-0.69,1.43-1.45,2.03-2.27
				c-1.36,0.52-2.79,0.8-4.25,0.8c-8.42,0-15.53-9.11-17.8-21.59c-0.32,0.24-0.63,0.48-0.94,0.74
				C3058.58,1506.96,3066.04,1516.45,3074.87,1516.45z"/>
			<path fill="#5F865A" d="M3074.87,1514.77c1.46,0,2.88-0.28,4.25-0.8c0.57-0.77,1.07-1.59,1.5-2.45c-1.8,1.02-3.73,1.58-5.75,1.58
				c-8,0-14.74-8.71-16.85-20.61c-0.32,0.23-0.63,0.46-0.95,0.69C3059.34,1505.66,3066.45,1514.77,3074.87,1514.77z"/>
			<path fill="#678E5D" d="M3074.87,1513.1c2.01,0,3.95-0.56,5.75-1.58c0.39-0.78,0.73-1.59,1-2.44c-2.06,1.5-4.34,2.34-6.74,2.34
				c-7.57,0-13.95-8.3-15.89-19.6c-0.32,0.21-0.64,0.43-0.96,0.66C3060.12,1504.39,3066.87,1513.1,3074.87,1513.1z"/>
			<path fill="#6F965F" d="M3074.87,1511.42c2.4,0,4.69-0.84,6.74-2.34c0.23-0.73,0.38-1.49,0.51-2.26
				c-2.16,1.87-4.63,2.93-7.25,2.93c-7.14,0-13.15-7.87-14.93-18.55c-0.32,0.2-0.64,0.41-0.96,0.63
				C3060.92,1503.13,3067.29,1511.42,3074.87,1511.42z"/>
			<path fill="#779D61" d="M3074.87,1509.75c2.62,0,5.09-1.06,7.25-2.93c0.11-0.69,0.18-1.39,0.2-2.1
				c-2.17,2.13-4.72,3.36-7.45,3.36c-6.7,0-12.34-7.42-13.96-17.48c-0.32,0.19-0.64,0.39-0.97,0.6
				C3061.72,1501.88,3067.73,1509.75,3074.87,1509.75z"/>
			<path fill="#7FA564" d="M3074.87,1508.07c2.73,0,5.27-1.23,7.45-3.36c0-0.15,0.02-0.3,0.02-0.45c0-0.47-0.06-0.94-0.14-1.41
				c-2.11,2.24-4.62,3.55-7.33,3.55c-6.26,0-11.51-6.97-12.99-16.38c-0.31,0.18-0.64,0.37-0.97,0.58
				C3062.53,1500.65,3068.17,1508.07,3074.87,1508.07z"/>
			<path fill="#87AC66" d="M3074.87,1506.4c2.71,0,5.22-1.31,7.33-3.55c-0.1-0.52-0.24-1.03-0.44-1.54
				c-1.97,2.15-4.34,3.41-6.89,3.41c-5.81,0-10.67-6.51-12-15.27c-0.31,0.17-0.65,0.36-0.99,0.56
				C3063.36,1499.43,3068.61,1506.4,3074.87,1506.4z"/>
			<path fill="#8FB468" d="M3074.87,1504.72c2.55,0,4.92-1.26,6.89-3.41c-0.17-0.46-0.38-0.9-0.62-1.34
				c-1.8,1.94-3.95,3.08-6.27,3.08c-5.35,0-9.82-6.03-11.02-14.12c-0.3,0.16-0.63,0.33-0.98,0.53
				C3064.2,1498.22,3069.06,1504.72,3074.87,1504.72z"/>
			<path fill="#96BB6B" d="M3074.87,1503.05c2.32,0,4.47-1.14,6.27-3.08c-0.23-0.41-0.48-0.82-0.75-1.22
				c-1.6,1.65-3.49,2.62-5.52,2.62c-4.89,0-8.98-5.53-10.04-12.95c-0.28,0.14-0.61,0.31-0.98,0.5
				C3065.04,1497.02,3069.52,1503.05,3074.87,1503.05z"/>
			<path fill="#9EC26D" d="M3074.87,1501.37c2.03,0,3.92-0.97,5.52-2.62c-0.26-0.38-0.55-0.75-0.85-1.12
				c-1.37,1.3-2.96,2.06-4.67,2.06c-4.42,0-8.11-5.03-9.05-11.75c-0.16,0.07-0.5,0.23-0.99,0.47
				C3065.89,1495.84,3069.98,1501.37,3074.87,1501.37z"/>
			<path fill="#A5C96F" d="M3074.87,1499.7c1.7,0,3.3-0.76,4.67-2.06c-0.3-0.36-0.61-0.72-0.94-1.07c-1.12,0.92-2.38,1.46-3.73,1.46
				c-3.74,0-6.89-4.05-7.91-9.59c-0.66-0.34-1.05-0.53-1.03-0.54c0.01,0-0.04,0.02-0.11,0.05
				C3066.76,1494.67,3070.45,1499.7,3074.87,1499.7z"/>
			<path fill="#ADD071" d="M3074.87,1498.02c1.34,0,2.61-0.53,3.73-1.46c-0.34-0.36-0.7-0.71-1.06-1.05
				c-0.82,0.53-1.72,0.83-2.66,0.83c-3.01,0-5.59-3-6.67-7.27c-0.47-0.25-0.89-0.47-1.23-0.65
				C3067.98,1493.98,3071.13,1498.02,3074.87,1498.02z"/>
			<path fill="#B4D773" d="M3074.87,1496.35c0.94,0,1.84-0.3,2.66-0.83c-0.41-0.38-0.83-0.75-1.26-1.11
				c-0.45,0.17-0.92,0.27-1.4,0.27c-2.24,0-4.19-1.93-5.28-4.82c-0.51-0.29-0.97-0.55-1.4-0.77
				C3069.27,1493.34,3071.85,1496.35,3074.87,1496.35z"/>
			<path fill="#BBDE75" d="M3074.87,1494.67c0.48,0,0.95-0.1,1.4-0.27c-0.61-0.51-1.23-0.99-1.85-1.44
				c-1.09-0.15-2.09-0.86-2.88-1.94c-0.68-0.43-1.34-0.82-1.95-1.16C3070.68,1492.74,3072.63,1494.67,3074.87,1494.67z"/>
			<path fill="#C2E578" d="M3074.42,1492.96c-0.97-0.71-1.95-1.36-2.88-1.94C3072.34,1492.11,3073.33,1492.81,3074.42,1492.96z"/>
		</g>
		<g>
			<path fill="#476F53" d="M3070.39,1471.6c-4.35,3.52-7.11,8.83-7.11,14.77c0,10.61,8.83,19.22,19.72,19.22
				c2.33,0,4.56-0.42,6.63-1.14C3079.97,1501.51,3072.31,1488.38,3070.39,1471.6z"/>
			<path fill="#476F53" d="M3089.62,1504.46c1.09-0.38,2.14-0.85,3.14-1.4c-10.63-0.78-19.36-14.4-21.3-32.24
				c-0.36,0.26-0.73,0.51-1.07,0.79C3072.31,1488.38,3079.97,1501.51,3089.62,1504.46z"/>
			<path fill="#4F7755" d="M3092.76,1503.06c1.1-0.61,2.13-1.33,3.09-2.13c-0.7,0.12-1.4,0.18-2.12,0.18
				c-10.58,0-19.37-13.37-21.19-31.01c-0.37,0.23-0.73,0.46-1.08,0.71C3073.4,1488.66,3082.13,1502.27,3092.76,1503.06z"/>
			<path fill="#577F58" d="M3093.73,1501.11c0.72,0,1.42-0.06,2.12-0.18c1.01-0.85,1.93-1.8,2.75-2.84
				c-1.56,0.67-3.19,1.03-4.87,1.03c-10.08,0-18.44-12.81-20.1-29.66c-0.37,0.2-0.73,0.42-1.09,0.64
				C3074.36,1487.74,3083.15,1501.11,3093.73,1501.11z"/>
			<path fill="#5F865A" d="M3093.73,1499.12c1.68,0,3.31-0.36,4.87-1.03c0.79-1,1.48-2.07,2.06-3.21c-2.15,1.45-4.48,2.26-6.93,2.26
				c-9.55,0-17.47-12.19-19-28.18c-0.37,0.17-0.74,0.33-1.1,0.52C3075.29,1486.31,3083.65,1499.12,3093.73,1499.12z"/>
			<path fill="#678E5D" d="M3093.73,1497.13c2.44,0,4.78-0.8,6.93-2.26c0.51-1.01,0.94-2.06,1.27-3.16
				c-2.46,2.19-5.24,3.43-8.19,3.43c-9.01,0-16.49-11.54-17.9-26.66c-0.37,0.14-0.74,0.3-1.1,0.46
				C3076.25,1484.94,3084.17,1497.13,3093.73,1497.13z"/>
			<path fill="#6F965F" d="M3093.73,1495.14c2.95,0,5.73-1.24,8.19-3.43c0.27-0.92,0.47-1.88,0.6-2.85
				c-2.57,2.73-5.58,4.29-8.79,4.29c-8.47,0-15.48-10.85-16.79-25.06c-0.38,0.12-0.74,0.26-1.11,0.4
				C3077.24,1483.6,3084.71,1495.14,3093.73,1495.14z"/>
			<path fill="#779D61" d="M3093.73,1493.15c3.22,0,6.23-1.57,8.79-4.29c0.11-0.82,0.18-1.64,0.18-2.48c0-0.03,0-0.06,0-0.09
				c-2.55,3.08-5.64,4.88-8.97,4.88c-7.9,0-14.45-10.12-15.67-23.37c-0.38,0.09-0.75,0.19-1.12,0.3
				C3078.24,1482.3,3085.26,1493.15,3093.73,1493.15z"/>
			<path fill="#7FA564" d="M3093.73,1491.16c3.33,0,6.42-1.8,8.97-4.88c0-0.76-0.06-1.51-0.16-2.25c-2.46,3.23-5.51,5.14-8.82,5.14
				c-7.32,0-13.4-9.37-14.54-21.65c-0.38,0.07-0.75,0.17-1.12,0.26C3079.28,1481.04,3085.83,1491.16,3093.73,1491.16z"/>
			<path fill="#87AC66" d="M3093.73,1489.17c3.31,0,6.36-1.91,8.82-5.14c-0.09-0.69-0.21-1.36-0.37-2.02
				c-2.32,3.23-5.26,5.17-8.45,5.17c-6.73,0-12.31-8.57-13.41-19.83c-0.38,0.05-0.76,0.1-1.13,0.17
				C3080.33,1479.8,3086.4,1489.17,3093.73,1489.17z"/>
			<path fill="#8FB468" d="M3093.73,1487.19c3.19,0,6.13-1.94,8.45-5.17c-0.15-0.61-0.32-1.21-0.53-1.8
				c-2.15,3.11-4.91,4.98-7.92,4.98c-6.12,0-11.21-7.75-12.27-17.96c-0.38,0.03-0.76,0.07-1.14,0.12
				C3081.41,1478.61,3087,1487.19,3093.73,1487.19z"/>
			<path fill="#96BB6B" d="M3093.73,1485.2c3.01,0,5.77-1.87,7.92-4.98c-0.19-0.56-0.41-1.11-0.65-1.64
				c-1.97,2.89-4.5,4.63-7.27,4.63c-5.51,0-10.09-6.89-11.12-16.03c-0.39,0.01-0.77,0.03-1.15,0.06
				C3082.51,1477.45,3087.6,1485.2,3093.73,1485.2z"/>
			<path fill="#9EC26D" d="M3093.73,1483.21c2.77,0,5.3-1.74,7.27-4.63c-0.23-0.51-0.48-1-0.75-1.49c-1.77,2.58-4.04,4.13-6.52,4.13
				c-4.87,0-8.94-6-9.96-14.02c-0.26-0.01-0.52-0.04-0.78-0.04c-0.13,0-0.25,0.02-0.38,0.02
				C3083.63,1476.31,3088.22,1483.21,3093.73,1483.21z"/>
			<path fill="#A5C96F" d="M3093.73,1481.22c2.48,0,4.75-1.55,6.52-4.13c-0.26-0.47-0.55-0.92-0.85-1.36
				c-1.55,2.19-3.52,3.5-5.67,3.5c-4.23,0-7.78-5.09-8.78-11.97c-0.39-0.04-0.78-0.04-1.18-0.06
				C3084.78,1475.22,3088.85,1481.22,3093.73,1481.22z"/>
			<path fill="#ADD071" d="M3093.73,1479.23c2.15,0,4.12-1.32,5.67-3.5c-0.29-0.43-0.61-0.84-0.94-1.25
				c-1.32,1.73-2.95,2.76-4.73,2.76c-3.57,0-6.58-4.13-7.58-9.81c-0.4-0.06-0.79-0.13-1.19-0.17
				C3085.95,1474.14,3089.49,1479.23,3093.73,1479.23z"/>
			<path fill="#B4D773" d="M3093.73,1477.24c1.77,0,3.41-1.03,4.73-2.76c-0.33-0.4-0.67-0.78-1.03-1.16
				c-1.07,1.22-2.33,1.93-3.7,1.93c-2.88,0-5.34-3.15-6.33-7.59c-0.41-0.09-0.83-0.16-1.25-0.23
				C3087.14,1473.11,3090.16,1477.24,3093.73,1477.24z"/>
			<path fill="#BBDE75" d="M3093.73,1475.25c1.37,0,2.64-0.71,3.7-1.93c-0.37-0.39-0.76-0.76-1.16-1.12
				c-0.76,0.67-1.62,1.06-2.54,1.06c-2.17,0-4.05-2.13-5-5.27c-0.44-0.13-0.88-0.23-1.33-0.33
				C3088.39,1472.1,3090.84,1475.25,3093.73,1475.25z"/>
			<path fill="#C2E578" d="M3093.73,1473.26c0.91,0,1.77-0.39,2.54-1.06c-0.46-0.41-0.94-0.8-1.45-1.17
				c-0.35,0.15-0.71,0.24-1.09,0.24c-1.36,0-2.58-1.06-3.41-2.73c-0.52-0.2-1.05-0.39-1.59-0.55
				C3089.68,1471.13,3091.56,1473.26,3093.73,1473.26z"/>
			<path fill="#C9EC7A" d="M3093.73,1471.27c0.38,0,0.74-0.09,1.09-0.24c-1.38-1.01-2.88-1.85-4.5-2.48
				C3091.15,1470.21,3092.36,1471.27,3093.73,1471.27z"/>
		</g>
		<g>
			<path fill="#476F53" d="M3071.86,1497.67c-3.66,3.47-6.51,7.57-6.51,11.96c0,12.38,10.06,22.41,22.47,22.41
				c2.92,0,5.71-0.56,8.27-1.58C3084.69,1527.99,3075.34,1514.99,3071.86,1497.67z"/>
			<path fill="#476F53" d="M3096.09,1530.46c1.29-0.51,2.52-1.14,3.68-1.86c-12.51-0.2-23.08-13.61-26.66-32.07
				c-0.43,0.37-0.84,0.75-1.25,1.14C3075.34,1514.99,3084.69,1527.99,3096.09,1530.46z"/>
			<path fill="#4F7755" d="M3099.77,1528.6c1.2-0.75,2.32-1.62,3.35-2.58c-1.01,0.19-2.03,0.29-3.07,0.29
				c-12.09,0-22.31-12.99-25.67-30.85c-0.43,0.35-0.86,0.71-1.28,1.07C3076.69,1514.99,3087.26,1528.4,3099.77,1528.6z"/>
			<path fill="#577F58" d="M3100.06,1526.32c1.04,0,2.06-0.11,3.07-0.29c1.02-0.95,1.96-1.99,2.79-3.12
				c-1.88,0.72-3.84,1.11-5.86,1.11c-11.53,0-21.26-12.48-24.38-29.57c-0.43,0.33-0.86,0.66-1.29,1.01
				C3077.74,1513.32,3087.96,1526.32,3100.06,1526.32z"/>
			<path fill="#5F865A" d="M3100.06,1524.02c2.02,0,3.98-0.39,5.86-1.11c0.78-1.05,1.46-2.17,2.05-3.35
				c-2.48,1.4-5.14,2.18-7.91,2.18c-10.96,0-20.19-11.93-23.07-28.22c-0.43,0.31-0.87,0.62-1.3,0.95
				C3078.79,1511.55,3088.52,1524.02,3100.06,1524.02z"/>
			<path fill="#678E5D" d="M3100.06,1521.73c2.77,0,5.43-0.77,7.91-2.18c0.53-1.07,0.98-2.18,1.33-3.33
				c-2.82,2.06-5.95,3.21-9.24,3.21c-10.37,0-19.11-11.36-21.76-26.84c-0.43,0.29-0.87,0.59-1.31,0.91
				C3079.86,1509.8,3089.1,1521.73,3100.06,1521.73z"/>
			<path fill="#6F965F" d="M3100.06,1519.44c3.29,0,6.42-1.15,9.24-3.21c0.31-1.01,0.55-2.05,0.72-3.12
				c-2.97,2.58-6.36,4.04-9.96,4.04c-9.78,0-18.01-10.77-20.45-25.41c-0.43,0.28-0.87,0.57-1.32,0.87
				C3080.95,1508.08,3089.68,1519.44,3100.06,1519.44z"/>
			<path fill="#779D61" d="M3100.06,1517.14c3.6,0,6.99-1.46,9.96-4.04c0.15-0.94,0.23-1.9,0.25-2.87
				c-2.98,2.93-6.48,4.62-10.22,4.62c-9.18,0-16.9-10.16-19.12-23.94c-0.43,0.26-0.87,0.54-1.32,0.83
				C3082.05,1506.37,3090.27,1517.14,3100.06,1517.14z"/>
			<path fill="#7FA564" d="M3100.06,1514.85c3.74,0,7.23-1.69,10.22-4.62c0.01-0.2,0.02-0.4,0.02-0.6c0-0.65-0.08-1.29-0.19-1.93
				c-2.89,3.07-6.33,4.86-10.04,4.86c-8.57,0-15.77-9.54-17.79-22.44c-0.43,0.25-0.87,0.51-1.33,0.79
				C3083.16,1504.68,3090.88,1514.85,3100.06,1514.85z"/>
			<path fill="#87AC66" d="M3100.06,1512.55c3.71,0,7.15-1.79,10.04-4.86c-0.13-0.71-0.33-1.41-0.6-2.1
				c-2.7,2.94-5.94,4.66-9.44,4.66c-7.95,0-14.62-8.9-16.45-20.9c-0.42,0.23-0.88,0.49-1.34,0.76
				C3084.29,1503.02,3091.49,1512.55,3100.06,1512.55z"/>
			<path fill="#8FB468" d="M3100.06,1510.26c3.49,0,6.74-1.72,9.44-4.66c-0.24-0.62-0.52-1.24-0.85-1.84
				c-2.46,2.66-5.41,4.21-8.59,4.21c-7.33,0-13.47-8.25-15.1-19.34c-0.42,0.22-0.86,0.46-1.35,0.73
				C3085.43,1501.36,3092.1,1510.26,3100.06,1510.26z"/>
			<path fill="#96BB6B" d="M3100.06,1507.97c3.18,0,6.13-1.55,8.59-4.21c-0.31-0.56-0.65-1.12-1.02-1.66
				c-2.19,2.26-4.78,3.57-7.57,3.57c-6.7,0-12.3-7.57-13.75-17.73c-0.39,0.19-0.84,0.43-1.35,0.69
				C3086.59,1499.72,3092.73,1507.97,3100.06,1507.97z"/>
			<path fill="#9EC26D" d="M3100.06,1505.67c2.78,0,5.38-1.31,7.57-3.57c-0.36-0.52-0.76-1.04-1.17-1.54
				c-1.88,1.78-4.06,2.82-6.39,2.82c-6.06,0-11.11-6.88-12.39-16.09c-0.22,0.1-0.69,0.32-1.36,0.65
				C3087.75,1498.1,3093.36,1505.67,3100.06,1505.67z"/>
			<path fill="#A5C96F" d="M3100.06,1503.38c2.33,0,4.51-1.04,6.39-2.82c-0.41-0.5-0.84-0.99-1.29-1.46
				c-1.53,1.26-3.26,1.99-5.1,1.99c-5.12,0-9.44-5.54-10.83-13.13c-0.91-0.47-1.44-0.72-1.41-0.74c0.01-0.01-0.05,0.02-0.15,0.07
				C3088.94,1496.49,3094,1503.38,3100.06,1503.38z"/>
			<path fill="#ADD071" d="M3100.06,1501.08c1.84,0,3.57-0.73,5.1-1.99c-0.47-0.49-0.96-0.97-1.46-1.44
				c-1.13,0.73-2.35,1.14-3.64,1.14c-4.13,0-7.66-4.11-9.14-9.95c-0.64-0.35-1.22-0.65-1.69-0.88
				C3090.61,1495.54,3094.93,1501.08,3100.06,1501.08z"/>
			<path fill="#B4D773" d="M3100.06,1498.79c1.29,0,2.51-0.41,3.64-1.14c-0.56-0.52-1.13-1.03-1.72-1.52
				c-0.62,0.23-1.26,0.37-1.92,0.37c-3.06,0-5.74-2.65-7.22-6.6c-0.69-0.4-1.33-0.75-1.92-1.06
				C3092.39,1494.68,3095.93,1498.79,3100.06,1498.79z"/>
			<path fill="#BBDE75" d="M3100.06,1496.5c0.66,0,1.3-0.14,1.92-0.37c-0.83-0.69-1.68-1.35-2.54-1.98
				c-1.49-0.21-2.85-1.17-3.94-2.66c-0.94-0.59-1.84-1.12-2.67-1.6C3094.32,1493.85,3096.99,1496.5,3100.06,1496.5z"/>
			<path fill="#C2E578" d="M3099.44,1494.15c-1.33-0.97-2.67-1.86-3.94-2.66C3096.59,1492.98,3097.95,1493.94,3099.44,1494.15z"/>
		</g>
	</g>
</g>
<g>
	<rect x="44.42" y="1169.37" fill="#5F6062" width="9" height="18.88"/>
</g>
<g>
	<rect x="44.42" y="716.32" fill="#5F6062" width="9" height="18.87"/>
</g>
<polygon fill="#6C6F71" points="2467.22,1582.45 2434.92,1575.34 2434.92,1396.54 2467.22,1396.54 "/>
<polygon fill="#545759" points="2467.22,1448.66 2434.92,1419.83 2434.92,1396.54 2467.22,1396.54 "/>
<polygon fill="#B8BABC" points="2467.22,1582.45 2496.64,1575.34 2496.64,1396.54 2467.22,1396.54 "/>
<polygon fill="#656769" points="2466.21,1447.66 2496.64,1480.58 2496.64,1396.54 2466.21,1395.53 "/>
<rect x="1768.65" y="503.38" width="1391.94" height="899.64"/>
<rect x="3176.22" y="503.38" width="386.39" height="899.64"/>
<g>
	<path fill="#FFFFFF" d="M1939.7,1362.61c-1.04-4.86-5.1-5.75-7.76-5.75c-5.02,0-9.07,3.71-9.07,11c0,6.52,2.32,11.54,9.19,11.54
		c2.43,0,6.64-1.16,7.91-7.6h3.63c-1.54,10.46-10.04,10.92-12.12,10.92c-6.29,0-12.47-4.09-12.47-14.75
		c0-8.53,4.86-14.44,12.93-14.44c7.14,0,10.85,4.44,11.39,9.07H1939.7z"/>
	<path fill="#FFFFFF" d="M1955.91,1361.22c6.45,0,9.38,5.44,9.38,10.66s-2.93,10.65-9.38,10.65c-6.45,0-9.38-5.44-9.38-10.65
		S1949.47,1361.22,1955.91,1361.22z M1955.91,1379.59c4.86,0,5.87-5.02,5.87-7.72s-1-7.72-5.87-7.72s-5.87,5.02-5.87,7.72
		S1951.05,1379.59,1955.91,1379.59z"/>
	<path fill="#FFFFFF" d="M1972.63,1381.99h-3.4v-27.72h3.4V1381.99z"/>
	<path fill="#FFFFFF" d="M1999.81,1381.99h-3.63v-19.26h-6.33v-2.7c4.4-0.31,6.21-0.73,7.3-5.17h2.66V1381.99z"/>
</g>
<g>
	<path fill="#FFFFFF" d="M2269.41,1362.61c-1.04-4.86-5.1-5.75-7.76-5.75c-5.02,0-9.07,3.71-9.07,11c0,6.52,2.32,11.54,9.19,11.54
		c2.43,0,6.64-1.16,7.91-7.6h3.63c-1.54,10.46-10.04,10.92-12.12,10.92c-6.29,0-12.47-4.09-12.47-14.75
		c0-8.53,4.86-14.44,12.93-14.44c7.14,0,10.85,4.44,11.39,9.07H2269.41z"/>
	<path fill="#FFFFFF" d="M2285.62,1361.22c6.45,0,9.38,5.44,9.38,10.66s-2.93,10.65-9.38,10.65c-6.45,0-9.38-5.44-9.38-10.65
		S2279.18,1361.22,2285.62,1361.22z M2285.62,1379.59c4.86,0,5.87-5.02,5.87-7.72s-1-7.72-5.87-7.72s-5.87,5.02-5.87,7.72
		S2280.76,1379.59,2285.62,1379.59z"/>
	<path fill="#FFFFFF" d="M2302.34,1381.99h-3.4v-27.72h3.4V1381.99z"/>
	<path fill="#FFFFFF" d="M2317.35,1364.58c0-8.84,6.45-9.73,9.38-9.73c4.71,0,8.49,3.05,8.49,8.11c0,4.86-3.2,6.91-7.26,9.07
		l-2.82,1.54c-3.71,2.05-4.52,4.17-4.67,5.21h14.75v3.2h-18.57c0.19-5.64,2.74-8.65,6.37-10.77l3.59-2.08
		c2.9-1.66,4.98-2.78,4.98-6.33c0-2.16-1.39-4.9-5.37-4.9c-5.13,0-5.37,4.79-5.48,6.68H2317.35z"/>
</g>
<g>
	<path fill="#FFFFFF" d="M2619.89,1362.61c-1.04-4.86-5.1-5.75-7.76-5.75c-5.02,0-9.07,3.71-9.07,11c0,6.52,2.32,11.54,9.19,11.54
		c2.43,0,6.64-1.16,7.91-7.6h3.63c-1.54,10.46-10.04,10.92-12.12,10.92c-6.29,0-12.47-4.09-12.47-14.75
		c0-8.53,4.86-14.44,12.93-14.44c7.14,0,10.85,4.44,11.39,9.07H2619.89z"/>
	<path fill="#FFFFFF" d="M2636.1,1361.22c6.45,0,9.38,5.44,9.38,10.66s-2.93,10.65-9.38,10.65c-6.45,0-9.38-5.44-9.38-10.65
		S2629.65,1361.22,2636.1,1361.22z M2636.1,1379.59c4.86,0,5.87-5.02,5.87-7.72s-1-7.72-5.87-7.72s-5.87,5.02-5.87,7.72
		S2631.24,1379.59,2636.1,1379.59z"/>
	<path fill="#FFFFFF" d="M2652.81,1381.99h-3.4v-27.72h3.4V1381.99z"/>
	<path fill="#FFFFFF" d="M2674.78,1366.54c0.58,0.04,1.2,0.08,1.78,0.08c2.63,0,5.17-1.04,5.17-4.44c0-1.62-0.97-4.28-5.02-4.28
		c-4.83,0-5.13,3.94-5.29,5.83h-3.32c0-3.98,1.62-8.88,8.76-8.88c5.25,0,8.38,3.01,8.38,7.14c0,3.47-2.01,5.13-3.47,5.6v0.08
		c2.62,0.85,4.52,2.7,4.52,6.33c0,4.44-2.86,8.72-9.77,8.72c-2.01,0-3.71-0.5-5.02-1.2c-3.01-1.58-3.82-4.71-4.05-7.84h3.51
		c0.12,2.55,0.73,5.98,5.79,5.98c3.47,0,5.91-2.12,5.91-5.25c0-4.56-4.01-4.98-6.33-4.98c-0.5,0-1.04,0.04-1.54,0.04V1366.54z"/>
</g>
<g>
	<path fill="#FFFFFF" d="M2959.9,1362.61c-1.04-4.86-5.1-5.75-7.76-5.75c-5.02,0-9.07,3.71-9.07,11c0,6.52,2.32,11.54,9.19,11.54
		c2.43,0,6.64-1.16,7.91-7.6h3.63c-1.54,10.46-10.04,10.92-12.12,10.92c-6.29,0-12.47-4.09-12.47-14.75
		c0-8.53,4.86-14.44,12.93-14.44c7.14,0,10.85,4.44,11.39,9.07H2959.9z"/>
	<path fill="#FFFFFF" d="M2976.12,1361.22c6.45,0,9.38,5.44,9.38,10.66s-2.93,10.65-9.38,10.65c-6.45,0-9.38-5.44-9.38-10.65
		S2969.67,1361.22,2976.12,1361.22z M2976.12,1379.59c4.86,0,5.87-5.02,5.87-7.72s-1-7.72-5.87-7.72s-5.87,5.02-5.87,7.72
		S2971.25,1379.59,2976.12,1379.59z"/>
	<path fill="#FFFFFF" d="M2992.83,1381.99h-3.4v-27.72h3.4V1381.99z"/>
	<path fill="#FFFFFF" d="M3022.36,1375.39v6.6h-3.4v-6.6h-11.85v-3.32l12.43-17.22h2.82v17.6h3.98v2.93H3022.36z M3010.24,1372.45
		h8.72v-12.32h-0.08L3010.24,1372.45z"/>
</g>
<g>
	<path fill="#FFFFFF" d="M3361.93,1362.61c-1.04-4.86-5.1-5.75-7.76-5.75c-5.02,0-9.07,3.71-9.07,11c0,6.52,2.32,11.54,9.19,11.54
		c2.43,0,6.64-1.16,7.91-7.6h3.63c-1.54,10.46-10.04,10.92-12.12,10.92c-6.29,0-12.47-4.09-12.47-14.75
		c0-8.53,4.86-14.44,12.93-14.44c7.14,0,10.85,4.44,11.39,9.07H3361.93z"/>
	<path fill="#FFFFFF" d="M3378.14,1361.22c6.45,0,9.38,5.44,9.38,10.66s-2.93,10.65-9.38,10.65c-6.45,0-9.38-5.44-9.38-10.65
		S3371.69,1361.22,3378.14,1361.22z M3378.14,1379.59c4.86,0,5.87-5.02,5.87-7.72s-1-7.72-5.87-7.72s-5.87,5.02-5.87,7.72
		S3373.27,1379.59,3378.14,1379.59z"/>
	<path fill="#FFFFFF" d="M3394.85,1381.99h-3.4v-27.72h3.4V1381.99z"/>
	<path fill="#FFFFFF" d="M3424.39,1375.39v6.6h-3.4v-6.6h-11.85v-3.32l12.43-17.22h2.82v17.6h3.98v2.93H3424.39z M3412.26,1372.45
		h8.72v-12.32h-0.08L3412.26,1372.45z"/>
</g>
<rect x="1804.19" y="552.14" fill="#8E8482" width="303.4" height="252.53"/>
<rect x="1804.19" y="819.48" fill="#8E8482" width="303.4" height="252.53"/>
<rect x="1804.19" y="1086.83" fill="#8E8482" width="303.4" height="252.53"/>
<rect x="2142.4" y="552.14" fill="#8E8482" width="303.4" height="252.53"/>
<rect x="2480.61" y="552.14" fill="#8E8482" width="303.4" height="252.53"/>
<rect x="2480.61" y="819.48" fill="#8E8482" width="303.4" height="252.53"/>
<rect x="2480.61" y="1086.83" fill="#8E8482" width="303.4" height="252.53"/>
<rect x="2818.82" y="552.14" fill="#8E8482" width="303.4" height="252.53"/>
<rect x="2818.82" y="819.48" fill="#8E8482" width="303.4" height="252.53"/>
<rect x="2818.82" y="1086.83" fill="#8E8482" width="303.4" height="252.53"/>
<rect x="3374.46" y="1100.98" fill="#8E8482" width="146.66" height="238.38"/>
<g>
	<rect x="3217.37" y="1284.8" fill="#8E8482" width="146.66" height="54.56"/>
	<rect x="3217.37" y="1223.53" fill="#8E8482" width="146.66" height="54.56"/>
	<rect x="3217.37" y="1162.25" fill="#8E8482" width="146.66" height="54.56"/>
	<rect x="3217.37" y="1100.98" fill="#8E8482" width="146.66" height="54.56"/>
</g>
<rect x="3217.72" y="550.44" fill="#8E8482" width="303.4" height="369.72"/>
<rect x="3217.72" y="924.26" fill="#8E8482" width="303.4" height="92.61"/>
<rect x="3217.72" y="1020.97" fill="#8E8482" width="303.4" height="75.87"/>
<g>
	<polygon fill="#6D6F71" points="653.7,1559.17 633.03,1582.06 849.55,1582.06 818.41,1559.17 	"/>
</g>
<polygon fill="#414042" points="676.33,1564.44 669.65,1574.52 662.97,1564.44 662.97,1335.79 676.33,1335.79 "/>
<polygon fill="#8E9092" points="676.33,1564.44 669.65,1574.52 669.65,1335.79 676.33,1335.79 "/>
<polygon fill="#414042" points="809.79,1564.44 803.11,1574.52 796.43,1564.44 796.43,1335.79 809.79,1335.79 "/>
<polygon fill="#8E9092" points="809.79,1564.44 803.11,1574.52 803.11,1335.79 809.79,1335.79 "/>
<path fill="none" d="M652.95,1067.37c-0.89,0-1.63,0.73-1.63,1.63v461.48c0,0.89,0.73,1.62,1.63,1.62h166.8
	c0.89,0,1.62-0.73,1.62-1.62v-461.48c0-0.89-0.73-1.63-1.62-1.63H652.95z"/>
<g>
	<linearGradient id="SVGID_4_" gradientUnits="userSpaceOnUse" x1="736.3514" y1="1495.246" x2="736.3514" y2="960.347">
		<stop  offset="0" style="stop-color:#717375"/>
		<stop  offset="0.0337" style="stop-color:#717375"/>
		<stop  offset="0.2403" style="stop-color:#8A8C8E"/>
		<stop  offset="0.6777" style="stop-color:#CBCCCD"/>
		<stop  offset="1" style="stop-color:#FFFFFF"/>
	</linearGradient>
	<path fill="url(#SVGID_4_)" stroke="#231F20" d="M821.38,1530.47c0,0.89-0.73,1.62-1.63,1.62h-166.8c-0.89,0-1.62-0.73-1.62-1.62
		v-461.48c0-0.89,0.73-1.63,1.62-1.63h166.8c0.89,0,1.63,0.73,1.63,1.63V1530.47z"/>
</g>
<rect x="660.89" y="1076.89" fill="#FFFFFF" width="150.93" height="445.68"/>
<polygon fill="#414042" points="1369.5,1732.19 1369.5,1738.87 1369.5,1745.55 1275.21,1745.55 1275.21,1732.19 "/>
<rect x="1275.21" y="1732.19" fill="#AFB1B4" width="94.3" height="6.68"/>
<g>
	<polygon fill="#414042" points="1284.26,1809.28 1277.58,1819.36 1270.9,1809.28 1270.9,1580.62 1284.26,1580.62 	"/>
	<polygon fill="#8E9092" points="1284.26,1809.28 1277.58,1819.36 1277.58,1580.62 1284.26,1580.62 	"/>
	<polygon fill="#414042" points="1376.18,1809.28 1369.5,1819.36 1362.82,1809.28 1362.82,1580.62 1376.18,1580.62 	"/>
	<polygon fill="#8E9092" points="1376.18,1809.28 1369.5,1819.36 1369.5,1580.62 1376.18,1580.62 	"/>
	
		<rect x="1192.49" y="1496" fill="#FFFFFF" stroke="#231F20" stroke-width="3" stroke-miterlimit="10" width="262.1" height="194.38"/>
</g>
<rect x="2207.01" y="997.09" fill="#8E8482" width="174.18" height="134.71"/>
<polygon fill="#DFDFDF" points="33.53,434.51 25.56,455.35 25.56,455.35 317.8,455.35 338.1,434.51 "/>
<g>
	<path fill="#58595B" d="M649.28,1057.58h-2.62v-19.38h2.62V1057.58z"/>
	<path fill="#58595B" d="M664.96,1057.58h-2.38v-8.69c0-2.46-0.7-3.7-3.02-3.7c-1.35,0-3.73,0.86-3.73,4.7v7.69h-2.38v-14.12h2.24v2
		h0.05c0.51-0.76,1.84-2.4,4.27-2.4c2.19,0,4.94,0.89,4.94,4.91V1057.58z"/>
	<path fill="#58595B" d="M674.52,1051.32h-6.61v-2.43h6.61V1051.32z"/>
	<path fill="#58595B" d="M686.21,1047.21h8.5v10.37h-1.7l-0.62-2.51c-1.32,1.84-3.75,3.02-6.4,3.02c-3.32,0-4.94-1.21-5.94-2.19
		c-2.97-2.81-3.05-6.13-3.05-8.18c0-4.72,2.86-10.04,9.18-10.04c3.62,0,7.64,2.05,8.21,6.4h-2.54c-0.84-3.37-3.67-4.08-5.8-4.08
		c-3.48,0-6.34,2.78-6.34,7.85c0,3.94,1.3,7.99,6.45,7.99c0.97,0,2.54-0.11,3.97-1.24c1.7-1.35,2.13-3.08,2.13-5.16h-6.05V1047.21z"
		/>
	<path fill="#58595B" d="M701.17,1057.58h-2.38v-14.12h2.24v2.35h0.05c0.94-1.65,2.19-2.75,3.97-2.75c0.3,0,0.43,0.03,0.62,0.08
		v2.46h-0.89c-2.21,0-3.62,1.73-3.62,3.78V1057.58z"/>
	<path fill="#58595B" d="M713.21,1043.06c4.51,0,6.56,3.81,6.56,7.45c0,3.64-2.05,7.45-6.56,7.45s-6.56-3.81-6.56-7.45
		C706.65,1046.86,708.7,1043.06,713.21,1043.06z M713.21,1055.9c3.4,0,4.1-3.51,4.1-5.4s-0.7-5.4-4.1-5.4c-3.4,0-4.1,3.51-4.1,5.4
		S709.81,1055.9,713.21,1055.9z"/>
	<path fill="#58595B" d="M731.68,1057.58v-2.05l-0.05-0.05c-1,1.65-2.21,2.51-4.48,2.51c-2.08,0-4.59-1-4.59-4.37v-10.15h2.38v9.37
		c0,2.32,1.19,3.1,2.73,3.1c3,0,3.89-2.65,3.89-4.7v-7.77h2.38v14.12H731.68z"/>
	<path fill="#58595B" d="M748.98,1057.58h-2.38v-8.69c0-2.46-0.7-3.7-3.02-3.7c-1.35,0-3.73,0.86-3.73,4.7v7.69h-2.38v-14.12h2.24v2
		h0.05c0.51-0.76,1.84-2.4,4.27-2.4c2.19,0,4.94,0.89,4.94,4.91V1057.58z"/>
	<path fill="#58595B" d="M764.21,1057.58h-2.24v-1.94h-0.05c-1.03,1.92-2.65,2.35-4.02,2.35c-4.81,0-6.21-4.51-6.21-7.88
		c0-3.97,2.13-7.05,5.88-7.05c2.56,0,3.64,1.59,4.21,2.4l0.05-0.19v-7.07h2.38V1057.58z M757.95,1055.93c1.51,0,3.86-1,3.86-4.75
		c0-2.29-0.38-5.99-3.81-5.99c-3.67,0-3.86,3.48-3.86,5.29C754.14,1053.58,755.36,1055.93,757.95,1055.93z"/>
	<path fill="#58595B" d="M787,1043.87c-0.13-3-2.62-3.94-4.8-3.94c-1.65,0-4.43,0.46-4.43,3.4c0,1.65,1.16,2.19,2.29,2.46l5.53,1.27
		c2.51,0.59,4.4,2.11,4.4,5.18c0,4.59-4.26,5.86-7.58,5.86c-3.59,0-4.99-1.08-5.86-1.86c-1.65-1.48-1.97-3.1-1.97-4.91h2.46
		c0,3.51,2.86,4.54,5.34,4.54c1.89,0,5.07-0.49,5.07-3.27c0-2.02-0.94-2.67-4.13-3.43l-3.97-0.92c-1.27-0.3-4.13-1.19-4.13-4.56
		c0-3.02,1.97-5.99,6.67-5.99c6.78,0,7.45,4.05,7.56,6.18H787z"/>
	<path fill="#58595B" d="M793.08,1040.9v-2.7h2.38v2.7H793.08z M795.45,1057.58h-2.38v-14.12h2.38V1057.58z"/>
	<path fill="#58595B" d="M810.73,1056.42c0,2.03-0.03,7.1-6.56,7.1c-1.67,0-4.94-0.46-5.4-4.21h2.38c0.43,2.24,2.62,2.24,3.19,2.24
		c4.1,0,4.02-3.29,4.02-4.97v-0.59h-0.05v0.11c-0.62,1-1.86,1.89-3.75,1.89c-4.8,0-6.21-4.51-6.21-7.88c0-3.97,2.13-7.05,5.88-7.05
		c2.56,0,3.64,1.59,4.21,2.4h0.05v-2h2.24V1056.42z M804.6,1055.93c1.51,0,3.86-1,3.86-4.75c0-2.29-0.38-5.99-3.81-5.99
		c-3.67,0-3.86,3.48-3.86,5.29C800.8,1053.58,802.01,1055.93,804.6,1055.93z"/>
	<path fill="#58595B" d="M825.53,1057.58h-2.38v-8.69c0-2.46-0.7-3.7-3.02-3.7c-1.35,0-3.73,0.86-3.73,4.7v7.69h-2.38v-14.12h2.24v2
		h0.05c0.51-0.76,1.84-2.4,4.27-2.4c2.19,0,4.94,0.89,4.94,4.91V1057.58z"/>
</g>
<g>
	<path fill="#58595B" d="M1242,1461.56h7.85c5.05,0,8.15,3.83,8.15,9.42c0,4.35-1.89,9.96-8.26,9.96H1242V1461.56z M1244.61,1478.7
		h5.07c3.4,0,5.61-2.67,5.61-7.56s-2.24-7.34-5.8-7.34h-4.89V1478.7z"/>
	<path fill="#58595B" d="M1259.68,1461.56h15.74v2.32h-6.56v17.06h-2.62v-17.06h-6.56V1461.56z"/>
	<path fill="#58595B" d="M1287.98,1478.62h9.83v2.32h-12.44v-19.38h2.62V1478.62z"/>
	<path fill="#58595B" d="M1299.99,1471.12c0.11-3.37,2.35-4.7,5.83-4.7c1.13,0,5.24,0.32,5.24,3.94v8.12c0,0.59,0.3,0.84,0.78,0.84
		c0.22,0,0.51-0.05,0.78-0.11v1.73c-0.4,0.11-0.76,0.27-1.3,0.27c-2.11,0-2.43-1.08-2.51-2.16c-0.92,1-2.35,2.29-5.1,2.29
		c-2.59,0-4.43-1.65-4.43-4.08c0-1.19,0.35-3.94,4.29-4.43l3.91-0.49c0.57-0.05,1.24-0.27,1.24-1.67c0-1.49-1.08-2.29-3.32-2.29
		c-2.7,0-3.08,1.65-3.24,2.73H1299.99z M1308.68,1473.74c-0.38,0.3-0.97,0.51-3.91,0.89c-1.16,0.16-3.02,0.51-3.02,2.29
		c0,1.54,0.78,2.46,2.56,2.46c2.21,0,4.37-1.43,4.37-3.32V1473.74z"/>
	<path fill="#58595B" d="M1319.71,1480.94h-2.46l-4.08-14.12h2.59l2.7,11.09h0.05l2.73-11.09h2.65l2.75,11.09h0.05l2.86-11.09h2.38
		l-4.1,14.12h-2.46l-2.86-10.93h-0.05L1319.71,1480.94z"/>
	<path fill="#58595B" d="M1345.54,1480.94h-2.38v-8.69c0-2.46-0.7-3.7-3.02-3.7c-1.35,0-3.73,0.86-3.73,4.7v7.69h-2.38v-14.12h2.24
		v2h0.05c0.51-0.76,1.84-2.4,4.27-2.4c2.19,0,4.94,0.89,4.94,4.91V1480.94z"/>
	<path fill="#58595B" d="M1368.55,1467.23c-0.13-3-2.62-3.94-4.8-3.94c-1.65,0-4.43,0.46-4.43,3.4c0,1.65,1.16,2.19,2.29,2.46
		l5.53,1.27c2.51,0.59,4.4,2.11,4.4,5.18c0,4.59-4.26,5.86-7.58,5.86c-3.59,0-4.99-1.08-5.86-1.86c-1.65-1.48-1.97-3.1-1.97-4.91
		h2.46c0,3.51,2.86,4.54,5.34,4.54c1.89,0,5.07-0.49,5.07-3.27c0-2.02-0.94-2.67-4.13-3.43l-3.97-0.92
		c-1.27-0.3-4.13-1.19-4.13-4.56c0-3.02,1.97-5.99,6.67-5.99c6.78,0,7.45,4.05,7.56,6.18H1368.55z"/>
	<path fill="#58595B" d="M1374.62,1464.26v-2.7h2.38v2.7H1374.62z M1377,1480.94h-2.38v-14.12h2.38V1480.94z"/>
	<path fill="#58595B" d="M1392.28,1479.78c0,2.03-0.03,7.1-6.56,7.1c-1.67,0-4.94-0.46-5.4-4.21h2.38c0.43,2.24,2.62,2.24,3.19,2.24
		c4.1,0,4.02-3.29,4.02-4.97v-0.59h-0.05v0.11c-0.62,1-1.86,1.89-3.75,1.89c-4.8,0-6.21-4.51-6.21-7.88c0-3.97,2.13-7.05,5.88-7.05
		c2.56,0,3.64,1.59,4.21,2.4h0.05v-2h2.24V1479.78z M1386.15,1479.3c1.51,0,3.86-1,3.86-4.75c0-2.29-0.38-5.99-3.81-5.99
		c-3.67,0-3.86,3.48-3.86,5.29C1382.35,1476.95,1383.56,1479.3,1386.15,1479.3z"/>
	<path fill="#58595B" d="M1407.07,1480.94h-2.38v-8.69c0-2.46-0.7-3.7-3.02-3.7c-1.35,0-3.73,0.86-3.73,4.7v7.69h-2.38v-14.12h2.24
		v2h0.05c0.51-0.76,1.84-2.4,4.27-2.4c2.19,0,4.94,0.89,4.94,4.91V1480.94z"/>
</g>
<g>
	<path fill="#808285" d="M2232.71,1142.12c-0.63-2.94-3.08-3.48-4.69-3.48c-3.04,0-5.49,2.24-5.49,6.66c0,3.95,1.4,6.98,5.56,6.98
		c1.47,0,4.02-0.7,4.79-4.6h2.2c-0.93,6.33-6.07,6.61-7.33,6.61c-3.81,0-7.54-2.47-7.54-8.92c0-5.16,2.94-8.73,7.82-8.73
		c4.32,0,6.56,2.69,6.89,5.49H2232.71z"/>
	<path fill="#808285" d="M2245.11,1154.28c-6.26,0-8.17-5.21-8.17-8.83c0-3.62,1.91-8.83,8.17-8.83c6.26,0,8.17,5.21,8.17,8.83
		C2253.28,1149.08,2251.36,1154.28,2245.11,1154.28z M2245.11,1138.64c-3.64,0-5.84,2.87-5.84,6.82c0,3.95,2.2,6.82,5.84,6.82
		c3.64,0,5.84-2.87,5.84-6.82C2250.94,1141.51,2248.75,1138.64,2245.11,1138.64z"/>
	<path fill="#808285" d="M2256.08,1137.07h6.8c4.37,0,7.05,3.32,7.05,8.15c0,3.76-1.63,8.62-7.15,8.62h-6.7V1137.07z
		 M2258.34,1151.9h4.39c2.94,0,4.86-2.31,4.86-6.54c0-4.23-1.94-6.35-5.02-6.35h-4.23V1151.9z"/>
	<path fill="#808285" d="M2285.53,1144.87h7.36v8.97h-1.47l-0.54-2.17c-1.14,1.59-3.25,2.62-5.53,2.62c-2.87,0-4.27-1.05-5.14-1.89
		c-2.57-2.43-2.64-5.3-2.64-7.08c0-4.09,2.48-8.69,7.94-8.69c3.13,0,6.61,1.78,7.1,5.53h-2.2c-0.72-2.92-3.18-3.53-5.02-3.53
		c-3.01,0-5.49,2.41-5.49,6.8c0,3.41,1.12,6.91,5.58,6.91c0.84,0,2.2-0.09,3.43-1.07c1.47-1.17,1.84-2.66,1.84-4.46h-5.23V1144.87z"
		/>
	<path fill="#808285" d="M2298.46,1153.84h-2.06v-12.21h1.94v2.03h0.05c0.82-1.42,1.89-2.38,3.43-2.38c0.26,0,0.37,0.02,0.54,0.07
		v2.12h-0.77c-1.92,0-3.13,1.49-3.13,3.27V1153.84z"/>
	<path fill="#808285" d="M2303.83,1145.34c0.09-2.92,2.03-4.06,5.04-4.06c0.98,0,4.53,0.28,4.53,3.41v7.03
		c0,0.51,0.26,0.72,0.68,0.72c0.19,0,0.44-0.05,0.68-0.09v1.49c-0.35,0.09-0.65,0.23-1.12,0.23c-1.82,0-2.1-0.93-2.17-1.87
		c-0.79,0.86-2.03,1.99-4.41,1.99c-2.24,0-3.83-1.43-3.83-3.53c0-1.03,0.3-3.41,3.71-3.83l3.39-0.42c0.49-0.05,1.07-0.23,1.07-1.45
		c0-1.28-0.93-1.98-2.87-1.98c-2.34,0-2.66,1.42-2.8,2.36H2303.83z M2311.35,1147.61c-0.33,0.26-0.84,0.44-3.39,0.77
		c-1,0.14-2.62,0.44-2.62,1.99c0,1.33,0.68,2.12,2.22,2.12c1.92,0,3.78-1.24,3.78-2.87V1147.61z"/>
	<path fill="#808285" d="M2316.72,1141.63h1.94v1.73h0.05c0.49-0.7,1.42-2.08,3.64-2.08c3.25,0,5.09,2.66,5.09,6.1
		c0,2.92-1.21,6.82-5.37,6.82c-1.63,0-2.71-0.77-3.25-1.63h-0.05v6.12h-2.06V1141.63z M2322.02,1152.42c2.24,0,3.29-2.03,3.29-4.72
		c0-1.56-0.16-4.58-3.34-4.58c-2.97,0-3.29,3.2-3.29,5.18C2318.68,1151.55,2320.71,1152.42,2322.02,1152.42z"/>
	<path fill="#808285" d="M2339.81,1153.84h-2.05v-7.99c0-1.66-0.47-2.73-2.43-2.73c-1.68,0-3.41,0.98-3.41,4.06v6.66h-2.05v-16.77
		h2.05v6.19h0.05c0.58-0.77,1.61-1.98,3.57-1.98c1.89,0,4.27,0.77,4.27,4.25V1153.84z"/>
	<path fill="#808285" d="M2342.89,1139.41v-2.34h2.05v2.34H2342.89z M2344.94,1153.84h-2.05v-12.21h2.05V1153.84z"/>
	<path fill="#808285" d="M2355.66,1145.74c-0.26-1.63-1.17-2.62-2.9-2.62c-2.55,0-3.36,2.43-3.36,4.6c0,2.1,0.51,4.69,3.34,4.69
		c1.38,0,2.57-1.03,2.92-2.9h1.99c-0.21,1.94-1.4,4.67-4.97,4.67c-3.43,0-5.46-2.59-5.46-6.12c0-3.78,1.82-6.8,5.86-6.8
		c3.2,0,4.41,2.34,4.58,4.46H2355.66z"/>
	<path fill="#808285" d="M2366.63,1145.11c-0.02-0.77-0.3-2.06-2.9-2.06c-0.63,0-2.43,0.21-2.43,1.73c0,1,0.63,1.24,2.22,1.63
		l2.05,0.51c2.55,0.63,3.43,1.56,3.43,3.22c0,2.52-2.08,4.04-4.83,4.04c-4.83,0-5.18-2.8-5.25-4.27h1.99
		c0.07,0.96,0.35,2.5,3.25,2.5c1.47,0,2.8-0.58,2.8-1.94c0-0.98-0.68-1.31-2.43-1.75l-2.38-0.58c-1.7-0.42-2.83-1.29-2.83-2.97
		c0-2.69,2.22-3.9,4.62-3.9c4.37,0,4.67,3.22,4.67,3.83H2366.63z"/>
</g>
<g>
	<path fill="#58595B" d="M185.14,1221.55h8.5v10.37h-1.7l-0.62-2.51c-1.32,1.84-3.75,3.02-6.4,3.02c-3.32,0-4.94-1.21-5.94-2.19
		c-2.97-2.81-3.05-6.13-3.05-8.18c0-4.72,2.86-10.04,9.18-10.04c3.62,0,7.64,2.05,8.21,6.4h-2.54c-0.84-3.37-3.67-4.08-5.8-4.08
		c-3.48,0-6.34,2.78-6.34,7.85c0,3.94,1.3,7.99,6.45,7.99c0.97,0,2.54-0.11,3.97-1.24c1.7-1.35,2.13-3.08,2.13-5.16h-6.05V1221.55z"
		/>
	<path fill="#58595B" d="M197.32,1222.09c0.11-3.37,2.35-4.7,5.83-4.7c1.13,0,5.24,0.32,5.24,3.94v8.12c0,0.59,0.3,0.84,0.78,0.84
		c0.22,0,0.51-0.05,0.78-0.11v1.73c-0.4,0.11-0.76,0.27-1.3,0.27c-2.11,0-2.43-1.08-2.51-2.16c-0.92,1-2.35,2.29-5.1,2.29
		c-2.59,0-4.43-1.65-4.43-4.08c0-1.19,0.35-3.94,4.29-4.43l3.91-0.49c0.57-0.05,1.24-0.27,1.24-1.67c0-1.49-1.08-2.29-3.32-2.29
		c-2.7,0-3.08,1.65-3.24,2.73H197.32z M206.01,1224.71c-0.38,0.3-0.97,0.51-3.91,0.89c-1.16,0.16-3.02,0.51-3.02,2.29
		c0,1.54,0.78,2.46,2.56,2.46c2.21,0,4.37-1.43,4.37-3.32V1224.71z"/>
	<path fill="#58595B" d="M215.33,1219.77v9.18c0,1.11,0.94,1.11,1.43,1.11h0.84v1.86c-0.86,0.08-1.54,0.19-1.78,0.19
		c-2.35,0-2.86-1.32-2.86-3.02v-9.31h-1.92v-1.97h1.92v-3.94h2.38v3.94h2.27v1.97H215.33z"/>
	<path fill="#58595B" d="M231.9,1227.49c-0.08,0.67-0.73,2.67-2.51,3.86c-0.65,0.43-1.57,0.97-3.83,0.97c-3.97,0-6.32-3-6.32-7.07
		c0-4.37,2.11-7.86,6.78-7.86c4.08,0,6.07,3.24,6.07,8.23h-10.31c0,2.94,1.38,4.64,4.1,4.64c2.24,0,3.56-1.73,3.64-2.78H231.9z
		 M229.64,1223.74c-0.14-2.19-1.05-4.21-3.94-4.21c-2.19,0-3.91,2.02-3.91,4.21H229.64z"/>
	<path fill="#58595B" d="M239.55,1231.92h-2.46l-4.08-14.12h2.59l2.7,11.09h0.05l2.73-11.09h2.65l2.75,11.09h0.05l2.86-11.09h2.38
		l-4.1,14.12h-2.46l-2.86-10.93h-0.05L239.55,1231.92z"/>
	<path fill="#58595B" d="M253.41,1222.09c0.11-3.37,2.35-4.7,5.83-4.7c1.13,0,5.24,0.32,5.24,3.94v8.12c0,0.59,0.3,0.84,0.78,0.84
		c0.22,0,0.51-0.05,0.78-0.11v1.73c-0.4,0.11-0.76,0.27-1.3,0.27c-2.11,0-2.43-1.08-2.51-2.16c-0.92,1-2.35,2.29-5.1,2.29
		c-2.59,0-4.43-1.65-4.43-4.08c0-1.19,0.35-3.94,4.29-4.43l3.91-0.49c0.57-0.05,1.24-0.27,1.24-1.67c0-1.49-1.08-2.29-3.32-2.29
		c-2.7,0-3.08,1.65-3.24,2.73H253.41z M262.1,1224.71c-0.38,0.3-0.97,0.51-3.91,0.89c-1.16,0.16-3.02,0.51-3.02,2.29
		c0,1.54,0.78,2.46,2.56,2.46c2.21,0,4.37-1.43,4.37-3.32V1224.71z"/>
	<path fill="#58595B" d="M276.52,1217.8h2.62c-1.65,4.62-3.27,9.23-5.07,13.85c-2.24,5.72-2.48,6.05-5.53,6.05
		c-0.35,0-0.62-0.11-1-0.22v-2.16c0.3,0.11,0.78,0.24,1.43,0.24c1.24,0,1.38-0.35,2.51-3.27l-5.24-14.5h2.7l3.75,11.5h0.05
		L276.52,1217.8z"/>
	<path fill="#58595B" d="M194.39,1243.61h8.53c3.62,0,5.48,2.24,5.48,4.89c0,1.27-0.46,3.05-2.59,4.05c1.27,0.51,3.51,1.4,3.51,4.72
		c0,3.1-2.29,5.72-6.59,5.72h-8.34V1243.61z M197.01,1251.81h4.72c2.51,0,4.05-0.76,4.05-3.13c0-1.81-1.11-2.83-4.02-2.83h-4.75
		V1251.81z M197.01,1260.75h5.59c2.73,0,4.1-1.38,4.1-3.54c0-2.73-2.4-3.27-4.53-3.27h-5.16V1260.75z"/>
	<path fill="#58595B" d="M212.08,1253.16c0.11-3.37,2.35-4.7,5.83-4.7c1.13,0,5.24,0.32,5.24,3.94v8.12c0,0.59,0.3,0.84,0.78,0.84
		c0.22,0,0.51-0.05,0.78-0.11v1.73c-0.4,0.11-0.76,0.27-1.3,0.27c-2.11,0-2.43-1.08-2.51-2.16c-0.92,1-2.35,2.29-5.1,2.29
		c-2.59,0-4.43-1.65-4.43-4.08c0-1.19,0.35-3.94,4.29-4.43l3.91-0.49c0.57-0.05,1.24-0.27,1.24-1.67c0-1.49-1.08-2.29-3.32-2.29
		c-2.7,0-3.08,1.65-3.24,2.73H212.08z M220.77,1255.78c-0.38,0.3-0.97,0.51-3.91,0.89c-1.16,0.16-3.02,0.51-3.02,2.29
		c0,1.54,0.78,2.46,2.56,2.46c2.21,0,4.37-1.43,4.37-3.32V1255.78z"/>
	<path fill="#58595B" d="M238.67,1262.99h-2.38v-8.69c0-2.46-0.7-3.7-3.02-3.7c-1.35,0-3.73,0.86-3.73,4.7v7.69h-2.38v-14.12h2.24v2
		h0.05c0.51-0.76,1.84-2.4,4.27-2.4c2.19,0,4.94,0.89,4.94,4.91V1262.99z"/>
	<path fill="#58595B" d="M253.68,1262.99h-2.38v-8.69c0-2.46-0.7-3.7-3.02-3.7c-1.35,0-3.73,0.86-3.73,4.7v7.69h-2.38v-14.12h2.24v2
		h0.05c0.51-0.76,1.84-2.4,4.27-2.4c2.19,0,4.94,0.89,4.94,4.91V1262.99z"/>
	<path fill="#58595B" d="M269.18,1258.56c-0.08,0.67-0.73,2.67-2.51,3.86c-0.65,0.43-1.57,0.97-3.83,0.97c-3.97,0-6.32-3-6.32-7.07
		c0-4.37,2.11-7.86,6.78-7.86c4.08,0,6.07,3.24,6.07,8.23h-10.31c0,2.94,1.38,4.64,4.1,4.64c2.24,0,3.56-1.73,3.64-2.78H269.18z
		 M266.91,1254.81c-0.14-2.19-1.05-4.21-3.94-4.21c-2.19,0-3.91,2.02-3.91,4.21H266.91z"/>
	<path fill="#58595B" d="M274.9,1262.99h-2.38v-14.12h2.24v2.35h0.05c0.94-1.65,2.19-2.75,3.97-2.75c0.3,0,0.43,0.03,0.62,0.08v2.46
		h-0.89c-2.21,0-3.62,1.73-3.62,3.78V1262.99z"/>
</g>
<g>
	<path fill="#58595B" d="M971.4,1421.17h-2.62v-19.38h8.72c3.59,0,5.75,2.32,5.75,5.45c0,2.7-1.54,5.75-5.75,5.75h-6.1V1421.17z
		 M971.4,1410.75h5.21c2.35,0,3.94-0.86,3.94-3.48c0-2.46-1.67-3.24-3.83-3.24h-5.32V1410.75z"/>
	<path fill="#58595B" d="M988.93,1421.17h-2.38v-14.12h2.24v2.35h0.05c0.94-1.65,2.19-2.75,3.97-2.75c0.3,0,0.43,0.03,0.62,0.08
		v2.46h-0.89c-2.21,0-3.62,1.73-3.62,3.78V1421.17z"/>
	<path fill="#58595B" d="M1007.2,1416.74c-0.08,0.67-0.73,2.67-2.51,3.86c-0.65,0.43-1.57,0.97-3.83,0.97c-3.97,0-6.32-3-6.32-7.07
		c0-4.37,2.11-7.86,6.78-7.86c4.08,0,6.07,3.24,6.07,8.23h-10.31c0,2.94,1.38,4.64,4.1,4.64c2.24,0,3.56-1.73,3.64-2.78H1007.2z
		 M1004.94,1412.99c-0.14-2.19-1.05-4.21-3.94-4.21c-2.19,0-3.91,2.02-3.91,4.21H1004.94z"/>
	<path fill="#58595B" d="M1016.28,1414.9h-6.61v-2.43h6.61V1414.9z"/>
	<path fill="#58595B" d="M1031.21,1407.45c-0.13-3-2.62-3.94-4.8-3.94c-1.65,0-4.43,0.46-4.43,3.4c0,1.65,1.16,2.19,2.29,2.46
		l5.53,1.27c2.51,0.59,4.4,2.11,4.4,5.18c0,4.59-4.26,5.86-7.58,5.86c-3.59,0-4.99-1.08-5.86-1.86c-1.65-1.48-1.97-3.1-1.97-4.91
		h2.46c0,3.51,2.86,4.54,5.34,4.54c1.89,0,5.07-0.49,5.07-3.27c0-2.02-0.94-2.67-4.13-3.43l-3.97-0.92
		c-1.27-0.3-4.13-1.19-4.13-4.56c0-3.02,1.97-5.99,6.67-5.99c6.78,0,7.45,4.05,7.56,6.18H1031.21z"/>
	<path fill="#58595B" d="M1049.21,1416.74c-0.08,0.67-0.73,2.67-2.51,3.86c-0.65,0.43-1.57,0.97-3.83,0.97c-3.97,0-6.32-3-6.32-7.07
		c0-4.37,2.11-7.86,6.78-7.86c4.08,0,6.07,3.24,6.07,8.23h-10.31c0,2.94,1.38,4.64,4.1,4.64c2.24,0,3.56-1.73,3.64-2.78H1049.21z
		 M1046.95,1412.99c-0.14-2.19-1.05-4.21-3.94-4.21c-2.19,0-3.91,2.02-3.91,4.21H1046.95z"/>
	<path fill="#58595B" d="M1054.67,1421.17h-2.38v-19.38h2.38V1421.17z"/>
	<path fill="#58595B" d="M1060.67,1421.17h-2.38v-19.38h2.38V1421.17z"/>
	<path fill="#58595B" d="M1001.13,1451.3h-2.62v-19.38h2.62v9.39l9.39-9.39h3.62l-8.07,7.83l8.29,11.55h-3.4l-6.78-9.72l-3.05,2.92
		V1451.3z"/>
	<path fill="#58595B" d="M1016.28,1434.62v-2.7h2.38v2.7H1016.28z M1018.65,1451.3h-2.38v-14.12h2.38V1451.3z"/>
	<path fill="#58595B" d="M1027.97,1436.77c4.51,0,6.56,3.81,6.56,7.45c0,3.64-2.05,7.45-6.56,7.45s-6.56-3.81-6.56-7.45
		C1021.41,1440.58,1023.46,1436.77,1027.97,1436.77z M1027.97,1449.62c3.4,0,4.1-3.51,4.1-5.4s-0.7-5.4-4.1-5.4
		c-3.4,0-4.1,3.51-4.1,5.4S1024.57,1449.62,1027.97,1449.62z"/>
	<path fill="#58595B" d="M1045.25,1441.2c-0.03-0.89-0.35-2.38-3.35-2.38c-0.73,0-2.81,0.24-2.81,2c0,1.16,0.73,1.43,2.56,1.89
		l2.38,0.59c2.94,0.73,3.97,1.81,3.97,3.73c0,2.92-2.4,4.67-5.59,4.67c-5.59,0-5.99-3.24-6.07-4.94h2.29
		c0.08,1.11,0.4,2.89,3.75,2.89c1.7,0,3.24-0.67,3.24-2.24c0-1.13-0.78-1.51-2.81-2.02l-2.75-0.67c-1.97-0.49-3.27-1.49-3.27-3.43
		c0-3.1,2.56-4.51,5.34-4.51c5.05,0,5.4,3.73,5.4,4.43H1045.25z"/>
	<path fill="#58595B" d="M1062.5,1451.3h-3.05l-4.4-7.13l-1.97,1.78v5.34h-2.29v-19.38h2.29v11.23l6.07-5.97h3.02l-5.4,5.26
		L1062.5,1451.3z"/>
</g>
<rect x="2207.01" y="1170.75" fill="#8E8482" width="174.18" height="134.71"/>
<circle fill="#D4CFCE" cx="2294.1" cy="904.98" r="69.98"/>
<g>
	<path fill="#231F20" d="M39.77,95.82V38.08h31.88v11.55H53.32v10.24h16.86v11.55H53.32v24.41H39.77z"/>
	<path fill="#231F20" d="M78.58,95.82V38.08h16.09c5.24,0,12.78,0.46,16.55,4.77c3.16,3.54,3.77,7.85,3.77,12.55
		c0,6.24-1.46,13.24-7.62,16.09c-4.7,2.31-10.16,1.62-15.25,1.85v22.48H78.58z M92.13,62.95c2.54-0.08,5.47,0.23,7.62-1.46
		c1.39-1.54,1.69-3.85,1.69-5.85c0-2.23-0.23-5.62-2.54-6.7c-1.31-0.46-3.16-0.46-5.31-0.46h-1.46V62.95z"/>
	<path fill="#231F20" d="M118.01,74.03l18.02-34.72h13.47v35.88h5.08v9.62h-5.08v11.01h-12.24V84.81h-19.25V74.03z M137.25,75.19
		V56.48h-0.15l-9.39,18.71H137.25z"/>
	<path fill="#231F20" d="M167.9,61.79c2.62-0.15,5.7,0.08,7.93-1.54c1.77-1.23,2.46-4.47,2.46-6.47c0-3.31-0.92-5.93-4.54-5.93
		c-4.47,0-4,5.31-4.16,8.39h-12.32l0.08-4.23c0.31-8.62,8.7-13.94,16.71-13.94c9.86,0,16.48,4.31,16.48,14.86
		c0,6.08-2.23,10.24-7.78,12.86v0.15c7.08,1.77,9.16,8.08,9.16,14.24c0,11.63-6.62,17.02-17.86,17.02
		c-10.55,0-16.09-5.77-16.71-16.01l-0.08-3.93h12.17c0.23,3.85-0.54,10.32,4.93,10.32c4.16,0,4.7-4.08,4.7-7.39
		c0-2.62-0.46-6.54-2.93-8.08c-2.39-1.39-5.62-0.85-8.24-1.08V61.79z"/>
	<path fill="#231F20" d="M239.66,58.25v-3.7c0-4.93-1.77-7.47-4.31-7.47c-4.23-0.08-5.24,2.23-5.24,6.01l-0.08,28.57
		c0,3.23,1.31,5.16,4.85,5.16c4.62,0,5-4.77,5-8.32v-5.24h13.55v7.08c0,9.93-5.7,16.86-19.56,16.86c-12.47,0-17.32-6.62-17.32-18.4
		V55.09c0-12.55,5.77-18.4,18.17-18.4c11.55,0,18.48,4.93,18.48,16.71v4.85H239.66z"/>
	<path fill="#231F20" d="M296.18,77.42c0,13.01-4.54,19.79-18.25,19.79c-13.71,0-18.48-6.78-18.48-19.79V53.94
		c0-11.09,6.62-17.25,18.48-17.25c11.86,0,18.25,6.16,18.25,17.25V77.42z M282.63,54.86c0-3.54-0.31-7.78-4.77-7.78
		c-4.31,0-4.85,4.23-4.85,7.78v23.71c0,3.31,0.54,8.24,4.93,8.24c4.39,0,4.7-4.93,4.7-8.24V54.86z"/>
	<path fill="#231F20" d="M302.73,95.82V38.08h14.71c4.93,0,10.86,0.15,15.25,2.7c5.24,3.08,6.08,8.7,6.08,14.24v25.64
		c-0.08,5.77-1.85,10.01-5.77,12.47c-3.54,2.31-7.85,2.7-12.01,2.7H302.73z M316.28,85.43c9.09,0.62,9.16-3.08,8.93-10.78V55.78
		c-0.08-6.78-2.31-7.16-8.93-7.31V85.43z"/>
	<path fill="#231F20" d="M38.9,171.42v-47.25h12.03c4.03,0,8.88,0.13,12.48,2.21c4.28,2.52,4.98,7.12,4.98,11.66v20.98
		c-0.06,4.73-1.51,8.19-4.73,10.21c-2.9,1.89-6.43,2.21-9.83,2.21H38.9z M49.99,162.92c7.43,0.5,7.5-2.52,7.31-8.82v-15.44
		c-0.06-5.54-1.89-5.86-7.31-5.99V162.92z"/>
	<path fill="#231F20" d="M83,136.14v5.36h0.13c1.13-3.78,3.59-6.36,7.75-6.36v11.34c-1.01-0.19-2.02-0.25-3.02-0.25
		c-2.83,0-3.97,0.57-4.16,3.46v21.74H73.67v-35.28H83z"/>
	<path fill="#231F20" d="M95.79,132.68v-8.51h10.02v8.51H95.79z M95.79,171.42v-35.28h10.02v35.28H95.79z"/>
	<path fill="#231F20" d="M123.51,158.95h0.13l3.59-22.81h9.77l-7.75,35.28h-11.47l-7.69-35.28h10.08L123.51,158.95z"/>
	<path fill="#231F20" d="M149.9,155.42v6.17c0,1.95,0.88,3.59,3.09,3.72c3.72,0.19,3.34-3.15,3.53-6.11h9.95
		c0.5,9.07-4.41,13.23-13.1,13.36c-7.18,0.06-13.48-2.9-13.48-10.96v-14.37c0-9.07,5.73-12.03,13.48-12.1
		c6.99-0.06,13.48,2.58,13.48,10.21v10.08H149.9z M156.83,148.8v-3.46c0-1.26-0.82-3.59-3.4-3.59c-2.84,0-3.53,2.27-3.53,4.73v2.33
		H156.83z"/>
	<path fill="#231F20" d="M186.13,124.17h28.73v9.45h-8.95v37.8h-11.09v-37.8h-8.69V124.17z"/>
	<path fill="#231F20" d="M229.16,138.91h0.13c2.33-2.96,4.79-3.78,7.62-3.78c4.85,0,8,3.46,8,8v28.29h-10.02v-25.08
		c0-2.02-0.5-3.02-2.83-3.02c-2.21,0-2.9,1.95-2.9,3.72v24.38h-10.02v-47.25h10.02V138.91z"/>
	<path fill="#231F20" d="M259.71,136.14v5.36h0.13c1.13-3.78,3.59-6.36,7.75-6.36v11.34c-1.01-0.19-2.02-0.25-3.02-0.25
		c-2.83,0-3.97,0.57-4.16,3.46v21.74h-10.02v-35.28H259.71z"/>
	<path fill="#231F20" d="M287.68,171.42v-4.35h-0.13c-0.94,2.71-3.84,5.48-6.99,5.48c-5.8,0-8.95-2.65-8.95-7.43v-28.98h10.02v25.26
		c0.13,1.64,0.57,3.09,2.46,2.96c1.76-0.06,2.9-1.13,2.9-2.96v-25.26h10.02v35.28H287.68z"/>
	<path fill="#231F20" d="M317.61,124.17h25.08v8.82l-13.73,28.98h14.37v9.45H316.6v-8.44l13.99-29.36h-12.98V124.17z"/>
	<path fill="#231F20" d="M346.59,147.23c0-9.07,5.36-12.1,13.1-12.1c8.82,0,13.1,4.16,13.1,12.1v14.37c-0.5,8-5.48,10.96-13.1,10.96
		c-7.18,0-13.1-2.9-13.1-10.96V147.23z M356.61,162.22c0.19,2.02,1.01,3.09,3.09,3.09s2.9-1.07,3.09-3.09v-15.75
		c0-2.27-0.76-4.1-3.09-4.1s-3.09,1.83-3.09,4.1V162.22z"/>
	<path fill="#231F20" d="M387.85,136.14v4.41h0.13c0.95-2.71,3.84-5.42,6.99-5.42c4.73,0,8.95,2.58,8.95,7.37v28.92H393.9v-25.2
		c-0.13-1.64-0.76-3.02-2.65-2.9c-1.76,0.06-2.71,1.07-2.71,2.9v25.2h-10.02v-35.28H387.85z"/>
	<path fill="#231F20" d="M419.35,155.42v6.17c0,1.95,0.88,3.59,3.09,3.72c3.72,0.19,3.34-3.15,3.53-6.11h9.95
		c0.5,9.07-4.41,13.23-13.1,13.36c-7.18,0.06-13.48-2.9-13.48-10.96v-14.37c0-9.07,5.73-12.03,13.48-12.1
		c6.99-0.06,13.48,2.58,13.48,10.21v10.08H419.35z M426.28,148.8v-3.46c0-1.26-0.82-3.59-3.4-3.59c-2.83,0-3.53,2.27-3.53,4.73v2.33
		H426.28z"/>
</g>
<g>
	<path fill="#808285" d="M2239.34,1316.02c-0.62-2.91-3.05-3.44-4.64-3.44c-3,0-5.42,2.22-5.42,6.58c0,3.9,1.38,6.9,5.49,6.9
		c1.45,0,3.97-0.69,4.73-4.55h2.17c-0.92,6.25-6,6.53-7.25,6.53c-3.76,0-7.45-2.45-7.45-8.82c0-5.1,2.91-8.63,7.73-8.63
		c4.27,0,6.49,2.65,6.81,5.42H2239.34z"/>
	<path fill="#808285" d="M2251.6,1328.05c-6.19,0-8.08-5.15-8.08-8.72c0-3.58,1.89-8.72,8.08-8.72c6.19,0,8.08,5.15,8.08,8.72
		C2259.68,1322.9,2257.78,1328.05,2251.6,1328.05z M2251.6,1312.58c-3.6,0-5.77,2.84-5.77,6.74c0,3.9,2.17,6.74,5.77,6.74
		c3.6,0,5.77-2.84,5.77-6.74C2257.37,1315.42,2255.2,1312.58,2251.6,1312.58z"/>
	<path fill="#808285" d="M2262.45,1311.04h6.72c4.32,0,6.97,3.28,6.97,8.05c0,3.72-1.62,8.52-7.06,8.52h-6.62V1311.04z
		 M2264.69,1325.69h4.34c2.91,0,4.8-2.29,4.8-6.46c0-4.18-1.92-6.28-4.96-6.28h-4.18V1325.69z"/>
	<path fill="#808285" d="M2286.24,1327.61H2284v-16.57h7.45c3.07,0,4.92,1.98,4.92,4.66c0,2.31-1.32,4.92-4.92,4.92h-5.22V1327.61z
		 M2286.24,1318.7h4.45c2.01,0,3.37-0.74,3.37-2.98c0-2.1-1.43-2.77-3.28-2.77h-4.55V1318.7z"/>
	<path fill="#808285" d="M2300.99,1327.61h-2.03v-16.57h2.03V1327.61z"/>
	<path fill="#808285" d="M2303.97,1319.21c0.09-2.88,2.01-4.02,4.99-4.02c0.97,0,4.48,0.28,4.48,3.37v6.95
		c0,0.51,0.25,0.72,0.67,0.72c0.18,0,0.44-0.05,0.67-0.09v1.48c-0.35,0.09-0.65,0.23-1.11,0.23c-1.8,0-2.08-0.92-2.15-1.85
		c-0.78,0.85-2.01,1.96-4.36,1.96c-2.22,0-3.78-1.41-3.78-3.49c0-1.02,0.3-3.37,3.67-3.78l3.35-0.42c0.48-0.05,1.06-0.23,1.06-1.43
		c0-1.27-0.92-1.96-2.84-1.96c-2.31,0-2.63,1.41-2.77,2.33H2303.97z M2311.4,1321.45c-0.32,0.25-0.83,0.44-3.35,0.76
		c-0.99,0.14-2.58,0.44-2.58,1.96c0,1.32,0.67,2.1,2.19,2.1c1.89,0,3.74-1.22,3.74-2.84V1321.45z"/>
	<path fill="#808285" d="M2324.42,1319.6c-0.25-1.62-1.15-2.59-2.86-2.59c-2.52,0-3.32,2.4-3.32,4.55c0,2.08,0.51,4.64,3.3,4.64
		c1.36,0,2.54-1.02,2.88-2.86h1.96c-0.21,1.92-1.38,4.62-4.92,4.62c-3.39,0-5.4-2.56-5.4-6.05c0-3.74,1.8-6.72,5.79-6.72
		c3.16,0,4.36,2.31,4.52,4.41H2324.42z"/>
	<path fill="#808285" d="M2328.34,1319.21c0.09-2.88,2.01-4.02,4.99-4.02c0.97,0,4.48,0.28,4.48,3.37v6.95
		c0,0.51,0.25,0.72,0.67,0.72c0.18,0,0.44-0.05,0.67-0.09v1.48c-0.35,0.09-0.65,0.23-1.11,0.23c-1.8,0-2.08-0.92-2.15-1.85
		c-0.78,0.85-2.01,1.96-4.36,1.96c-2.22,0-3.78-1.41-3.78-3.49c0-1.02,0.3-3.37,3.67-3.78l3.35-0.42c0.48-0.05,1.06-0.23,1.06-1.43
		c0-1.27-0.92-1.96-2.84-1.96c-2.31,0-2.63,1.41-2.77,2.33H2328.34z M2335.77,1321.45c-0.32,0.25-0.83,0.44-3.35,0.76
		c-0.99,0.14-2.58,0.44-2.58,1.96c0,1.32,0.67,2.1,2.19,2.1c1.89,0,3.74-1.22,3.74-2.84V1321.45z"/>
	<path fill="#808285" d="M2343.56,1327.61h-2.03v-12.07h1.92v2.01h0.05c0.81-1.41,1.87-2.35,3.39-2.35c0.25,0,0.37,0.02,0.53,0.07
		v2.1h-0.76c-1.89,0-3.09,1.48-3.09,3.23V1327.61z"/>
	<path fill="#808285" d="M2358.95,1327.61h-1.92v-1.66h-0.05c-0.88,1.64-2.26,2.01-3.44,2.01c-4.11,0-5.31-3.85-5.31-6.74
		c0-3.39,1.82-6.02,5.03-6.02c2.19,0,3.12,1.36,3.6,2.05l0.05-0.16v-6.05h2.03V1327.61z M2353.6,1326.2c1.29,0,3.3-0.85,3.3-4.06
		c0-1.96-0.32-5.12-3.25-5.12c-3.14,0-3.3,2.98-3.3,4.52C2350.34,1324.19,2351.38,1326.2,2353.6,1326.2z"/>
</g>
</svg>
