<?xml version="1.0" encoding="utf-8"?>
<!-- Generator: Adobe Illustrator 19.2.1, SVG Export Plug-In . SVG Version: 6.00 Build 0)  -->
<svg version="1.1" id="Interactive" xmlns="http://www.w3.org/2000/svg" xmlns:xlink="http://www.w3.org/1999/xlink" x="0px"
	 y="0px" viewBox="0 0 3600 2782.08" enable-background="new 0 0 3600 2782.08" xml:space="preserve">
<rect id="_x31_9.1" x="67.62" y="710.51" fill="none" width="211.82" height="481.1"/>
<rect id="_x31_9.4" x="953.45" y="537.57" fill="none" width="284.11" height="829.46"/>
<rect id="_x31_9.7" x="1192.49" y="1496" fill="none" width="262.1" height="194.38"/>
<rect id="_x31_9.5" x="2207.01" y="997.09" fill="none" width="174.18" height="134.71"/>
<rect id="_x31_9.81" x="585.42" y="560.59" fill="none" width="301.85" height="445.68"/>
<rect id="_x31_9.82" x="585.42" y="1074.93" fill="none" width="301.85" height="445.68"/>
<rect id="_x31_9.34" x="400.92" y="1074.93" fill="none" width="150.93" height="445.68"/>
<rect id="_x31_9.14" x="3374.46" y="1100.98" fill="none" width="146.66" height="238.38"/>
<rect id="_x31_9.13" x="3217.37" y="1100.98" fill="none" width="146.66" height="238.38"/>
<rect id="_x31_9.10" x="3217.72" y="550.44" fill="none" width="303.4" height="546.4"/>
<rect id="_x31_9.24" x="2818.82" y="552.14" fill="none" width="303.4" height="787.22"/>
<rect id="_x31_9.21" x="2480.61" y="552.14" fill="none" width="303.4" height="787.22"/>
<rect id="_x31_9.18" x="2142.4" y="552.14" fill="none" width="303.4" height="252.53"/>
<rect id="_x31_9.15" x="1804.19" y="552.14" fill="none" width="303.4" height="787.22"/>
<rect id="_x31_9.6" x="2207.01" y="1170.75" fill="none" width="174.18" height="134.71"/>
<rect id="_x31_9.9" x="1593.17" y="24.66" fill="none" width="1740.85" height="464.07"/>
<rect id="_x31_9.28" x="1803.95" y="1430.67" fill="none" width="303.64" height="252.73"/>
<rect id="_x31_9.29" x="2142.4" y="1430.67" fill="none" width="303.64" height="252.73"/>
<rect id="_x31_9.30" x="2480.85" y="1430.67" fill="none" width="303.64" height="252.73"/>
<rect id="_x31_9.31" x="2819.3" y="1430.67" fill="none" width="303.64" height="252.73"/>
<rect id="_x31_9.71" x="2819.3" y="1699.99" fill="none" width="303.64" height="252.73"/>
<rect id="_x31_9.33" x="3374.34" y="1445.34" fill="none" width="146.77" height="238.06"/>
<rect id="_x31_9.32" x="3217.14" y="1445.34" fill="none" width="146.77" height="238.06"/>
<rect id="_x31_9.70" x="1490.88" y="1653.4" fill="none" width="262.1" height="262.1"/>
<rect id="_x31_9.69" x="895.63" y="1653.4" fill="none" width="262.1" height="262.1"/>
<rect id="_x31_9.67" x="2207.01" y="1717.09" fill="none" width="174.18" height="134.71"/>
<rect id="_x31_9.68" x="2207.01" y="1864.69" fill="none" width="174.18" height="134.71"/>
<rect id="_x31_9.27" x="841.67" y="212.8" fill="none" width="507.68" height="313.97"/>
<rect id="_x31_9.2" x="660.89" y="1076.89" fill="none" width="150.93" height="445.68"/>
<rect id="_x31_9.3" x="660.89" y="560.59" fill="none" width="150.93" height="445.68"/>
<rect id="_x31_9.8" x="1318.34" y="533.41" fill="none" width="444.15" height="844.56"/>
</svg>
