<?xml version="1.0" encoding="utf-8"?>
<!-- Generator: Adobe Illustrator 19.2.1, SVG Export Plug-In . SVG Version: 6.00 Build 0)  -->
<svg version="1.1" id="Background_1_" xmlns="http://www.w3.org/2000/svg" xmlns:xlink="http://www.w3.org/1999/xlink" x="0px"
	 y="0px" viewBox="0 0 3600 2782.08" enable-background="new 0 0 3600 2782.08" xml:space="preserve">
<g>
	<g>
		<linearGradient id="SVGID_1_" gradientUnits="userSpaceOnUse" x1="302.3458" y1="664.7582" x2="302.3458" y2="1425.0593">
			<stop  offset="0.1648" style="stop-color:#949494"/>
			<stop  offset="0.5769" style="stop-color:#000000"/>
		</linearGradient>
		<polygon fill="url(#SVGID_1_)" stroke="#010101" stroke-width="0.0968" stroke-linecap="round" stroke-linejoin="round" points="
			60.965,709.761 60.965,978.132 60.965,1020.779 543.726,1020.779 543.726,709.761 		"/>
	</g>
</g>
<rect x="72.846" y="721.272" fill="#FFFFFF" stroke="#010101" stroke-width="2" stroke-linecap="round" stroke-linejoin="round" width="459" height="288"/>
<rect x="789.708" y="2305.14" fill="#F2F1EA" stroke="#999999" stroke-linecap="round" stroke-linejoin="round" width="1831.205" height="27.843"/>
<rect x="265.336" y="2335.052" fill="#F2F1EA" stroke="#999999" stroke-linecap="round" stroke-linejoin="round" width="528.743" height="64.049"/>
<polygon fill="#F2F1EA" stroke="#999999" stroke-linecap="round" stroke-linejoin="round" points="793.717,2334.858 
	878.988,2271.584 878.637,2333.532 794.242,2399.425 "/>
<rect x="789.708" y="2273.008" fill="#C4C4C0" stroke="#999999" stroke-linecap="round" stroke-linejoin="round" width="1831.205" height="33.975"/>
<rect x="265.336" y="2309.052" fill="#C4C4C0" stroke="#999999" stroke-linecap="round" stroke-linejoin="round" width="528.743" height="64.049"/>
<polygon fill="#C4C4C0" stroke="#999999" stroke-linecap="round" stroke-linejoin="round" points="793.717,2308.858 
	878.988,2245.584 878.637,2307.532 794.242,2373.425 "/>
<rect x="874.041" y="2050.861" fill="#D6C3AA" width="1760.314" height="224.21"/>
<polygon fill="#AEA08C" points="2634.355,2050.861 701.943,2050.861 701.943,2072.517 2634.355,2072.265 "/>
<polygon fill="#EFEFF0" points="834.075,1940.609 837.236,1977.404 2592.01,1977.404 2588.849,1940.609 "/>
<path fill="#EFEFF0" d="M865.395,1924.977c0,6.163-4.997,11.157-11.167,11.157l0,0c-6.17,0-11.165-4.993-11.165-11.157v-32.572
	c0-6.161,4.995-11.164,11.165-11.164l0,0c6.17,0,11.167,5.004,11.167,11.164V1924.977z"/>
<g>
	<path fill="#EFEFF0" d="M1780.174,1935.473c0,0.364-0.298,0.661-0.661,0.661h-128.948c-0.364,0-0.661-0.298-0.661-0.661v-47.989
		c0-0.364,0.298-0.661,0.661-0.661h128.948c0.364,0,0.661,0.298,0.661,0.661V1935.473z"/>
</g>
<polygon fill="#D6C3AA" points="2653.361,1984.575 682.93,1986.764 755.483,1969.224 2598.381,1969.224 "/>
<polygon fill="#F2F1EA" stroke="#989898" stroke-width="0.4584" points="2653.361,1984.575 682.697,1984.8 682.697,2050.861 
	2653.361,2050.861 "/>
<polygon fill="#BCAC97" points="879.21,2274.446 801.913,2335.624 801.617,2035.768 878.897,2007.827 "/>
<polygon fill="#9A8E7D" points="879.21,2072.489 802.092,2097.22 802.092,2072.489 878.897,2052.448 "/>
<rect x="251.956" y="2072.818" fill="#D6C3AA" width="550.135" height="263.376"/>
<polygon fill="#D6C3AA" points="948.995,1971.004 369.807,1972.847 242.976,1998.024 821.942,1998.264 "/>
<g>
	<polygon fill="#B3B3B3" points="698.511,1740.232 681.811,1737.441 681.811,1822.977 698.872,1822.977 	"/>
	<rect x="381.816" y="1737.441" fill="#C2C2C2" width="299.996" height="72.895"/>
</g>
<g>
	<polygon fill="#502B1B" points="450.608,1656.94 472.401,1735.892 509.366,1735.892 530.846,1656.564 	"/>
	<rect x="450.012" y="1647.904" fill="#999999" width="82.921" height="6.265"/>
	
		<linearGradient id="SVGID_2_" gradientUnits="userSpaceOnUse" x1="499.5051" y1="1850.2227" x2="529.1324" y2="1850.2227" gradientTransform="matrix(1 0.002 -0.0019 0.941 -1.4319 -45.7052)">
		<stop  offset="0" style="stop-color:#FFFFFF"/>
		<stop  offset="0.122" style="stop-color:#EFECEA"/>
		<stop  offset="0.3736" style="stop-color:#C6BAB5"/>
		<stop  offset="0.7293" style="stop-color:#856B60"/>
		<stop  offset="1" style="stop-color:#502B1B"/>
	</linearGradient>
	<polygon opacity="0.54" fill="url(#SVGID_2_)" points="494.482,1733.684 506.416,1733.705 524.26,1659.082 512.325,1659.06 	"/>
	
		<linearGradient id="SVGID_3_" gradientUnits="userSpaceOnUse" x1="495.8643" y1="1850.2408" x2="515.0726" y2="1850.2408" gradientTransform="matrix(1 0.002 -0.0019 0.941 -1.4319 -45.7052)">
		<stop  offset="0" style="stop-color:#FFFFFF"/>
		<stop  offset="0.122" style="stop-color:#EFECEA"/>
		<stop  offset="0.3736" style="stop-color:#C6BAB5"/>
		<stop  offset="0.7293" style="stop-color:#856B60"/>
		<stop  offset="1" style="stop-color:#502B1B"/>
	</linearGradient>
	<polygon opacity="0.54" fill="url(#SVGID_3_)" points="490.842,1733.684 492.357,1733.705 510.201,1659.082 508.683,1659.06 	"/>
	<rect x="512.118" y="1647.904" opacity="0.6" fill="#FFFFFF" width="12.785" height="6.387"/>
	<rect x="509.516" y="1647.904" opacity="0.6" fill="#FFFFFF" width="1.326" height="6.387"/>
</g>
<g>
	<polygon fill="#502B1B" points="572.434,1656.94 594.229,1735.892 631.19,1735.892 652.675,1656.564 	"/>
	<rect x="571.834" y="1647.904" fill="#999999" width="82.93" height="6.265"/>
	
		<linearGradient id="SVGID_4_" gradientUnits="userSpaceOnUse" x1="621.331" y1="1849.9637" x2="650.9542" y2="1849.9637" gradientTransform="matrix(1 0.002 -0.0019 0.941 -1.4319 -45.7052)">
		<stop  offset="0" style="stop-color:#FFFFFF"/>
		<stop  offset="0.122" style="stop-color:#EFECEA"/>
		<stop  offset="0.3736" style="stop-color:#C6BAB5"/>
		<stop  offset="0.7293" style="stop-color:#856B60"/>
		<stop  offset="1" style="stop-color:#502B1B"/>
	</linearGradient>
	<polygon opacity="0.54" fill="url(#SVGID_4_)" points="616.309,1733.684 628.24,1733.705 646.083,1659.082 634.151,1659.06 	"/>
	
		<linearGradient id="SVGID_5_" gradientUnits="userSpaceOnUse" x1="617.6903" y1="1849.9819" x2="636.898" y2="1849.9819" gradientTransform="matrix(1 0.002 -0.0019 0.941 -1.4319 -45.7052)">
		<stop  offset="0" style="stop-color:#FFFFFF"/>
		<stop  offset="0.122" style="stop-color:#EFECEA"/>
		<stop  offset="0.3736" style="stop-color:#C6BAB5"/>
		<stop  offset="0.7293" style="stop-color:#856B60"/>
		<stop  offset="1" style="stop-color:#502B1B"/>
	</linearGradient>
	<polygon opacity="0.54" fill="url(#SVGID_5_)" points="612.668,1733.684 614.184,1733.705 632.027,1659.082 630.506,1659.06 	"/>
	<rect x="633.945" y="1647.904" opacity="0.6" fill="#FFFFFF" width="12.78" height="6.387"/>
	<rect x="631.344" y="1647.904" opacity="0.6" fill="#FFFFFF" width="1.327" height="6.387"/>
</g>
<polygon fill="#F2F1EA" stroke="#989898" stroke-width="0.387" stroke-linecap="round" stroke-linejoin="round" points="
	874.041,1793.421 812.928,1756.915 812.928,1988.285 874.041,1977.286 "/>
<rect x="329.77" y="1756.915" fill="#F2F1EA" stroke="#989898" stroke-width="0.4346" stroke-linecap="round" stroke-linejoin="round" width="483.158" height="231.37"/>
<polygon fill="#F2F1EA" stroke="#989898" stroke-width="0.4366" points="242.976,1998.024 821.508,1998.264 821.508,2072.818 
	243.213,2072.818 "/>
<polygon fill="#F2F1EA" stroke="#989898" stroke-width="0.356" points="821.508,1998.318 884.91,1985.06 884.91,2050.861 
	821.508,2072.966 "/>
<rect x="251.999" y="2072.818" fill="#AEA08C" width="550.092" height="24.402"/>
<polygon fill="#97999C" points="1726.064,1828.752 1558.777,1828.752 1565.263,1957.394 1719.589,1957.394 "/>
<polygon fill="#B3B3B3" points="1726.064,1828.79 1558.777,1828.79 1565.263,1823.414 1719.589,1823.414 "/>
<polygon fill="#B3B3B3" points="1711.222,1973.631 1703.685,1980.455 1580.201,1980.455 1573.628,1973.631 1578.57,1852.452 
	1705.975,1852.452 "/>
<polygon fill="#97999C" points="1704.572,1979.949 1580.274,1979.949 1580.196,1852.452 1704.645,1852.452 "/>
<polygon fill="#B3B3B3" points="1704.497,1855.018 1580.274,1855.018 1578.533,1852.466 1705.946,1852.466 "/>
<g>
	<g>
		<polygon fill="#97999C" points="1807.167,1972.882 1735.07,1972.882 1738.693,1832.374 1803.544,1832.374 		"/>
	</g>
	<rect x="1739.386" y="1789.605" fill="#B3B3B3" width="64.102" height="42.887"/>
</g>
<polygon fill="#97999C" points="2068.518,1828.752 1901.231,1828.752 1907.717,1957.394 2062.043,1957.394 "/>
<polygon fill="#B3B3B3" points="2068.518,1828.79 1901.231,1828.79 1907.717,1823.414 2062.043,1823.414 "/>
<polygon fill="#B3B3B3" points="2053.676,1973.631 2046.138,1980.455 1922.654,1980.455 1916.081,1973.631 1921.024,1852.452 
	2048.429,1852.452 "/>
<polygon fill="#97999C" points="2047.025,1979.949 1922.728,1979.949 1922.65,1852.452 2047.099,1852.452 "/>
<polygon fill="#B3B3B3" points="2046.951,1855.018 1922.728,1855.018 1920.986,1852.466 2048.4,1852.466 "/>
<g>
	<g>
		<polygon fill="#97999C" points="2149.621,1972.882 2077.523,1972.882 2081.146,1832.374 2145.998,1832.374 		"/>
	</g>
	<rect x="2081.84" y="1789.605" fill="#B3B3B3" width="64.102" height="42.887"/>
</g>
<polygon fill="#97999C" points="2410.971,1828.752 2243.684,1828.752 2250.17,1957.394 2404.496,1957.394 "/>
<polygon fill="#B3B3B3" points="2410.971,1828.79 2243.684,1828.79 2250.17,1823.414 2404.496,1823.414 "/>
<polygon fill="#B3B3B3" points="2396.13,1973.631 2388.592,1980.455 2265.108,1980.455 2258.535,1973.631 2263.478,1852.452 
	2390.882,1852.452 "/>
<polygon fill="#97999C" points="2389.479,1979.949 2265.182,1979.949 2265.104,1852.452 2389.552,1852.452 "/>
<polygon fill="#B3B3B3" points="2389.404,1855.018 2265.182,1855.018 2263.44,1852.466 2390.854,1852.466 "/>
<g>
	<g>
		<polygon fill="#97999C" points="2492.074,1972.882 2419.977,1972.882 2423.6,1832.374 2488.452,1832.374 		"/>
	</g>
	<rect x="2424.293" y="1789.605" fill="#B3B3B3" width="64.102" height="42.887"/>
</g>
<ellipse cx="2931.53" cy="2546.091" rx="156.182" ry="43.139"/>
<g>
	<path fill="#999999" d="M3079.124,2534.45l-208.325,49.308c10.375,1.227,21.306,2.153,32.633,2.736l181.918-43.058
		C3084.57,2540.346,3082.442,2537.337,3079.124,2534.45z"/>
	<path fill="#999999" d="M3085.408,2548.511l-163.176,38.622c3.08,0.052,6.179,0.081,9.298,0.081c1.666,0,3.324-0.01,4.978-0.025
		l147.337-34.873C3084.594,2551.064,3085.113,2549.794,3085.408,2548.511z"/>
</g>
<rect x="3060.377" y="1698.68" width="15.338" height="847.407"/>
<rect x="2801.965" y="1698.68" width="258.412" height="13.236"/>
<rect x="2801.965" y="2424.616" width="258.412" height="13.278"/>
<rect x="2786.628" y="1698.68" width="15.338" height="847.407"/>
<rect x="1165.778" y="2082.241" fill="#FFFFFF" stroke="#060303" stroke-miterlimit="10" width="174.009" height="212.251"/>
<g>
	<linearGradient id="SVGID_6_" gradientUnits="userSpaceOnUse" x1="1771.119" y1="1867.6295" x2="1771.119" y2="1993.5566">
		<stop  offset="0" style="stop-color:#D9D9D9"/>
		<stop  offset="1" style="stop-color:#C4C4C4"/>
	</linearGradient>
	<path fill="url(#SVGID_6_)" d="M1795.232,1964.501c0,0.387-0.317,0.703-0.703,0.703h-46.819c-0.387,0-0.703-0.317-0.703-0.703
		v-26.057c0-0.387,0.317-0.703,0.703-0.703h46.819c0.387,0,0.703,0.317,0.703,0.703V1964.501z"/>
	<path fill="none" stroke="#989898" stroke-width="0.3794" stroke-linecap="round" stroke-linejoin="round" d="M1795.232,1964.501
		c0,0.387-0.317,0.703-0.703,0.703h-46.819c-0.387,0-0.703-0.317-0.703-0.703v-26.057c0-0.387,0.317-0.703,0.703-0.703h46.819
		c0.387,0,0.703,0.317,0.703,0.703V1964.501z"/>
</g>
<g>
	<linearGradient id="SVGID_7_" gradientUnits="userSpaceOnUse" x1="1771.119" y1="1867.6343" x2="1771.119" y2="1993.5575">
		<stop  offset="0" style="stop-color:#D9D9D9"/>
		<stop  offset="1" style="stop-color:#C4C4C4"/>
	</linearGradient>
	<path fill="url(#SVGID_7_)" d="M1795.232,1931.541c0,0.387-0.317,0.703-0.703,0.703h-46.819c-0.387,0-0.703-0.317-0.703-0.703
		v-26.056c0-0.387,0.317-0.703,0.703-0.703h46.819c0.387,0,0.703,0.317,0.703,0.703V1931.541z"/>
	<path fill="none" stroke="#989898" stroke-width="0.3794" stroke-linecap="round" stroke-linejoin="round" d="M1795.232,1931.541
		c0,0.387-0.317,0.703-0.703,0.703h-46.819c-0.387,0-0.703-0.317-0.703-0.703v-26.056c0-0.387,0.317-0.703,0.703-0.703h46.819
		c0.387,0,0.703,0.317,0.703,0.703V1931.541z"/>
</g>
<g>
	<linearGradient id="SVGID_8_" gradientUnits="userSpaceOnUse" x1="1771.119" y1="1867.6333" x2="1771.119" y2="1993.5477">
		<stop  offset="0" style="stop-color:#D9D9D9"/>
		<stop  offset="1" style="stop-color:#C4C4C4"/>
	</linearGradient>
	<path fill="url(#SVGID_8_)" d="M1795.232,1899.012c0,0.387-0.317,0.703-0.703,0.703h-46.819c-0.387,0-0.703-0.317-0.703-0.703
		v-26.054c0-0.387,0.317-0.703,0.703-0.703h46.819c0.387,0,0.703,0.317,0.703,0.703V1899.012z"/>
	<path fill="none" stroke="#989898" stroke-width="0.3794" stroke-linecap="round" stroke-linejoin="round" d="M1795.232,1899.012
		c0,0.387-0.317,0.703-0.703,0.703h-46.819c-0.387,0-0.703-0.317-0.703-0.703v-26.054c0-0.387,0.317-0.703,0.703-0.703h46.819
		c0.387,0,0.703,0.317,0.703,0.703V1899.012z"/>
</g>
<g>
	<linearGradient id="SVGID_9_" gradientUnits="userSpaceOnUse" x1="1771.119" y1="1867.6321" x2="1771.119" y2="1993.5548">
		<stop  offset="0" style="stop-color:#D9D9D9"/>
		<stop  offset="1" style="stop-color:#C4C4C4"/>
	</linearGradient>
	<path fill="url(#SVGID_9_)" d="M1795.232,1866.419c0,0.387-0.317,0.703-0.703,0.703h-46.819c-0.387,0-0.703-0.317-0.703-0.703
		v-26.056c0-0.387,0.317-0.703,0.703-0.703h46.819c0.387,0,0.703,0.317,0.703,0.703V1866.419z"/>
	<path fill="none" stroke="#989898" stroke-width="0.3794" stroke-linecap="round" stroke-linejoin="round" d="M1795.232,1866.419
		c0,0.387-0.317,0.703-0.703,0.703h-46.819c-0.387,0-0.703-0.317-0.703-0.703v-26.056c0-0.387,0.317-0.703,0.703-0.703h46.819
		c0.387,0,0.703,0.317,0.703,0.703V1866.419z"/>
</g>
<g>
	<linearGradient id="SVGID_10_" gradientUnits="userSpaceOnUse" x1="2113.5725" y1="1867.6295" x2="2113.5725" y2="1993.5566">
		<stop  offset="0" style="stop-color:#D9D9D9"/>
		<stop  offset="1" style="stop-color:#C4C4C4"/>
	</linearGradient>
	<path fill="url(#SVGID_10_)" d="M2137.685,1964.501c0,0.387-0.316,0.703-0.703,0.703h-46.819c-0.387,0-0.703-0.317-0.703-0.703
		v-26.057c0-0.387,0.317-0.703,0.703-0.703h46.819c0.387,0,0.703,0.317,0.703,0.703V1964.501z"/>
	<path fill="none" stroke="#989898" stroke-width="0.3794" stroke-linecap="round" stroke-linejoin="round" d="M2137.685,1964.501
		c0,0.387-0.316,0.703-0.703,0.703h-46.819c-0.387,0-0.703-0.317-0.703-0.703v-26.057c0-0.387,0.317-0.703,0.703-0.703h46.819
		c0.387,0,0.703,0.317,0.703,0.703V1964.501z"/>
</g>
<g>
	<linearGradient id="SVGID_11_" gradientUnits="userSpaceOnUse" x1="2113.5725" y1="1867.6343" x2="2113.5725" y2="1993.5575">
		<stop  offset="0" style="stop-color:#D9D9D9"/>
		<stop  offset="1" style="stop-color:#C4C4C4"/>
	</linearGradient>
	<path fill="url(#SVGID_11_)" d="M2137.685,1931.541c0,0.387-0.316,0.703-0.703,0.703h-46.819c-0.387,0-0.703-0.317-0.703-0.703
		v-26.056c0-0.387,0.317-0.703,0.703-0.703h46.819c0.387,0,0.703,0.317,0.703,0.703V1931.541z"/>
	<path fill="none" stroke="#989898" stroke-width="0.3794" stroke-linecap="round" stroke-linejoin="round" d="M2137.685,1931.541
		c0,0.387-0.316,0.703-0.703,0.703h-46.819c-0.387,0-0.703-0.317-0.703-0.703v-26.056c0-0.387,0.317-0.703,0.703-0.703h46.819
		c0.387,0,0.703,0.317,0.703,0.703V1931.541z"/>
</g>
<g>
	<linearGradient id="SVGID_12_" gradientUnits="userSpaceOnUse" x1="2113.5725" y1="1867.6333" x2="2113.5725" y2="1993.5477">
		<stop  offset="0" style="stop-color:#D9D9D9"/>
		<stop  offset="1" style="stop-color:#C4C4C4"/>
	</linearGradient>
	<path fill="url(#SVGID_12_)" d="M2137.685,1899.012c0,0.387-0.316,0.703-0.703,0.703h-46.819c-0.387,0-0.703-0.317-0.703-0.703
		v-26.054c0-0.387,0.317-0.703,0.703-0.703h46.819c0.387,0,0.703,0.317,0.703,0.703V1899.012z"/>
	<path fill="none" stroke="#989898" stroke-width="0.3794" stroke-linecap="round" stroke-linejoin="round" d="M2137.685,1899.012
		c0,0.387-0.316,0.703-0.703,0.703h-46.819c-0.387,0-0.703-0.317-0.703-0.703v-26.054c0-0.387,0.317-0.703,0.703-0.703h46.819
		c0.387,0,0.703,0.317,0.703,0.703V1899.012z"/>
</g>
<g>
	<linearGradient id="SVGID_13_" gradientUnits="userSpaceOnUse" x1="2113.5725" y1="1867.6321" x2="2113.5725" y2="1993.5548">
		<stop  offset="0" style="stop-color:#D9D9D9"/>
		<stop  offset="1" style="stop-color:#C4C4C4"/>
	</linearGradient>
	<path fill="url(#SVGID_13_)" d="M2137.685,1866.419c0,0.387-0.316,0.703-0.703,0.703h-46.819c-0.387,0-0.703-0.317-0.703-0.703
		v-26.056c0-0.387,0.317-0.703,0.703-0.703h46.819c0.387,0,0.703,0.317,0.703,0.703V1866.419z"/>
	<path fill="none" stroke="#989898" stroke-width="0.3794" stroke-linecap="round" stroke-linejoin="round" d="M2137.685,1866.419
		c0,0.387-0.316,0.703-0.703,0.703h-46.819c-0.387,0-0.703-0.317-0.703-0.703v-26.056c0-0.387,0.317-0.703,0.703-0.703h46.819
		c0.387,0,0.703,0.317,0.703,0.703V1866.419z"/>
</g>
<g>
	<linearGradient id="SVGID_14_" gradientUnits="userSpaceOnUse" x1="2456.0261" y1="1867.6295" x2="2456.0261" y2="1993.5566">
		<stop  offset="0" style="stop-color:#D9D9D9"/>
		<stop  offset="1" style="stop-color:#C4C4C4"/>
	</linearGradient>
	<path fill="url(#SVGID_14_)" d="M2480.139,1964.501c0,0.387-0.316,0.703-0.703,0.703h-46.819c-0.387,0-0.703-0.317-0.703-0.703
		v-26.057c0-0.387,0.317-0.703,0.703-0.703h46.819c0.387,0,0.703,0.317,0.703,0.703V1964.501z"/>
	<path fill="none" stroke="#989898" stroke-width="0.3794" stroke-linecap="round" stroke-linejoin="round" d="M2480.139,1964.501
		c0,0.387-0.316,0.703-0.703,0.703h-46.819c-0.387,0-0.703-0.317-0.703-0.703v-26.057c0-0.387,0.317-0.703,0.703-0.703h46.819
		c0.387,0,0.703,0.317,0.703,0.703V1964.501z"/>
</g>
<g>
	<linearGradient id="SVGID_15_" gradientUnits="userSpaceOnUse" x1="2456.0261" y1="1867.6343" x2="2456.0261" y2="1993.5575">
		<stop  offset="0" style="stop-color:#D9D9D9"/>
		<stop  offset="1" style="stop-color:#C4C4C4"/>
	</linearGradient>
	<path fill="url(#SVGID_15_)" d="M2480.139,1931.541c0,0.387-0.316,0.703-0.703,0.703h-46.819c-0.387,0-0.703-0.317-0.703-0.703
		v-26.056c0-0.387,0.317-0.703,0.703-0.703h46.819c0.387,0,0.703,0.317,0.703,0.703V1931.541z"/>
	<path fill="none" stroke="#989898" stroke-width="0.3794" stroke-linecap="round" stroke-linejoin="round" d="M2480.139,1931.541
		c0,0.387-0.316,0.703-0.703,0.703h-46.819c-0.387,0-0.703-0.317-0.703-0.703v-26.056c0-0.387,0.317-0.703,0.703-0.703h46.819
		c0.387,0,0.703,0.317,0.703,0.703V1931.541z"/>
</g>
<g>
	<linearGradient id="SVGID_16_" gradientUnits="userSpaceOnUse" x1="2456.0261" y1="1867.6333" x2="2456.0261" y2="1993.5477">
		<stop  offset="0" style="stop-color:#D9D9D9"/>
		<stop  offset="1" style="stop-color:#C4C4C4"/>
	</linearGradient>
	<path fill="url(#SVGID_16_)" d="M2480.139,1899.012c0,0.387-0.316,0.703-0.703,0.703h-46.819c-0.387,0-0.703-0.317-0.703-0.703
		v-26.054c0-0.387,0.317-0.703,0.703-0.703h46.819c0.387,0,0.703,0.317,0.703,0.703V1899.012z"/>
	<path fill="none" stroke="#989898" stroke-width="0.3794" stroke-linecap="round" stroke-linejoin="round" d="M2480.139,1899.012
		c0,0.387-0.316,0.703-0.703,0.703h-46.819c-0.387,0-0.703-0.317-0.703-0.703v-26.054c0-0.387,0.317-0.703,0.703-0.703h46.819
		c0.387,0,0.703,0.317,0.703,0.703V1899.012z"/>
</g>
<g>
	<linearGradient id="SVGID_17_" gradientUnits="userSpaceOnUse" x1="2456.0261" y1="1867.6321" x2="2456.0261" y2="1993.5548">
		<stop  offset="0" style="stop-color:#D9D9D9"/>
		<stop  offset="1" style="stop-color:#C4C4C4"/>
	</linearGradient>
	<path fill="url(#SVGID_17_)" d="M2480.139,1866.419c0,0.387-0.316,0.703-0.703,0.703h-46.819c-0.387,0-0.703-0.317-0.703-0.703
		v-26.056c0-0.387,0.317-0.703,0.703-0.703h46.819c0.387,0,0.703,0.317,0.703,0.703V1866.419z"/>
	<path fill="none" stroke="#989898" stroke-width="0.3794" stroke-linecap="round" stroke-linejoin="round" d="M2480.139,1866.419
		c0,0.387-0.316,0.703-0.703,0.703h-46.819c-0.387,0-0.703-0.317-0.703-0.703v-26.056c0-0.387,0.317-0.703,0.703-0.703h46.819
		c0.387,0,0.703,0.317,0.703,0.703V1866.419z"/>
</g>
<rect x="2801.965" y="1711.916" fill="#FFFFFF" stroke="#000000" stroke-width="2" stroke-miterlimit="10" width="258.412" height="712.7"/>
<g>
	<path fill="#58595B" d="M199.645,1066.427v-12.299c0-0.609,0.058-3.249,0.058-5.192h-0.058l-5.859,17.491h-2.785l-5.859-17.462
		h-0.058c0,1.914,0.058,4.554,0.058,5.163v12.299h-2.727V1045.6h4.032l5.946,17.607h0.058l5.917-17.607h4.003v20.827H199.645z"/>
	<path fill="#58595B" d="M215.825,1056.361c-0.319-2.03-1.45-3.249-3.597-3.249c-3.162,0-4.177,3.017-4.177,5.715
		c0,2.61,0.638,5.83,4.148,5.83c1.711,0,3.191-1.276,3.626-3.597h2.466c-0.261,2.407-1.741,5.802-6.179,5.802
		c-4.264,0-6.788-3.221-6.788-7.601c0-4.699,2.263-8.44,7.281-8.44c3.974,0,5.482,2.9,5.686,5.54H215.825z"/>
	<path fill="#58595B" d="M235.778,1051.865c-0.783-3.655-3.829-4.322-5.831-4.322c-3.771,0-6.817,2.785-6.817,8.268
		c0,4.901,1.741,8.673,6.904,8.673c1.828,0,4.989-0.87,5.946-5.715h2.727c-1.161,7.861-7.542,8.209-9.108,8.209
		c-4.728,0-9.369-3.074-9.369-11.08c0-6.411,3.655-10.849,9.717-10.849c5.366,0,8.151,3.336,8.557,6.816H235.778z"/>
	<path fill="#58595B" d="M241.69,1055.868c0.116-3.626,2.524-5.047,6.266-5.047c1.218,0,5.627,0.348,5.627,4.234v8.731
		c0,0.638,0.319,0.899,0.841,0.899c0.232,0,0.551-0.059,0.841-0.116v1.856c-0.435,0.116-0.812,0.29-1.392,0.29
		c-2.263,0-2.611-1.16-2.698-2.32c-0.986,1.073-2.523,2.466-5.482,2.466c-2.785,0-4.757-1.77-4.757-4.381
		c0-1.276,0.377-4.234,4.612-4.757l4.206-0.522c0.609-0.058,1.334-0.29,1.334-1.798c0-1.596-1.16-2.466-3.568-2.466
		c-2.901,0-3.307,1.77-3.481,2.93H241.69z M251.03,1058.682c-0.406,0.319-1.044,0.552-4.206,0.957
		c-1.247,0.175-3.249,0.552-3.249,2.466c0,1.653,0.841,2.64,2.755,2.64c2.379,0,4.699-1.537,4.699-3.567V1058.682z"/>
	<path fill="#58595B" d="M261.063,1053.374v13.053h-2.553v-13.053h-2.088v-2.118h2.088v-2.61c0-2.292,1.45-3.336,3.945-3.336
		c0.377,0,0.754,0.029,1.16,0.059v2.291c-0.319-0.029-0.725-0.058-1.044-0.058c-1.103,0-1.508,0.551-1.508,1.77v1.885h2.552v2.118
		H261.063z"/>
	<path fill="#58595B" d="M277.978,1061.67c-0.087,0.725-0.783,2.871-2.698,4.147c-0.696,0.464-1.683,1.045-4.119,1.045
		c-4.264,0-6.788-3.221-6.788-7.601c0-4.699,2.263-8.44,7.281-8.44c4.38,0,6.527,3.48,6.527,8.847H267.1
		c0,3.162,1.479,4.989,4.409,4.989c2.408,0,3.829-1.856,3.916-2.987H277.978z M275.542,1057.638
		c-0.145-2.35-1.131-4.525-4.235-4.525c-2.35,0-4.206,2.176-4.206,4.525H275.542z"/>
	<path fill="#58595B" d="M289.749,1045.6h8.441c5.424,0,8.76,4.119,8.76,10.124c0,4.67-2.031,10.703-8.876,10.703h-8.325V1045.6z
		 M292.563,1064.02h5.454c3.655,0,6.033-2.872,6.033-8.122s-2.408-7.89-6.236-7.89h-5.25V1064.02z"/>
	<path fill="#58595B" d="M327.685,1066.427v-12.299c0-0.609,0.058-3.249,0.058-5.192h-0.058l-5.859,17.491h-2.785l-5.859-17.462
		h-0.058c0,1.914,0.058,4.554,0.058,5.163v12.299h-2.727V1045.6h4.032l5.946,17.607h0.058l5.917-17.607h4.003v20.827H327.685z"/>
	<path fill="#58595B" d="M334.64,1045.6h9.166c3.887,0,5.889,2.408,5.889,5.25c0,1.363-0.493,3.278-2.785,4.352
		c1.363,0.551,3.771,1.508,3.771,5.076c0,3.336-2.466,6.149-7.078,6.149h-8.963V1045.6z M337.454,1054.418h5.077
		c2.697,0,4.351-0.812,4.351-3.365c0-1.943-1.189-3.045-4.322-3.045h-5.105V1054.418z M337.454,1064.02h6.005
		c2.93,0,4.409-1.479,4.409-3.8c0-2.93-2.582-3.511-4.873-3.511h-5.541V1064.02z"/>
	<path fill="#58595B" d="M364.917,1063.933h10.559v2.494h-13.372V1045.6h2.813V1063.933z"/>
	<path fill="#58595B" d="M384.087,1050.821c4.844,0,7.049,4.09,7.049,8.006s-2.205,8.006-7.049,8.006s-7.049-4.09-7.049-8.006
		S379.242,1050.821,384.087,1050.821z M384.087,1064.628c3.655,0,4.409-3.771,4.409-5.801s-0.754-5.802-4.409-5.802
		s-4.409,3.771-4.409,5.802S380.432,1064.628,384.087,1064.628z"/>
	<path fill="#58595B" d="M400.211,1050.821c4.844,0,7.049,4.09,7.049,8.006s-2.205,8.006-7.049,8.006s-7.049-4.09-7.049-8.006
		S395.367,1050.821,400.211,1050.821z M400.211,1064.628c3.655,0,4.409-3.771,4.409-5.801s-0.754-5.802-4.409-5.802
		s-4.409,3.771-4.409,5.802S396.556,1064.628,400.211,1064.628z"/>
	<path fill="#58595B" d="M409.953,1051.256h2.407v2.146h0.058c0.609-0.87,1.77-2.581,4.525-2.581c4.032,0,6.324,3.307,6.324,7.57
		c0,3.626-1.508,8.471-6.671,8.471c-2.031,0-3.365-0.958-4.032-2.031h-0.058v7.601h-2.552V1051.256z M416.538,1064.657
		c2.785,0,4.09-2.523,4.09-5.859c0-1.943-0.203-5.686-4.148-5.686c-3.684,0-4.09,3.975-4.09,6.439
		C412.39,1063.584,414.913,1064.657,416.538,1064.657z"/>
</g>
<g>
	<path fill="#58595B" d="M363.517,1505.486c-0.783-3.655-3.829-4.322-5.831-4.322c-3.771,0-6.817,2.785-6.817,8.268
		c0,4.901,1.741,8.673,6.904,8.673c1.828,0,4.989-0.87,5.946-5.715h2.727c-1.161,7.861-7.542,8.209-9.108,8.209
		c-4.728,0-9.369-3.074-9.369-11.08c0-6.411,3.655-10.849,9.717-10.849c5.366,0,8.151,3.336,8.557,6.816H363.517z"/>
	<path fill="#58595B" d="M372.416,1520.047h-2.553v-15.171h2.408v2.523h0.058c1.015-1.769,2.35-2.958,4.264-2.958
		c0.319,0,0.464,0.028,0.667,0.087v2.64h-0.958c-2.378,0-3.887,1.856-3.887,4.061V1520.047z"/>
	<path fill="#58595B" d="M392.052,1515.291c-0.087,0.725-0.783,2.871-2.698,4.147c-0.696,0.464-1.683,1.045-4.119,1.045
		c-4.264,0-6.788-3.221-6.788-7.601c0-4.699,2.263-8.44,7.281-8.44c4.38,0,6.527,3.48,6.527,8.847h-11.081
		c0,3.162,1.479,4.989,4.409,4.989c2.408,0,3.829-1.856,3.916-2.987H392.052z M389.615,1511.258
		c-0.145-2.35-1.131-4.525-4.235-4.525c-2.35,0-4.206,2.176-4.206,4.525H389.615z"/>
	<path fill="#58595B" d="M400.264,1520.047h-2.64l-4.38-15.171h2.785l2.9,11.922h0.058l2.93-11.922h2.843l2.958,11.922h0.058
		l3.075-11.922h2.553l-4.409,15.171h-2.64l-3.075-11.748h-0.058L400.264,1520.047z"/>
	<path fill="#58595B" d="M427.145,1520.047h-2.813v-20.827h9.369c3.858,0,6.179,2.495,6.179,5.859c0,2.901-1.653,6.179-6.179,6.179
		h-6.556V1520.047z M427.145,1508.851h5.599c2.523,0,4.235-0.929,4.235-3.742c0-2.64-1.798-3.48-4.119-3.48h-5.714V1508.851z"/>
	<path fill="#58595B" d="M447.8,1504.442c4.844,0,7.049,4.09,7.049,8.006s-2.205,8.006-7.049,8.006s-7.049-4.09-7.049-8.006
		S442.956,1504.442,447.8,1504.442z M447.8,1518.249c3.655,0,4.409-3.771,4.409-5.801s-0.754-5.802-4.409-5.802
		s-4.409,3.771-4.409,5.802S444.145,1518.249,447.8,1518.249z"/>
	<path fill="#58595B" d="M466.36,1509.199c-0.029-0.957-0.377-2.553-3.597-2.553c-0.783,0-3.017,0.261-3.017,2.146
		c0,1.247,0.783,1.537,2.756,2.03l2.553,0.639c3.162,0.783,4.264,1.943,4.264,4.003c0,3.133-2.582,5.019-6.004,5.019
		c-6.004,0-6.439-3.481-6.526-5.309h2.466c0.087,1.189,0.435,3.104,4.032,3.104c1.828,0,3.481-0.725,3.481-2.407
		c0-1.219-0.841-1.625-3.017-2.176l-2.958-0.726c-2.118-0.521-3.51-1.595-3.51-3.684c0-3.336,2.755-4.844,5.743-4.844
		c5.424,0,5.802,4.003,5.802,4.757H466.36z"/>
	<path fill="#58595B" d="M475.378,1506.995v9.862c0,1.188,1.015,1.188,1.538,1.188h0.899v2.002
		c-0.928,0.087-1.653,0.203-1.914,0.203c-2.524,0-3.075-1.422-3.075-3.249v-10.007h-2.06v-2.118h2.06v-4.234h2.552v4.234h2.437
		v2.118H475.378z"/>
	<path fill="#58595B" d="M493.186,1515.291c-0.087,0.725-0.783,2.871-2.698,4.147c-0.696,0.464-1.683,1.045-4.119,1.045
		c-4.264,0-6.788-3.221-6.788-7.601c0-4.699,2.263-8.44,7.281-8.44c4.38,0,6.527,3.48,6.527,8.847h-11.081
		c0,3.162,1.479,4.989,4.409,4.989c2.408,0,3.829-1.856,3.916-2.987H493.186z M490.75,1511.258c-0.145-2.35-1.131-4.525-4.235-4.525
		c-2.35,0-4.206,2.176-4.206,4.525H490.75z"/>
	<path fill="#58595B" d="M499.332,1520.047h-2.553v-15.171h2.408v2.523h0.058c1.015-1.769,2.35-2.958,4.264-2.958
		c0.319,0,0.464,0.028,0.667,0.087v2.64h-0.958c-2.378,0-3.887,1.856-3.887,4.061V1520.047z"/>
</g>
<g>
	<path fill="#58595B" d="M2850.397,2471.498h-2.814v-20.827h9.37c3.857,0,6.178,2.495,6.178,5.859c0,2.901-1.653,6.179-6.178,6.179
		h-6.556V2471.498z M2850.397,2460.302h5.598c2.524,0,4.235-0.929,4.235-3.742c0-2.64-1.799-3.48-4.119-3.48h-5.714V2460.302z"/>
	<path fill="#58595B" d="M2868.608,2471.498h-2.553v-15.171h2.408v2.523h0.058c1.016-1.769,2.35-2.958,4.264-2.958
		c0.319,0,0.465,0.028,0.667,0.087v2.64h-0.957c-2.378,0-3.887,1.856-3.887,4.061V2471.498z"/>
	<path fill="#58595B" d="M2887.635,2466.741c-0.087,0.725-0.783,2.871-2.698,4.147c-0.695,0.464-1.682,1.045-4.118,1.045
		c-4.265,0-6.788-3.221-6.788-7.601c0-4.699,2.263-8.44,7.281-8.44c4.38,0,6.526,3.48,6.526,8.847h-11.081
		c0,3.162,1.479,4.989,4.409,4.989c2.407,0,3.829-1.856,3.916-2.987H2887.635z M2885.198,2462.709
		c-0.146-2.35-1.132-4.525-4.235-4.525c-2.35,0-4.206,2.176-4.206,4.525H2885.198z"/>
	<path fill="#58595B" d="M2896.768,2464.768h-7.106v-2.61h7.106V2464.768z"/>
	<path fill="#58595B" d="M2912.198,2456.762c-0.146-3.22-2.813-4.235-5.163-4.235c-1.77,0-4.758,0.493-4.758,3.655
		c0,1.77,1.248,2.35,2.466,2.64l5.946,1.363c2.698,0.638,4.729,2.263,4.729,5.569c0,4.931-4.583,6.294-8.151,6.294
		c-3.857,0-5.366-1.16-6.294-2.001c-1.77-1.596-2.118-3.336-2.118-5.279h2.64c0,3.771,3.075,4.873,5.744,4.873
		c2.03,0,5.453-0.522,5.453-3.51c0-2.176-1.016-2.872-4.438-3.684l-4.264-0.986c-1.363-0.319-4.438-1.276-4.438-4.902
		c0-3.249,2.118-6.439,7.165-6.439c7.28,0,8.006,4.351,8.122,6.643H2912.198z"/>
	<path fill="#58595B" d="M2930.931,2466.741c-0.087,0.725-0.783,2.871-2.698,4.147c-0.695,0.464-1.682,1.045-4.118,1.045
		c-4.265,0-6.788-3.221-6.788-7.601c0-4.699,2.263-8.44,7.281-8.44c4.38,0,6.526,3.48,6.526,8.847h-11.081
		c0,3.162,1.479,4.989,4.409,4.989c2.407,0,3.829-1.856,3.916-2.987H2930.931z M2928.495,2462.709
		c-0.146-2.35-1.132-4.525-4.235-4.525c-2.35,0-4.206,2.176-4.206,4.525H2928.495z"/>
	<path fill="#58595B" d="M2936.177,2471.498h-2.553v-20.827h2.553V2471.498z"/>
	<path fill="#58595B" d="M2942.007,2471.498h-2.553v-20.827h2.553V2471.498z"/>
	<path fill="#58595B" d="M2955.81,2471.498h-2.814v-20.827h2.814v10.095l10.094-10.095h3.888l-8.674,8.412l8.905,12.415h-3.654
		l-7.281-10.442l-3.277,3.133V2471.498z"/>
	<path fill="#58595B" d="M2971.469,2453.571v-2.9h2.553v2.9H2971.469z M2974.021,2471.498h-2.553v-15.171h2.553V2471.498z"/>
	<path fill="#58595B" d="M2983.418,2455.892c4.845,0,7.049,4.09,7.049,8.006s-2.204,8.006-7.049,8.006
		c-4.844,0-7.048-4.09-7.048-8.006S2978.574,2455.892,2983.418,2455.892z M2983.418,2469.699c3.655,0,4.409-3.771,4.409-5.801
		s-0.754-5.802-4.409-5.802c-3.654,0-4.408,3.771-4.408,5.802S2979.763,2469.699,2983.418,2469.699z"/>
	<path fill="#58595B" d="M3001.37,2460.649c-0.029-0.957-0.378-2.553-3.598-2.553c-0.783,0-3.017,0.261-3.017,2.146
		c0,1.247,0.783,1.537,2.756,2.03l2.553,0.639c3.162,0.783,4.264,1.943,4.264,4.003c0,3.133-2.581,5.019-6.004,5.019
		c-6.005,0-6.439-3.481-6.526-5.309h2.465c0.087,1.189,0.436,3.104,4.032,3.104c1.827,0,3.48-0.725,3.48-2.407
		c0-1.219-0.841-1.625-3.017-2.176l-2.958-0.726c-2.118-0.521-3.511-1.595-3.511-3.684c0-3.336,2.756-4.844,5.744-4.844
		c5.424,0,5.801,4.003,5.801,4.757H3001.37z"/>
	<path fill="#58595B" d="M3019.293,2471.498h-3.277l-4.729-7.658l-2.117,1.915v5.743h-2.466v-20.827h2.466v12.067l6.526-6.411h3.249
		l-5.802,5.656L3019.293,2471.498z"/>
</g>
<g>
	<path fill="#58595B" d="M2112.33,2022.95l-2.176,6.062h-2.9l7.832-20.827h3.19l7.542,20.827h-3.075l-2.06-6.062H2112.33z
		 M2119.668,2020.456l-3.075-9.167h-0.058l-3.336,9.167H2119.668z"/>
	<path fill="#58595B" d="M2130.976,2029.012h-2.553v-15.171h2.407v2.523h0.059c1.016-1.769,2.35-2.958,4.264-2.958
		c0.319,0,0.465,0.028,0.667,0.087v2.64h-0.957c-2.378,0-3.887,1.856-3.887,4.061V2029.012z"/>
	<path fill="#58595B" d="M2147.218,2018.947c-0.319-2.03-1.451-3.249-3.598-3.249c-3.161,0-4.177,3.017-4.177,5.715
		c0,2.61,0.639,5.83,4.148,5.83c1.711,0,3.19-1.276,3.626-3.597h2.465c-0.261,2.407-1.74,5.802-6.178,5.802
		c-4.265,0-6.788-3.221-6.788-7.601c0-4.699,2.263-8.44,7.281-8.44c3.974,0,5.481,2.9,5.685,5.54H2147.218z"/>
	<path fill="#58595B" d="M2164.589,2029.012h-2.553v-9.92c0-2.06-0.58-3.395-3.017-3.395c-2.088,0-4.234,1.219-4.234,5.048v8.267
		h-2.553v-20.827h2.553v7.687h0.058c0.726-0.957,2.001-2.465,4.438-2.465c2.35,0,5.308,0.957,5.308,5.279V2029.012z"/>
	<path fill="#58595B" d="M2191.357,2014.451c-0.783-3.655-3.829-4.322-5.831-4.322c-3.771,0-6.816,2.785-6.816,8.268
		c0,4.901,1.74,8.673,6.904,8.673c1.827,0,4.989-0.87,5.946-5.715h2.727c-1.16,7.861-7.542,8.209-9.108,8.209
		c-4.729,0-9.369-3.074-9.369-11.08c0-6.411,3.655-10.849,9.717-10.849c5.367,0,8.151,3.336,8.558,6.816H2191.357z"/>
	<path fill="#58595B" d="M2197.269,2018.454c0.115-3.626,2.523-5.047,6.265-5.047c1.219,0,5.628,0.348,5.628,4.234v8.731
		c0,0.638,0.319,0.899,0.841,0.899c0.232,0,0.552-0.059,0.842-0.116v1.856c-0.436,0.116-0.812,0.29-1.393,0.29
		c-2.263,0-2.61-1.16-2.697-2.32c-0.986,1.073-2.524,2.466-5.482,2.466c-2.785,0-4.758-1.77-4.758-4.381
		c0-1.276,0.377-4.234,4.612-4.757l4.206-0.522c0.609-0.058,1.334-0.29,1.334-1.798c0-1.596-1.16-2.466-3.567-2.466
		c-2.9,0-3.307,1.77-3.48,2.93H2197.269z M2206.609,2021.267c-0.406,0.319-1.044,0.552-4.206,0.957
		c-1.247,0.175-3.249,0.552-3.249,2.466c0,1.653,0.842,2.64,2.756,2.64c2.379,0,4.699-1.537,4.699-3.567V2021.267z"/>
	<path fill="#58595B" d="M2216.38,2029.012h-2.553v-15.171h2.407v2.523h0.059c1.016-1.769,2.35-2.958,4.264-2.958
		c0.319,0,0.465,0.028,0.667,0.087v2.64h-0.957c-2.378,0-3.887,1.856-3.887,4.061V2029.012z"/>
	<path fill="#58595B" d="M2235.726,2029.012h-2.407v-2.089h-0.059c-1.103,2.06-2.843,2.524-4.322,2.524
		c-5.163,0-6.671-4.845-6.671-8.471c0-4.264,2.291-7.57,6.323-7.57c2.756,0,3.916,1.711,4.525,2.581l0.058-0.203v-7.6h2.553
		V2029.012z M2228.997,2027.243c1.624,0,4.147-1.073,4.147-5.105c0-2.465-0.406-6.439-4.09-6.439c-3.944,0-4.147,3.742-4.147,5.686
		C2224.907,2024.719,2226.211,2027.243,2228.997,2027.243z"/>
	<path fill="#58595B" d="M2247.787,2008.185h8.441c5.424,0,8.76,4.119,8.76,10.124c0,4.67-2.03,10.703-8.876,10.703h-8.325V2008.185
		z M2250.6,2026.605h5.453c3.655,0,6.034-2.872,6.034-8.122s-2.408-7.89-6.237-7.89h-5.25V2026.605z"/>
	<path fill="#58595B" d="M2268.318,2011.086v-2.9h2.553v2.9H2268.318z M2270.871,2029.012h-2.553v-15.171h2.553V2029.012z"/>
	<path fill="#58595B" d="M2283.313,2018.164c-0.029-0.957-0.378-2.553-3.598-2.553c-0.783,0-3.017,0.261-3.017,2.146
		c0,1.247,0.783,1.537,2.756,2.03l2.553,0.639c3.162,0.783,4.264,1.943,4.264,4.003c0,3.133-2.581,5.019-6.004,5.019
		c-6.005,0-6.439-3.481-6.526-5.309h2.465c0.087,1.189,0.436,3.104,4.032,3.104c1.827,0,3.48-0.725,3.48-2.407
		c0-1.219-0.841-1.625-3.017-2.176l-2.958-0.726c-2.118-0.521-3.511-1.595-3.511-3.684c0-3.336,2.756-4.844,5.744-4.844
		c5.424,0,5.801,4.003,5.801,4.757H2283.313z"/>
	<path fill="#58595B" d="M2288.995,2013.842h2.407v2.146h0.059c0.608-0.87,1.769-2.581,4.524-2.581c4.032,0,6.324,3.307,6.324,7.57
		c0,3.626-1.509,8.471-6.672,8.471c-2.03,0-3.365-0.958-4.032-2.031h-0.058v7.601h-2.553V2013.842z M2295.579,2027.243
		c2.785,0,4.091-2.523,4.091-5.859c0-1.943-0.203-5.686-4.148-5.686c-3.684,0-4.09,3.975-4.09,6.439
		C2291.431,2026.17,2293.955,2027.243,2295.579,2027.243z"/>
	<path fill="#58595B" d="M2307.932,2029.012h-2.553v-20.827h2.553V2029.012z"/>
	<path fill="#58595B" d="M2311.672,2018.454c0.115-3.626,2.523-5.047,6.265-5.047c1.219,0,5.628,0.348,5.628,4.234v8.731
		c0,0.638,0.319,0.899,0.841,0.899c0.232,0,0.552-0.059,0.842-0.116v1.856c-0.436,0.116-0.812,0.29-1.393,0.29
		c-2.263,0-2.61-1.16-2.697-2.32c-0.986,1.073-2.524,2.466-5.482,2.466c-2.785,0-4.758-1.77-4.758-4.381
		c0-1.276,0.377-4.234,4.612-4.757l4.206-0.522c0.609-0.058,1.334-0.29,1.334-1.798c0-1.596-1.16-2.466-3.567-2.466
		c-2.9,0-3.307,1.77-3.48,2.93H2311.672z M2321.012,2021.267c-0.406,0.319-1.044,0.552-4.206,0.957
		c-1.247,0.175-3.249,0.552-3.249,2.466c0,1.653,0.842,2.64,2.756,2.64c2.379,0,4.699-1.537,4.699-3.567V2021.267z"/>
	<path fill="#58595B" d="M2336.505,2013.842h2.813c-1.77,4.96-3.51,9.921-5.453,14.881c-2.408,6.149-2.669,6.497-5.947,6.497
		c-0.377,0-0.667-0.115-1.073-0.231v-2.32c0.319,0.115,0.842,0.261,1.538,0.261c1.334,0,1.479-0.377,2.697-3.51l-5.627-15.577h2.9
		l4.032,12.357h0.058L2336.505,2013.842z"/>
	<path fill="#58595B" d="M2353.149,2029.012h-2.813v-20.827h2.813V2029.012z"/>
	<path fill="#58595B" d="M2370,2029.012h-2.553v-9.34c0-2.64-0.754-3.975-3.248-3.975c-1.451,0-4.003,0.929-4.003,5.048v8.267
		h-2.553v-15.171h2.407v2.146h0.058c0.552-0.812,1.973-2.581,4.584-2.581c2.35,0,5.308,0.957,5.308,5.279V2029.012z"/>
	<path fill="#58595B" d="M2382.383,2018.164c-0.029-0.957-0.378-2.553-3.598-2.553c-0.783,0-3.017,0.261-3.017,2.146
		c0,1.247,0.783,1.537,2.756,2.03l2.553,0.639c3.162,0.783,4.264,1.943,4.264,4.003c0,3.133-2.581,5.019-6.004,5.019
		c-6.005,0-6.439-3.481-6.526-5.309h2.465c0.087,1.189,0.436,3.104,4.032,3.104c1.827,0,3.48-0.725,3.48-2.407
		c0-1.219-0.841-1.625-3.017-2.176l-2.958-0.726c-2.118-0.521-3.511-1.595-3.511-3.684c0-3.336,2.756-4.844,5.744-4.844
		c5.424,0,5.801,4.003,5.801,4.757H2382.383z"/>
	<path fill="#58595B" d="M2401.147,2024.256c-0.087,0.725-0.783,2.871-2.697,4.147c-0.696,0.464-1.683,1.045-4.119,1.045
		c-4.265,0-6.788-3.221-6.788-7.601c0-4.699,2.263-8.44,7.281-8.44c4.38,0,6.526,3.48,6.526,8.847h-11.081
		c0,3.162,1.479,4.989,4.409,4.989c2.407,0,3.829-1.856,3.916-2.987H2401.147z M2398.71,2020.223
		c-0.146-2.35-1.132-4.525-4.235-4.525c-2.35,0-4.206,2.176-4.206,4.525H2398.71z"/>
	<path fill="#58595B" d="M2407.292,2029.012h-2.553v-15.171h2.407v2.523h0.059c1.016-1.769,2.35-2.958,4.264-2.958
		c0.319,0,0.465,0.028,0.667,0.087v2.64h-0.957c-2.378,0-3.887,1.856-3.887,4.061V2029.012z"/>
	<path fill="#58595B" d="M2418.335,2015.96v9.862c0,1.188,1.015,1.188,1.537,1.188h0.899v2.002
		c-0.929,0.087-1.653,0.203-1.915,0.203c-2.523,0-3.074-1.422-3.074-3.249v-10.007h-2.06v-2.118h2.06v-4.234h2.553v4.234h2.437
		v2.118H2418.335z"/>
	<path fill="#58595B" d="M2438.085,2007.751c-2.466,4.641-3.945,7.426-3.945,14.387c0,4.786,1.653,8.325,3.974,12.88h-1.711
		c-3.017-4.525-4.989-8.151-4.989-13.576c0-5.104,1.77-9.224,4.902-13.69H2438.085z"/>
	<path fill="#58595B" d="M2445.594,2017.41c0.436,0.028,0.899,0.058,1.335,0.058c1.973,0,3.887-0.783,3.887-3.336
		c0-1.218-0.726-3.22-3.771-3.22c-3.626,0-3.858,2.959-3.975,4.38h-2.494c0-2.987,1.218-6.671,6.584-6.671
		c3.945,0,6.295,2.263,6.295,5.366c0,2.61-1.509,3.857-2.61,4.206v0.058c1.973,0.639,3.394,2.03,3.394,4.757
		c0,3.336-2.146,6.556-7.339,6.556c-1.508,0-2.784-0.377-3.771-0.898c-2.263-1.189-2.872-3.539-3.046-5.889h2.64
		c0.087,1.914,0.551,4.496,4.351,4.496c2.611,0,4.438-1.596,4.438-3.945c0-3.423-3.017-3.742-4.757-3.742
		c-0.378,0-0.783,0.029-1.161,0.029V2017.41z"/>
	<path fill="#58595B" d="M2456.237,2035.017c2.465-4.642,3.944-7.426,3.944-14.388c0-4.786-1.653-8.325-3.974-12.879h1.711
		c3.018,4.524,4.989,8.15,4.989,13.575c0,5.104-1.77,9.224-4.901,13.691H2456.237z"/>
</g>
<g>
	<path fill="#58595B" d="M1547.546,2029.012h-2.813v-20.827h9.63c3.423,0,6.846,1.189,6.846,5.599c0,3.074-1.566,4.206-2.9,4.989
		c1.189,0.493,2.379,1.015,2.494,3.916l0.175,3.771c0.028,1.16,0.174,1.596,1.044,2.089v0.464h-3.452
		c-0.406-1.276-0.493-4.438-0.493-5.222c0-1.711-0.348-3.713-3.713-3.713h-6.816V2029.012z M1547.546,2017.671h6.526
		c2.06,0,4.235-0.522,4.235-3.597c0-3.22-2.35-3.48-3.742-3.48h-7.02V2017.671z"/>
	<path fill="#58595B" d="M1577.882,2024.256c-0.087,0.725-0.783,2.871-2.697,4.147c-0.696,0.464-1.683,1.045-4.119,1.045
		c-4.265,0-6.788-3.221-6.788-7.601c0-4.699,2.263-8.44,7.281-8.44c4.38,0,6.526,3.48,6.526,8.847h-11.081
		c0,3.162,1.479,4.989,4.409,4.989c2.407,0,3.829-1.856,3.916-2.987H1577.882z M1575.446,2020.223
		c-0.146-2.35-1.132-4.525-4.235-4.525c-2.35,0-4.206,2.176-4.206,4.525H1575.446z"/>
	<path fill="#58595B" d="M1593.716,2027.765c0,2.175-0.029,7.629-7.049,7.629c-1.799,0-5.309-0.493-5.802-4.525h2.553
		c0.464,2.407,2.813,2.407,3.423,2.407c4.409,0,4.322-3.538,4.322-5.337v-0.638h-0.058v0.115c-0.668,1.073-2.002,2.031-4.032,2.031
		c-5.163,0-6.672-4.845-6.672-8.471c0-4.264,2.292-7.57,6.323-7.57c2.756,0,3.916,1.711,4.525,2.581h0.058v-2.146h2.408V2027.765z
		 M1587.131,2027.243c1.625,0,4.148-1.073,4.148-5.105c0-2.465-0.406-6.439-4.09-6.439c-3.945,0-4.148,3.742-4.148,5.686
		C1583.041,2024.719,1584.347,2027.243,1587.131,2027.243z"/>
	<path fill="#58595B" d="M1597.309,2011.086v-2.9h2.553v2.9H1597.309z M1599.862,2029.012h-2.553v-15.171h2.553V2029.012z"/>
	<path fill="#58595B" d="M1612.304,2018.164c-0.029-0.957-0.378-2.553-3.598-2.553c-0.783,0-3.017,0.261-3.017,2.146
		c0,1.247,0.783,1.537,2.756,2.03l2.553,0.639c3.162,0.783,4.264,1.943,4.264,4.003c0,3.133-2.581,5.019-6.004,5.019
		c-6.005,0-6.439-3.481-6.526-5.309h2.465c0.087,1.189,0.436,3.104,4.032,3.104c1.827,0,3.48-0.725,3.48-2.407
		c0-1.219-0.841-1.625-3.017-2.176l-2.958-0.726c-2.118-0.521-3.511-1.595-3.511-3.684c0-3.336,2.756-4.844,5.744-4.844
		c5.424,0,5.801,4.003,5.801,4.757H1612.304z"/>
	<path fill="#58595B" d="M1621.322,2015.96v9.862c0,1.188,1.015,1.188,1.537,1.188h0.899v2.002
		c-0.929,0.087-1.653,0.203-1.915,0.203c-2.523,0-3.074-1.422-3.074-3.249v-10.007h-2.06v-2.118h2.06v-4.234h2.553v4.234h2.437
		v2.118H1621.322z"/>
	<path fill="#58595B" d="M1639.13,2024.256c-0.087,0.725-0.783,2.871-2.697,4.147c-0.696,0.464-1.683,1.045-4.119,1.045
		c-4.265,0-6.788-3.221-6.788-7.601c0-4.699,2.263-8.44,7.281-8.44c4.38,0,6.526,3.48,6.526,8.847h-11.081
		c0,3.162,1.479,4.989,4.409,4.989c2.407,0,3.829-1.856,3.916-2.987H1639.13z M1636.694,2020.223
		c-0.146-2.35-1.132-4.525-4.235-4.525c-2.35,0-4.206,2.176-4.206,4.525H1636.694z"/>
	<path fill="#58595B" d="M1645.276,2029.012h-2.553v-15.171h2.407v2.523h0.059c1.016-1.769,2.35-2.958,4.264-2.958
		c0.319,0,0.465,0.028,0.667,0.087v2.64h-0.957c-2.378,0-3.887,1.856-3.887,4.061V2029.012z"/>
	<path fill="#58595B" d="M1657.17,2008.185h16.911v2.495h-7.049v18.332h-2.813v-18.332h-7.049V2008.185z"/>
	<path fill="#58595B" d="M1679.07,2013.407c4.845,0,7.049,4.09,7.049,8.006s-2.204,8.006-7.049,8.006
		c-4.844,0-7.048-4.09-7.048-8.006S1674.226,2013.407,1679.07,2013.407z M1679.07,2027.214c3.655,0,4.409-3.771,4.409-5.801
		s-0.754-5.802-4.409-5.802c-3.654,0-4.408,3.771-4.408,5.802S1675.415,2027.214,1679.07,2027.214z"/>
	<path fill="#58595B" d="M1688.813,2013.842h2.407v2.146h0.059c0.608-0.87,1.769-2.581,4.524-2.581c4.032,0,6.324,3.307,6.324,7.57
		c0,3.626-1.509,8.471-6.672,8.471c-2.03,0-3.365-0.958-4.032-2.031h-0.058v7.601h-2.553V2013.842z M1695.397,2027.243
		c2.785,0,4.091-2.523,4.091-5.859c0-1.943-0.203-5.686-4.148-5.686c-3.684,0-4.09,3.975-4.09,6.439
		C1691.249,2026.17,1693.773,2027.243,1695.397,2027.243z"/>
	<path fill="#58595B" d="M1704.937,2013.842h2.407v2.146h0.059c0.608-0.87,1.769-2.581,4.524-2.581c4.032,0,6.324,3.307,6.324,7.57
		c0,3.626-1.509,8.471-6.672,8.471c-2.03,0-3.365-0.958-4.032-2.031h-0.058v7.601h-2.553V2013.842z M1711.521,2027.243
		c2.785,0,4.091-2.523,4.091-5.859c0-1.943-0.203-5.686-4.148-5.686c-3.684,0-4.09,3.975-4.09,6.439
		C1707.373,2026.17,1709.897,2027.243,1711.521,2027.243z"/>
	<path fill="#58595B" d="M1734.143,2024.256c-0.087,0.725-0.783,2.871-2.698,4.147c-0.695,0.464-1.682,1.045-4.118,1.045
		c-4.265,0-6.788-3.221-6.788-7.601c0-4.699,2.263-8.44,7.281-8.44c4.38,0,6.526,3.48,6.526,8.847h-11.081
		c0,3.162,1.479,4.989,4.409,4.989c2.407,0,3.829-1.856,3.916-2.987H1734.143z M1731.706,2020.223
		c-0.146-2.35-1.132-4.525-4.235-4.525c-2.35,0-4.206,2.176-4.206,4.525H1731.706z"/>
	<path fill="#58595B" d="M1740.288,2029.012h-2.553v-15.171h2.408v2.523h0.058c1.016-1.769,2.35-2.958,4.264-2.958
		c0.319,0,0.465,0.028,0.667,0.087v2.64h-0.957c-2.378,0-3.887,1.856-3.887,4.061V2029.012z"/>
	<path fill="#58595B" d="M1755.659,2018.164c-0.029-0.957-0.378-2.553-3.598-2.553c-0.783,0-3.017,0.261-3.017,2.146
		c0,1.247,0.783,1.537,2.756,2.03l2.553,0.639c3.162,0.783,4.264,1.943,4.264,4.003c0,3.133-2.581,5.019-6.004,5.019
		c-6.005,0-6.439-3.481-6.526-5.309h2.465c0.087,1.189,0.436,3.104,4.032,3.104c1.827,0,3.48-0.725,3.48-2.407
		c0-1.219-0.841-1.625-3.017-2.176l-2.958-0.726c-2.118-0.521-3.511-1.595-3.511-3.684c0-3.336,2.756-4.844,5.744-4.844
		c5.424,0,5.801,4.003,5.801,4.757H1755.659z"/>
	<path fill="#58595B" d="M1776.365,2007.751c-2.466,4.641-3.945,7.426-3.945,14.387c0,4.786,1.653,8.325,3.974,12.88h-1.711
		c-3.017-4.525-4.989-8.151-4.989-13.576c0-5.104,1.77-9.224,4.902-13.69H1776.365z"/>
	<path fill="#58595B" d="M1783.874,2017.41c0.436,0.028,0.899,0.058,1.335,0.058c1.973,0,3.887-0.783,3.887-3.336
		c0-1.218-0.726-3.22-3.771-3.22c-3.626,0-3.858,2.959-3.975,4.38h-2.494c0-2.987,1.218-6.671,6.584-6.671
		c3.945,0,6.295,2.263,6.295,5.366c0,2.61-1.509,3.857-2.61,4.206v0.058c1.973,0.639,3.394,2.03,3.394,4.757
		c0,3.336-2.146,6.556-7.339,6.556c-1.508,0-2.784-0.377-3.771-0.898c-2.263-1.189-2.872-3.539-3.046-5.889h2.64
		c0.087,1.914,0.551,4.496,4.351,4.496c2.611,0,4.438-1.596,4.438-3.945c0-3.423-3.017-3.742-4.757-3.742
		c-0.378,0-0.783,0.029-1.161,0.029V2017.41z"/>
	<path fill="#58595B" d="M1794.517,2035.017c2.465-4.642,3.944-7.426,3.944-14.388c0-4.786-1.653-8.325-3.974-12.879h1.711
		c3.018,4.524,4.989,8.15,4.989,13.575c0,5.104-1.77,9.224-4.901,13.691H1794.517z"/>
</g>
<g>
	<path fill="#58595B" d="M1185.642,2352.001c-0.783-3.655-3.829-4.322-5.831-4.322c-3.771,0-6.816,2.785-6.816,8.268
		c0,4.901,1.74,8.673,6.904,8.673c1.827,0,4.989-0.87,5.946-5.715h2.727c-1.16,7.861-7.542,8.209-9.108,8.209
		c-4.729,0-9.369-3.074-9.369-11.08c0-6.411,3.655-10.849,9.717-10.849c5.367,0,8.151,3.336,8.558,6.816H1185.642z"/>
	<path fill="#58595B" d="M1197.819,2350.957c4.845,0,7.049,4.09,7.049,8.006s-2.204,8.006-7.049,8.006
		c-4.844,0-7.048-4.09-7.048-8.006S1192.975,2350.957,1197.819,2350.957z M1197.819,2364.763c3.655,0,4.409-3.771,4.409-5.801
		s-0.754-5.802-4.409-5.802c-3.654,0-4.408,3.771-4.408,5.802S1194.165,2364.763,1197.819,2364.763z"/>
	<path fill="#58595B" d="M1217.656,2366.562v-2.204l-0.058-0.059c-1.073,1.77-2.379,2.698-4.815,2.698
		c-2.233,0-4.931-1.073-4.931-4.699v-10.907h2.553v10.065c0,2.495,1.276,3.336,2.93,3.336c3.22,0,4.177-2.843,4.177-5.047v-8.354
		h2.553v15.171H1217.656z"/>
	<path fill="#58595B" d="M1236.246,2366.562h-2.553v-9.34c0-2.64-0.754-3.975-3.248-3.975c-1.451,0-4.003,0.929-4.003,5.048v8.267
		h-2.553v-15.171h2.407v2.146h0.058c0.552-0.812,1.973-2.581,4.584-2.581c2.35,0,5.308,0.957,5.308,5.279V2366.562z"/>
	<path fill="#58595B" d="M1243.146,2353.51v9.862c0,1.188,1.015,1.188,1.537,1.188h0.899v2.002
		c-0.929,0.087-1.653,0.203-1.915,0.203c-2.523,0-3.074-1.422-3.074-3.249v-10.007h-2.06v-2.118h2.06v-4.234h2.553v4.234h2.437
		v2.118H1243.146z"/>
	<path fill="#58595B" d="M1260.954,2361.805c-0.087,0.725-0.783,2.871-2.698,4.147c-0.695,0.464-1.682,1.045-4.118,1.045
		c-4.265,0-6.788-3.22-6.788-7.601c0-4.699,2.263-8.44,7.281-8.44c4.38,0,6.526,3.48,6.526,8.847h-11.081
		c0,3.162,1.479,4.989,4.409,4.989c2.407,0,3.829-1.856,3.916-2.987H1260.954z M1258.517,2357.773
		c-0.146-2.35-1.132-4.525-4.235-4.525c-2.35,0-4.206,2.176-4.206,4.525H1258.517z"/>
	<path fill="#58595B" d="M1267.099,2366.562h-2.553v-15.171h2.408v2.523h0.058c1.016-1.769,2.35-2.958,4.264-2.958
		c0.319,0,0.465,0.028,0.667,0.087v2.64h-0.957c-2.378,0-3.887,1.856-3.887,4.061V2366.562z"/>
	<path fill="#58595B" d="M1299.379,2366.562v-12.299c0-0.609,0.058-3.249,0.058-5.192h-0.058l-5.859,17.491h-2.785l-5.859-17.462
		h-0.058c0,1.914,0.058,4.554,0.058,5.163v12.299h-2.727v-20.827h4.032l5.946,17.607h0.059l5.917-17.607h4.003v20.827H1299.379z"/>
	<path fill="#58595B" d="M1305.988,2356.004c0.115-3.626,2.523-5.047,6.265-5.047c1.219,0,5.628,0.348,5.628,4.234v8.731
		c0,0.638,0.319,0.899,0.841,0.899c0.232,0,0.552-0.059,0.842-0.116v1.856c-0.436,0.116-0.812,0.29-1.393,0.29
		c-2.263,0-2.61-1.16-2.697-2.32c-0.986,1.073-2.524,2.466-5.482,2.466c-2.785,0-4.758-1.77-4.758-4.381
		c0-1.276,0.377-4.234,4.612-4.757l4.206-0.522c0.609-0.058,1.334-0.29,1.334-1.798c0-1.596-1.16-2.466-3.567-2.466
		c-2.9,0-3.307,1.77-3.48,2.93H1305.988z M1315.328,2358.817c-0.406,0.319-1.044,0.552-4.206,0.957
		c-1.247,0.175-3.249,0.552-3.249,2.466c0,1.653,0.842,2.64,2.756,2.64c2.379,0,4.699-1.537,4.699-3.567V2358.817z"/>
	<path fill="#58595B" d="M1325.332,2353.51v9.862c0,1.188,1.015,1.188,1.537,1.188h0.899v2.002
		c-0.929,0.087-1.653,0.203-1.915,0.203c-2.523,0-3.074-1.422-3.074-3.249v-10.007h-2.06v-2.118h2.06v-4.234h2.553v4.234h2.437
		v2.118H1325.332z"/>
</g>
<rect id="_x36_.18_5_" x="305.311" y="1139.396" fill="none" stroke="#060303" stroke-width="2" stroke-miterlimit="10" width="224.831" height="346.314"/>
<g>
	
		<rect x="580.95" y="351.833" fill="#828487" stroke="#000000" stroke-width="2" stroke-miterlimit="10" width="2774.805" height="344.524"/>
	
		<rect x="1670.715" y="342.866" fill="#828487" stroke="#000000" stroke-width="2" stroke-miterlimit="10" width="1065.836" height="365.633"/>
	<rect x="1071.566" y="390.918" width="268.007" height="268.006"/>
	<rect x="1382.68" y="390.918" width="268.007" height="268.006"/>
	<rect x="2755.658" y="390.916" width="268.007" height="268.006"/>
	<rect x="1722.495" y="489.614" width="116.579" height="128.254"/>
	<rect x="1844.073" y="489.615" width="116.626" height="128.251"/>
	<rect x="1965.186" y="355.866" width="116.626" height="129.083"/>
	<rect x="2087.325" y="489.615" width="116.626" height="128.251"/>
	<rect x="2208.951" y="355.866" width="116.594" height="129.082"/>
	<rect x="2330.545" y="489.614" width="116.658" height="128.254"/>
	<rect x="2452.203" y="489.614" width="116.313" height="128.254"/>
	<rect x="2573.829" y="489.614" width="116.626" height="128.254"/>
	<rect x="1722.495" y="355.866" width="116.579" height="129.083"/>
	<rect x="1844.073" y="355.866" width="116.626" height="129.083"/>
	<rect x="1965.699" y="489.615" width="116.626" height="128.251"/>
	<rect x="2087.325" y="355.866" width="116.626" height="129.082"/>
	<rect x="2208.951" y="489.615" width="116.594" height="128.251"/>
	<rect x="2330.545" y="355.866" width="116.658" height="129.082"/>
	<rect x="2452.203" y="355.866" width="116.313" height="129.082"/>
	<rect x="2573.829" y="355.866" width="116.626" height="129.082"/>
	<rect x="3066.772" y="390.916" width="268.007" height="268.006"/>
	
		<line fill="none" stroke="#000000" stroke-width="3" stroke-miterlimit="10" x1="1052.238" y1="658.866" x2="1670.715" y2="658.866"/>
	
		<line fill="none" stroke="#000000" stroke-width="3" stroke-miterlimit="10" x1="2736.551" y1="390.944" x2="3354.549" y2="390.944"/>
	
		<line fill="none" stroke="#000000" stroke-width="3" stroke-miterlimit="10" x1="1052.238" y1="351.833" x2="1052.238" y2="696.357"/>
	
		<line fill="none" stroke="#000000" stroke-width="3" stroke-miterlimit="10" x1="1362.104" y1="351.833" x2="1362.104" y2="696.357"/>
	
		<line fill="none" stroke="#000000" stroke-width="3" stroke-miterlimit="10" x1="3045.27" y1="351.866" x2="3045.27" y2="696.357"/>
	
		<line fill="none" stroke="#000000" stroke-width="3" stroke-miterlimit="10" x1="1052.238" y1="390.944" x2="1670.715" y2="390.944"/>
	
		<line fill="none" stroke="#000000" stroke-width="3" stroke-miterlimit="10" x1="2736.551" y1="658.866" x2="3354.549" y2="658.866"/>
	<rect x="604.687" y="390.918" width="406.545" height="267.948"/>
	
		<line fill="none" stroke="#000000" stroke-width="3" stroke-miterlimit="10" x1="581.374" y1="390.944" x2="1033.731" y2="390.944"/>
	
		<line fill="none" stroke="#000000" stroke-width="3" stroke-miterlimit="10" x1="1033.731" y1="351.866" x2="1033.731" y2="696.357"/>
	
		<line fill="none" stroke="#000000" stroke-width="3" stroke-miterlimit="10" x1="581.374" y1="658.866" x2="1033.731" y2="658.866"/>
	
		<line fill="none" stroke="#000000" stroke-width="2" stroke-miterlimit="10" x1="2572.823" y1="631.866" x2="2736.552" y2="631.866"/>
	
		<line fill="none" stroke="#000000" stroke-width="2" stroke-miterlimit="10" x1="2572.823" y1="686.24" x2="2736.552" y2="686.24"/>
	
		<line fill="none" stroke="#000000" stroke-width="2" stroke-miterlimit="10" x1="2572.823" y1="658.839" x2="2736.552" y2="658.839"/>
	
		<line fill="none" stroke="#000000" stroke-width="2" stroke-miterlimit="10" x1="2572.823" y1="673.229" x2="2736.552" y2="673.229"/>
	
		<line fill="none" stroke="#000000" stroke-width="2" stroke-miterlimit="10" x1="2572.823" y1="644.339" x2="2736.552" y2="644.339"/>
	<rect x="2208.704" y="630.866" width="180.438" height="56.374"/>
	<rect x="2392.384" y="630.866" width="180.439" height="56.374"/>
	<rect x="1838.037" y="630.866" width="180.439" height="56.374"/>
	<rect x="2023.476" y="630.866" width="180.229" height="56.374"/>
	
		<line fill="none" stroke="#000000" stroke-width="2" stroke-miterlimit="10" x1="1670.715" y1="631.866" x2="1838.037" y2="631.866"/>
	
		<line fill="none" stroke="#000000" stroke-width="2" stroke-miterlimit="10" x1="1670.715" y1="686.24" x2="1838.037" y2="686.24"/>
	
		<line fill="none" stroke="#000000" stroke-width="2" stroke-miterlimit="10" x1="1670.715" y1="658.839" x2="1838.037" y2="658.839"/>
	
		<line fill="none" stroke="#000000" stroke-width="2" stroke-miterlimit="10" x1="1670.715" y1="673.229" x2="1838.037" y2="673.229"/>
	
		<line fill="none" stroke="#000000" stroke-width="2" stroke-miterlimit="10" x1="1670.715" y1="644.339" x2="1838.037" y2="644.339"/>
</g>
<g>
	
		<rect x="584.366" y="867.719" fill="#828487" stroke="#000000" stroke-width="2" stroke-miterlimit="10" width="2757.103" height="344.524"/>
	<rect x="1059.164" y="907.223" width="268.007" height="267.586"/>
	<g>
		<rect x="1370.276" y="906.803" width="268.007" height="84.358"/>
		<rect x="1370.276" y="998.336" width="268.007" height="84.358"/>
		<rect x="1370.276" y="1089.87" width="268.007" height="84.358"/>
	</g>
	
		<rect x="1656.43" y="858.752" fill="#828487" stroke="#000000" stroke-width="2" stroke-miterlimit="10" width="1065.836" height="365.633"/>
	<rect x="3052.486" y="906.803" width="268.007" height="268.006"/>
	<rect x="2741.372" y="906.803" width="268.007" height="267.922"/>
	<rect x="1708.209" y="871.752" width="116.579" height="262"/>
	<rect x="1829.788" y="871.752" width="116.626" height="262"/>
	<rect x="1951.414" y="871.752" width="116.626" height="262"/>
	<rect x="2073.04" y="871.752" width="116.626" height="262"/>
	<rect x="2194.666" y="871.752" width="116.594" height="262"/>
	<rect x="2316.26" y="871.752" width="116.658" height="262"/>
	<rect x="2437.918" y="871.752" width="116.313" height="262"/>
	<rect x="2559.544" y="871.752" width="116.626" height="262"/>
	
		<line fill="none" stroke="#000000" stroke-width="3" stroke-miterlimit="10" x1="1037.953" y1="1174.752" x2="1656.43" y2="1174.752"/>
	
		<line fill="none" stroke="#000000" stroke-width="3" stroke-miterlimit="10" x1="2722.266" y1="906.83" x2="3341.006" y2="906.83"/>
	
		<line fill="none" stroke="#000000" stroke-width="3" stroke-miterlimit="10" x1="1037.953" y1="867.719" x2="1037.953" y2="1212.243"/>
	
		<line fill="none" stroke="#000000" stroke-width="3" stroke-miterlimit="10" x1="1347.819" y1="867.719" x2="1347.819" y2="1212.243"/>
	
		<line fill="none" stroke="#000000" stroke-width="3" stroke-miterlimit="10" x1="3030.985" y1="867.752" x2="3030.985" y2="1212.243"/>
	<line fill="none" stroke="#000000" stroke-width="3" stroke-miterlimit="10" x1="1037.953" y1="906.83" x2="1656.43" y2="906.83"/>
	
		<line fill="none" stroke="#000000" stroke-width="3" stroke-miterlimit="10" x1="2722.266" y1="1174.752" x2="3341.006" y2="1174.752"/>
	
		<line fill="none" stroke="#000000" stroke-width="2" stroke-miterlimit="10" x1="2558.537" y1="1147.752" x2="2722.266" y2="1147.752"/>
	
		<line fill="none" stroke="#000000" stroke-width="2" stroke-miterlimit="10" x1="2558.537" y1="1202.125" x2="2722.266" y2="1202.125"/>
	
		<line fill="none" stroke="#000000" stroke-width="2" stroke-miterlimit="10" x1="2558.537" y1="1174.725" x2="2722.266" y2="1174.725"/>
	
		<line fill="none" stroke="#000000" stroke-width="2" stroke-miterlimit="10" x1="2558.537" y1="1189.115" x2="2722.266" y2="1189.115"/>
	
		<line fill="none" stroke="#000000" stroke-width="2" stroke-miterlimit="10" x1="2558.537" y1="1160.224" x2="2722.266" y2="1160.224"/>
	<rect x="2194.419" y="1146.752" width="180.438" height="56.374"/>
	<rect x="2378.098" y="1146.752" width="180.439" height="56.374"/>
	<rect x="1823.751" y="1146.752" width="180.439" height="56.374"/>
	<rect x="2009.19" y="1146.752" width="180.229" height="56.374"/>
	
		<line fill="none" stroke="#000000" stroke-width="2" stroke-miterlimit="10" x1="1656.43" y1="1147.752" x2="1823.751" y2="1147.752"/>
	
		<line fill="none" stroke="#000000" stroke-width="2" stroke-miterlimit="10" x1="1656.43" y1="1202.125" x2="1823.751" y2="1202.125"/>
	
		<line fill="none" stroke="#000000" stroke-width="2" stroke-miterlimit="10" x1="1656.43" y1="1174.725" x2="1823.751" y2="1174.725"/>
	
		<line fill="none" stroke="#000000" stroke-width="2" stroke-miterlimit="10" x1="1656.43" y1="1189.115" x2="1823.751" y2="1189.115"/>
	
		<line fill="none" stroke="#000000" stroke-width="2" stroke-miterlimit="10" x1="1656.43" y1="1160.224" x2="1823.751" y2="1160.224"/>
	<rect x="609.259" y="906.803" width="406.545" height="267.948"/>
	<line fill="none" stroke="#000000" stroke-width="3" stroke-miterlimit="10" x1="584.842" y1="906.83" x2="1038.302" y2="906.83"/>
	
		<line fill="none" stroke="#000000" stroke-width="3" stroke-miterlimit="10" x1="584.842" y1="1174.752" x2="1038.302" y2="1174.752"/>
</g>
<g>
	<path fill="#58595B" d="M594.929,839.852h10.559v2.494h-13.372v-20.827h2.813V839.852z"/>
	<path fill="#58595B" d="M617.812,842.346v-2.204l-0.058-0.059c-1.073,1.77-2.378,2.698-4.815,2.698
		c-2.234,0-4.931-1.073-4.931-4.699v-10.907h2.552v10.065c0,2.495,1.276,3.336,2.93,3.336c3.22,0,4.177-2.843,4.177-5.047v-8.354
		h2.553v15.171H617.812z"/>
	<path fill="#58595B" d="M636.401,842.346h-2.552v-9.34c0-2.64-0.754-3.975-3.249-3.975c-1.45,0-4.003,0.929-4.003,5.048v8.267
		h-2.553v-15.171h2.408v2.146h0.058c0.551-0.812,1.973-2.581,4.583-2.581c2.35,0,5.308,0.957,5.308,5.279V842.346z"/>
	<path fill="#58595B" d="M649.653,832.281c-0.319-2.03-1.45-3.249-3.597-3.249c-3.162,0-4.177,3.017-4.177,5.715
		c0,2.61,0.638,5.83,4.148,5.83c1.711,0,3.191-1.276,3.626-3.597h2.466c-0.261,2.407-1.741,5.802-6.179,5.802
		c-4.264,0-6.788-3.221-6.788-7.601c0-4.699,2.263-8.44,7.281-8.44c3.974,0,5.482,2.9,5.686,5.54H649.653z"/>
	<path fill="#58595B" d="M667.025,842.346h-2.552v-9.92c0-2.06-0.58-3.395-3.017-3.395c-2.088,0-4.235,1.219-4.235,5.048v8.267
		h-2.553v-20.827h2.553v7.687h0.058c0.725-0.957,2.001-2.465,4.438-2.465c2.35,0,5.308,0.957,5.308,5.279V842.346z"/>
	<path fill="#58595B" d="M670.357,842.897h-1.943l7.136-21.929h1.915L670.357,842.897z"/>
	<path fill="#58595B" d="M679.318,821.519h8.441c5.424,0,8.76,4.119,8.76,10.124c0,4.67-2.031,10.703-8.876,10.703h-8.325V821.519z
		 M682.132,839.939h5.454c3.655,0,6.033-2.872,6.033-8.122s-2.408-7.89-6.236-7.89h-5.25V839.939z"/>
	<path fill="#58595B" d="M699.85,824.42v-2.9h2.553v2.9H699.85z M702.402,842.346h-2.553v-15.171h2.553V842.346z"/>
	<path fill="#58595B" d="M718.586,842.346h-2.552v-9.34c0-2.64-0.754-3.975-3.249-3.975c-1.45,0-4.003,0.929-4.003,5.048v8.267
		h-2.553v-15.171h2.408v2.146h0.058c0.551-0.812,1.973-2.581,4.583-2.581c2.35,0,5.308,0.957,5.308,5.279V842.346z"/>
	<path fill="#58595B" d="M734.71,842.346h-2.552v-9.34c0-2.64-0.754-3.975-3.249-3.975c-1.45,0-4.003,0.929-4.003,5.048v8.267
		h-2.553v-15.171h2.408v2.146h0.058c0.551-0.812,1.973-2.581,4.583-2.581c2.35,0,5.308,0.957,5.308,5.279V842.346z"/>
	<path fill="#58595B" d="M751.356,837.59c-0.087,0.725-0.783,2.871-2.698,4.147c-0.696,0.464-1.683,1.045-4.119,1.045
		c-4.264,0-6.788-3.221-6.788-7.601c0-4.699,2.263-8.44,7.281-8.44c4.38,0,6.527,3.48,6.527,8.847h-11.081
		c0,3.162,1.479,4.989,4.409,4.989c2.408,0,3.829-1.856,3.916-2.987H751.356z M748.92,833.557c-0.145-2.35-1.131-4.525-4.235-4.525
		c-2.35,0-4.206,2.176-4.206,4.525H748.92z"/>
	<path fill="#58595B" d="M757.502,842.346h-2.553v-15.171h2.408v2.523h0.058c1.015-1.769,2.35-2.958,4.264-2.958
		c0.319,0,0.464,0.028,0.667,0.087v2.64h-0.958c-2.378,0-3.887,1.856-3.887,4.061V842.346z"/>
</g>
<g>
	<path fill="#58595B" d="M592.057,306.869h9.166c3.887,0,5.889,2.408,5.889,5.25c0,1.363-0.493,3.279-2.785,4.352
		c1.363,0.551,3.771,1.508,3.771,5.076c0,3.336-2.466,6.15-7.078,6.15h-8.963V306.869z M594.871,315.687h5.077
		c2.697,0,4.351-0.812,4.351-3.365c0-1.943-1.189-3.045-4.322-3.045h-5.105V315.687z M594.871,325.288h6.005
		c2.93,0,4.409-1.479,4.409-3.799c0-2.93-2.582-3.512-4.873-3.512h-5.541V325.288z"/>
	<path fill="#58595B" d="M614.04,327.697h-2.553v-15.172h2.408v2.523h0.058c1.015-1.768,2.35-2.957,4.264-2.957
		c0.319,0,0.464,0.027,0.667,0.086v2.641h-0.958c-2.378,0-3.887,1.855-3.887,4.061V327.697z"/>
	<path fill="#58595B" d="M633.675,322.939c-0.087,0.725-0.783,2.871-2.698,4.148c-0.696,0.463-1.683,1.045-4.119,1.045
		c-4.264,0-6.788-3.221-6.788-7.602c0-4.699,2.263-8.439,7.281-8.439c4.38,0,6.527,3.48,6.527,8.846h-11.081
		c0,3.162,1.479,4.99,4.409,4.99c2.408,0,3.829-1.857,3.916-2.988H633.675z M631.238,318.908c-0.145-2.35-1.131-4.525-4.235-4.525
		c-2.35,0-4.206,2.176-4.206,4.525H631.238z"/>
	<path fill="#58595B" d="M636.833,317.138c0.116-3.627,2.524-5.047,6.266-5.047c1.218,0,5.627,0.348,5.627,4.234v8.73
		c0,0.639,0.319,0.9,0.841,0.9c0.232,0,0.551-0.059,0.841-0.117v1.857c-0.435,0.115-0.812,0.289-1.392,0.289
		c-2.263,0-2.611-1.16-2.698-2.32c-0.986,1.074-2.523,2.467-5.482,2.467c-2.785,0-4.757-1.77-4.757-4.381
		c0-1.277,0.377-4.234,4.612-4.758l4.206-0.521c0.609-0.059,1.334-0.291,1.334-1.799c0-1.596-1.16-2.465-3.568-2.465
		c-2.901,0-3.307,1.77-3.481,2.93H636.833z M646.173,319.951c-0.406,0.32-1.044,0.553-4.206,0.957
		c-1.247,0.176-3.249,0.553-3.249,2.467c0,1.652,0.841,2.639,2.755,2.639c2.379,0,4.699-1.537,4.699-3.566V319.951z"/>
	<path fill="#58595B" d="M665.691,327.697h-3.278l-4.729-7.658l-2.117,1.914v5.744h-2.466v-20.828h2.466v12.068l6.526-6.412h3.249
		l-5.802,5.656L665.691,327.697z"/>
	<path fill="#58595B" d="M670.706,314.644v13.053h-2.553v-13.053h-2.088v-2.119h2.088v-2.609c0-2.293,1.45-3.336,3.945-3.336
		c0.377,0,0.754,0.029,1.16,0.059v2.291c-0.319-0.029-0.725-0.059-1.044-0.059c-1.103,0-1.508,0.551-1.508,1.77v1.885h2.552v2.119
		H670.706z"/>
	<path fill="#58595B" d="M674.655,317.138c0.116-3.627,2.524-5.047,6.266-5.047c1.218,0,5.627,0.348,5.627,4.234v8.73
		c0,0.639,0.319,0.9,0.841,0.9c0.232,0,0.551-0.059,0.841-0.117v1.857c-0.435,0.115-0.812,0.289-1.392,0.289
		c-2.263,0-2.611-1.16-2.698-2.32c-0.986,1.074-2.523,2.467-5.482,2.467c-2.785,0-4.757-1.77-4.757-4.381
		c0-1.277,0.377-4.234,4.612-4.758l4.206-0.521c0.609-0.059,1.334-0.291,1.334-1.799c0-1.596-1.16-2.465-3.568-2.465
		c-2.901,0-3.307,1.77-3.481,2.93H674.655z M683.995,319.951c-0.406,0.32-1.044,0.553-4.206,0.957
		c-1.247,0.176-3.249,0.553-3.249,2.467c0,1.652,0.841,2.639,2.755,2.639c2.379,0,4.699-1.537,4.699-3.566V319.951z"/>
	<path fill="#58595B" d="M699.481,316.847c-0.029-0.957-0.377-2.553-3.597-2.553c-0.783,0-3.017,0.262-3.017,2.146
		c0,1.248,0.783,1.537,2.756,2.031l2.553,0.639c3.162,0.783,4.264,1.943,4.264,4.002c0,3.133-2.582,5.02-6.004,5.02
		c-6.004,0-6.439-3.482-6.526-5.309h2.466c0.087,1.189,0.435,3.104,4.032,3.104c1.828,0,3.481-0.725,3.481-2.408
		c0-1.219-0.841-1.625-3.017-2.176l-2.958-0.725c-2.118-0.521-3.51-1.596-3.51-3.684c0-3.336,2.755-4.844,5.743-4.844
		c5.424,0,5.802,4.002,5.802,4.756H699.481z"/>
	<path fill="#58595B" d="M708.499,314.644v9.861c0,1.189,1.015,1.189,1.538,1.189h0.899v2.002c-0.928,0.086-1.653,0.203-1.914,0.203
		c-2.524,0-3.075-1.422-3.075-3.25v-10.006h-2.06v-2.119h2.06v-4.234h2.552v4.234h2.437v2.119H708.499z"/>
</g>
<g>
	<path fill="#231F20" d="M39.773,95.822V38.075h19.095l7.007,34.109h0.154l7.238-34.109h18.941v57.747H79.272l1.386-45.273h-0.154
		l-9.547,45.273H60.87l-9.316-45.273h-0.154l1.232,45.273H39.773z"/>
	<path fill="#231F20" d="M99.294,95.822V38.075h17.555c10.24,0,18.248,3.311,18.248,14.938c0,5.082-1.848,9.624-6.544,12.165v0.154
		c6.159,3.542,7.468,6.621,7.468,13.782c0,11.703-6.622,16.708-17.632,16.708H99.294z M112.845,60.789
		c5.929-0.385,8.701,0,8.701-6.853c0-5.697-3.927-5.467-8.701-5.467V60.789z M112.845,85.428c6.776-0.154,9.625,0.308,9.625-7.469
		c0-6.698-3.85-6.544-9.625-6.775V85.428z"/>
	<path fill="#231F20" d="M140.566,58.941v-3.003c0-11.396,6.083-17.863,17.709-17.863c10.394,0,16.708,5.159,16.708,15.861
		c0,7.237-2.31,11.396-7.238,16.554l-5.004,4.852c-2.079,2.001-6.93,6.853-7.623,10.086h19.942v10.395h-34.571v-1.925
		c0-9.548,5.929-17.786,12.088-24.562l5.852-6.16c2.772-3.079,3.696-5.544,3.696-9.778c0-2.926-1.309-6.006-4.851-5.697
		c-4.081,0.23-4.466,5.543-4.466,8.469v2.772H140.566z"/>
	<path fill="#231F20" d="M180.606,95.822V38.075h13.551v23.099h0.154l10.009-23.099h13.859l-12.319,25.485l13.089,32.262h-14.321
		l-7.469-20.096l-3.003,5.852v14.244H180.606z"/>
	<path fill="#231F20" d="M242.822,95.822V38.075h14.706c4.928,0,10.856,0.154,15.245,2.695c5.236,3.079,6.083,8.7,6.083,14.244
		v25.64c-0.077,5.774-1.848,10.009-5.774,12.473c-3.542,2.311-7.854,2.695-12.011,2.695H242.822z M256.373,85.428
		c9.085,0.616,9.162-3.08,8.931-10.779V55.784c-0.077-6.775-2.31-7.16-8.931-7.314V85.428z"/>
	<path fill="#231F20" d="M305.268,95.822V90.51h-0.154c-1.155,3.311-4.697,6.698-8.547,6.698c-7.083,0-10.933-3.233-10.933-9.085
		V52.704h12.242V83.58c0.154,2.002,0.693,3.772,3.003,3.618c2.156-0.076,3.542-1.386,3.542-3.618V52.704h12.243v43.118H305.268z"/>
	<path fill="#231F20" d="M344.23,91.973c-3.08,3.388-5.698,5.235-10.548,5.235c-6.93,0-11.241-4.696-11.241-11.549
		c0-9.779,5.312-12.858,10.702-14.63c5.312-1.771,10.625-2.31,10.625-6.93c0-2.387-1.386-4.466-3.85-4.466
		c-4.466,0-4.466,3.08-4.697,6.699h-12.243c-0.231-5.39,1.386-9.086,4.389-11.473c3.002-2.387,7.237-3.388,12.165-3.388
		c12.088,0,16.477,3.696,16.477,13.166v26.41c0,1.616,0.462,3.233,1.001,4.773h-11.934L344.23,91.973z M343.768,74.88
		c-2.464,1.309-4.62,2.001-6.16,3.156c-1.54,1.078-2.849,2.618-2.849,5.544c0,2.694,1.617,4.619,4.542,4.619
		c3.619,0,4.389-3.772,4.466-6.544V74.88z"/>
	<path fill="#231F20" d="M363.712,95.822V38.075h12.243v57.747H363.712z"/>
	<path fill="#231F20" d="M403.828,95.822V38.075h16.092c5.236,0,12.781,0.462,16.554,4.773c3.157,3.542,3.773,7.854,3.773,12.551
		c0,6.236-1.463,13.243-7.623,16.092c-4.697,2.311-10.164,1.617-15.246,1.849v22.482H403.828z M417.38,62.945
		c2.541-0.077,5.467,0.23,7.623-1.463c1.386-1.54,1.694-3.851,1.694-5.852c0-2.233-0.231-5.621-2.541-6.699
		c-1.309-0.462-3.157-0.462-5.313-0.462h-1.463V62.945z"/>
	<path fill="#231F20" d="M445.794,66.256c0-11.087,6.544-14.783,16.015-14.783c10.779,0,16.015,5.082,16.015,14.783v17.555
		c-0.616,9.779-6.699,13.397-16.015,13.397c-8.778,0-16.015-3.542-16.015-13.397V66.256z M458.036,84.581
		c0.231,2.464,1.232,3.772,3.773,3.772s3.542-1.309,3.773-3.772V65.332c0-2.772-0.924-5.005-3.773-5.005
		c-2.849,0-3.773,2.232-3.773,5.005V84.581z"/>
	<path fill="#231F20" d="M485.679,48.47V38.075h12.243V48.47H485.679z M485.679,95.822V52.704h12.243v43.118H485.679z"/>
	<path fill="#231F20" d="M517.634,52.704v5.391h0.154c1.155-3.312,4.697-6.622,8.546-6.622c5.775,0,10.934,3.157,10.934,9.009
		v35.341h-12.243V65.024c-0.154-2.002-0.924-3.696-3.233-3.542c-2.156,0.077-3.311,1.309-3.311,3.542v30.798h-12.242V52.704H517.634
		z"/>
	<path fill="#231F20" d="M541.889,61.56v-8.855h4.851V40.386h12.242v12.318h5.852v8.855h-5.852v22.713
		c0,2.464,1.078,3.003,2.695,3.003c1.386-0.23,1.848-0.153,3.157-0.153v8.623c-2.618,0.385-5.159,0.693-7.854,0.693
		c-6.622,0-10.24-3.388-10.24-9.933V61.56H541.889z"/>
	<path fill="#231F20" d="M57.359,140.676v-3.023c0-4.032-1.449-6.111-3.528-6.111c-3.465-0.063-4.284,1.827-4.284,4.914
		l-0.063,23.374c0,2.646,1.071,4.222,3.969,4.222c3.78,0,4.095-3.906,4.095-6.805v-4.284h11.088v5.796
		c0,8.128-4.662,13.798-16.003,13.798c-10.207,0-14.176-5.418-14.176-15.058v-19.405c0-10.27,4.726-15.058,14.869-15.058
		c9.45,0,15.121,4.032,15.121,13.672v3.969H57.359z"/>
	<path fill="#231F20" d="M73.674,147.229c0-9.072,5.355-12.097,13.105-12.097c8.82,0,13.104,4.158,13.104,12.097v14.365
		c-0.504,8.001-5.481,10.962-13.104,10.962c-7.183,0-13.105-2.897-13.105-10.962V147.229z M83.692,162.224
		c0.189,2.016,1.008,3.087,3.087,3.087s2.898-1.071,3.087-3.087v-15.751c0-2.269-0.756-4.096-3.087-4.096s-3.087,1.827-3.087,4.096
		V162.224z"/>
	<path fill="#231F20" d="M121.492,171.422v-4.348h-0.126c-0.945,2.71-3.843,5.481-6.993,5.481c-5.796,0-8.947-2.646-8.947-7.435
		V136.14h10.018v25.265c0.126,1.638,0.567,3.087,2.458,2.961c1.764-0.062,2.898-1.134,2.898-2.961V136.14h10.018v35.282H121.492z"/>
	<path fill="#231F20" d="M146.44,136.14v4.41h0.126c0.945-2.709,3.843-5.418,6.994-5.418c4.725,0,8.946,2.583,8.946,7.371v28.919
		h-10.018v-25.201c-0.126-1.639-0.756-3.024-2.646-2.898c-1.764,0.063-2.709,1.071-2.709,2.898v25.201h-10.017V136.14H146.44z"/>
	<path fill="#231F20" d="M166.284,143.386v-7.246h3.969v-10.08h10.018v10.08h4.789v7.246h-4.789v18.586
		c0,2.016,0.882,2.457,2.205,2.457c1.134-0.189,1.512-0.126,2.583-0.126v7.056c-2.142,0.315-4.221,0.567-6.427,0.567
		c-5.418,0-8.379-2.772-8.379-8.127v-20.413H166.284z"/>
	<path fill="#231F20" d="M198.918,155.419v6.175c0,1.953,0.882,3.591,3.087,3.717c3.717,0.189,3.339-3.15,3.528-6.111h9.955
		c0.504,9.072-4.41,13.23-13.104,13.356c-7.183,0.063-13.483-2.897-13.483-10.962v-14.365c0-9.072,5.733-12.033,13.483-12.097
		c6.993-0.063,13.483,2.583,13.483,10.207v10.08H198.918z M205.849,148.804v-3.465c0-1.261-0.819-3.592-3.402-3.592
		c-2.835,0-3.528,2.269-3.528,4.726v2.331H205.849z"/>
	<path fill="#231F20" d="M229.977,136.14v5.355h0.126c1.134-3.78,3.591-6.363,7.75-6.363v11.341
		c-1.008-0.189-2.016-0.252-3.024-0.252c-2.835,0-3.969,0.566-4.158,3.465v21.736h-10.018V136.14H229.977z"/>
	<path fill="#231F20" d="M256.373,124.169h25.075v8.82l-13.735,28.982h14.365v9.45h-26.714v-8.442l13.987-29.359h-12.979V124.169z"
		/>
	<path fill="#231F20" d="M285.352,147.229c0-9.072,5.355-12.097,13.105-12.097c8.82,0,13.104,4.158,13.104,12.097v14.365
		c-0.504,8.001-5.481,10.962-13.104,10.962c-7.183,0-13.105-2.897-13.105-10.962V147.229z M295.37,162.224
		c0.189,2.016,1.008,3.087,3.087,3.087s2.898-1.071,3.087-3.087v-15.751c0-2.269-0.756-4.096-3.087-4.096s-3.087,1.827-3.087,4.096
		V162.224z"/>
	<path fill="#231F20" d="M326.618,136.14v4.41h0.126c0.945-2.709,3.843-5.418,6.994-5.418c4.725,0,8.946,2.583,8.946,7.371v28.919
		h-10.018v-25.201c-0.126-1.639-0.756-3.024-2.646-2.898c-1.764,0.063-2.709,1.071-2.709,2.898v25.201h-10.018V136.14H326.618z"/>
	<path fill="#231F20" d="M358.118,155.419v6.175c0,1.953,0.882,3.591,3.087,3.717c3.717,0.189,3.339-3.15,3.528-6.111h9.955
		c0.504,9.072-4.41,13.23-13.104,13.356c-7.183,0.063-13.483-2.897-13.483-10.962v-14.365c0-9.072,5.733-12.033,13.483-12.097
		c6.993-0.063,13.483,2.583,13.483,10.207v10.08H358.118z M365.049,148.804v-3.465c0-1.261-0.819-3.592-3.402-3.592
		c-2.835,0-3.528,2.269-3.528,4.726v2.331H365.049z"/>
</g>
</svg>
