<?xml version="1.0" encoding="utf-8"?>
<!-- Generator: Adobe Illustrator 19.2.1, SVG Export Plug-In . SVG Version: 6.00 Build 0)  -->
<svg version="1.1" id="Interactive" xmlns="http://www.w3.org/2000/svg" xmlns:xlink="http://www.w3.org/1999/xlink" x="0px"
	 y="0px" viewBox="0 0 3600 2782.08" enable-background="new 0 0 3600 2782.08" xml:space="preserve">
<rect id="_x31_2.30" x="1821.781" y="1146.752" fill="none" width="736.757" height="56.374"/>
<rect id="_x31_2.93" x="1824.977" y="1240.53" fill="none" width="736.757" height="56.374"/>
<rect id="_x31_2.92" x="1835.573" y="724.131" fill="none" width="736.757" height="56.374"/>
<rect id="_x31_2.27" x="3052.486" y="906.803" fill="none" width="268.007" height="268.006"/>
<rect id="_x31_2.19" x="1071.566" y="390.918" fill="none" width="268.007" height="268.006"/>
<rect id="_x31_2.26" x="2741.372" y="906.719" fill="none" width="268.007" height="268.006"/>
<rect id="_x31_2.25" x="1836.066" y="630.866" fill="none" width="736.757" height="56.374"/>
<rect id="_x31_2.20" x="1382.68" y="390.918" fill="none" width="268.007" height="268.006"/>
<rect id="_x31_2.22" x="2755.658" y="390.916" fill="none" width="268.007" height="268.006"/>
<rect id="_x31_2.21" x="3066.772" y="390.916" fill="none" width="268.007" height="268.006"/>
<rect id="_x31_2.1" x="72.846" y="721.272" fill="none" width="459" height="288"/>
<rect id="_x31_2.89" x="72.846" y="378.508" fill="none" width="459" height="288"/>
<rect id="_x31_2.31" x="1370.276" y="906.803" fill="none" width="268.007" height="85.275"/>
<rect id="_x31_2.32" x="1370.276" y="1000.142" fill="none" width="268.007" height="81.243"/>
<rect id="_x31_2.33" x="1370.276" y="1089.45" fill="none" width="268.007" height="85.275"/>
<rect id="_x31_2.17" x="1656.43" y="1240.53" fill="none" width="146.132" height="65.011"/>
<rect id="_x31_2.16" x="1165.778" y="2082.241" fill="none" width="174.009" height="212.251"/>
<rect id="_x31_2.15" x="926.837" y="1738.869" fill="none" width="174.009" height="214.737"/>
<rect id="_x31_2.14" x="50.474" y="1533.968" fill="none" width="190.289" height="242.271"/>
<rect id="_x31_2.18" x="305.311" y="1139.396" fill="none" width="224.831" height="346.314"/>
<rect id="_x31_2.90" x="33.203" y="1139.396" fill="none" width="224.831" height="346.314"/>
<rect id="_x31_2.36" x="956.573" y="1842.42" fill="none" width="114.538" height="93.713"/>
<rect id="_x31_2.133" x="2603.387" y="1706.465" fill="none" width="187.87" height="730.213"/>
<rect id="_x31_2.13" x="2781.765" y="1535.656" fill="none" width="309.735" height="165.96"/>
<rect id="_x31_2.134" x="3071.085" y="1706.465" fill="none" width="187.87" height="730.213"/>
<rect id="_x31_2.11" x="2801.965" y="1711.916" fill="none" width="258.412" height="712.7"/>
<rect id="_x31_2.12" x="3298.388" y="1711.916" fill="none" width="258.412" height="712.7"/>
<rect id="_x31_2.10" x="2424.293" y="1789.605" fill="none" width="64.102" height="42.887"/>
<rect id="_x31_2.9" x="2081.84" y="1789.605" fill="none" width="64.102" height="42.887"/>
<rect id="_x31_2.8" x="1739.386" y="1789.605" fill="none" width="64.102" height="42.887"/>
<rect id="_x31_2.5" x="1582.338" y="1856.47" fill="none" width="119.341" height="95.499"/>
<rect id="_x31_2.6" x="1924.792" y="1856.47" fill="none" width="119.341" height="95.499"/>
<rect id="_x31_2.7" x="2267.245" y="1856.47" fill="none" width="119.341" height="95.499"/>
<rect id="_x31_2.37" x="1582.338" y="1665.965" fill="none" width="119.341" height="95.499"/>
<rect id="_x31_2.38" x="1924.792" y="1665.965" fill="none" width="119.341" height="95.499"/>
<rect id="_x31_2.39" x="2267.245" y="1665.965" fill="none" width="119.341" height="95.499"/>
<rect id="_x31_2.130" x="1582.338" y="1778.444" fill="none" width="119.341" height="39.657"/>
<rect id="_x31_2.131" x="1924.792" y="1778.444" fill="none" width="119.341" height="39.657"/>
<rect id="_x31_2.132" x="2267.245" y="1778.444" fill="none" width="119.341" height="39.657"/>
<rect id="_x31_2.23" x="604.687" y="390.918" fill="none" width="406.545" height="267.948"/>
<rect id="_x31_2.28" x="609.259" y="906.804" fill="none" width="406.545" height="267.948"/>
<rect id="_x31_2.34" x="1059.018" y="905.978" fill="none" width="267.847" height="268.006"/>
<rect id="_x31_2.91" x="286.668" y="1537.823" fill="none" width="258.604" height="80.813"/>
<rect id="_x31_2.94" x="2576.134" y="1240.53" fill="none" width="146.132" height="65.011"/>
<rect id="_x31_2.79" x="1076.431" y="26.859" fill="none" width="268.007" height="268.006"/>
<rect id="_x31_2.80" x="1387.638" y="26.859" fill="none" width="268.007" height="268.006"/>
<rect id="_x31_2.81" x="2752.493" y="26.859" fill="none" width="268.007" height="268.006"/>
<rect id="_x31_2.82" x="3063.607" y="26.859" fill="none" width="268.007" height="268.006"/>
<rect id="_x31_2.83" x="608.3" y="26.917" fill="none" width="406.545" height="267.948"/>
<rect id="_x31_2.84" x="2741.372" y="1239.752" fill="none" width="268.007" height="268.006"/>
<rect id="_x31_2.86" x="3052.579" y="1239.752" fill="none" width="268.007" height="268.006"/>
<rect id="_x31_2.87" x="1051.361" y="1239.752" fill="none" width="268.007" height="268.006"/>
<rect id="_x31_2.88" x="608.816" y="1239.752" fill="none" width="406.545" height="267.948"/>
<rect id="_x31_2.135" x="1813.973" y="1883.526" fill="none" width="78.823" height="52.737"/>
<rect id="_x31_2.136" x="2157.103" y="1883.526" fill="none" width="78.823" height="52.737"/>
<rect id="_x31_2.137" x="2500.722" y="1883.526" fill="none" width="78.823" height="52.737"/>
<rect id="_x31_2.42" x="1544.147" y="2082.241" fill="none" width="1007.561" height="212.251"/>
<rect id="_x31_2.41" x="924.749" y="2082.241" fill="none" width="212.229" height="212.251"/>
<rect id="_x31_2.95" x="1373.557" y="771.131" fill="none" width="268.007" height="85.275"/>
<g id="EVMs">
	<rect x="1708.255" y="871.752" fill="none" width="116.579" height="262"/>
	<rect x="1829.788" y="871.752" fill="none" width="116.626" height="262"/>
	<rect x="1951.414" y="871.752" fill="none" width="116.626" height="262"/>
	<rect x="2073.086" y="871.752" fill="none" width="116.626" height="262"/>
	<rect x="2194.712" y="871.752" fill="none" width="116.594" height="262"/>
	<rect x="2316.306" y="871.752" fill="none" width="116.658" height="262"/>
	<rect x="2437.964" y="871.752" fill="none" width="116.313" height="262"/>
	<rect x="2559.59" y="871.752" fill="none" width="116.626" height="262"/>
</g>
<rect id="EVM_Full_Shape" x="1708.209" y="871.752" fill="none" width="967.914" height="262"/>
<g id="BVMs">
	<rect x="1722.495" y="489.614" fill="none" width="116.579" height="128.254"/>
	<rect x="1844.073" y="489.615" fill="none" width="116.626" height="128.251"/>
	<rect x="1965.186" y="355.866" fill="none" width="116.626" height="129.083"/>
	<rect x="2087.325" y="489.615" fill="none" width="116.626" height="128.251"/>
	<rect x="2208.951" y="355.866" fill="none" width="116.594" height="129.082"/>
	<rect x="2330.545" y="489.614" fill="none" width="116.658" height="128.254"/>
	<rect x="2452.203" y="489.614" fill="none" width="116.313" height="128.254"/>
	<rect x="2573.829" y="489.614" fill="none" width="116.626" height="128.254"/>
	<rect x="1722.495" y="355.866" fill="none" width="116.579" height="129.083"/>
	<rect x="1844.073" y="355.866" fill="none" width="116.626" height="129.083"/>
	<rect x="1965.699" y="489.615" fill="none" width="116.626" height="128.251"/>
	<rect x="2087.325" y="355.866" fill="none" width="116.626" height="129.082"/>
	<rect x="2208.951" y="489.615" fill="none" width="116.594" height="128.251"/>
	<rect x="2330.545" y="355.866" fill="none" width="116.658" height="129.082"/>
	<rect x="2452.203" y="355.866" fill="none" width="116.313" height="129.082"/>
	<rect x="2573.829" y="355.866" fill="none" width="116.626" height="129.082"/>
</g>
<rect id="BVM_Full_Shape" x="1722.495" y="355.866" fill="none" width="967.914" height="262.001"/>
</svg>
